<?xml version="1.0" encoding="utf-8"?>
<!-- Generator: Adobe Illustrator 24.0.1, SVG Export Plug-In . SVG Version: 6.00 Build 0)  -->
<svg version="1.1" id="Layer_1" xmlns="http://www.w3.org/2000/svg" xmlns:xlink="http://www.w3.org/1999/xlink" x="0px" y="0px"
	 viewBox="0 0 891.39 456.79" style="enable-background:new 0 0 891.39 456.79;" xml:space="preserve">
<style type="text/css">
	.st0{opacity:0;fill:#FFFFFF;}
	.st1{fill:url(#SVGID_1_);}
	.st2{fill:#292929;}
	.st3{fill:#FFFFFF;}
	.st4{fill-rule:evenodd;clip-rule:evenodd;fill:#FEFEFE;}
	.st5{fill-rule:evenodd;clip-rule:evenodd;}
	.st6{fill:#F4F4F4;}
</style>
<g>
	<rect y="0" class="st0" width="891.39" height="456.79"/>
	<linearGradient id="SVGID_1_" gradientUnits="userSpaceOnUse" x1="288.7578" y1="249.8383" x2="600.0596" y2="249.8383">
		<stop  offset="5.617738e-03" style="stop-color:#8C6A33"/>
		<stop  offset="0.139" style="stop-color:#9A7638"/>
		<stop  offset="0.3542" style="stop-color:#A9843E"/>
		<stop  offset="0.5225" style="stop-color:#AF8940"/>
		<stop  offset="1" style="stop-color:#8C6A33"/>
	</linearGradient>
	<path class="st1" d="M293.05,249.84c-0.04,9.73,0.86,19.46,2.68,29.02c1.81,9.56,4.54,18.94,8.17,27.99
		c3.62,9.04,8.13,17.73,13.43,25.91c5.3,8.19,11.38,15.86,18.15,22.89c6.77,7.03,14.21,13.41,22.2,19.03
		c7.99,5.61,16.52,10.47,25.45,14.45c8.92,3.99,18.25,7.09,27.78,9.28c9.54,2.18,19.29,3.45,29.07,3.76
		c9.78,0.34,19.61-0.27,29.28-1.81c9.68-1.54,19.21-4.01,28.42-7.4c9.21-3.38,18.09-7.67,26.48-12.76
		c8.39-5.09,16.3-10.99,23.57-17.6c7.28-6.6,13.92-13.91,19.81-21.79c5.89-7.88,11.03-16.32,15.3-25.19
		c4.29-8.86,7.69-18.16,10.17-27.69c2.48-9.54,4.04-19.32,4.65-29.16c-0.52,9.85-1.99,19.65-4.39,29.22
		c-2.4,9.58-5.73,18.92-9.95,27.86c-4.21,8.94-9.29,17.47-15.14,25.44c-5.85,7.97-12.47,15.38-19.73,22.1
		c-7.26,6.72-15.18,12.74-23.59,17.96c-8.42,5.21-17.34,9.62-26.62,13.12c-9.28,3.51-18.89,6.1-28.68,7.74
		c-9.78,1.65-19.73,2.36-29.65,2.1c-9.92-0.23-19.83-1.43-29.54-3.56c-9.71-2.13-19.21-5.2-28.33-9.17
		c-9.12-3.97-17.85-8.82-26.05-14.48c-8.2-5.65-15.85-12.09-22.82-19.21c-6.98-7.11-13.27-14.9-18.76-23.22
		c-5.5-8.32-10.19-17.17-13.99-26.41c-3.81-9.23-6.7-18.83-8.65-28.63c-1.95-9.8-2.97-19.79-3.02-29.78c0-0.59,0.24-1.13,0.62-1.52
		c0.38-0.39,0.92-0.63,1.51-0.64c0.59,0,1.13,0.24,1.52,0.62c0.39,0.39,0.63,0.92,0.63,1.52v0.01V249.84z M295.81,211.75
		c2.48-9.54,5.88-18.83,10.17-27.69c4.28-8.87,9.42-17.31,15.31-25.19c5.89-7.88,12.53-15.18,19.81-21.79
		c7.27-6.61,15.18-12.51,23.57-17.6c8.39-5.09,17.27-9.38,26.48-12.75c9.21-3.39,18.74-5.86,28.42-7.4
		c9.68-1.54,19.5-2.15,29.28-1.81c9.79,0.32,19.54,1.58,29.07,3.77c9.54,2.18,18.86,5.28,27.78,9.27
		c8.93,3.98,17.46,8.83,25.45,14.45c7.99,5.61,15.44,11.99,22.2,19.03c6.77,7.03,12.86,14.71,18.15,22.89
		c5.3,8.19,9.81,16.87,13.43,25.91c3.63,9.04,6.36,18.42,8.17,27.99c1.81,9.56,2.71,19.29,2.67,29.02v0.01v0.01
		c0.01,0.59,0.25,1.13,0.64,1.51c0.39,0.39,0.93,0.62,1.52,0.62c0.59,0,1.13-0.25,1.51-0.64c0.38-0.39,0.62-0.93,0.62-1.52
		c-0.05-10-1.07-19.99-3.02-29.78c-1.95-9.8-4.84-19.4-8.65-28.64c-3.79-9.23-8.49-18.08-13.98-26.41
		c-5.5-8.32-11.78-16.11-18.76-23.23c-6.97-7.12-14.63-13.56-22.82-19.21c-8.2-5.65-16.93-10.51-26.05-14.48
		c-9.12-3.98-18.63-7.05-28.33-9.17s-19.62-3.33-29.54-3.56c-9.93-0.25-19.87,0.46-29.65,2.1c-9.78,1.65-19.4,4.23-28.67,7.74
		c-9.28,3.5-18.2,7.91-26.62,13.12c-8.42,5.21-16.33,11.23-23.59,17.96c-7.27,6.72-13.88,14.13-19.73,22.1
		c-5.85,7.97-10.94,16.5-15.14,25.44c-4.23,8.93-7.55,18.28-9.95,27.85c-2.4,9.58-3.87,19.38-4.39,29.23
		C291.77,231.07,293.33,221.29,295.81,211.75z M305.53,274.63L305.53,274.63c-0.11-0.59-0.44-1.08-0.9-1.39
		c-0.45-0.31-1.02-0.45-1.61-0.34c-0.58,0.11-1.06,0.44-1.37,0.89s-0.45,1.02-0.34,1.6c1.69,9.17,4.26,18.17,7.67,26.84
		c3.4,8.67,7.64,17.01,12.65,24.85c5,7.85,10.77,15.2,17.17,21.93c6.41,6.73,13.45,12.85,21.02,18.24
		c7.56,5.39,15.64,10.05,24.08,13.91c8.44,3.85,17.25,6.9,26.26,9.06c9.01,2.17,18.23,3.45,27.49,3.84s18.54-0.12,27.69-1.52
		c9.15-1.38,18.16-3.64,26.87-6.74c8.71-3.1,17.11-7.05,25.05-11.77c7.95-4.72,15.42-10.21,22.29-16.36
		c6.88-6.15,13.17-12.95,18.75-20.29c5.58-7.34,10.46-15.21,14.55-23.46c4.09-8.25,7.39-16.89,9.82-25.77
		c2.45-8.87,4-17.98,4.68-27.15c0.67-9.17,0.46-18.4-0.64-27.52c1.01,9.13,1.14,18.36,0.37,27.5c-0.76,9.14-2.41,18.21-4.93,27.03
		c-2.51,8.82-5.88,17.39-10.02,25.55c-4.14,8.17-9.07,15.94-14.68,23.16c-5.61,7.23-11.91,13.91-18.79,19.94
		c-6.87,6.03-14.32,11.39-22.22,15.98c-7.89,4.6-16.23,8.41-24.86,11.39c-8.62,2.98-17.53,5.12-26.56,6.39
		c-9.02,1.29-18.17,1.7-27.26,1.23s-18.14-1.81-26.96-4.03c-8.83-2.2-17.43-5.28-25.66-9.14c-8.23-3.85-16.09-8.49-23.43-13.84
		c-7.35-5.34-14.17-11.39-20.36-18.02c-6.19-6.63-11.74-13.86-16.54-21.55c-4.81-7.69-8.84-15.84-12.07-24.3
		c-3.23-8.46-5.64-17.23-7.2-26.14V274.63z M301.75,238.68c0.76-9.15,2.41-18.21,4.93-27.03c2.51-8.82,5.88-17.39,10.02-25.56
		c4.14-8.17,9.06-15.93,14.68-23.16c5.61-7.24,11.91-13.92,18.78-19.95c6.87-6.02,14.32-11.39,22.22-15.98
		c7.89-4.6,16.23-8.41,24.86-11.39c8.63-2.98,17.53-5.12,26.56-6.39c9.02-1.29,18.17-1.7,27.26-1.23
		c9.09,0.47,18.13,1.81,26.96,4.03c8.83,2.21,17.43,5.28,25.66,9.14c8.23,3.85,16.09,8.49,23.43,13.84
		c7.35,5.34,14.17,11.39,20.36,18.02c6.19,6.63,11.74,13.86,16.54,21.55c4.81,7.69,8.84,15.84,12.07,24.3
		c3.23,8.46,5.64,17.23,7.2,26.14l0,0.01l0,0.01c0.11,0.58,0.44,1.06,0.89,1.38c0.45,0.31,1.02,0.45,1.6,0.34
		c0.58-0.11,1.06-0.44,1.38-0.89c0.31-0.45,0.45-1.02,0.34-1.61c-1.69-9.17-4.26-18.17-7.67-26.84c-3.4-8.67-7.64-17.01-12.65-24.85
		c-5-7.85-10.77-15.2-17.17-21.93c-6.41-6.74-13.46-12.85-21.02-18.25c-7.56-5.39-15.64-10.05-24.08-13.91
		c-8.44-3.85-17.25-6.9-26.26-9.06c-9.01-2.17-18.23-3.45-27.49-3.84c-9.25-0.39-18.54,0.12-27.69,1.52
		c-9.15,1.37-18.16,3.64-26.87,6.74c-8.71,3.1-17.12,7.04-25.05,11.77c-7.94,4.72-15.41,10.21-22.29,16.36
		c-6.88,6.15-13.17,12.95-18.74,20.29c-5.59,7.34-10.46,15.2-14.55,23.46c-4.09,8.25-7.39,16.89-9.82,25.77
		c-2.45,8.87-4.01,17.98-4.68,27.15c-0.67,9.17-0.46,18.4,0.64,27.52C301.11,257.05,300.99,247.83,301.75,238.68z M323.14,298.8
		l0-0.01c-0.23-0.55-0.65-0.95-1.16-1.16c-0.51-0.22-1.09-0.23-1.64-0.01c-0.54,0.23-0.95,0.65-1.16,1.16
		c-0.21,0.51-0.23,1.09-0.01,1.64c3.29,8,7.35,15.68,12.09,22.9c4.74,7.22,10.18,13.98,16.22,20.15
		c6.04,6.17,12.67,11.75,19.77,16.64c7.1,4.89,14.66,9.11,22.55,12.56c7.89,3.46,16.1,6.16,24.49,8.06
		c8.39,1.9,16.96,2.99,25.56,3.25c8.6,0.27,17.21-0.32,25.68-1.72c8.47-1.4,16.81-3.61,24.85-6.6c8.05-2.98,15.8-6.73,23.12-11.19
		c7.32-4.46,14.21-9.62,20.52-15.4c6.32-5.78,12.07-12.17,17.16-19.05c5.09-6.87,9.52-14.23,13.2-21.94
		c3.69-7.7,6.64-15.76,8.8-24.02c2.17-8.26,3.54-16.72,4.09-25.23c0.56-8.51,0.28-17.07-0.83-25.52c-1.1-8.45-3.02-16.79-5.72-24.86
		c2.62,8.1,4.45,16.45,5.45,24.9c1.01,8.44,1.2,16.98,0.56,25.45c-0.63,8.47-2.09,16.88-4.33,25.06
		c-2.24,8.19-5.25,16.16-8.99,23.76c-3.74,7.61-8.2,14.85-13.31,21.61c-5.11,6.75-10.86,13.01-17.17,18.65
		c-6.3,5.65-13.15,10.67-20.41,14.99c-7.26,4.32-14.94,7.94-22.89,10.78c-7.95,2.86-16.16,4.95-24.49,6.23
		c-8.33,1.29-16.79,1.77-25.2,1.42c-8.42-0.34-16.8-1.5-24.99-3.44c-8.19-1.94-16.19-4.66-23.86-8.12
		c-7.67-3.45-15-7.64-21.86-12.48c-6.87-4.84-13.26-10.34-19.07-16.4c-5.81-6.06-11.02-12.68-15.54-19.73
		c-4.53-7.05-8.38-14.53-11.49-22.32L323.14,298.8z M312.64,266.33c-1.01-8.44-1.2-16.98-0.56-25.46
		c0.63-8.47,2.09-16.87,4.33-25.06c2.24-8.19,5.25-16.16,8.99-23.76c3.74-7.61,8.2-14.85,13.32-21.61
		c5.11-6.75,10.86-13.02,17.16-18.66c6.3-5.65,13.15-10.67,20.41-14.99c7.26-4.32,14.94-7.93,22.89-10.78
		c7.95-2.86,16.16-4.95,24.49-6.24c8.33-1.28,16.78-1.77,25.2-1.42c8.42,0.34,16.8,1.5,24.99,3.44c8.19,1.94,16.19,4.66,23.86,8.12
		c7.67,3.45,15,7.64,21.86,12.48c6.86,4.84,13.26,10.34,19.06,16.4c5.81,6.05,11.02,12.67,15.54,19.73
		c4.53,7.05,8.38,14.54,11.48,22.32l0.01,0.01l0,0.01c0.23,0.55,0.65,0.95,1.16,1.16c0.51,0.21,1.09,0.23,1.64,0.01
		c0.55-0.23,0.95-0.65,1.17-1.16c0.21-0.51,0.23-1.09,0.01-1.64c-3.29-8-7.35-15.68-12.09-22.9c-4.74-7.22-10.18-13.99-16.22-20.15
		c-6.04-6.17-12.67-11.75-19.77-16.64c-7.1-4.9-14.66-9.11-22.55-12.57c-7.89-3.46-16.1-6.16-24.49-8.06s-16.96-2.99-25.56-3.25
		c-8.59-0.27-17.21,0.32-25.68,1.72c-8.48,1.4-16.81,3.61-24.85,6.6c-8.05,2.98-15.8,6.73-23.12,11.19
		c-7.32,4.46-14.21,9.62-20.53,15.41c-6.32,5.78-12.07,12.17-17.16,19.04c-5.09,6.88-9.52,14.23-13.21,21.94
		c-3.69,7.7-6.64,15.76-8.8,24.02c-2.17,8.26-3.54,16.72-4.09,25.23c-0.56,8.52-0.28,17.07,0.83,25.52
		c1.1,8.45,3.02,16.79,5.72,24.86C315.48,283.13,313.65,274.78,312.64,266.33z M346.99,320.74
		C346.99,320.74,346.99,320.73,346.99,320.74c-0.36-0.49-0.87-0.77-1.41-0.86c-0.54-0.08-1.12,0.04-1.59,0.4
		c-0.48,0.35-0.77,0.86-0.85,1.41c-0.08,0.54,0.04,1.12,0.39,1.59c4.74,6.41,10.09,12.37,15.95,17.77
		c5.86,5.4,12.23,10.23,19.02,14.39c6.78,4.17,13.96,7.67,21.4,10.47c7.44,2.79,15.14,4.88,22.97,6.21
		c7.83,1.33,15.78,1.91,23.7,1.74c7.93-0.17,15.84-1.1,23.58-2.78c7.75-1.67,15.32-4.11,22.59-7.25
		c7.27-3.13,14.23-6.96,20.76-11.42c6.54-4.45,12.64-9.52,18.2-15.13c5.56-5.61,10.58-11.75,14.95-18.32
		c4.38-6.56,8.11-13.55,11.14-20.82c3.03-7.27,5.37-14.83,6.97-22.54c1.6-7.7,2.47-15.56,2.58-23.43
		c0.12-7.86-0.51-15.73-1.89-23.46c-1.37-7.74-3.51-15.33-6.35-22.65c-2.84-7.32-6.38-14.36-10.57-20.98
		c4.11,6.67,7.57,13.75,10.32,21.07c2.75,7.34,4.79,14.93,6.07,22.64c1.29,7.72,1.82,15.55,1.62,23.36s-1.15,15.6-2.83,23.21
		c-1.67,7.63-4.07,15.08-7.16,22.24c-3.08,7.16-6.84,14.02-11.24,20.45c-4.38,6.44-9.4,12.43-14.94,17.89
		c-5.54,5.46-11.6,10.38-18.07,14.68c-6.47,4.31-13.34,7.98-20.5,10.97c-7.16,2.99-14.6,5.29-22.2,6.84
		c-7.59,1.56-15.33,2.38-23.08,2.46c-7.74,0.08-15.49-0.58-23.1-1.96c-7.61-1.38-15.08-3.49-22.29-6.29
		c-7.2-2.8-14.13-6.28-20.66-10.4c-6.53-4.11-12.65-8.86-18.26-14.14c-5.61-5.28-10.72-11.1-15.22-17.36
		C347,320.75,346.99,320.75,346.99,320.74z M329.96,293.53c-2.75-7.33-4.79-14.93-6.07-22.64c-1.29-7.72-1.82-15.55-1.62-23.36
		c0.2-7.81,1.15-15.59,2.83-23.21c1.67-7.62,4.07-15.08,7.15-22.24c3.08-7.16,6.84-14.02,11.24-20.45
		c4.38-6.44,9.4-12.43,14.94-17.89c5.54-5.46,11.6-10.39,18.07-14.68c6.47-4.31,13.34-7.99,20.5-10.97
		c7.16-2.99,14.6-5.29,22.2-6.84c7.6-1.56,15.33-2.38,23.08-2.46c7.74-0.08,15.49,0.57,23.1,1.96c7.61,1.38,15.08,3.49,22.29,6.29
		c7.2,2.8,14.13,6.28,20.66,10.4c6.54,4.11,12.65,8.86,18.27,14.14c5.61,5.29,10.72,11.11,15.22,17.36c0,0,0.01,0.01,0.01,0.01
		c0,0,0,0.01,0.01,0.01c0.35,0.48,0.86,0.77,1.41,0.85c0.54,0.08,1.11-0.04,1.59-0.39c0.48-0.35,0.76-0.86,0.85-1.41
		s-0.04-1.12-0.39-1.59c-4.74-6.42-10.09-12.38-15.95-17.77c-5.86-5.4-12.24-10.23-19.02-14.39c-6.78-4.17-13.96-7.67-21.4-10.47
		c-7.44-2.79-15.14-4.88-22.97-6.2c-7.83-1.33-15.78-1.92-23.71-1.74c-7.93,0.17-15.84,1.1-23.58,2.78
		c-7.74,1.67-15.32,4.11-22.59,7.24c-7.27,3.13-14.23,6.96-20.76,11.42c-6.54,4.45-12.64,9.52-18.2,15.13
		c-5.56,5.61-10.58,11.75-14.95,18.32c-4.38,6.56-8.11,13.55-11.14,20.83c-3.03,7.27-5.37,14.83-6.97,22.54
		c-1.61,7.7-2.47,15.56-2.59,23.42c-0.11,7.86,0.52,15.73,1.9,23.47c1.37,7.74,3.51,15.33,6.34,22.65
		c2.84,7.31,6.38,14.36,10.57,20.98C336.16,307.93,332.71,300.86,329.96,293.53z M375.17,335.57c-0.01,0-0.01-0.01-0.01-0.01
		c-0.47-0.37-1.03-0.51-1.58-0.45c-0.55,0.06-1.07,0.33-1.44,0.8c-0.37,0.46-0.51,1.03-0.45,1.58c0.06,0.54,0.33,1.06,0.8,1.43
		c5.71,4.55,11.86,8.54,18.32,11.92c6.46,3.38,13.25,6.14,20.23,8.21c6.98,2.08,14.16,3.48,21.4,4.18
		c7.24,0.71,14.54,0.73,21.78,0.05c7.24-0.67,14.4-2.03,21.37-4.05c6.97-2.02,13.75-4.71,20.2-8.02c6.46-3.3,12.58-7.24,18.27-11.71
		c5.69-4.48,10.95-9.5,15.68-14.97c4.74-5.46,8.94-11.38,12.54-17.65c3.6-6.26,6.6-12.86,8.93-19.7c2.33-6.83,4-13.88,4.98-21.02
		c0.98-7.14,1.29-14.37,0.9-21.55c-0.38-7.19-1.44-14.33-3.18-21.31c-1.72-6.98-4.11-13.79-7.13-20.31
		c-3.01-6.53-6.66-12.75-10.86-18.56s-8.97-11.22-14.2-16.11c5.18,4.95,9.87,10.41,13.99,16.26c4.12,5.85,7.68,12.1,10.59,18.62
		c2.92,6.53,5.21,13.33,6.84,20.28c1.63,6.95,2.6,14.05,2.88,21.17c0.29,7.12-0.1,14.27-1.15,21.31
		c-1.06,7.04-2.79,13.98-5.17,20.68c-2.38,6.71-5.41,13.17-9.03,19.29s-7.83,11.88-12.54,17.18c-4.7,5.31-9.92,10.17-15.54,14.48
		c-5.62,4.31-11.66,8.08-18,11.23c-6.34,3.16-12.98,5.69-19.79,7.58c-6.81,1.89-13.8,3.12-20.84,3.69
		c-7.04,0.57-14.13,0.46-21.14-0.31c-7.01-0.77-13.94-2.22-20.67-4.31c-6.73-2.08-13.24-4.83-19.44-8.17
		c-6.19-3.34-12.06-7.26-17.51-11.71C375.17,335.57,375.17,335.57,375.17,335.57z M353.12,315.1c-4.12-5.85-7.68-12.09-10.59-18.62
		c-2.92-6.53-5.21-13.33-6.84-20.27c-1.63-6.95-2.6-14.05-2.89-21.18c-0.29-7.12,0.1-14.27,1.15-21.31
		c1.06-7.04,2.79-13.98,5.17-20.68c2.38-6.7,5.41-13.17,9.03-19.29c3.62-6.11,7.83-11.88,12.54-17.18
		c4.7-5.31,9.92-10.17,15.54-14.48c5.62-4.31,11.66-8.08,18-11.23c6.34-3.16,12.98-5.69,19.79-7.58c6.81-1.89,13.8-3.12,20.84-3.69
		c7.04-0.57,14.13-0.46,21.14,0.32c7.01,0.77,13.94,2.22,20.67,4.31c6.73,2.09,13.24,4.83,19.44,8.17
		c6.19,3.33,12.06,7.26,17.51,11.71c0,0,0.01,0.01,0.01,0.01c0,0,0.01,0.01,0.01,0.01c0.46,0.37,1.03,0.51,1.57,0.45
		c0.54-0.06,1.07-0.33,1.44-0.8c0.37-0.46,0.51-1.03,0.45-1.58c-0.06-0.54-0.33-1.06-0.8-1.43c-5.71-4.55-11.86-8.54-18.32-11.92
		c-6.46-3.38-13.25-6.14-20.23-8.21c-6.98-2.08-14.16-3.48-21.4-4.19c-7.24-0.71-14.54-0.73-21.78-0.05
		c-7.24,0.67-14.4,2.03-21.37,4.05c-6.97,2.02-13.75,4.71-20.2,8.02c-6.46,3.3-12.58,7.24-18.27,11.71
		c-5.69,4.48-10.95,9.5-15.68,14.97c-4.74,5.46-8.94,11.38-12.55,17.65c-3.6,6.26-6.6,12.87-8.93,19.7
		c-2.33,6.83-3.99,13.88-4.98,21.02c-0.99,7.14-1.29,14.37-0.9,21.55c0.38,7.19,1.45,14.33,3.18,21.31
		c1.72,6.98,4.11,13.79,7.13,20.31c3.01,6.52,6.66,12.74,10.86,18.55c4.2,5.82,8.96,11.22,14.2,16.11
		C361.93,326.41,357.24,320.95,353.12,315.1z M409.48,343.44L409.48,343.44c-0.01,0-0.01,0-0.02,0c0,0,0,0-0.01,0
		c-0.56-0.2-1.14-0.16-1.64,0.07s-0.91,0.65-1.11,1.21c-0.2,0.56-0.16,1.14,0.07,1.64c0.23,0.49,0.65,0.9,1.21,1.11
		c6.22,2.27,12.66,3.94,19.2,4.99c6.54,1.05,13.17,1.48,19.77,1.26c6.61-0.22,13.19-1.07,19.63-2.53
		c6.44-1.47,12.73-3.54,18.77-6.19c6.04-2.65,11.82-5.87,17.24-9.6c5.42-3.74,10.49-7.98,15.1-12.67c4.62-4.69,8.77-9.82,12.4-15.29
		c3.63-5.48,6.73-11.29,9.25-17.35c2.53-6.05,4.47-12.34,5.8-18.76c1.33-6.41,2.04-12.95,2.1-19.5c0.08-6.54-0.49-13.09-1.66-19.51
		c-1.17-6.43-2.95-12.74-5.32-18.82c-2.36-6.08-5.29-11.94-8.75-17.46c-3.46-5.52-7.43-10.72-11.86-15.48
		c-4.43-4.77-9.32-9.1-14.58-12.93c-5.26-3.83-10.87-7.15-16.76-9.89c5.84,2.82,11.41,6.21,16.6,10.1c5.19,3.89,10,8.27,14.34,13.08
		c4.35,4.8,8.22,10.01,11.57,15.54c3.35,5.53,6.18,11.37,8.43,17.42c2.26,6.05,3.93,12.32,5,18.67c1.07,6.36,1.53,12.81,1.37,19.26
		c-0.16,6.44-0.94,12.85-2.33,19.13c-1.39,6.28-3.38,12.42-5.93,18.32c-2.55,5.9-5.66,11.54-9.28,16.84
		c-3.62,5.3-7.74,10.25-12.29,14.75c-4.55,4.5-9.54,8.57-14.86,12.12c-5.32,3.55-10.97,6.6-16.86,9.09
		c-5.88,2.49-12,4.41-18.24,5.74c-6.24,1.33-12.6,2.07-18.97,2.18c-6.37,0.13-12.74-0.37-19.01-1.47
		C421.59,347.39,415.42,345.7,409.48,343.44L409.48,343.44z M383.9,331.86c-5.19-3.89-10-8.27-14.34-13.08
		c-4.35-4.8-8.22-10.01-11.58-15.54c-3.35-5.53-6.18-11.37-8.43-17.42c-2.26-6.05-3.93-12.32-5-18.67
		c-1.07-6.36-1.53-12.81-1.37-19.26c0.16-6.44,0.94-12.85,2.33-19.13c1.39-6.28,3.38-12.42,5.93-18.32
		c2.55-5.9,5.66-11.54,9.28-16.84c3.62-5.3,7.74-10.25,12.29-14.75c4.55-4.5,9.54-8.57,14.86-12.12c5.32-3.55,10.97-6.6,16.86-9.09
		c5.89-2.49,12.01-4.41,18.25-5.74c6.24-1.33,12.6-2.07,18.97-2.18c6.37-0.13,12.75,0.37,19.01,1.47s12.43,2.79,18.37,5.04l0.01,0
		l0.01,0c0,0,0.01,0,0.01,0c0,0,0,0,0.01,0c0.56,0.2,1.14,0.16,1.64-0.07c0.5-0.23,0.91-0.65,1.11-1.21
		c0.2-0.56,0.16-1.14-0.08-1.64c-0.23-0.49-0.65-0.91-1.21-1.11c-6.23-2.27-12.67-3.94-19.2-4.99c-6.54-1.05-13.17-1.48-19.77-1.26
		c-6.61,0.22-13.19,1.07-19.63,2.53c-6.44,1.47-12.73,3.54-18.77,6.19c-6.04,2.65-11.82,5.87-17.25,9.6
		c-5.42,3.74-10.49,7.98-15.1,12.67c-4.61,4.69-8.77,9.82-12.39,15.29c-3.63,5.48-6.73,11.29-9.25,17.35
		c-2.53,6.05-4.47,12.34-5.8,18.76s-2.04,12.95-2.1,19.5c-0.08,6.55,0.49,13.09,1.66,19.51c1.17,6.43,2.95,12.74,5.32,18.82
		c2.36,6.08,5.29,11.94,8.75,17.46c3.46,5.52,7.43,10.72,11.86,15.49c4.43,4.77,9.32,9.1,14.58,12.93
		c5.25,3.83,10.87,7.15,16.76,9.89C394.66,339.14,389.09,335.74,383.9,331.86z M442.95,339.44L442.95,339.44c-0.01,0-0.01,0-0.01,0
		c0,0-0.01,0-0.01,0c-0.6,0-1.13,0.23-1.52,0.62c-0.39,0.38-0.63,0.92-0.64,1.51c0,0.6,0.23,1.13,0.62,1.52
		c0.39,0.39,0.92,0.63,1.51,0.64c5.95,0.04,11.91-0.48,17.75-1.55c5.85-1.08,11.59-2.7,17.12-4.88c5.53-2.16,10.85-4.85,15.85-8.02
		c5.01-3.17,9.72-6.8,14.04-10.85c4.32-4.04,8.25-8.5,11.73-13.28c3.48-4.78,6.5-9.88,9.01-15.22c2.52-5.34,4.51-10.92,5.95-16.64
		c1.44-5.71,2.35-11.57,2.69-17.44c0.34-5.87,0.11-11.78-0.66-17.61c-0.77-5.83-2.1-11.57-3.98-17.14
		c-1.87-5.57-4.28-10.94-7.17-16.04c-2.89-5.09-6.26-9.92-10.05-14.37c-3.79-4.46-8-8.55-12.55-12.22c-4.55-3.66-9.44-6.9-14.6-9.64
		s-10.57-4.98-16.14-6.69c-5.57-1.71-11.3-2.88-17.09-3.48c5.78,0.7,11.48,1.95,17.01,3.74c5.53,1.79,10.88,4.1,15.96,6.91
		c5.08,2.8,9.88,6.08,14.34,9.79c4.45,3.7,8.56,7.82,12.24,12.28c3.68,4.46,6.93,9.27,9.71,14.34c2.77,5.07,5.06,10.39,6.81,15.89
		c1.76,5.5,2.98,11.15,3.65,16.87c0.67,5.72,0.8,11.5,0.38,17.24c-0.42,5.74-1.39,11.43-2.88,16.97
		c-1.49,5.54-3.51,10.94-6.03,16.09c-2.52,5.15-5.52,10.05-8.97,14.63c-3.44,4.58-7.31,8.82-11.54,12.67
		c-4.23,3.84-8.82,7.28-13.7,10.26c-4.87,2.98-10.02,5.49-15.36,7.48c-5.34,2-10.86,3.48-16.47,4.42
		c-5.61,0.94-11.31,1.35-16.99,1.22H442.95z M417,337.28c-5.53-1.79-10.88-4.1-15.96-6.91c-5.08-2.8-9.88-6.09-14.34-9.79
		s-8.56-7.82-12.24-12.28c-3.68-4.46-6.93-9.27-9.71-14.34c-2.77-5.07-5.06-10.39-6.82-15.89c-1.76-5.49-2.97-11.15-3.64-16.87
		c-0.67-5.72-0.8-11.5-0.38-17.23c0.42-5.74,1.39-11.43,2.88-16.97c1.49-5.54,3.51-10.94,6.03-16.09
		c2.52-5.15,5.52-10.06,8.97-14.63c3.44-4.58,7.31-8.82,11.54-12.67c4.23-3.85,8.82-7.28,13.69-10.26
		c4.87-2.98,10.02-5.49,15.36-7.48c5.33-2,10.86-3.48,16.47-4.42c5.61-0.94,11.31-1.36,16.99-1.23l0.01,0h0.01c0.01,0,0.01,0,0.01,0
		c0,0,0.01,0,0.01,0c0.59,0,1.13-0.23,1.52-0.62c0.39-0.39,0.63-0.92,0.64-1.51c0-0.59-0.23-1.13-0.62-1.52
		c-0.39-0.39-0.92-0.63-1.51-0.64c-5.95-0.05-11.91,0.48-17.75,1.55c-5.85,1.08-11.59,2.7-17.12,4.87
		c-5.53,2.16-10.85,4.86-15.85,8.03c-5.01,3.17-9.72,6.8-14.04,10.85c-4.32,4.04-8.25,8.5-11.73,13.27
		c-3.48,4.78-6.5,9.88-9.01,15.23c-2.52,5.34-4.51,10.92-5.95,16.64c-1.44,5.71-2.35,11.56-2.69,17.44
		c-0.33,5.88-0.11,11.78,0.66,17.61c0.77,5.83,2.1,11.58,3.98,17.14c1.87,5.56,4.28,10.94,7.17,16.04
		c2.89,5.1,6.26,9.92,10.05,14.38c3.79,4.46,8,8.55,12.55,12.22c4.55,3.67,9.44,6.9,14.6,9.64c5.15,2.74,10.56,4.98,16.14,6.69
		c5.57,1.71,11.3,2.88,17.09,3.48C428.23,340.32,422.53,339.06,417,337.28z M469.14,325.21L469.14,325.21c-0.01,0-0.01,0-0.02,0.01
		c-0.01,0-0.01,0-0.01,0c-0.56,0.19-0.99,0.59-1.23,1.08s-0.3,1.08-0.11,1.64c0.19,0.56,0.59,0.99,1.08,1.23
		c0.49,0.24,1.08,0.3,1.63,0.11c5-1.7,9.83-3.86,14.42-6.46c4.59-2.6,8.93-5.63,12.93-9.04c4-3.41,7.68-7.21,10.96-11.31
		c3.28-4.1,6.18-8.51,8.63-13.14c2.46-4.63,4.47-9.49,6.02-14.5c1.54-5.01,2.61-10.15,3.18-15.35c0.57-5.2,0.65-10.44,0.23-15.65
		c-0.42-5.21-1.33-10.37-2.74-15.39c-1.4-5.02-3.27-9.9-5.58-14.57c-2.31-4.66-5.05-9.11-8.2-13.24
		c-3.14-4.14-6.68-7.97-10.55-11.42c-3.87-3.46-8.06-6.54-12.5-9.21c-4.44-2.67-9.13-4.91-13.98-6.7
		c-4.85-1.79-9.86-3.13-14.95-3.97c-5.09-0.85-10.26-1.21-15.41-1.08c-5.15,0.13-10.29,0.75-15.31,1.86
		c5.04-1.02,10.18-1.55,15.32-1.6c5.14-0.04,10.27,0.41,15.32,1.34c5.04,0.93,9.99,2.34,14.76,4.19c4.77,1.86,9.36,4.16,13.7,6.87
		c4.33,2.71,8.41,5.82,12.16,9.28c3.75,3.46,7.16,7.28,10.17,11.39c3.02,4.11,5.63,8.5,7.8,13.1c2.18,4.6,3.92,9.39,5.2,14.31
		c1.28,4.91,2.09,9.95,2.41,15c0.32,5.06,0.15,10.14-0.49,15.16c-0.64,5.02-1.76,9.97-3.33,14.78c-1.57,4.8-3.59,9.45-6.03,13.86
		c-2.44,4.42-5.29,8.6-8.5,12.47c-3.22,3.87-6.79,7.44-10.67,10.63c-3.88,3.19-8.06,6.01-12.47,8.41
		C478.55,321.7,473.92,323.68,469.14,325.21L469.14,325.21z M445.86,331.16c-5.13,0.04-10.27-0.41-15.31-1.34
		c-5.04-0.93-9.99-2.34-14.76-4.19c-4.77-1.86-9.36-4.16-13.7-6.87c-4.33-2.71-8.41-5.82-12.16-9.28
		c-3.75-3.46-7.16-7.28-10.17-11.39c-3.02-4.11-5.63-8.5-7.8-13.09c-2.18-4.6-3.92-9.4-5.2-14.31c-1.28-4.91-2.08-9.95-2.4-15
		c-0.32-5.06-0.16-10.14,0.49-15.16c0.64-5.02,1.76-9.97,3.33-14.78c1.57-4.8,3.59-9.45,6.03-13.86c2.43-4.42,5.29-8.6,8.5-12.47
		c3.22-3.88,6.79-7.44,10.67-10.63c3.88-3.19,8.06-6.01,12.47-8.4c4.41-2.39,9.04-4.37,13.81-5.9l0.01,0h0.01c0,0,0.01,0,0.01,0
		c0,0,0,0,0.01-0.01c0.56-0.19,0.99-0.59,1.24-1.08c0.24-0.49,0.3-1.08,0.11-1.64c-0.19-0.56-0.59-0.99-1.08-1.23
		c-0.49-0.24-1.08-0.3-1.63-0.11c-5,1.69-9.84,3.86-14.42,6.46c-4.59,2.6-8.93,5.63-12.93,9.05c-4.01,3.41-7.68,7.21-10.96,11.31
		s-6.18,8.51-8.63,13.14c-2.45,4.64-4.47,9.49-6.01,14.5c-1.55,5.01-2.62,10.15-3.19,15.35c-0.57,5.2-0.65,10.45-0.23,15.65
		c0.42,5.21,1.33,10.37,2.74,15.39c1.4,5.02,3.27,9.9,5.58,14.57c2.31,4.67,5.05,9.11,8.2,13.24c3.14,4.14,6.69,7.97,10.56,11.42
		c3.87,3.46,8.06,6.54,12.5,9.21c4.44,2.67,9.13,4.91,13.98,6.7c4.85,1.79,9.86,3.13,14.95,3.97c5.09,0.85,10.26,1.21,15.41,1.08
		c5.15-0.13,10.29-0.75,15.31-1.86C456.14,330.59,451,331.12,445.86,331.16z M485.23,305.51L485.23,305.51
		c-0.01,0.01-0.01,0.01-0.02,0.01c0,0-0.01,0.01-0.01,0.01c-0.47,0.36-0.76,0.87-0.84,1.41c-0.08,0.54,0.05,1.12,0.41,1.59
		s0.87,0.76,1.41,0.84c0.54,0.08,1.12-0.05,1.59-0.41c3.68-2.76,7.1-5.87,10.2-9.27c3.1-3.4,5.88-7.08,8.27-11
		c2.4-3.91,4.42-8.05,6.04-12.33c1.62-4.28,2.84-8.72,3.62-13.22c0.79-4.5,1.16-9.07,1.1-13.63c-0.06-4.56-0.54-9.11-1.46-13.58
		c-0.9-4.47-2.24-8.84-3.97-13.05c-1.73-4.21-3.86-8.24-6.36-12.03c-2.49-3.79-5.33-7.35-8.48-10.61s-6.59-6.22-10.29-8.82
		c-3.69-2.61-7.64-4.86-11.75-6.72c-4.11-1.86-8.4-3.33-12.78-4.37c-4.38-1.05-8.85-1.69-13.34-1.91s-9-0.02-13.44,0.6
		c-4.45,0.62-8.83,1.66-13.07,3.1c-4.24,1.44-8.35,3.28-12.23,5.5c3.93-2.14,8.06-3.89,12.31-5.25c4.26-1.35,8.63-2.29,13.06-2.82
		c4.42-0.53,8.89-0.63,13.33-0.33c4.44,0.31,8.84,1.03,13.13,2.15c4.3,1.12,8.48,2.64,12.48,4.55c4,1.9,7.82,4.18,11.38,6.8
		c3.56,2.62,6.87,5.58,9.87,8.81c3,3.24,5.69,6.75,8.03,10.48c2.36,3.72,4.34,7.67,5.93,11.77c1.6,4.09,2.8,8.34,3.58,12.65
		c0.79,4.32,1.17,8.7,1.14,13.08c-0.03,4.38-0.47,8.75-1.32,13.04c-0.84,4.29-2.09,8.49-3.71,12.54c-1.62,4.05-3.62,7.94-5.97,11.61
		c-2.35,3.66-5.04,7.1-8.04,10.25C492.04,300.1,488.76,302.97,485.23,305.51L485.23,305.51z M466.67,317.3
		c-4.25,1.35-8.63,2.29-13.05,2.82c-4.42,0.52-8.89,0.63-13.33,0.32c-4.44-0.3-8.84-1.03-13.13-2.15c-4.3-1.12-8.48-2.64-12.48-4.54
		c-4-1.9-7.81-4.18-11.38-6.8c-3.56-2.62-6.87-5.57-9.87-8.81c-3-3.24-5.69-6.75-8.03-10.48c-2.35-3.72-4.34-7.67-5.93-11.77
		c-1.59-4.09-2.8-8.34-3.58-12.65c-0.79-4.32-1.17-8.7-1.14-13.08c0.03-4.38,0.47-8.75,1.32-13.04c0.84-4.29,2.09-8.49,3.71-12.54
		c1.62-4.05,3.62-7.94,5.97-11.6c2.34-3.67,5.04-7.1,8.03-10.25c2.99-3.15,6.28-6.02,9.8-8.55l0,0l0.01,0
		c0-0.01,0.01-0.01,0.01-0.01c0,0,0.01-0.01,0.01-0.01c0.48-0.35,0.76-0.87,0.84-1.41c0.08-0.54-0.05-1.12-0.41-1.59
		c-0.36-0.47-0.87-0.76-1.41-0.84c-0.54-0.08-1.12,0.05-1.59,0.41c-3.68,2.76-7.1,5.87-10.2,9.27c-3.1,3.4-5.88,7.08-8.27,11
		c-2.4,3.91-4.42,8.05-6.04,12.33c-1.62,4.28-2.84,8.72-3.62,13.22c-0.79,4.5-1.16,9.07-1.1,13.63c0.06,4.56,0.54,9.12,1.45,13.58
		c0.91,4.47,2.24,8.84,3.98,13.05c1.73,4.21,3.87,8.24,6.37,12.03c2.49,3.79,5.33,7.35,8.48,10.61c3.15,3.26,6.59,6.22,10.29,8.82
		c3.69,2.61,7.64,4.86,11.75,6.72c4.12,1.86,8.4,3.32,12.79,4.37c4.38,1.05,8.85,1.69,13.34,1.91c4.49,0.22,9,0.03,13.44-0.6
		c4.45-0.62,8.83-1.65,13.07-3.09c4.24-1.44,8.34-3.28,12.23-5.5C475.05,314.2,470.92,315.96,466.67,317.3z M494.09,281.19
		L494.09,281.19c-0.01,0.01-0.01,0.02-0.02,0.02c0,0.01-0.01,0.01-0.01,0.02c-0.31,0.5-0.38,1.09-0.25,1.62s0.46,1.02,0.96,1.33
		c0.5,0.31,1.09,0.38,1.62,0.25c0.53-0.13,1.02-0.46,1.33-0.96c2.05-3.35,3.79-6.89,5.19-10.56c1.39-3.67,2.45-7.46,3.13-11.32
		c0.69-3.85,1.01-7.77,0.96-11.67c-0.04-3.9-0.45-7.8-1.22-11.62c-0.76-3.82-1.88-7.57-3.33-11.18c-1.45-3.61-3.23-7.08-5.33-10.34
		c-2.1-3.27-4.5-6.33-7.17-9.14c-2.67-2.81-5.59-5.36-8.73-7.62c-3.14-2.24-6.49-4.2-9.98-5.83c-3.49-1.63-7.12-2.95-10.86-3.89
		c-3.73-0.95-7.54-1.54-11.37-1.78c-3.83-0.24-7.68-0.11-11.48,0.37c-3.8,0.47-7.55,1.3-11.19,2.47c-3.64,1.16-7.17,2.66-10.52,4.47
		c-3.36,1.81-6.54,3.94-9.49,6.34c-2.95,2.4-5.68,5.08-8.12,7.99c2.51-2.85,5.29-5.46,8.29-7.78c2.99-2.32,6.21-4.36,9.57-6.07
		c3.37-1.72,6.89-3.12,10.51-4.18s7.33-1.79,11.07-2.17c3.74-0.38,7.52-0.41,11.26-0.09c3.74,0.32,7.45,0.98,11.05,1.99
		c3.61,1,7.11,2.36,10.46,4.03c3.35,1.67,6.53,3.64,9.52,5.87c2.98,2.25,5.74,4.78,8.24,7.53c2.5,2.76,4.74,5.75,6.67,8.92
		c1.93,3.17,3.56,6.53,4.86,10c1.3,3.47,2.28,7.06,2.92,10.69c0.64,3.65,0.94,7.34,0.89,11.03c-0.04,3.69-0.43,7.36-1.16,10.97
		c-0.73,3.61-1.8,7.14-3.19,10.54C497.79,274.83,496.08,278.1,494.09,281.19L494.09,281.19z M482.31,297.3
		c-3,2.32-6.21,4.36-9.57,6.07c-3.37,1.72-6.89,3.12-10.51,4.18c-3.62,1.06-7.33,1.79-11.08,2.17c-3.74,0.38-7.51,0.41-11.26,0.09
		c-3.74-0.32-7.44-0.99-11.05-2c-3.61-1-7.11-2.36-10.46-4.02c-3.35-1.67-6.54-3.64-9.52-5.87c-2.98-2.25-5.74-4.78-8.24-7.53
		c-2.5-2.76-4.73-5.75-6.67-8.92c-1.93-3.17-3.56-6.53-4.86-10c-1.3-3.47-2.28-7.06-2.92-10.7c-0.64-3.64-0.94-7.34-0.9-11.03
		c0.05-3.69,0.43-7.37,1.17-10.97c0.73-3.61,1.8-7.14,3.19-10.54c1.39-3.4,3.09-6.67,5.08-9.74l0.01-0.01l0-0.01
		c0,0,0-0.01,0.01-0.01c0-0.01,0-0.01,0.01-0.02c0.31-0.51,0.38-1.09,0.25-1.62c-0.13-0.53-0.46-1.02-0.96-1.33
		c-0.51-0.31-1.09-0.38-1.62-0.25c-0.53,0.13-1.02,0.46-1.33,0.96c-2.05,3.35-3.79,6.89-5.19,10.56c-1.4,3.67-2.45,7.46-3.13,11.32
		c-0.69,3.85-1,7.77-0.96,11.67c0.04,3.9,0.45,7.8,1.22,11.62c0.76,3.82,1.88,7.57,3.33,11.18c1.45,3.61,3.24,7.08,5.33,10.34
		c2.1,3.27,4.5,6.33,7.17,9.14c2.66,2.81,5.59,5.36,8.73,7.62c3.15,2.24,6.49,4.2,9.98,5.84c3.49,1.63,7.12,2.95,10.86,3.89
		c3.73,0.95,7.54,1.54,11.37,1.77c3.83,0.24,7.68,0.11,11.48-0.36c3.8-0.47,7.55-1.31,11.19-2.47c3.64-1.17,7.17-2.66,10.52-4.47
		c3.36-1.81,6.54-3.94,9.49-6.34c2.95-2.4,5.68-5.08,8.12-7.99C488.09,292.38,485.3,294.98,482.31,297.3z M492.44,256.18
		L492.44,256.18c0,0.01,0,0.03,0,0.03c0,0.01,0,0.02,0,0.03c-0.07,0.59,0.11,1.15,0.45,1.58c0.34,0.43,0.84,0.73,1.43,0.8
		c0.58,0.07,1.15-0.11,1.58-0.45s0.73-0.85,0.8-1.43c0.37-3.23,0.45-6.5,0.23-9.74c-0.22-3.24-0.74-6.46-1.56-9.59
		c-0.81-3.14-1.92-6.19-3.29-9.11c-1.38-2.93-3.02-5.72-4.9-8.33c-1.88-2.62-4-5.06-6.33-7.27c-2.33-2.22-4.85-4.22-7.54-5.97
		c-2.69-1.75-5.53-3.25-8.49-4.47c-2.96-1.22-6.02-2.16-9.14-2.81s-6.3-1.01-9.48-1.08c-3.18-0.06-6.36,0.16-9.49,0.69
		s-6.21,1.35-9.17,2.44c-2.97,1.09-5.83,2.46-8.54,4.07c-5.44,3.22-10.23,7.45-14.12,12.38c-3.89,4.93-6.87,10.56-8.67,16.55
		c1.97-5.94,5.1-11.45,9.09-16.21c3.98-4.76,8.83-8.79,14.23-11.79c2.7-1.5,5.53-2.76,8.45-3.74c2.92-0.98,5.93-1.69,8.97-2.12
		c3.04-0.43,6.12-0.56,9.19-0.41c3.06,0.15,6.11,0.58,9.08,1.3c2.97,0.71,5.88,1.7,8.66,2.94c2.78,1.24,5.45,2.74,7.95,4.47
		c2.5,1.74,4.84,3.7,6.97,5.85c2.13,2.16,4.07,4.51,5.76,7.02c1.7,2.51,3.16,5.16,4.36,7.93c1.2,2.77,2.15,5.64,2.83,8.57
		c0.67,2.93,1.07,5.92,1.19,8.92C493.03,250.2,492.87,253.21,492.44,256.18L492.44,256.18z M483.54,281.41
		c-3.98,4.76-8.83,8.79-14.24,11.79c-2.7,1.5-5.53,2.76-8.45,3.74c-2.92,0.98-5.93,1.69-8.97,2.11c-3.04,0.43-6.12,0.56-9.19,0.41
		c-3.07-0.15-6.11-0.58-9.08-1.3c-2.98-0.71-5.88-1.69-8.66-2.94c-2.78-1.24-5.45-2.74-7.95-4.47c-2.5-1.73-4.83-3.69-6.97-5.85
		c-2.14-2.16-4.07-4.51-5.76-7.02c-1.7-2.51-3.16-5.16-4.36-7.93c-1.2-2.76-2.15-5.64-2.82-8.57c-0.67-2.93-1.07-5.92-1.19-8.92
		c-0.12-3,0.04-6,0.47-8.96v-0.01l0,0c0-0.01,0-0.02,0-0.03c0-0.01,0-0.02,0.01-0.03c0.06-0.59-0.11-1.15-0.45-1.58
		c-0.34-0.43-0.85-0.73-1.43-0.8c-0.59-0.07-1.15,0.11-1.58,0.45s-0.73,0.85-0.8,1.43c-0.37,3.23-0.45,6.5-0.23,9.74
		c0.22,3.24,0.74,6.46,1.56,9.59c0.81,3.14,1.92,6.19,3.29,9.11c1.37,2.92,3.02,5.72,4.9,8.33c1.88,2.62,4,5.06,6.33,7.27
		c2.32,2.22,4.85,4.22,7.54,5.97c2.69,1.75,5.53,3.24,8.49,4.47c2.95,1.22,6.02,2.16,9.15,2.81c3.12,0.66,6.3,1.02,9.48,1.08
		c3.18,0.06,6.37-0.17,9.5-0.7c3.13-0.52,6.2-1.34,9.17-2.44c2.97-1.09,5.83-2.46,8.54-4.08c5.44-3.21,10.23-7.45,14.12-12.38
		c3.89-4.93,6.87-10.56,8.67-16.55C490.65,271.14,487.52,276.64,483.54,281.41z M408.02,261.32l0-0.01c0-0.01-0.01-0.02-0.01-0.03
		c0-0.01-0.01-0.02-0.01-0.03c-0.19-0.56-0.59-0.99-1.08-1.23c-0.49-0.24-1.08-0.29-1.64-0.1c-0.56,0.19-0.99,0.59-1.23,1.09
		c-0.24,0.49-0.29,1.08-0.11,1.63c0.84,2.45,1.89,4.81,3.14,7.05c1.25,2.25,2.7,4.38,4.34,6.36c1.63,1.98,3.44,3.8,5.4,5.44
		c1.95,1.64,4.05,3.1,6.27,4.36c4.42,2.53,9.29,4.22,14.29,5.01c5,0.79,10.13,0.67,15.05-0.42c2.45-0.55,4.86-1.3,7.17-2.26
		s4.54-2.12,6.64-3.48c2.1-1.35,4.07-2.91,5.87-4.63c1.8-1.72,3.43-3.61,4.89-5.62c2.92-4.02,5.07-8.56,6.37-13.32
		c1.29-4.75,1.74-9.73,1.24-14.61c0.32,4.9-0.3,9.82-1.75,14.46c-1.45,4.65-3.73,9.01-6.71,12.82c-1.48,1.9-3.14,3.67-4.94,5.27
		c-1.8,1.6-3.74,3.03-5.81,4.26c-2.06,1.24-4.23,2.27-6.48,3.1s-4.56,1.46-6.9,1.9c-4.7,0.86-9.52,0.79-14.17-0.11
		c-4.65-0.91-9.12-2.65-13.11-5.13c-2-1.24-3.88-2.65-5.62-4.22c-1.74-1.57-3.33-3.29-4.74-5.15c-1.42-1.85-2.67-3.83-3.72-5.9
		c-1.06-2.07-1.93-4.23-2.6-6.46L408.02,261.32z M406,238.71c1.45-4.64,3.73-9.01,6.71-12.82c1.48-1.9,3.14-3.67,4.94-5.28
		c1.8-1.6,3.74-3.03,5.81-4.26c2.06-1.24,4.23-2.27,6.47-3.1c2.24-0.83,4.56-1.46,6.9-1.9c4.7-0.86,9.52-0.79,14.17,0.11
		c4.65,0.91,9.12,2.65,13.11,5.13c2,1.24,3.88,2.65,5.62,4.22c1.74,1.57,3.33,3.29,4.74,5.15c1.42,1.85,2.66,3.83,3.72,5.9
		c1.06,2.08,1.93,4.24,2.6,6.46l0,0.01l0,0.01c0,0.01,0.01,0.02,0.01,0.03c0,0.01,0.01,0.02,0.01,0.03
		c0.19,0.56,0.59,0.99,1.08,1.23c0.49,0.24,1.08,0.3,1.64,0.1c0.56-0.19,0.99-0.59,1.23-1.08c0.24-0.49,0.3-1.08,0.1-1.64
		c-0.84-2.44-1.89-4.8-3.13-7.05c-1.25-2.25-2.7-4.38-4.33-6.35c-1.63-1.98-3.44-3.8-5.4-5.44c-1.95-1.64-4.05-3.1-6.27-4.36
		c-4.42-2.53-9.29-4.22-14.29-5.01c-5-0.79-10.13-0.67-15.05,0.43c-2.45,0.55-4.86,1.3-7.17,2.26c-2.32,0.96-4.54,2.12-6.64,3.48
		c-2.1,1.35-4.07,2.91-5.87,4.63c-1.8,1.72-3.43,3.61-4.89,5.62c-2.92,4.02-5.07,8.56-6.37,13.31c-1.29,4.76-1.74,9.73-1.24,14.61
		C403.92,248.27,404.55,243.35,406,238.71z M427.7,272.14L427.7,272.14c-0.02-0.01-0.03-0.02-0.05-0.03
		c-0.01-0.01-0.03-0.02-0.04-0.03c-0.48-0.34-1.06-0.46-1.6-0.37s-1.05,0.39-1.39,0.87c-0.34,0.48-0.46,1.06-0.37,1.6
		c0.09,0.54,0.39,1.05,0.87,1.39c3.11,2.2,6.6,3.82,10.24,4.8c3.64,0.98,7.44,1.32,11.16,0.98c3.73-0.31,7.37-1.33,10.72-2.93
		c3.35-1.61,6.39-3.79,8.94-6.45c2.58-2.63,4.64-5.72,6.1-9.05c1.47-3.34,2.34-6.92,2.56-10.53c0.2-3.61-0.25-7.23-1.29-10.66
		c-1.04-3.43-2.67-6.66-4.82-9.49c2,2.94,3.45,6.22,4.3,9.63c0.85,3.41,1.12,6.96,0.74,10.43c-0.38,3.47-1.39,6.84-2.94,9.93
		c-1.55,3.09-3.63,5.89-6.16,8.21c-2.49,2.34-5.4,4.22-8.53,5.53c-3.13,1.31-6.48,2.06-9.85,2.17c-3.36,0.14-6.72-0.34-9.88-1.36
		C433.26,275.76,430.3,274.19,427.7,272.14L427.7,272.14z M415.78,257.79c-0.85-3.41-1.11-6.96-0.73-10.43
		c0.38-3.47,1.39-6.84,2.94-9.93c1.55-3.09,3.63-5.89,6.15-8.21c2.49-2.35,5.4-4.22,8.53-5.52c3.13-1.31,6.48-2.07,9.85-2.17
		c3.36-0.14,6.72,0.34,9.88,1.37c3.16,1.03,6.13,2.6,8.73,4.64l0,0l0,0c0.01,0.01,0.03,0.02,0.04,0.03
		c0.01,0.01,0.03,0.02,0.04,0.03c0.48,0.34,1.06,0.46,1.6,0.37s1.05-0.39,1.39-0.87c0.34-0.48,0.46-1.06,0.36-1.6
		s-0.39-1.05-0.87-1.39c-3.11-2.2-6.6-3.82-10.24-4.8c-3.64-0.98-7.44-1.32-11.16-0.98c-3.73,0.31-7.37,1.33-10.72,2.93
		c-3.34,1.6-6.39,3.79-8.94,6.45c-2.57,2.62-4.63,5.72-6.1,9.05c-1.47,3.34-2.34,6.92-2.55,10.53c-0.21,3.61,0.24,7.23,1.29,10.66
		c1.04,3.42,2.67,6.66,4.82,9.49C418.08,264.48,416.64,261.21,415.78,257.79z"/>
	<path class="st2" d="M207.52,249.02c-7.12-0.48-13.56-4.42-17.24-10.55l-6.64-20.05l245.63,15.91l-110.34,20.34L207.52,249.02z"/>
	<path class="st2" d="M596.54,288.08c-1.35-3.01-2.81-5.97-4.35-8.81c-0.9-1.65-1.86-3.24-2.83-4.82l-0.38-0.62l-3.08-0.21
		l0.59,2.24c0.22,0.82,0.44,1.65,0.63,2.46c0.64,2.67,1.22,5.35,1.72,7.99c-0.7-0.16-1.42-0.38-2.15-0.66
		c-1.01-0.4-2.04-0.92-3.07-1.55c0.31-2.84,0.49-5.81,0.53-8.82l-0.04-1.57l-1.28-0.29l-50.99-3.46c-0.7-0.05-1.3-0.42-1.65-1.03
		l-0.38-0.65l-105.87-7.18l108.73-18.97l9.65,0.65l0.41-0.85c0.39-0.82,1.12-1.29,1.92-1.29l64.52,4.37c0.88,0.06,1.6,0.65,1.85,1.5
		l0.27,0.95l63.43,4.3c2.26,3.14,3.58,7.76,2.7,14.96c-0.65,5.37-2.23,9.53-4.26,11.28l-74.74-5.07l-0.46,0.58
		c-0.33,0.42-0.81,0.69-1.34,0.76l-2.84,0.37l2.03,2.02c1.74,1.74,3.25,3.34,4.62,4.88c-0.64,1.6-1.42,3.09-2.3,4.43
		C597.64,286.71,597.1,287.42,596.54,288.08z"/>
	<g>
		<polygon points="417.37,316.37 417.45,317.54 417.37,316.37 		"/>
	</g>
	<g>
		<path class="st3" d="M154.29,307.17c-2.23,0.41-4.4,0.55-6.43,0.4c-12.4-0.87-23.75-5.94-32.19-14.31l18.73-3.48l490.16-90.34
			l0.06,0.3l-0.98,0.18l3.64,19.76l0.98-0.18l0.06,0.3L154.29,307.17z"/>
		<g>
			<path d="M625.93,197.16l4.6,24.94l180.92-33.35c3.27-5.16,0.29-21.28-4.6-24.94L625.93,197.16z"/>
		</g>
		<g>
			<polygon class="st4" points="648.68,205.5 643.49,198 640.05,207.65 645.92,214.49 			"/>
		</g>
		<g>
			<polygon class="st4" points="657.63,212.96 660.97,205.18 653.89,196.85 651.12,205.84 			"/>
		</g>
		<g>
			<polygon class="st4" points="669,211.14 672.33,203.21 665.25,194.88 662.48,203.87 			"/>
		</g>
		<g>
			<polygon class="st4" points="680.36,209.16 683.69,201.23 676.61,192.9 673.84,201.89 			"/>
		</g>
		<g>
			<polygon class="st4" points="691.72,207.19 695.07,199.41 687.98,191.08 685.2,199.91 			"/>
		</g>
		<g>
			<polygon class="st4" points="703.08,205.21 706.43,197.43 699.34,189.1 696.56,197.94 			"/>
		</g>
		<g>
			<polygon class="st4" points="714.44,203.24 717.79,195.46 710.7,187.13 707.93,196.12 			"/>
		</g>
		<g>
			<polygon class="st4" points="725.07,200.53 728.42,192.75 721.33,184.42 718.57,193.41 			"/>
		</g>
		<g>
			<polygon class="st4" points="735.69,198.85 739.03,190.92 731.94,182.58 729.17,191.57 			"/>
		</g>
		<g>
			<polygon class="st4" points="747.05,196.87 750.38,188.94 743.3,180.61 740.53,189.6 			"/>
		</g>
		<g>
			<polygon class="st4" points="758.41,194.89 761.76,187.12 754.67,178.79 751.89,187.62 			"/>
		</g>
		<g>
			<polygon class="st4" points="769.77,192.92 773.12,185.14 766.03,176.81 763.25,185.64 			"/>
		</g>
		<g>
			<polygon class="st4" points="781.13,190.94 784.48,183.16 777.39,174.83 774.63,183.82 			"/>
		</g>
		<g>
			<polygon class="st4" points="791.76,188.24 795.11,180.46 788.03,172.13 785.26,181.12 			"/>
		</g>
		<g>
			<path class="st5" d="M625.99,199.19c-5.82,1.04-12.22,2.87-18.04,3.91c1.69,4.83,3.72,13.84,4.41,18.77
				c5.24-0.98,12.8-2.14,18.04-3.12c-0.84-6.31-0.73-12.86-2.51-17.21L625.99,199.19z"/>
		</g>
		<g>
			<polygon points="147.44,295.23 144.59,293.25 603.63,208.64 604.07,211.07 			"/>
		</g>
		<g>
			<polygon points="633.83,201.48 617.7,182.69 612.91,202.66 			"/>
		</g>
		<g>
			<polygon points="613.31,217.27 628.57,235.63 635.6,216 			"/>
		</g>
		<g>
			<path class="st6" d="M614.86,219.35c3.35-0.25,6.72-0.51,10.13-0.62c-3.47,0.85-6.98,1.43-10.55,1.8l-0.46,0.05l0,0
				c-0.15-2.79-2.67-10.81-3.11-13.19C612.03,209.37,614.86,217.5,614.86,219.35z"/>
		</g>
		<g>
			<path d="M154.49,308.23c-2.32,0.43-4.58,0.57-6.7,0.42c-13.38-0.94-25.53-6.65-34.29-16.08c2.69-0.5,19.64-3.65,19.64-3.65
				l0-0.01l12.31-2.27c1.72-0.32,2.85-0.52,3.12-0.57l476.84-87.89l0.45,2.42l-477.05,87.93c-2.49,0.46-28.39,5.44-28.51,5.47
				l-1.66,0.32l1.36,1.06c8.08,6.29,17.36,9.9,27.56,10.72c2.26,0.18,4.65,0.04,7.12-0.41l474.43-87.44l0.45,2.43L154.49,308.23z"/>
		</g>
		<g>
			<path class="st3" d="M802.44,165.52l-3.54,0.65c3.39,3.56,6.47,18.78,4.22,22.92l3.54-0.65
				C808.91,184.3,805.84,169.08,802.44,165.52z"/>
		</g>
	</g>
</g>
</svg>
