<?xml version="1.0" encoding="utf-8"?>
<!-- Generator: Adobe Illustrator 24.0.1, SVG Export Plug-In . SVG Version: 6.00 Build 0)  -->
<svg version="1.1" id="Layer_1" xmlns="http://www.w3.org/2000/svg" xmlns:xlink="http://www.w3.org/1999/xlink" x="0px" y="0px"
	 viewBox="0 0 891.39 456.79" style="enable-background:new 0 0 891.39 456.79;" xml:space="preserve">
<style type="text/css">
	.st0{opacity:0;fill:#FFFFFF;}
	.st1{fill:url(#SVGID_1_);}
	.st2{fill:#292929;}
	.st3{fill:#FFFFFF;}
	.st4{fill-rule:evenodd;clip-rule:evenodd;}
	.st5{fill-rule:evenodd;clip-rule:evenodd;fill:#FEFEFE;}
	.st6{fill:#F4F4F4;}
</style>
<g>
	<rect x="0" y="0" class="st0" width="891.39" height="456.79"/>
	<linearGradient id="SVGID_1_" gradientUnits="userSpaceOnUse" x1="294.4111" y1="240.1322" x2="596.981" y2="240.1322">
		<stop  offset="5.617738e-03" style="stop-color:#8C6A33"/>
		<stop  offset="0.139" style="stop-color:#9A7638"/>
		<stop  offset="0.3542" style="stop-color:#A9843E"/>
		<stop  offset="0.5225" style="stop-color:#AF8940"/>
		<stop  offset="1" style="stop-color:#8C6A33"/>
	</linearGradient>
	<path class="st1" d="M596.98,280.55c-1.01,3.62-2.11,7.22-3.32,10.78c-1.22,3.56-2.55,7.08-4.04,10.53
		c-1.52,3.44-3.12,6.85-4.84,10.19c-1.73,3.34-3.57,6.62-5.56,9.82c-2.01,3.19-4.1,6.32-6.3,9.37c-2.2,3.05-4.51,6.02-6.95,8.89
		c-2.45,2.85-4.99,5.64-7.62,8.33c-2.63,2.69-5.35,5.29-8.18,7.79c-11.29,9.98-24.09,18.25-37.8,24.52
		c-13.72,6.27-28.34,10.56-43.31,12.57c-14.96,2.06-30.22,1.83-45.13-0.59c-14.91-2.42-29.48-7.02-43.06-13.68
		c-3.38-1.69-6.72-3.47-9.99-5.37c-3.27-1.9-6.47-3.91-9.58-6.07c-3.1-2.17-6.14-4.43-9.09-6.79s-5.83-4.83-8.59-7.42
		c-2.75-2.6-5.42-5.29-7.99-8.06c-2.57-2.77-5.05-5.64-7.42-8.59c-2.34-2.98-4.58-6.03-6.72-9.15c-2.14-3.13-4.17-6.32-6.1-9.58
		c-1.88-3.29-3.65-6.64-5.31-10.04c-1.66-3.41-3.2-6.87-4.63-10.37c-1.4-3.52-2.67-7.1-3.8-10.71c-1.14-3.62-2.16-7.27-3.06-10.95
		c-0.89-3.69-1.61-7.41-2.21-11.15c-0.59-3.75-1.05-7.51-1.41-11.29c-0.34-3.78-0.51-7.57-0.54-11.36
		c-0.03-3.79,0.07-7.59,0.27-11.38c0.92-15.16,4.15-30.16,9.45-44.4c5.3-14.24,12.7-27.7,21.95-39.78c2.33-3,4.75-5.94,7.27-8.79
		c2.52-2.85,5.14-5.61,7.87-8.26c2.75-2.63,5.57-5.17,8.49-7.62c2.91-2.45,5.91-4.79,8.99-7.03c3.1-2.21,6.27-4.3,9.52-6.3
		c3.24-1.99,6.55-3.88,9.92-5.65c3.39-1.73,6.84-3.34,10.34-4.84c3.5-1.5,7.05-2.88,10.65-4.14c3.6-1.24,7.25-2.33,10.93-3.29
		c3.69-0.97,7.41-1.8,11.15-2.53c3.74-0.71,7.52-1.25,11.31-1.66c3.79-0.41,7.59-0.68,11.4-0.86c3.81-0.15,7.62-0.13,11.43,0.02
		c3.81,0.16,7.62,0.45,11.41,0.84c3.79,0.43,7.56,1.01,11.31,1.72c3.75,0.71,7.47,1.55,11.17,2.48c0.61,0.15,1.11,0.54,1.41,1.04
		c0.3,0.5,0.41,1.12,0.26,1.74c-0.15,0.61-0.54,1.11-1.05,1.41c-0.5,0.3-1.12,0.41-1.73,0.26h-0.01l0,0l-0.03-0.01l-0.03,0
		c-3.59-0.92-7.2-1.76-10.83-2.48c-3.64-0.71-7.29-1.3-10.97-1.74c-3.68-0.4-7.38-0.71-11.08-0.88c-3.7-0.18-7.41-0.22-11.11-0.1
		c-3.7,0.15-7.4,0.39-11.09,0.76c-3.69,0.38-7.36,0.88-11.01,1.55c-3.64,0.68-7.27,1.48-10.86,2.39c-3.59,0.92-7.16,1.96-10.67,3.14
		c-14.08,4.72-27.43,11.56-39.54,20.17c-12.11,8.61-22.97,18.98-32.06,30.76c-9.12,11.74-16.44,24.88-21.73,38.79
		c-5.29,13.92-8.54,28.61-9.54,43.48c-0.22,3.72-0.35,7.44-0.34,11.17c0.01,3.72,0.15,7.45,0.46,11.16
		c0.33,3.71,0.76,7.41,1.32,11.1c0.56,3.68,1.25,7.35,2.09,10.98c0.87,3.62,1.84,7.23,2.95,10.79c1.1,3.56,2.32,7.09,3.68,10.56
		c1.38,3.46,2.88,6.88,4.5,10.24c1.61,3.36,3.33,6.67,5.17,9.92c1.88,3.23,3.87,6.39,5.95,9.48c2.09,3.09,4.28,6.11,6.57,9.07
		c2.32,2.93,4.74,5.77,7.26,8.52c2.52,2.75,5.14,5.42,7.84,8c2.71,2.57,5.53,5.02,8.43,7.38c2.9,2.35,5.89,4.6,8.93,6.76
		c3.06,2.15,6.21,4.16,9.43,6.06c3.22,1.9,6.51,3.68,9.84,5.37c13.38,6.68,27.77,11.32,42.54,13.81
		c14.76,2.49,29.89,2.82,44.75,0.87c14.87-1.91,29.43-6.06,43.11-12.22c13.68-6.15,26.46-14.29,37.78-24.17
		c2.83-2.46,5.56-5.04,8.2-7.71c2.63-2.67,5.18-5.43,7.64-8.26c2.45-2.85,4.78-5.8,6.99-8.83c2.21-3.03,4.32-6.14,6.34-9.3
		c2.01-3.18,3.87-6.44,5.61-9.77c1.74-3.33,3.37-6.72,4.91-10.14c1.5-3.44,2.86-6.95,4.1-10.5
		C594.83,287.75,595.95,284.16,596.98,280.55z M541.91,348.84c-2.64,2.28-5.36,4.46-8.17,6.53c-2.82,2.04-5.7,4.01-8.65,5.88
		c-2.95,1.87-5.96,3.62-9.04,5.25c-3.1,1.6-6.23,3.13-9.42,4.53c-3.19,1.4-6.42,2.7-9.72,3.85c-3.29,1.13-6.62,2.17-9.98,3.09
		c-3.36,0.92-6.75,1.73-10.17,2.39c-13.67,2.68-27.73,3.29-41.58,1.88s-27.48-4.82-40.3-10.19c-12.84-5.33-24.85-12.61-35.55-21.46
		s-20.11-19.26-27.76-30.83c-1.89-2.91-3.7-5.86-5.41-8.88c-1.71-3.02-3.31-6.1-4.76-9.24c-1.44-3.15-2.8-6.34-4.03-9.58
		c-1.24-3.24-2.37-6.52-3.35-9.84c-0.96-3.33-1.83-6.69-2.58-10.06c-0.75-3.38-1.38-6.79-1.88-10.22
		c-0.47-3.43-0.82-6.88-1.07-10.33c-0.24-3.46-0.37-6.92-0.38-10.37c0.04-3.46,0.19-6.92,0.46-10.37c0.27-3.45,0.64-6.89,1.14-10.31
		c0.52-3.42,1.18-6.82,1.95-10.19c0.77-3.37,1.65-6.72,2.64-10.03c1-3.31,2.15-6.57,3.41-9.79c1.26-3.22,2.63-6.39,4.09-9.52
		c1.47-3.13,3.09-6.18,4.81-9.18c1.72-3,3.55-5.93,5.45-8.81c7.7-11.48,17.13-21.77,27.83-30.49c10.7-8.72,22.67-15.87,35.44-21.07
		c12.76-5.24,26.29-8.53,40.01-9.82c13.72-1.3,27.61-0.6,41.1,2.14c3.37,0.68,6.72,1.5,10.03,2.43c3.31,0.93,6.59,1.98,9.83,3.11
		c3.24,1.16,6.42,2.45,9.56,3.87c3.13,1.41,6.22,2.93,9.25,4.53c3.03,1.61,5.99,3.37,8.88,5.23c2.89,1.86,5.71,3.82,8.48,5.85
		c2.75,2.06,5.41,4.23,8,6.49s5.1,4.61,7.55,7.01l0.02,0.02l0.02,0.02l0.01,0l0,0.01c0.46,0.44,1.05,0.65,1.63,0.64
		c0.59-0.01,1.17-0.24,1.61-0.7c0.44-0.45,0.65-1.04,0.64-1.63s-0.24-1.17-0.7-1.61c-2.54-2.47-5.15-4.87-7.84-7.18
		c-2.68-2.31-5.45-4.53-8.3-6.64c-2.87-2.07-5.8-4.07-8.79-5.97c-3-1.9-6.05-3.69-9.19-5.33c-3.14-1.63-6.33-3.18-9.57-4.61
		c-3.24-1.43-6.53-2.75-9.87-3.92c-3.35-1.15-6.73-2.21-10.14-3.14c-3.41-0.94-6.86-1.75-10.33-2.42
		c-13.89-2.73-28.18-3.34-42.24-1.92c-14.07,1.43-27.92,4.9-40.96,10.36c-13.06,5.42-25.25,12.82-36.13,21.81
		c-10.88,8.99-20.44,19.57-28.21,31.33c-1.92,2.95-3.77,5.96-5.5,9.02c-1.74,3.06-3.36,6.19-4.84,9.39c-1.47,3.2-2.84,6.44-4.1,9.73
		c-1.26,3.29-2.4,6.62-3.4,10c-0.98,3.38-1.86,6.79-2.62,10.23c-0.76,3.44-1.4,6.9-1.91,10.38c-0.48,3.49-0.84,6.99-1.09,10.5
		c-0.25,3.51-0.38,7.02-0.39,10.54c0.03,3.52,0.19,7.03,0.46,10.54c0.27,3.51,0.66,7,1.16,10.48c0.53,3.47,1.19,6.93,1.98,10.35
		c0.78,3.43,1.68,6.83,2.68,10.19c1.02,3.36,2.19,6.68,3.47,9.95c1.28,3.27,2.67,6.49,4.16,9.68c1.5,3.18,3.14,6.29,4.89,9.33
		c1.75,3.05,3.61,6.03,5.54,8.96c7.82,11.66,17.41,22.12,28.28,30.99c10.87,8.86,23.04,16.13,36.02,21.42
		c12.97,5.32,26.72,8.67,40.66,9.98c13.94,1.32,28.06,0.61,41.78-2.18c3.43-0.69,6.83-1.52,10.19-2.46c3.36-0.95,6.7-2.01,9.99-3.17
		c3.29-1.17,6.53-2.49,9.72-3.93c3.19-1.43,6.32-2.98,9.41-4.61c3.08-1.65,6.09-3.43,9.02-5.32c2.93-1.89,5.81-3.88,8.62-5.94
		c2.8-2.09,5.5-4.3,8.13-6.59c2.63-2.29,5.18-4.68,7.67-7.12C547.12,344.2,544.55,346.56,541.91,348.84z M577.56,216.13
		c0.6,3.16,1.09,6.34,1.45,9.54c0.32,3.2,0.57,6.41,0.7,9.63c0.13,3.21,0.15,6.43,0.02,9.64c-0.15,3.21-0.38,6.42-0.73,9.62
		c-0.35,3.19-0.81,6.38-1.41,9.54c-0.62,3.15-1.32,6.29-2.14,9.39c-0.82,3.11-1.74,6.19-2.79,9.22
		c-4.17,12.16-10.16,23.67-17.68,34.08c-7.51,10.41-16.53,19.72-26.73,27.48c-10.18,7.8-21.54,14.02-33.54,18.49
		c-12,4.46-24.65,7.17-37.43,7.94c-3.19,0.17-6.39,0.25-9.59,0.23c-3.19-0.03-6.39-0.17-9.58-0.46c-3.18-0.3-6.35-0.69-9.51-1.19
		c-3.16-0.5-6.29-1.12-9.4-1.86c-3.1-0.76-6.18-1.62-9.22-2.59c-3.05-0.96-6.06-2.03-9.02-3.21c-2.96-1.21-5.87-2.51-8.74-3.91
		c-2.87-1.4-5.69-2.9-8.46-4.48c-2.74-1.63-5.43-3.34-8.07-5.15c-2.63-1.8-5.2-3.69-7.71-5.66c-2.49-1.99-4.9-4.08-7.24-6.26
		c-2.34-2.17-4.59-4.42-6.78-6.73c-2.18-2.33-4.26-4.75-6.24-7.24c-1.99-2.49-3.89-5.05-5.71-7.66c-1.81-2.62-3.51-5.32-5.1-8.07
		c-1.6-2.75-3.1-5.57-4.52-8.41c-5.61-11.44-9.47-23.71-11.5-36.28c-2.03-12.56-2.22-25.41-0.48-38c1.7-12.6,5.32-24.91,10.61-36.46
		c5.29-11.54,12.25-22.31,20.66-31.81c2.1-2.38,4.29-4.67,6.56-6.88c2.27-2.21,4.61-4.35,7.02-6.41c2.42-2.05,4.92-3.99,7.49-5.84
		c2.57-1.85,5.2-3.61,7.88-5.3c2.69-1.67,5.45-3.22,8.27-4.67c2.82-1.45,5.68-2.8,8.58-4.07c2.91-1.25,5.87-2.37,8.86-3.39
		c2.99-1.02,6.02-1.94,9.07-2.79l0.03-0.01l0.03,0l0.01,0h0.01c0.61-0.18,1.09-0.58,1.38-1.09c0.28-0.51,0.37-1.14,0.2-1.74
		c-0.17-0.61-0.58-1.09-1.09-1.38c-0.52-0.29-1.14-0.38-1.75-0.2c-3.15,0.9-6.27,1.87-9.36,2.95c-3.09,1.08-6.14,2.27-9.15,3.58
		c-2.98,1.34-5.94,2.76-8.83,4.28c-2.9,1.52-5.75,3.14-8.51,4.89c-2.76,1.76-5.47,3.6-8.1,5.53c-2.64,1.93-5.21,3.96-7.69,6.09
		c-2.47,2.15-4.87,4.37-7.19,6.67c-2.32,2.3-4.56,4.68-6.71,7.15c-8.59,9.86-15.68,21-21.03,32.91
		c-5.35,11.91-8.97,24.6-10.62,37.54c-1.69,12.94-1.4,26.12,0.77,38.97c2.17,12.85,6.22,25.38,12.04,37.02
		c1.48,2.9,3.03,5.76,4.68,8.56c1.65,2.8,3.4,5.55,5.28,8.21c1.88,2.65,3.84,5.25,5.89,7.77c2.04,2.52,4.18,4.97,6.42,7.34
		c2.25,2.34,4.57,4.62,6.97,6.81s4.87,4.3,7.42,6.32c2.57,1.99,5.2,3.9,7.89,5.71c2.69,1.81,5.45,3.54,8.25,5.17
		c2.83,1.59,5.71,3.09,8.64,4.49c2.93,1.4,5.9,2.71,8.91,3.91c3.03,1.18,6.09,2.24,9.19,3.19c3.1,0.96,6.23,1.8,9.39,2.56
		c3.16,0.73,6.35,1.33,9.55,1.82c3.21,0.49,6.43,0.86,9.66,1.14c3.23,0.27,6.47,0.39,9.72,0.4c3.24,0,6.48-0.11,9.72-0.3
		c12.94-0.88,25.72-3.72,37.82-8.32c12.1-4.6,23.52-10.98,33.74-18.92c10.24-7.91,19.25-17.36,26.74-27.89
		c7.48-10.54,13.42-22.15,17.52-34.39c1.03-3.06,1.93-6.16,2.73-9.29c0.8-3.12,1.48-6.27,2.08-9.44c0.58-3.18,1.02-6.37,1.34-9.58
		c0.32-3.21,0.53-6.42,0.66-9.64c0.11-3.22,0.07-6.45-0.09-9.67c-0.15-3.22-0.43-6.43-0.77-9.63c-0.38-3.2-0.9-6.38-1.52-9.54
		c-0.62-3.16-1.35-6.29-2.16-9.41C576.26,209.83,576.96,212.97,577.56,216.13z M471.46,359.54c-2.9,0.54-5.81,1-8.74,1.32
		c-2.93,0.3-5.87,0.52-8.81,0.64c-2.94,0.12-5.89,0.13-8.83,0.01c-2.94-0.13-5.88-0.35-8.81-0.67c-2.93-0.32-5.84-0.74-8.73-1.29
		c-2.89-0.56-5.76-1.22-8.61-1.96c-2.84-0.75-5.66-1.6-8.45-2.55c-11.13-3.82-21.67-9.32-31.21-16.2s-18.05-15.14-25.16-24.49
		c-7.14-9.33-12.83-19.73-16.92-30.72c-4.08-10.99-6.56-22.58-7.26-34.27c-0.15-2.92-0.23-5.85-0.2-8.78
		c0.03-2.93,0.16-5.85,0.43-8.76c0.28-2.91,0.63-5.82,1.09-8.71c0.46-2.89,1.02-5.76,1.71-8.6c0.7-2.84,1.48-5.66,2.37-8.45
		c0.88-2.79,1.86-5.54,2.94-8.26c1.1-2.71,2.3-5.37,3.58-8c1.28-2.62,2.65-5.2,4.1-7.74c1.49-2.52,3.06-4.97,4.71-7.39
		c1.65-2.4,3.38-4.76,5.19-7.05c1.83-2.28,3.74-4.49,5.73-6.62c1.98-2.14,4.04-4.2,6.16-6.21c2.13-1.99,4.35-3.89,6.62-5.71
		s4.63-3.56,7.01-5.23c2.4-1.66,4.87-3.21,7.39-4.67c2.52-1.46,5.1-2.83,7.7-4.13c10.47-5.13,21.7-8.66,33.2-10.51
		c11.49-1.85,23.25-2.02,34.77-0.42c11.52,1.56,22.79,4.87,33.35,9.71c10.56,4.84,20.41,11.22,29.1,18.91
		c2.17,1.92,4.27,3.93,6.29,6c2.02,2.07,3.97,4.22,5.86,6.42c1.88,2.21,3.65,4.5,5.35,6.85c1.69,2.35,3.3,4.76,4.84,7.21
		c1.53,2.46,2.95,4.99,4.27,7.56c1.32,2.57,2.56,5.2,3.72,7.84c1.14,2.66,2.16,5.37,3.1,8.11c0.94,2.74,1.78,5.51,2.55,8.3
		l0.01,0.03l0.01,0.03l0,0.01v0.01c0.18,0.61,0.58,1.09,1.09,1.38c0.51,0.28,1.14,0.37,1.74,0.2c0.61-0.18,1.09-0.58,1.38-1.09
		c0.28-0.51,0.38-1.14,0.2-1.75c-0.82-2.89-1.72-5.76-2.72-8.59s-2.08-5.63-3.28-8.39c-1.23-2.74-2.54-5.45-3.93-8.11
		c-1.39-2.66-2.88-5.27-4.49-7.8c-1.61-2.53-3.3-5.01-5.07-7.44c-1.77-2.42-3.63-4.78-5.59-7.05c-1.97-2.26-4.01-4.47-6.12-6.6
		c-2.11-2.13-4.3-4.19-6.56-6.15c-9.05-7.88-19.27-14.38-30.19-19.28c-10.93-4.91-22.56-8.22-34.44-9.73
		c-11.87-1.55-23.95-1.28-35.73,0.72c-11.78,1.99-23.27,5.71-33.95,11.05c-2.66,1.35-5.28,2.78-7.85,4.29
		c-2.57,1.51-5.09,3.12-7.53,4.84c-2.43,1.73-4.81,3.52-7.13,5.4c-2.31,1.88-4.56,3.84-6.72,5.9c-2.15,2.06-4.24,4.19-6.25,6.39
		c-2.01,2.2-3.95,4.46-5.79,6.8c-1.83,2.35-3.57,4.77-5.24,7.24c-1.66,2.47-3.24,4.99-4.74,7.57c-1.46,2.6-2.83,5.24-4.12,7.92
		c-1.28,2.68-2.48,5.41-3.58,8.17c-1.08,2.78-2.06,5.59-2.93,8.43c-0.87,2.84-1.65,5.71-2.34,8.61c-0.68,2.9-1.22,5.82-1.67,8.76
		s-0.79,5.9-1.04,8.85c-0.24,2.96-0.35,5.93-0.36,8.91s0.1,5.94,0.28,8.91c0.81,11.86,3.41,23.57,7.64,34.66
		c4.22,11.09,10.06,21.56,17.35,30.91c7.25,9.38,15.92,17.64,25.57,24.49c9.65,6.85,20.3,12.3,31.52,16.04
		c2.8,0.94,5.64,1.77,8.5,2.5c2.87,0.73,5.75,1.36,8.66,1.9c2.91,0.53,5.84,0.93,8.77,1.23c2.94,0.3,5.89,0.49,8.84,0.6
		c2.95,0.1,5.91,0.06,8.85-0.08c2.95-0.14,5.89-0.39,8.83-0.71c2.93-0.35,5.84-0.82,8.74-1.4c2.89-0.57,5.77-1.24,8.62-1.98
		C477.24,358.35,474.36,358.99,471.46,359.54z M531.05,169.3c1.75,2.03,3.42,4.12,5.01,6.28c1.56,2.17,3.07,4.38,4.5,6.65
		c1.43,2.26,2.78,4.57,4.02,6.95c1.23,2.37,2.39,4.79,3.47,7.23c1.08,2.45,2.07,4.94,2.95,7.46c0.87,2.53,1.66,5.08,2.36,7.66
		c0.7,2.58,1.32,5.18,1.83,7.81c2.05,10.5,2.5,21.28,1.42,31.9c-1.09,10.62-3.72,21.07-7.85,30.9c-4.1,9.85-9.69,19.04-16.48,27.24
		c-6.79,8.2-14.78,15.4-23.65,21.26c-8.86,5.89-18.6,10.4-28.78,13.42c-10.18,3.02-20.79,4.56-31.4,4.5
		c-10.61-0.03-21.19-1.66-31.32-4.77c-10.13-3.11-19.78-7.69-28.54-13.62c-8.78-5.91-16.65-13.13-23.31-21.33
		c-6.66-8.19-12.12-17.35-16.09-27.13c-4-9.76-6.5-20.12-7.48-30.6c-0.98-10.49-0.43-21.11,1.67-31.43
		c0.53-2.58,1.15-5.13,1.86-7.66c0.72-2.53,1.52-5.03,2.39-7.51c0.89-2.47,1.88-4.91,2.96-7.3c1.08-2.39,2.24-4.75,3.47-7.07
		c1.24-2.32,2.59-4.57,4.01-6.78c1.42-2.21,2.92-4.36,4.47-6.48c1.58-2.1,3.24-4.13,4.97-6.11c1.73-1.98,3.52-3.89,5.36-5.76
		l0.02-0.02l0.02-0.02l0.01,0l0.01-0.01c0.44-0.46,0.65-1.05,0.64-1.63c-0.01-0.59-0.25-1.17-0.7-1.61
		c-0.45-0.44-1.04-0.66-1.63-0.65c-0.59,0.01-1.17,0.25-1.61,0.7c-1.9,1.96-3.75,3.98-5.53,6.05c-1.78,2.07-3.49,4.2-5.11,6.41
		c-1.6,2.22-3.14,4.48-4.6,6.79c-1.46,2.31-2.83,4.67-4.1,7.09c-1.25,2.42-2.44,4.89-3.54,7.39c-1.1,2.5-2.11,5.04-3.01,7.62
		c-0.89,2.58-1.7,5.19-2.41,7.82c-0.72,2.63-1.34,5.29-1.86,7.97c-2.09,10.71-2.56,21.72-1.45,32.56
		c1.11,10.84,3.8,21.51,8.01,31.55c4.18,10.06,9.9,19.45,16.83,27.82c6.93,8.37,15.09,15.72,24.15,21.7
		c9.05,6.01,18.99,10.62,29.39,13.71c10.39,3.08,21.23,4.66,32.06,4.59c10.83-0.03,21.64-1.7,31.98-4.87
		c10.34-3.17,20.21-7.85,29.15-13.92c8.96-6.03,17-13.41,23.81-21.77s12.38-17.72,16.44-27.71c4.08-9.97,6.64-20.55,7.64-31.26
		c1-10.71,0.44-21.56-1.71-32.1c-0.54-2.63-1.17-5.24-1.9-7.82c-0.73-2.59-1.55-5.14-2.44-7.67c-0.91-2.53-1.93-5.01-3.03-7.46
		c-1.1-2.44-2.29-4.85-3.54-7.22c-1.27-2.37-2.64-4.68-4.09-6.93c-1.45-2.26-2.98-4.46-4.57-6.62c-1.61-2.15-3.31-4.22-5.07-6.24
		c-1.76-2.02-3.6-3.97-5.48-5.88C527.49,165.3,529.3,167.27,531.05,169.3z M415.82,333.29c-2.27-0.8-4.51-1.67-6.72-2.64
		c-2.19-0.99-4.36-2.03-6.49-3.15c-2.13-1.12-4.22-2.32-6.25-3.61c-2.02-1.3-4.01-2.65-5.95-4.07c-1.94-1.42-3.83-2.91-5.65-4.49
		c-1.81-1.58-3.57-3.21-5.28-4.91c-1.7-1.69-3.35-3.44-4.92-5.26c-6.31-7.25-11.51-15.45-15.43-24.2
		c-3.92-8.76-6.56-18.07-7.76-27.58c-1.23-9.5-1-19.17,0.61-28.6c1.6-9.43,4.59-18.62,8.87-27.16c4.25-8.56,9.81-16.44,16.37-23.35
		c6.56-6.92,14.13-12.88,22.41-17.59c8.27-4.73,17.24-8.22,26.5-10.34c9.27-2.12,18.84-2.9,28.31-2.21
		c9.47,0.66,18.83,2.75,27.69,6.13c8.86,3.39,17.21,8.06,24.68,13.88c7.48,5.8,14.07,12.73,19.53,20.44
		c5.47,7.72,9.8,16.22,12.79,25.18c0.75,2.24,1.41,4.51,1.99,6.79c0.58,2.29,1.08,4.59,1.51,6.91c0.42,2.32,0.74,4.66,0.97,7
		c0.23,2.35,0.38,4.7,0.47,7.05c0.08,2.36,0.04,4.71-0.07,7.06s-0.31,4.7-0.57,7.04c-0.29,2.34-0.66,4.66-1.12,6.97
		c-0.46,2.31-0.99,4.6-1.58,6.88l-0.01,0.03l-0.01,0.03v0.01l-0.01,0.01c-0.15,0.61-0.04,1.24,0.26,1.74c0.3,0.5,0.8,0.89,1.41,1.04
		c0.61,0.15,1.23,0.04,1.74-0.26c0.5-0.3,0.89-0.8,1.04-1.41c0.6-2.39,1.13-4.8,1.59-7.22s0.83-4.86,1.1-7.31
		c0.25-2.45,0.43-4.91,0.53-7.37c0.1-2.46,0.11-4.92,0-7.39c-0.12-2.46-0.3-4.91-0.56-7.36c-0.27-2.45-0.63-4.88-1.09-7.3
		c-0.48-2.41-1.02-4.81-1.65-7.19c-0.63-2.37-1.33-4.73-2.14-7.05c-3.2-9.3-7.8-18.1-13.55-26.05c-5.75-7.96-12.66-15.07-20.47-21
		c-7.79-5.96-16.48-10.7-25.66-14.11c-9.18-3.41-18.85-5.46-28.61-6.04c-9.77-0.61-19.6,0.28-29.09,2.55
		c-9.49,2.27-18.65,5.94-27.06,10.86c-8.43,4.91-16.1,11.07-22.73,18.2c-6.63,7.13-12.21,15.22-16.45,23.97
		c-4.27,8.74-7.21,18.1-8.74,27.68c-1.53,9.58-1.67,19.38-0.33,28.99c1.31,9.61,4.08,18.99,8.12,27.79
		c4.04,8.79,9.36,16.99,15.78,24.22c1.6,1.81,3.28,3.55,5.01,5.24c1.73,1.68,3.52,3.3,5.35,4.87c1.84,1.56,3.75,3.04,5.71,4.45
		c1.96,1.41,3.97,2.75,6.01,4.03c2.05,1.27,4.16,2.45,6.3,3.55c2.14,1.1,4.33,2.13,6.54,3.1c2.22,0.94,4.47,1.79,6.75,2.57
		c2.28,0.77,4.59,1.47,6.91,2.11C420.38,334.81,418.09,334.09,415.82,333.29z M476.78,158.41c2.02,0.71,4.01,1.49,5.96,2.35
		c1.95,0.88,3.87,1.81,5.76,2.8c1.89,1,3.74,2.06,5.55,3.2c1.79,1.15,3.56,2.36,5.28,3.62c1.72,1.27,3.39,2.59,5.01,3.99
		c1.6,1.4,3.17,2.85,4.68,4.36c1.51,1.5,2.97,3.06,4.36,4.67c5.6,6.44,10.2,13.72,13.68,21.49c3.47,7.77,5.81,16.04,6.87,24.48
		c1.09,8.43,0.88,17.01-0.55,25.37c-1.43,8.37-4.08,16.51-7.89,24.08c-3.77,7.59-8.7,14.57-14.53,20.7
		c-5.82,6.13-12.53,11.41-19.88,15.58c-7.33,4.19-15.28,7.27-23.5,9.15c-8.22,1.88-16.7,2.55-25.09,1.94
		c-8.4-0.59-16.69-2.45-24.54-5.45c-7.84-3-15.25-7.15-21.85-12.31c-6.63-5.14-12.46-11.28-17.3-18.11
		c-4.83-6.83-8.67-14.37-11.31-22.31c-0.66-1.98-1.24-3.99-1.75-6.01c-0.51-2.03-0.96-4.07-1.33-6.12c-0.37-2.06-0.65-4.12-0.86-6.2
		c-0.21-2.07-0.34-4.16-0.41-6.24c-0.07-2.09-0.03-4.17,0.07-6.26c0.1-2.08,0.28-4.16,0.51-6.22c0.25-2.07,0.59-4.13,1-6.17
		c0.41-2.04,0.88-4.07,1.41-6.09l0.01-0.03l0.01-0.03v-0.01l0-0.01c0.15-0.62,0.04-1.23-0.26-1.74c-0.3-0.5-0.8-0.89-1.41-1.04
		s-1.23-0.04-1.74,0.26c-0.5,0.3-0.89,0.8-1.04,1.41c-0.53,2.13-1,4.27-1.41,6.43c-0.4,2.16-0.73,4.32-0.97,6.5
		c-0.22,2.18-0.38,4.37-0.46,6.56c-0.09,2.19-0.09,4.38,0,6.57c0.1,2.19,0.26,4.38,0.51,6.55c0.24,2.18,0.56,4.35,0.97,6.5
		c0.42,2.15,0.91,4.28,1.47,6.4c0.56,2.11,1.19,4.21,1.91,6.28c2.85,8.28,6.95,16.1,12.07,23.18c5.12,7.07,11.27,13.4,18.23,18.67
		c6.94,5.29,14.67,9.51,22.84,12.53c8.17,3.02,16.77,4.85,25.46,5.36c8.69,0.54,17.43-0.26,25.87-2.29
		c8.44-2.03,16.58-5.29,24.06-9.68c7.49-4.36,14.31-9.85,20.2-16.19c5.89-6.34,10.84-13.53,14.61-21.32
		c3.79-7.76,6.39-16.09,7.75-24.61c1.36-8.52,1.47-17.23,0.28-25.76c-1.17-8.53-3.63-16.87-7.23-24.68
		c-3.6-7.81-8.33-15.09-14.03-21.51c-1.42-1.6-2.91-3.15-4.45-4.65c-1.54-1.5-3.13-2.93-4.76-4.33c-1.64-1.39-3.33-2.7-5.07-3.95
		c-1.74-1.25-3.53-2.44-5.34-3.57c-1.82-1.13-3.69-2.17-5.6-3.15c-1.91-0.98-3.85-1.89-5.8-2.75c-1.97-0.84-3.97-1.6-6-2.28
		c-2.03-0.69-4.07-1.31-6.14-1.88C472.72,157.06,474.76,157.71,476.78,158.41z M381.42,277.69c-3.47-6.6-5.98-13.71-7.35-21.03
		c-1.42-7.31-1.71-14.82-0.94-22.22c0.77-7.39,2.62-14.66,5.5-21.5c2.87-6.85,6.77-13.23,11.51-18.93
		c4.73-5.69,10.3-10.69,16.48-14.74c6.16-4.08,12.94-7.2,20.01-9.29c7.08-2.09,14.45-3.14,21.82-3.08
		c7.36,0.04,14.71,1.19,21.73,3.35c7.02,2.17,13.71,5.37,19.78,9.49c6.08,4.1,11.52,9.13,16.13,14.82
		c4.61,5.69,8.38,12.04,11.11,18.82c2.75,6.77,4.47,13.94,5.14,21.2s0.27,14.62-1.2,21.75c-1.45,7.14-3.97,14.03-7.44,20.42
		c-3.46,6.38-7.85,12.25-13.03,17.34l-0.01,0.01l-0.02,0.01c0,0.01-0.01,0.01-0.02,0.02c-0.01,0.01-0.01,0.01-0.02,0.02
		c-0.44,0.45-0.65,1.05-0.64,1.63s0.25,1.17,0.7,1.61c0.46,0.44,1.05,0.65,1.63,0.64c0.59-0.01,1.17-0.25,1.61-0.7
		c1.33-1.39,2.63-2.81,3.89-4.27c1.25-1.46,2.45-2.96,3.59-4.52c1.12-1.56,2.2-3.15,3.23-4.78c1.02-1.63,1.99-3.29,2.88-4.99
		c0.88-1.71,1.71-3.44,2.48-5.2s1.48-3.54,2.11-5.36c0.62-1.82,1.18-3.65,1.68-5.5c0.5-1.85,0.94-3.72,1.3-5.6
		c1.46-7.54,1.77-15.27,0.98-22.89c-0.8-7.62-2.7-15.11-5.67-22.15c-2.95-7.06-6.98-13.64-11.86-19.51
		c-4.87-5.86-10.61-11.02-16.97-15.2c-6.35-4.21-13.34-7.43-20.62-9.58c-7.29-2.15-14.89-3.24-22.48-3.18
		c-7.59,0.04-15.16,1.22-22.39,3.45c-7.24,2.24-14.14,5.52-20.39,9.78c-6.27,4.23-11.88,9.4-16.63,15.27
		c-4.75,5.86-8.64,12.42-11.46,19.4c-2.84,6.98-4.62,14.37-5.3,21.85c-0.69,7.49-0.28,15.06,1.24,22.41
		c1.48,7.36,4.09,14.47,7.66,21.05c3.57,6.58,8.1,12.63,13.43,17.88C389.33,290.4,384.88,284.3,381.42,277.69z M449.99,175.94
		c6.37,0.26,12.7,1.45,18.71,3.57c6.01,2.09,11.7,5.08,16.84,8.82c5.14,3.74,9.73,8.22,13.55,13.27c3.83,5.05,6.88,10.67,9.07,16.6
		c2.18,5.94,3.49,12.19,3.85,18.49c0.38,6.3-0.21,12.64-1.7,18.76c-1.48,6.12-3.86,12.01-7.05,17.43
		c-3.18,5.42-7.16,10.35-11.77,14.61c-4.6,4.25-9.81,7.83-15.45,10.54c-5.63,2.73-11.66,4.61-17.82,5.58
		c-6.17,0.97-12.46,1.04-18.62,0.16c-6.17-0.86-12.19-2.65-17.83-5.26c-5.64-2.61-10.89-6.04-15.51-10.17
		c-4.65-4.11-8.65-8.91-11.87-14.18c-3.22-5.27-5.67-11.01-7.21-16.99c0,0,0-0.01,0-0.02c0-0.01,0-0.02-0.01-0.02
		c-0.16-0.61-0.56-1.1-1.07-1.39c-0.51-0.29-1.13-0.38-1.74-0.22c-0.61,0.17-1.1,0.57-1.39,1.08c-0.29,0.51-0.39,1.13-0.22,1.74l0,0
		v0c1.75,6.39,4.46,12.49,8,18.07c3.53,5.58,7.88,10.64,12.88,14.94c4.99,4.31,10.61,7.86,16.62,10.54
		c6.01,2.67,12.4,4.47,18.92,5.28c6.52,0.82,13.14,0.66,19.59-0.46c6.45-1.11,12.73-3.17,18.57-6.11
		c5.85-2.92,11.23-6.74,15.95-11.23c4.72-4.5,8.78-9.68,11.98-15.34c3.22-5.66,5.58-11.79,7.02-18.11
		c1.44-6.33,1.94-12.86,1.46-19.33c-0.46-6.46-1.9-12.84-4.22-18.87c-2.32-6.03-5.52-11.72-9.5-16.8
		c-3.96-5.09-8.69-9.57-13.95-13.27c-5.26-3.71-11.05-6.65-17.16-8.66c-6.09-2.04-12.48-3.15-18.89-3.31
		c-6.41-0.16-12.83,0.61-18.99,2.32C437.2,176.36,443.62,175.69,449.99,175.94z M394.16,240.02c0.22-5.29,1.22-10.55,2.98-15.53
		c1.74-4.99,4.23-9.71,7.34-13.96c3.11-4.26,6.83-8.06,11.03-11.22c4.19-3.17,8.86-5.7,13.78-7.5c4.92-1.8,10.1-2.88,15.32-3.17
		c5.22-0.3,10.47,0.2,15.54,1.43c5.06,1.24,9.95,3.21,14.43,5.86c4.48,2.64,8.56,5.94,12.07,9.76c3.52,3.81,6.47,8.13,8.7,12.8
		c2.25,4.66,3.79,9.65,4.59,14.74c0.79,5.1,0.84,10.31,0.11,15.4c-0.72,5.09-2.21,10.07-4.37,14.72c-2.16,4.65-5,8.99-8.41,12.8
		c-3.4,3.83-7.37,7.12-11.72,9.78c-4.36,2.65-9.09,4.66-14.03,5.93c0,0-0.01,0-0.02,0c0,0-0.01,0-0.02,0.01
		c-0.61,0.16-1.1,0.56-1.39,1.07c-0.29,0.51-0.38,1.13-0.21,1.75c0.16,0.61,0.57,1.09,1.08,1.38c0.51,0.29,1.13,0.38,1.74,0.21h0h0
		c5.34-1.47,10.44-3.75,15.11-6.71c4.67-2.96,8.89-6.6,12.48-10.79c3.6-4.17,6.56-8.88,8.79-13.9c2.22-5.02,3.72-10.36,4.39-15.81
		c0.68-5.44,0.53-10.98-0.41-16.36c-0.94-5.38-2.67-10.63-5.13-15.5c-2.45-4.88-5.63-9.36-9.39-13.3
		c-3.76-3.93-8.09-7.31-12.81-9.98c-4.72-2.68-9.83-4.64-15.11-5.83c-5.28-1.19-10.72-1.6-16.11-1.19
		c-5.38,0.39-10.7,1.6-15.72,3.54c-5.02,1.94-9.75,4.61-13.98,7.94c-4.23,3.31-7.95,7.25-11.03,11.63
		c-3.08,4.38-5.52,9.21-7.18,14.28c-1.69,5.07-2.6,10.38-2.73,15.71c-0.13,5.33,0.52,10.67,1.95,15.78
		C394.49,250.65,393.93,245.31,394.16,240.02z"/>
	<g>
		<g>
			<path class="st2" d="M542.36,267.95c-0.91-1.74-1.78-3.56-2.62-5.41c-0.41,0.08-0.83,0.12-1.26,0.1
				c-0.55-0.02-1.11-0.11-1.67-0.23c-0.27-0.06-0.54-0.13-0.81-0.19c-0.3-0.07-0.59-0.1-0.88-0.09c-0.55,0.03-1.06,0.23-1.54,0.5
				c-0.17,0.09-0.32,0.22-0.48,0.33c-1.69,3.33-3.26,6.8-4.64,10.38c-1.21,3.14-2.33,6.44-3.31,9.79l-0.22,0.76l0.59,0.52
				c1.63,1.42,3.35,2.63,5.11,3.62c1.48,0.82,3,1.49,4.54,1.98l0.82,0.26l-0.04-1.09c-0.15-4.13-0.12-8.26,0.09-12.28
				c0.14-2.62,0.38-5.22,0.67-7.79c0.3,1.53,0.6,3.06,0.94,4.56c0.78,3.5,1.67,6.99,2.64,10.38l0.22,0.77l0.47-0.28
				c1.28-0.77,2.52-1.78,3.69-3c0.97-1.03,1.9-2.21,2.76-3.53l0.46-0.7l-0.47-0.71C545.64,273.87,543.94,270.97,542.36,267.95z"/>
		</g>
		<g>
			<path class="st2" d="M573.78,254.1c-0.43-4.14-1.27-8.19-3.09-11.87c-10.96,1.55-21.89,3.06-32.67,4.55
				c-0.01,0.02,0,0.06-0.04,0.07l-0.29,0.08c-0.75,0.21-1.51,0.42-2.28,0.54c-0.77,0.12-1.56,0.15-2.33,0
				c-0.4-0.08-0.77-0.21-1.14-0.35c-0.34-0.14-0.68-0.26-1.03-0.39c-0.72-0.25-1.38,0.36-2.13,0.21c-0.48-0.1-0.97-0.15-1.46-0.17
				l-5.32,0.69c-10.71,1.38-21.8,3.44-32.5,4.83c-0.5,0.06-1.41,0.37-1.92,0.43c-0.47,0.06-0.93,0.22-1.34,0.46
				c-2.43,0.24-4.29,1.04-6.71,1.27l-0.74,1.87l-0.09,0.4c-14.71,1.7-92.6,9.39-180.48,12.73c-3.36,0.13-6.29,2.62-6.62,5.96
				c0,0.02,0,0.05-0.01,0.07c-0.32,3.51,1.04,7.03,2.58,10.02c1.18,2.29,2.59,4.46,4.12,6.53l0.22,0.3
				c1.05,1.42,2.73,2.23,4.49,2.17c5.62-0.2,11.25-0.41,16.87-0.64c-0.15,0.05-0.3,0.1-0.46,0.14c2.35-0.13,4.7-0.28,7.04-0.41
				c0.94-0.04,1.87-0.07,2.81-0.11c0.07-0.02,0.14-0.04,0.2-0.06c51.95-3.02,103.93-7.39,155.78-13.07c0.09,0.87,1.51,0.3,2.2,0.86
				c0.73,0.6,2.15,0.01,3.11-0.11l41.14-3.12c0.79-0.1,1.54-0.47,2.09-1.04c0.64-0.66,0.96-1.54,0.94-2.43
				c13.27-1.66,26.52-3.41,39.76-5.23C574.42,264.22,574.3,259.14,573.78,254.1z"/>
		</g>
	</g>
	<g>
		<path class="st3" d="M252.54,248.53c-1.15,0-2.24-0.11-3.25-0.33c-13.33-2.91-23.91-9.37-30.72-18.71l18.64-0.8
			c5.14-0.19,10.3-0.36,15.47-0.53l0.48-0.02c4.71-0.15,9.44-0.31,14.16-0.48c80.9-3.4,162.89-10.9,243.71-22.27
			c0.27,0.52,0.53,1.1,0.78,1.81c0.71,1.96,1.15,4.01,1.5,5.76c0.14,0.71,0.26,1.41,0.39,2.12l0.15,0.81
			c0.08,0.42,0.16,0.84,0.21,1.25c0.08,0.61,0.14,1.26,0.17,1.92c0.13,2.55-0.1,5.09-0.39,7.91l-0.03,0.29
			c-71.41,9.33-142.87,15.83-212.39,19.32l-1.45,0.07l0,0.02c-14.05,0.71-26.53,1.23-38.12,1.6l-2.51,0.08
			c-2.11,0.07-4.22,0.13-6.33,0.18L252.54,248.53z"/>
		<g>
			<path class="st4" d="M639.35,203.69c-0.04-4.46-0.7-8.91-1.97-13.18c-0.64-2.17-1.44-4.33-2.65-6.25
				c-0.36-0.57-0.79-1.15-1.28-1.65c-46.67,8.89-102.32,18.51-121.42,21.21c0.14,0.21,0.28,0.42,0.4,0.63
				c0.48,0.87,0.84,1.8,1.16,2.74c0.65,1.94,1.09,3.96,1.46,5.97c0.16,0.86,0.31,1.71,0.47,2.57c0.25,1.34,0.37,2.71,0.4,4.07
				c0.06,2.74-0.75,1.23-1.03,3.95c-0.02,0.16,0.49,4.56,0.47,4.72c19.04-1.64,75.86-11.03,123.71-19.49
				C639.26,207.22,639.37,205.46,639.35,203.69z"/>
		</g>
		<g>
			<path d="M252.54,249.61c-1.22,0-2.4-0.12-3.48-0.36c-14.36-3.14-25.59-10.31-32.5-20.76l20.6-0.88c5.3-0.2,10.63-0.37,15.96-0.55
				c4.71-0.16,9.44-0.31,14.16-0.48c81.1-3.41,163.3-10.94,244.31-22.37c0.02,0.03,0.04,0.06,0.06,0.09c0.43,0.69,0.8,1.5,1.17,2.53
				c0.74,2.03,1.19,4.13,1.54,5.92c0.14,0.71,0.27,1.42,0.39,2.14l0.15,0.8c0.08,0.43,0.16,0.87,0.22,1.3
				c0.08,0.64,0.14,1.32,0.18,2c0.13,2.62-0.1,5.21-0.4,8.08l-0.11,1.14c-71.73,9.4-143.5,15.94-213.33,19.44l-0.34,0.02l0,0.01
				c-14.51,0.74-27.35,1.28-39.24,1.66l-0.53,0.02l-0.25,0l-1.28,0.04c-2.26,0.07-4.52,0.14-6.78,0.2
				C252.86,249.6,252.7,249.61,252.54,249.61z M509.77,207.25c-71.85,10.07-145.06,17.08-217.61,20.84
				c-24.2,1.36-68.69,3.11-69.14,3.12l-0.73,0.03l0.5,0.53c4.9,5.17,13.46,11.94,26.37,14.81c1,0.22,2.07,0.33,3.19,0.33l0.43-0.01
				c13.63-0.34,28.27-0.89,43.51-1.62c69.98-3.41,142.55-9.97,215.7-19.49l0.26-0.03l0.03-0.26c0.2-2.04,0.37-4.22,0.26-6.37
				c-0.03-0.6-0.08-1.19-0.16-1.78c-0.05-0.39-0.12-0.77-0.19-1.15c0,0-0.39-2.17-0.54-2.93c-0.33-1.69-0.76-3.66-1.42-5.51
				l-0.21-0.55L509.77,207.25z"/>
		</g>
		<g>
			<path d="M246.73,236.16c-0.44,0-0.88-0.05-1.31-0.15l-0.94-0.22c-0.61-0.14-1.16-0.36-1.63-0.64c-0.39-0.23-0.77-0.47-1.14-0.71
				c-0.07-0.04-0.14-0.09-0.2-0.13c14.44-0.49,29.25-1.13,44.03-1.9l0.31-0.02v-0.01c65.64-3.28,132.78-9.37,199.57-18.11
				c0.13,0.5,0.21,1.02,0.3,1.53c0,0,0.07,0.4,0.09,0.53c-61.76,8.07-124.14,13.9-185.4,17.31l-0.33,0.02l0,0.03
				c-16.63,0.97-34.02,1.77-53.13,2.46L246.73,236.16z"/>
		</g>
		<g>
			<polygon class="st5" points="533.05,212.97 528.19,205.57 524.13,215.15 529.72,221.89 			"/>
		</g>
		<g>
			<polygon class="st5" points="541.75,220.29 545.6,212.56 538.85,204.36 535.52,213.28 			"/>
		</g>
		<g>
			<polygon class="st5" points="553.44,218.41 557.29,210.52 550.54,202.32 547.21,211.25 			"/>
		</g>
		<g>
			<polygon class="st5" points="565.13,216.37 568.98,208.48 562.23,200.28 558.9,209.21 			"/>
		</g>
		<g>
			<polygon class="st5" points="576.83,214.33 580.68,206.6 573.93,198.39 570.6,207.17 			"/>
		</g>
		<g>
			<polygon class="st5" points="588.52,212.29 592.37,204.55 585.62,196.35 582.29,205.12 			"/>
		</g>
		<g>
			<polygon class="st5" points="600.21,210.25 604.06,202.51 597.31,194.31 593.98,203.24 			"/>
		</g>
		<g>
			<polygon class="st5" points="612.26,208.43 615.95,200.56 609.21,192.5 605.88,201.28 			"/>
		</g>
		<g>
			<polygon class="st5" points="624.86,206.19 628.56,198.46 621.81,190.26 618.47,199.03 			"/>
		</g>
		<g>
			<path class="st4" d="M509.72,206.3c-6.24,0.81-13.15,2.38-19.39,3.19c1.5,4.82,3.1,13.79,3.53,18.67
				c5.63-0.78,13.72-1.64,19.35-2.41c-0.51-6.26-1.89-12.6-3.52-16.95L509.72,206.3z"/>
		</g>
		<g>
			<path class="st4" d="M517.01,243.92c-2.58,0.45-6.3-5.78-9.12-14.82c1.37-0.23,3.02-0.78,4.54-1.02c1-4.04-2.23-20.57-5.74-22.98
				c-1.21,0.22-2.28,0.28-3.5,0.5c-1.02-9.91-0.07-17.47,2.51-18.08C514.34,185.81,525.65,242.05,517.01,243.92L517.01,243.92z"/>
		</g>
		<g>
			<path class="st6" d="M495.99,225.82c2.74-0.05,5.51-0.11,8.29-0.02c-2.86,0.64-5.75,1.01-8.68,1.17l-0.38,0.02l0,0
				c-0.02-2.75-1.79-10.79-2.05-13.15C494.04,215.85,496.06,224,495.99,225.82z"/>
		</g>
		<g>
			<path class="st3" d="M630.46,183.8l-2.9,0.61c3.11,4,6.85,20.72,5.29,25.18l2.9-0.61C637.31,204.52,633.57,187.79,630.46,183.8z"
				/>
		</g>
	</g>
</g>
</svg>
