<?xml version="1.0" encoding="utf-8"?>
<!-- Generator: Adobe Illustrator 24.0.1, SVG Export Plug-In . SVG Version: 6.00 Build 0)  -->
<svg version="1.1" id="Layer_1" xmlns="http://www.w3.org/2000/svg" xmlns:xlink="http://www.w3.org/1999/xlink" x="0px" y="0px"
	 viewBox="0 0 891.39 456.79" style="enable-background:new 0 0 891.39 456.79;" xml:space="preserve">
<style type="text/css">
	.st0{opacity:0;fill:#FFFFFF;}
	.st1{fill:url(#SVGID_1_);}
	.st2{fill:#292929;}
	.st3{fill:#FFFFFF;}
	.st4{fill-rule:evenodd;clip-rule:evenodd;}
	.st5{fill:#F4F4F4;}
	.st6{fill-rule:evenodd;clip-rule:evenodd;fill:#FEFEFE;}
</style>
<g>
	<rect x="0" y="0" class="st0" width="891.39" height="456.79"/>
	<linearGradient id="SVGID_1_" gradientUnits="userSpaceOnUse" x1="269.5301" y1="247.507" x2="619.3909" y2="247.507">
		<stop  offset="5.617738e-03" style="stop-color:#8C6A33"/>
		<stop  offset="0.139" style="stop-color:#9A7638"/>
		<stop  offset="0.3542" style="stop-color:#A9843E"/>
		<stop  offset="0.5225" style="stop-color:#AF8940"/>
		<stop  offset="1" style="stop-color:#8C6A33"/>
	</linearGradient>
	<path class="st1" d="M552.62,101.85c-0.07,0-0.14-0.03-0.18-0.08c-0.05-0.04-0.08-0.11-0.08-0.18c0-0.06,0.03-0.13,0.08-0.17
		c0.04-0.05,0.11-0.07,0.18-0.07c0.07,0,0.13,0.03,0.17,0.07c0.05,0.05,0.07,0.11,0.07,0.17c0,0.07-0.03,0.14-0.07,0.18
		C552.75,101.82,552.68,101.85,552.62,101.85z M571.07,118.44c0.09-0.09,0.15-0.22,0.15-0.36c0-0.14-0.06-0.26-0.15-0.35
		c-0.09-0.09-0.22-0.15-0.36-0.15c-0.14,0-0.26,0.06-0.36,0.15c-0.09,0.09-0.15,0.22-0.15,0.35c0,0.14,0.06,0.27,0.15,0.36
		c0.09,0.09,0.22,0.15,0.36,0.15C570.85,118.58,570.98,118.53,571.07,118.44z M586.83,137.5c0.14-0.14,0.22-0.33,0.22-0.54
		s-0.09-0.4-0.22-0.53c-0.14-0.14-0.32-0.22-0.53-0.22s-0.4,0.08-0.54,0.22c-0.14,0.14-0.22,0.32-0.22,0.53s0.09,0.4,0.22,0.54
		c0.14,0.14,0.33,0.22,0.54,0.22S586.69,137.64,586.83,137.5z M599.73,158.59c0.18-0.18,0.29-0.44,0.29-0.71s-0.11-0.53-0.29-0.71
		c-0.18-0.18-0.44-0.29-0.71-0.29c-0.28,0-0.53,0.11-0.71,0.29c-0.18,0.18-0.3,0.44-0.3,0.71s0.12,0.53,0.3,0.71
		c0.18,0.18,0.43,0.3,0.71,0.3C599.3,158.89,599.55,158.78,599.73,158.59z M609.51,181.3c0.23-0.23,0.37-0.55,0.37-0.9
		c0-0.35-0.14-0.67-0.37-0.89c-0.23-0.23-0.55-0.37-0.89-0.37c-0.35,0-0.67,0.14-0.89,0.37c-0.23,0.23-0.37,0.55-0.37,0.89
		c0,0.35,0.14,0.67,0.37,0.9c0.23,0.22,0.54,0.37,0.89,0.37C608.96,181.66,609.28,181.52,609.51,181.3z M615.93,205.14
		c0.27-0.27,0.44-0.65,0.44-1.07c0-0.41-0.17-0.79-0.44-1.07c-0.27-0.28-0.65-0.45-1.07-0.45c-0.42,0-0.8,0.17-1.07,0.45
		c-0.27,0.27-0.44,0.65-0.44,1.07c0,0.42,0.17,0.8,0.44,1.07s0.65,0.44,1.07,0.44C615.27,205.58,615.65,205.41,615.93,205.14z
		 M618.87,229.64c0.32-0.32,0.52-0.76,0.52-1.25c0-0.49-0.2-0.93-0.52-1.25c-0.32-0.32-0.76-0.52-1.25-0.52
		c-0.49,0-0.93,0.2-1.25,0.52c-0.32,0.32-0.52,0.76-0.52,1.25c0,0.49,0.2,0.93,0.52,1.25c0.32,0.32,0.76,0.52,1.25,0.52
		C618.11,230.16,618.55,229.96,618.87,229.64z M618.33,254.29c0.37-0.36,0.59-0.87,0.59-1.43c0-0.56-0.23-1.07-0.59-1.43
		c-0.37-0.36-0.87-0.59-1.43-0.59c-0.55,0-1.06,0.23-1.43,0.59c-0.36,0.36-0.59,0.87-0.59,1.43c0,0.55,0.23,1.06,0.59,1.43
		c0.37,0.37,0.87,0.59,1.43,0.59C617.46,254.88,617.96,254.66,618.33,254.29z M614.29,278.58c0.41-0.41,0.67-0.98,0.67-1.6
		s-0.25-1.2-0.67-1.6c-0.41-0.41-0.98-0.67-1.6-0.67s-1.2,0.25-1.6,0.67c-0.41,0.41-0.67,0.98-0.67,1.6s0.25,1.2,0.67,1.6
		c0.41,0.41,0.98,0.67,1.6,0.67S613.88,279,614.29,278.58z M606.82,302.02c0.46-0.46,0.74-1.09,0.74-1.78c0-0.7-0.28-1.33-0.74-1.79
		c-0.46-0.45-1.09-0.74-1.78-0.74c-0.7,0-1.33,0.29-1.78,0.74c-0.46,0.46-0.74,1.09-0.74,1.79c0,0.7,0.28,1.33,0.74,1.78
		s1.09,0.74,1.78,0.74C605.73,302.76,606.36,302.48,606.82,302.02z M596.08,324.1c0.5-0.5,0.81-1.2,0.81-1.96
		c0-0.77-0.31-1.46-0.81-1.96c-0.5-0.5-1.2-0.82-1.96-0.82c-0.77,0-1.46,0.31-1.97,0.82c-0.5,0.5-0.81,1.2-0.81,1.96
		c0,0.76,0.31,1.46,0.81,1.96c0.5,0.5,1.2,0.82,1.97,0.82C594.88,324.92,595.58,324.6,596.08,324.1z M582.31,344.4
		c0.55-0.55,0.89-1.3,0.89-2.14c0-0.84-0.34-1.59-0.89-2.14c-0.55-0.55-1.31-0.89-2.14-0.89c-0.84,0-1.59,0.34-2.14,0.89
		c-0.55,0.55-0.89,1.31-0.89,2.14c0,0.84,0.34,1.59,0.89,2.14c0.55,0.55,1.31,0.89,2.14,0.89
		C581.01,345.29,581.77,344.95,582.31,344.4z M565.82,362.51c0.59-0.59,0.96-1.41,0.96-2.32c0-0.91-0.37-1.73-0.96-2.32
		c-0.59-0.59-1.41-0.96-2.32-0.96c-0.91,0-1.73,0.37-2.32,0.96s-0.96,1.41-0.96,2.32c0,0.9,0.37,1.72,0.96,2.32
		c0.59,0.59,1.41,0.96,2.32,0.96C564.41,363.47,565.23,363.11,565.82,362.51z M546.96,378.07c0.64-0.64,1.04-1.52,1.04-2.5
		c0-0.97-0.4-1.86-1.04-2.5c-0.64-0.64-1.52-1.04-2.5-1.04s-1.86,0.4-2.5,1.04c-0.64,0.64-1.03,1.52-1.03,2.5
		c0,0.98,0.4,1.86,1.03,2.5c0.64,0.64,1.52,1.04,2.5,1.04S546.32,378.71,546.96,378.07z M526.1,390.77
		c0.69-0.69,1.11-1.63,1.11-2.68s-0.42-1.99-1.11-2.68c-0.69-0.69-1.63-1.11-2.68-1.11c-1.05,0-1.99,0.42-2.68,1.11
		c-0.68,0.68-1.11,1.63-1.11,2.68s0.42,1.99,1.11,2.68c0.69,0.68,1.63,1.11,2.68,1.11C524.47,391.87,525.41,391.45,526.1,390.77z
		 M503.66,400.3c0.73-0.73,1.18-1.74,1.18-2.86c0-1.11-0.45-2.13-1.18-2.86c-0.73-0.73-1.74-1.18-2.86-1.18s-2.13,0.45-2.86,1.18
		c-0.73,0.73-1.18,1.74-1.18,2.86c0,1.12,0.45,2.13,1.18,2.86c0.73,0.73,1.74,1.18,2.86,1.18S502.92,401.03,503.66,400.3z
		 M480.1,406.48c0.78-0.78,1.26-1.85,1.26-3.03c0-1.18-0.48-2.26-1.26-3.03s-1.85-1.25-3.03-1.25c-1.19,0-2.26,0.48-3.03,1.25
		c-0.78,0.78-1.26,1.85-1.26,3.03c0,1.19,0.48,2.26,1.26,3.03c0.77,0.78,1.85,1.26,3.03,1.26
		C478.26,407.74,479.33,407.26,480.1,406.48z M455.93,409.18c0.82-0.82,1.33-1.96,1.33-3.21c0-1.26-0.51-2.39-1.33-3.21
		c-0.82-0.82-1.95-1.33-3.21-1.33s-2.39,0.51-3.21,1.33c-0.82,0.82-1.33,1.95-1.33,3.21c0,1.25,0.51,2.39,1.33,3.21
		c0.82,0.82,1.96,1.33,3.21,1.33S455.11,410,455.93,409.18z M431.65,408.39c0.87-0.87,1.4-2.07,1.4-3.39c0-1.33-0.53-2.52-1.4-3.39
		c-0.87-0.87-2.07-1.4-3.39-1.4c-1.32,0-2.52,0.54-3.39,1.4c-0.87,0.87-1.4,2.07-1.4,3.39c0,1.32,0.53,2.52,1.4,3.39
		c0.87,0.87,2.07,1.4,3.39,1.4C429.58,409.79,430.78,409.25,431.65,408.39z M407.75,404.1c0.92-0.92,1.48-2.18,1.48-3.57
		c0-1.39-0.56-2.65-1.48-3.57c-0.91-0.91-2.17-1.48-3.57-1.48s-2.65,0.57-3.57,1.48s-1.48,2.18-1.48,3.57c0,1.4,0.57,2.65,1.48,3.57
		c0.91,0.91,2.17,1.48,3.57,1.48S406.85,405.01,407.75,404.1z M384.76,396.39c0.96-0.96,1.55-2.28,1.55-3.75
		c0-1.46-0.59-2.79-1.55-3.75c-0.96-0.96-2.28-1.55-3.75-1.55c-1.46,0-2.79,0.59-3.75,1.55s-1.55,2.28-1.55,3.75
		c0,1.46,0.59,2.79,1.55,3.75c0.96,0.96,2.28,1.55,3.75,1.55C382.48,397.94,383.8,397.35,384.76,396.39z M363.15,385.42
		c1.01-1,1.63-2.39,1.63-3.92s-0.62-2.92-1.63-3.93c-1.01-1-2.39-1.62-3.93-1.62c-1.53,0-2.92,0.62-3.93,1.62
		c-1,1.01-1.63,2.4-1.63,3.93s0.62,2.92,1.63,3.92c1.01,1.01,2.39,1.63,3.93,1.63C360.75,387.04,362.14,386.42,363.15,385.42z
		 M343.35,371.45c1.05-1.05,1.7-2.5,1.7-4.11c0-1.6-0.65-3.05-1.7-4.1s-2.5-1.7-4.1-1.7c-1.6,0-3.06,0.65-4.11,1.7
		c-1.05,1.05-1.7,2.5-1.7,4.1c0,1.6,0.65,3.06,1.7,4.11c1.05,1.05,2.5,1.7,4.11,1.7C340.85,373.15,342.3,372.5,343.35,371.45z
		 M325.76,354.78c1.1-1.1,1.78-2.61,1.78-4.28c0-1.67-0.68-3.18-1.78-4.28c-1.1-1.1-2.61-1.78-4.28-1.78
		c-1.67,0-3.19,0.68-4.28,1.78c-1.1,1.1-1.78,2.61-1.78,4.28c0,1.67,0.68,3.19,1.78,4.28c1.1,1.1,2.61,1.78,4.28,1.78
		C323.15,356.56,324.67,355.88,325.76,354.78z M310.75,335.76c1.14-1.14,1.85-2.72,1.85-4.46s-0.7-3.32-1.85-4.46
		c-1.14-1.14-2.72-1.85-4.46-1.85c-1.75,0-3.32,0.7-4.46,1.85c-1.14,1.14-1.85,2.72-1.85,4.46s0.71,3.32,1.85,4.46
		c1.14,1.14,2.72,1.85,4.46,1.85C308.04,337.61,309.61,336.9,310.75,335.76z M298.64,314.77c1.19-1.19,1.92-2.83,1.92-4.63
		c0-1.81-0.73-3.45-1.92-4.64c-1.19-1.19-2.83-1.92-4.64-1.92c-1.81,0-3.45,0.73-4.63,1.92c-1.19,1.19-1.92,2.83-1.92,4.64
		c0,1.81,0.73,3.45,1.92,4.63c1.18,1.19,2.83,1.92,4.63,1.92C295.81,316.7,297.45,315.96,298.64,314.77z M289.69,292.24
		c1.23-1.23,2-2.94,2-4.82s-0.76-3.59-2-4.82c-1.23-1.23-2.94-2-4.82-2s-3.59,0.76-4.82,2c-1.23,1.23-2,2.94-2,4.82
		s0.76,3.59,2,4.82c1.23,1.23,2.94,2,4.82,2S288.45,293.47,289.69,292.24z M284.11,268.62c1.28-1.28,2.07-3.04,2.07-5
		c0-1.95-0.79-3.72-2.07-4.99c-1.28-1.28-3.04-2.07-5-2.07c-1.95,0-3.71,0.79-4.99,2.07c-1.28,1.28-2.07,3.04-2.07,4.99
		c0,1.95,0.79,3.72,2.07,5c1.28,1.28,3.04,2.07,4.99,2.07C281.07,270.69,282.84,269.9,284.11,268.62z M282.03,244.42
		c1.32-1.32,2.14-3.15,2.14-5.17c0-2.02-0.82-3.85-2.14-5.18c-1.33-1.32-3.15-2.14-5.18-2.14s-3.85,0.82-5.18,2.14
		c-1.32,1.33-2.14,3.15-2.14,5.18c0,2.02,0.82,3.85,2.14,5.17c1.33,1.33,3.15,2.15,5.18,2.15S280.7,245.75,282.03,244.42z
		 M283.42,220.15c1.37-1.37,2.22-3.26,2.22-5.36c0-2.09-0.85-3.98-2.22-5.35s-3.26-2.22-5.35-2.22c-2.1,0-3.99,0.85-5.36,2.22
		s-2.22,3.26-2.22,5.35c0,2.09,0.85,3.99,2.22,5.36s3.26,2.22,5.36,2.22C280.16,222.37,282.05,221.52,283.42,220.15z M288.31,196.31
		c1.42-1.42,2.29-3.37,2.29-5.53c0-2.16-0.87-4.11-2.29-5.54c-1.42-1.41-3.38-2.29-5.53-2.29c-2.16,0-4.12,0.88-5.54,2.29
		c-1.42,1.42-2.29,3.38-2.29,5.54c0,2.16,0.87,4.11,2.29,5.53s3.37,2.29,5.54,2.29C284.94,198.6,286.9,197.72,288.31,196.31z
		 M296.62,173.39c1.46-1.46,2.36-3.48,2.36-5.71c0-2.23-0.9-4.25-2.36-5.71c-1.46-1.46-3.48-2.36-5.71-2.36
		c-2.23,0-4.25,0.9-5.71,2.36c-1.46,1.46-2.36,3.48-2.36,5.71c0,2.23,0.9,4.25,2.36,5.71c1.46,1.46,3.48,2.36,5.71,2.36
		C293.14,175.76,295.16,174.86,296.62,173.39z M308.17,151.89c1.51-1.51,2.44-3.59,2.44-5.89c0-2.3-0.93-4.38-2.44-5.89
		c-1.51-1.51-3.59-2.44-5.89-2.44c-2.3,0-4.38,0.93-5.89,2.44c-1.51,1.51-2.44,3.59-2.44,5.89c0,2.3,0.93,4.38,2.44,5.89
		c1.51,1.51,3.59,2.44,5.89,2.44C304.58,154.33,306.67,153.4,308.17,151.89z M322.7,132.24c1.55-1.55,2.51-3.7,2.51-6.06
		s-0.96-4.52-2.51-6.07c-1.55-1.55-3.7-2.51-6.07-2.51s-4.52,0.96-6.07,2.51c-1.55,1.55-2.51,3.7-2.51,6.07s0.96,4.51,2.51,6.06
		c1.55,1.55,3.7,2.52,6.07,2.52S321.15,133.79,322.7,132.24z M339.91,114.83c1.6-1.6,2.59-3.81,2.59-6.25
		c0-2.44-0.99-4.65-2.59-6.24c-1.6-1.6-3.81-2.59-6.24-2.59c-2.44,0-4.65,0.99-6.25,2.59c-1.6,1.6-2.59,3.81-2.59,6.24
		c0,2.44,0.99,4.65,2.59,6.25c1.6,1.6,3.81,2.59,6.25,2.59C336.1,117.42,338.31,116.42,339.91,114.83z M359.44,100.01
		c1.64-1.64,2.66-3.91,2.66-6.42s-1.02-4.78-2.66-6.42c-1.64-1.65-3.92-2.66-6.43-2.66c-2.51,0-4.78,1.01-6.42,2.66
		c-1.64,1.64-2.66,3.91-2.66,6.42s1.02,4.78,2.66,6.42c1.64,1.65,3.92,2.66,6.42,2.66C355.52,102.67,357.8,101.66,359.44,100.01z
		 M395.81,98.87c0.06-0.05,0.09-0.12,0.09-0.21c0-0.08-0.03-0.15-0.09-0.21c-0.05-0.05-0.12-0.09-0.2-0.09s-0.16,0.03-0.21,0.09
		c-0.06,0.06-0.09,0.13-0.09,0.21c0,0.09,0.03,0.16,0.09,0.21c0.05,0.05,0.13,0.09,0.21,0.09S395.76,98.92,395.81,98.87z
		 M419.59,92.48c0.1-0.11,0.17-0.25,0.17-0.41c0-0.17-0.07-0.31-0.17-0.42c-0.11-0.11-0.26-0.17-0.42-0.17s-0.31,0.07-0.42,0.17
		c-0.11,0.11-0.17,0.25-0.17,0.42c0,0.16,0.06,0.31,0.17,0.41c0.11,0.11,0.26,0.17,0.42,0.17S419.48,92.59,419.59,92.48z
		 M444.13,90.1c0.16-0.16,0.26-0.38,0.26-0.63s-0.1-0.47-0.26-0.63c-0.16-0.16-0.38-0.26-0.63-0.26c-0.24,0-0.46,0.1-0.62,0.26
		c-0.16,0.16-0.26,0.38-0.26,0.63s0.1,0.47,0.26,0.63c0.16,0.16,0.38,0.26,0.62,0.26C443.75,90.35,443.97,90.25,444.13,90.1z
		 M468.76,91.8c0.21-0.21,0.35-0.51,0.35-0.83c0-0.33-0.14-0.62-0.35-0.84c-0.21-0.21-0.51-0.35-0.83-0.35
		c-0.32,0-0.62,0.13-0.83,0.35s-0.35,0.51-0.35,0.84c0,0.32,0.13,0.62,0.35,0.83s0.51,0.35,0.83,0.35
		C468.26,92.14,468.55,92.01,468.76,91.8z M492.8,97.59c0.27-0.27,0.44-0.64,0.44-1.05c0-0.41-0.17-0.77-0.44-1.04
		c-0.26-0.26-0.64-0.43-1.04-0.43c-0.41,0-0.77,0.17-1.04,0.43c-0.27,0.27-0.43,0.64-0.43,1.04c0,0.41,0.16,0.78,0.43,1.05
		c0.27,0.26,0.64,0.43,1.04,0.43C492.16,98.02,492.54,97.86,492.8,97.59z M515.56,107.31c0.32-0.32,0.52-0.76,0.52-1.25
		c0-0.49-0.2-0.93-0.52-1.25c-0.32-0.32-0.76-0.52-1.25-0.52c-0.49,0-0.93,0.2-1.25,0.52c-0.32,0.32-0.52,0.76-0.52,1.25
		c0,0.49,0.2,0.93,0.52,1.25c0.32,0.32,0.76,0.52,1.25,0.52C514.8,107.83,515.24,107.63,515.56,107.31z M536.43,120.64
		c0.38-0.37,0.61-0.89,0.61-1.46c0-0.57-0.23-1.08-0.61-1.46c-0.37-0.38-0.89-0.61-1.46-0.61c-0.57,0-1.08,0.23-1.46,0.61
		c-0.38,0.37-0.61,0.89-0.61,1.46c0,0.57,0.23,1.09,0.61,1.46c0.38,0.38,0.89,0.61,1.46,0.61
		C535.54,121.24,536.06,121.01,536.43,120.64z M554.81,137.24c0.43-0.43,0.69-1.02,0.69-1.67c0-0.65-0.26-1.24-0.69-1.66
		c-0.43-0.43-1.02-0.69-1.67-0.69c-0.65,0-1.24,0.26-1.67,0.69c-0.43,0.43-0.69,1.02-0.69,1.66c0,0.65,0.26,1.24,0.69,1.67
		c0.43,0.43,1.02,0.69,1.67,0.69C553.8,137.94,554.39,137.67,554.81,137.24z M570.17,156.67c0.48-0.48,0.78-1.14,0.78-1.88
		c0-0.73-0.3-1.4-0.78-1.87c-0.48-0.48-1.14-0.78-1.87-0.78c-0.73,0-1.4,0.29-1.88,0.78c-0.48,0.48-0.78,1.14-0.78,1.87
		c0,0.73,0.29,1.4,0.78,1.88c0.48,0.48,1.14,0.78,1.88,0.78C569.03,157.45,569.69,157.15,570.17,156.67z M582.1,178.36
		c0.53-0.54,0.87-1.27,0.87-2.09c0-0.82-0.33-1.55-0.87-2.08c-0.53-0.53-1.27-0.86-2.08-0.86s-1.55,0.33-2.09,0.86
		c-0.53,0.53-0.86,1.27-0.86,2.08c0,0.82,0.33,1.55,0.86,2.09c0.54,0.53,1.27,0.86,2.09,0.86S581.56,178.89,582.1,178.36z
		 M590.3,201.7c0.58-0.58,0.95-1.4,0.95-2.29c0-0.9-0.36-1.71-0.95-2.3c-0.59-0.58-1.4-0.95-2.3-0.95s-1.71,0.36-2.29,0.95
		c-0.59,0.59-0.95,1.4-0.95,2.3c0,0.89,0.36,1.71,0.95,2.29c0.58,0.59,1.4,0.95,2.29,0.95S589.71,202.29,590.3,201.7z
		 M594.55,226.05c0.64-0.64,1.04-1.52,1.04-2.5c0-0.98-0.4-1.86-1.04-2.5c-0.64-0.64-1.53-1.03-2.5-1.03c-0.98,0-1.86,0.39-2.5,1.03
		s-1.04,1.52-1.04,2.5c0,0.98,0.4,1.86,1.04,2.5s1.52,1.04,2.5,1.04C593.02,227.08,593.91,226.69,594.55,226.05z M594.73,250.73
		c0.7-0.69,1.12-1.65,1.12-2.71c0-1.05-0.43-2.01-1.12-2.71c-0.69-0.69-1.65-1.12-2.71-1.12c-1.05,0-2.01,0.43-2.71,1.12
		c-0.69,0.7-1.12,1.66-1.12,2.71c0,1.06,0.43,2.02,1.12,2.71c0.7,0.7,1.66,1.12,2.71,1.12
		C593.08,251.85,594.04,251.42,594.73,250.73z M590.8,275.06c0.75-0.75,1.21-1.78,1.21-2.92s-0.46-2.17-1.21-2.92
		s-1.78-1.21-2.91-1.21c-1.14,0-2.17,0.46-2.92,1.21s-1.21,1.78-1.21,2.92s0.46,2.17,1.21,2.92s1.78,1.21,2.92,1.21
		C589.02,276.27,590.06,275.81,590.8,275.06z M582.88,298.35c0.8-0.8,1.29-1.9,1.29-3.12s-0.49-2.33-1.29-3.13
		c-0.8-0.8-1.9-1.29-3.12-1.29c-1.22,0-2.33,0.5-3.13,1.29c-0.8,0.8-1.29,1.91-1.29,3.13s0.5,2.33,1.29,3.12
		c0.8,0.8,1.91,1.3,3.13,1.3C580.98,299.65,582.08,299.15,582.88,298.35z M571.21,319.97c0.85-0.85,1.38-2.04,1.38-3.34
		s-0.53-2.48-1.38-3.33s-2.03-1.38-3.33-1.38c-1.31,0-2.48,0.53-3.34,1.38s-1.38,2.03-1.38,3.33s0.52,2.48,1.38,3.34
		s2.03,1.38,3.34,1.38C569.18,321.35,570.36,320.82,571.21,319.97z M556.16,339.3c0.9-0.9,1.47-2.16,1.47-3.54
		c0-1.38-0.56-2.64-1.47-3.54c-0.91-0.91-2.16-1.47-3.54-1.47c-1.39,0-2.64,0.56-3.55,1.47c-0.9,0.9-1.46,2.16-1.46,3.54
		c0,1.38,0.56,2.64,1.46,3.54c0.91,0.91,2.16,1.47,3.55,1.47C554,340.77,555.25,340.21,556.16,339.3z M538.1,355.79
		c0.96-0.96,1.55-2.28,1.55-3.75c0-1.46-0.59-2.79-1.55-3.75s-2.28-1.55-3.75-1.55c-1.46,0-2.79,0.59-3.75,1.55
		s-1.55,2.29-1.55,3.75c0,1.47,0.59,2.8,1.55,3.75c0.96,0.96,2.29,1.55,3.75,1.55C535.81,357.35,537.14,356.75,538.1,355.79z
		 M517.56,368.99c1.02-1.02,1.64-2.42,1.64-3.96c0-1.55-0.62-2.94-1.64-3.96c-1.01-1.02-2.41-1.64-3.96-1.64
		c-1.54,0-2.94,0.62-3.96,1.64c-1.01,1.02-1.64,2.41-1.64,3.96c0,1.54,0.63,2.94,1.64,3.96c1.02,1.01,2.42,1.64,3.96,1.64
		C515.15,370.63,516.55,370,517.56,368.99z M495.16,378.55c1.07-1.07,1.72-2.54,1.72-4.17c0-1.63-0.66-3.1-1.72-4.17
		c-1.07-1.07-2.54-1.73-4.17-1.73s-3.1,0.66-4.17,1.73c-1.07,1.07-1.73,2.54-1.73,4.17c0,1.63,0.66,3.1,1.73,4.17
		c1.06,1.07,2.54,1.73,4.17,1.73S494.09,379.61,495.16,378.55z M471.51,384.23c1.12-1.12,1.81-2.66,1.81-4.37s-0.69-3.26-1.81-4.38
		c-1.12-1.12-2.66-1.81-4.37-1.81s-3.26,0.69-4.37,1.81c-1.12,1.12-1.82,2.67-1.82,4.38s0.7,3.26,1.82,4.37
		c1.12,1.12,2.66,1.81,4.37,1.81S470.39,385.35,471.51,384.23z M447.29,385.87c1.17-1.17,1.9-2.8,1.9-4.59
		c0-1.79-0.73-3.41-1.9-4.58c-1.17-1.17-2.8-1.9-4.58-1.9c-1.79,0-3.41,0.73-4.59,1.9s-1.9,2.8-1.9,4.58c0,1.79,0.73,3.41,1.9,4.59
		s2.8,1.9,4.59,1.9C444.49,387.77,446.11,387.05,447.29,385.87z M423.17,383.42c1.23-1.23,1.98-2.92,1.98-4.79
		c0-1.87-0.76-3.57-1.98-4.8c-1.23-1.22-2.92-1.98-4.8-1.98c-1.87,0-3.56,0.76-4.79,1.98c-1.23,1.23-1.99,2.92-1.99,4.8
		c0,1.87,0.76,3.56,1.99,4.79c1.22,1.22,2.92,1.98,4.79,1.98C420.25,385.4,421.94,384.64,423.17,383.42z M399.85,376.9
		c1.28-1.28,2.07-3.05,2.07-5c0-1.95-0.79-3.73-2.07-5c-1.28-1.28-3.05-2.07-5-2.07c-1.95,0-3.72,0.79-5,2.07
		c-1.28,1.28-2.07,3.05-2.07,5c0,1.95,0.79,3.72,2.07,5c1.28,1.28,3.05,2.07,5,2.07C396.8,378.97,398.57,378.18,399.85,376.9z
		 M377.99,366.54c1.33-1.34,2.16-3.18,2.16-5.21c0-2.04-0.83-3.88-2.16-5.21c-1.34-1.33-3.18-2.16-5.21-2.16
		c-2.04,0-3.88,0.83-5.21,2.16c-1.34,1.33-2.16,3.18-2.16,5.21c0,2.04,0.82,3.88,2.16,5.21c1.33,1.33,3.18,2.16,5.21,2.16
		C374.81,368.7,376.65,367.87,377.99,366.54z M358.19,352.65c1.39-1.39,2.24-3.3,2.24-5.42c0-2.12-0.86-4.03-2.24-5.42
		c-1.39-1.39-3.3-2.24-5.42-2.24c-2.12,0-4.03,0.86-5.42,2.24c-1.39,1.39-2.24,3.3-2.24,5.42c0,2.11,0.86,4.03,2.24,5.42
		c1.39,1.39,3.3,2.24,5.42,2.24C354.88,354.9,356.8,354.04,358.19,352.65z M341.03,335.61c1.44-1.44,2.33-3.43,2.33-5.63
		c0-2.2-0.89-4.19-2.33-5.63c-1.44-1.44-3.43-2.33-5.63-2.33s-4.19,0.89-5.63,2.33c-1.44,1.44-2.33,3.43-2.33,5.63
		c0,2.19,0.89,4.19,2.33,5.63c1.44,1.44,3.43,2.33,5.63,2.33S339.59,337.05,341.03,335.61z M327.03,315.9
		c1.49-1.5,2.42-3.56,2.42-5.84s-0.93-4.34-2.42-5.83c-1.49-1.5-3.56-2.42-5.84-2.42c-2.28,0-4.34,0.92-5.83,2.42
		c-1.49,1.49-2.42,3.56-2.42,5.83s0.93,4.34,2.42,5.84c1.49,1.49,3.56,2.42,5.83,2.42C323.47,318.31,325.53,317.39,327.03,315.9z
		 M316.55,294.08c1.55-1.55,2.51-3.68,2.51-6.04s-0.96-4.5-2.51-6.04c-1.54-1.55-3.68-2.51-6.04-2.51s-4.5,0.96-6.04,2.51
		c-1.55,1.54-2.51,3.68-2.51,6.04s0.96,4.49,2.51,6.04c1.54,1.55,3.68,2.51,6.04,2.51S315,295.63,316.55,294.08z M309.88,270.81
		c1.6-1.6,2.59-3.81,2.59-6.25c0-2.44-0.99-4.65-2.59-6.25s-3.81-2.59-6.26-2.59c-2.44,0-4.65,0.99-6.25,2.59
		c-1.6,1.6-2.59,3.81-2.59,6.25c0,2.44,0.99,4.65,2.59,6.25c1.6,1.6,3.81,2.59,6.25,2.59C306.07,273.4,308.28,272.41,309.88,270.81z
		 M307.19,246.71c1.65-1.65,2.68-3.93,2.68-6.46c0-2.53-1.02-4.81-2.68-6.47c-1.66-1.65-3.94-2.68-6.46-2.68
		c-2.53,0-4.81,1.02-6.46,2.68c-1.66,1.66-2.68,3.94-2.68,6.47c0,2.52,1.02,4.81,2.68,6.46c1.65,1.66,3.93,2.68,6.46,2.68
		C303.26,249.39,305.54,248.37,307.19,246.71z M327.33,211.99c0.06-0.06,0.1-0.15,0.1-0.25c0-0.09-0.04-0.18-0.1-0.25
		c-0.06-0.06-0.15-0.11-0.25-0.11s-0.18,0.04-0.25,0.11c-0.06,0.06-0.1,0.15-0.1,0.25c0,0.1,0.04,0.19,0.1,0.25
		c0.07,0.06,0.15,0.11,0.25,0.11S327.27,212.06,327.33,211.99z M334.83,188.88c0.13-0.13,0.21-0.3,0.21-0.5s-0.08-0.37-0.21-0.5
		c-0.13-0.13-0.3-0.21-0.5-0.21s-0.37,0.08-0.5,0.21c-0.13,0.13-0.21,0.3-0.21,0.5s0.08,0.37,0.21,0.5c0.13,0.13,0.3,0.21,0.5,0.21
		S334.7,189,334.83,188.88z M346.84,167.68c0.19-0.19,0.31-0.46,0.31-0.75c0-0.29-0.12-0.56-0.31-0.75
		c-0.19-0.19-0.46-0.31-0.75-0.31c-0.29,0-0.56,0.12-0.75,0.31c-0.19,0.19-0.31,0.46-0.31,0.75c0,0.29,0.12,0.56,0.31,0.75
		s0.46,0.31,0.75,0.31C346.38,167.99,346.65,167.87,346.84,167.68z M362.92,149.28c0.26-0.26,0.41-0.61,0.41-1
		c0-0.39-0.16-0.75-0.41-1c-0.26-0.26-0.61-0.41-1-0.41c-0.39,0-0.74,0.16-1,0.41c-0.26,0.26-0.42,0.61-0.42,1
		c0,0.39,0.16,0.75,0.42,1s0.61,0.41,1,0.41C362.31,149.69,362.66,149.54,362.92,149.28z M382.43,134.45
		c0.32-0.32,0.52-0.76,0.52-1.25c0-0.49-0.2-0.93-0.52-1.25c-0.32-0.32-0.76-0.52-1.25-0.52c-0.49,0-0.93,0.2-1.25,0.52
		c-0.32,0.32-0.52,0.76-0.52,1.25c0,0.49,0.2,0.93,0.52,1.25c0.32,0.32,0.76,0.52,1.25,0.52
		C381.67,134.97,382.11,134.78,382.43,134.45z M404.57,123.77c0.38-0.38,0.62-0.91,0.62-1.5c0-0.59-0.24-1.12-0.62-1.5
		c-0.39-0.38-0.92-0.62-1.51-0.62c-0.58,0-1.12,0.24-1.5,0.62c-0.38,0.38-0.62,0.91-0.62,1.5c0,0.59,0.24,1.12,0.62,1.5
		c0.38,0.38,0.92,0.62,1.5,0.62C403.65,124.4,404.18,124.16,404.57,123.77z M428.45,117.72c0.45-0.45,0.73-1.07,0.73-1.75
		c0-0.68-0.28-1.31-0.73-1.75c-0.45-0.45-1.07-0.73-1.75-0.73c-0.69,0-1.31,0.28-1.75,0.73c-0.45,0.45-0.73,1.07-0.73,1.75
		c0,0.69,0.28,1.3,0.73,1.75c0.45,0.45,1.07,0.73,1.75,0.73C427.38,118.44,428,118.17,428.45,117.72z M453.12,116.55
		c0.51-0.51,0.83-1.22,0.83-2.01c0-0.78-0.32-1.49-0.83-2c-0.51-0.52-1.22-0.83-2.01-0.83c-0.78,0-1.49,0.32-2,0.83
		c-0.52,0.51-0.83,1.22-0.83,2c0,0.79,0.32,1.49,0.83,2.01c0.51,0.51,1.22,0.83,2,0.83C451.9,117.38,452.61,117.07,453.12,116.55z
		 M477.58,120.3c0.58-0.58,0.93-1.37,0.93-2.25c0-0.88-0.36-1.68-0.93-2.25c-0.58-0.58-1.37-0.93-2.25-0.93
		c-0.88,0-1.68,0.36-2.26,0.93c-0.57,0.58-0.93,1.37-0.93,2.25c0,0.88,0.36,1.68,0.93,2.25c0.58,0.58,1.37,0.93,2.26,0.93
		C476.21,121.23,477.01,120.88,477.58,120.3z M500.87,128.78c0.64-0.64,1.04-1.53,1.04-2.51s-0.4-1.87-1.04-2.51
		c-0.64-0.64-1.53-1.04-2.51-1.04s-1.87,0.4-2.51,1.04s-1.04,1.53-1.04,2.51s0.4,1.86,1.04,2.51c0.64,0.64,1.53,1.04,2.51,1.04
		S500.23,129.42,500.87,128.78z M522.04,141.7c0.7-0.7,1.14-1.68,1.14-2.75c0-1.08-0.44-2.05-1.14-2.76
		c-0.71-0.7-1.68-1.14-2.76-1.14s-2.05,0.44-2.76,1.14c-0.7,0.71-1.14,1.68-1.14,2.76c0,1.08,0.44,2.05,1.14,2.75
		c0.7,0.71,1.68,1.14,2.76,1.14S521.34,142.41,522.04,141.7z M540.24,158.57c0.77-0.77,1.24-1.83,1.24-3s-0.47-2.24-1.24-3
		c-0.77-0.77-1.84-1.25-3.01-1.25c-1.17,0-2.24,0.47-3,1.25c-0.77,0.77-1.25,1.83-1.25,3s0.47,2.24,1.25,3
		c0.77,0.77,1.83,1.25,3,1.25C538.41,159.82,539.47,159.34,540.24,158.57z M554.72,178.71c0.83-0.83,1.35-1.98,1.35-3.26
		c0-1.27-0.52-2.42-1.35-3.26c-0.83-0.83-1.99-1.34-3.26-1.34c-1.27,0-2.42,0.51-3.26,1.34c-0.83,0.84-1.35,1.98-1.35,3.26
		c0,1.27,0.52,2.43,1.35,3.26c0.84,0.84,1.99,1.35,3.26,1.35C552.73,180.07,553.89,179.55,554.72,178.71z M564.96,201.3
		c0.9-0.9,1.45-2.14,1.45-3.51s-0.55-2.61-1.45-3.51c-0.9-0.9-2.14-1.45-3.51-1.45s-2.61,0.55-3.51,1.45
		c-0.9,0.9-1.46,2.14-1.46,3.51s0.56,2.61,1.46,3.51c0.9,0.9,2.14,1.46,3.51,1.46S564.06,202.2,564.96,201.3z M570.49,225.44
		c0.96-0.96,1.56-2.29,1.56-3.76s-0.6-2.8-1.56-3.76c-0.96-0.96-2.29-1.55-3.76-1.55c-1.47,0-2.8,0.59-3.76,1.55
		c-0.96,0.96-1.56,2.29-1.56,3.76s0.6,2.8,1.56,3.76c0.96,0.96,2.29,1.56,3.76,1.56C568.19,226.99,569.52,226.4,570.49,225.44z
		 M571.1,250.14c1.02-1.02,1.66-2.44,1.66-4.01s-0.64-2.98-1.66-4.01c-1.03-1.02-2.45-1.66-4.01-1.66c-1.56,0-2.98,0.64-4.01,1.66
		c-1.02,1.02-1.66,2.44-1.66,4.01s0.63,2.98,1.66,4.01c1.03,1.02,2.45,1.66,4.01,1.66C568.65,251.8,570.07,251.17,571.1,250.14z
		 M566.83,274.43c1.09-1.09,1.76-2.59,1.76-4.26c0-1.66-0.67-3.17-1.76-4.26c-1.09-1.09-2.6-1.77-4.26-1.77
		c-1.66,0-3.17,0.68-4.26,1.77c-1.09,1.09-1.77,2.59-1.77,4.26c0,1.66,0.68,3.17,1.77,4.26c1.09,1.09,2.59,1.77,4.26,1.77
		C564.23,276.2,565.73,275.52,566.83,274.43z M557.86,297.35c1.15-1.16,1.87-2.75,1.87-4.51c0-1.76-0.72-3.35-1.87-4.51
		c-1.15-1.16-2.75-1.87-4.51-1.87c-1.76,0-3.36,0.71-4.51,1.87c-1.15,1.15-1.87,2.75-1.87,4.51c0,1.76,0.71,3.35,1.87,4.51
		c1.15,1.15,2.75,1.87,4.51,1.87C555.12,299.21,556.71,298.5,557.86,297.35z M544.56,317.95c1.22-1.22,1.97-2.9,1.97-4.76
		c0-1.86-0.76-3.54-1.97-4.76c-1.22-1.22-2.9-1.97-4.76-1.97c-1.86,0-3.54,0.76-4.76,1.97c-1.22,1.22-1.97,2.9-1.97,4.76
		c0,1.86,0.76,3.54,1.97,4.76c1.22,1.22,2.9,1.97,4.76,1.97C541.66,319.93,543.34,319.18,544.56,317.95z M527.43,335.41
		c1.28-1.28,2.08-3.05,2.08-5.01c0-1.95-0.8-3.73-2.08-5.01c-1.28-1.28-3.05-2.07-5.01-2.07c-1.95,0-3.73,0.79-5.01,2.07
		c-1.28,1.28-2.07,3.06-2.07,5.01c0,1.96,0.79,3.73,2.07,5.01c1.28,1.28,3.06,2.08,5.01,2.08
		C524.38,337.49,526.15,336.7,527.43,335.41z M507.2,349.03c1.35-1.34,2.18-3.21,2.18-5.26c0-2.05-0.83-3.91-2.18-5.26
		c-1.34-1.35-3.21-2.18-5.26-2.18c-2.05,0-3.91,0.83-5.26,2.18c-1.34,1.35-2.18,3.21-2.18,5.26c0,2.06,0.83,3.92,2.18,5.26
		c1.35,1.35,3.21,2.18,5.26,2.18C503.99,351.21,505.85,350.38,507.2,349.03z M484.71,358.3c1.41-1.41,2.28-3.36,2.28-5.51
		c0-2.16-0.87-4.1-2.28-5.51c-1.41-1.41-3.36-2.28-5.51-2.28c-2.16,0-4.1,0.87-5.51,2.28c-1.41,1.41-2.28,3.36-2.28,5.51
		c0,2.15,0.87,4.1,2.28,5.51c1.41,1.41,3.36,2.28,5.51,2.28C481.35,360.58,483.3,359.71,484.71,358.3z M460.86,362.79
		c1.48-1.47,2.39-3.51,2.39-5.76c0-2.25-0.91-4.29-2.39-5.77c-1.47-1.47-3.51-2.39-5.76-2.39c-2.25,0-4.28,0.91-5.76,2.39
		c-1.47,1.47-2.39,3.51-2.39,5.77c0,2.24,0.91,4.28,2.39,5.76c1.48,1.48,3.51,2.39,5.76,2.39
		C457.36,365.17,459.39,364.27,460.86,362.79z M436.67,362.35c1.54-1.54,2.49-3.66,2.49-6.01c0-2.35-0.95-4.47-2.49-6.01
		c-1.54-1.54-3.67-2.49-6.01-2.49c-2.35,0-4.47,0.95-6.01,2.49c-1.54,1.54-2.49,3.66-2.49,6.01c0,2.35,0.95,4.47,2.49,6.01
		c1.54,1.54,3.66,2.49,6.01,2.49C433,364.85,435.12,363.89,436.67,362.35z M413.09,357.06c1.6-1.6,2.59-3.82,2.59-6.27
		c0-2.44-0.99-4.66-2.59-6.26c-1.6-1.6-3.82-2.59-6.27-2.59c-2.44,0-4.66,0.99-6.26,2.59c-1.6,1.6-2.59,3.82-2.59,6.26
		c0,2.45,0.99,4.66,2.59,6.27c1.6,1.6,3.82,2.59,6.26,2.59C409.27,359.66,411.49,358.66,413.09,357.06z M378.8,306.19
		c0.08-0.08,0.13-0.19,0.13-0.31c0-0.12-0.05-0.23-0.13-0.32s-0.19-0.13-0.32-0.13c-0.12,0-0.23,0.05-0.31,0.13
		c-0.08,0.08-0.13,0.19-0.13,0.32c0,0.12,0.05,0.23,0.13,0.31c0.08,0.08,0.19,0.13,0.31,0.13
		C378.6,306.32,378.72,306.27,378.8,306.19z M363.91,287.37c0.16-0.16,0.26-0.38,0.26-0.63c0-0.25-0.1-0.47-0.26-0.63
		c-0.16-0.16-0.38-0.26-0.63-0.26c-0.24,0-0.47,0.1-0.63,0.26c-0.16,0.16-0.26,0.38-0.26,0.63c0,0.24,0.1,0.47,0.26,0.63
		c0.16,0.16,0.38,0.26,0.63,0.26C363.53,287.62,363.75,287.52,363.91,287.37z M354.29,265.35c0.24-0.24,0.39-0.58,0.39-0.94
		s-0.15-0.7-0.39-0.94c-0.24-0.24-0.57-0.39-0.94-0.39s-0.7,0.15-0.94,0.39c-0.24,0.24-0.39,0.58-0.39,0.94s0.15,0.7,0.39,0.94
		c0.24,0.24,0.58,0.39,0.94,0.39S354.06,265.59,354.29,265.35z M350.62,241.56c0.32-0.32,0.52-0.77,0.52-1.26
		c0-0.49-0.2-0.93-0.52-1.25c-0.32-0.32-0.77-0.52-1.26-0.52c-0.49,0-0.93,0.2-1.25,0.52c-0.32,0.32-0.52,0.76-0.52,1.25
		c0,0.49,0.2,0.93,0.52,1.26c0.32,0.32,0.76,0.52,1.25,0.52C349.85,242.07,350.29,241.88,350.62,241.56z M353.07,217.52
		c0.41-0.4,0.65-0.96,0.65-1.57c0-0.61-0.25-1.17-0.65-1.57c-0.4-0.4-0.95-0.65-1.57-0.65c-0.61,0-1.17,0.25-1.57,0.65
		c-0.4,0.4-0.65,0.96-0.65,1.57c0,0.61,0.25,1.17,0.65,1.57c0.4,0.4,0.96,0.65,1.57,0.65C352.11,218.17,352.67,217.92,353.07,217.52
		z M361.57,194.81c0.48-0.48,0.78-1.15,0.78-1.88c0-0.74-0.3-1.4-0.78-1.88c-0.48-0.48-1.14-0.78-1.88-0.78
		c-0.73,0-1.4,0.3-1.88,0.78c-0.48,0.48-0.78,1.14-0.78,1.88c0,0.73,0.3,1.4,0.78,1.88s1.15,0.78,1.88,0.78
		C360.42,195.59,361.09,195.29,361.57,194.81z M375.58,174.88c0.56-0.56,0.91-1.34,0.91-2.2s-0.35-1.63-0.91-2.2
		c-0.56-0.56-1.34-0.91-2.2-0.91s-1.63,0.35-2.2,0.91c-0.56,0.56-0.91,1.34-0.91,2.2s0.35,1.63,0.91,2.2
		c0.56,0.56,1.34,0.91,2.2,0.91S375.02,175.44,375.58,174.88z M394.18,158.99c0.64-0.64,1.04-1.53,1.04-2.51
		c0-0.98-0.4-1.87-1.04-2.51c-0.64-0.64-1.53-1.04-2.51-1.04c-0.98,0-1.87,0.4-2.51,1.04c-0.64,0.64-1.04,1.53-1.04,2.51
		c0,0.98,0.4,1.87,1.04,2.51c0.64,0.64,1.53,1.04,2.51,1.04C392.65,160.03,393.54,159.63,394.18,158.99z M416.25,148.16
		c0.73-0.73,1.17-1.72,1.17-2.83c0-1.11-0.45-2.1-1.17-2.83c-0.72-0.73-1.72-1.17-2.83-1.17c-1.1,0-2.1,0.44-2.82,1.17
		c-0.73,0.73-1.17,1.72-1.17,2.83c0,1.1,0.45,2.1,1.17,2.83c0.72,0.72,1.72,1.17,2.82,1.17
		C414.53,149.33,415.53,148.88,416.25,148.16z M440.41,143.16c0.81-0.8,1.3-1.92,1.3-3.14s-0.5-2.33-1.3-3.14
		c-0.8-0.8-1.91-1.3-3.14-1.3s-2.33,0.5-3.14,1.3s-1.3,1.91-1.3,3.14s0.5,2.34,1.3,3.14c0.8,0.8,1.91,1.3,3.14,1.3
		S439.61,143.97,440.41,143.16z M465.16,144.29c0.88-0.88,1.43-2.11,1.43-3.45c0-1.35-0.55-2.57-1.43-3.45
		c-0.88-0.88-2.11-1.43-3.45-1.43c-1.35,0-2.57,0.55-3.45,1.43s-1.43,2.1-1.43,3.45c0,1.34,0.55,2.57,1.43,3.45s2.1,1.43,3.45,1.43
		C463.05,145.72,464.27,145.17,465.16,144.29z M488.92,151.51c0.96-0.96,1.56-2.3,1.56-3.77c0-1.47-0.6-2.8-1.56-3.76
		c-0.97-0.96-2.3-1.56-3.77-1.56c-1.47,0-2.8,0.59-3.77,1.56c-0.96,0.96-1.56,2.3-1.56,3.76c0,1.47,0.59,2.8,1.56,3.77
		c0.97,0.96,2.3,1.56,3.77,1.56C486.62,153.07,487.95,152.48,488.92,151.51z M510.18,164.4c1.05-1.05,1.69-2.49,1.69-4.08
		c0-1.59-0.64-3.03-1.69-4.08c-1.04-1.05-2.48-1.69-4.08-1.69c-1.6,0-3.04,0.64-4.08,1.69c-1.05,1.05-1.69,2.49-1.69,4.08
		c0,1.59,0.65,3.03,1.69,4.08c1.04,1.04,2.48,1.69,4.08,1.69C507.7,166.09,509.14,165.44,510.18,164.4z M527.67,182.1
		c1.12-1.12,1.82-2.68,1.82-4.39s-0.7-3.27-1.82-4.4c-1.13-1.12-2.68-1.82-4.4-1.82s-3.27,0.7-4.4,1.82
		c-1.12,1.13-1.82,2.68-1.82,4.4s0.7,3.27,1.82,4.39c1.13,1.13,2.68,1.82,4.4,1.82S526.55,183.22,527.67,182.1z M540.3,203.52
		c1.2-1.2,1.95-2.87,1.95-4.71s-0.75-3.5-1.95-4.71c-1.21-1.2-2.87-1.95-4.71-1.95c-1.84,0-3.5,0.75-4.71,1.95
		c-1.21,1.21-1.95,2.87-1.95,4.71s0.74,3.5,1.95,4.71c1.2,1.21,2.87,1.95,4.71,1.95C537.43,205.47,539.09,204.73,540.3,203.52z
		 M547.23,227.35c1.28-1.28,2.08-3.06,2.08-5.02c0-1.96-0.8-3.73-2.08-5.02c-1.28-1.28-3.06-2.08-5.02-2.08
		c-1.96,0-3.74,0.79-5.02,2.08c-1.28,1.29-2.08,3.06-2.08,5.02c0,1.96,0.79,3.74,2.08,5.02c1.28,1.29,3.06,2.08,5.02,2.08
		C544.16,229.43,545.94,228.64,547.23,227.35z M548.06,252.11c1.36-1.36,2.21-3.25,2.21-5.33s-0.85-3.97-2.21-5.33
		c-1.37-1.37-3.25-2.21-5.34-2.21c-2.08,0-3.97,0.85-5.33,2.21s-2.21,3.25-2.21,5.33s0.84,3.97,2.21,5.33
		c1.37,1.37,3.25,2.21,5.33,2.21C544.81,254.32,546.69,253.48,548.06,252.11z M542.76,276.21c1.45-1.44,2.34-3.44,2.34-5.65
		c0-2.21-0.89-4.2-2.34-5.65c-1.44-1.45-3.44-2.34-5.65-2.34c-2.21,0-4.2,0.89-5.65,2.34c-1.44,1.45-2.34,3.44-2.34,5.65
		c0,2.2,0.9,4.2,2.34,5.65c1.45,1.45,3.45,2.34,5.65,2.34C539.32,278.55,541.32,277.65,542.76,276.21z M531.66,298.13
		c1.53-1.53,2.47-3.64,2.47-5.96c0-2.33-0.94-4.44-2.47-5.97c-1.52-1.52-3.63-2.47-5.96-2.47s-4.44,0.94-5.96,2.47
		c-1.53,1.53-2.47,3.64-2.47,5.97c0,2.33,0.94,4.43,2.47,5.96c1.52,1.53,3.63,2.47,5.96,2.47S530.14,299.66,531.66,298.13z
		 M515.55,316.54c1.6-1.6,2.6-3.82,2.6-6.27c0-2.45-0.99-4.67-2.6-6.28c-1.6-1.6-3.82-2.6-6.28-2.6s-4.67,0.99-6.28,2.6
		c-1.6,1.61-2.6,3.82-2.6,6.28c0,2.45,0.99,4.67,2.6,6.27c1.61,1.61,3.82,2.6,6.28,2.6S513.94,318.15,515.55,316.54z M460.92,308.37
		c0.1-0.11,0.17-0.26,0.17-0.42c0-0.16-0.07-0.31-0.17-0.42c-0.11-0.11-0.26-0.17-0.42-0.17c-0.16,0-0.31,0.07-0.42,0.17
		c-0.11,0.11-0.17,0.26-0.17,0.42c0,0.17,0.06,0.32,0.17,0.42c0.11,0.11,0.26,0.17,0.42,0.17
		C460.67,308.54,460.81,308.48,460.92,308.37z M436.96,309.28c0.21-0.22,0.35-0.51,0.35-0.84c0-0.33-0.13-0.62-0.35-0.84
		c-0.21-0.21-0.51-0.35-0.84-0.35c-0.33,0-0.62,0.13-0.84,0.35c-0.21,0.22-0.35,0.51-0.35,0.84c0,0.33,0.13,0.62,0.35,0.84
		c0.22,0.22,0.51,0.35,0.84,0.35C436.44,309.63,436.74,309.5,436.96,309.28z M414.22,302.04c0.32-0.32,0.52-0.77,0.52-1.26
		c0-0.5-0.2-0.94-0.52-1.26c-0.32-0.32-0.77-0.52-1.26-0.52c-0.5,0-0.94,0.2-1.26,0.52c-0.32,0.32-0.52,0.77-0.52,1.26
		c0,0.49,0.2,0.93,0.52,1.26c0.32,0.32,0.77,0.52,1.26,0.52C413.45,302.56,413.9,302.37,414.22,302.04z M395.33,287.56
		c0.43-0.43,0.7-1.02,0.7-1.68c0-0.66-0.27-1.25-0.7-1.68c-0.43-0.43-1.02-0.7-1.68-0.7s-1.25,0.26-1.68,0.7
		c-0.43,0.43-0.7,1.02-0.7,1.68c0,0.66,0.26,1.25,0.7,1.68c0.43,0.44,1.02,0.7,1.68,0.7S394.9,288,395.33,287.56z M382.51,267.5
		c0.54-0.54,0.87-1.28,0.87-2.1c0-0.82-0.33-1.56-0.87-2.1s-1.28-0.87-2.1-0.87c-0.82,0-1.56,0.33-2.1,0.87s-0.87,1.28-0.87,2.1
		c0,0.82,0.33,1.56,0.87,2.1s1.28,0.87,2.1,0.87C381.23,268.37,381.97,268.04,382.51,267.5z M377.2,244.21
		c0.64-0.64,1.05-1.54,1.05-2.52c0-0.98-0.4-1.87-1.05-2.52c-0.64-0.64-1.54-1.04-2.52-1.04c-0.99,0-1.88,0.4-2.52,1.04
		s-1.05,1.54-1.05,2.52c0,0.99,0.4,1.88,1.05,2.52c0.64,0.64,1.54,1.05,2.52,1.05C375.66,245.26,376.55,244.86,377.2,244.21z
		 M380.05,220.37c0.75-0.76,1.22-1.79,1.22-2.94c0-1.15-0.47-2.19-1.22-2.94c-0.76-0.75-1.79-1.22-2.94-1.22
		c-1.15,0-2.19,0.47-2.94,1.22c-0.75,0.76-1.22,1.8-1.22,2.94c0,1.15,0.47,2.19,1.22,2.94c0.76,0.75,1.8,1.22,2.94,1.22
		C378.26,221.59,379.3,221.12,380.05,220.37z M390.85,198.71c0.86-0.86,1.4-2.05,1.4-3.36c0-1.31-0.53-2.5-1.4-3.36
		c-0.86-0.86-2.04-1.39-3.36-1.39c-1.31,0-2.5,0.53-3.36,1.39c-0.86,0.86-1.4,2.05-1.4,3.36c0,1.31,0.53,2.5,1.4,3.36
		c0.86,0.86,2.05,1.39,3.36,1.39C388.8,200.11,389.99,199.58,390.85,198.71z M408.38,181.75c0.97-0.96,1.57-2.3,1.57-3.78
		c0-1.47-0.6-2.81-1.57-3.78c-0.96-0.97-2.3-1.57-3.78-1.57c-1.47,0-2.81,0.6-3.78,1.57c-0.97,0.96-1.57,2.3-1.57,3.78
		c0,1.48,0.6,2.82,1.57,3.78c0.96,0.97,2.3,1.57,3.78,1.57C406.07,183.32,407.41,182.72,408.38,181.75z M430.72,171.48
		c1.08-1.08,1.74-2.56,1.74-4.2c0-1.64-0.66-3.13-1.74-4.2c-1.08-1.08-2.56-1.74-4.2-1.74c-1.64,0-3.12,0.66-4.2,1.74
		c-1.08,1.08-1.74,2.56-1.74,4.2c0,1.64,0.66,3.12,1.74,4.2c1.08,1.08,2.56,1.74,4.2,1.74
		C428.16,173.22,429.64,172.55,430.72,171.48z M455.36,169.03c1.18-1.19,1.91-2.82,1.91-4.62c0-1.81-0.73-3.44-1.91-4.62
		c-1.18-1.18-2.82-1.91-4.62-1.91c-1.81,0-3.44,0.73-4.62,1.91c-1.18,1.18-1.91,2.82-1.91,4.62c0,1.81,0.73,3.44,1.91,4.62
		c1.18,1.18,2.82,1.91,4.62,1.91C452.55,170.94,454.18,170.2,455.36,169.03z M479.57,174.78c1.29-1.29,2.09-3.07,2.09-5.04
		c0-1.97-0.8-3.75-2.09-5.04c-1.29-1.29-3.08-2.09-5.04-2.09s-3.75,0.8-5.04,2.09c-1.29,1.29-2.09,3.07-2.09,5.04
		c0,1.97,0.8,3.75,2.09,5.04c1.29,1.29,3.07,2.09,5.04,2.09S478.29,176.07,479.57,174.78z M500.67,188.13
		c1.4-1.4,2.26-3.33,2.26-5.46s-0.87-4.06-2.26-5.46c-1.4-1.4-3.33-2.27-5.46-2.27c-2.13,0-4.06,0.87-5.46,2.27
		c-1.4,1.4-2.26,3.32-2.26,5.46s0.86,4.06,2.26,5.46c1.4,1.4,3.33,2.26,5.46,2.26C497.34,190.4,499.27,189.53,500.67,188.13z
		 M516.28,207.63c1.51-1.51,2.44-3.59,2.44-5.88s-0.93-4.37-2.44-5.88c-1.5-1.51-3.58-2.44-5.88-2.44c-2.3,0-4.38,0.93-5.89,2.44
		c-1.5,1.51-2.43,3.59-2.43,5.88s0.93,4.37,2.43,5.88c1.51,1.51,3.59,2.44,5.89,2.44C512.7,210.07,514.78,209.14,516.28,207.63z
		 M524.72,231.09c1.61-1.61,2.61-3.84,2.61-6.3c0-2.46-1-4.69-2.61-6.3c-1.61-1.61-3.84-2.61-6.3-2.61c-2.46,0-4.69,1-6.3,2.61
		c-1.61,1.61-2.61,3.84-2.61,6.3c0,2.46,1,4.69,2.61,6.3c1.61,1.61,3.84,2.61,6.3,2.61C520.88,233.7,523.11,232.7,524.72,231.09z
		 M490.04,260.19c0.17-0.16,0.26-0.39,0.26-0.63c0-0.25-0.1-0.48-0.26-0.64c-0.16-0.17-0.38-0.26-0.63-0.26s-0.47,0.1-0.64,0.26
		c-0.16,0.16-0.26,0.38-0.26,0.64c0,0.24,0.1,0.47,0.26,0.63s0.39,0.26,0.64,0.26S489.89,260.36,490.04,260.19z M473.95,278.36
		c0.32-0.32,0.53-0.77,0.53-1.27c0-0.5-0.2-0.94-0.53-1.27c-0.32-0.32-0.77-0.52-1.27-0.52c-0.5,0-0.95,0.2-1.27,0.52
		c-0.32,0.33-0.52,0.77-0.52,1.27c0,0.5,0.2,0.94,0.52,1.27c0.32,0.33,0.78,0.53,1.27,0.53
		C473.18,278.89,473.63,278.69,473.95,278.36z M451.42,286.1c0.49-0.49,0.79-1.16,0.79-1.91c0-0.74-0.3-1.42-0.79-1.9
		c-0.49-0.49-1.16-0.79-1.9-0.79c-0.75,0-1.42,0.3-1.91,0.79c-0.49,0.49-0.79,1.16-0.79,1.9c0,0.75,0.3,1.42,0.79,1.91
		c0.49,0.49,1.16,0.79,1.91,0.79C450.25,286.89,450.93,286.59,451.42,286.1z M428.36,281.61c0.65-0.65,1.05-1.55,1.05-2.54
		c0-0.99-0.4-1.89-1.05-2.54c-0.65-0.65-1.54-1.05-2.54-1.05c-0.99,0-1.89,0.4-2.54,1.05c-0.65,0.65-1.05,1.55-1.05,2.54
		c0,0.99,0.41,1.89,1.05,2.54c0.65,0.65,1.55,1.05,2.54,1.05C426.81,282.66,427.71,282.25,428.36,281.61z M410.82,266.2
		c0.82-0.82,1.32-1.94,1.32-3.18c0-1.24-0.5-2.36-1.32-3.18c-0.81-0.82-1.93-1.32-3.17-1.32c-1.24,0-2.37,0.5-3.18,1.32
		c-0.81,0.81-1.31,1.93-1.31,3.18c0,1.24,0.5,2.36,1.31,3.18c0.81,0.81,1.94,1.31,3.18,1.31
		C408.89,267.51,410.01,267.01,410.82,266.2z M403.47,243.95c0.97-0.97,1.58-2.32,1.58-3.81c0-1.49-0.61-2.84-1.58-3.82
		c-0.98-0.97-2.32-1.57-3.81-1.57s-2.83,0.6-3.81,1.57c-0.97,0.98-1.58,2.33-1.58,3.82c0,1.49,0.61,2.83,1.58,3.81
		c0.98,0.98,2.32,1.58,3.81,1.58S402.49,244.93,403.47,243.95z M408.33,220.72c1.14-1.14,1.84-2.71,1.84-4.45
		c0-1.73-0.7-3.31-1.84-4.45c-1.14-1.14-2.71-1.84-4.45-1.84c-1.73,0-3.3,0.7-4.44,1.84c-1.14,1.14-1.84,2.71-1.84,4.45
		c0,1.74,0.7,3.31,1.84,4.45s2.71,1.84,4.44,1.84C405.62,222.56,407.19,221.85,408.33,220.72z M424.29,202.58
		c1.3-1.3,2.1-3.1,2.1-5.08s-0.81-3.78-2.1-5.08c-1.3-1.3-3.1-2.11-5.08-2.11c-1.98,0-3.78,0.81-5.08,2.11
		c-1.3,1.3-2.1,3.09-2.1,5.08s0.8,3.78,2.1,5.08c1.3,1.3,3.1,2.1,5.08,2.1C421.19,204.68,422.99,203.88,424.29,202.58z
		 M447.49,194.34c1.47-1.46,2.37-3.49,2.37-5.71c0-2.23-0.9-4.26-2.37-5.72c-1.46-1.46-3.48-2.37-5.71-2.37
		c-2.23,0-4.25,0.9-5.71,2.37c-1.46,1.46-2.37,3.49-2.37,5.72c0,2.23,0.9,4.25,2.37,5.71c1.46,1.46,3.48,2.37,5.71,2.37
		C444.01,196.71,446.03,195.81,447.49,194.34z M472.14,198.29c1.63-1.63,2.63-3.87,2.63-6.35c0-2.48-1-4.72-2.63-6.35
		s-3.87-2.63-6.35-2.63s-4.73,1.01-6.35,2.63s-2.63,3.87-2.63,6.35c0,2.48,1,4.73,2.63,6.35s3.88,2.63,6.35,2.63
		S470.52,199.92,472.14,198.29z"/>
	<g>
		<g>
			<path class="st2" d="M572.08,277.55c-1.46-1.47-2.83-3.03-4.12-4.64c-0.89,0.26-1.79,0.48-2.68,0.64
				c-1.16,0.21-2.32,0.36-3.47,0.47c-0.56,0.05-1.11,0.1-1.67,0.14c-0.61,0.05-1.22,0.14-1.84,0.28c-1.17,0.26-2.31,0.69-3.39,1.18
				c-0.38,0.17-0.74,0.37-1.11,0.55c-4.44,4.25-8.67,8.6-12.53,12.99c-3.39,3.85-6.61,7.82-9.57,11.8l-0.67,0.9l1.11,0.3
				c3.07,0.81,6.39,1.38,9.87,1.68c2.91,0.25,5.97,0.31,9.08,0.18l1.67-0.07l0.2-1.14c0.76-4.32,1.9-8.72,3.4-13.08
				c0.98-2.84,2.16-5.7,3.46-8.55c0.24,1.49,0.47,3,0.79,4.44c0.74,3.38,1.7,6.71,2.86,9.91l0.26,0.73l1.06-0.49
				c2.91-1.36,5.8-2.96,8.58-4.75c2.32-1.5,4.6-3.15,6.76-4.91l1.15-0.94l-0.8-0.56C577.46,282.46,574.62,280.09,572.08,277.55z"/>
		</g>
		<g>
			<path class="st2" d="M663.02,241.24c-0.25-2.29-0.96-6.21-3.39-5.95c-28.44,6.38-58.15,12.01-86.79,17.46
				c-0.01,0.02,0,0.05-0.03,0.06l-0.27,0.09c-0.71,0.24-1.43,0.48-2.17,0.63c-0.74,0.15-1.49,0.22-2.24,0.11
				c-0.38-0.05-0.75-0.16-1.12-0.28c-0.33-0.11-0.67-0.22-1.01-0.32c-0.71-0.21-1.43-0.38-2.16-0.49c-0.47-0.07-0.94-0.09-1.42-0.09
				l-5.08,0.92c-10.23,1.85-21.25,4.07-31.47,5.93c-0.47,0.08-0.95,0.17-1.44,0.26c-0.45,0.08-0.88,0.25-1.26,0.5
				c-2.32,0.35-4.64,0.7-6.94,1.05l-0.62,1.84l0.7,2.24c-21.37,3.58-182.61,27.64-305.46,28l-0.27,0.04
				c-0.15-0.12-0.42-0.08-0.69-0.04c-1.2,8.23-2.18,17.11-0.39,25.21c0.27-0.04,0.56,0.06,0.96,0.01l0.4-0.06
				c51.41-1.65,103.01-4.95,154.64-9.7c-0.14,0.05-0.29,0.11-0.43,0.16c2.25-0.24,4.5-0.5,6.75-0.74c0.9-0.08,1.8-0.16,2.7-0.25
				c0.06-0.02,0.13-0.05,0.19-0.07c49.77-5.44,99.51-12.19,149.06-20.17c0.13,0.83,0.56,1.59,1.25,2.1c0.73,0.54,1.67,0.76,2.59,0.6
				l40.68-7.25c0.76-0.13,1.45-0.52,1.96-1.1c0.58-0.67,0.85-1.52,0.78-2.38c30.07-5.33,60.07-11.05,89.94-17.25
				c2.42-0.27,4.1-2.36,3.83-4.78C664.22,252.14,663.61,246.62,663.02,241.24z"/>
		</g>
	</g>
	<g>
		<path class="st3" d="M348.81,236.41c-35.58,0-69.69-0.87-104.29-2.65l-1.68-0.09l0.01,0.04c-0.62-0.04-3.95-0.24-5-0.3
			c-1.57-0.09-5.16-0.27-5.16-0.27c-2.35-0.12-4.69-0.23-7.07-0.38l-0.38-0.11l-0.12-0.01c-16.34-0.96-32.5-2.06-48.01-3.27
			c-32.72-2.55-64.28-5.72-93.79-9.42c-12.83-4.22-22.52-11.3-28-20.52l17.48,1.78c21.46,2.31,43.61,4.36,65.84,6.09
			c31.86,2.49,64.98,4.41,98.44,5.72c32.95,1.32,66.53,2,99.8,2c51.71,0,103.94-1.62,155.26-4.8c0.24,0.54,0.45,1.15,0.65,1.89
			c0.56,2.01,0.84,4.09,1.04,5.86c0.08,0.74,0.16,1.49,0.23,2.24l0.07,0.71c0.05,0.46,0.09,0.87,0.11,1.27
			c0.03,0.61,0.04,1.26,0.02,1.92c-0.07,2.55-0.5,5.06-1.01,7.86l-0.06,0.31C440.07,235.06,392.83,236.41,348.81,236.41
			C348.81,236.41,348.81,236.41,348.81,236.41z"/>
		<g>
			<path d="M177.01,230.46c-32.73-2.55-64.3-5.72-93.84-9.42c-14.11-4.62-24.42-12.53-29.81-22.88l19.54,1.99
				c21.45,2.31,43.6,4.36,65.81,6.09c31.86,2.49,64.96,4.41,98.39,5.72c84.74,3.41,170.76,2.45,255.67-2.85
				c0.02,0.04,0.05,0.07,0.07,0.11c0.37,0.72,0.68,1.55,0.97,2.61c0.58,2.08,0.87,4.21,1.07,6.02c0.09,0.75,0.16,1.5,0.23,2.26
				l0.07,0.71c0.05,0.44,0.09,0.88,0.12,1.33c0.03,0.64,0.04,1.32,0.02,2.01c-0.07,2.62-0.51,5.18-1.03,8.02l-0.2,1.15
				c-95.63,5.01-172.63,5.48-249.63,1.52l-0.37-0.02l0.01,0.04c-1.06-0.06-2.12-0.12-3.18-0.19c-1.04-0.07-2.09-0.13-3.14-0.19
				c-1.73-0.1-3.44-0.18-5.16-0.26c-2.39-0.12-4.78-0.24-7.19-0.38l-0.38-0.11C208.73,232.78,192.57,231.67,177.01,230.46z
				 M59.06,202.08c5.53,7.14,13.83,12.58,24.66,16.15c32.64,4.06,65.98,7.42,99.16,10.01c19.16,1.5,38.67,2.76,58,3.77
				c80.97,3.49,165.28,3.03,250.59-1.37l0.24-0.01l0.04-0.24c0.36-2.01,0.69-4.17,0.75-6.32c0.02-0.59,0.01-1.19-0.02-1.78
				c-0.02-0.39-0.06-0.77-0.1-1.16l0,0c0,0-0.22-2.19-0.31-2.96c-0.2-1.71-0.47-3.71-0.99-5.59l-0.16-0.54l-0.24,0.01
				c-81.24,4.99-164,5.98-245.96,2.92l-0.43-0.02l0.02,0.05c-5.55-0.21-11.08-0.44-16.61-0.68l-0.21-0.01
				c-31.4-1.35-62.09-3.18-91.21-5.46c-21.85-1.71-43.27-3.69-63.67-5.91l-13.99-1.44L59.06,202.08z"/>
		</g>
		<g>
			<path d="M139.29,215.14c-19.86-1.55-39.99-3.37-59.83-5.41l-0.18-0.11c-0.48-0.32-0.94-0.65-1.39-0.99
				c-0.46-0.36-0.91-0.73-1.35-1.11c-0.09-0.07-0.17-0.15-0.26-0.22c20.67,2.16,41.65,4.07,62.37,5.69
				c29.27,2.28,59.06,4.06,88.57,5.27l0.29,0.01l0,0l4.86,0.2c3.39,0.14,6.78,0.28,10.18,0.39l0.28,0.03
				c73.02,2.74,148.08,2.14,223.11-1.78c0.09,0.52,0.14,1.06,0.18,1.58c0,0,0.04,0.42,0.05,0.56c-74.99,3.91-150.02,4.5-223.03,1.77
				l-0.37-0.01l0,0l-2.22-0.09C206.99,219.71,172.93,217.77,139.29,215.14C139.29,215.14,139.29,215.15,139.29,215.14z"/>
		</g>
		<g>
			<path class="st4" d="M490.72,211.08c-6.28,0.32-13.29,1.35-19.56,1.67c1.12,4.92,2.02,13.97,2.06,18.87
				c5.67-0.34,13.79-0.56,19.46-0.9c-0.02-6.27-0.91-12.7-2.19-17.16L490.72,211.08z"/>
		</g>
		<g>
			<path class="st4" d="M495.06,249.11c-2.61,0.25-5.83-6.24-7.93-15.47c1.38-0.12,3.07-0.55,4.6-0.67
				c1.31-3.95-0.63-20.66-3.93-23.34c-1.23,0.13-2.3,0.1-3.52,0.23c-0.24-9.95,1.29-17.41,3.9-17.81
				C496.92,191.03,503.8,247.92,495.06,249.11L495.06,249.11z"/>
		</g>
		<g>
			<path class="st5" d="M475.52,229.45c2.74,0.16,5.5,0.32,8.26,0.62c-2.9,0.41-5.81,0.56-8.74,0.49l-0.38-0.01l0,0
				c0.19-2.74-0.94-10.88-1.02-13.26C474.36,219.36,475.73,227.65,475.52,229.45z"/>
		</g>
		<g>
			<g>
				<path class="st4" d="M841.94,172.17c-66.07,11.09-235.69,29.95-349.88,38.08v22.43c97.74-5.08,286.98-25.25,354.14-35.51
					C848.01,188.22,847.09,179.76,841.94,172.17z"/>
			</g>
		</g>
		<g>
			<g>
				<path class="st6" d="M836.46,173.56l-2.59,0.36c1.7,3.3,3,6.73,3.6,10.42c0.74,3.96,0.78,8.46,0,13.34l2.46-0.36
					c0.78-4.89,0.73-9.24,0-13.34C839.32,180.29,838.03,176.86,836.46,173.56L836.46,173.56z"/>
			</g>
		</g>
		<g>
			<g>
				<polygon class="st6" points="506.33,227.87 510.32,221.33 504.83,213.52 501.23,221.16 				"/>
			</g>
		</g>
		<g>
			<g>
				<polygon class="st6" points="516.95,227.14 520.94,220.47 515.45,212.65 511.85,220.3 				"/>
			</g>
		</g>
		<g>
			<g>
				<polygon class="st6" points="527.57,226.27 531.56,219.6 526.07,211.79 522.48,219.43 				"/>
			</g>
		</g>
		<g>
			<g>
				<polygon class="st6" points="538.19,225.41 542.18,218.87 536.69,211.06 533.1,218.56 				"/>
			</g>
		</g>
		<g>
			<g>
				<polygon class="st6" points="548.81,224.54 552.8,218 547.31,210.19 543.72,217.69 				"/>
			</g>
		</g>
		<g>
			<g>
				<polygon class="st6" points="559.43,223.67 563.42,217.13 557.93,209.32 554.34,216.96 				"/>
			</g>
		</g>
		<g>
			<g>
				<polygon class="st6" points="570.88,222.7 574.87,216.16 569.38,208.35 565.79,215.99 				"/>
			</g>
		</g>
		<g>
			<g>
				<polygon class="st6" points="582.33,221.86 586.32,215.18 580.83,207.37 577.23,215.01 				"/>
			</g>
		</g>
		<g>
			<g>
				<polygon class="st6" points="593.92,220.89 597.77,214.21 592.28,206.4 588.68,214.04 				"/>
			</g>
		</g>
		<g>
			<g>
				<polygon class="st6" points="605.37,219.91 609.22,213.23 603.73,205.56 600.14,213.06 				"/>
			</g>
		</g>
		<g>
			<g>
				<polygon class="st6" points="616.82,218.94 620.67,212.39 615.18,204.58 611.58,212.09 				"/>
			</g>
		</g>
		<g>
			<g>
				<polygon class="st6" points="628.27,217.96 632.12,211.42 626.63,203.61 623.03,211.11 				"/>
			</g>
		</g>
		<g>
			<g>
				<polygon class="st6" points="638.9,216.41 642.89,209.88 637.26,202.06 633.67,209.56 				"/>
			</g>
		</g>
		<g>
			<g>
				<polygon class="st6" points="649.54,214.87 653.53,208.19 648.04,200.38 644.44,208.02 				"/>
			</g>
		</g>
		<g>
			<g>
				<polygon class="st6" points="660.29,214.14 664.14,207.6 658.65,199.79 655.06,207.29 				"/>
			</g>
		</g>
		<g>
			<g>
				<polygon class="st6" points="671.1,213.27 674.95,206.59 669.46,198.92 665.86,206.42 				"/>
			</g>
		</g>
		<g>
			<g>
				<polygon class="st6" points="681.62,212.09 685.23,205.33 679.32,197.66 676.14,205.38 				"/>
			</g>
		</g>
		<g>
			<g>
				<polygon class="st6" points="692.05,211.24 695.67,204.47 689.75,196.8 686.58,204.53 				"/>
			</g>
		</g>
		<g>
			<g>
				<polygon class="st6" points="702.81,210.19 706.43,203.56 700.51,195.89 697.34,203.48 				"/>
			</g>
		</g>
		<g>
			<g>
				<polygon class="st6" points="713.21,208.96 716.84,202.33 710.92,194.66 707.74,202.25 				"/>
			</g>
		</g>
		<g>
			<g>
				<polygon class="st6" points="724.23,207.76 727.86,201.13 721.94,193.46 718.77,201.19 				"/>
			</g>
		</g>
		<g>
			<g>
				<polygon class="st6" points="735.62,206.55 739.24,199.92 733.32,192.25 730.15,199.98 				"/>
			</g>
		</g>
		<g>
			<g>
				<polygon class="st6" points="746.53,205.64 750.15,198.87 744.23,191.2 741.06,198.92 				"/>
			</g>
		</g>
		<g>
			<g>
				<polygon class="st6" points="757.98,203.7 761.46,196.93 755.54,189.26 752.37,196.99 				"/>
			</g>
		</g>
		<g>
			<g>
				<polygon class="st6" points="769.34,202.53 772.82,195.76 766.91,188.23 763.73,195.82 				"/>
			</g>
		</g>
		<g>
			<g>
				<polygon class="st6" points="780.68,200.66 784.16,194.03 778.25,186.36 775.07,193.95 				"/>
			</g>
		</g>
		<g>
			<g>
				<polygon class="st6" points="792.07,199.4 795.55,192.77 789.63,185.1 786.46,192.69 				"/>
			</g>
		</g>
		<g>
			<g>
				<polygon class="st6" points="802.61,197.59 806.24,190.96 800.18,183.29 797,190.88 				"/>
			</g>
		</g>
		<g>
			<g>
				<polygon class="st6" points="813.16,195.78 816.78,189.01 810.86,181.34 807.69,189.07 				"/>
			</g>
		</g>
		<g>
			<g>
				<polygon class="st6" points="823.87,194.79 827.35,188.16 821.43,180.49 818.26,188.07 				"/>
			</g>
		</g>
	</g>
</g>
</svg>
