<?xml version="1.0" encoding="utf-8"?>
<!-- Generator: Adobe Illustrator 24.0.1, SVG Export Plug-In . SVG Version: 6.00 Build 0)  -->
<svg version="1.1" id="Layer_1" xmlns="http://www.w3.org/2000/svg" xmlns:xlink="http://www.w3.org/1999/xlink" x="0px" y="0px"
	 viewBox="0 0 891.39 456.79" style="enable-background:new 0 0 891.39 456.79;" xml:space="preserve">
<style type="text/css">
	.st0{opacity:0;fill:#FFFFFF;}
	.st1{fill:#3D68CC;}
	.st2{fill:#1C4399;}
	.st3{fill:#292929;}
	.st4{fill-rule:evenodd;clip-rule:evenodd;}
	.st5{fill-rule:evenodd;clip-rule:evenodd;fill:#FFFFFF;}
	.st6{fill-rule:evenodd;clip-rule:evenodd;fill:#FEFEFE;}
	.st7{fill:#F4F4F4;}
</style>
<g>
	<rect class="st0" width="891.39" height="456.79"/>
	<path class="st1" d="M592.69,183.37l0.12,1.98c-1.76-4.76-2.61-7.64-4.99-12.7c0.56,1.47,1.07,2.85,1.58,4.34l-0.14-0.31
		c-2.21-5.54-5.48-11.99-9.5-18.3c-4.01-7.16-9.16-14.74-15.46-22.11c-6.29-7.38-13.73-14.57-22.08-21.03
		c-0.55-0.42-1.11-0.83-1.66-1.25c-2.13-1.88-5.56-4.53-9.86-7.26c-1.74-1.18-3.84-2.49-5.11-3.34
		c-11.33-7.71-26.69-15.27-44.86-19.89c3.47,0.98,7.06,2.12,10.45,3.33c-5.12-1.68-10.26-3.13-16.17-4.27
		c0.6,0.24,1.37,0.51,1.97,0.76c-8.99-2.3-20.02-3.72-30.33-3.69c-10.32-0.02-19.86,1.33-26.06,2.91c-3.12,0.79-5.13,1.51-6.13,2.06
		c-1,0.55-0.98,0.92-0.03,1.1c1.91,0.38,7.56-0.11,16.58-0.46c0.79-0.03,1.58-0.03,2.37-0.05c-9.07,0.84-16.83,2.63-21.03,4.25
		c-2.26,0.89-0.1,0.95,0.49,1.3c-0.56,0.84,6.48-0.2,15.82-1.11c2.38-0.24,4.67-0.44,6.79-0.61c4.18-0.15,8.4-0.16,12.6,0.02
		c6.82,0.3,13.6,1.06,20.06,2.25c2.04,0.39,4.54,0.77,5.64,0.83c0.95,0.03,0.1-0.34-2.01-0.79c-7.42-1.64-14.75-2.73-22.1-3.3
		c-0.61,0.02-1.21,0.03-1.82,0.06c0.25-0.05,0.58-0.09,0.93-0.13c-0.71-0.05-1.42-0.09-2.13-0.13c0.55-0.02,1.1-0.05,1.67-0.06
		c0.55,0.03,1.09,0.06,1.63,0.09c0.95-0.06,2.08-0.08,3.32-0.08c3.71,0.27,7.4,0.68,11.04,1.22c9.34,1.38,18.37,3.65,26.7,6.59
		c0.67,0.24-0.56,0.17,0.66,0.67l1.89,0.78c-2.06-0.76-4.26-1.5-6.65-2.22c-4.58-1.08-7.77-1.63-10.11-2.03
		c-2.34-0.38-3.82-0.59-5.03-0.75l-0.04-0.01l-0.73-0.09c-1.12-0.14-2.1-0.26-3.52-0.41c0,0,0.01,0.01,0.01,0.03l-0.9-0.08
		c-1.38-0.22-2.76-0.43-4.15-0.6c-1.56-0.21-3.09-0.31-3.87-0.28c-0.54-0.13-1.12-0.25-1.85-0.39c-3.98-0.38-5.99-0.47-8.01-0.57
		c-2.03-0.08-4.08-0.17-8.19-0.14c0,0,0.02,0.08,0.29,0.18L434.56,90l-3.64,0.28c-1.34,0.11-3.26,0.24-7.07,0.68
		c0,0.01,0-0.03,3.71-0.15c0,0.01,0-0.02-3.25,0.18l0.88,0.23l-1.53-0.18l-1.34,0.47l-0.82,0.01c-0.81,0.02-2.43,0.05-5.67,0.23
		c-0.49,0.12-1.66,0.36-4.57,1.1c0,0-0.8,0.26-1.37,0.49c-0.04,0.11-0.05,0.1-2.45,1.04c0,0-0.03,0.13,0.24,0.19
		c0.79-0.07,0.79-0.07,1.05,0.19c0,0,0.88-0.09,2.16-0.26c1.21-0.2,1.52-0.29,6.01-0.94c-0.38,0.12-0.73,0.25-1.05,0.37
		c-0.38,0.37-0.56,0.55,0.07,0.68c0.63,0.13,2.08,0.19,4.95,0.43l8.16-0.43c2.91-0.23,4.37-0.29,5.94-0.37
		c1.57-0.06,3.25-0.13,6.62-0.14c0,0,1.46,0.01,3.99,0.09c1.88,0.24,2.29,0.31,3.68,0.55l0.03,0c-1.28-0.03-2.54-0.01-3.58,0.05
		c-3.02,0.18-3.43,0.53-0.91,0.75c-3.31,0.93-1.29,1.69,2.81,2.54c-1.26,0.28-1.84,0.59-1.68,0.91c-4.81,0.73-7.72,1.73-8.9,2.66
		l-0.52,0.79c1.39,0.57,5.33,0.93,11.09,1.51l1.74,0.23l-1.67,0.58c2.88,0.72,6.85,1.54,11.06,2.57
		c54.33,7.67,101.16,47.42,115.07,103.96c18.26,74.21-27.1,149.17-101.3,167.43c-74.21,18.26-149.17-27.1-167.43-101.3
		c-8.49-34.51-3.21-69.19,12.32-98.24c0.12-0.23,0.21-0.47,0.33-0.7c5.54-10.86,12.45-21.01,20.5-30.13
		c8.05-9.12,17.25-17.21,27.31-24.02c1.98-1.3,3.54-2.43,3.39-2.56c-0.14-0.13-1.95,0.79-3.93,2.1
		c-11.65,7.48-22.25,16.71-31.34,27.3c-9.09,10.58-16.68,22.53-22.4,35.33c0.71-1.83,1.46-3.64,2.25-5.45
		c0.83-1.77,1.69-3.53,2.59-5.26c8.54-15.94,20.02-30.3,33.79-42.16c5.17-4.39,9.54-7.94,9.52-8.59c-0.2-0.48-4.66,2.06-9.76,6.29
		c0.8-0.71,1.6-1.41,2.42-2.11c0.83-0.69,1.38-1.25,1.1-1.13c-0.39,0.19-1.52,1-2.32,1.69c-2.94,2.54-5.7,5.16-8.38,7.88
		c-12.72,11.99-23.26,26.32-30.96,42.05c-7.71,15.72-12.57,32.85-14.27,50.28c1.56-18.78,6.88-37.43,15.64-54.47
		c8.74-17.05,20.93-32.49,35.74-45.02c-0.56,0.55-0.56,0.69,0.23,0.13c0.67-0.49,1.93-1.52,2.51-2.07c0.67-0.63,0.48-0.62-0.21-0.14
		l-0.07,0.05c16.16-13.12,35.26-22.73,55.54-27.94c1.18-0.3,2.18-0.63,2.13-0.73c-0.05-0.09-1.16,0.1-2.47,0.45
		c-16.82,4.36-32.85,11.72-47.03,21.63c-14.2,9.9-26.54,22.3-36.36,36.36c-9.83,14.05-17.12,29.75-21.51,46.1
		c-4.41,16.35-5.89,33.35-4.49,49.95c0.25,3.62,0.63,7.24,1.15,10.86c0,0,0,0-0.01,0.01c-0.23,1.19-0.25,3.63,0.08,6.92
		c-4.58-23.31-3.48-47.63,3.21-70.47c5.78-18.97,15.35-36.76,28.03-52.04c1.83-2.2,3.29-4.1,3.16-4.31
		c-0.1-0.21-1.82,1.45-3.76,3.77c-3.13,3.76-6.06,7.68-8.81,11.73c2.03-3.49,3.32-5.84,3.12-6.32c-0.17-0.47-1.72,0.92-3.94,3.59
		c12.12-18.26,28.11-33.73,46.17-45.21c1.06-0.67,1.59-1.09,1.16-0.94c-0.43,0.15-1.57,0.76-2.61,1.44
		c-26.5,16.49-47.19,40.97-59.38,69.08c-5.17,10.94-9.04,22.39-11.51,34.43c-2.46,12.03-3.51,24.65-2.76,37.83
		c1.13,19.2,5.94,37.51,13.66,54.13c7.73,16.62,18.38,31.49,31.18,44.03c8.97,9.26,19.1,17.34,30.02,23.97
		c-1.64-0.75-2.68-1.12-2.82-0.9c-0.03,0.06,0.05,0.18,0.14,0.31c-9.57-6.02-18.55-13.1-26.76-21.23
		c-19.06-18.83-32.86-42.31-40.16-67.37c-3.67-12.52-5.79-25.44-6.29-38.4c-0.5-12.96,0.62-25.95,3.32-38.57
		c5.38-25.26,17.06-49.05,33.74-68.77c16.63-19.75,38.33-35.38,62.68-44.85c6.23-2.4,10.78-4.1,9.87-4.35
		c-0.88-0.24-6.97,1.22-13.21,3.77c-23.57,9.33-43.86,24.05-59.8,42.4c-15.94,18.36-27.69,40.42-33.91,65.02
		c-4.4,17.52-5.63,34.64-4.27,51.49c1.41,16.84,5.37,33.44,12.46,49.97c8.33,19.33,20.11,36.31,34.46,50.46
		c14.36,14.14,31.31,25.52,50.32,33.4c3.71,1.62,7.5,3.07,11.4,4.31c3.95,1.26,7.93,2.35,11.93,3.28
		c15.66,3.79,31.76,5.15,47.62,4.11c15.86-1.05,31.43-4.46,46.2-10.08c-17.53,7.04-36.29,10.93-55.17,11.44
		c-18.87,0.51-37.77-2.41-55.52-8.42c-2.55-0.88-4.27-1.38-4.08-1.1c0.38,0.35,2.6,1.35,5.17,2.21c12.42,4.22,25.37,6.9,38.46,7.95
		c13.09,1.05,26.3,0.46,39.23-1.73c12.92-2.19,25.55-5.95,37.56-11.22c12.01-5.26,23.35-12.03,33.66-20.1
		c6.15-3.7,15.16-10.55,23.93-20c4.39-4.71,8.73-10.04,12.7-15.76c3.98-5.71,7.57-11.82,10.64-17.96
		c4.52-9.08,7.71-17.98,10.07-27.14c-1.29,4.22-2.7,8.29-4.33,12.38c4.52-12.21,6.68-23.18,7.82-34.03c0.16-0.94,0.3-1.88,0.44-2.89
		c2.03-12.52,2.34-26.44,0.6-40.38C601.47,210.08,597.78,196.18,592.69,183.37z M438.63,91.83c0.68,0.02,1.21,0.07,2.08,0.15
		L438.63,91.83z M450.59,103.78l-0.47-0.1c1.94-0.57,3.9-1.09,5.89-1.56C454.18,102.63,452.37,103.19,450.59,103.78z M484.5,100.84
		c-0.13-0.06-0.26-0.12-0.4-0.18l0.43,0.19L484.5,100.84z M555.63,138.6c-0.91-0.91-2.66-2.72-1.89-1.56
		c-7.27-7.56-15.46-14.47-24.57-20.55c-3.39-2.26-6.85-4.31-10.26-6.1c-3.52-2.52-7.38-5.05-12.64-7.78
		c8.96,4.19,18.78,9.8,27.11,15.95c9.25,6.79,17.59,14.46,24.99,22.88C557.47,140.49,556.56,139.54,555.63,138.6z M575.59,156.56
		c-1.46-2.32-3-4.6-4.59-6.85l0.78,1.31c-6.19-8.63-13.25-16.61-20.97-23.8c-7.21-6.96-15.54-13.52-24.71-19.2
		c-4.74-2.94-9.71-5.64-14.84-8.07c4.4,1.81,8.53,3.7,12.33,5.58c8.08,4.87,15.56,10.36,22.56,16.47
		c8.83,7.72,16.92,16.4,24.36,26.27c0.85,1.19,1.66,2.38,2.46,3.58c1.07,1.79,2.1,3.61,3.1,5.44L575.59,156.56z"/>
	<path class="st1" d="M306.94,214.86c-3.9,20.01-3.23,39.73,1.15,57.95c-3.99-18.75-4.23-37.89-0.73-56.38
		c3.49-18.48,10.73-36.32,21.52-52.21c0.92-1.4,1.96-2.74,2.67-3.54c0.01-0.1,0.18-0.41,0.46-0.83c2.68-3.99,5.91-8.15,9.48-12.16
		c0.67-0.78,1.6-1.69,2.06-2c0.44-0.32,0.05,0.18-0.7,1.04c-3.53,3.87-6.64,7.76-9.15,11.41c-0.47,0.68-1.05,1.4-1.49,1.94
		c0.31-0.15-0.18,0.73-1.24,2.28c-10.34,15.34-18.09,33.17-21.93,52.05c-1.93,9.43-2.89,19.11-2.82,28.78
		c0.07,9.67,1.16,19.33,3.24,28.73c0.17,0.23,0.4,0.7,0.69,1.52c0.93,2.52,2.36,7.64,3.97,12.91c0.39,1.33,0.79,2.66,1.23,3.97
		c5.34,15.93,13.7,30.81,24.42,43.72c2.36,2.5,5.14,5.35,8.24,8.36c10.65,9.82,22.82,17.95,36.15,24.17c-0.78-0.51-1.22-0.88-1.14-1
		c0.41-0.18,3.53,1.15,7.14,2.74c1.83,0.79,3.67,1.55,5.52,2.26c-5.3-2.14-10.45-4.64-15.4-7.43c-0.72-0.4-1.37-0.78-1.96-1.15
		c-5.44-3.08-10.72-6.55-15.84-10.44c-11.17-8.46-20.88-18.49-28.85-29.6c-7.97-11.1-14.18-23.29-18.51-36.04
		c-4.33-12.77-6.81-26.08-7.32-39.42c-0.52-13.35,0.92-26.75,4.27-39.69c0.19-0.86,0.59-2.17,0.9-2.89c0.23-0.47,0.31-0.35,0.07,0.6
		c-2.06,8.16-3.26,16.21-3.74,24.17c-0.47,7.97-0.24,15.86,0.68,23.77c0.92,7.91,2.53,15.84,4.88,23.87
		c2.37,8.03,5.48,16.15,9.59,24.33c9.77,19.48,24.25,36.2,41.82,48.62c17.55,12.43,38.17,20.56,59.77,23.24
		c22.52,3.26,45.02,0.16,65.38-8.07c20.33-8.24,38.55-21.79,52.68-39.95c9.53-12.26,16.69-26.02,21.26-40.43
		c4.56-14.41,6.53-29.45,5.84-44.32c-0.68-14.86-3.99-29.65-9.68-43.4c-5.69-13.75-13.84-26.5-24.09-37.52
		c-7.74-8.21-16.05-15.16-22.76-20.26c-6.7-5.1-11.73-8.48-12.62-10.06c-0.51-0.93,0.53-1.09,2.83-0.51
		c2.3,0.59,5.84,1.93,10.18,4.19c-1.64-1.04-3.28-2.02-4.95-2.99c-2.61-1.58-5.29-3.07-8.01-4.47c-7.72-3.99-14.6-6.86-18.92-8.87
		c-1.99-0.89-4.01-1.74-6.06-2.54c-4.02-1.83-9.5-3.7-14.95-5.14c-1.15-0.31-2.29-0.59-3.41-0.87c-16.98-2.4-34.69-1.69-52.36,2.65
		c-27.35,6.73-50.76,21.18-68.53,40.43c-8.13,9.46-14.6,19.58-19.7,30.27C313.06,191.46,309.3,202.79,306.94,214.86z"/>
	<path class="st2" d="M305.09,277.42c18.26,74.21,93.22,119.56,167.43,101.3c74.21-18.26,119.56-93.22,101.3-167.43
		c-13.91-56.54-60.74-96.29-115.07-103.96c1.13,0.28,2.26,0.56,3.41,0.87c5.44,1.44,10.93,3.31,14.95,5.14
		c2.04,0.8,4.06,1.65,6.06,2.54c4.32,2.02,11.2,4.88,18.92,8.87c2.72,1.4,5.39,2.89,8.01,4.47c1.67,0.96,3.31,1.95,4.95,2.99
		c-4.34-2.26-7.89-3.61-10.18-4.19c-2.3-0.58-3.35-0.42-2.83,0.51c0.89,1.58,5.92,4.95,12.62,10.06
		c6.71,5.09,15.02,12.05,22.76,20.26c10.25,11.03,18.4,23.77,24.09,37.52c5.7,13.74,9.01,28.54,9.68,43.4
		c0.69,14.87-1.28,29.91-5.84,44.32c-4.56,14.4-11.73,28.17-21.26,40.43c-14.12,18.15-32.35,31.7-52.68,39.95
		c-20.36,8.23-42.87,11.34-65.38,8.07c-21.6-2.67-42.22-10.81-59.77-23.24c-17.57-12.42-32.05-29.14-41.82-48.62
		c-4.11-8.18-7.22-16.3-9.59-24.33c-2.36-8.04-3.97-15.96-4.88-23.87c-0.92-7.91-1.16-15.8-0.68-23.77
		c0.48-7.97,1.67-16.01,3.74-24.17c0.24-0.95,0.16-1.07-0.07-0.6c-0.31,0.72-0.71,2.03-0.9,2.89c-3.34,12.95-4.79,26.34-4.27,39.69
		c0.51,13.35,3,26.65,7.32,39.42c4.32,12.76,10.54,24.94,18.51,36.04c7.96,11.11,17.68,21.13,28.85,29.6
		c5.12,3.88,10.4,7.35,15.84,10.44c0.58,0.37,1.24,0.75,1.96,1.15c4.95,2.79,10.11,5.29,15.4,7.43c-1.86-0.72-3.69-1.47-5.52-2.26
		c-3.61-1.59-6.73-2.92-7.14-2.74c-0.07,0.12,0.37,0.49,1.14,1c-13.33-6.22-25.5-14.35-36.15-24.17c-3.1-3.01-5.88-5.86-8.24-8.36
		c-10.72-12.91-19.08-27.79-24.42-43.72c-0.43-1.32-0.84-2.64-1.23-3.97c-1.62-5.27-3.04-10.39-3.97-12.91
		c-0.29-0.81-0.52-1.29-0.69-1.52c-2.08-9.4-3.17-19.06-3.24-28.73c-0.06-9.67,0.9-19.35,2.82-28.78
		c3.84-18.89,11.6-36.71,21.93-52.05c1.05-1.56,1.54-2.43,1.24-2.28c0.45-0.54,1.02-1.26,1.49-1.94c2.51-3.65,5.62-7.54,9.15-11.41
		c0.75-0.86,1.13-1.36,0.7-1.04c-0.46,0.31-1.39,1.22-2.06,2c-3.57,4.02-6.8,8.17-9.48,12.16c-0.28,0.43-0.45,0.73-0.46,0.83
		c-0.71,0.8-1.75,2.14-2.67,3.54c-10.79,15.89-18.03,33.73-21.52,52.21c-3.5,18.49-3.26,37.63,0.73,56.38
		c-4.38-18.23-5.05-37.94-1.15-57.95c2.36-12.07,6.12-23.41,11.23-34.17c5.1-10.69,11.57-20.82,19.7-30.27
		c-2.39,2.59-4.67,5.27-6.85,8.03c-5.51,7.45-10.15,15.31-13.94,23.43c-5.17,11.11-8.8,22.71-10.92,34.58
		c-2.12,11.87-2.73,24.02-1.79,36.29c0.94,12.27,3.42,24.69,7.6,37.05c0.66,1.94,1.35,3.88,2.07,5.77
		c-6.55-14.73-10.59-30.42-11.91-46.41c-0.98-24.15,4.41-48.47,15.28-70C301.88,208.23,296.6,242.9,305.09,277.42z"/>
	<g>
		<path class="st3" d="M644.7,225.52c-0.64-1.67-1.21-3.4-1.74-5.15c-0.52,0.01-1.04-0.02-1.56-0.1c-0.67-0.1-1.33-0.26-1.98-0.45
			c-0.31-0.09-0.63-0.19-0.94-0.29c-0.34-0.11-0.69-0.18-1.05-0.21c-0.68-0.06-1.36,0.04-2.01,0.2c-0.23,0.06-0.45,0.15-0.68,0.22
			c-2.95,2.67-5.8,5.48-8.44,8.42c-2.32,2.58-4.57,5.3-6.66,8.1l-0.48,0.64l0.58,0.54c1.6,1.49,3.38,2.82,5.27,3.96
			c1.58,0.95,3.27,1.76,5.01,2.42l0.93,0.35l0.24-0.97c0.92-3.65,2.06-7.28,3.4-10.78c0.87-2.28,1.86-4.53,2.91-6.74
			c-0.04,1.39-0.09,2.78-0.08,4.15c0.02,3.19,0.16,6.4,0.44,9.52l0.06,0.71l0.64-0.18c1.77-0.48,3.55-1.18,5.3-2.08
			c1.46-0.75,2.91-1.66,4.31-2.68l0.75-0.55l-0.38-0.7C647.11,231.23,645.81,228.42,644.7,225.52z"/>
		<path class="st3" d="M724.62,178.93c-0.38-2.1-2.44-3.63-4.66-3.23c-25.83,7.72-51.78,15.02-77.85,21.89
			c-0.01,0.02,0,0.05-0.02,0.06l-0.25,0.1c-0.64,0.27-1.29,0.54-1.96,0.73c-0.67,0.19-1.36,0.3-2.06,0.25
			c-0.36-0.02-0.7-0.1-1.05-0.19c-0.32-0.08-0.63-0.16-0.95-0.23c-0.67-0.15-1.34-0.26-2.02-0.31c-0.44-0.03-0.88-0.02-1.31,0.01
			l-4.63,1.18c-9.32,2.37-18.63,4.74-27.94,7.11c-0.43,0.11-0.87,0.22-1.31,0.33c-0.41,0.1-0.8,0.29-1.13,0.55
			c-2.12,0.47-4.23,0.94-6.34,1.41l-1.04,0.23l0.72,1.69c-19.49,4.68-39.06,9.08-58.69,13.26c-25.77,12.77-51.78,25.01-78.04,36.72
			c48.53-8.59,96.93-18.57,145.05-29.81c0.17,0.76,0.62,1.43,1.29,1.85c0.71,0.45,1.59,0.59,2.43,0.38l37.07-9.31
			c0.69-0.17,1.31-0.58,1.74-1.14c0.49-0.65,0.68-1.46,0.57-2.25c27.4-6.85,54.71-14.07,81.87-21.71c2.22-0.4,3.63-2.44,3.23-4.66
			C726.44,188.91,725.52,183.86,724.62,178.93z"/>
		<path class="st4" d="M588.24,165.91c0.62,0.53,1.17,1.13,1.69,1.75c1.07,1.29,2,2.7,2.88,4.13c0.37,0.61,0.74,1.21,1.12,1.82
			c0.59,0.95,1.08,1.95,1.51,2.99c0.85,2.07,1.43,4.25,2.02,6.41c0.04,0.13,0.08,0.26,0.11,0.38
			c55.15-30.06,109.27-62.42,162.51-96.75c-2.04-8.15-6.16-14.82-13.45-19.08c-52.67,35.7-105.63,68.28-158.87,97.99
			C587.92,165.67,588.09,165.78,588.24,165.91z"/>
		<path class="st4" d="M597.07,182.38c-0.58-2.14-1.19-4.29-2.09-6.32c-0.23-0.51-0.47-1.01-0.74-1.5
			c-0.24-0.44-0.51-0.86-0.77-1.29c-0.35-0.58-0.7-1.16-1.07-1.74c-0.89-1.42-1.84-2.83-2.95-4.1c-0.51-0.59-1.06-1.15-1.68-1.62
			c-0.07-0.05-0.15-0.1-0.23-0.15C437.67,249.28,285.61,309.96,131.7,351.83l-16.72,4.64c7.22,6.22,17.86,9.42,31.18,8.48
			c159.04-41.36,308.58-103.72,451.21-181.46C597.28,183.12,597.17,182.75,597.07,182.38z"/>
		<path class="st5" d="M145.71,362.18c-9.57,0.64-17.85-0.94-24.3-4.59l11.04-3.06c157.78-42.93,310.78-105.33,454.72-185.45
			c0.06,0.06,0.11,0.13,0.17,0.19c1.04,1.2,1.94,2.57,2.69,3.75c0.34,0.54,1.27,2.08,1.27,2.08c0.16,0.27,0.33,0.53,0.48,0.8
			c0.23,0.42,0.44,0.86,0.64,1.3c0.68,1.52,1.18,3.14,1.67,4.9C443.64,263.92,296.95,322.82,145.71,362.18z"/>
		<path class="st3" d="M209.86,268.32l-0.25,0.05c-0.15-0.1-0.39-0.06-0.64-0.01c-0.78,7.65-1.32,15.9,0.66,23.31
			c0.25-0.05,0.52,0.03,0.89-0.03l0.37-0.07c50.19-3.82,100.51-9.34,150.78-16.38c26.09-10.61,52.12-21.84,78.09-33.7
			C364.28,254.33,287.7,263.45,209.86,268.32z"/>
		<path class="st4" d="M746.62,67.56c-53.26,36.07-106.84,68.99-160.65,98.99l11.51,16.93c55.16-30.06,109.28-62.4,162.59-96.84
			C758.03,78.48,753.92,71.82,746.62,67.56L746.62,67.56z"/>
		<path class="st6" d="M742.63,70.88l-2.01,1.32c2.72,2.07,5.16,4.4,7.12,7.23c2.18,3,4,6.72,5.29,11.08l1.9-1.27
			c-1.29-4.37-3.06-7.97-5.29-11.08C747.67,75.34,745.24,73,742.63,70.88L742.63,70.88z"/>
		<path d="M571.79,182.92c-0.12-0.19-0.23-0.38-0.35-0.57c-0.26-0.45-0.53-0.9-0.84-1.31c-72.72,39.62-144.57,73.4-216.86,102.25
			c-72.02,28.74-144.34,52.66-218.29,72.52c-0.02,0.01-0.02,0.03-0.04,0.03c0.31,0.12,0.62,0.24,0.94,0.35
			c0.45,0.16,0.91,0.32,1.37,0.46c0.45,0.14,0.9,0.25,1.37,0.36c0.08,0.02,0.16,0.02,0.24,0.04
			c72.91-19.73,144.26-43.39,215.21-71.69c72.42-28.9,144.41-62.73,217.28-102.42C571.81,182.93,571.8,182.93,571.79,182.92z"/>
		<path class="st6" d="M606.5,166.33l-5.89-4.21l-0.27,8.51l6.26,3.49L606.5,166.33z M615.3,169.36l0.66-7.04l-7.57-4.27l0.09,7.8
			L615.3,169.36z M623.67,164.47l0.61-7.15l-7.57-4.27l0.09,7.8L623.67,164.47z M632,159.46l0.61-7.15l-7.57-4.27l0.09,7.8
			L632,159.46z M640.32,154.46l0.66-7.04l-7.57-4.27l0.04,7.68L640.32,154.46z M648.65,149.45l0.66-7.04l-7.57-4.27l0.04,7.68
			L648.65,149.45z M656.97,144.45l0.66-7.04l-7.57-4.27l0.09,7.8L656.97,144.45z M665.93,139.02l0.66-7.04l-7.57-4.27l0.09,7.8
			L665.93,139.02z M674.94,133.7l0.61-7.15l-7.57-4.27l0.09,7.8L674.94,133.7z M684.01,128.22l0.5-7.1l-7.57-4.27l0.09,7.8
			L684.01,128.22z M692.96,122.79l0.5-7.1l-7.52-4.16l0.04,7.68L692.96,122.79z M701.92,117.36l0.55-6.99l-7.57-4.27l0.04,7.68
			L701.92,117.36z M710.88,111.93l0.55-6.99l-7.57-4.27l0.04,7.68L710.88,111.93z M718.94,106.36l0.66-7.04l-7.69-4.22l0.04,7.68
			L718.94,106.36z M727.01,100.78l0.61-7.15l-7.57-4.27l0.09,7.8L727.01,100.78z M735.5,95.84l0.55-6.99l-7.57-4.27l0.04,7.68
			L735.5,95.84z M743.62,90.09l0.5-7.1l-7.52-4.16l0.04,7.68L743.62,90.09z"/>
		<path class="st4" d="M586.73,168.13c-4.53,2.46-9.34,5.7-13.86,8.16c2.57,3.24,6.43,9.61,8.2,13.21c4.07-2.25,9.99-5.3,14.06-7.55
			c-2.23-4.63-5.16-9.06-7.69-11.91L586.73,168.13z"/>
		<path class="st4" d="M603.39,194.7c-1.84,1.11-6.52-2.55-11.33-8.62c0.97-0.58,2.08-1.49,3.16-2.12
			c-0.43-3.38-7.77-15.05-11.16-15.85c-0.86,0.53-1.66,0.89-2.52,1.42c-3.7-7.26-5.2-13.32-3.42-14.54
			C584.21,151.12,609.43,190.72,603.39,194.7L603.39,194.7z"/>
	</g>
	<path class="st7" d="M582.5,185.75c2.53-1.03,5.07-2.08,7.69-2.99c-2.43,1.62-4.98,3-7.64,4.2l-0.34,0.16l0,0
		c-1.01-2.54-5.53-9.37-6.62-11.47C577.11,177.19,581.91,184.04,582.5,185.75z"/>
</g>
</svg>
