<?xml version="1.0" encoding="utf-8"?>
<!-- Generator: Adobe Illustrator 24.0.1, SVG Export Plug-In . SVG Version: 6.00 Build 0)  -->
<svg version="1.1" id="Layer_1" xmlns="http://www.w3.org/2000/svg" xmlns:xlink="http://www.w3.org/1999/xlink" x="0px" y="0px"
	 viewBox="0 0 891.39 456.79" style="enable-background:new 0 0 891.39 456.79;" xml:space="preserve">
<style type="text/css">
	.st0{opacity:0;fill:#FFFFFF;}
	.st1{fill:url(#SVGID_1_);}
	.st2{fill:#292929;}
	.st3{fill:#FFFFFF;}
	.st4{fill-rule:evenodd;clip-rule:evenodd;}
	.st5{fill-rule:evenodd;clip-rule:evenodd;fill:#FEFEFE;}
	.st6{fill:#F4F4F4;}
</style>
<g>
	<rect x="0" y="0" class="st0" width="891.39" height="456.79"/>
	<linearGradient id="SVGID_1_" gradientUnits="userSpaceOnUse" x1="289.788" y1="240.1612" x2="601.9849" y2="240.1612">
		<stop  offset="5.617738e-03" style="stop-color:#8C6A33"/>
		<stop  offset="0.139" style="stop-color:#9A7638"/>
		<stop  offset="0.3542" style="stop-color:#A9843E"/>
		<stop  offset="0.5225" style="stop-color:#AF8940"/>
		<stop  offset="1" style="stop-color:#8C6A33"/>
	</linearGradient>
	<path class="st1" d="M338.14,132.42c-6.95,6.9-13.24,14.46-18.75,22.56c-5.51,8.1-10.25,16.72-14.1,25.74
		c-3.86,9.01-6.83,18.41-8.89,28c-2.05,9.6-3.19,19.4-3.37,29.22c-0.19,9.82,0.57,19.66,2.26,29.35c1.69,9.68,4.31,19.21,7.83,28.4
		c3.52,9.19,7.94,18.03,13.17,26.38c5.23,8.34,11.27,16.18,18.01,23.37c6.72,7.21,14.15,13.77,22.13,19.56
		c7.99,5.79,16.53,10.82,25.49,14.96c8.96,4.15,18.33,7.42,27.93,9.77c9.6,2.35,19.42,3.78,29.31,4.26c9.88,0.48,19.81,0,29.61-1.41
		c9.8-1.41,19.47-3.76,28.82-7.03c9.36-3.26,18.4-7.45,26.95-12.47c8.55-5.02,16.63-10.87,24.07-17.45
		c-7.38,6.64-15.4,12.57-23.93,17.68c-8.52,5.11-17.54,9.39-26.91,12.75c-9.36,3.37-19.05,5.82-28.88,7.33
		c-9.83,1.51-19.82,2.08-29.78,1.69c-9.95-0.39-19.87-1.74-29.58-4.02c-9.7-2.28-19.19-5.5-28.28-9.61
		c-9.1-4.1-17.79-9.11-25.92-14.9s-15.72-12.36-22.6-19.61c-6.9-7.23-13.1-15.13-18.49-23.56s-9.98-17.37-13.64-26.7
		c-3.67-9.32-6.43-18.99-8.24-28.85c-1.81-9.85-2.68-19.89-2.57-29.92c0.09-10.03,1.16-20.05,3.18-29.89
		c2.01-9.83,4.97-19.48,8.84-28.75c3.86-9.28,8.64-18.18,14.22-26.54c5.59-8.36,11.98-16.19,19.05-23.35
		c0.42-0.43,0.97-0.64,1.52-0.64c0.55,0,1.1,0.21,1.53,0.62c0.42,0.42,0.64,0.97,0.64,1.52c0,0.55-0.21,1.11-0.62,1.53l-0.01,0.01
		L338.14,132.42z M367.22,107.27c8.55-5.02,17.59-9.22,26.95-12.47c9.36-3.27,19.03-5.62,28.82-7.04c9.8-1.41,19.73-1.89,29.61-1.41
		c9.88,0.47,19.71,1.9,29.31,4.25c9.6,2.35,18.97,5.62,27.93,9.77c8.97,4.14,17.51,9.17,25.49,14.96
		c7.98,5.79,15.41,12.35,22.13,19.56c6.74,7.19,12.78,15.03,18.01,23.37c5.23,8.34,9.65,17.18,13.17,26.37
		c3.53,9.19,6.14,18.71,7.84,28.4c1.69,9.68,2.45,19.53,2.26,29.35c-0.18,9.82-1.32,19.62-3.37,29.21c-2.05,9.6-5.03,18.99-8.89,28
		c-3.85,9.02-8.59,17.65-14.1,25.74c-5.51,8.1-11.8,15.66-18.75,22.56l-0.01,0.01l-0.01,0.01c-0.42,0.43-0.63,0.98-0.62,1.53
		c0,0.55,0.22,1.1,0.64,1.52c0.43,0.42,0.98,0.63,1.53,0.62c0.55,0,1.1-0.22,1.52-0.64c7.08-7.15,13.47-14.99,19.05-23.35
		c5.59-8.36,10.37-17.26,14.22-26.53c3.87-9.28,6.83-18.92,8.84-28.75c2.01-9.83,3.09-19.86,3.18-29.88
		c0.1-10.03-0.76-20.06-2.58-29.92c-1.81-9.86-4.57-19.54-8.24-28.85c-3.66-9.32-8.24-18.27-13.63-26.7
		c-5.39-8.43-11.59-16.33-18.49-23.56c-6.89-7.24-14.47-13.82-22.6-19.61c-8.14-5.79-16.83-10.79-25.92-14.9
		c-9.09-4.11-18.58-7.32-28.29-9.61c-9.7-2.28-19.62-3.63-29.57-4.01c-9.95-0.39-19.94,0.17-29.78,1.68
		c-9.83,1.51-19.53,3.96-28.88,7.33c-9.36,3.36-18.38,7.64-26.9,12.75c-8.52,5.11-16.55,11.04-23.93,17.68
		C350.6,118.15,358.67,112.29,367.22,107.27z M345.48,139.74l0.01-0.01c0.42-0.42,0.63-0.98,0.62-1.53s-0.22-1.1-0.64-1.52
		c-0.43-0.42-0.98-0.62-1.53-0.62c-0.55,0-1.1,0.22-1.52,0.64c-6.6,6.67-12.55,13.97-17.75,21.78s-9.65,16.1-13.24,24.75
		c-3.61,8.65-6.36,17.64-8.23,26.81c-1.87,9.17-2.87,18.51-2.97,27.86c-0.1,9.35,0.69,18.7,2.37,27.89
		c1.68,9.19,4.23,18.22,7.63,26.91c3.39,8.69,7.64,17.05,12.65,24.91s10.77,15.24,17.19,21.99c6.4,6.76,13.46,12.9,21.03,18.31
		c7.57,5.41,15.66,10.08,24.13,13.92c8.47,3.84,17.31,6.85,26.34,8.99c9.04,2.14,18.28,3.42,27.55,3.8
		c9.27,0.39,18.58-0.11,27.74-1.49c9.17-1.38,18.2-3.62,26.94-6.72c8.73-3.09,17.16-7.04,25.12-11.76
		c7.96-4.72,15.46-10.21,22.36-16.37c-6.96,6.09-14.51,11.51-22.5,16.14c-7.99,4.64-16.43,8.5-25.16,11.49
		c-8.73,3-17.74,5.15-26.87,6.43c-9.13,1.28-18.38,1.69-27.58,1.21c-9.2-0.47-18.35-1.83-27.28-4.04
		c-8.93-2.21-17.65-5.27-25.98-9.16c-8.34-3.87-16.29-8.56-23.71-13.97c-7.42-5.41-14.32-11.53-20.57-18.26
		c-6.25-6.71-11.86-14.03-16.7-21.81c-4.85-7.78-8.94-16.02-12.19-24.59c-3.26-8.56-5.67-17.43-7.23-26.45
		c-1.56-9.02-2.24-18.18-2.06-27.32c0.18-9.14,1.25-18.26,3.17-27.19c1.92-8.93,4.69-17.67,8.28-26.06
		c3.58-8.39,7.99-16.42,13.12-23.96C333.15,153.2,339,146.16,345.48,139.74L345.48,139.74z M372.99,115.92
		c7.99-4.63,16.43-8.5,25.16-11.48c8.73-3.01,17.74-5.16,26.87-6.44c9.13-1.28,18.38-1.69,27.58-1.21
		c9.2,0.47,18.35,1.83,27.28,4.04s17.65,5.27,25.98,9.15c8.34,3.87,16.29,8.57,23.71,13.98c7.42,5.41,14.32,11.53,20.56,18.26
		c6.26,6.71,11.86,14.03,16.7,21.81c4.85,7.78,8.94,16.02,12.19,24.59c3.26,8.56,5.67,17.43,7.23,26.45
		c1.56,9.02,2.25,18.18,2.06,27.32c-0.18,9.14-1.25,18.26-3.17,27.19c-1.92,8.93-4.68,17.67-8.28,26.06
		c-3.58,8.39-7.99,16.42-13.12,23.96c-5.13,7.54-10.98,14.57-17.45,20.99l-0.01,0.01l-0.01,0.01c-0.42,0.42-0.63,0.98-0.62,1.53
		c0,0.55,0.22,1.11,0.64,1.53c0.43,0.42,0.98,0.62,1.53,0.62s1.1-0.22,1.52-0.64c6.6-6.67,12.55-13.98,17.75-21.78
		c5.2-7.8,9.65-16.1,13.25-24.75c3.6-8.64,6.36-17.64,8.23-26.81c1.87-9.16,2.87-18.51,2.97-27.86c0.1-9.35-0.7-18.7-2.37-27.89
		c-1.68-9.19-4.23-18.21-7.63-26.9c-3.4-8.7-7.64-17.05-12.65-24.91c-5.01-7.86-10.77-15.25-17.19-21.99
		c-6.4-6.76-13.46-12.9-21.03-18.31c-7.58-5.41-15.67-10.08-24.14-13.91c-8.47-3.85-17.31-6.85-26.34-8.99
		c-9.04-2.14-18.28-3.42-27.55-3.8c-9.27-0.39-18.57,0.11-27.74,1.49c-9.17,1.37-18.2,3.62-26.94,6.72
		c-8.73,3.09-17.16,7.04-25.12,11.77c-7.96,4.72-15.46,10.21-22.36,16.37C357.45,125.97,365,120.56,372.99,115.92z M352.8,147.06
		l0.01-0.01c0.42-0.43,0.62-0.98,0.62-1.53c0-0.55-0.22-1.1-0.64-1.52c-0.43-0.42-0.98-0.63-1.53-0.62c-0.55,0-1.1,0.22-1.52,0.64
		c-6.12,6.19-11.64,12.97-16.46,20.21c-4.83,7.24-8.95,14.93-12.29,22.96c-3.35,8.02-5.9,16.36-7.64,24.86
		c-1.74,8.5-2.67,17.17-2.77,25.83c-0.1,8.67,0.63,17.35,2.17,25.87c1.54,8.52,3.9,16.9,7.05,24.96
		c3.13,8.07,7.06,15.82,11.69,23.12c4.63,7.3,9.96,14.15,15.89,20.42c5.92,6.28,12.45,11.99,19.46,17.02
		c7.01,5.03,14.5,9.38,22.35,12.95c7.84,3.59,16.02,6.4,24.39,8.41c8.37,2.01,16.93,3.22,25.53,3.6c8.59,0.39,17.22-0.04,25.72-1.29
		c8.5-1.25,16.88-3.3,24.99-6.14c8.11-2.83,15.93-6.46,23.33-10.81c7.4-4.35,14.37-9.4,20.79-15.08
		c-6.47,5.61-13.49,10.59-20.92,14.85c-7.43,4.26-15.26,7.8-23.36,10.53c-8.1,2.75-16.46,4.7-24.92,5.85
		c-8.46,1.15-17.04,1.49-25.55,1.01c-8.52-0.47-16.99-1.76-25.26-3.83c-8.27-2.08-16.33-4.94-24.04-8.56
		c-7.71-3.61-15.06-7.99-21.92-13.02c-6.86-5.03-13.23-10.72-19-16.97c-5.77-6.23-10.94-13.02-15.41-20.24
		c-4.47-7.21-8.24-14.86-11.24-22.8c-3-7.93-5.22-16.15-6.64-24.51c-1.42-8.35-2.05-16.84-1.86-25.3c0.18-8.46,1.18-16.9,2.97-25.17
		c1.79-8.26,4.36-16.35,7.69-24.12c3.32-7.77,7.41-15.19,12.16-22.16C341.39,159.52,346.81,153,352.8,147.06L352.8,147.06z
		 M378.76,124.55c7.43-4.26,15.26-7.8,23.37-10.53c8.1-2.75,16.46-4.7,24.92-5.85c8.47-1.15,17.04-1.49,25.55-1.02
		c8.52,0.47,16.99,1.76,25.26,3.84c8.27,2.08,16.33,4.94,24.04,8.56c7.71,3.61,15.06,7.98,21.92,13.02
		c6.86,5.03,13.23,10.72,18.99,16.96c5.77,6.24,10.94,13.03,15.41,20.24c4.47,7.22,8.24,14.86,11.23,22.8
		c3,7.93,5.22,16.15,6.64,24.51c1.43,8.35,2.05,16.84,1.86,25.3c-0.18,8.46-1.18,16.9-2.97,25.17c-1.78,8.26-4.36,16.35-7.69,24.11
		c-3.32,7.77-7.41,15.19-12.16,22.16c-4.75,6.97-10.17,13.48-16.16,19.42l-0.01,0.01l-0.01,0.01c-0.42,0.42-0.62,0.97-0.62,1.53
		c0,0.55,0.22,1.1,0.64,1.52c0.42,0.42,0.98,0.63,1.53,0.62s1.1-0.22,1.52-0.64c6.12-6.19,11.64-12.97,16.46-20.21
		c4.83-7.24,8.95-14.93,12.29-22.96c3.35-8.02,5.9-16.36,7.64-24.86c1.75-8.51,2.67-17.17,2.77-25.84
		c0.1-8.67-0.63-17.34-2.17-25.87c-1.54-8.52-3.9-16.89-7.05-24.96c-3.13-8.07-7.06-15.82-11.69-23.12
		c-4.63-7.3-9.96-14.15-15.89-20.42c-5.92-6.28-12.46-11.99-19.46-17.02c-7.01-5.03-14.5-9.38-22.35-12.96
		c-7.84-3.58-16.02-6.4-24.4-8.41c-8.37-2.01-16.93-3.22-25.53-3.6c-8.59-0.39-17.22,0.05-25.72,1.29
		c-8.5,1.25-16.88,3.3-24.99,6.14c-8.11,2.83-15.93,6.46-23.33,10.81c-7.4,4.35-14.37,9.4-20.79,15.08
		C364.31,133.79,371.33,128.81,378.76,124.55z M360.13,154.38c0.01-0.01,0.01-0.01,0.01-0.01c0.42-0.43,0.63-0.98,0.62-1.53
		c0-0.55-0.22-1.1-0.64-1.52c-0.43-0.42-0.98-0.63-1.53-0.62c-0.55,0-1.1,0.22-1.52,0.64c-5.64,5.72-10.73,11.97-15.18,18.64
		c-4.45,6.67-8.25,13.77-11.33,21.17c-3.09,7.4-5.44,15.08-7.06,22.92c-1.61,7.84-2.48,15.83-2.57,23.82
		c-0.1,7.99,0.56,15.99,1.98,23.85c1.41,7.86,3.57,15.57,6.46,23.01c2.88,7.44,6.49,14.59,10.74,21.33
		c4.26,6.73,9.15,13.06,14.61,18.85c5.44,5.81,11.45,11.08,17.89,15.73s13.34,8.68,20.56,12c7.21,3.33,14.75,5.94,22.45,7.82
		c7.71,1.88,15.59,3.02,23.5,3.4c7.91,0.39,15.86,0.01,23.7-1.1c7.84-1.12,15.56-2.97,23.04-5.56c7.48-2.57,14.7-5.89,21.53-9.85
		c6.83-3.97,13.28-8.59,19.21-13.79c-5.99,5.14-12.48,9.68-19.35,13.56c-6.86,3.88-14.09,7.1-21.57,9.58
		c-7.47,2.49-15.18,4.25-22.97,5.27c-7.8,1.02-15.69,1.3-23.53,0.83c-7.84-0.47-15.63-1.69-23.23-3.63
		c-7.6-1.95-15.02-4.61-22.1-7.98c-7.09-3.35-13.83-7.4-20.13-12.05c-6.29-4.66-12.14-9.91-17.43-15.68
		c-5.29-5.76-10.03-12.02-14.12-18.67c-4.09-6.65-7.55-13.69-10.28-21.01c-2.74-7.31-4.76-14.87-6.06-22.56
		c-1.29-7.69-1.85-15.49-1.66-23.28c0.18-7.78,1.11-15.55,2.76-23.15c1.66-7.6,4.03-15.04,7.11-22.17
		c3.06-7.14,6.83-13.97,11.21-20.37c4.38-6.41,9.37-12.4,14.88-17.85C360.12,154.39,360.12,154.39,360.13,154.38z M384.53,133.18
		c6.86-3.88,14.09-7.1,21.57-9.58c7.47-2.49,15.18-4.25,22.97-5.27c7.8-1.02,15.69-1.3,23.53-0.82c7.84,0.47,15.63,1.69,23.23,3.63
		c7.6,1.94,15.02,4.61,22.1,7.97c7.09,3.35,13.83,7.4,20.13,12.06c6.29,4.65,12.14,9.91,17.43,15.67
		c5.29,5.75,10.03,12.02,14.12,18.67s7.54,13.69,10.28,21.01c2.74,7.31,4.76,14.87,6.06,22.56c1.29,7.69,1.85,15.49,1.66,23.28
		c-0.18,7.78-1.11,15.55-2.77,23.15c-1.65,7.6-4.03,15.04-7.1,22.17c-3.06,7.14-6.83,13.97-11.21,20.38
		c-4.38,6.41-9.37,12.39-14.88,17.85c0,0,0,0.01-0.01,0.01c-0.01,0-0.01,0.01-0.01,0.01c-0.42,0.43-0.62,0.98-0.62,1.53
		c0,0.55,0.22,1.1,0.64,1.52c0.43,0.42,0.98,0.62,1.53,0.62c0.55,0,1.1-0.22,1.52-0.64c5.64-5.71,10.73-11.96,15.18-18.64
		s8.25-13.77,11.33-21.17c3.09-7.4,5.44-15.08,7.06-22.92c1.61-7.84,2.48-15.83,2.57-23.81c0.1-7.99-0.56-15.99-1.98-23.85
		c-1.41-7.86-3.57-15.58-6.46-23.02c-2.88-7.44-6.49-14.59-10.74-21.33c-4.26-6.73-9.15-13.06-14.61-18.85
		c-5.44-5.81-11.45-11.08-17.89-15.73c-6.45-4.65-13.34-8.68-20.56-12c-7.21-3.32-14.75-5.94-22.45-7.82
		c-7.71-1.88-15.59-3.02-23.5-3.4c-7.91-0.39-15.86-0.01-23.7,1.1c-7.84,1.11-15.57,2.97-23.04,5.55
		c-7.48,2.58-14.7,5.89-21.53,9.85c-6.83,3.97-13.28,8.59-19.21,13.79C371.17,141.61,377.66,137.06,384.53,133.18z M367.46,161.71
		c0,0,0.01-0.01,0.01-0.01c0.42-0.43,0.63-0.98,0.62-1.53c0-0.55-0.22-1.1-0.64-1.52c-0.43-0.42-0.98-0.62-1.53-0.62
		c-0.55,0-1.1,0.22-1.52,0.64c-5.16,5.24-9.82,10.96-13.89,17.07c-4.07,6.11-7.56,12.61-10.38,19.38
		c-2.83,6.77-4.99,13.8-6.47,20.98c-1.48,7.17-2.28,14.48-2.37,21.79c-0.1,7.31,0.49,14.63,1.78,21.82s3.25,14.26,5.88,21.07
		c2.62,6.81,5.9,13.36,9.78,19.54c3.88,6.17,8.34,11.98,13.31,17.29c4.96,5.33,10.44,10.17,16.32,14.44
		c5.89,4.28,12.18,7.98,18.77,11.04c6.59,3.07,13.47,5.48,20.51,7.23c7.04,1.75,14.25,2.82,21.48,3.2
		c7.23,0.39,14.5,0.08,21.67-0.91c7.17-0.98,14.24-2.65,21.09-4.97c6.85-2.32,13.47-5.31,19.73-8.9c6.27-3.59,12.18-7.78,17.63-12.5
		c-5.51,4.65-11.47,8.76-17.77,12.27c-6.3,3.5-12.93,6.4-19.77,8.62c-6.84,2.23-13.9,3.79-21.02,4.68
		c-7.13,0.89-14.35,1.1-21.51,0.63c-7.16-0.46-14.27-1.62-21.21-3.43c-6.94-1.81-13.7-4.28-20.15-7.38
		c-6.46-3.09-12.61-6.82-18.34-11.09c-5.73-4.28-11.05-9.1-15.86-14.39c-4.82-5.27-9.12-11.01-12.83-17.1s-6.85-12.53-9.32-19.22
		c-2.48-6.68-4.31-13.6-5.47-20.62c-1.16-7.02-1.66-14.15-1.47-21.26c0.18-7.11,1.05-14.19,2.57-21.13
		c1.52-6.93,3.7-13.72,6.51-20.23c2.81-6.51,6.25-12.74,10.25-18.58c4-5.85,8.56-11.31,13.59-16.28
		C367.45,161.71,367.45,161.71,367.46,161.71z M390.3,141.82c6.29-3.5,12.92-6.4,19.77-8.62c6.84-2.23,13.9-3.79,21.02-4.68
		c7.13-0.89,14.35-1.1,21.51-0.63c7.16,0.47,14.28,1.62,21.21,3.43c6.94,1.81,13.7,4.28,20.15,7.38c6.46,3.09,12.6,6.82,18.34,11.1
		c5.73,4.27,11.05,9.1,15.86,14.38c4.81,5.28,9.12,11.01,12.83,17.1c3.71,6.09,6.85,12.53,9.32,19.21
		c2.48,6.68,4.31,13.6,5.47,20.62c1.16,7.02,1.66,14.15,1.47,21.25c-0.18,7.11-1.04,14.19-2.57,21.13
		c-1.52,6.93-3.7,13.72-6.51,20.23c-2.81,6.51-6.25,12.74-10.25,18.59c-4,5.84-8.56,11.3-13.59,16.28c0,0,0,0.01-0.01,0.01
		c-0.01,0.01-0.01,0.01-0.01,0.01c-0.42,0.43-0.63,0.98-0.62,1.53c0,0.55,0.22,1.1,0.64,1.52c0.43,0.42,0.98,0.62,1.53,0.62
		c0.55,0,1.1-0.22,1.52-0.64c5.16-5.23,9.82-10.96,13.89-17.07c4.07-6.11,7.56-12.6,10.38-19.37c2.83-6.77,4.99-13.8,6.47-20.98
		c1.48-7.17,2.28-14.48,2.37-21.79c0.1-7.31-0.5-14.63-1.78-21.82c-1.28-7.19-3.24-14.26-5.87-21.07
		c-2.62-6.81-5.9-13.36-9.78-19.54c-3.87-6.17-8.34-11.97-13.31-17.29c-4.97-5.32-10.44-10.16-16.33-14.44
		c-5.89-4.28-12.18-7.98-18.77-11.04c-6.59-3.06-13.47-5.48-20.51-7.23c-7.04-1.74-14.25-2.82-21.49-3.2
		c-7.23-0.39-14.5-0.08-21.67,0.91c-7.17,0.99-14.25,2.65-21.09,4.97c-6.85,2.32-13.47,5.31-19.73,8.89
		c-6.27,3.59-12.18,7.78-17.63,12.51C378.04,149.43,384,145.32,390.3,141.82z M374.77,169.04L374.77,169.04
		c0.01-0.01,0.01-0.01,0.01-0.01c0,0,0,0,0.01-0.01c0.42-0.43,0.62-0.98,0.62-1.53c0-0.55-0.22-1.1-0.64-1.52
		c-0.43-0.42-0.98-0.62-1.53-0.62c-0.56,0-1.1,0.22-1.52,0.64c-4.68,4.75-8.9,9.95-12.6,15.5c-3.69,5.54-6.86,11.44-9.42,17.58
		c-2.57,6.14-4.54,12.52-5.88,19.03c-1.35,6.5-2.08,13.13-2.18,19.77c-0.1,6.63,0.43,13.27,1.58,19.8
		c1.15,6.53,2.92,12.94,5.28,19.12c2.36,6.18,5.32,12.13,8.82,17.74c3.5,5.61,7.53,10.89,12.02,15.72
		c4.49,4.85,9.44,9.26,14.76,13.15c5.32,3.9,11.02,7.28,16.98,10.08c5.96,2.8,12.19,5.02,18.57,6.64c6.37,1.61,12.9,2.62,19.46,3
		s13.14,0.14,19.65-0.71s12.92-2.32,19.14-4.39c6.22-2.06,12.23-4.73,17.93-7.94c5.7-3.21,11.09-6.97,16.06-11.21
		c-5.03,4.18-10.46,7.85-16.19,10.98s-11.75,5.7-17.97,7.67c-6.21,1.97-12.61,3.34-19.07,4.1c-6.46,0.76-12.99,0.91-19.48,0.44
		c-6.48-0.47-12.92-1.55-19.19-3.23c-6.27-1.68-12.38-3.95-18.21-6.79c-5.83-2.83-11.38-6.24-16.55-10.13
		c-5.17-3.9-9.96-8.29-14.29-13.09c-4.34-4.8-8.21-10.01-11.55-15.53c-3.34-5.53-6.15-11.37-8.36-17.42
		c-2.22-6.05-3.85-12.31-4.89-18.67c-1.03-6.36-1.46-12.81-1.27-19.24c0.18-6.43,0.98-12.84,2.37-19.11
		c1.39-6.27,3.38-12.4,5.93-18.28c2.55-5.89,5.67-11.51,9.3-16.79C366.09,178.48,370.22,173.54,374.77,169.04L374.77,169.04z
		 M396.07,150.47c5.73-3.13,11.75-5.7,17.97-7.67c6.21-1.97,12.61-3.34,19.07-4.1c6.46-0.76,12.99-0.91,19.48-0.44
		c6.48,0.46,12.92,1.54,19.19,3.22c6.27,1.68,12.38,3.95,18.21,6.79c5.83,2.83,11.38,6.24,16.55,10.13
		c5.17,3.9,9.96,8.29,14.3,13.09c4.33,4.8,8.2,10.01,11.54,15.53c3.34,5.53,6.15,11.37,8.37,17.42c2.22,6.05,3.85,12.32,4.88,18.67
		c1.03,6.36,1.46,12.81,1.27,19.24c-0.18,6.43-0.98,12.84-2.37,19.11c-1.39,6.27-3.37,12.4-5.93,18.28
		c-2.55,5.89-5.67,11.52-9.3,16.8c-3.62,5.28-7.75,10.21-12.3,14.71l-0.01,0.01l0,0.01c0,0,0,0-0.01,0.01l0,0
		c-0.42,0.43-0.63,0.98-0.62,1.53c0,0.55,0.22,1.1,0.64,1.52s0.98,0.62,1.53,0.62c0.56,0,1.1-0.22,1.52-0.65
		c4.68-4.75,8.9-9.95,12.6-15.5c3.69-5.55,6.86-11.44,9.42-17.58c2.57-6.14,4.54-12.52,5.89-19.03c1.35-6.51,2.08-13.14,2.18-19.77
		c0.1-6.63-0.43-13.27-1.58-19.8c-1.15-6.53-2.92-12.94-5.28-19.12c-2.36-6.19-5.33-12.13-8.82-17.75
		c-3.5-5.61-7.53-10.88-12.02-15.72c-4.49-4.84-9.44-9.25-14.76-13.15c-5.32-3.9-11.01-7.28-16.98-10.08
		c-5.96-2.81-12.19-5.02-18.57-6.64c-6.37-1.61-12.9-2.62-19.46-3c-6.56-0.38-13.14-0.14-19.65,0.71
		c-6.5,0.86-12.92,2.32-19.14,4.39c-6.22,2.06-12.23,4.73-17.93,7.94c-5.7,3.21-11.09,6.97-16.06,11.21
		C384.91,157.27,390.34,153.59,396.07,150.47z M382.1,176.36L382.1,176.36c0.01-0.01,0.01-0.01,0.01-0.01c0,0,0-0.01,0.01-0.01
		c0.42-0.43,0.62-0.98,0.62-1.53c0-0.55-0.22-1.1-0.65-1.52c-0.42-0.42-0.98-0.62-1.53-0.62c-0.55,0.01-1.1,0.22-1.52,0.65
		c-4.2,4.27-7.99,8.95-11.31,13.93c-3.32,4.98-6.16,10.28-8.46,15.79c-2.31,5.51-4.08,11.24-5.3,17.08
		c-1.22,5.84-1.88,11.79-1.98,17.75c-0.1,5.96,0.36,11.92,1.38,17.78c1.02,5.86,2.59,11.63,4.7,17.18
		c2.1,5.56,4.74,10.91,7.86,15.96c3.12,5.05,6.72,9.8,10.73,14.15c4.02,4.36,8.44,8.33,13.2,11.85c4.76,3.52,9.84,6.59,15.18,9.13
		c5.33,2.54,10.91,4.57,16.62,6.05c5.71,1.48,11.56,2.42,17.43,2.79c5.88,0.38,11.79,0.21,17.62-0.52c5.84-0.73,11.6-2,17.19-3.81
		c5.59-1.8,11-4.15,16.13-6.98c5.14-2.84,9.99-6.16,14.49-9.92c-4.55,3.69-9.45,6.94-14.61,9.68c-5.16,2.75-10.59,5-16.17,6.71
		c-5.58,1.71-11.32,2.89-17.12,3.52c-5.8,0.63-11.65,0.71-17.45,0.25c-5.8-0.46-11.56-1.48-17.17-3.02
		c-5.6-1.54-11.06-3.62-16.26-6.2c-5.2-2.58-10.15-5.66-14.75-9.18c-4.61-3.52-8.87-7.47-12.73-11.79c-3.85-4.32-7.29-9-10.25-13.96
		c-2.96-4.96-5.45-10.2-7.41-15.63c-1.96-5.43-3.4-11.04-4.3-16.73c-0.9-5.69-1.26-11.46-1.08-17.22
		c0.18-5.75,0.91-11.48,2.17-17.09c1.26-5.6,3.05-11.09,5.35-16.34c2.29-5.26,5.09-10.29,8.34-15.01
		C374.33,184.8,378.02,180.39,382.1,176.36L382.1,176.36z M401.84,159.11c5.16-2.75,10.59-5,16.17-6.71
		c5.58-1.71,11.32-2.89,17.12-3.52c5.8-0.63,11.65-0.71,17.45-0.25c5.8,0.46,11.56,1.48,17.17,3.02c5.6,1.54,11.06,3.62,16.26,6.2
		c5.2,2.57,10.15,5.66,14.75,9.18c4.61,3.52,8.87,7.47,12.73,11.79c3.85,4.32,7.29,9,10.25,13.96c2.96,4.96,5.45,10.2,7.41,15.63
		c1.97,5.43,3.4,11.04,4.3,16.73c0.9,5.69,1.26,11.46,1.08,17.22c-0.18,5.75-0.91,11.48-2.17,17.09c-1.26,5.6-3.05,11.09-5.35,16.34
		c-2.29,5.26-5.09,10.29-8.34,15.01c-3.25,4.72-6.94,9.12-11.01,13.14l-0.01,0.01l-0.01,0c0,0,0,0.01-0.01,0.01c0,0,0,0-0.01,0.01
		c-0.42,0.42-0.62,0.97-0.62,1.53c0,0.56,0.22,1.1,0.65,1.52c0.42,0.42,0.98,0.62,1.53,0.62c0.55,0,1.1-0.22,1.52-0.64
		c4.2-4.28,7.99-8.95,11.31-13.93c3.32-4.98,6.16-10.28,8.46-15.79c2.31-5.51,4.08-11.25,5.3-17.09c1.22-5.84,1.88-11.79,1.98-17.75
		c0.1-5.96-0.36-11.92-1.39-17.78c-1.02-5.86-2.59-11.63-4.7-17.18c-2.1-5.56-4.74-10.91-7.86-15.96
		c-3.12-5.05-6.72-9.79-10.73-14.15c-4.02-4.36-8.44-8.33-13.2-11.86c-4.76-3.52-9.84-6.58-15.18-9.12
		c-5.33-2.54-10.91-4.57-16.62-6.05c-5.71-1.48-11.56-2.42-17.44-2.8c-5.88-0.38-11.79-0.2-17.62,0.52c-5.84,0.73-11.6,2-17.19,3.81
		c-5.59,1.8-11,4.15-16.14,6.99c-5.14,2.83-9.99,6.16-14.49,9.92C391.78,165.1,396.68,161.86,401.84,159.11z M389.43,183.69
		L389.43,183.69c0.01-0.01,0.01-0.01,0.01-0.01c0,0,0.01-0.01,0.01-0.01c0.42-0.43,0.62-0.98,0.62-1.53
		c-0.01-0.55-0.22-1.1-0.65-1.52c-0.43-0.42-0.98-0.62-1.53-0.62c-0.55,0-1.1,0.22-1.52,0.65c-3.72,3.79-7.08,7.94-10.02,12.36
		c-2.94,4.42-5.46,9.11-7.51,14c-2.05,4.89-3.62,9.96-4.71,15.14c-1.09,5.18-1.69,10.45-1.78,15.73c-0.1,5.28,0.3,10.56,1.19,15.76
		c0.89,5.2,2.26,10.3,4.11,15.23c1.84,4.93,4.16,9.68,6.9,14.16c2.74,4.49,5.91,8.71,9.45,12.58c3.54,3.87,7.43,7.41,11.63,10.55
		c4.19,3.14,8.68,5.89,13.38,8.17c4.7,2.3,9.63,4.12,14.67,5.46c5.04,1.35,10.21,2.21,15.41,2.59c5.2,0.38,10.43,0.26,15.6-0.33
		c5.17-0.6,10.28-1.67,15.24-3.23c4.96-1.55,9.77-3.57,14.34-6.03c4.57-2.46,8.9-5.35,12.91-8.63c-4.07,3.21-8.44,6.02-13.04,8.39
		c-4.59,2.37-9.41,4.3-14.36,5.75c-4.95,1.45-10.04,2.44-15.17,2.94c-5.13,0.5-10.3,0.52-15.43,0.06c-5.12-0.47-10.2-1.4-15.14-2.82
		c-4.94-1.41-9.74-3.29-14.31-5.62c-4.57-2.32-8.91-5.08-12.96-8.22s-7.78-6.66-11.17-10.49c-3.39-3.83-6.39-7.99-8.98-12.39
		c-2.58-4.4-4.75-9.04-6.45-13.84c-1.7-4.8-2.95-9.76-3.71-14.78c-0.77-5.03-1.06-10.12-0.88-15.19c0.18-5.07,0.84-10.12,1.97-15.06
		c1.13-4.94,2.72-9.77,4.76-14.4c2.03-4.63,4.51-9.06,7.38-13.22C382.57,191.12,385.82,187.24,389.43,183.69L389.43,183.69z
		 M407.63,167.77c4.59-2.37,9.41-4.3,14.36-5.76c4.95-1.45,10.04-2.44,15.17-2.94c5.13-0.5,10.3-0.52,15.43-0.06
		c5.12,0.46,10.2,1.4,15.14,2.82c4.94,1.41,9.74,3.28,14.31,5.62c4.57,2.32,8.91,5.08,12.96,8.22c4.04,3.14,7.79,6.66,11.17,10.49
		c3.39,3.83,6.39,7.99,8.98,12.39c2.58,4.4,4.75,9.04,6.45,13.84c1.7,4.8,2.95,9.76,3.71,14.79c0.77,5.02,1.07,10.12,0.88,15.19
		c-0.18,5.07-0.85,10.13-1.97,15.06c-1.13,4.94-2.72,9.77-4.76,14.4c-2.03,4.63-4.51,9.06-7.38,13.22
		c-2.87,4.15-6.13,8.04-9.73,11.57l-0.01,0.01l0,0c0,0.01-0.01,0.01-0.01,0.01c0,0-0.01,0.01-0.01,0.01
		c-0.42,0.42-0.62,0.98-0.62,1.53c0,0.55,0.22,1.1,0.65,1.52c0.43,0.42,0.98,0.62,1.53,0.62c0.55-0.01,1.1-0.22,1.52-0.65
		c3.72-3.79,7.08-7.94,10.02-12.35c2.94-4.42,5.46-9.11,7.51-14c2.05-4.89,3.62-9.96,4.71-15.14c1.08-5.18,1.68-10.45,1.78-15.73
		c0.1-5.28-0.3-10.56-1.19-15.76c-0.89-5.19-2.26-10.3-4.11-15.23c-1.84-4.93-4.16-9.68-6.9-14.16c-2.74-4.49-5.91-8.71-9.45-12.58
		c-3.54-3.87-7.44-7.41-11.63-10.55c-4.19-3.14-8.68-5.89-13.38-8.17c-4.7-2.3-9.62-4.12-14.67-5.47
		c-5.04-1.34-10.21-2.21-15.41-2.59c-5.2-0.38-10.43-0.27-15.6,0.33c-5.17,0.6-10.28,1.68-15.24,3.23
		c-4.96,1.55-9.77,3.58-14.34,6.03c-4.57,2.45-8.9,5.35-12.91,8.63C398.66,172.95,403.04,170.14,407.63,167.77z M396.75,191.01
		L396.75,191.01c0.01-0.01,0.01-0.01,0.02-0.02c0,0,0.01-0.01,0.01-0.01c0.42-0.43,0.62-0.98,0.62-1.53
		c-0.01-0.55-0.22-1.1-0.65-1.52c-0.43-0.42-0.98-0.62-1.53-0.61c-0.55,0.01-1.1,0.22-1.52,0.65c-3.24,3.32-6.17,6.93-8.73,10.79
		c-2.57,3.85-4.76,7.94-6.55,12.21c-1.79,4.26-3.17,8.68-4.13,13.19c-0.96,4.51-1.49,9.11-1.58,13.71c-0.1,4.6,0.23,9.21,0.99,13.74
		c0.75,4.53,1.93,8.99,3.52,13.29c1.58,4.3,3.58,8.45,5.95,12.37c2.37,3.92,5.11,7.61,8.17,11c3.06,3.39,6.43,6.5,10.06,9.26
		c3.63,2.76,7.51,5.18,11.59,7.2c4.08,2.03,8.34,3.67,12.72,4.88c4.37,1.22,8.86,2.02,13.38,2.39c4.52,0.38,9.07,0.33,13.57-0.14
		c4.5-0.47,8.96-1.36,13.28-2.65c4.33-1.29,8.53-3,12.53-5.08c4-2.08,7.8-4.54,11.33-7.34c-3.58,2.72-7.42,5.1-11.44,7.1
		c-4.03,1.99-8.24,3.61-12.56,4.8c-4.32,1.2-8.75,1.99-13.21,2.36c-4.46,0.37-8.95,0.33-13.39-0.13c-4.45-0.45-8.84-1.33-13.11-2.61
		c-4.27-1.28-8.42-2.97-12.36-5.03c-3.94-2.06-7.69-4.5-11.17-7.25c-3.48-2.76-6.69-5.85-9.6-9.2c-2.91-3.35-5.49-6.97-7.7-10.8
		c-2.22-3.83-4.06-7.87-5.5-12.04c-1.45-4.17-2.49-8.48-3.13-12.84c-0.64-4.36-0.87-8.78-0.68-13.17c0.18-4.4,0.78-8.77,1.77-13.05
		c0.99-4.28,2.39-8.46,4.17-12.46c1.77-4.01,3.93-7.84,6.42-11.43C390.8,197.43,393.63,194.08,396.75,191.01L396.75,191.01z
		 M413.42,176.44c4.03-1.99,8.24-3.6,12.56-4.8c4.32-1.2,8.75-1.99,13.21-2.36c4.46-0.37,8.95-0.33,13.4,0.13
		c4.44,0.45,8.84,1.33,13.11,2.61c4.27,1.28,8.42,2.97,12.36,5.03c3.94,2.06,7.69,4.49,11.17,7.25c3.48,2.76,6.69,5.85,9.59,9.2
		c2.91,3.35,5.49,6.97,7.71,10.8c2.21,3.83,4.06,7.87,5.5,12.05c1.45,4.17,2.49,8.48,3.13,12.84c0.64,4.36,0.87,8.78,0.69,13.17
		c-0.18,4.4-0.78,8.77-1.77,13.05c-1,4.28-2.39,8.46-4.17,12.46c-1.78,4.01-3.93,7.84-6.43,11.43c-2.5,3.59-5.33,6.95-8.44,10.01
		l0,0l-0.01,0.01c0,0-0.01,0.01-0.01,0.01s-0.01,0.01-0.01,0.01c-0.42,0.43-0.62,0.98-0.62,1.53c0.01,0.55,0.22,1.1,0.65,1.52
		c0.43,0.42,0.98,0.62,1.53,0.61c0.55,0,1.1-0.22,1.52-0.65c3.24-3.31,6.17-6.93,8.73-10.78c2.57-3.85,4.76-7.94,6.55-12.21
		c1.79-4.26,3.17-8.69,4.13-13.2c0.96-4.51,1.49-9.11,1.58-13.7c0.1-4.6-0.23-9.21-0.99-13.74c-0.76-4.53-1.94-8.99-3.53-13.29
		c-1.58-4.31-3.58-8.45-5.95-12.37c-2.37-3.92-5.11-7.61-8.18-10.99c-3.05-3.39-6.43-6.5-10.06-9.26c-3.63-2.76-7.51-5.18-11.59-7.2
		c-4.07-2.03-8.34-3.67-12.72-4.88c-4.38-1.22-8.86-2.02-13.39-2.39c-4.52-0.38-9.07-0.32-13.57,0.14
		c-4.5,0.47-8.96,1.35-13.29,2.65c-4.33,1.29-8.53,3-12.53,5.08c-4,2.08-7.8,4.54-11.33,7.34
		C405.55,180.81,409.39,178.43,413.42,176.44z M404.08,198.34L404.08,198.34c0.01-0.01,0.01-0.01,0.02-0.02
		c0.01,0,0.01-0.01,0.02-0.01c0.41-0.43,0.62-0.98,0.61-1.53c-0.01-0.56-0.22-1.1-0.65-1.52c-0.43-0.42-0.98-0.62-1.53-0.61
		c-0.55,0-1.1,0.22-1.52,0.65c-2.76,2.83-5.25,5.92-7.44,9.21c-2.19,3.29-4.07,6.78-5.59,10.41c-1.53,3.63-2.72,7.4-3.54,11.25
		c-0.83,3.84-1.29,7.76-1.39,11.68c-0.1,3.92,0.17,7.85,0.79,11.71c0.62,3.87,1.6,7.67,2.93,11.34c1.33,3.67,3.01,7.22,5.01,10.57
		c1.99,3.35,4.3,6.51,6.88,9.42c2.59,2.89,5.44,5.57,8.5,7.95c3.06,2.38,6.34,4.48,9.8,6.23c3.45,1.76,7.06,3.19,10.77,4.27
		c3.71,1.08,7.51,1.82,11.35,2.19c3.83,0.38,7.7,0.4,11.53,0.06c3.83-0.33,7.63-1.02,11.33-2.05c3.7-1.03,7.29-2.41,10.73-4.11
		c3.43-1.7,6.7-3.72,9.74-6.04c-3.1,2.24-6.41,4.19-9.86,5.8c-3.46,1.61-7.06,2.9-10.75,3.84c-3.68,0.94-7.46,1.53-11.25,1.76
		c-3.79,0.24-7.59,0.13-11.35-0.33c-3.76-0.46-7.47-1.27-11.07-2.41c-3.6-1.14-7.1-2.62-10.41-4.42c-3.32-1.79-6.46-3.9-9.37-6.28
		c-2.91-2.38-5.61-5.03-8.04-7.88c-2.42-2.87-4.57-5.96-6.41-9.22s-3.37-6.69-4.56-10.24c-1.19-3.55-2.04-7.2-2.54-10.9
		c-0.51-3.7-0.67-7.43-0.49-11.15c0.18-3.72,0.71-7.41,1.58-11.03c0.86-3.61,2.06-7.14,3.58-10.51c1.52-3.38,3.35-6.61,5.47-9.64
		C399.04,203.75,401.43,200.92,404.08,198.34L404.08,198.34z M419.22,185.13c3.46-1.62,7.06-2.9,10.75-3.84
		c3.68-0.93,7.46-1.53,11.25-1.77c3.79-0.24,7.59-0.13,11.35,0.33c3.76,0.46,7.47,1.27,11.07,2.41c3.6,1.14,7.09,2.62,10.41,4.42
		c3.32,1.79,6.46,3.9,9.37,6.28c2.91,2.38,5.61,5.02,8.04,7.88c2.42,2.87,4.57,5.96,6.41,9.22s3.37,6.69,4.56,10.24
		c1.19,3.54,2.04,7.2,2.54,10.9c0.51,3.7,0.67,7.43,0.49,11.15c-0.18,3.72-0.71,7.42-1.58,11.03c-0.86,3.61-2.06,7.14-3.58,10.51
		c-1.52,3.38-3.35,6.61-5.47,9.64c-2.12,3.03-4.52,5.86-7.15,8.44l-0.01,0.01l0,0.01c-0.01,0-0.01,0.01-0.01,0.01
		c-0.01,0.01-0.01,0.01-0.02,0.01c-0.41,0.43-0.62,0.98-0.61,1.53c0.01,0.55,0.22,1.1,0.65,1.52c0.43,0.42,0.98,0.62,1.53,0.61
		c0.55-0.01,1.1-0.23,1.52-0.65c2.76-2.83,5.26-5.92,7.44-9.21c2.19-3.29,4.07-6.78,5.59-10.41c1.53-3.63,2.71-7.4,3.54-11.25
		c0.83-3.84,1.29-7.76,1.39-11.68c0.1-3.92-0.17-7.85-0.79-11.71c-0.62-3.87-1.61-7.67-2.93-11.34s-3.01-7.22-5.01-10.57
		s-4.3-6.51-6.88-9.42c-2.59-2.89-5.44-5.57-8.5-7.95c-3.06-2.38-6.34-4.48-9.8-6.23c-3.45-1.76-7.06-3.19-10.77-4.27
		c-3.71-1.08-7.51-1.82-11.35-2.19c-3.83-0.38-7.7-0.4-11.53-0.06c-3.83,0.33-7.63,1.02-11.33,2.05c-3.7,1.03-7.29,2.41-10.73,4.11
		c-3.43,1.7-6.7,3.72-9.75,6.04C412.46,188.68,415.77,186.74,419.22,185.13z M411.4,205.66L411.4,205.66
		c0.01-0.01,0.01-0.02,0.02-0.02c0.01-0.01,0.01-0.01,0.02-0.02c0.42-0.43,0.62-0.98,0.61-1.53c-0.01-0.55-0.23-1.1-0.66-1.52
		c-0.43-0.42-0.99-0.62-1.54-0.61c-0.55,0.01-1.1,0.23-1.52,0.66c-2.28,2.35-4.34,4.91-6.15,7.64c-1.81,2.72-3.37,5.61-4.63,8.62
		c-1.27,3-2.26,6.12-2.95,9.3c-0.69,3.18-1.09,6.41-1.19,9.66c-0.1,3.24,0.1,6.49,0.6,9.68c0.5,3.2,1.29,6.35,2.36,9.39
		c1.07,3.05,2.43,5.98,4.04,8.77c1.61,2.78,3.49,5.42,5.58,7.85c2.09,2.44,4.41,4.67,6.91,6.67c2.5,2,5.19,3.77,8.01,5.26
		c2.82,1.5,5.78,2.73,8.82,3.67c3.04,0.95,6.16,1.61,9.32,1.98c6.31,0.77,12.73,0.32,18.86-1.23c6.12-1.56,11.95-4.23,17.06-7.91
		c-5.22,3.54-11.08,6.02-17.19,7.38s-12.44,1.62-18.59,0.69c-3.07-0.45-6.11-1.19-9.04-2.19c-2.93-1.01-5.77-2.28-8.46-3.81
		c-2.69-1.53-5.23-3.31-7.59-5.3c-2.35-2-4.52-4.21-6.46-6.6c-1.94-2.39-3.65-4.96-5.11-7.65c-1.46-2.7-2.67-5.53-3.61-8.45
		c-0.93-2.91-1.6-5.91-1.98-8.94c-0.38-3.03-0.49-6.09-0.3-9.13c0.18-3.04,0.64-6.06,1.37-9.01c0.73-2.95,1.74-5.82,3-8.57
		c1.26-2.75,2.77-5.38,4.52-7.85C407.27,210.07,409.24,207.77,411.4,205.66L411.4,205.66z M433.97,190.97
		c6.1-1.36,12.44-1.61,18.59-0.69c3.07,0.45,6.11,1.18,9.04,2.19c2.93,1.01,5.77,2.28,8.46,3.81c2.69,1.52,5.23,3.3,7.59,5.3
		c2.36,2,4.52,4.21,6.46,6.6c1.94,2.39,3.65,4.96,5.11,7.65c1.46,2.7,2.67,5.53,3.61,8.44c0.93,2.91,1.6,5.91,1.99,8.94
		c0.38,3.03,0.49,6.09,0.3,9.13c-0.18,3.04-0.64,6.06-1.38,9.01c-0.73,2.95-1.74,5.82-3,8.57c-1.26,2.75-2.77,5.38-4.52,7.85
		c-1.74,2.46-3.71,4.77-5.86,6.87l-0.01,0l0,0c-0.01,0.01-0.01,0.01-0.02,0.02c-0.01,0.01-0.01,0.01-0.02,0.02
		c-0.42,0.43-0.62,0.98-0.61,1.53c0.01,0.55,0.23,1.1,0.66,1.52c0.43,0.41,0.99,0.61,1.54,0.61c0.55-0.01,1.1-0.23,1.52-0.66
		c2.28-2.35,4.34-4.91,6.15-7.63c1.81-2.72,3.37-5.61,4.63-8.62c1.27-3,2.26-6.12,2.96-9.3c0.69-3.18,1.09-6.42,1.19-9.66
		c0.1-3.24-0.1-6.49-0.6-9.69c-0.5-3.2-1.29-6.34-2.36-9.39c-1.07-3.05-2.43-5.98-4.05-8.77c-1.61-2.79-3.48-5.42-5.58-7.85
		c-2.09-2.43-4.41-4.67-6.91-6.67s-5.19-3.77-8.01-5.27s-5.78-2.72-8.82-3.67c-3.04-0.95-6.16-1.61-9.32-1.98
		c-6.31-0.76-12.73-0.32-18.86,1.24c-6.12,1.56-11.95,4.22-17.06,7.91C422,194.81,427.87,192.33,433.97,190.97z M418.73,212.98
		l0.01-0.01c0.01-0.01,0.01-0.01,0.02-0.03c0.01-0.01,0.02-0.01,0.03-0.02c0.41-0.43,0.61-0.99,0.6-1.54
		c-0.01-0.55-0.23-1.1-0.67-1.51c-0.43-0.41-0.99-0.61-1.54-0.6c-0.55,0.01-1.1,0.24-1.51,0.67c-1.79,1.88-3.42,3.92-4.84,6.08
		c-1.43,2.16-2.66,4.44-3.66,6.82c-1.01,2.38-1.79,4.84-2.35,7.35c-0.56,2.51-0.89,5.06-0.99,7.62c-0.21,5.12,0.54,10.26,2.16,15.09
		c1.62,4.83,4.1,9.35,7.36,13.24c1.63,1.94,3.42,3.74,5.35,5.36c1.93,1.62,4,3.07,6.19,4.31c2.18,1.25,4.49,2.28,6.86,3.09
		c2.37,0.81,4.82,1.39,7.29,1.76c4.94,0.74,10,0.56,14.85-0.49s9.5-2.96,13.62-5.68c-4.23,2.56-8.91,4.29-13.73,5.15
		c-4.82,0.86-9.78,0.86-14.57-0.04c-2.39-0.44-4.74-1.1-7.01-1.96c-2.26-0.86-4.45-1.94-6.5-3.22c-2.06-1.26-3.99-2.72-5.77-4.34
		c-1.78-1.62-3.42-3.39-4.9-5.28c-2.96-3.8-5.13-8.14-6.48-12.71c-1.35-4.57-1.87-9.38-1.5-14.09c0.18-2.36,0.57-4.7,1.16-6.98
		c0.6-2.28,1.4-4.5,2.4-6.63c0.99-2.13,2.18-4.16,3.54-6.06c1.36-1.91,2.89-3.69,4.56-5.32L418.73,212.98z M437.99,200.68
		c4.82-0.86,9.78-0.86,14.57,0.04c2.39,0.44,4.74,1.1,7.01,1.96c2.26,0.86,4.45,1.93,6.5,3.21c2.06,1.26,3.99,2.72,5.77,4.34
		c1.79,1.62,3.42,3.39,4.9,5.28c2.95,3.8,5.13,8.14,6.48,12.71c1.35,4.57,1.86,9.38,1.5,14.09c-0.18,2.36-0.57,4.7-1.17,6.98
		c-0.6,2.28-1.4,4.5-2.4,6.63c-0.99,2.13-2.18,4.16-3.54,6.06c-1.36,1.91-2.89,3.69-4.56,5.32l-0.01,0.01l-0.01,0.01
		c-0.01,0.01-0.01,0.01-0.02,0.02c-0.01,0.01-0.02,0.02-0.03,0.03c-0.41,0.43-0.61,0.99-0.6,1.54c0.01,0.55,0.23,1.1,0.67,1.51
		c0.43,0.41,0.99,0.61,1.54,0.6c0.55-0.01,1.1-0.23,1.51-0.66c1.79-1.88,3.42-3.92,4.84-6.07c1.43-2.16,2.66-4.45,3.66-6.82
		c1.01-2.37,1.8-4.84,2.36-7.34c0.56-2.51,0.89-5.07,0.99-7.63c0.21-5.12-0.54-10.26-2.16-15.09c-1.62-4.83-4.1-9.35-7.36-13.24
		c-1.63-1.93-3.42-3.74-5.35-5.36c-1.93-1.62-4-3.07-6.19-4.31c-2.19-1.25-4.49-2.28-6.86-3.09c-2.37-0.8-4.82-1.39-7.29-1.76
		c-4.94-0.74-10-0.56-14.84,0.49c-4.85,1.05-9.5,2.96-13.63,5.67C428.49,203.27,433.17,201.54,437.99,200.68z M426.05,220.32
		L426.05,220.32c0.01-0.02,0.03-0.03,0.04-0.04c0.01-0.01,0.02-0.02,0.03-0.04c0.41-0.43,0.61-0.99,0.59-1.54
		c-0.01-0.55-0.24-1.1-0.67-1.51c-0.43-0.41-0.99-0.61-1.54-0.59c-0.55,0.01-1.1,0.24-1.51,0.67c-2.64,2.78-4.75,6.02-6.25,9.51
		c-1.5,3.49-2.38,7.22-2.56,10.98c-0.23,3.76,0.27,7.54,1.39,11.1c1.12,3.56,2.87,6.92,5.15,9.83c2.24,2.94,5.03,5.44,8.15,7.37
		c3.12,1.94,6.56,3.32,10.12,4.05c3.57,0.72,7.24,0.79,10.81,0.24c3.57-0.54,7.02-1.71,10.15-3.44c-3.21,1.57-6.69,2.54-10.21,2.91
		s-7.09,0.11-10.5-0.76c-3.4-0.88-6.62-2.37-9.47-4.35c-2.85-1.99-5.35-4.46-7.3-7.3c-1.98-2.82-3.43-5.98-4.29-9.29
		c-0.86-3.3-1.13-6.75-0.75-10.12c0.34-3.37,1.3-6.65,2.77-9.65C421.65,225.35,423.64,222.62,426.05,220.32L426.05,220.32z
		 M442.05,210.5c3.52-0.36,7.09-0.11,10.5,0.76c3.4,0.88,6.62,2.37,9.47,4.35c2.85,1.99,5.35,4.46,7.3,7.3
		c1.98,2.82,3.43,5.98,4.29,9.29c0.86,3.3,1.13,6.75,0.75,10.12c-0.34,3.37-1.3,6.65-2.77,9.65c-1.48,3-3.46,5.73-5.87,8.03l-0.01,0
		l0,0c-0.01,0.01-0.03,0.02-0.04,0.03c-0.01,0.01-0.02,0.03-0.03,0.04c-0.41,0.44-0.61,0.99-0.59,1.54c0.01,0.55,0.24,1.1,0.67,1.51
		c0.43,0.41,0.99,0.61,1.54,0.59c0.55-0.01,1.1-0.24,1.51-0.67c2.64-2.78,4.75-6.02,6.25-9.51c1.5-3.49,2.38-7.22,2.57-10.98
		c0.22-3.76-0.27-7.54-1.39-11.1c-1.12-3.56-2.86-6.91-5.14-9.83c-2.25-2.94-5.03-5.44-8.15-7.37c-3.11-1.94-6.56-3.32-10.12-4.05
		c-3.57-0.72-7.24-0.79-10.81-0.24c-3.56,0.54-7.02,1.71-10.15,3.44C435.05,211.83,438.53,210.86,442.05,210.5z"/>
	<g>
		<g>
			<path class="st2" d="M596.48,271.07c-1.28-1.42-2.46-2.92-3.57-4.46c-0.83,0.2-1.67,0.36-2.5,0.46
				c-1.08,0.14-2.15,0.22-3.22,0.27c-0.52,0.02-1.03,0.04-1.54,0.05c-0.56,0.01-1.13,0.07-1.7,0.17c-1.08,0.19-2.16,0.53-3.17,0.92
				c-0.36,0.14-0.69,0.31-1.04,0.46c-4.28,3.7-8.38,7.5-12.13,11.36c-3.3,3.38-6.45,6.88-9.35,10.4l-0.66,0.8l1.01,0.33
				c2.78,0.89,5.81,1.57,9,2.01c2.66,0.36,5.47,0.56,8.35,0.59l1.54,0.01l0.24-1.04c0.9-3.94,2.16-7.93,3.74-11.87
				c1.03-2.57,2.26-5.14,3.59-7.71c0.15,1.38,0.29,2.78,0.52,4.13c0.52,3.15,1.25,6.26,2.17,9.25l0.21,0.68l1-0.41
				c2.74-1.12,5.47-2.45,8.12-3.97c2.21-1.27,4.38-2.69,6.45-4.2l1.11-0.81l-0.71-0.55C601.2,275.84,598.7,273.53,596.48,271.07z"/>
		</g>
		<g>
			<path class="st2" d="M681.83,241.93c-0.12-2.12-0.59-5.76-2.84-5.63c-26.46,4.54-54.05,8.33-80.65,12
				c-0.01,0.02,0,0.05-0.03,0.06l-0.26,0.07c-0.67,0.19-1.34,0.38-2.02,0.48c-0.68,0.11-1.38,0.13-2.06,0
				c-0.35-0.07-0.68-0.18-1.01-0.31c-0.3-0.12-0.61-0.23-0.91-0.34c-0.64-0.22-1.3-0.42-1.96-0.55c-0.43-0.09-0.86-0.13-1.3-0.15
				l-4.72,0.61c-9.49,1.23-19.74,2.75-29.23,3.98c-0.44,0.05-0.88,0.11-1.34,0.17c-0.42,0.05-0.82,0.19-1.18,0.4
				c-2.15,0.22-4.3,0.43-6.44,0.64l-0.65,1.66l0.54,2.09c-19.83,2.29-169.27,16.88-282.3,11.46l-0.25,0.02
				c-0.13-0.12-0.38-0.09-0.63-0.07c-1.49,7.52-2.8,15.64-1.54,23.17c0.25-0.02,0.51,0.08,0.88,0.05l0.37-0.03
				c47.37,0.89,94.99,0.27,142.7-1.69c-0.14,0.04-0.27,0.09-0.41,0.13c2.08-0.11,4.16-0.25,6.24-0.36c0.83-0.04,1.66-0.06,2.49-0.1
				c0.06-0.02,0.12-0.04,0.18-0.05c46.04-2.68,92.11-6.55,138.06-11.58c0.08,0.77,0.44,1.49,1.06,1.99c0.64,0.53,1.5,0.78,2.35,0.67
				l37.76-4.76c0.7-0.09,1.36-0.41,1.85-0.92c0.57-0.59,0.85-1.36,0.83-2.15c27.91-3.49,55.77-7.36,83.54-11.66
				c2.24-0.13,3.88-1.98,3.75-4.22C682.43,252.02,682.12,246.91,681.83,241.93z"/>
		</g>
	</g>
	<g>
		<path class="st3" d="M270.65,240.94c-30.66,0-60.27-0.66-88.03-1.95c-12.17-2.98-21.66-8.82-27.43-16.93l16.27,0.39
			c20.17,0.59,40.95,0.89,61.76,0.89c29.87,0,60.86-0.62,92.09-1.83c78.96-2.98,158.8-10.09,237.28-21.14
			c0.25,0.47,0.48,1.01,0.72,1.66c0.66,1.82,1.07,3.73,1.39,5.37c0.12,0.62,0.5,2.72,0.5,2.72c0.07,0.39,0.15,0.78,0.2,1.18
			c0.07,0.57,0.13,1.17,0.16,1.78c0.12,2.37-0.1,4.74-0.37,7.38l-0.02,0.24c-88.27,11.54-159.66,17.54-231.4,19.44l-1.68,0.04
			l0.01,0.04c-0.55,0.01-3.6,0.06-4.58,0.08c-1.6,0.04-3.2,0.08-4.79,0.13c-2.24,0.06-4.43,0.13-6.63,0.17l-0.36-0.07l-0.12,0
			C300.4,240.79,285.27,240.94,270.65,240.94z"/>
		<g>
			<path class="st4" d="M736.85,166.46c-29.41,7.87-144.84,28.37-173.3,32.39c0.13,0.2,0.26,0.39,0.37,0.59
				c0.44,0.81,0.79,1.68,1.08,2.56c0.61,1.81,1.01,3.69,1.37,5.57c0.15,0.8,0.29,1.6,0.44,2.39c0.24,1.25,0.35,2.52,0.38,3.8
				c0.06,2.56-0.7,1.15-0.96,3.69c-0.02,0.15,0.45,4.26,0.44,4.41c28.22-2.43,145.39-23.11,176.66-29.58
				C744.5,182.76,742.85,173.99,736.85,166.46z"/>
		</g>
		<g>
			<path d="M270.65,242.02c-30.66,0-60.3-0.66-88.08-1.96c-13.48-3.27-23.66-9.89-29.43-19.14l18.34,0.44
				c20.15,0.59,40.92,0.89,61.73,0.89c29.85,0,60.82-0.61,92.05-1.83c79.17-2.99,159.2-10.13,237.89-21.24
				c0.02,0.03,0.05,0.06,0.07,0.1c0.4,0.65,0.75,1.4,1.1,2.36c0.69,1.89,1.11,3.86,1.44,5.53c0.13,0.69,0.26,1.39,0.38,2.08
				l0.12,0.65c0.08,0.41,0.15,0.82,0.21,1.23c0.08,0.6,0.13,1.23,0.17,1.87c0.12,2.44-0.1,4.86-0.37,7.54l-0.1,1.09
				c-88.69,11.62-160.37,17.65-232.37,19.56l-0.35,0.01l0.01,0.04c-1,0.02-1.99,0.04-2.98,0.06c-0.98,0.02-1.95,0.03-2.94,0.05
				c-1.61,0.04-3.22,0.08-4.82,0.13c-2.23,0.06-4.47,0.13-6.73,0.17l-0.36-0.07C300.36,241.87,285.23,242.02,270.65,242.02z
				 M158.75,224.16c5.67,6.25,13.79,10.71,24.14,13.25c30.69,1.4,61.99,2.11,93.07,2.11c17.95,0,36.22-0.24,54.29-0.7
				c75.66-2.63,154.14-9.19,233.27-19.49l0.22-0.03l0.02-0.22c0.18-1.9,0.34-3.93,0.24-5.94c-0.03-0.55-0.08-1.11-0.15-1.66
				c-0.05-0.36-0.11-0.71-0.18-1.07l0,0c0,0-0.36-2.02-0.5-2.74c-0.31-1.58-0.71-3.42-1.33-5.14l-0.19-0.49l-0.22,0.03
				c-75.3,10.55-152.29,17.49-228.85,20.6l-0.4,0.02l0.02,0.05c-5.18,0.21-10.35,0.39-15.52,0.58l-0.19,0.01
				c-29.34,1.03-58.05,1.55-85.34,1.55c-20.47,0-40.56-0.29-59.73-0.87l-13.13-0.33L158.75,224.16z"/>
		</g>
		<g>
			<path d="M234.41,230.5c-18.6,0-37.48-0.23-56.11-0.69l-0.18-0.09c-0.47-0.26-0.92-0.54-1.37-0.83c-0.46-0.3-0.9-0.61-1.34-0.94
				c-0.09-0.06-0.17-0.13-0.25-0.19c19.41,0.51,39.09,0.76,58.5,0.76c27.42,0,55.3-0.51,82.86-1.53l0.27-0.01v0l4.54-0.17
				c3.17-0.12,6.34-0.24,9.5-0.37l0.26,0.01c68.2-2.76,138.06-8.77,207.64-17.88c0.12,0.48,0.2,0.97,0.28,1.46
				c0,0,0.06,0.39,0.09,0.52c-69.55,9.09-139.38,15.1-207.58,17.86l-0.35,0.01l0,0l-2.07,0.08
				C297.79,229.83,265.93,230.5,234.41,230.5C234.41,230.5,234.42,230.5,234.41,230.5z"/>
		</g>
		<g>
			<polygon class="st5" points="583.16,207.38 578.63,200.49 574.84,209.43 580.06,215.72 			"/>
		</g>
		<g>
			<polygon class="st5" points="591.28,214.22 594.88,207.01 588.58,199.35 585.47,207.68 			"/>
		</g>
		<g>
			<polygon class="st5" points="602.19,212.46 605.79,205.11 599.49,197.45 596.38,205.78 			"/>
		</g>
		<g>
			<polygon class="st5" points="613.1,210.56 616.69,203.2 610.4,195.54 607.29,203.88 			"/>
		</g>
		<g>
			<polygon class="st5" points="624.01,208.65 627.61,201.44 621.31,193.78 618.2,201.97 			"/>
		</g>
		<g>
			<polygon class="st5" points="634.92,206.75 638.52,199.54 632.22,191.88 629.11,200.07 			"/>
		</g>
		<g>
			<polygon class="st5" points="645.83,204.85 649.43,197.63 643.13,189.98 640.03,198.31 			"/>
		</g>
		<g>
			<polygon class="st5" points="657.08,203.15 660.53,195.8 654.24,188.29 651.12,196.48 			"/>
		</g>
		<g>
			<polygon class="st5" points="668.84,201.06 672.29,193.85 665.99,186.19 662.88,194.38 			"/>
		</g>
		<g>
			<polygon class="st5" points="680.59,198.96 684.05,191.76 677.75,184.1 674.64,192.29 			"/>
		</g>
		<g>
			<path class="st4" d="M561.39,201.17c-5.82,0.76-12.27,2.22-18.1,2.98c1.4,4.5,2.89,12.87,3.29,17.42
				c5.25-0.72,12.8-1.53,18.06-2.25c-0.47-5.84-1.77-11.76-3.28-15.82L561.39,201.17z"/>
		</g>
		<g>
			<path class="st4" d="M568.2,236.27c-2.41,0.42-5.88-5.39-8.51-13.83c1.28-0.22,2.82-0.73,4.24-0.96
				c0.93-3.77-2.08-19.2-5.36-21.45c-1.13,0.21-2.13,0.26-3.26,0.47c-0.95-9.25-0.06-16.31,2.34-16.87
				C565.71,182.04,576.26,234.53,568.2,236.27L568.2,236.27z"/>
		</g>
		<g>
			<path class="st6" d="M548.58,219.38c2.56-0.05,5.14-0.11,7.74-0.02c-2.67,0.6-5.37,0.94-8.1,1.09l-0.35,0.02l0,0
				c-0.02-2.57-1.67-10.07-1.92-12.27C546.76,210.07,548.64,217.69,548.58,219.38z"/>
		</g>
		<g>
			<polygon class="st5" points="689.92,196.13 692.66,189.18 686.44,182.06 684.05,189.8 			"/>
		</g>
		<g>
			<polygon class="st5" points="700.62,194.16 703.38,187.35 697.14,180.09 694.75,187.84 			"/>
		</g>
		<g>
			<polygon class="st5" points="711.31,192.19 714.07,185.38 707.83,178.13 705.44,185.87 			"/>
		</g>
		<g>
			<polygon class="st5" points="721.16,189.73 724.06,182.91 717.68,175.66 715.29,183.41 			"/>
		</g>
		<g>
			<path class="st3" d="M734.09,168.28l-3.79,0.9c3.85,3.58,7.93,19.53,5.7,24.05l3.79-0.9
				C742.02,187.81,737.94,171.86,734.09,168.28z"/>
		</g>
	</g>
</g>
</svg>
