<?xml version="1.0" encoding="utf-8"?>
<!-- Generator: Adobe Illustrator 24.0.1, SVG Export Plug-In . SVG Version: 6.00 Build 0)  -->
<svg version="1.1" id="Layer_1" xmlns="http://www.w3.org/2000/svg" xmlns:xlink="http://www.w3.org/1999/xlink" x="0px" y="0px"
	 viewBox="0 0 891.39 456.79" style="enable-background:new 0 0 891.39 456.79;" xml:space="preserve">
<style type="text/css">
	.st0{opacity:0;fill:#FFFFFF;}
	.st1{fill:url(#SVGID_1_);}
	.st2{fill:#FFFFFF;}
	.st3{fill-rule:evenodd;clip-rule:evenodd;}
	.st4{fill:#F4F4F4;}
	.st5{fill-rule:evenodd;clip-rule:evenodd;fill:#FFFFFF;}
</style>
<g>
	<rect y="0" class="st0" width="891.39" height="456.79"/>
	<linearGradient id="SVGID_1_" gradientUnits="userSpaceOnUse" x1="282.8174" y1="254.7099" x2="597.8931" y2="254.7099">
		<stop  offset="5.617738e-03" style="stop-color:#8C6A33"/>
		<stop  offset="0.139" style="stop-color:#9A7638"/>
		<stop  offset="0.3542" style="stop-color:#A9843E"/>
		<stop  offset="0.5225" style="stop-color:#AF8940"/>
		<stop  offset="1" style="stop-color:#8C6A33"/>
	</linearGradient>
	<path class="st1" d="M290.51,260c-2.12,0-4.05-0.86-5.44-2.25c-1.39-1.39-2.25-3.31-2.25-5.44c0-2.12,0.86-4.05,2.25-5.44
		c1.39-1.39,3.31-2.25,5.44-2.25c2.12,0,4.04,0.86,5.44,2.25c1.39,1.39,2.25,3.31,2.25,5.44c0,2.12-0.86,4.04-2.25,5.44
		C294.55,259.14,292.63,260,290.51,260z M296.78,237.34c1.27-1.27,2.06-3.04,2.06-4.99c0-1.94-0.79-3.71-2.06-4.98
		c-1.28-1.27-3.04-2.06-4.99-2.06s-3.71,0.79-4.98,2.06c-1.28,1.27-2.06,3.04-2.06,4.98c0,1.95,0.79,3.71,2.06,4.99
		c1.27,1.27,3.04,2.06,4.98,2.06S295.5,238.61,296.78,237.34z M300.21,217.25c1.16-1.16,1.88-2.76,1.88-4.53
		c0-1.77-0.72-3.37-1.88-4.53c-1.16-1.16-2.76-1.88-4.53-1.88c-1.77,0-3.37,0.72-4.53,1.88c-1.16,1.16-1.87,2.76-1.87,4.53
		c0,1.77,0.71,3.37,1.87,4.53c1.16,1.16,2.76,1.87,4.53,1.87C297.45,219.13,299.05,218.41,300.21,217.25z M306.19,197.86
		c1.04-1.04,1.69-2.49,1.69-4.08c0-1.59-0.65-3.03-1.69-4.07c-1.04-1.04-2.49-1.69-4.08-1.69c-1.59,0-3.04,0.65-4.08,1.69
		c-1.04,1.04-1.69,2.49-1.69,4.07c0,1.59,0.64,3.04,1.69,4.08s2.49,1.69,4.08,1.69C303.7,199.54,305.15,198.9,306.19,197.86z
		 M314.59,179.47c0.93-0.92,1.5-2.21,1.5-3.62c0-1.41-0.57-2.7-1.5-3.62c-0.93-0.93-2.21-1.5-3.62-1.5c-1.42,0-2.7,0.57-3.62,1.5
		c-0.93,0.93-1.5,2.21-1.5,3.62c0,1.41,0.57,2.7,1.5,3.62c0.92,0.93,2.21,1.5,3.62,1.5C312.39,180.97,313.67,180.4,314.59,179.47z
		 M325.27,162.39c0.81-0.81,1.31-1.93,1.31-3.17c0-1.24-0.5-2.36-1.31-3.17c-0.81-0.81-1.93-1.31-3.17-1.31s-2.36,0.5-3.17,1.31
		c-0.81,0.81-1.31,1.93-1.31,3.17c0,1.24,0.5,2.36,1.31,3.17c0.81,0.81,1.93,1.31,3.17,1.31S324.46,163.2,325.27,162.39z
		 M338.02,146.9c0.7-0.7,1.13-1.66,1.13-2.72s-0.43-2.02-1.13-2.72c-0.7-0.7-1.66-1.12-2.71-1.12c-1.06,0-2.02,0.43-2.72,1.12
		c-0.7,0.7-1.12,1.66-1.12,2.72s0.43,2.02,1.12,2.72c0.7,0.7,1.66,1.12,2.72,1.12C336.36,148.03,337.32,147.6,338.02,146.9z
		 M352.6,133.26c0.58-0.58,0.94-1.38,0.94-2.26c0-0.89-0.36-1.69-0.94-2.27c-0.58-0.58-1.38-0.94-2.26-0.94s-1.69,0.36-2.26,0.94
		c-0.58,0.58-0.94,1.38-0.94,2.27c0,0.88,0.36,1.68,0.94,2.26c0.58,0.58,1.38,0.94,2.26,0.94S352.02,133.84,352.6,133.26z
		 M368.77,121.68c0.46-0.46,0.75-1.1,0.75-1.81c0-0.71-0.29-1.35-0.75-1.81c-0.46-0.46-1.11-0.75-1.81-0.75
		c-0.71,0-1.35,0.29-1.81,0.75c-0.47,0.46-0.75,1.1-0.75,1.81c0,0.71,0.29,1.35,0.75,1.81c0.46,0.46,1.1,0.75,1.81,0.75
		C367.67,122.43,368.31,122.14,368.77,121.68z M386.26,112.37c0.35-0.35,0.56-0.83,0.56-1.36s-0.21-1.01-0.56-1.36
		c-0.35-0.35-0.83-0.56-1.36-0.56c-0.53,0-1.01,0.21-1.36,0.56c-0.35,0.35-0.56,0.83-0.56,1.36s0.21,1.01,0.56,1.36
		c0.35,0.35,0.83,0.56,1.36,0.56C385.43,112.93,385.91,112.71,386.26,112.37z M404.75,105.48c0.23-0.23,0.37-0.55,0.37-0.9
		s-0.14-0.67-0.37-0.91c-0.23-0.23-0.55-0.37-0.91-0.37c-0.35,0-0.67,0.14-0.91,0.37c-0.23,0.23-0.38,0.55-0.38,0.91
		s0.14,0.67,0.38,0.9c0.24,0.23,0.55,0.38,0.91,0.38C404.19,105.86,404.52,105.72,404.75,105.48z M423.91,101.15
		c0.12-0.11,0.19-0.27,0.19-0.45c0-0.17-0.07-0.34-0.19-0.45c-0.11-0.12-0.27-0.19-0.45-0.19c-0.18,0-0.34,0.07-0.45,0.19
		c-0.12,0.11-0.19,0.27-0.19,0.45c0,0.18,0.07,0.34,0.19,0.45c0.11,0.12,0.27,0.19,0.45,0.19
		C423.64,101.34,423.8,101.27,423.91,101.15z M321.18,292.39c1.39-1.39,2.25-3.31,2.25-5.44c0-2.12-0.86-4.04-2.25-5.44
		s-3.31-2.25-5.44-2.25s-4.04,0.86-5.44,2.25c-1.39,1.39-2.25,3.31-2.25,5.44c0,2.12,0.86,4.05,2.25,5.44
		c1.39,1.39,3.31,2.25,5.44,2.25S319.79,293.78,321.18,292.39z M316.77,271.44c1.25-1.25,2.02-2.98,2.02-4.89
		c0-1.91-0.77-3.64-2.02-4.89c-1.25-1.25-2.98-2.03-4.89-2.03c-1.91,0-3.64,0.77-4.89,2.03c-1.25,1.25-2.03,2.98-2.03,4.89
		c0,1.91,0.77,3.64,2.03,4.89c1.25,1.25,2.98,2.02,4.89,2.02C313.78,273.46,315.51,272.69,316.77,271.44z M315.59,250.13
		c1.11-1.11,1.8-2.65,1.8-4.35c0-1.7-0.69-3.24-1.8-4.35c-1.11-1.11-2.65-1.8-4.35-1.8c-1.7,0-3.24,0.69-4.35,1.8
		c-1.11,1.11-1.8,2.65-1.8,4.35c0,1.7,0.69,3.24,1.8,4.35c1.11,1.11,2.65,1.8,4.35,1.8C312.94,251.93,314.48,251.24,315.59,250.13z
		 M317.71,228.98c0.97-0.97,1.57-2.32,1.57-3.8c0-1.49-0.6-2.83-1.57-3.81c-0.97-0.97-2.32-1.57-3.81-1.57
		c-1.49,0-2.83,0.6-3.8,1.57c-0.97,0.97-1.58,2.32-1.58,3.81c0,1.48,0.6,2.83,1.58,3.8c0.97,0.97,2.32,1.57,3.8,1.57
		C315.39,230.55,316.73,229.95,317.71,228.98z M323.02,208.51c0.84-0.84,1.35-1.99,1.35-3.26c0-1.27-0.52-2.43-1.35-3.26
		c-0.84-0.84-1.99-1.35-3.26-1.35c-1.27,0-2.43,0.51-3.26,1.35c-0.84,0.84-1.35,1.99-1.35,3.26c0,1.27,0.52,2.42,1.35,3.26
		c0.83,0.83,1.99,1.35,3.26,1.35C321.03,209.86,322.18,209.34,323.02,208.51z M331.35,189.18c0.7-0.7,1.13-1.66,1.13-2.72
		s-0.43-2.02-1.13-2.72s-1.66-1.12-2.72-1.12s-2.02,0.43-2.72,1.12c-0.7,0.7-1.12,1.66-1.12,2.72s0.43,2.02,1.12,2.72
		c0.7,0.7,1.66,1.13,2.72,1.13S330.66,189.88,331.35,189.18z M342.5,171.47c0.56-0.56,0.9-1.32,0.9-2.17c0-0.85-0.34-1.62-0.9-2.17
		c-0.56-0.55-1.32-0.9-2.17-0.9s-1.62,0.35-2.17,0.9c-0.56,0.56-0.9,1.33-0.9,2.17c0,0.85,0.34,1.62,0.9,2.17
		c0.56,0.56,1.32,0.9,2.17,0.9S341.94,172.02,342.5,171.47z M356.17,155.78c0.41-0.42,0.67-1,0.67-1.63s-0.26-1.21-0.67-1.63
		c-0.42-0.41-1-0.67-1.63-0.67c-0.64,0-1.21,0.26-1.63,0.67c-0.42,0.42-0.67,1-0.67,1.63s0.26,1.21,0.67,1.63
		c0.42,0.41,1,0.67,1.63,0.67C355.18,156.45,355.76,156.19,356.17,155.78z M372.05,142.5c0.27-0.28,0.45-0.66,0.45-1.09
		c0-0.42-0.18-0.81-0.45-1.09c-0.28-0.28-0.66-0.45-1.09-0.45c-0.42,0-0.81,0.17-1.09,0.45c-0.28,0.28-0.45,0.66-0.45,1.09
		c0,0.42,0.17,0.81,0.45,1.09c0.28,0.28,0.66,0.45,1.09,0.45C371.38,142.95,371.77,142.78,372.05,142.5z M389.72,131.98
		c0.14-0.14,0.22-0.33,0.22-0.55c0-0.21-0.09-0.4-0.22-0.54s-0.33-0.22-0.55-0.22c-0.21,0-0.4,0.09-0.54,0.22s-0.23,0.33-0.23,0.54
		c0,0.21,0.09,0.41,0.23,0.55c0.14,0.14,0.33,0.22,0.54,0.22C389.38,132.2,389.58,132.12,389.72,131.98z M352.11,313.47
		c1.39-1.39,2.25-3.31,2.25-5.44c0-2.12-0.86-4.05-2.25-5.44c-1.39-1.39-3.31-2.25-5.44-2.25c-2.12,0-4.04,0.86-5.44,2.25
		c-1.39,1.39-2.25,3.31-2.25,5.44c0,2.12,0.86,4.04,2.25,5.44c1.39,1.39,3.31,2.25,5.44,2.25
		C348.8,315.72,350.72,314.86,352.11,313.47z M343.25,295.2c1.24-1.24,2-2.95,2-4.84c0-1.89-0.76-3.6-2-4.83
		c-1.24-1.24-2.95-2-4.83-2c-1.89,0-3.6,0.76-4.84,2c-1.24,1.24-2,2.95-2,4.83c0,1.89,0.76,3.6,2,4.84c1.24,1.24,2.95,2,4.84,2
		C340.3,297.2,342.01,296.43,343.25,295.2z M337.59,275.75c1.08-1.08,1.75-2.57,1.75-4.23c0-1.65-0.67-3.15-1.75-4.23
		s-2.58-1.75-4.23-1.75s-3.15,0.67-4.23,1.75c-1.08,1.08-1.75,2.58-1.75,4.23c0,1.65,0.67,3.15,1.75,4.23
		c1.08,1.08,2.58,1.75,4.23,1.75S336.51,276.83,337.59,275.75z M335.31,255.72c0.92-0.93,1.5-2.21,1.5-3.62
		c0-1.41-0.57-2.7-1.5-3.62c-0.93-0.93-2.21-1.5-3.62-1.5c-1.42,0-2.7,0.57-3.62,1.5c-0.93,0.92-1.5,2.21-1.5,3.62
		c0,1.42,0.57,2.7,1.5,3.62c0.93,0.93,2.21,1.5,3.62,1.5C333.1,257.22,334.38,256.65,335.31,255.72z M336.43,235.69
		c0.77-0.77,1.25-1.84,1.25-3.02c0-1.18-0.48-2.25-1.25-3.02c-0.77-0.77-1.84-1.25-3.02-1.25c-1.18,0-2.25,0.48-3.02,1.25
		c-0.77,0.77-1.25,1.84-1.25,3.02c0,1.18,0.48,2.24,1.25,3.02c0.77,0.77,1.84,1.25,3.02,1.25
		C334.58,236.94,335.65,236.46,336.43,235.69z M340.86,216.24c0.62-0.62,1-1.47,1-2.41c0-0.95-0.38-1.8-1-2.42s-1.47-1-2.42-1
		c-0.94,0-1.8,0.38-2.41,1s-1,1.47-1,2.42c0,0.94,0.38,1.8,1,2.41s1.47,1,2.41,1C339.39,217.24,340.24,216.86,340.86,216.24z
		 M348.47,197.95c0.46-0.46,0.75-1.11,0.75-1.81c0-0.71-0.29-1.35-0.75-1.81c-0.47-0.46-1.11-0.75-1.81-0.75
		c-0.71,0-1.35,0.29-1.81,0.75c-0.47,0.46-0.75,1.1-0.75,1.81c0,0.71,0.29,1.35,0.75,1.81c0.46,0.46,1.1,0.75,1.81,0.75
		C347.36,198.7,348,198.41,348.47,197.95z M359.02,181.35c0.31-0.31,0.5-0.74,0.5-1.21s-0.19-0.9-0.5-1.21
		c-0.31-0.31-0.74-0.5-1.21-0.5s-0.9,0.19-1.21,0.5c-0.31,0.31-0.5,0.74-0.5,1.21s0.19,0.9,0.5,1.21c0.31,0.31,0.74,0.5,1.21,0.5
		S358.71,181.66,359.02,181.35z M372.2,166.95c0.15-0.15,0.25-0.37,0.25-0.6s-0.1-0.45-0.25-0.6s-0.37-0.25-0.6-0.25
		c-0.24,0-0.45,0.1-0.6,0.25c-0.16,0.15-0.25,0.37-0.25,0.6s0.09,0.45,0.25,0.6c0.15,0.15,0.37,0.25,0.6,0.25
		C371.83,167.2,372.05,167.1,372.2,166.95z M384.5,322.06c1.39-1.39,2.25-3.31,2.25-5.44s-0.86-4.04-2.25-5.44
		c-1.39-1.39-3.31-2.25-5.44-2.25c-2.12,0-4.05,0.86-5.44,2.25c-1.39,1.39-2.25,3.31-2.25,5.44s0.86,4.04,2.25,5.44
		c1.39,1.39,3.31,2.25,5.44,2.25C381.19,324.31,383.11,323.45,384.5,322.06z M370.93,305.31c1.19-1.19,1.93-2.84,1.93-4.66
		c0-1.82-0.74-3.46-1.93-4.66c-1.19-1.19-2.84-1.93-4.66-1.93c-1.82,0-3.46,0.74-4.66,1.93c-1.19,1.19-1.93,2.84-1.93,4.66
		c0,1.82,0.74,3.47,1.93,4.66s2.84,1.93,4.66,1.93C368.09,307.24,369.74,306.5,370.93,305.31z M361.26,286.1
		c0.99-1,1.61-2.37,1.61-3.89c0-1.51-0.61-2.89-1.61-3.88c-1-0.99-2.37-1.61-3.89-1.61c-1.51,0-2.89,0.61-3.88,1.61
		c-0.99,0.99-1.61,2.37-1.61,3.88c0,1.52,0.61,2.89,1.61,3.89c0.99,0.99,2.37,1.61,3.88,1.61
		C358.89,287.71,360.26,287.1,361.26,286.1z M355.92,265.38c0.8-0.79,1.29-1.89,1.29-3.1s-0.49-2.31-1.29-3.11
		c-0.79-0.8-1.89-1.29-3.11-1.29s-2.31,0.49-3.11,1.29c-0.79,0.79-1.29,1.89-1.29,3.11s0.49,2.31,1.29,3.1
		c0.8,0.8,1.89,1.29,3.11,1.29S355.13,266.17,355.92,265.38z M355.11,244.14c0.6-0.6,0.96-1.42,0.96-2.33s-0.37-1.73-0.96-2.33
		c-0.6-0.6-1.42-0.97-2.33-0.97c-0.91,0-1.74,0.37-2.33,0.97c-0.6,0.6-0.96,1.42-0.96,2.33s0.37,1.73,0.96,2.33
		c0.6,0.6,1.42,0.96,2.33,0.96C353.69,245.1,354.51,244.73,355.11,244.14z M358.82,223.39c0.4-0.4,0.64-0.95,0.64-1.55
		s-0.25-1.16-0.64-1.55c-0.4-0.4-0.95-0.64-1.55-0.64c-0.6,0-1.15,0.25-1.55,0.64c-0.4,0.4-0.65,0.95-0.65,1.55s0.25,1.15,0.65,1.55
		c0.4,0.4,0.95,0.64,1.55,0.64C357.88,224.04,358.43,223.79,358.82,223.39z M366.88,204.16c0.2-0.2,0.32-0.47,0.32-0.78
		s-0.12-0.58-0.32-0.78c-0.2-0.2-0.47-0.32-0.77-0.32s-0.58,0.13-0.77,0.32c-0.2,0.2-0.32,0.47-0.32,0.78s0.12,0.58,0.32,0.78
		c0.2,0.2,0.47,0.32,0.77,0.32S366.69,204.35,366.88,204.16z M413.61,318.47c1.39-1.39,2.25-3.31,2.25-5.44
		c0-2.12-0.86-4.04-2.25-5.43c-1.39-1.39-3.31-2.25-5.44-2.25c-2.12,0-4.05,0.86-5.44,2.25c-1.39,1.39-2.25,3.31-2.25,5.43
		c0,2.12,0.86,4.05,2.25,5.44c1.39,1.39,3.31,2.25,5.44,2.25C410.29,320.72,412.22,319.86,413.61,318.47z M395.27,303.43
		c1.11-1.11,1.8-2.65,1.8-4.35c0-1.7-0.69-3.24-1.8-4.35c-1.11-1.11-2.65-1.8-4.35-1.8c-1.7,0-3.24,0.69-4.35,1.8
		c-1.11,1.11-1.8,2.65-1.8,4.35c0,1.7,0.69,3.24,1.8,4.35c1.11,1.11,2.65,1.8,4.35,1.8C392.62,305.23,394.16,304.54,395.27,303.43z
		 M382.12,283.73c0.83-0.84,1.35-1.99,1.35-3.26c0-1.27-0.52-2.42-1.35-3.26c-0.84-0.84-1.99-1.35-3.26-1.35
		c-1.27,0-2.43,0.51-3.26,1.35c-0.84,0.84-1.35,1.99-1.35,3.26c0,1.27,0.51,2.43,1.35,3.26c0.83,0.83,1.99,1.35,3.26,1.35
		C380.13,285.08,381.29,284.56,382.12,283.73z M375.29,261.22c0.56-0.56,0.9-1.33,0.9-2.18c0-0.85-0.34-1.61-0.9-2.17
		s-1.32-0.9-2.17-0.9c-0.85,0-1.62,0.34-2.17,0.9c-0.56,0.56-0.9,1.32-0.9,2.17c0,0.85,0.35,1.62,0.9,2.18
		c0.55,0.55,1.32,0.9,2.17,0.9C373.96,262.12,374.73,261.77,375.29,261.22z M375.32,237.97c0.28-0.28,0.45-0.66,0.45-1.09
		c0-0.42-0.17-0.81-0.45-1.09s-0.66-0.45-1.09-0.45s-0.81,0.17-1.09,0.45c-0.27,0.28-0.45,0.66-0.45,1.09
		c0,0.42,0.17,0.81,0.45,1.09c0.28,0.27,0.66,0.45,1.09,0.45S375.05,238.25,375.32,237.97z M435.91,305.71
		c1.39-1.39,2.25-3.31,2.25-5.44c0-2.12-0.86-4.04-2.25-5.44c-1.39-1.39-3.31-2.25-5.44-2.25s-4.05,0.86-5.44,2.25
		c-1.39,1.39-2.25,3.31-2.25,5.44c0,2.12,0.86,4.05,2.25,5.44c1.39,1.39,3.31,2.25,5.44,2.25S434.51,307.1,435.91,305.71z
		 M416.91,295.65c1.04-1.04,1.69-2.49,1.69-4.08c0-1.59-0.64-3.03-1.69-4.07c-1.04-1.04-2.49-1.69-4.08-1.69
		c-1.59,0-3.04,0.65-4.08,1.69c-1.04,1.04-1.69,2.49-1.69,4.07c0,1.59,0.64,3.04,1.69,4.08s2.49,1.69,4.08,1.69
		C414.43,297.34,415.87,296.7,416.91,295.65z M402.6,279.5c0.69-0.7,1.12-1.66,1.12-2.72c0-1.06-0.43-2.02-1.12-2.72
		c-0.7-0.69-1.66-1.12-2.72-1.12s-2.02,0.43-2.72,1.12c-0.7,0.7-1.12,1.66-1.12,2.72c0,1.06,0.43,2.02,1.12,2.72
		c0.7,0.7,1.66,1.12,2.72,1.12S401.91,280.19,402.6,279.5z M394.9,259.53c0.35-0.35,0.56-0.83,0.56-1.36c0-0.53-0.21-1.01-0.56-1.36
		c-0.35-0.35-0.83-0.56-1.36-0.56c-0.53,0-1.01,0.22-1.36,0.56c-0.35,0.35-0.56,0.83-0.56,1.36c0,0.53,0.21,1.01,0.56,1.36
		c0.35,0.35,0.83,0.56,1.36,0.56C394.07,260.09,394.55,259.88,394.9,259.53z M448.85,286.63c1.39-1.39,2.25-3.31,2.25-5.44
		c0-2.12-0.86-4.05-2.25-5.44c-1.39-1.39-3.31-2.25-5.44-2.25c-2.12,0-4.05,0.86-5.44,2.25c-1.39,1.39-2.25,3.31-2.25,5.44
		c0,2.12,0.86,4.04,2.25,5.44c1.39,1.39,3.31,2.25,5.44,2.25C445.53,288.88,447.46,288.02,448.85,286.63z M425,275.15
		c0.7-0.7,1.12-1.66,1.12-2.72s-0.43-2.02-1.12-2.72c-0.7-0.7-1.66-1.13-2.72-1.13c-1.06,0-2.02,0.43-2.72,1.13
		c-0.7,0.7-1.12,1.66-1.12,2.72s0.43,2.02,1.12,2.72c0.69,0.7,1.65,1.12,2.72,1.12C423.34,276.27,424.3,275.84,425,275.15z
		 M525.03,389.16c1.39-1.39,2.25-3.31,2.25-5.44c0-2.12-0.86-4.05-2.25-5.44c-1.39-1.39-3.31-2.25-5.44-2.25
		c-2.12,0-4.04,0.86-5.44,2.25c-1.39,1.39-2.25,3.31-2.25,5.44c0,2.12,0.86,4.05,2.25,5.44c1.39,1.39,3.31,2.25,5.44,2.25
		C521.72,391.41,523.64,390.55,525.03,389.16z M506.64,397.57c1.27-1.28,2.06-3.04,2.06-4.99s-0.79-3.71-2.06-4.98
		s-3.04-2.06-4.99-2.06c-1.94,0-3.71,0.79-4.98,2.06c-1.27,1.27-2.06,3.04-2.06,4.98s0.79,3.71,2.06,4.99
		c1.27,1.27,3.04,2.06,4.98,2.06C503.6,399.63,505.37,398.84,506.64,397.57z M487.25,403.57c1.16-1.16,1.88-2.76,1.88-4.53
		c0-1.77-0.72-3.37-1.88-4.53c-1.16-1.16-2.76-1.87-4.53-1.87c-1.77,0-3.37,0.71-4.53,1.87c-1.16,1.16-1.87,2.76-1.87,4.53
		c0,1.77,0.71,3.37,1.87,4.53c1.16,1.16,2.76,1.88,4.53,1.88C484.49,405.45,486.09,404.73,487.25,403.57z M467.18,407.02
		c1.04-1.04,1.69-2.49,1.69-4.08c0-1.59-0.64-3.04-1.69-4.08c-1.05-1.04-2.49-1.69-4.08-1.69c-1.59,0-3.03,0.65-4.07,1.69
		s-1.69,2.49-1.69,4.08c0,1.59,0.65,3.04,1.69,4.08s2.49,1.69,4.07,1.69C464.69,408.71,466.13,408.06,467.18,407.02z M446.76,407.86
		c0.92-0.93,1.5-2.21,1.5-3.62c0-1.41-0.57-2.7-1.5-3.62c-0.93-0.93-2.21-1.5-3.62-1.5c-1.42,0-2.7,0.57-3.62,1.5
		c-0.92,0.93-1.5,2.21-1.5,3.62c0,1.41,0.57,2.7,1.5,3.62c0.93,0.93,2.21,1.5,3.62,1.5C444.55,409.36,445.83,408.79,446.76,407.86z
		 M426.34,406.08c0.81-0.81,1.31-1.93,1.31-3.17c0-1.24-0.5-2.36-1.31-3.17c-0.81-0.81-1.93-1.31-3.17-1.31
		c-1.24,0-2.36,0.5-3.17,1.31c-0.81,0.81-1.31,1.93-1.31,3.17c0,1.24,0.5,2.36,1.31,3.17c0.81,0.81,1.93,1.31,3.17,1.31
		C424.41,407.39,425.53,406.89,426.34,406.08z M406.27,401.71c0.7-0.7,1.12-1.66,1.12-2.72s-0.43-2.02-1.12-2.72
		c-0.7-0.7-1.66-1.12-2.72-1.12s-2.02,0.43-2.72,1.12c-0.7,0.7-1.12,1.66-1.12,2.72s0.43,2.02,1.12,2.72
		c0.69,0.7,1.66,1.13,2.72,1.13S405.58,402.41,406.27,401.71z M386.87,394.84c0.58-0.58,0.94-1.38,0.94-2.26
		c0-0.89-0.36-1.68-0.94-2.26c-0.58-0.58-1.38-0.94-2.26-0.94s-1.69,0.36-2.26,0.94c-0.58,0.58-0.94,1.38-0.94,2.26
		c0,0.89,0.36,1.69,0.94,2.26c0.58,0.58,1.38,0.94,2.26,0.94S386.3,395.42,386.87,394.84z M368.47,385.55
		c0.47-0.46,0.75-1.1,0.75-1.81c0-0.71-0.29-1.35-0.75-1.81c-0.46-0.46-1.1-0.75-1.81-0.75c-0.71,0-1.35,0.29-1.81,0.75
		s-0.75,1.1-0.75,1.81c0,0.71,0.29,1.35,0.75,1.81s1.1,0.75,1.81,0.75C367.37,386.3,368.01,386.01,368.47,385.55z M351.38,373.99
		c0.35-0.35,0.56-0.83,0.56-1.36c0-0.53-0.21-1.01-0.56-1.36c-0.35-0.35-0.83-0.56-1.36-0.56c-0.53,0-1.01,0.22-1.36,0.56
		c-0.35,0.35-0.56,0.83-0.56,1.36c0,0.53,0.21,1.01,0.56,1.36c0.35,0.35,0.83,0.56,1.36,0.56
		C350.55,374.56,351.03,374.34,351.38,373.99z M335.89,360.35c0.23-0.23,0.38-0.55,0.38-0.91c0-0.35-0.15-0.67-0.38-0.91
		c-0.23-0.23-0.55-0.37-0.9-0.37s-0.67,0.14-0.91,0.37c-0.23,0.24-0.38,0.55-0.38,0.91c0,0.36,0.14,0.67,0.38,0.91
		c0.23,0.23,0.55,0.37,0.91,0.37S335.66,360.58,335.89,360.35z M322.26,344.84c0.12-0.12,0.19-0.27,0.19-0.45
		c0-0.17-0.07-0.34-0.19-0.45c-0.11-0.12-0.27-0.19-0.45-0.19c-0.18,0-0.34,0.07-0.45,0.19c-0.12,0.11-0.19,0.27-0.19,0.45
		c0,0.18,0.07,0.34,0.19,0.45c0.12,0.12,0.27,0.19,0.45,0.19C321.99,345.03,322.15,344.96,322.26,344.84z M542.41,349.98
		c1.39-1.39,2.25-3.31,2.25-5.44c0-2.12-0.86-4.05-2.25-5.44c-1.39-1.39-3.31-2.25-5.44-2.25c-2.12,0-4.05,0.86-5.44,2.25
		c-1.39,1.39-2.25,3.31-2.25,5.44c0,2.12,0.86,4.05,2.25,5.44c1.39,1.39,3.31,2.25,5.44,2.25
		C539.09,352.23,541.01,351.37,542.41,349.98z M526.12,363c1.25-1.25,2.03-2.98,2.03-4.89c0-1.91-0.77-3.64-2.03-4.89
		c-1.25-1.25-2.98-2.03-4.89-2.03c-1.91,0-3.64,0.77-4.89,2.03c-1.25,1.25-2.03,2.98-2.03,4.89c0,1.91,0.78,3.64,2.03,4.89
		c1.25,1.25,2.98,2.02,4.89,2.02C523.14,365.02,524.87,364.25,526.12,363z M507.91,373.38c1.11-1.11,1.8-2.65,1.8-4.35
		s-0.69-3.24-1.8-4.35c-1.11-1.11-2.65-1.8-4.35-1.8c-1.7,0-3.24,0.69-4.35,1.8c-1.11,1.11-1.8,2.65-1.8,4.35s0.69,3.24,1.8,4.35
		c1.11,1.11,2.65,1.8,4.35,1.8C505.26,375.18,506.8,374.49,507.91,373.38z M488.19,380.84c0.97-0.97,1.57-2.32,1.57-3.81
		c0-1.49-0.6-2.83-1.57-3.8c-0.97-0.97-2.32-1.58-3.8-1.58c-1.49,0-2.83,0.6-3.81,1.58c-0.97,0.97-1.58,2.32-1.58,3.8
		c0,1.49,0.6,2.83,1.58,3.81c0.97,0.97,2.32,1.57,3.81,1.57C485.88,382.41,487.22,381.81,488.19,380.84z M467.47,385.19
		c0.84-0.84,1.35-1.99,1.35-3.26c0-1.27-0.51-2.42-1.35-3.26c-0.84-0.84-1.99-1.35-3.26-1.35c-1.27,0-2.43,0.51-3.26,1.35
		c-0.83,0.84-1.35,1.99-1.35,3.26c0,1.27,0.52,2.43,1.35,3.26c0.84,0.84,1.99,1.35,3.26,1.35
		C465.48,386.54,466.63,386.03,467.47,385.19z M446.22,386.34c0.7-0.7,1.12-1.66,1.12-2.72s-0.43-2.02-1.12-2.72
		c-0.7-0.7-1.66-1.13-2.72-1.13s-2.02,0.43-2.72,1.13c-0.69,0.7-1.12,1.66-1.12,2.72s0.43,2.02,1.12,2.72
		c0.7,0.7,1.66,1.12,2.72,1.12S445.52,387.04,446.22,386.34z M424.96,384.27c0.56-0.56,0.9-1.32,0.9-2.17c0-0.85-0.34-1.62-0.9-2.17
		c-0.56-0.56-1.32-0.9-2.17-0.9c-0.85,0-1.62,0.34-2.17,0.9c-0.56,0.56-0.9,1.32-0.9,2.17c0,0.85,0.34,1.62,0.9,2.17
		s1.32,0.9,2.17,0.9C423.63,385.16,424.4,384.82,424.96,384.27z M404.19,378.98c0.41-0.42,0.67-0.99,0.67-1.63
		c0-0.64-0.26-1.21-0.67-1.63c-0.42-0.41-1-0.67-1.63-0.67c-0.64,0-1.21,0.26-1.63,0.67c-0.42,0.42-0.67,1-0.67,1.63
		c0,0.64,0.26,1.21,0.67,1.63c0.42,0.42,0.99,0.67,1.63,0.67C403.19,379.66,403.77,379.4,404.19,378.98z M384.41,370.59
		c0.28-0.28,0.45-0.66,0.45-1.09s-0.17-0.81-0.45-1.09c-0.28-0.27-0.66-0.45-1.09-0.45s-0.81,0.17-1.09,0.45
		c-0.28,0.28-0.45,0.66-0.45,1.09s0.17,0.81,0.45,1.09s0.66,0.45,1.09,0.45S384.13,370.87,384.41,370.59z M366.12,359.26
		c0.14-0.14,0.22-0.33,0.22-0.54c0-0.21-0.09-0.4-0.22-0.54s-0.33-0.22-0.54-0.22c-0.21,0-0.41,0.09-0.54,0.22
		c-0.14,0.14-0.23,0.33-0.23,0.54c0,0.21,0.09,0.4,0.23,0.54c0.14,0.14,0.33,0.22,0.54,0.22
		C365.79,359.49,365.98,359.4,366.12,359.26z M545.2,312.65c1.39-1.39,2.25-3.31,2.25-5.44s-0.86-4.05-2.25-5.44
		c-1.39-1.39-3.31-2.25-5.44-2.25c-2.12,0-4.04,0.86-5.43,2.25c-1.39,1.39-2.25,3.31-2.25,5.44s0.86,4.05,2.25,5.44
		c1.39,1.39,3.31,2.25,5.43,2.25C541.88,314.91,543.8,314.05,545.2,312.65z M533.42,328.04c1.24-1.24,2-2.95,2-4.84
		c0-1.89-0.76-3.59-2-4.83c-1.24-1.24-2.94-2-4.83-2c-1.89,0-3.59,0.76-4.83,2c-1.24,1.24-2,2.94-2,4.83c0,1.89,0.76,3.6,2,4.84
		c1.24,1.24,2.95,2,4.83,2C530.47,330.04,532.18,329.27,533.42,328.04z M519.03,341.23c1.08-1.08,1.75-2.57,1.75-4.23
		c0-1.65-0.67-3.14-1.75-4.23c-1.08-1.08-2.58-1.75-4.23-1.75c-1.65,0-3.14,0.67-4.23,1.75c-1.08,1.09-1.75,2.58-1.75,4.23
		c0,1.65,0.67,3.15,1.75,4.23c1.09,1.09,2.58,1.75,4.23,1.75C516.45,342.98,517.94,342.31,519.03,341.23z M502.43,351.79
		c0.93-0.93,1.5-2.21,1.5-3.62c0-1.41-0.57-2.7-1.5-3.62c-0.92-0.92-2.21-1.5-3.62-1.5c-1.42,0-2.7,0.57-3.62,1.5
		c-0.93,0.93-1.5,2.21-1.5,3.62c0,1.42,0.57,2.7,1.5,3.62c0.93,0.92,2.21,1.5,3.62,1.5C500.23,353.29,501.51,352.72,502.43,351.79z
		 M484.15,359.42c0.77-0.77,1.25-1.84,1.25-3.02c0-1.18-0.48-2.25-1.25-3.02c-0.77-0.77-1.84-1.25-3.02-1.25s-2.25,0.48-3.02,1.25
		c-0.77,0.77-1.25,1.84-1.25,3.02c0,1.18,0.48,2.25,1.25,3.02c0.77,0.77,1.84,1.25,3.02,1.25S483.37,360.19,484.15,359.42z
		 M464.71,363.87c0.62-0.62,1-1.47,1-2.42s-0.38-1.8-1-2.41c-0.62-0.62-1.47-1-2.42-1c-0.94,0-1.8,0.38-2.41,1
		c-0.62,0.62-1,1.47-1,2.41s0.38,1.8,1,2.42c0.62,0.62,1.47,1,2.41,1C463.23,364.87,464.09,364.49,464.71,363.87z M444.67,365
		c0.46-0.46,0.75-1.1,0.75-1.81c0-0.71-0.29-1.35-0.75-1.81s-1.1-0.75-1.81-0.75c-0.71,0-1.35,0.29-1.81,0.75
		c-0.46,0.46-0.75,1.1-0.75,1.81c0,0.71,0.29,1.35,0.75,1.81c0.46,0.46,1.11,0.75,1.81,0.75C443.57,365.75,444.21,365.46,444.67,365
		z M424.64,362.73c0.31-0.31,0.5-0.74,0.5-1.21s-0.19-0.9-0.5-1.21c-0.31-0.31-0.74-0.5-1.21-0.5c-0.47,0-0.9,0.19-1.21,0.5
		c-0.31,0.31-0.5,0.74-0.5,1.21s0.19,0.9,0.5,1.21c0.31,0.31,0.74,0.5,1.21,0.5C423.9,363.23,424.33,363.04,424.64,362.73z
		 M405.2,357.09c0.15-0.15,0.25-0.37,0.25-0.6c0-0.24-0.1-0.45-0.25-0.6s-0.37-0.25-0.6-0.25c-0.24,0-0.45,0.1-0.6,0.25
		s-0.25,0.37-0.25,0.6c0,0.24,0.1,0.45,0.25,0.6c0.15,0.16,0.37,0.25,0.6,0.25C404.83,357.34,405.04,357.24,405.2,357.09z
		 M536.44,280.31c1.39-1.39,2.25-3.31,2.25-5.44c0-2.12-0.86-4.04-2.25-5.44c-1.39-1.39-3.31-2.25-5.44-2.25
		c-2.12,0-4.05,0.86-5.44,2.25c-1.39,1.39-2.25,3.31-2.25,5.44c0,2.12,0.86,4.04,2.25,5.44c1.39,1.39,3.31,2.25,5.44,2.25
		C533.13,282.56,535.05,281.7,536.44,280.31z M528.23,298.6c1.19-1.19,1.93-2.84,1.93-4.66c0-1.82-0.74-3.47-1.93-4.66
		c-1.19-1.19-2.84-1.93-4.66-1.93c-1.82,0-3.47,0.74-4.66,1.93c-1.2,1.19-1.93,2.84-1.93,4.66c0,1.82,0.74,3.47,1.93,4.66
		c1.19,1.19,2.84,1.93,4.66,1.93C525.39,300.53,527.04,299.79,528.23,298.6z M515.94,314.74c0.99-0.99,1.61-2.36,1.61-3.88
		s-0.61-2.89-1.61-3.88c-0.99-0.99-2.36-1.61-3.88-1.61c-1.52,0-2.89,0.61-3.88,1.61c-1,0.99-1.61,2.36-1.61,3.88
		s0.61,2.89,1.61,3.88c0.99,1,2.36,1.61,3.88,1.61C513.58,316.35,514.95,315.74,515.94,314.74z M500.17,327.89
		c0.79-0.79,1.29-1.89,1.29-3.11s-0.49-2.31-1.29-3.11c-0.8-0.79-1.9-1.29-3.11-1.29c-1.21,0-2.31,0.49-3.11,1.29
		c-0.8,0.8-1.29,1.89-1.29,3.11s0.49,2.31,1.29,3.11c0.8,0.8,1.89,1.29,3.11,1.29C498.27,329.18,499.37,328.69,500.17,327.89z
		 M481.68,337.37c0.6-0.59,0.96-1.42,0.96-2.33s-0.37-1.73-0.96-2.33c-0.6-0.59-1.42-0.96-2.33-0.96s-1.74,0.37-2.33,0.96
		c-0.6,0.6-0.96,1.42-0.96,2.33s0.37,1.74,0.96,2.33c0.6,0.6,1.42,0.96,2.33,0.96S481.09,337.97,481.68,337.37z M461.37,342.69
		c0.4-0.4,0.64-0.95,0.64-1.55c0-0.61-0.25-1.16-0.64-1.55c-0.4-0.4-0.95-0.65-1.55-0.65c-0.61,0-1.16,0.25-1.55,0.65
		c-0.4,0.4-0.64,0.94-0.64,1.55c0,0.6,0.25,1.15,0.64,1.55c0.4,0.4,0.95,0.64,1.55,0.64C460.42,343.33,460.97,343.09,461.37,342.69z
		 M440.19,343.5c0.2-0.2,0.32-0.47,0.32-0.77s-0.12-0.58-0.32-0.77c-0.2-0.2-0.47-0.33-0.77-0.33c-0.3,0-0.58,0.13-0.78,0.33
		c-0.2,0.2-0.32,0.47-0.32,0.77s0.12,0.58,0.32,0.77c0.2,0.2,0.47,0.32,0.78,0.32C439.71,343.82,439.99,343.7,440.19,343.5z
		 M518.92,256.75c1.39-1.39,2.25-3.31,2.25-5.44c0-2.12-0.86-4.04-2.25-5.44c-1.39-1.39-3.31-2.25-5.44-2.25
		c-2.12,0-4.04,0.86-5.44,2.25c-1.39,1.39-2.25,3.31-2.25,5.44c0,2.12,0.86,4.05,2.25,5.44s3.31,2.25,5.44,2.25
		C515.61,259,517.53,258.15,518.92,256.75z M514.38,277.58c1.11-1.11,1.8-2.65,1.8-4.35c0-1.7-0.69-3.24-1.8-4.35
		c-1.11-1.11-2.65-1.8-4.35-1.8c-1.7,0-3.24,0.69-4.35,1.8c-1.11,1.11-1.8,2.65-1.8,4.35c0,1.7,0.69,3.24,1.8,4.35
		c1.11,1.11,2.65,1.8,4.35,1.8C511.73,279.38,513.27,278.69,514.38,277.58z M503.2,296.24c0.84-0.84,1.35-1.99,1.35-3.26
		c0-1.27-0.51-2.43-1.35-3.26c-0.84-0.84-1.99-1.35-3.26-1.35c-1.27,0-2.43,0.51-3.26,1.35c-0.84,0.84-1.35,1.99-1.35,3.26
		c0,1.27,0.51,2.42,1.35,3.26c0.84,0.84,1.99,1.35,3.26,1.35C501.22,297.59,502.37,297.08,503.2,296.24z M486.43,310.85
		c0.56-0.56,0.9-1.32,0.9-2.17c0-0.85-0.35-1.62-0.9-2.17c-0.55-0.56-1.32-0.9-2.17-0.9c-0.85,0-1.62,0.35-2.17,0.9
		c-0.56,0.55-0.9,1.32-0.9,2.17c0,0.85,0.34,1.61,0.9,2.17c0.56,0.56,1.32,0.9,2.17,0.9C485.11,311.75,485.88,311.4,486.43,310.85z
		 M465.6,319.86c0.28-0.28,0.45-0.66,0.45-1.09s-0.17-0.81-0.45-1.09s-0.66-0.45-1.09-0.45c-0.42,0-0.81,0.17-1.09,0.45
		s-0.45,0.66-0.45,1.09s0.17,0.81,0.45,1.09c0.28,0.28,0.66,0.45,1.09,0.45C464.93,320.31,465.32,320.14,465.6,319.86z
		 M496.58,243.97c1.39-1.39,2.25-3.31,2.25-5.44s-0.86-4.05-2.25-5.44c-1.39-1.39-3.31-2.25-5.44-2.25c-2.12,0-4.05,0.86-5.44,2.25
		c-1.39,1.39-2.25,3.31-2.25,5.44s0.86,4.04,2.25,5.44c1.39,1.39,3.31,2.25,5.44,2.25C493.26,246.22,495.18,245.36,496.58,243.97z
		 M496.51,262.23c1.04-1.05,1.69-2.49,1.69-4.08c0-1.59-0.64-3.04-1.69-4.08c-1.05-1.04-2.49-1.69-4.08-1.69
		c-1.59,0-3.03,0.64-4.08,1.69c-1.04,1.04-1.69,2.49-1.69,4.08c0,1.59,0.65,3.03,1.69,4.08c1.05,1.04,2.49,1.69,4.08,1.69
		C494.02,263.92,495.46,263.27,496.51,262.23z M488.81,279.48c0.7-0.69,1.12-1.66,1.12-2.72s-0.43-2.02-1.12-2.71
		c-0.7-0.7-1.66-1.13-2.72-1.13c-1.06,0-2.02,0.43-2.71,1.13c-0.7,0.69-1.13,1.65-1.13,2.71s0.43,2.02,1.13,2.72
		c0.7,0.7,1.66,1.13,2.71,1.13C487.15,280.61,488.11,280.18,488.81,279.48z M474.51,292.93c0.35-0.35,0.56-0.83,0.56-1.36
		c0-0.53-0.21-1.01-0.56-1.36c-0.35-0.35-0.83-0.56-1.36-0.56c-0.53,0-1.01,0.21-1.36,0.56c-0.35,0.35-0.56,0.83-0.56,1.36
		c0,0.53,0.21,1.01,0.56,1.36c0.35,0.35,0.83,0.56,1.36,0.56C473.68,293.49,474.16,293.28,474.51,292.93z M473.73,242.06
		c1.39-1.39,2.25-3.31,2.25-5.44c0-2.12-0.86-4.05-2.25-5.44c-1.39-1.39-3.31-2.25-5.44-2.25s-4.05,0.86-5.44,2.25
		c-1.39,1.39-2.25,3.31-2.25,5.44c0,2.12,0.86,4.04,2.25,5.44c1.39,1.39,3.31,2.25,5.44,2.25S472.33,243.45,473.73,242.06z
		 M473.98,262.02c0.7-0.69,1.13-1.66,1.13-2.71c0-1.06-0.43-2.02-1.13-2.72c-0.69-0.7-1.65-1.12-2.71-1.12
		c-1.06,0-2.02,0.43-2.72,1.12c-0.69,0.7-1.12,1.66-1.12,2.72c0,1.06,0.43,2.02,1.12,2.71c0.7,0.7,1.66,1.13,2.72,1.13
		C472.33,263.15,473.29,262.72,473.98,262.02z M524.28,125.06c1.39-1.39,2.25-3.31,2.25-5.44c0-2.12-0.86-4.05-2.25-5.44
		c-1.39-1.39-3.31-2.25-5.44-2.25s-4.05,0.86-5.44,2.25c-1.39,1.39-2.25,3.31-2.25,5.44c0,2.12,0.86,4.04,2.25,5.44
		c1.39,1.39,3.31,2.25,5.44,2.25S522.89,126.45,524.28,125.06z M540.47,135.71c1.27-1.28,2.06-3.04,2.06-4.99
		c0-1.95-0.79-3.71-2.06-4.98c-1.27-1.28-3.04-2.06-4.99-2.06c-1.94,0-3.71,0.79-4.98,2.06c-1.28,1.27-2.07,3.04-2.07,4.98
		c0,1.95,0.79,3.71,2.07,4.99c1.27,1.27,3.04,2.06,4.98,2.06C537.43,137.77,539.2,136.98,540.47,135.71z M555.08,148.43
		c1.16-1.16,1.88-2.76,1.88-4.53c0-1.77-0.72-3.37-1.88-4.53c-1.16-1.16-2.76-1.87-4.53-1.87c-1.77,0-3.37,0.72-4.53,1.87
		c-1.16,1.16-1.87,2.76-1.87,4.53c0,1.77,0.72,3.37,1.87,4.53c1.16,1.16,2.76,1.88,4.53,1.88
		C552.32,150.31,553.92,149.59,555.08,148.43z M567.82,163.02c1.04-1.05,1.69-2.49,1.69-4.08s-0.65-3.03-1.69-4.07
		c-1.04-1.05-2.48-1.69-4.07-1.69s-3.04,0.65-4.08,1.69c-1.04,1.04-1.69,2.48-1.69,4.07s0.65,3.03,1.69,4.08
		c1.04,1.04,2.49,1.69,4.08,1.69S566.77,164.06,567.82,163.02z M578.47,179.21c0.93-0.93,1.5-2.21,1.5-3.62
		c0-1.41-0.57-2.7-1.5-3.62c-0.93-0.93-2.21-1.5-3.62-1.5c-1.41,0-2.7,0.57-3.62,1.5c-0.92,0.92-1.5,2.21-1.5,3.62
		c0,1.41,0.57,2.7,1.5,3.62c0.93,0.92,2.21,1.5,3.62,1.5C576.26,180.71,577.54,180.13,578.47,179.21z M586.84,196.7
		c0.81-0.81,1.31-1.93,1.31-3.17s-0.5-2.36-1.31-3.17c-0.81-0.81-1.93-1.31-3.17-1.31c-1.24,0-2.36,0.5-3.17,1.31
		c-0.81,0.81-1.31,1.93-1.31,3.17s0.5,2.36,1.31,3.17c0.81,0.81,1.94,1.31,3.17,1.31C584.91,198.02,586.03,197.51,586.84,196.7z
		 M592.81,215.19c0.69-0.69,1.12-1.65,1.12-2.72c0-1.06-0.43-2.02-1.12-2.72c-0.7-0.7-1.66-1.13-2.72-1.13s-2.02,0.43-2.72,1.13
		c-0.7,0.7-1.13,1.66-1.13,2.72c0,1.06,0.43,2.02,1.13,2.72c0.7,0.7,1.66,1.13,2.72,1.13S592.12,215.89,592.81,215.19z
		 M596.27,234.36c0.58-0.58,0.94-1.38,0.94-2.26c0-0.89-0.36-1.69-0.94-2.27c-0.58-0.58-1.38-0.94-2.27-0.94
		c-0.88,0-1.69,0.36-2.26,0.94c-0.58,0.58-0.94,1.38-0.94,2.27c0,0.88,0.36,1.69,0.94,2.26c0.58,0.58,1.38,0.94,2.26,0.94
		C594.89,235.3,595.69,234.94,596.27,234.36z M597.14,253.87c0.46-0.47,0.75-1.11,0.75-1.81s-0.29-1.35-0.75-1.81
		c-0.46-0.46-1.11-0.75-1.81-0.75s-1.35,0.29-1.81,0.75c-0.46,0.46-0.75,1.1-0.75,1.81s0.29,1.35,0.75,1.81
		c0.46,0.46,1.1,0.75,1.81,0.75S596.68,254.33,597.14,253.87z M595.39,273.38c0.35-0.35,0.56-0.83,0.56-1.36
		c0-0.53-0.22-1.01-0.56-1.36c-0.35-0.35-0.83-0.56-1.36-0.56c-0.53,0-1.01,0.21-1.36,0.56c-0.35,0.35-0.56,0.83-0.56,1.36
		c0,0.53,0.21,1.01,0.56,1.36c0.35,0.35,0.83,0.56,1.36,0.56C594.56,273.94,595.05,273.73,595.39,273.38z M591.04,292.54
		c0.23-0.23,0.37-0.55,0.37-0.9c0-0.35-0.14-0.67-0.37-0.91c-0.24-0.23-0.55-0.38-0.91-0.38s-0.67,0.14-0.91,0.38
		c-0.23,0.23-0.38,0.55-0.38,0.91c0,0.35,0.14,0.67,0.38,0.9c0.23,0.24,0.55,0.38,0.91,0.38S590.8,292.78,591.04,292.54z
		 M584.13,311.03c0.11-0.11,0.19-0.27,0.19-0.45c0-0.17-0.07-0.34-0.19-0.45c-0.12-0.12-0.28-0.19-0.46-0.19
		c-0.17,0-0.34,0.07-0.45,0.19c-0.12,0.11-0.19,0.27-0.19,0.45c0,0.18,0.07,0.34,0.19,0.45c0.11,0.12,0.27,0.19,0.45,0.19
		C583.85,311.21,584.02,311.14,584.13,311.03z M481.67,129.6c1.39-1.39,2.25-3.31,2.25-5.44c0-2.12-0.86-4.04-2.25-5.44
		c-1.39-1.39-3.31-2.25-5.44-2.25c-2.12,0-4.05,0.86-5.44,2.25c-1.39,1.39-2.25,3.31-2.25,5.44c0,2.12,0.86,4.05,2.25,5.44
		c1.39,1.39,3.31,2.25,5.44,2.25C478.35,131.85,480.27,130.99,481.67,129.6z M500.74,135.9c1.25-1.25,2.02-2.98,2.02-4.89
		c0-1.91-0.77-3.64-2.02-4.89c-1.25-1.25-2.99-2.02-4.89-2.02c-1.91,0-3.64,0.77-4.89,2.02c-1.25,1.25-2.03,2.98-2.03,4.89
		c0,1.91,0.77,3.64,2.03,4.89c1.25,1.25,2.98,2.03,4.89,2.03C497.75,137.93,499.48,137.16,500.74,135.9z M518.49,145.2
		c1.11-1.11,1.8-2.65,1.8-4.35c0-1.7-0.69-3.24-1.8-4.35c-1.11-1.11-2.65-1.8-4.35-1.8c-1.7,0-3.24,0.69-4.35,1.8
		c-1.11,1.11-1.8,2.65-1.8,4.35c0,1.7,0.69,3.24,1.8,4.35c1.11,1.11,2.65,1.8,4.35,1.8C515.84,147.01,517.38,146.31,518.49,145.2z
		 M534.46,157.26c0.97-0.97,1.57-2.32,1.57-3.8c0-1.49-0.6-2.83-1.57-3.81c-0.97-0.97-2.32-1.57-3.81-1.57
		c-1.49,0-2.83,0.6-3.81,1.57c-0.97,0.97-1.57,2.32-1.57,3.81c0,1.49,0.6,2.83,1.57,3.8c0.98,0.97,2.32,1.57,3.81,1.57
		C532.14,158.84,533.49,158.24,534.46,157.26z M548.25,171.75c0.84-0.84,1.35-1.99,1.35-3.26c0-1.27-0.51-2.43-1.35-3.26
		s-1.99-1.35-3.26-1.35c-1.27,0-2.43,0.51-3.26,1.35c-0.84,0.84-1.35,1.99-1.35,3.26c0,1.27,0.52,2.42,1.35,3.26
		c0.83,0.84,1.99,1.35,3.26,1.35C546.26,173.1,547.41,172.58,548.25,171.75z M559.53,188.29c0.69-0.7,1.13-1.66,1.13-2.72
		s-0.43-2.02-1.13-2.72c-0.7-0.7-1.66-1.12-2.72-1.12c-1.06,0-2.02,0.43-2.72,1.12c-0.7,0.7-1.12,1.66-1.12,2.72
		s0.43,2.02,1.12,2.72s1.66,1.12,2.72,1.12C557.87,189.41,558.83,188.98,559.53,188.29z M568.02,206.45c0.55-0.56,0.9-1.33,0.9-2.18
		c0-0.85-0.35-1.62-0.9-2.17c-0.56-0.55-1.33-0.9-2.18-0.9c-0.85,0-1.61,0.35-2.17,0.9c-0.56,0.56-0.9,1.33-0.9,2.17
		c0,0.85,0.34,1.62,0.9,2.18c0.56,0.55,1.32,0.9,2.17,0.9C566.69,207.35,567.46,207.01,568.02,206.45z M573.48,225.79
		c0.42-0.42,0.67-0.99,0.67-1.63c0-0.64-0.26-1.21-0.67-1.63c-0.42-0.42-1-0.67-1.63-0.67s-1.21,0.26-1.63,0.67
		c-0.42,0.42-0.68,0.99-0.68,1.63c0,0.64,0.26,1.21,0.68,1.63c0.41,0.42,0.99,0.67,1.63,0.67S573.06,226.21,573.48,225.79z
		 M575.75,245.83c0.28-0.28,0.45-0.66,0.45-1.09c0-0.42-0.17-0.81-0.45-1.09c-0.28-0.28-0.66-0.45-1.09-0.45
		c-0.42,0-0.81,0.17-1.09,0.45c-0.28,0.28-0.45,0.66-0.45,1.09c0,0.42,0.17,0.81,0.45,1.09s0.66,0.45,1.09,0.45
		C575.09,246.28,575.48,246.11,575.75,245.83z M574.75,266.05c0.14-0.14,0.23-0.33,0.23-0.54c0-0.21-0.09-0.41-0.23-0.55
		c-0.14-0.14-0.33-0.22-0.55-0.22c-0.21,0-0.4,0.09-0.54,0.22c-0.14,0.14-0.22,0.33-0.22,0.55c0,0.21,0.09,0.4,0.22,0.54
		c0.14,0.14,0.33,0.23,0.54,0.23C574.42,266.28,574.61,266.19,574.75,266.05z M447.95,145.85c1.39-1.39,2.25-3.31,2.25-5.44
		c0-2.12-0.86-4.05-2.25-5.44c-1.39-1.39-3.31-2.25-5.44-2.25c-2.12,0-4.05,0.86-5.44,2.25c-1.39,1.39-2.25,3.31-2.25,5.44
		c0,2.12,0.86,4.04,2.25,5.44c1.39,1.39,3.31,2.25,5.44,2.25C444.63,148.1,446.56,147.24,447.95,145.85z M466.77,146.93
		c1.24-1.24,2-2.95,2-4.83c0-1.89-0.77-3.6-2-4.83s-2.95-2-4.83-2c-1.89,0-3.6,0.76-4.83,2c-1.24,1.24-2,2.94-2,4.83
		c0,1.89,0.76,3.6,2,4.83c1.24,1.24,2.94,2,4.83,2C463.83,148.93,465.54,148.16,466.77,146.93z M485.01,151.37
		c1.08-1.09,1.75-2.58,1.75-4.23c0-1.65-0.67-3.15-1.75-4.23c-1.08-1.09-2.58-1.75-4.23-1.75c-1.65,0-3.15,0.67-4.23,1.75
		c-1.08,1.08-1.75,2.57-1.75,4.23c0,1.65,0.67,3.14,1.75,4.23c1.08,1.08,2.57,1.75,4.23,1.75
		C482.43,153.12,483.93,152.45,485.01,151.37z M502.08,159.02c0.92-0.92,1.5-2.21,1.5-3.62c0-1.41-0.57-2.7-1.5-3.62
		c-0.93-0.93-2.21-1.5-3.62-1.5c-1.42,0-2.7,0.57-3.62,1.5c-0.93,0.92-1.5,2.21-1.5,3.62c0,1.42,0.57,2.7,1.5,3.62
		c0.92,0.93,2.21,1.5,3.62,1.5C499.87,160.52,501.15,159.95,502.08,159.02z M517.44,169.62c0.78-0.77,1.25-1.84,1.25-3.02
		c0-1.18-0.48-2.25-1.25-3.02c-0.77-0.77-1.84-1.25-3.02-1.25c-1.18,0-2.25,0.47-3.02,1.25c-0.77,0.77-1.25,1.84-1.25,3.02
		c0,1.18,0.48,2.25,1.25,3.02c0.77,0.77,1.84,1.25,3.02,1.25C515.6,170.87,516.66,170.39,517.44,169.62z M530.63,182.8
		c0.62-0.62,1-1.47,1-2.42s-0.38-1.8-1-2.41c-0.62-0.62-1.47-1-2.41-1s-1.8,0.38-2.42,1c-0.62,0.62-1,1.47-1,2.41s0.38,1.8,1,2.42
		c0.62,0.62,1.47,1,2.42,1S530.01,183.42,530.63,182.8z M541.24,198.16c0.46-0.46,0.75-1.11,0.75-1.81s-0.29-1.35-0.75-1.81
		c-0.47-0.46-1.11-0.75-1.81-0.75c-0.71,0-1.35,0.29-1.81,0.75c-0.47,0.46-0.75,1.1-0.75,1.81s0.29,1.35,0.75,1.81
		c0.46,0.46,1.1,0.75,1.81,0.75C540.13,198.91,540.77,198.62,541.24,198.16z M548.91,215.21c0.31-0.31,0.5-0.74,0.5-1.21
		c0-0.47-0.19-0.9-0.5-1.21c-0.31-0.31-0.74-0.5-1.21-0.5c-0.47,0-0.9,0.19-1.21,0.5c-0.31,0.31-0.5,0.74-0.5,1.21
		c0,0.47,0.19,0.9,0.5,1.21c0.31,0.31,0.74,0.5,1.21,0.5C548.17,215.71,548.6,215.52,548.91,215.21z M553.36,233.44
		c0.16-0.16,0.25-0.37,0.25-0.61c0-0.24-0.09-0.45-0.25-0.6c-0.15-0.15-0.37-0.25-0.6-0.25s-0.45,0.1-0.6,0.25
		c-0.15,0.16-0.25,0.37-0.25,0.6c0,0.24,0.1,0.45,0.25,0.61c0.15,0.15,0.37,0.25,0.6,0.25S553.21,233.59,553.36,233.44z
		 M424.31,169.6c1.39-1.39,2.25-3.31,2.25-5.44c0-2.12-0.86-4.04-2.25-5.44c-1.39-1.39-3.31-2.25-5.44-2.25s-4.05,0.86-5.44,2.25
		c-1.39,1.39-2.25,3.31-2.25,5.44c0,2.12,0.86,4.05,2.25,5.44c1.39,1.39,3.31,2.25,5.44,2.25S422.92,170.99,424.31,169.6z
		 M443.76,165.73c1.19-1.19,1.93-2.84,1.93-4.66c0-1.82-0.74-3.47-1.93-4.66c-1.19-1.19-2.84-1.93-4.66-1.93
		c-1.82,0-3.47,0.74-4.66,1.93c-1.19,1.19-1.93,2.84-1.93,4.66c0,1.82,0.74,3.47,1.93,4.66c1.19,1.19,2.84,1.93,4.66,1.93
		C440.92,167.66,442.57,166.92,443.76,165.73z M463.4,166.46c0.99-0.99,1.61-2.36,1.61-3.88s-0.62-2.89-1.61-3.88
		c-0.99-1-2.37-1.61-3.88-1.61c-1.52,0-2.89,0.61-3.89,1.61c-0.99,0.99-1.61,2.36-1.61,3.88s0.61,2.89,1.61,3.88
		c1,0.99,2.37,1.61,3.89,1.61C461.03,168.07,462.41,167.46,463.4,166.46z M482.18,171.71c0.8-0.8,1.29-1.89,1.29-3.11
		c0-1.21-0.49-2.31-1.29-3.11c-0.8-0.79-1.89-1.29-3.11-1.29s-2.31,0.49-3.1,1.29c-0.8,0.8-1.29,1.9-1.29,3.11
		c0,1.21,0.49,2.31,1.29,3.11c0.79,0.8,1.89,1.29,3.1,1.29S481.38,172.51,482.18,171.71z M499.14,181.14
		c0.6-0.59,0.97-1.42,0.97-2.33s-0.37-1.73-0.97-2.33c-0.59-0.6-1.42-0.96-2.33-0.96s-1.73,0.37-2.33,0.96s-0.97,1.42-0.97,2.33
		s0.37,1.74,0.97,2.33c0.6,0.6,1.42,0.97,2.33,0.97S498.55,181.74,499.14,181.14z M513.41,194.24c0.4-0.4,0.64-0.95,0.64-1.55
		s-0.24-1.16-0.64-1.55c-0.4-0.4-0.95-0.65-1.55-0.65c-0.6,0-1.16,0.25-1.55,0.65c-0.4,0.4-0.64,0.95-0.64,1.55s0.25,1.16,0.64,1.55
		c0.4,0.4,0.95,0.64,1.55,0.64C512.46,194.88,513.01,194.63,513.41,194.24z M524.2,210.34c0.2-0.2,0.33-0.47,0.33-0.78
		c0-0.3-0.13-0.57-0.33-0.77c-0.2-0.2-0.47-0.32-0.77-0.32c-0.3,0-0.58,0.12-0.77,0.32c-0.2,0.2-0.32,0.47-0.32,0.77
		c0,0.31,0.12,0.58,0.32,0.78c0.2,0.2,0.47,0.32,0.77,0.32C523.73,210.66,524.01,210.54,524.2,210.34z M412.82,196.41
		c1.39-1.39,2.25-3.31,2.25-5.44c0-2.12-0.86-4.05-2.25-5.44c-1.39-1.39-3.31-2.25-5.44-2.25c-2.12,0-4.04,0.86-5.44,2.25
		c-1.39,1.39-2.25,3.31-2.25,5.44c0,2.12,0.86,4.05,2.25,5.44c1.39,1.39,3.31,2.25,5.44,2.25
		C409.5,198.66,411.43,197.8,412.82,196.41z M432.43,187.36c1.11-1.11,1.8-2.65,1.8-4.35c0-1.7-0.69-3.24-1.8-4.35
		c-1.11-1.11-2.65-1.8-4.35-1.8c-1.7,0-3.24,0.69-4.35,1.8c-1.11,1.11-1.8,2.65-1.8,4.35c0,1.7,0.69,3.24,1.8,4.35
		c1.11,1.11,2.65,1.8,4.35,1.8C429.78,189.16,431.32,188.47,432.43,187.36z M453.5,185.13c0.83-0.83,1.35-1.99,1.35-3.26
		c0-1.27-0.52-2.43-1.35-3.26c-0.84-0.83-1.99-1.35-3.26-1.35c-1.27,0-2.42,0.52-3.26,1.35c-0.83,0.84-1.35,1.99-1.35,3.26
		c0,1.27,0.52,2.43,1.35,3.26c0.84,0.84,1.99,1.35,3.26,1.35C451.51,186.48,452.66,185.96,453.5,185.13z M473.84,189.77
		c0.56-0.56,0.9-1.32,0.9-2.17s-0.34-1.62-0.9-2.17c-0.56-0.56-1.32-0.9-2.17-0.9c-0.85,0-1.62,0.35-2.17,0.9
		c-0.55,0.55-0.9,1.32-0.9,2.17s0.35,1.61,0.9,2.17c0.56,0.56,1.33,0.9,2.17,0.9C472.52,190.67,473.28,190.33,473.84,189.77z
		 M491.38,200.74c0.27-0.27,0.45-0.66,0.45-1.09c0-0.42-0.18-0.81-0.45-1.09c-0.28-0.27-0.66-0.45-1.09-0.45
		c-0.42,0-0.81,0.18-1.09,0.45c-0.28,0.28-0.45,0.66-0.45,1.09c0,0.42,0.17,0.81,0.45,1.09c0.28,0.28,0.66,0.45,1.09,0.45
		C490.72,201.19,491.1,201.02,491.38,200.74z M412.78,222.3c1.39-1.39,2.25-3.31,2.25-5.44c0-2.12-0.86-4.04-2.25-5.43
		c-1.39-1.39-3.31-2.25-5.44-2.25s-4.05,0.86-5.44,2.25c-1.39,1.39-2.25,3.31-2.25,5.43c0,2.12,0.86,4.05,2.25,5.44
		c1.39,1.39,3.31,2.25,5.44,2.25S411.38,223.69,412.78,222.3z M427.76,210.01c1.04-1.04,1.69-2.49,1.69-4.08s-0.65-3.03-1.69-4.08
		c-1.04-1.04-2.49-1.69-4.08-1.69c-1.59,0-3.03,0.64-4.08,1.69c-1.04,1.05-1.69,2.49-1.69,4.08s0.64,3.04,1.69,4.08
		c1.05,1.04,2.49,1.69,4.08,1.69C425.28,211.7,426.72,211.05,427.76,210.01z M445.69,204.84c0.7-0.7,1.12-1.66,1.12-2.72
		c0-1.06-0.43-2.02-1.12-2.72s-1.66-1.12-2.72-1.12s-2.02,0.43-2.72,1.12c-0.7,0.7-1.12,1.66-1.12,2.72c0,1.06,0.43,2.02,1.12,2.72
		c0.7,0.69,1.66,1.12,2.72,1.12S445,205.53,445.69,204.84z M463.62,207.29c0.35-0.35,0.56-0.83,0.56-1.36s-0.21-1.01-0.56-1.36
		c-0.35-0.35-0.83-0.56-1.36-0.56c-0.53,0-1.01,0.21-1.36,0.56c-0.35,0.35-0.56,0.83-0.56,1.36s0.21,1.01,0.56,1.36
		c0.35,0.35,0.82,0.56,1.36,0.56C462.8,207.85,463.27,207.63,463.62,207.29z M422.68,242.8c1.39-1.39,2.25-3.31,2.25-5.44
		c0-2.12-0.86-4.05-2.25-5.44c-1.39-1.39-3.31-2.25-5.44-2.25c-2.12,0-4.05,0.86-5.44,2.25c-1.39,1.39-2.25,3.31-2.25,5.44
		c0,2.12,0.86,4.05,2.25,5.44c1.39,1.39,3.31,2.25,5.44,2.25C419.37,245.05,421.29,244.19,422.68,242.8z M438.12,226.16
		c0.7-0.7,1.12-1.66,1.12-2.72c0-1.06-0.43-2.02-1.12-2.72c-0.7-0.69-1.66-1.12-2.72-1.12c-1.06,0-2.02,0.43-2.72,1.12
		c-0.7,0.7-1.12,1.66-1.12,2.72c0,1.06,0.43,2.02,1.12,2.72c0.69,0.69,1.65,1.12,2.72,1.12
		C436.46,227.29,437.43,226.86,438.12,226.16z"/>
	<g>
		<path class="st2" d="M146.93,145.99c-51.33-20.42-79.57-41.72-86.36-65.1c-4.62-15.94,0.85-33.18,16.27-51.23l0.5-0.58l0.25,0.72
			c17.04,49.33,45.55,74.99,117.34,105.64l3.27,1.39l-1.94-2.98c-3.27-5.02-6.3-13.08-2.12-22.97l0.38-0.89l0.42,0.87
			c13.85,28.81,69.76,52.87,86.57,59.56c4.46,1.77,8.96,3.46,13.38,5.03l1.11,0.39l0.02-0.07c0.82,0.32,1.68,0.66,2.58,1.01
			c1.75,0.7,3.62,1.45,5.49,2.21c1.88,0.76,3.75,1.52,5.51,2.22c0.14,0.06,0.28,0.11,0.42,0.17l-0.3,0.07l-0.15,0.68
			c-1.1,5-3.31,11.39-5.99,17.27c-2.19-0.82-4.7-1.82-7.21-2.81c-2.57-1.02-5.14-2.04-7.37-2.87l-0.7-0.33
			c-14.74-5.86-34.89-12.09-56.23-18.67C204.97,166.35,174.28,156.87,146.93,145.99z"/>
		<g>
			<g>
				<path d="M146.53,146.99c-42.95-17.09-78.94-38.04-86.99-65.8c-4.73-16.31,0.82-33.88,16.49-52.23l1.72-2.02l0.87,2.51
					c16.77,48.56,45.44,74.56,116.75,105c-3.65-5.6-6.47-13.89-2.21-23.98l1.31-3.1l1.46,3.03c12.55,26.11,62.2,51.12,100.91,64.59
					l-1,2.86c-39.55-13.78-85.96-37.31-100.98-63.03c-2.81,10.37,2.69,18.28,6.48,22.27l4.96,5.22l-6.64-2.77
					c-74.98-31.31-105.34-57.46-123-106.58C62.96,49.74,58.19,65.68,62.45,80.35c12.73,43.89,103.74,71.98,170.2,92.49
					c22.8,7.04,42.49,13.12,57.21,19.05l-1.13,2.81c-14.64-5.89-34.23-11.94-56.97-18.96C204.16,167.22,173.93,157.89,146.53,146.99
					z"/>
			</g>
		</g>
		<g>
			<g>
				<g>
					<path d="M198.33,143.87C146.53,132.5,84.18,93.1,75.94,44.39l0,0C94.44,90.54,124.2,114.72,198.33,143.87L198.33,143.87
						C197.31,143.46,199.34,144.27,198.33,143.87z"/>
				</g>
			</g>
		</g>
		<g>
			<g>
				<g>
					<path d="M277.16,176.1c-16.17-6.49-50.15-21.12-56.85-32.03l0,0c18.51,13.52,41.48,24.02,57.48,30.45L277.16,176.1z"/>
				</g>
			</g>
		</g>
		<g>
			<g>
				<path class="st3" d="M313.75,181.68c-5.27-2-13.21-5.34-18.48-7.35c-1.46,5.46-5.09,15.07-7.4,20.11
					c4.77,1.76,11.49,4.55,16.27,6.32c3-6.43,5.37-13.35,6.48-18.4L313.75,181.68z"/>
			</g>
		</g>
		<g>
			<g>
				<path class="st3" d="M308.09,205.92c0.49-0.99,0.98-2.04,1.45-3.13c-0.01,0,0.01,0,0,0c2.69-6.26,5.2-13.79,6.64-20.36
					c0.03,0.01-0.03-0.01,0,0c0.64-3,1.03-5.75,1.15-8.1c0.27-3.6-0.1-6.24-1.33-7.19c-0.03-0.03-0.07-0.05-0.1-0.07
					c-0.09-0.06-0.19-0.11-0.29-0.16c-0.01-0.01-0.03-0.02-0.04-0.02c-0.01,0-0.01,0-0.02,0c-0.03-0.01-0.06-0.03-0.1-0.04
					c-0.19-0.05-0.39-0.05-0.6-0.02c-2.26,0.19-5.11,4.21-7.82,9.88c-0.49,0.99-0.98,2.04-1.45,3.13c0.01,0,0.02,0.01,0.03,0.01
					c-2.69,6.26-5.12,13.82-6.56,20.39c-0.03-0.01-0.08-0.02-0.11-0.03c-0.64,3-1.03,5.76-1.15,8.1c-0.27,3.59,0.1,6.24,1.33,7.19
					c0.03,0.03,0.07,0.05,0.1,0.07c0.09,0.06,0.19,0.11,0.29,0.16c0.01,0.01,0.03,0.02,0.04,0.02c0.01,0,0.01,0,0.02,0
					c0.03,0.01,0.06,0.03,0.1,0.04c0.19,0.05,0.39,0.05,0.6,0.02C302.53,215.6,305.37,211.59,308.09,205.92z"/>
			</g>
		</g>
		<g>
			<g>
				<path class="st4" d="M293.49,192.2c2.76,1.34,5.54,2.69,8.26,4.19c-3.17-0.82-6.24-1.92-9.23-3.25l-0.39-0.17l0,0
					c1.37-2.75,3.7-11.64,4.64-14.13C296.61,181.28,294.48,190.42,293.49,192.2z"/>
			</g>
		</g>
		<g>
			<g>
				<path d="M864.17,423.21l-560.41-223l7.26-18.26l560.41,223C873.38,409.47,868.87,421.76,864.17,423.21z"/>
			</g>
		</g>
		<g>
			<path class="st2" d="M864.77,403.02l-3.34-1.33c1.3,4-2.96,15.44-6.77,17.02l3.34,1.33
				C861.81,418.46,866.07,407.02,864.77,403.02z"/>
		</g>
		<g>
			<path class="st2" d="M813.81,382.74l-3.34-1.33c1.3,4-2.96,15.44-6.77,17.02l3.34,1.33
				C810.86,398.19,815.12,386.75,813.81,382.74z"/>
		</g>
		<g>
			<path class="st2" d="M719.46,345.2l-3.34-1.33c1.3,4-2.96,15.44-6.77,17.02l3.34,1.33C716.5,360.64,720.77,349.2,719.46,345.2z"
				/>
		</g>
		<g>
			<path class="st2" d="M555.95,280.13l-3.34-1.33c1.3,4-2.96,15.44-6.77,17.02l3.34,1.33
				C552.99,295.58,557.26,284.14,555.95,280.13z"/>
		</g>
		<g>
			<path class="st2" d="M464.81,243.87l-3.34-1.33c1.3,4-2.96,15.44-6.77,17.02l3.34,1.33
				C461.85,259.31,466.11,247.87,464.81,243.87z"/>
		</g>
		<g>
			<polygon class="st5" points="475.03,265.65 481.33,261.31 479.91,251.53 473.48,257.08 			"/>
		</g>
		<g>
			<polygon class="st5" points="484.61,269.72 490.97,265.26 489.55,255.48 483.12,261.02 			"/>
		</g>
		<g>
			<polygon class="st5" points="494.24,273.67 500.6,269.2 499.18,259.43 492.75,264.97 			"/>
		</g>
		<g>
			<polygon class="st5" points="503.88,277.61 510.17,273.27 508.76,263.5 502.39,268.92 			"/>
		</g>
		<g>
			<polygon class="st5" points="513.51,281.56 519.81,277.22 518.39,267.45 512.02,272.86 			"/>
		</g>
		<g>
			<polygon class="st5" points="523.15,285.51 529.45,281.17 528.03,271.39 521.6,276.94 			"/>
		</g>
		<g>
			<polygon class="st5" points="532.58,288.55 538.88,284.21 537.46,274.43 531.03,279.98 			"/>
		</g>
		<g>
			<polygon class="st5" points="730.63,367.35 736.93,363.02 735.51,353.24 729.08,358.78 			"/>
		</g>
		<g>
			<polygon class="st5" points="740.2,371.43 746.56,366.96 745.15,357.19 738.71,362.73 			"/>
		</g>
		<g>
			<polygon class="st5" points="749.84,375.37 756.2,370.91 754.78,361.13 748.35,366.68 			"/>
		</g>
		<g>
			<polygon class="st5" points="759.47,379.32 765.77,374.98 764.35,365.21 757.98,370.63 			"/>
		</g>
		<g>
			<polygon class="st5" points="769.11,383.27 775.41,378.93 773.99,369.15 767.62,374.57 			"/>
		</g>
		<g>
			<polygon class="st5" points="778.74,387.21 785.04,382.87 783.62,373.1 777.19,378.64 			"/>
		</g>
		<g>
			<polygon class="st5" points="788.18,390.25 794.47,385.92 793.06,376.14 786.62,381.68 			"/>
		</g>
		<g>
			<path class="st3" d="M309.9,208.22l-5.94-3.06c-0.9-0.46-1.26-1.58-0.79-2.48l11.47-22.27c0.46-0.9,1.58-1.26,2.48-0.79
				l5.94,3.06c0.9,0.46,1.26,1.58,0.79,2.48l-11.47,22.27C311.92,208.33,310.8,208.68,309.9,208.22z"/>
		</g>
		<g>
			<path class="st3" d="M316.15,210.71l-5.94-3.06c-0.9-0.46-1.26-1.58-0.79-2.48l11.47-22.27c0.46-0.9,1.58-1.26,2.48-0.79
				l5.94,3.06c0.9,0.46,1.26,1.58,0.79,2.48l-11.47,22.27C318.17,210.81,317.05,211.17,316.15,210.71z"/>
		</g>
		<g>
			<path class="st3" d="M322.4,213.19l-5.94-3.06c-0.9-0.46-1.26-1.58-0.79-2.48l11.47-22.27c0.46-0.9,1.58-1.26,2.48-0.79
				l5.94,3.06c0.9,0.46,1.26,1.58,0.79,2.48l-11.47,22.27C324.42,213.3,323.3,213.66,322.4,213.19z"/>
		</g>
		<g>
			<path class="st3" d="M328.65,215.68l-5.94-3.06c-0.9-0.46-1.26-1.58-0.79-2.48l11.47-22.27c0.46-0.9,1.58-1.26,2.48-0.79
				l5.94,3.06c0.9,0.46,1.26,1.58,0.79,2.48l-11.47,22.27C330.67,215.79,329.55,216.14,328.65,215.68z"/>
		</g>
		<g>
			<path class="st3" d="M334.9,218.17l-5.94-3.06c-0.9-0.46-1.26-1.58-0.79-2.48l11.47-22.27c0.46-0.9,1.58-1.26,2.48-0.79
				l5.94,3.06c0.9,0.46,1.26,1.58,0.79,2.48l-11.47,22.27C336.92,218.27,335.8,218.63,334.9,218.17z"/>
		</g>
		<g>
			<path class="st3" d="M837.28,418.07l-5.94-3.06c-0.9-0.46-1.26-1.58-0.79-2.48l11.47-22.27c0.46-0.9,1.58-1.26,2.48-0.79
				l5.94,3.06c0.9,0.46,1.26,1.58,0.79,2.48l-11.47,22.27C839.3,418.18,838.18,418.54,837.28,418.07z"/>
		</g>
		<g>
			<path class="st3" d="M843.53,420.56l-5.94-3.06c-0.9-0.46-1.26-1.58-0.79-2.48l11.47-22.27c0.46-0.9,1.58-1.26,2.48-0.79
				l5.94,3.06c0.9,0.46,1.26,1.58,0.79,2.48l-11.47,22.27C845.55,420.67,844.43,421.03,843.53,420.56z"/>
		</g>
		<g>
			<path class="st3" d="M849.78,423.05l-5.94-3.06c-0.9-0.46-1.26-1.58-0.79-2.48l11.47-22.27c0.46-0.9,1.58-1.26,2.48-0.79
				l5.94,3.06c0.9,0.46,1.26,1.58,0.79,2.48l-11.47,22.27C851.8,423.16,850.68,423.51,849.78,423.05z"/>
		</g>
		<g>
			<path class="st3" d="M856.03,425.54l-5.94-3.06c-0.9-0.46-1.26-1.58-0.79-2.48l11.47-22.27c0.46-0.9,1.58-1.26,2.48-0.79
				l5.94,3.06c0.9,0.46,1.26,1.58,0.79,2.48l-11.47,22.27C858.05,425.64,856.93,426,856.03,425.54z"/>
		</g>
		<g>
			<path class="st3" d="M862.28,428.02l-5.94-3.06c-0.9-0.46-1.26-1.58-0.79-2.48l11.47-22.27c0.46-0.9,1.58-1.26,2.48-0.79
				l5.94,3.06c0.9,0.46,1.26,1.58,0.79,2.48l-11.47,22.27C864.3,428.13,863.18,428.49,862.28,428.02z"/>
		</g>
	</g>
</g>
</svg>
