<?xml version="1.0" encoding="utf-8"?>
<!-- Generator: Adobe Illustrator 24.0.1, SVG Export Plug-In . SVG Version: 6.00 Build 0)  -->
<svg version="1.1" id="Layer_1" xmlns="http://www.w3.org/2000/svg" xmlns:xlink="http://www.w3.org/1999/xlink" x="0px" y="0px"
	 viewBox="0 0 891.39 456.79" style="enable-background:new 0 0 891.39 456.79;" xml:space="preserve">
<style type="text/css">
	.st0{opacity:0;fill:#FFFFFF;}
	.st1{fill:#855436;}
	.st2{fill:#714731;}
</style>
<g>
	<rect y="0" class="st0" width="891.39" height="456.79"/>
	<path class="st1" d="M592.69,181.72l0.12,1.98c-1.76-4.76-2.61-7.64-4.99-12.7c0.56,1.47,1.07,2.85,1.58,4.34l-0.14-0.31
		c-2.21-5.54-5.48-11.99-9.5-18.3c-4.01-7.16-9.16-14.74-15.46-22.11c-6.29-7.38-13.73-14.57-22.08-21.03
		c-0.55-0.42-1.11-0.83-1.66-1.25c-2.13-1.88-5.56-4.53-9.86-7.26c-1.74-1.18-3.84-2.49-5.11-3.34
		c-11.33-7.71-26.69-15.27-44.86-19.89c3.47,0.98,7.06,2.12,10.45,3.33c-5.12-1.68-10.26-3.13-16.17-4.27
		c0.6,0.24,1.37,0.51,1.97,0.76c-8.99-2.3-20.02-3.72-30.33-3.69c-10.32-0.02-19.86,1.33-26.06,2.91c-3.12,0.79-5.13,1.51-6.13,2.06
		c-1,0.55-0.98,0.92-0.03,1.1c1.91,0.38,7.56-0.11,16.58-0.46c0.79-0.03,1.58-0.03,2.37-0.05c-9.07,0.84-16.83,2.63-21.03,4.25
		c-2.26,0.89-0.1,0.95,0.49,1.3c-0.56,0.84,6.48-0.2,15.82-1.11c2.38-0.24,4.67-0.44,6.79-0.61c4.18-0.15,8.4-0.16,12.6,0.02
		c6.82,0.3,13.6,1.06,20.06,2.25c2.04,0.39,4.54,0.77,5.64,0.83c0.95,0.03,0.1-0.34-2.01-0.79c-7.42-1.64-14.75-2.73-22.1-3.3
		c-0.61,0.02-1.21,0.03-1.82,0.06c0.25-0.05,0.58-0.09,0.93-0.13c-0.71-0.05-1.42-0.09-2.13-0.13c0.55-0.02,1.1-0.05,1.67-0.06
		c0.55,0.03,1.09,0.06,1.63,0.09c0.95-0.06,2.08-0.08,3.32-0.08c3.71,0.27,7.4,0.68,11.04,1.22c9.34,1.38,18.37,3.65,26.7,6.59
		c0.67,0.24-0.56,0.17,0.66,0.67l1.89,0.78c-2.06-0.76-4.26-1.5-6.65-2.22c-4.58-1.08-7.77-1.63-10.11-2.03
		c-2.34-0.38-3.82-0.59-5.03-0.75l-0.04-0.01l-0.73-0.09c-1.12-0.14-2.1-0.26-3.52-0.41c0,0,0.01,0.01,0.01,0.03l-0.9-0.08
		c-1.38-0.22-2.76-0.43-4.15-0.6c-1.56-0.21-3.09-0.31-3.87-0.28c-0.54-0.13-1.12-0.25-1.85-0.39c-3.98-0.38-5.99-0.47-8.01-0.57
		c-2.03-0.08-4.08-0.17-8.19-0.14c0,0,0.02,0.08,0.29,0.18l-6.25,0.33l-3.64,0.28c-1.34,0.11-3.26,0.24-7.07,0.68
		c0,0.01,0-0.03,3.71-0.15c0,0.01,0-0.02-3.25,0.18l0.88,0.23l-1.53-0.18l-1.34,0.47l-0.82,0.01c-0.81,0.02-2.43,0.05-5.67,0.23
		c-0.49,0.12-1.66,0.36-4.57,1.1c0,0-0.8,0.26-1.37,0.49c-0.04,0.11-0.05,0.1-2.45,1.04c0,0-0.03,0.13,0.24,0.19
		c0.79-0.07,0.79-0.07,1.05,0.19c0,0,0.88-0.09,2.16-0.26c1.21-0.2,1.52-0.29,6.01-0.94c-0.38,0.12-0.73,0.25-1.05,0.37
		c-0.38,0.37-0.56,0.55,0.07,0.68c0.63,0.13,2.08,0.19,4.95,0.43l8.16-0.43c2.91-0.23,4.37-0.29,5.94-0.37
		c1.57-0.06,3.25-0.13,6.62-0.14c0,0,1.46,0.01,3.99,0.09c1.88,0.24,2.29,0.31,3.68,0.55l0.03,0c-1.28-0.03-2.54-0.01-3.58,0.05
		c-3.02,0.18-3.43,0.53-0.91,0.75c-3.31,0.93-1.29,1.69,2.81,2.54c-1.26,0.28-1.84,0.59-1.68,0.91c-4.81,0.73-7.72,1.73-8.9,2.66
		l-0.52,0.79c1.39,0.57,5.33,0.93,11.09,1.51l1.74,0.23l-1.67,0.58c2.88,0.72,6.85,1.54,11.06,2.57
		c54.33,7.67,101.16,47.42,115.07,103.96c18.26,74.21-27.1,149.17-101.3,167.43c-74.21,18.26-149.17-27.1-167.43-101.3
		c-8.49-34.51-3.21-69.19,12.32-98.24c0.12-0.23,0.21-0.47,0.33-0.7c5.54-10.86,12.45-21.01,20.5-30.13
		c8.05-9.12,17.25-17.21,27.31-24.02c1.98-1.3,3.54-2.43,3.39-2.56c-0.14-0.13-1.95,0.79-3.93,2.1
		c-11.65,7.48-22.25,16.71-31.34,27.3c-9.09,10.58-16.68,22.53-22.4,35.33c0.71-1.83,1.46-3.64,2.25-5.45
		c0.83-1.77,1.69-3.53,2.59-5.26c8.54-15.94,20.02-30.3,33.79-42.16c5.17-4.39,9.54-7.94,9.52-8.59c-0.2-0.48-4.66,2.06-9.76,6.29
		c0.8-0.71,1.6-1.41,2.42-2.11c0.83-0.69,1.38-1.25,1.1-1.13c-0.39,0.19-1.52,1-2.32,1.69c-2.94,2.54-5.7,5.16-8.38,7.88
		c-12.72,11.99-23.26,26.32-30.96,42.05c-7.71,15.72-12.57,32.85-14.27,50.28c1.56-18.78,6.88-37.43,15.64-54.47
		c8.74-17.05,20.93-32.49,35.74-45.02c-0.56,0.55-0.56,0.69,0.23,0.13c0.67-0.49,1.93-1.52,2.51-2.07c0.67-0.63,0.48-0.62-0.21-0.14
		l-0.07,0.05c16.16-13.12,35.26-22.73,55.54-27.94c1.18-0.3,2.18-0.63,2.13-0.73c-0.05-0.09-1.16,0.1-2.47,0.45
		c-16.82,4.36-32.85,11.72-47.03,21.63c-14.2,9.9-26.54,22.3-36.36,36.36c-9.83,14.05-17.12,29.75-21.51,46.1
		c-4.41,16.35-5.89,33.35-4.49,49.95c0.25,3.62,0.63,7.24,1.15,10.86c0,0,0,0-0.01,0.01c-0.23,1.19-0.25,3.63,0.08,6.92
		c-4.58-23.31-3.48-47.63,3.21-70.47c5.78-18.97,15.35-36.76,28.03-52.04c1.83-2.2,3.29-4.1,3.16-4.31
		c-0.1-0.21-1.82,1.45-3.76,3.77c-3.13,3.76-6.06,7.68-8.81,11.73c2.03-3.49,3.32-5.84,3.12-6.32c-0.17-0.47-1.72,0.92-3.94,3.59
		c12.12-18.26,28.11-33.73,46.17-45.21c1.06-0.67,1.59-1.09,1.16-0.94c-0.43,0.15-1.57,0.76-2.61,1.44
		c-26.5,16.49-47.19,40.97-59.38,69.08c-5.17,10.94-9.04,22.39-11.51,34.43c-2.46,12.03-3.51,24.65-2.76,37.83
		c1.13,19.2,5.94,37.51,13.66,54.13c7.73,16.62,18.38,31.49,31.18,44.03c8.97,9.26,19.1,17.34,30.02,23.97
		c-1.64-0.75-2.68-1.12-2.82-0.9c-0.03,0.06,0.05,0.18,0.14,0.31c-9.57-6.02-18.55-13.1-26.76-21.23
		c-19.06-18.83-32.86-42.31-40.16-67.37c-3.67-12.52-5.79-25.44-6.29-38.4c-0.5-12.96,0.62-25.95,3.32-38.57
		c5.38-25.26,17.06-49.05,33.74-68.77c16.63-19.75,38.33-35.38,62.68-44.85c6.23-2.4,10.78-4.1,9.87-4.35
		c-0.88-0.24-6.97,1.22-13.21,3.77c-23.57,9.33-43.86,24.05-59.8,42.4c-15.94,18.36-27.69,40.42-33.91,65.02
		c-4.4,17.52-5.63,34.64-4.27,51.49c1.41,16.84,5.37,33.44,12.46,49.97c8.33,19.33,20.11,36.31,34.46,50.46
		c14.36,14.14,31.31,25.52,50.32,33.4c3.71,1.62,7.5,3.07,11.4,4.31c3.95,1.26,7.93,2.35,11.93,3.28
		c15.66,3.79,31.76,5.15,47.62,4.11c15.86-1.05,31.43-4.46,46.2-10.08c-17.53,7.04-36.29,10.93-55.17,11.44
		c-18.87,0.51-37.77-2.41-55.52-8.42c-2.55-0.88-4.27-1.38-4.08-1.1c0.38,0.35,2.6,1.35,5.17,2.21c12.42,4.22,25.37,6.9,38.46,7.95
		c13.09,1.05,26.3,0.46,39.23-1.73c12.92-2.19,25.55-5.95,37.56-11.22c12.01-5.26,23.35-12.03,33.66-20.1
		c6.15-3.7,15.16-10.55,23.93-20c4.39-4.71,8.73-10.04,12.7-15.76c3.98-5.71,7.57-11.82,10.64-17.96
		c4.52-9.08,7.71-17.98,10.07-27.14c-1.29,4.22-2.7,8.29-4.33,12.38c4.52-12.21,6.68-23.18,7.82-34.03c0.16-0.94,0.3-1.88,0.44-2.89
		c2.03-12.52,2.34-26.44,0.6-40.38C601.47,208.43,597.78,194.53,592.69,181.72z M438.63,90.17c0.68,0.02,1.21,0.07,2.08,0.15
		L438.63,90.17z M450.59,102.12l-0.47-0.1c1.94-0.57,3.9-1.09,5.89-1.56C454.18,100.98,452.37,101.54,450.59,102.12z M484.5,99.19
		c-0.13-0.06-0.26-0.12-0.4-0.18l0.43,0.19L484.5,99.19z M555.63,136.94c-0.91-0.91-2.66-2.72-1.89-1.56
		c-7.27-7.56-15.46-14.47-24.57-20.55c-3.39-2.26-6.85-4.31-10.26-6.1c-3.52-2.52-7.38-5.05-12.64-7.78
		c8.96,4.19,18.78,9.8,27.11,15.95c9.25,6.79,17.59,14.46,24.99,22.88C557.47,138.84,556.56,137.89,555.63,136.94z M575.59,154.91
		c-1.46-2.32-3-4.6-4.59-6.85l0.78,1.31c-6.19-8.63-13.25-16.61-20.97-23.8c-7.21-6.96-15.54-13.52-24.71-19.2
		c-4.74-2.94-9.71-5.64-14.84-8.07c4.4,1.81,8.53,3.7,12.33,5.58c8.08,4.87,15.56,10.36,22.56,16.47
		c8.83,7.72,16.92,16.4,24.36,26.27c0.85,1.19,1.66,2.38,2.46,3.58c1.07,1.79,2.1,3.61,3.1,5.44L575.59,154.91z"/>
	<path class="st1" d="M306.94,213.21c-3.9,20.01-3.23,39.73,1.15,57.95c-3.99-18.75-4.23-37.89-0.73-56.38
		c3.49-18.48,10.73-36.32,21.52-52.21c0.92-1.4,1.96-2.74,2.67-3.54c0.01-0.1,0.18-0.41,0.46-0.83c2.68-3.99,5.91-8.15,9.48-12.16
		c0.67-0.78,1.6-1.69,2.06-2c0.44-0.32,0.05,0.18-0.7,1.04c-3.53,3.87-6.64,7.76-9.15,11.41c-0.47,0.68-1.05,1.4-1.49,1.94
		c0.31-0.15-0.18,0.73-1.24,2.28c-10.34,15.34-18.09,33.17-21.93,52.05c-1.93,9.43-2.89,19.11-2.82,28.78
		c0.07,9.67,1.16,19.33,3.24,28.73c0.17,0.23,0.4,0.7,0.69,1.52c0.93,2.52,2.36,7.64,3.97,12.91c0.39,1.33,0.79,2.66,1.23,3.97
		c5.34,15.93,13.7,30.81,24.42,43.72c2.36,2.5,5.14,5.35,8.24,8.36c10.65,9.82,22.82,17.95,36.15,24.17c-0.78-0.51-1.22-0.88-1.14-1
		c0.41-0.18,3.53,1.15,7.14,2.74c1.83,0.79,3.67,1.55,5.52,2.26c-5.3-2.14-10.45-4.64-15.4-7.43c-0.72-0.4-1.37-0.78-1.96-1.15
		c-5.44-3.08-10.72-6.55-15.84-10.44c-11.17-8.46-20.88-18.49-28.85-29.6c-7.97-11.1-14.18-23.29-18.51-36.04
		c-4.33-12.77-6.81-26.08-7.32-39.42c-0.52-13.35,0.92-26.75,4.27-39.69c0.19-0.86,0.59-2.17,0.9-2.89c0.23-0.47,0.31-0.35,0.07,0.6
		c-2.06,8.16-3.26,16.21-3.74,24.17c-0.47,7.97-0.24,15.86,0.68,23.77c0.92,7.91,2.53,15.84,4.88,23.87
		c2.37,8.03,5.48,16.15,9.59,24.33c9.77,19.48,24.25,36.2,41.82,48.62c17.55,12.43,38.17,20.56,59.77,23.24
		c22.52,3.26,45.02,0.16,65.38-8.07c20.33-8.24,38.55-21.79,52.68-39.95c9.53-12.26,16.69-26.02,21.26-40.43
		c4.56-14.41,6.53-29.45,5.84-44.32c-0.68-14.86-3.99-29.65-9.68-43.4c-5.69-13.75-13.84-26.5-24.09-37.52
		c-7.74-8.21-16.05-15.16-22.76-20.26c-6.7-5.1-11.73-8.48-12.62-10.06c-0.51-0.93,0.53-1.09,2.83-0.51
		c2.3,0.59,5.84,1.93,10.18,4.19c-1.64-1.04-3.28-2.02-4.95-2.99c-2.61-1.58-5.29-3.07-8.01-4.47c-7.72-3.99-14.6-6.86-18.92-8.87
		c-1.99-0.89-4.01-1.74-6.06-2.54c-4.02-1.83-9.5-3.7-14.95-5.14c-1.15-0.31-2.29-0.59-3.41-0.87c-16.98-2.4-34.69-1.69-52.36,2.65
		c-27.35,6.73-50.76,21.18-68.53,40.43c-8.13,9.46-14.6,19.58-19.7,30.27C313.06,189.8,309.3,201.14,306.94,213.21z"/>
	<path class="st2" d="M305.09,275.77c18.26,74.21,93.22,119.56,167.43,101.3c74.21-18.26,119.56-93.22,101.3-167.43
		c-13.91-56.54-60.74-96.29-115.07-103.96c1.13,0.28,2.26,0.56,3.41,0.87c5.44,1.44,10.93,3.31,14.95,5.14
		c2.04,0.8,4.06,1.65,6.06,2.54c4.32,2.02,11.2,4.88,18.92,8.87c2.72,1.4,5.39,2.89,8.01,4.47c1.67,0.96,3.31,1.95,4.95,2.99
		c-4.34-2.26-7.89-3.61-10.18-4.19c-2.3-0.58-3.35-0.42-2.83,0.51c0.89,1.58,5.92,4.95,12.62,10.06
		c6.71,5.09,15.02,12.05,22.76,20.26c10.25,11.03,18.4,23.77,24.09,37.52c5.7,13.74,9.01,28.54,9.68,43.4
		c0.69,14.87-1.28,29.91-5.84,44.32c-4.56,14.4-11.73,28.17-21.26,40.43c-14.12,18.15-32.35,31.7-52.68,39.95
		c-20.36,8.23-42.87,11.34-65.38,8.07c-21.6-2.67-42.22-10.81-59.77-23.24c-17.57-12.42-32.05-29.14-41.82-48.62
		c-4.11-8.18-7.22-16.3-9.59-24.33c-2.36-8.04-3.97-15.96-4.88-23.87c-0.92-7.91-1.16-15.8-0.68-23.77
		c0.48-7.97,1.67-16.01,3.74-24.17c0.24-0.95,0.16-1.07-0.07-0.6c-0.31,0.72-0.71,2.03-0.9,2.89c-3.34,12.95-4.79,26.34-4.27,39.69
		c0.51,13.35,3,26.65,7.32,39.42c4.32,12.76,10.54,24.94,18.51,36.04c7.96,11.11,17.68,21.13,28.85,29.6
		c5.12,3.88,10.4,7.35,15.84,10.44c0.58,0.37,1.24,0.75,1.96,1.15c4.95,2.79,10.11,5.29,15.4,7.43c-1.86-0.72-3.69-1.47-5.52-2.26
		c-3.61-1.59-6.73-2.92-7.14-2.74c-0.07,0.12,0.37,0.49,1.14,1c-13.33-6.22-25.5-14.35-36.15-24.17c-3.1-3.01-5.88-5.86-8.24-8.36
		c-10.72-12.91-19.08-27.79-24.42-43.72c-0.43-1.32-0.84-2.64-1.23-3.97c-1.62-5.27-3.04-10.39-3.97-12.91
		c-0.29-0.81-0.52-1.29-0.69-1.52c-2.08-9.4-3.17-19.06-3.24-28.73c-0.06-9.67,0.9-19.35,2.82-28.78
		c3.84-18.89,11.6-36.71,21.93-52.05c1.05-1.56,1.54-2.43,1.24-2.28c0.45-0.54,1.02-1.26,1.49-1.94c2.51-3.65,5.62-7.54,9.15-11.41
		c0.75-0.86,1.13-1.36,0.7-1.04c-0.46,0.31-1.39,1.22-2.06,2c-3.57,4.02-6.8,8.17-9.48,12.16c-0.28,0.43-0.45,0.73-0.46,0.83
		c-0.71,0.8-1.75,2.14-2.67,3.54c-10.79,15.89-18.03,33.73-21.52,52.21c-3.5,18.49-3.26,37.63,0.73,56.38
		c-4.38-18.23-5.05-37.94-1.15-57.95c2.36-12.07,6.12-23.41,11.23-34.17c5.1-10.69,11.57-20.82,19.7-30.27
		c-2.39,2.59-4.67,5.27-6.85,8.03c-5.51,7.45-10.15,15.31-13.94,23.43c-5.17,11.11-8.8,22.71-10.92,34.58
		c-2.12,11.87-2.73,24.02-1.79,36.29c0.94,12.27,3.42,24.69,7.6,37.05c0.66,1.94,1.35,3.88,2.07,5.77
		c-6.55-14.73-10.59-30.42-11.91-46.41c-0.98-24.15,4.41-48.47,15.28-70C301.88,206.58,296.6,241.25,305.09,275.77z"/>
	<path d="M553.51,296.47c-5.52,0.21-9.67-0.95-12.34-3.46c-2.92-2.74-3.23-6.34-3.26-7.35l0-1.29c0.03-1.04,0.34-4.65,3.26-7.38
		c2.67-2.51,6.81-3.67,12.34-3.45l0.7,0.03l28.89-33.81l-43.73,8.12l-0.33,0.62c-2.57,4.89-5.65,7.9-9.16,8.96
		c-3.83,1.16-7.11-0.37-7.99-0.85l-1.12-0.65c-0.89-0.54-3.85-2.61-4.77-6.51c-0.83-3.57,0.23-7.75,3.18-12.42l0.37-0.59
		l-14.84-41.93l-14.84,41.93l0.37,0.59c2.94,4.67,4.01,8.85,3.18,12.42c-0.91,3.9-3.88,5.97-4.73,6.49l-1.12,0.65
		c-0.91,0.5-4.19,2.03-8.02,0.87c-3.51-1.06-6.59-4.08-9.16-8.96l-0.33-0.62l-43.73-8.12l28.89,33.81l0.7-0.03
		c5.52-0.21,9.67,0.95,12.34,3.45c2.92,2.74,3.23,6.34,3.26,7.35l0,1.29c-0.03,1.04-0.34,4.65-3.26,7.38
		c-2.67,2.51-6.83,3.67-12.34,3.46l-0.7-0.03l-28.89,33.81l43.73-8.12l0.33-0.62c2.57-4.89,5.65-7.9,9.16-8.96
		c3.83-1.16,7.11,0.37,7.99,0.85l1.12,0.64c0.89,0.54,3.85,2.61,4.77,6.51c0.83,3.57-0.23,7.75-3.18,12.42l-0.37,0.59l14.84,41.93
		l14.84-41.93l-0.37-0.59c-2.94-4.67-4.01-8.85-3.18-12.42c0.91-3.9,3.88-5.97,4.73-6.49l1.12-0.64c0.91-0.5,4.19-2.03,8.02-0.87
		c3.51,1.06,6.59,4.08,9.16,8.96l0.33,0.62l43.73,8.12l-28.89-33.81L553.51,296.47z M504.73,299.65c-8.07,0-14.64-6.57-14.64-14.64
		c0-8.07,6.57-14.64,14.64-14.64c8.07,0,14.64,6.57,14.64,14.64C519.37,293.08,512.8,299.65,504.73,299.65z"/>
	<path d="M426.23,169.65c-5.39,1.19-9.68,0.79-12.76-1.21c-3.36-2.17-4.31-5.67-4.51-6.65l-0.23-1.27
		c-0.16-1.03-0.49-4.63,1.89-7.84c2.19-2.94,6.05-4.82,11.53-5.59l0.7-0.1l22.42-38.41l-41.59,15.76l-0.21,0.67
		c-1.66,5.26-4.16,8.78-7.42,10.45c-3.56,1.82-7.06,0.9-8.01,0.58l-1.22-0.44c-0.97-0.38-4.26-1.89-5.85-5.56
		c-1.46-3.36-1.15-7.67,0.92-12.79l0.26-0.65L360.1,77.97l-7.15,43.9l0.47,0.52c3.73,4.07,5.52,7.99,5.34,11.66
		c-0.2,4-2.76,6.56-3.5,7.23l-0.99,0.84c-0.81,0.65-3.77,2.74-7.74,2.28c-3.64-0.42-7.21-2.84-10.61-7.19l-0.43-0.55l-44.48-0.21
		l34.44,28.14l0.69-0.15c5.4-1.19,9.68-0.79,12.76,1.21c3.36,2.17,4.31,5.67,4.51,6.65l0.23,1.27c0.16,1.03,0.49,4.63-1.89,7.84
		c-2.18,2.94-6.07,4.82-11.53,5.59l-0.7,0.1l-22.42,38.41l41.59-15.76l0.21-0.67c1.66-5.26,4.16-8.78,7.42-10.45
		c3.56-1.82,7.06-0.9,8.02-0.58l1.21,0.44c0.97,0.38,4.26,1.89,5.85,5.56c1.46,3.36,1.15,7.67-0.92,12.79l-0.26,0.65l22.05,38.63
		l7.15-43.9l-0.47-0.52c-3.73-4.07-5.52-7.99-5.34-11.65c0.2-4,2.76-6.56,3.51-7.23l0.98-0.83c0.81-0.65,3.76-2.74,7.74-2.28
		c3.64,0.42,7.21,2.84,10.61,7.19l0.43,0.55l44.48,0.21l-34.44-28.14L426.23,169.65z M378.79,181.44
		c-7.95,1.43-15.58-3.86-17.01-11.81s3.86-15.58,11.81-17.01c7.95-1.43,15.58,3.86,17.01,11.81
		C392.03,172.38,386.73,180.01,378.79,181.44z"/>
</g>
</svg>
