<?xml version="1.0" encoding="utf-8"?>
<!-- Generator: Adobe Illustrator 24.0.1, SVG Export Plug-In . SVG Version: 6.00 Build 0)  -->
<svg version="1.1" id="Layer_1" xmlns="http://www.w3.org/2000/svg" xmlns:xlink="http://www.w3.org/1999/xlink" x="0px" y="0px"
	 viewBox="0 0 891.39 456.79" style="enable-background:new 0 0 891.39 456.79;" xml:space="preserve">
<style type="text/css">
	.st0{opacity:0;fill:#FFFFFF;}
	.st1{fill:url(#SVGID_1_);}
	.st2{fill:#FFFFFF;}
</style>
<g>
	<rect x="0" y="0" class="st0" width="891.39" height="456.79"/>
	<linearGradient id="SVGID_1_" gradientUnits="userSpaceOnUse" x1="296.6122" y1="254.6207" x2="615.7755" y2="254.6207">
		<stop  offset="5.617738e-03" style="stop-color:#8C6A33"/>
		<stop  offset="0.139" style="stop-color:#9A7638"/>
		<stop  offset="0.3542" style="stop-color:#A9843E"/>
		<stop  offset="0.5225" style="stop-color:#AF8940"/>
		<stop  offset="1" style="stop-color:#8C6A33"/>
	</linearGradient>
	<path class="st1" d="M497.22,101.5c8.36,2.17,16.53,5.04,24.43,8.56c7.89,3.52,15.49,7.69,22.71,12.46
		c7.22,4.76,14.04,10.12,20.39,16c6.35,5.88,12.23,12.27,17.55,19.11c5.33,6.83,10.09,14.11,14.23,21.72
		c4.14,7.62,7.67,15.57,10.51,23.78c2.85,8.2,5.01,16.64,6.46,25.2c1.45,8.56,2.21,17.25,2.26,25.95c0.04,8.69-0.63,17.4-2.01,25.99
		c-1.38,8.59-3.46,17.08-6.23,25.33c-2.77,8.26-6.23,16.29-10.32,23.99c-4.09,7.7-8.82,15.07-14.11,22.01
		c-5.29,6.93-11.16,13.44-17.51,19.44s-13.2,11.48-20.44,16.37c-7.25,4.89-14.91,9.19-22.86,12.83c-7.96,3.64-16.22,6.63-24.68,8.92
		c-0.63,0.17-1.27,0.07-1.79-0.23c-0.53-0.3-0.94-0.8-1.11-1.43c-0.17-0.63-0.07-1.27,0.23-1.79c0.3-0.53,0.8-0.93,1.43-1.1
		c0,0,0.01,0,0.01,0c0.01,0,0.01,0,0.02,0c8.23-2.12,16.29-4.93,24.07-8.39c7.78-3.45,15.28-7.54,22.39-12.23
		c7.12-4.68,13.85-9.95,20.12-15.73c6.27-5.78,12.07-12.07,17.32-18.8c5.26-6.72,9.96-13.88,14.06-21.38
		c4.1-7.5,7.58-15.33,10.39-23.41c2.82-8.07,4.96-16.38,6.41-24.81c1.45-8.43,2.21-16.99,2.27-25.56c0.05-8.57-0.6-17.14-1.94-25.61
		c-1.34-8.47-3.38-16.83-6.1-24.97c-2.71-8.14-6.11-16.06-10.13-23.65c-4.02-7.59-8.66-14.86-13.87-21.7
		c-5.21-6.84-10.98-13.26-17.23-19.18c-6.25-5.91-12.98-11.33-20.12-16.15c-7.13-4.84-14.67-9.08-22.5-12.68
		C513.69,106.73,505.55,103.77,497.22,101.5z M593.8,202.79c2.78,7.51,4.94,15.24,6.44,23.09c1.51,7.85,2.38,15.82,2.59,23.81
		c0.22,7.99-0.21,15.98-1.29,23.89c-1.08,7.91-2.8,15.72-5.15,23.34c-2.34,7.61-5.32,15.04-8.88,22.16
		c-3.56,7.12-7.71,13.94-12.39,20.38c-4.68,6.43-9.88,12.48-15.53,18.06c-5.66,5.58-11.78,10.69-18.27,15.27
		c-6.49,4.58-13.34,8.62-20.49,12.07c-7.14,3.45-14.57,6.29-22.17,8.52c-7.61,2.23-15.39,3.83-23.24,4.78
		c-7.86,0.96-15.79,1.28-23.69,0.95c-7.9-0.32-15.77-1.29-23.51-2.89c-7.74-1.6-15.34-3.84-22.7-6.68
		c-7.36-2.84-14.48-6.29-21.27-10.3c0,0-0.01,0-0.01-0.01c-0.01,0-0.01,0-0.02-0.01c-0.57-0.32-1.21-0.39-1.79-0.23
		c-0.59,0.16-1.11,0.54-1.43,1.1c-0.32,0.57-0.39,1.21-0.23,1.79c0.16,0.59,0.54,1.11,1.11,1.44c7.06,4.05,14.45,7.52,22.08,10.35
		c7.62,2.83,15.47,5.04,23.45,6.59c7.97,1.55,16.08,2.44,24.18,2.68c8.11,0.23,16.24-0.19,24.28-1.27
		c8.03-1.08,15.98-2.82,23.73-5.19c7.75-2.37,15.29-5.37,22.54-8.98c7.25-3.6,14.19-7.81,20.74-12.56
		c6.55-4.74,12.7-10.02,18.38-15.76c5.68-5.74,10.88-11.95,15.55-18.53c4.67-6.58,8.79-13.55,12.3-20.8
		c3.52-7.25,6.43-14.79,8.71-22.52c2.28-7.72,3.92-15.63,4.91-23.61c0.99-7.98,1.32-16.04,1.01-24.07
		c-0.32-8.03-1.28-16.03-2.9-23.89c-1.61-7.87-3.87-15.6-6.75-23.09c-2.87-7.48-6.37-14.73-10.43-21.64
		C587.62,188,591.02,195.28,593.8,202.79z M579.81,310.58c-3.09,6.71-6.73,13.16-10.87,19.27c-4.14,6.11-8.77,11.87-13.85,17.22
		c-5.07,5.35-10.57,10.28-16.44,14.73c-5.86,4.46-12.08,8.42-18.59,11.86c-6.5,3.44-13.28,6.33-20.25,8.65
		c-6.97,2.32-14.12,4.06-21.37,5.2c-7.24,1.14-14.58,1.69-21.91,1.64c-7.33-0.06-14.65-0.71-21.86-1.96
		c-7.21-1.25-14.32-3.09-21.22-5.5c-6.91-2.41-13.6-5.4-20.01-8.91c-6.4-3.51-12.52-7.54-18.27-12.04
		c-5.74-4.5-11.11-9.47-16.05-14.84s-9.43-11.13-13.42-17.21c-4-6.09-7.48-12.5-10.43-19.15c-2.94-6.65-5.33-13.54-7.14-20.57
		l0.04,0.3l0.04,0.3v0v0c0,0,0-0.01,0-0.02c0-0.01,0-0.01,0-0.02c0-0.65-0.27-1.24-0.7-1.67c-0.43-0.42-1.02-0.68-1.68-0.68
		c-0.65,0-1.24,0.27-1.66,0.7c-0.43,0.43-0.69,1.02-0.68,1.68v0v0l0,0.02v0.02c0,0.09,0.01,0.19,0.02,0.28
		c0.02,0.09,0.04,0.19,0.06,0.28c1.97,7.26,4.54,14.36,7.67,21.19c3.13,6.83,6.82,13.41,11.03,19.62
		c4.2,6.22,8.91,12.09,14.06,17.55s10.73,10.48,16.69,15.02c5.95,4.54,12.28,8.59,18.89,12.1c6.61,3.51,13.5,6.47,20.59,8.84
		c7.09,2.38,14.37,4.16,21.74,5.33c7.37,1.18,14.84,1.75,22.3,1.7c7.46-0.05,14.91-0.7,22.25-1.96c7.35-1.25,14.58-3.11,21.61-5.56
		c7.03-2.44,13.85-5.47,20.37-9.03c6.53-3.56,12.76-7.65,18.61-12.22c5.86-4.57,11.34-9.61,16.36-15.06
		c5.03-5.45,9.62-11.31,13.69-17.49c4.08-6.18,7.64-12.71,10.65-19.47c3-6.76,5.45-13.77,7.3-20.93
		C585.44,296.91,582.9,303.87,579.81,310.58z M500.04,370.99c-6.35,2.34-12.88,4.16-19.52,5.43c-6.64,1.27-13.38,2-20.13,2.17
		c-6.75,0.18-13.51-0.19-20.19-1.11c-6.68-0.91-13.28-2.38-19.71-4.37c-6.43-1.99-12.7-4.5-18.71-7.52
		c-6.01-3.01-11.77-6.53-17.19-10.48s-10.53-8.35-15.24-13.14c-4.71-4.78-9.01-9.95-12.87-15.43c-3.85-5.48-7.26-11.27-10.15-17.3
		c-2.9-6.03-5.3-12.3-7.17-18.72c-1.87-6.42-3.21-12.99-4.01-19.61c-0.8-6.63-1.06-13.32-0.77-19.99c0.29-6.67,1.11-13.3,2.47-19.82
		c1.36-6.53,3.26-12.93,5.66-19.13c2.41-6.2,5.33-12.2,8.71-17.92c0,0,0-0.01,0.01-0.02c0,0,0-0.01,0.01-0.02
		c0.32-0.57,0.39-1.21,0.23-1.79c-0.16-0.58-0.54-1.11-1.1-1.43c-0.57-0.32-1.21-0.39-1.79-0.23c-0.59,0.16-1.11,0.54-1.44,1.11
		c-3.44,5.99-6.37,12.26-8.77,18.72c-2.4,6.46-4.27,13.13-5.57,19.89c-1.31,6.76-2.06,13.63-2.26,20.5
		c-0.19,6.88,0.17,13.76,1.09,20.57s2.4,13.54,4.41,20.1c2.02,6.56,4.57,12.95,7.63,19.08c3.06,6.14,6.63,12.02,10.65,17.56
		c4.02,5.54,8.5,10.75,13.36,15.55c4.87,4.8,10.13,9.21,15.71,13.15c5.57,3.95,11.47,7.43,17.62,10.39
		c6.14,2.97,12.53,5.43,19.06,7.35c6.54,1.92,13.23,3.3,19.99,4.13c6.76,0.83,13.58,1.1,20.37,0.83c6.79-0.28,13.56-1.11,20.21-2.48
		c6.65-1.37,13.19-3.29,19.52-5.73c6.33-2.44,12.45-5.4,18.29-8.85C512.54,365.78,506.39,368.64,500.04,370.99z M409.6,357.57
		c-5.58-2.57-10.95-5.61-16.03-9.06c-5.08-3.45-9.87-7.32-14.31-11.54c-4.45-4.22-8.55-8.8-12.24-13.68
		c-3.7-4.88-6.99-10.07-9.84-15.47s-5.25-11.05-7.17-16.85c-1.92-5.8-3.36-11.75-4.3-17.78c-0.94-6.03-1.38-12.13-1.33-18.22
		c0.06-6.09,0.61-12.17,1.66-18.16c1.05-5.99,2.59-11.89,4.61-17.63c2.01-5.73,4.5-11.29,7.43-16.61
		c2.93-5.31,6.28-10.39,10.03-15.15c3.74-4.76,7.88-9.21,12.34-13.3c4.46-4.09,9.26-7.81,14.32-11.11
		c5.06-3.31,10.39-6.19,15.91-8.62c5.52-2.42,11.24-4.4,17.08-5.88c0.01,0,0.01,0,0.02,0s0.02,0,0.02,0
		c0.63-0.17,1.13-0.58,1.43-1.11s0.4-1.16,0.23-1.79c-0.17-0.63-0.58-1.13-1.1-1.43c-0.53-0.3-1.17-0.4-1.79-0.23
		c-6.07,1.64-12,3.79-17.7,6.41c-5.71,2.61-11.2,5.7-16.39,9.21c-5.2,3.51-10.1,7.44-14.64,11.75c-4.55,4.3-8.75,8.97-12.53,13.94
		c-3.79,4.97-7.17,10.26-10.09,15.77c-2.93,5.52-5.39,11.27-7.37,17.19c-1.98,5.91-3.46,11.99-4.43,18.14
		c-0.98,6.15-1.45,12.38-1.4,18.6c0.05,6.22,0.6,12.43,1.66,18.55c1.06,6.12,2.61,12.15,4.66,18.01c2.04,5.86,4.57,11.54,7.55,16.98
		c2.97,5.43,6.39,10.62,10.21,15.49c3.81,4.87,8.02,9.43,12.57,13.61c4.55,4.19,9.43,8,14.59,11.38c5.16,3.39,10.6,6.35,16.23,8.84
		c5.64,2.49,11.48,4.52,17.44,6.05C420.98,362.26,415.18,360.15,409.6,357.57z M361.07,290.47c-1.91-5.19-3.39-10.53-4.42-15.96
		c-1.03-5.42-1.62-10.93-1.76-16.44c-0.13-5.52,0.17-11.03,0.93-16.48c0.76-5.45,1.96-10.84,3.59-16.09s3.69-10.36,6.16-15.26
		c2.46-4.9,5.34-9.59,8.58-14.01c3.24-4.42,6.83-8.58,10.74-12.41c3.91-3.83,8.13-7.33,12.6-10.47c4.48-3.14,9.2-5.89,14.13-8.25
		c4.92-2.36,10.03-4.3,15.27-5.81s10.59-2.59,15.99-3.23c5.4-0.64,10.85-0.83,16.28-0.59c5.42,0.25,10.83,0.93,16.13,2.05
		c5.31,1.12,10.52,2.68,15.56,4.65c5.04,1.98,9.92,4.36,14.56,7.13c0,0,0.01,0.01,0.02,0.01s0.02,0.01,0.02,0.01
		c0.57,0.32,1.21,0.39,1.79,0.23c0.58-0.16,1.11-0.54,1.43-1.11s0.39-1.21,0.23-1.79c-0.16-0.58-0.54-1.11-1.11-1.43
		c-4.92-2.82-10.07-5.22-15.37-7.19s-10.77-3.5-16.32-4.57c-5.55-1.07-11.18-1.68-16.81-1.84c-5.64-0.15-11.29,0.15-16.87,0.91
		c-5.58,0.76-11.1,1.97-16.47,3.63c-5.38,1.66-10.61,3.75-15.64,6.27c-5.03,2.51-9.84,5.44-14.37,8.74
		c-4.54,3.3-8.8,6.97-12.73,10.96c-3.93,3.99-7.53,8.31-10.75,12.88c-3.22,4.57-6.07,9.41-8.48,14.44
		c-2.43,5.03-4.43,10.26-5.99,15.62s-2.68,10.83-3.35,16.36c-0.67,5.53-0.88,11.11-0.64,16.66s0.93,11.09,2.06,16.53
		c1.13,5.44,2.71,10.77,4.72,15.94c2.01,5.17,4.44,10.17,7.27,14.93C365.32,300.69,362.98,295.66,361.07,290.47z M373.92,217.39
		c2.06-4.46,4.49-8.73,7.25-12.78c2.76-4.05,5.86-7.87,9.23-11.41c3.38-3.54,7.04-6.8,10.94-9.75c3.9-2.94,8.04-5.56,12.36-7.82
		c4.32-2.26,8.82-4.17,13.45-5.69c4.62-1.52,9.37-2.66,14.17-3.4c4.8-0.74,9.67-1.09,14.52-1.04c4.86,0.05,9.7,0.51,14.47,1.36
		c4.77,0.85,9.46,2.09,14.02,3.7c4.56,1.61,8.98,3.61,13.2,5.95c4.22,2.34,8.25,5.02,12.03,8.01c3.78,2.99,7.32,6.29,10.56,9.85
		c3.24,3.55,6.19,7.37,8.8,11.41c2.62,4.03,4.89,8.27,6.81,12.67c1.91,4.4,3.46,8.95,4.63,13.6c0,0,0.01,0.01,0.01,0.02
		c0,0.01,0,0.02,0,0.02c0.17,0.62,0.58,1.13,1.11,1.43c0.52,0.3,1.16,0.4,1.79,0.23c0.63-0.17,1.13-0.58,1.44-1.1
		c0.3-0.53,0.4-1.17,0.23-1.79c-1.32-4.87-3.06-9.63-5.16-14.21c-2.1-4.58-4.58-8.98-7.41-13.15c-2.82-4.17-5.98-8.09-9.44-11.74
		c-3.46-3.64-7.2-7.01-11.2-10.03c-3.99-3.03-8.23-5.73-12.66-8.07c-4.43-2.34-9.04-4.31-13.79-5.88
		c-4.74-1.58-9.62-2.76-14.55-3.53c-4.93-0.78-9.92-1.15-14.9-1.11c-4.98,0.05-9.96,0.51-14.85,1.36c-4.9,0.86-9.73,2.12-14.41,3.76
		c-4.69,1.64-9.23,3.68-13.57,6.06c-4.34,2.39-8.49,5.13-12.38,8.19c-3.89,3.06-7.53,6.43-10.87,10.08
		c-3.34,3.65-6.38,7.56-9.07,11.69c-2.7,4.13-5.05,8.48-7.04,12.99c-1.98,4.51-3.59,9.18-4.79,13.95
		C370.16,226.47,371.86,221.85,373.92,217.39z M484.05,328.5c-4.03,1.47-8.18,2.62-12.39,3.4c-4.21,0.79-8.48,1.24-12.75,1.33
		c-4.27,0.09-8.55-0.16-12.77-0.76c-4.23-0.6-8.4-1.54-12.46-2.81c-4.06-1.28-8.02-2.88-11.81-4.81c-3.79-1.92-7.41-4.16-10.83-6.67
		c-3.42-2.51-6.63-5.3-9.59-8.33c-2.95-3.04-5.65-6.31-8.07-9.78s-4.53-7.14-6.34-10.94c-1.81-3.81-3.29-7.77-4.45-11.82
		c-1.15-4.05-1.98-8.19-2.46-12.36c-0.48-4.17-0.62-8.38-0.41-12.57s0.75-8.36,1.63-12.45c0.88-4.09,2.1-8.1,3.64-11.99
		c1.54-3.88,3.4-7.63,5.55-11.2c0-0.01,0.01-0.02,0.02-0.02c0-0.01,0.01-0.02,0.01-0.02c0.32-0.57,0.39-1.21,0.23-1.79
		c-0.16-0.59-0.54-1.11-1.11-1.43c-0.57-0.32-1.21-0.39-1.79-0.23c-0.59,0.16-1.11,0.54-1.43,1.11c-2.2,3.85-4.08,7.87-5.61,12.02
		c-1.53,4.14-2.73,8.41-3.56,12.75c-0.83,4.34-1.3,8.73-1.42,13.13c-0.11,4.4,0.13,8.81,0.73,13.17c0.6,4.35,1.56,8.65,2.85,12.85
		c1.3,4.19,2.95,8.27,4.91,12.19c1.97,3.91,4.25,7.66,6.83,11.19c2.58,3.53,5.44,6.85,8.56,9.9c3.12,3.05,6.49,5.84,10.05,8.34
		s7.33,4.7,11.26,6.57c3.92,1.88,7.99,3.43,12.16,4.63c4.17,1.21,8.43,2.07,12.73,2.58c4.3,0.51,8.64,0.66,12.96,0.47
		c4.32-0.19,8.62-0.74,12.84-1.64c4.22-0.89,8.37-2.13,12.37-3.71c4.01-1.57,7.89-3.48,11.58-5.68
		C491.99,325.22,488.08,327.03,484.05,328.5z M493.61,198.48c6.04,4.14,11.4,9.26,15.76,15.11c2.19,2.92,4.14,6.01,5.81,9.24
		c1.68,3.23,3.09,6.59,4.21,10.05c1.13,3.45,1.96,6.99,2.49,10.58c0.54,3.58,0.78,7.2,0.74,10.82c-0.09,7.24-1.43,14.42-3.87,21.19
		c-2.44,6.77-5.97,13.13-10.47,18.72c-2.23,2.8-4.7,5.42-7.35,7.81c-2.66,2.4-5.5,4.57-8.51,6.5c-3,1.93-6.16,3.6-9.43,5
		c-3.27,1.4-6.65,2.53-10.1,3.38c-0.01,0-0.02,0-0.03,0c-0.01,0-0.02,0.01-0.03,0.01c-0.63,0.17-1.13,0.58-1.43,1.11
		c-0.3,0.53-0.4,1.17-0.23,1.79c0.17,0.63,0.58,1.13,1.11,1.43c0.53,0.3,1.16,0.4,1.79,0.23c3.68-1,7.27-2.31,10.72-3.91
		c3.45-1.59,6.77-3.47,9.91-5.6s6.09-4.52,8.84-7.13c2.74-2.61,5.27-5.44,7.54-8.45c2.28-3.01,4.31-6.21,6.06-9.54
		c1.75-3.34,3.23-6.81,4.4-10.39c1.18-3.57,2.06-7.24,2.63-10.95c0.58-3.71,0.84-7.46,0.8-11.2c-0.05-3.74-0.4-7.48-1.06-11.16
		c-0.66-3.68-1.61-7.3-2.86-10.81c-1.25-3.52-2.78-6.92-4.59-10.17c-1.8-3.25-3.87-6.36-6.18-9.27
		c-4.6-5.83-10.16-10.86-16.37-14.88c-6.21-4.02-13.05-7.01-20.21-8.77C480.83,191.17,487.56,194.33,493.61,198.48z M511.23,243.58
		c1.1,5.99,1.23,12.15,0.34,18.14c-0.85,6.01-2.74,11.83-5.48,17.19c-2.75,5.36-6.37,10.26-10.69,14.41
		c-4.31,4.18-9.31,7.59-14.72,10.11c-5.4,2.52-11.2,4.15-17.1,4.77c-5.9,0.65-11.88,0.3-17.64-0.98
		c-5.75-1.29-11.28-3.51-16.27-6.59c-0.01-0.01-0.02-0.02-0.03-0.02c-0.02-0.01-0.03-0.02-0.04-0.02c-0.57-0.32-1.21-0.39-1.79-0.23
		c-0.59,0.16-1.11,0.54-1.43,1.1c-0.33,0.57-0.39,1.21-0.23,1.79c0.16,0.59,0.54,1.11,1.11,1.43l0,0.01h0.01
		c5.55,3.18,11.61,5.38,17.85,6.57c6.24,1.19,12.66,1.35,18.91,0.45c6.26-0.86,12.35-2.79,17.95-5.63
		c5.61-2.84,10.74-6.59,15.09-11.09c2.18-2.25,4.17-4.66,5.95-7.23c1.78-2.56,3.34-5.26,4.67-8.08c1.33-2.81,2.42-5.72,3.27-8.71
		c0.85-2.98,1.45-6.03,1.79-9.11c0.71-6.15,0.38-12.4-0.94-18.41c-1.31-6.01-3.59-11.8-6.78-17.03
		C508.04,231.77,510.13,237.59,511.23,243.58z M493.48,279.43c-2.76,3.99-6.17,7.52-10.05,10.37c-3.87,2.89-8.21,5.08-12.77,6.53
		c-4.56,1.45-9.35,2.15-14.11,2.02c-4.76-0.09-9.48-1.02-13.9-2.65c-4.43-1.64-8.57-4-12.2-6.98c-3.65-2.95-6.77-6.52-9.24-10.47
		c-2.47-3.95-4.29-8.29-5.33-12.8c0-0.01-0.01-0.03-0.01-0.04c0-0.02-0.01-0.04-0.02-0.05c-0.17-0.63-0.58-1.13-1.11-1.43
		c-0.52-0.3-1.16-0.4-1.79-0.23c-0.63,0.17-1.13,0.58-1.43,1.11c-0.3,0.53-0.4,1.17-0.23,1.79l0,0.01l0,0.01
		c1.35,4.98,3.56,9.68,6.44,13.9c2.88,4.22,6.45,7.96,10.52,11c4.06,3.06,8.62,5.41,13.42,6.97c4.8,1.56,9.85,2.33,14.87,2.23
		c5.02-0.08,10-1.01,14.68-2.71c4.69-1.7,9.08-4.16,12.93-7.27c3.87-3.1,7.19-6.83,9.82-10.98c2.64-4.16,4.59-8.72,5.71-13.48
		C498.37,270.99,496.25,275.44,493.48,279.43z M462.81,287.4c-3.56,0.62-7.21,0.66-10.75,0.1c-3.55-0.54-6.97-1.69-10.11-3.35
		c-3.14-1.65-5.99-3.82-8.4-6.39c-2.42-2.56-4.38-5.52-5.81-8.7c-1.42-3.18-2.32-6.58-2.63-10.02c-0.33-3.44-0.06-6.91,0.74-10.24
		c0.81-3.33,2.15-6.5,3.99-9.35c0.01-0.02,0.02-0.04,0.04-0.06c0.01-0.02,0.02-0.04,0.03-0.06c0.32-0.57,0.39-1.21,0.23-1.79
		c-0.16-0.59-0.54-1.11-1.11-1.43c-0.57-0.32-1.21-0.39-1.79-0.23c-0.59,0.16-1.11,0.54-1.43,1.11l0,0.01l0,0.01
		c-1.94,3.4-3.28,7.12-3.99,10.93c-0.7,3.81-0.79,7.72-0.22,11.52c0.55,3.8,1.74,7.49,3.49,10.88c1.75,3.38,4.04,6.47,6.78,9.08
		c2.73,2.61,5.89,4.75,9.29,6.31c3.4,1.57,7.05,2.57,10.74,2.93c3.7,0.38,7.43,0.13,11.02-0.7c3.58-0.83,7.02-2.25,10.11-4.19
		C469.84,285.57,466.37,286.78,462.81,287.4z M390.86,398.91c-7.84-3.6-15.37-7.84-22.5-12.68c-7.14-4.83-13.87-10.24-20.12-16.15
		c-6.25-5.92-12.02-12.34-17.22-19.18c-5.21-6.84-9.85-14.11-13.87-21.7c-4.02-7.59-7.42-15.51-10.13-23.65
		c-2.72-8.14-4.76-16.5-6.1-24.97c-1.34-8.47-1.99-17.04-1.94-25.61c0.06-8.56,0.82-17.12,2.27-25.56
		c1.45-8.43,3.59-16.74,6.4-24.82c2.81-8.07,6.29-15.91,10.39-23.4c4.1-7.5,8.8-14.66,14.06-21.38c5.25-6.73,11.05-13.02,17.32-18.8
		c6.27-5.78,13-11.05,20.12-15.73c7.12-4.69,14.62-8.78,22.39-12.23c7.78-3.45,15.83-6.26,24.07-8.39c0,0,0.01,0,0.01,0
		c0.01,0,0.01,0,0.02,0c0.63-0.17,1.13-0.58,1.44-1.1c0.3-0.53,0.4-1.17,0.23-1.79c-0.17-0.63-0.58-1.13-1.1-1.44
		c-0.53-0.3-1.17-0.4-1.79-0.23c-8.46,2.29-16.72,5.27-24.68,8.92c-7.96,3.64-15.62,7.93-22.86,12.83
		c-7.25,4.89-14.09,10.37-20.44,16.37c-6.35,5.99-12.22,12.5-17.51,19.44c-5.3,6.94-10.02,14.3-14.11,22
		c-4.09,7.7-7.55,15.73-10.32,23.99c-2.78,8.26-4.86,16.74-6.23,25.33c-1.38,8.59-2.05,17.3-2.01,25.99
		c0.05,8.69,0.81,17.38,2.27,25.95c1.45,8.56,3.61,17,6.46,25.2c2.84,8.2,6.36,16.16,10.5,23.78c4.15,7.61,8.91,14.89,14.24,21.72
		c5.32,6.84,11.2,13.23,17.55,19.11c6.36,5.88,13.18,11.24,20.4,16c7.21,4.77,14.82,8.94,22.71,12.46
		c7.89,3.51,16.06,6.39,24.42,8.55C406.83,405.48,398.7,402.51,390.86,398.91z M318.59,306.45c-2.78-7.5-4.94-15.24-6.44-23.09
		c-1.51-7.85-2.38-15.82-2.59-23.81c-0.21-7.99,0.22-15.98,1.3-23.89c1.08-7.91,2.8-15.72,5.15-23.34
		c2.35-7.62,5.32-15.04,8.88-22.16c3.56-7.12,7.71-13.94,12.39-20.38c4.68-6.43,9.88-12.48,15.54-18.07
		c5.66-5.58,11.77-10.69,18.26-15.27c6.48-4.57,13.34-8.62,20.49-12.06c7.14-3.45,14.57-6.3,22.17-8.52
		c7.6-2.23,15.38-3.83,23.24-4.78c7.86-0.96,15.79-1.28,23.69-0.95c7.9,0.32,15.77,1.29,23.51,2.89c7.74,1.6,15.33,3.84,22.69,6.68
		s14.49,6.29,21.27,10.3c0,0,0,0.01,0.01,0.01c0,0,0.01,0.01,0.01,0.01c0.57,0.32,1.21,0.39,1.79,0.23
		c0.58-0.16,1.11-0.54,1.43-1.11c0.33-0.57,0.39-1.21,0.23-1.79s-0.54-1.11-1.11-1.43c-7.06-4.06-14.45-7.52-22.08-10.35
		c-7.62-2.84-15.47-5.05-23.45-6.59c-7.97-1.55-16.07-2.44-24.19-2.68c-8.11-0.24-16.24,0.19-24.28,1.27
		c-8.03,1.08-15.98,2.81-23.73,5.19c-7.74,2.37-15.29,5.38-22.54,8.99c-7.25,3.6-14.19,7.81-20.74,12.55
		c-6.55,4.74-12.7,10.02-18.38,15.76c-5.68,5.74-10.88,11.95-15.55,18.53c-4.67,6.58-8.79,13.55-12.3,20.8
		c-3.52,7.25-6.43,14.79-8.71,22.52c-2.28,7.73-3.92,15.63-4.91,23.61c-0.99,7.98-1.32,16.04-1.01,24.07
		c0.32,8.03,1.28,16.03,2.9,23.9c1.61,7.87,3.87,15.59,6.75,23.08c2.87,7.49,6.37,14.74,10.43,21.64
		C324.76,321.24,321.37,313.96,318.59,306.45z M332.58,198.66c3.09-6.71,6.73-13.16,10.87-19.27c4.14-6.11,8.78-11.87,13.85-17.22
		c5.07-5.35,10.57-10.28,16.44-14.73c5.86-4.45,12.09-8.42,18.58-11.85c6.5-3.44,13.28-6.33,20.25-8.65
		c6.97-2.32,14.13-4.06,21.37-5.2c7.25-1.14,14.58-1.68,21.91-1.63c7.33,0.06,14.65,0.71,21.86,1.96
		c7.21,1.25,14.32,3.09,21.22,5.51c6.9,2.41,13.6,5.4,20,8.91c6.4,3.51,12.52,7.54,18.26,12.04c5.74,4.5,11.12,9.47,16.05,14.83
		c4.93,5.37,9.43,11.13,13.42,17.22c4,6.09,7.49,12.5,10.43,19.15c2.94,6.65,5.33,13.54,7.14,20.57l-0.04-0.3l-0.04-0.3v0v0
		c0,0,0,0.01,0,0.02s0,0.01,0,0.02c0,0.65,0.27,1.24,0.7,1.66c0.43,0.43,1.02,0.69,1.68,0.68s1.24-0.27,1.66-0.7
		c0.43-0.43,0.69-1.02,0.68-1.68v0v0v-0.02v-0.02c0-0.09-0.01-0.19-0.02-0.28c-0.01-0.09-0.03-0.19-0.06-0.28
		c-1.96-7.26-4.54-14.36-7.67-21.19c-3.13-6.83-6.82-13.4-11.02-19.62c-4.2-6.22-8.91-12.09-14.06-17.54
		c-5.15-5.45-10.73-10.48-16.69-15.02c-5.95-4.54-12.28-8.59-18.89-12.1c-6.61-3.51-13.51-6.48-20.59-8.84
		c-7.09-2.38-14.37-4.16-21.74-5.34c-7.37-1.17-14.84-1.74-22.29-1.7c-7.46,0.05-14.91,0.7-22.25,1.96
		c-7.34,1.26-14.58,3.12-21.61,5.56c-7.03,2.44-13.85,5.47-20.38,9.03c-6.53,3.56-12.76,7.65-18.61,12.22
		c-5.86,4.57-11.33,9.62-16.36,15.06c-5.03,5.45-9.62,11.31-13.69,17.49c-4.08,6.19-7.64,12.71-10.64,19.48
		c-3,6.76-5.45,13.77-7.3,20.93C326.95,212.34,329.49,205.37,332.58,198.66z M412.35,138.25c6.35-2.34,12.89-4.16,19.53-5.43
		c6.64-1.27,13.38-2,20.12-2.17c6.74-0.17,13.51,0.19,20.18,1.11c6.68,0.92,13.28,2.38,19.71,4.37c6.43,1.99,12.7,4.5,18.71,7.52
		c6.02,3.01,11.77,6.53,17.2,10.49c5.43,3.95,10.53,8.35,15.24,13.14c4.7,4.78,9.01,9.95,12.87,15.43
		c3.85,5.48,7.26,11.28,10.16,17.31c2.9,6.03,5.3,12.3,7.16,18.72c1.87,6.42,3.21,12.99,4.01,19.62c0.8,6.63,1.06,13.32,0.77,19.99
		c-0.28,6.67-1.11,13.3-2.47,19.82c-1.36,6.52-3.26,12.93-5.67,19.13s-5.32,12.2-8.71,17.92c0,0-0.01,0.01-0.01,0.01
		c0,0.01-0.01,0.01-0.01,0.02c-0.32,0.57-0.39,1.21-0.23,1.79c0.16,0.58,0.54,1.1,1.11,1.43c0.57,0.32,1.21,0.39,1.79,0.23
		c0.58-0.16,1.11-0.54,1.43-1.11c3.44-5.99,6.37-12.26,8.77-18.72c2.4-6.47,4.27-13.13,5.57-19.89c1.31-6.76,2.06-13.63,2.26-20.5
		s-0.17-13.76-1.1-20.57c-0.92-6.81-2.4-13.54-4.41-20.1c-2.02-6.56-4.56-12.95-7.63-19.09c-3.06-6.14-6.63-12.01-10.65-17.55
		c-4.02-5.54-8.5-10.75-13.36-15.56c-4.87-4.8-10.13-9.2-15.7-13.15c-5.58-3.95-11.48-7.43-17.62-10.39
		c-6.14-2.97-12.53-5.43-19.07-7.35c-6.54-1.92-13.23-3.31-19.99-4.13c-6.76-0.83-13.58-1.11-20.37-0.83
		c-6.79,0.28-13.56,1.1-20.21,2.48c-6.65,1.37-13.18,3.29-19.51,5.73c-6.33,2.44-12.45,5.4-18.29,8.85
		C399.85,143.47,406.01,140.6,412.35,138.25z M502.79,151.67c5.58,2.58,10.95,5.61,16.02,9.07c5.08,3.45,9.87,7.31,14.32,11.54
		c4.44,4.22,8.54,8.8,12.24,13.69c3.7,4.88,7,10.06,9.84,15.47c2.85,5.41,5.25,11.05,7.17,16.85c1.93,5.8,3.36,11.75,4.29,17.78
		c0.94,6.03,1.39,12.13,1.34,18.22c-0.06,6.09-0.61,12.17-1.66,18.16c-1.05,5.99-2.59,11.89-4.61,17.62
		c-2.01,5.73-4.5,11.29-7.43,16.61c-2.92,5.32-6.28,10.39-10.03,15.15c-3.74,4.76-7.88,9.22-12.34,13.3s-9.25,7.81-14.32,11.11
		c-5.06,3.31-10.39,6.19-15.91,8.61c-5.52,2.43-11.24,4.4-17.08,5.88c0,0-0.01,0-0.02,0c-0.01,0-0.02,0.01-0.02,0.01
		c-0.63,0.17-1.13,0.58-1.43,1.11c-0.3,0.52-0.4,1.16-0.23,1.79c0.17,0.63,0.58,1.13,1.11,1.43c0.52,0.3,1.16,0.4,1.79,0.23
		c6.07-1.64,11.99-3.79,17.7-6.41c5.71-2.62,11.19-5.7,16.38-9.21c5.2-3.51,10.1-7.45,14.64-11.75c4.55-4.3,8.75-8.97,12.53-13.94
		c3.79-4.97,7.16-10.26,10.09-15.77c2.92-5.52,5.39-11.28,7.37-17.19c1.97-5.91,3.46-12,4.43-18.15c0.97-6.15,1.44-12.38,1.4-18.6
		c-0.05-6.22-0.6-12.43-1.66-18.55c-1.06-6.12-2.61-12.15-4.66-18.01c-2.04-5.86-4.57-11.54-7.55-16.97
		c-2.97-5.44-6.39-10.62-10.2-15.49c-3.82-4.87-8.03-9.43-12.57-13.62c-4.55-4.18-9.43-7.99-14.59-11.38
		c-5.16-3.39-10.6-6.35-16.23-8.84c-5.64-2.49-11.48-4.52-17.44-6.05C491.41,146.98,497.21,149.1,502.79,151.67z M551.31,218.77
		c1.91,5.19,3.39,10.53,4.42,15.96c1.03,5.42,1.62,10.93,1.76,16.44c0.14,5.51-0.17,11.03-0.93,16.48
		c-0.75,5.45-1.96,10.84-3.59,16.09c-1.63,5.25-3.69,10.36-6.16,15.26c-2.47,4.9-5.34,9.6-8.58,14.02
		c-3.23,4.42-6.83,8.58-10.74,12.41c-3.91,3.83-8.13,7.34-12.6,10.47c-4.47,3.14-9.2,5.9-14.12,8.25
		c-4.92,2.36-10.03,4.3-15.27,5.81c-5.23,1.51-10.59,2.59-15.99,3.23c-5.4,0.64-10.86,0.84-16.28,0.59
		c-5.42-0.25-10.83-0.93-16.13-2.06c-5.31-1.12-10.52-2.68-15.56-4.65c-5.04-1.97-9.92-4.36-14.57-7.13c0,0-0.01-0.01-0.02-0.01
		c-0.01-0.01-0.02-0.01-0.02-0.01c-0.57-0.32-1.21-0.39-1.79-0.23c-0.58,0.16-1.11,0.54-1.43,1.11c-0.32,0.57-0.39,1.21-0.23,1.79
		c0.16,0.58,0.54,1.11,1.11,1.43c4.92,2.82,10.07,5.22,15.37,7.19c5.31,1.96,10.77,3.5,16.32,4.56c5.55,1.08,11.18,1.69,16.82,1.84
		c5.64,0.15,11.29-0.15,16.87-0.91c5.58-0.76,11.09-1.97,16.47-3.63c5.38-1.66,10.62-3.75,15.64-6.27
		c5.03-2.51,9.84-5.44,14.38-8.75c4.53-3.3,8.8-6.97,12.73-10.96c3.93-3.99,7.53-8.3,10.75-12.87c3.22-4.57,6.06-9.41,8.49-14.44
		c2.42-5.03,4.42-10.26,5.99-15.61c1.56-5.36,2.68-10.83,3.35-16.36c0.67-5.53,0.88-11.11,0.64-16.66
		c-0.24-5.56-0.93-11.09-2.06-16.53c-1.13-5.44-2.72-10.77-4.72-15.94c-2.01-5.17-4.44-10.17-7.27-14.93
		C547.07,208.55,549.4,213.58,551.31,218.77z M538.47,291.85c-2.06,4.46-4.5,8.74-7.26,12.79c-2.76,4.05-5.86,7.87-9.23,11.41
		c-3.38,3.54-7.04,6.8-10.94,9.74c-3.9,2.94-8.04,5.56-12.36,7.82c-4.32,2.26-8.82,4.17-13.45,5.69c-4.62,1.52-9.37,2.65-14.17,3.4
		c-4.8,0.74-9.67,1.09-14.52,1.04c-4.86-0.06-9.7-0.51-14.47-1.36s-9.46-2.09-14.02-3.71c-4.56-1.61-8.97-3.61-13.2-5.95
		c-4.22-2.34-8.25-5.02-12.03-8.01c-3.78-2.99-7.32-6.29-10.56-9.85c-3.24-3.56-6.19-7.38-8.8-11.41
		c-2.62-4.03-4.89-8.27-6.81-12.68c-1.91-4.4-3.46-8.95-4.63-13.59c0-0.01,0-0.01,0-0.02c0-0.01,0-0.02-0.01-0.02
		c-0.17-0.63-0.58-1.13-1.1-1.43c-0.53-0.3-1.17-0.4-1.79-0.23c-0.63,0.17-1.13,0.58-1.43,1.11c-0.3,0.53-0.4,1.17-0.23,1.79
		c1.32,4.87,3.06,9.63,5.16,14.21c2.1,4.58,4.58,8.98,7.41,13.15c2.82,4.16,5.98,8.09,9.44,11.73c3.46,3.65,7.21,7.01,11.2,10.04
		c3.99,3.03,8.23,5.73,12.66,8.07c4.43,2.34,9.04,4.31,13.79,5.89c4.74,1.58,9.61,2.76,14.54,3.53c4.93,0.77,9.92,1.15,14.91,1.11
		c4.98-0.05,9.96-0.51,14.85-1.37c4.9-0.85,9.73-2.11,14.41-3.76c4.69-1.64,9.23-3.68,13.57-6.06c4.35-2.39,8.49-5.13,12.38-8.19
		c3.89-3.06,7.53-6.44,10.86-10.08c3.34-3.65,6.38-7.56,9.08-11.69c2.7-4.13,5.05-8.48,7.03-12.99c1.98-4.51,3.59-9.18,4.8-13.95
		C542.23,282.77,540.53,287.4,538.47,291.85z M428.34,180.74c4.03-1.48,8.18-2.62,12.39-3.41s8.48-1.23,12.75-1.33
		c4.27-0.1,8.55,0.16,12.78,0.76c4.22,0.6,8.39,1.54,12.46,2.81c4.06,1.27,8.01,2.88,11.8,4.81c3.79,1.92,7.42,4.15,10.84,6.67
		c3.42,2.51,6.63,5.3,9.59,8.33c2.96,3.03,5.66,6.31,8.07,9.78c2.41,3.47,4.53,7.14,6.34,10.95c1.81,3.81,3.3,7.76,4.45,11.81
		c1.15,4.05,1.97,8.19,2.45,12.36s0.62,8.39,0.41,12.58c-0.2,4.19-0.75,8.36-1.63,12.45c-0.88,4.09-2.1,8.11-3.64,11.99
		c-1.54,3.89-3.4,7.64-5.55,11.21c0,0.01-0.01,0.02-0.01,0.02c-0.01,0.01-0.01,0.02-0.02,0.02c-0.32,0.57-0.39,1.21-0.23,1.79
		c0.16,0.58,0.54,1.11,1.11,1.43c0.57,0.32,1.21,0.39,1.79,0.23c0.59-0.16,1.11-0.54,1.43-1.1c2.2-3.85,4.08-7.87,5.61-12.02
		s2.72-8.42,3.55-12.75s1.3-8.73,1.42-13.13c0.11-4.4-0.13-8.81-0.73-13.17c-0.6-4.35-1.56-8.65-2.86-12.85
		c-1.3-4.19-2.94-8.27-4.91-12.19c-1.96-3.91-4.25-7.66-6.83-11.2c-2.58-3.53-5.44-6.85-8.56-9.9c-3.12-3.05-6.49-5.84-10.05-8.34
		c-3.57-2.5-7.33-4.7-11.26-6.58c-3.92-1.88-8-3.42-12.17-4.63s-8.43-2.06-12.73-2.57c-4.3-0.51-8.64-0.66-12.96-0.47
		c-4.32,0.19-8.61,0.74-12.84,1.64c-4.22,0.89-8.37,2.13-12.38,3.71c-4.01,1.57-7.88,3.47-11.58,5.68
		C420.4,184.02,424.31,182.21,428.34,180.74z M418.78,310.76c-6.05-4.14-11.4-9.26-15.76-15.11c-2.19-2.92-4.13-6.01-5.81-9.24
		c-1.68-3.23-3.09-6.59-4.21-10.04c-1.12-3.46-1.96-6.99-2.49-10.58s-0.78-7.2-0.74-10.82c0.09-7.24,1.43-14.42,3.87-21.19
		c2.44-6.77,5.97-13.13,10.47-18.72c2.24-2.8,4.7-5.41,7.35-7.81c2.66-2.4,5.5-4.57,8.51-6.5c3-1.93,6.16-3.6,9.43-5
		c3.27-1.4,6.65-2.54,10.1-3.38c0.01,0,0.02,0,0.03-0.01s0.02,0,0.03-0.01c0.63-0.17,1.13-0.59,1.43-1.11
		c0.3-0.53,0.4-1.17,0.23-1.79c-0.17-0.63-0.59-1.13-1.11-1.43c-0.52-0.3-1.16-0.4-1.79-0.23c-3.68,1.01-7.26,2.32-10.72,3.91
		c-3.45,1.59-6.77,3.46-9.91,5.6c-3.14,2.13-6.09,4.52-8.84,7.13c-2.74,2.61-5.27,5.44-7.54,8.45c-2.28,3.01-4.31,6.21-6.06,9.55
		c-1.76,3.34-3.23,6.81-4.41,10.39c-1.18,3.57-2.06,7.24-2.63,10.94c-0.57,3.71-0.85,7.46-0.8,11.2c0.05,3.75,0.4,7.48,1.06,11.17
		c0.65,3.68,1.61,7.3,2.86,10.81c1.25,3.51,2.78,6.92,4.59,10.17c1.8,3.25,3.87,6.36,6.18,9.27c4.6,5.83,10.17,10.86,16.37,14.88
		c6.21,4.02,13.05,7.01,20.21,8.77C431.56,318.08,424.83,314.91,418.78,310.76z M401.16,265.66c-1.1-5.99-1.23-12.15-0.34-18.14
		c0.86-6.01,2.74-11.83,5.49-17.19c2.75-5.36,6.37-10.26,10.69-14.41c4.31-4.18,9.31-7.58,14.72-10.1c5.4-2.52,11.2-4.15,17.1-4.77
		c5.9-0.65,11.88-0.3,17.63,0.98c5.76,1.28,11.29,3.5,16.28,6.59c0.01,0,0.02,0.01,0.03,0.02c0.01,0.01,0.02,0.02,0.03,0.02
		c0.57,0.32,1.21,0.39,1.79,0.23c0.59-0.16,1.11-0.54,1.44-1.1c0.32-0.57,0.39-1.21,0.23-1.79c-0.16-0.59-0.54-1.11-1.11-1.44
		l-0.01,0l0,0c-5.55-3.18-11.61-5.38-17.85-6.57c-6.24-1.18-12.66-1.35-18.91-0.45c-6.26,0.86-12.35,2.8-17.95,5.63
		c-5.61,2.84-10.74,6.59-15.09,11.09c-2.17,2.24-4.17,4.66-5.94,7.22c-1.78,2.56-3.35,5.27-4.68,8.08
		c-1.33,2.81-2.42,5.73-3.27,8.71c-0.85,2.98-1.45,6.03-1.79,9.11c-0.71,6.15-0.38,12.39,0.94,18.41c1.31,6.02,3.59,11.8,6.79,17.04
		C404.35,277.47,402.26,271.65,401.16,265.66z M418.91,229.82c2.77-3.99,6.18-7.52,10.06-10.38c3.87-2.88,8.21-5.08,12.77-6.52
		c4.56-1.45,9.35-2.15,14.11-2.03c4.76,0.1,9.47,1.02,13.9,2.66c4.43,1.64,8.58,4,12.2,6.97c3.65,2.96,6.77,6.52,9.24,10.47
		c2.47,3.95,4.29,8.29,5.33,12.8c0,0.01,0,0.03,0.01,0.05c0.01,0.02,0.01,0.03,0.01,0.04c0.17,0.63,0.59,1.13,1.11,1.44
		c0.53,0.3,1.17,0.4,1.79,0.23c0.63-0.17,1.13-0.59,1.43-1.11c0.3-0.53,0.4-1.17,0.23-1.8l0-0.01v-0.01
		c-1.36-4.97-3.56-9.68-6.44-13.9c-2.89-4.22-6.45-7.96-10.52-11c-4.06-3.06-8.62-5.41-13.42-6.97c-4.8-1.56-9.84-2.33-14.87-2.23
		c-5.02,0.08-9.99,1.01-14.68,2.7c-4.69,1.7-9.08,4.16-12.93,7.27c-3.86,3.09-7.19,6.83-9.82,10.98c-2.63,4.15-4.59,8.72-5.71,13.48
		C414.02,238.26,416.14,233.81,418.91,229.82z M449.58,221.84c3.56-0.62,7.21-0.66,10.75-0.1c3.55,0.54,6.97,1.69,10.11,3.34
		c3.14,1.66,5.99,3.82,8.4,6.39c2.42,2.56,4.38,5.52,5.8,8.69c1.43,3.18,2.32,6.58,2.63,10.03c0.32,3.44,0.06,6.91-0.75,10.24
		c-0.81,3.32-2.15,6.5-3.99,9.35c-0.01,0.02-0.02,0.03-0.04,0.06c-0.01,0.02-0.02,0.04-0.03,0.06c-0.32,0.57-0.39,1.21-0.23,1.79
		c0.16,0.59,0.55,1.11,1.11,1.43c0.57,0.32,1.21,0.39,1.8,0.23c0.58-0.16,1.1-0.54,1.43-1.11l0-0.01l0.01-0.01
		c1.94-3.4,3.27-7.12,3.98-10.93c0.71-3.81,0.79-7.72,0.22-11.52c-0.55-3.8-1.74-7.49-3.49-10.88c-1.74-3.39-4.04-6.48-6.78-9.08
		c-2.73-2.62-5.89-4.75-9.29-6.31c-3.4-1.57-7.05-2.57-10.75-2.93c-3.7-0.38-7.43-0.13-11.02,0.7c-3.59,0.83-7.03,2.24-10.11,4.19
		C442.54,223.67,446.02,222.46,449.58,221.84z"/>
	<g>
		<path class="st2" d="M171.71,144.09c-2.95-1.54-5.98-3.55-9.01-5.97l-1.37-1.1l1.7,0.45c18.86,5.04,26.79-1.4,35.61-15.88
			l0.57-0.93l-0.94-0.56c-13.44-7.99-26.17-15.11-38.92-21.76c-15.23-7.95-28.48-14.19-41.29-20.23l-6.82-3.22
			c-5.18-2.45-11.62-5.5-18.68-9.18c-23.18-12.1-39.89-24.33-51.1-37.4l-0.6-0.7l0.92,0.09c17.13,1.73,36.72,8.45,59.9,20.55
			c7.05,3.68,13.24,7.22,18.21,10.07l6.54,3.76c12.28,7.06,24.97,14.36,40.2,22.31c12.74,6.65,25.86,13.03,40.1,19.49l0.99,0.45
			l0.44-1c6.84-15.52,7.58-25.71-7.33-38.3l-1.34-1.13l1.69,0.5c3.64,1.07,6.96,2.39,9.86,3.91c6.98,3.64,11.82,8.57,14.41,14.65
			c4.78,11.25,0.48,23.22-2.51,29.35l-0.46,0.94l13.72,7.15l-0.34,0.65l-0.83-0.43l-6.81,13.05l-1.02-0.53l-0.72,1.41l-11.82-6.09
			l-0.51,0.89c-5.78,10.02-13.74,16.5-22.4,18.25C185.38,148.89,178.64,147.71,171.71,144.09z"/>
		<g>
			<g>
				<path d="M809.19,440.05L224.67,134.89l8.9-17.16l584.41,304.92C819.46,427.34,813.71,439.1,809.19,440.05z"/>
			</g>
		</g>
		<g>
			<path d="M171.21,145.05c-3.03-1.58-6.09-3.61-9.18-6.09l-5.38-4.31l6.66,1.78c18.03,4.82,25.68-1.07,34.41-15.4
				c-34.02-20.22-57.45-31.26-80.11-41.94l-6.82-3.22c-17.61-8.34-50.4-23.85-70.14-46.85l-2.36-2.75l3.6,0.36
				c30.15,3.04,61.63,21.08,78.53,30.76l6.54,3.76c21.72,12.49,44.17,25.4,80.21,41.75c6.76-15.35,7.22-25-7.04-37.04l-5.27-4.45
				l6.61,1.95c12.76,3.77,21.15,10.22,24.96,19.17c4.86,11.43,0.81,23.4-2.53,30.25l13.74,7.16l-1.34,2.57l-16.29-8.49l0.67-1.28
				c3.17-6.09,7.8-17.97,3.08-29.07c-2.79-6.58-8.43-11.7-16.8-15.28c11.66,12.84,7.96,24.44,2.25,37.02l-0.6,1.32l-1.32-0.6
				c-36.94-16.69-59.74-29.8-81.78-42.48L119,59.92c-16.01-9.17-45.22-25.91-73.6-29.93c19.53,20.98,49.96,35.38,66.63,43.28
				l6.81,3.21c23,10.84,46.79,22.05,81.61,42.82l1.24,0.74l-0.74,1.24c-7.06,11.88-14.47,21.55-31.69,19.31
				c7.75,4.88,15.17,6.64,22.13,5.24c8.5-1.71,16.26-8.3,21.84-18.54l0.68-1.24l14.36,7.4l-1.33,2.57l-11.86-6.11
				c-5.95,10.31-14.12,16.95-23.12,18.76C185.33,150.01,178.38,148.79,171.21,145.05z"/>
		</g>
		<g>
			<path d="M204.93,111.66c1.43,2,2.76,3.99,3.95,6.19c0.29,0.55,0.58,1.12,0.84,1.72c0.25,0.62,0.51,1.22,0.61,2.11
				c0.03,0.21,0.03,0.48,0,0.78c-0.03,0.17-0.05,0.31-0.12,0.5c-0.04,0.1-0.08,0.19-0.13,0.28l-0.07,0.13l-0.03,0.05l-0.51,0.75
				l-1.03,1.48c-2.78,3.92-5.86,7.73-9.61,10.86c-3.72,3.14-8.25,5.42-13.04,6.17c-4.79,0.8-9.63,0.26-14.25-0.84
				c4.67,0.83,9.51,1.05,14.08,0c4.59-1,8.72-3.42,12.08-6.61c3.39-3.18,6.13-7.02,8.61-11l0.92-1.5l0.45-0.76l0.03-0.05l-0.03,0.03
				c-0.02,0.02-0.03,0.05-0.04,0.08c-0.01,0.06-0.02,0.04-0.02,0.07c-0.01,0,0-0.03-0.02-0.11c-0.04-0.29-0.24-0.82-0.46-1.28
				c-0.23-0.48-0.49-0.97-0.78-1.46c-1.15-1.94-2.54-3.87-3.95-5.68L204.93,111.66z"/>
		</g>
		<g>
			<path d="M203.94,111.07c2.31,0.4,4.71,0.76,7,0.9c0.57,0.03,1.14,0.04,1.63,0.01c0.24-0.01,0.48-0.05,0.59-0.08
				c0.05,0,0.06-0.04-0.12,0.1c-0.03,0.03-0.1,0.1-0.14,0.17c-0.07,0.09-0.12,0.23-0.08,0.14l0.1-0.2c0.51-1.08,1.01-2.17,1.49-3.27
				c1.91-4.38,3.56-8.88,4.33-13.55c0.76-4.65,0.47-9.51-1.32-13.94c-1.75-4.44-4.73-8.37-8.14-11.78
				c3.61,3.21,6.86,6.96,8.94,11.44c2.13,4.46,2.76,9.59,2.24,14.51c-0.51,4.94-1.95,9.7-3.63,14.3c-0.42,1.15-0.87,2.29-1.32,3.42
				l-0.08,0.21c0.01-0.02-0.08,0.18-0.18,0.34c-0.09,0.13-0.21,0.26-0.3,0.34c-0.4,0.34-0.68,0.42-0.92,0.51
				c-0.47,0.15-0.84,0.19-1.2,0.23c-0.71,0.07-1.35,0.07-1.99,0.05c-2.55-0.08-4.95-0.37-7.42-0.73L203.94,111.07z"/>
		</g>
		<g>
			<g>
				<path d="M202.95,113.58c0,0-102.5-52.35-140.06-73.54l0.18-0.34c36.34,15.58,141.34,71.95,141.34,71.95L202.95,113.58z"/>
			</g>
		</g>
		<g>
			<rect x="200.69" y="120.23" transform="matrix(0.8865 0.4628 -0.4628 0.8865 80.8473 -87.6099)" width="36.6" height="1.48"/>
		</g>
		<g>
			<path d="M233.92,118.66l-3.19-1.66c0.89,4.12-4.52,15.06-8.48,16.24l3.19,1.66C229.4,133.72,234.81,122.78,233.92,118.66z"/>
		</g>
		<g>
			<path class="st2" d="M238.99,121.31l-3.19-1.66c0.89,4.12-4.52,15.06-8.48,16.24l3.19,1.66
				C234.47,136.37,239.88,125.42,238.99,121.31z"/>
		</g>
		<g>
			<path class="st2" d="M811.72,420.3l-3.19-1.66c0.89,4.12-4.52,15.06-8.48,16.24l3.19,1.66
				C807.19,435.37,812.6,424.42,811.72,420.3z"/>
		</g>
	</g>
</g>
</svg>
