<?xml version="1.0" encoding="utf-8"?>
<!-- Generator: Adobe Illustrator 24.0.1, SVG Export Plug-In . SVG Version: 6.00 Build 0)  -->
<svg version="1.1" id="Layer_1" xmlns="http://www.w3.org/2000/svg" xmlns:xlink="http://www.w3.org/1999/xlink" x="0px" y="0px"
	 viewBox="0 0 891.39 456.79" style="enable-background:new 0 0 891.39 456.79;" xml:space="preserve">
<style type="text/css">
	.st0{opacity:0;fill:#FFFFFF;}
	.st1{fill:#BF2928;}
	.st2{fill:#781919;}
	.st3{fill:#292929;}
	.st4{fill:#FFFFFF;}
	.st5{fill-rule:evenodd;clip-rule:evenodd;}
	.st6{fill:#F4F4F4;}
	.st7{fill-rule:evenodd;clip-rule:evenodd;fill:#FEFEFE;}
</style>
<g>
	<rect x="0" class="st0" width="891.39" height="456.79"/>
	<path class="st1" d="M589.76,176.54l0.12,1.98c-1.76-4.76-2.61-7.64-4.99-12.7c0.56,1.47,1.07,2.85,1.58,4.34l-0.14-0.31
		c-2.21-5.54-5.48-11.99-9.5-18.3c-4.01-7.16-9.16-14.74-15.46-22.11c-6.29-7.38-13.73-14.57-22.08-21.03
		c-0.55-0.42-1.11-0.83-1.66-1.25c-2.13-1.88-5.56-4.53-9.86-7.26c-1.74-1.18-3.84-2.49-5.11-3.34
		c-11.33-7.71-26.69-15.27-44.86-19.89c3.47,0.98,7.06,2.12,10.45,3.33c-5.12-1.68-10.26-3.13-16.17-4.27
		c0.6,0.24,1.37,0.51,1.97,0.76c-8.99-2.3-20.02-3.72-30.33-3.69c-10.32-0.02-19.86,1.33-26.06,2.91c-3.12,0.79-5.13,1.51-6.13,2.06
		c-1,0.55-0.98,0.92-0.03,1.1c1.91,0.38,7.56-0.11,16.58-0.46c0.79-0.03,1.58-0.03,2.37-0.05c-9.07,0.84-16.83,2.63-21.03,4.25
		c-2.26,0.89-0.1,0.95,0.49,1.3c-0.56,0.84,6.48-0.2,15.82-1.11c2.38-0.24,4.67-0.44,6.79-0.61c4.18-0.15,8.4-0.16,12.6,0.02
		c6.82,0.3,13.6,1.06,20.06,2.25c2.04,0.39,4.54,0.77,5.64,0.83c0.95,0.03,0.1-0.34-2.01-0.79c-7.42-1.64-14.75-2.73-22.1-3.3
		c-0.61,0.02-1.21,0.03-1.82,0.06c0.25-0.05,0.58-0.09,0.93-0.13c-0.71-0.05-1.42-0.09-2.13-0.13c0.55-0.02,1.1-0.05,1.67-0.06
		c0.55,0.03,1.09,0.06,1.63,0.09c0.95-0.06,2.08-0.08,3.32-0.08c3.71,0.27,7.4,0.68,11.04,1.22c9.34,1.38,18.37,3.65,26.7,6.59
		c0.67,0.24-0.56,0.17,0.66,0.67l1.89,0.78c-2.06-0.76-4.26-1.5-6.65-2.22c-4.58-1.08-7.77-1.63-10.11-2.03
		c-2.34-0.38-3.82-0.59-5.03-0.75l-0.04-0.01l-0.73-0.09c-1.12-0.14-2.1-0.26-3.52-0.41c0,0,0.01,0.01,0.01,0.03l-0.9-0.08
		c-1.38-0.22-2.76-0.43-4.15-0.6c-1.56-0.21-3.09-0.31-3.87-0.28c-0.54-0.13-1.12-0.25-1.85-0.39c-3.98-0.38-5.99-0.47-8.01-0.57
		c-2.03-0.08-4.08-0.17-8.19-0.14c0,0,0.02,0.08,0.29,0.18l-6.25,0.33l-3.64,0.28c-1.34,0.11-3.26,0.24-7.07,0.68
		c0,0.01,0-0.03,3.71-0.15c0,0.01,0-0.02-3.25,0.18l0.88,0.23l-1.53-0.18l-1.34,0.47l-0.82,0.01c-0.81,0.02-2.43,0.05-5.67,0.23
		c-0.49,0.12-1.66,0.36-4.57,1.1c0,0-0.8,0.26-1.37,0.49c-0.04,0.11-0.05,0.1-2.45,1.04c0,0-0.03,0.13,0.24,0.19
		c0.79-0.07,0.79-0.07,1.05,0.19c0,0,0.88-0.09,2.16-0.26c1.21-0.2,1.52-0.29,6.01-0.94c-0.38,0.12-0.73,0.25-1.05,0.37
		c-0.38,0.37-0.56,0.55,0.07,0.68c0.63,0.13,2.08,0.19,4.95,0.43l8.16-0.43c2.91-0.23,4.37-0.29,5.94-0.37
		c1.57-0.06,3.25-0.13,6.62-0.14c0,0,1.46,0.01,3.99,0.09c1.88,0.24,2.29,0.31,3.68,0.55l0.03,0c-1.28-0.03-2.54-0.01-3.58,0.05
		c-3.02,0.18-3.43,0.53-0.91,0.75c-3.31,0.93-1.29,1.69,2.81,2.54c-1.26,0.28-1.84,0.59-1.68,0.91c-4.81,0.73-7.72,1.73-8.9,2.66
		l-0.52,0.79c1.39,0.57,5.33,0.93,11.09,1.51l1.74,0.23l-1.67,0.58c2.88,0.72,6.85,1.54,11.06,2.57
		c54.33,7.67,101.16,47.42,115.07,103.96c18.26,74.21-27.1,149.17-101.3,167.43c-74.21,18.26-149.17-27.1-167.43-101.3
		c-8.49-34.51-3.21-69.19,12.32-98.24c0.12-0.23,0.21-0.47,0.33-0.7c5.54-10.86,12.45-21.01,20.5-30.13
		c8.05-9.12,17.25-17.21,27.31-24.02c1.98-1.3,3.54-2.43,3.39-2.56c-0.14-0.13-1.95,0.79-3.93,2.1
		c-11.65,7.48-22.25,16.71-31.34,27.3c-9.09,10.58-16.68,22.53-22.4,35.33c0.71-1.83,1.46-3.64,2.25-5.45
		c0.83-1.77,1.69-3.53,2.59-5.26c8.54-15.94,20.02-30.3,33.79-42.16c5.17-4.39,9.54-7.94,9.52-8.59c-0.2-0.48-4.66,2.06-9.76,6.29
		c0.8-0.71,1.6-1.41,2.42-2.11c0.83-0.69,1.38-1.25,1.1-1.13c-0.39,0.19-1.52,1-2.32,1.69c-2.94,2.54-5.7,5.16-8.38,7.88
		c-12.72,11.99-23.26,26.32-30.96,42.05c-7.71,15.72-12.57,32.85-14.27,50.28c1.56-18.78,6.88-37.43,15.64-54.47
		c8.74-17.05,20.93-32.49,35.74-45.02c-0.56,0.55-0.56,0.69,0.23,0.13c0.67-0.49,1.93-1.52,2.51-2.07c0.67-0.63,0.48-0.62-0.21-0.14
		l-0.07,0.05c16.16-13.12,35.26-22.73,55.54-27.94c1.18-0.3,2.18-0.63,2.13-0.73c-0.05-0.09-1.16,0.1-2.47,0.45
		c-16.82,4.36-32.85,11.72-47.03,21.63c-14.2,9.9-26.54,22.3-36.36,36.36c-9.83,14.05-17.12,29.75-21.51,46.1
		c-4.41,16.35-5.89,33.35-4.49,49.95c0.25,3.62,0.63,7.24,1.15,10.86c0,0,0,0-0.01,0.01c-0.23,1.19-0.25,3.63,0.08,6.92
		c-4.58-23.31-3.48-47.63,3.21-70.47c5.78-18.97,15.35-36.76,28.03-52.04c1.83-2.2,3.29-4.1,3.16-4.31
		c-0.1-0.21-1.82,1.45-3.76,3.77c-3.13,3.76-6.06,7.68-8.81,11.73c2.03-3.49,3.32-5.84,3.12-6.32c-0.17-0.47-1.72,0.92-3.94,3.59
		c12.12-18.26,28.11-33.73,46.17-45.21c1.06-0.67,1.59-1.09,1.16-0.94c-0.43,0.15-1.57,0.76-2.61,1.44
		c-26.5,16.49-47.19,40.97-59.38,69.08c-5.17,10.94-9.04,22.39-11.51,34.43c-2.46,12.03-3.51,24.65-2.76,37.83
		c1.13,19.2,5.94,37.51,13.66,54.13c7.73,16.62,18.38,31.49,31.18,44.03c8.97,9.26,19.1,17.34,30.02,23.97
		c-1.64-0.75-2.68-1.12-2.82-0.9c-0.03,0.06,0.05,0.18,0.14,0.31c-9.57-6.02-18.55-13.1-26.76-21.23
		c-19.06-18.83-32.86-42.31-40.16-67.37c-3.67-12.52-5.79-25.44-6.29-38.4c-0.5-12.96,0.62-25.95,3.32-38.57
		c5.38-25.26,17.06-49.05,33.74-68.77c16.63-19.75,38.33-35.38,62.68-44.85c6.23-2.4,10.78-4.1,9.87-4.35
		c-0.88-0.24-6.97,1.22-13.21,3.77c-23.57,9.33-43.86,24.05-59.8,42.4c-15.94,18.36-27.69,40.42-33.91,65.02
		c-4.4,17.52-5.63,34.64-4.27,51.49c1.41,16.84,5.37,33.44,12.46,49.97c8.33,19.33,20.11,36.31,34.46,50.46
		c14.36,14.14,31.31,25.52,50.32,33.4c3.71,1.62,7.5,3.07,11.4,4.31c3.95,1.26,7.93,2.35,11.93,3.28
		c15.66,3.79,31.76,5.15,47.62,4.11c15.86-1.05,31.43-4.46,46.2-10.08c-17.53,7.04-36.29,10.93-55.17,11.44
		c-18.87,0.51-37.77-2.41-55.52-8.42c-2.55-0.88-4.27-1.38-4.08-1.1c0.38,0.35,2.6,1.35,5.17,2.21c12.42,4.22,25.37,6.9,38.46,7.95
		c13.09,1.05,26.3,0.46,39.23-1.73c12.92-2.19,25.55-5.95,37.56-11.22c12.01-5.26,23.35-12.03,33.66-20.1
		c6.15-3.7,15.16-10.55,23.93-20c4.39-4.71,8.73-10.04,12.7-15.76c3.98-5.71,7.57-11.82,10.64-17.96
		c4.52-9.08,7.71-17.98,10.07-27.14c-1.29,4.22-2.7,8.29-4.33,12.38c4.52-12.21,6.68-23.18,7.82-34.03c0.16-0.94,0.3-1.88,0.44-2.89
		c2.03-12.52,2.34-26.44,0.6-40.38C598.53,203.25,594.85,189.35,589.76,176.54z M435.69,85c0.68,0.02,1.21,0.07,2.08,0.15L435.69,85
		z M447.66,96.95l-0.47-0.1c1.94-0.57,3.9-1.09,5.89-1.56C451.25,95.8,449.44,96.36,447.66,96.95z M481.56,94.01
		c-0.13-0.06-0.26-0.12-0.4-0.18l0.43,0.19L481.56,94.01z M552.69,131.77c-0.91-0.91-2.66-2.72-1.89-1.56
		c-7.27-7.56-15.46-14.47-24.57-20.55c-3.39-2.26-6.85-4.31-10.26-6.1c-3.52-2.52-7.38-5.05-12.64-7.78
		c8.96,4.19,18.78,9.8,27.11,15.95c9.25,6.79,17.59,14.46,24.99,22.88C554.53,133.66,553.63,132.71,552.69,131.77z M572.66,149.73
		c-1.46-2.32-3-4.6-4.59-6.85l0.78,1.31c-6.19-8.63-13.25-16.61-20.97-23.8c-7.21-6.96-15.54-13.52-24.71-19.2
		c-4.74-2.94-9.71-5.64-14.84-8.07c4.4,1.81,8.53,3.7,12.33,5.58c8.08,4.87,15.56,10.36,22.56,16.47
		c8.83,7.72,16.92,16.4,24.36,26.27c0.85,1.19,1.66,2.38,2.46,3.58c1.07,1.79,2.1,3.61,3.1,5.44L572.66,149.73z"/>
	<path class="st1" d="M304,208.03c-3.9,20.01-3.23,39.73,1.15,57.95c-3.99-18.75-4.23-37.89-0.73-56.38
		c3.49-18.48,10.73-36.32,21.52-52.21c0.92-1.4,1.96-2.74,2.67-3.54c0.01-0.1,0.18-0.41,0.46-0.83c2.68-3.99,5.91-8.15,9.48-12.16
		c0.67-0.78,1.6-1.69,2.06-2c0.44-0.32,0.05,0.18-0.7,1.04c-3.53,3.87-6.64,7.76-9.15,11.41c-0.47,0.68-1.05,1.4-1.49,1.94
		c0.31-0.15-0.18,0.73-1.24,2.28c-10.34,15.34-18.09,33.17-21.93,52.05c-1.93,9.43-2.89,19.11-2.82,28.78
		c0.07,9.67,1.16,19.33,3.24,28.73c0.17,0.23,0.4,0.7,0.69,1.52c0.93,2.52,2.36,7.64,3.97,12.91c0.39,1.33,0.79,2.66,1.23,3.97
		c5.34,15.93,13.7,30.81,24.42,43.72c2.36,2.5,5.14,5.35,8.24,8.36c10.65,9.82,22.82,17.95,36.15,24.17c-0.78-0.51-1.22-0.88-1.14-1
		c0.41-0.18,3.53,1.15,7.14,2.74c1.83,0.79,3.67,1.55,5.52,2.26c-5.3-2.14-10.45-4.64-15.4-7.43c-0.72-0.4-1.37-0.78-1.96-1.15
		c-5.44-3.08-10.72-6.55-15.84-10.44c-11.17-8.46-20.88-18.49-28.85-29.6c-7.97-11.1-14.18-23.29-18.51-36.04
		c-4.33-12.77-6.81-26.08-7.32-39.42c-0.52-13.35,0.92-26.75,4.27-39.69c0.19-0.86,0.59-2.17,0.9-2.89c0.23-0.47,0.31-0.35,0.07,0.6
		c-2.06,8.16-3.26,16.21-3.74,24.17c-0.47,7.97-0.24,15.86,0.68,23.77c0.92,7.91,2.53,15.84,4.88,23.87
		c2.37,8.03,5.48,16.15,9.59,24.33c9.77,19.48,24.25,36.2,41.82,48.62c17.55,12.43,38.17,20.56,59.77,23.24
		c22.52,3.26,45.02,0.16,65.38-8.07c20.33-8.24,38.55-21.79,52.68-39.95c9.53-12.26,16.69-26.02,21.26-40.43
		c4.56-14.41,6.53-29.45,5.84-44.32c-0.68-14.86-3.99-29.65-9.68-43.4c-5.69-13.75-13.84-26.5-24.09-37.52
		c-7.74-8.21-16.05-15.16-22.76-20.26c-6.7-5.1-11.73-8.48-12.62-10.06c-0.51-0.93,0.53-1.09,2.83-0.51
		c2.3,0.59,5.84,1.93,10.18,4.19c-1.64-1.04-3.28-2.02-4.95-2.99c-2.61-1.58-5.29-3.07-8.01-4.47c-7.72-3.99-14.6-6.86-18.92-8.87
		c-1.99-0.89-4.01-1.74-6.06-2.54c-4.02-1.83-9.5-3.7-14.95-5.14c-1.15-0.31-2.29-0.59-3.41-0.87c-16.98-2.4-34.69-1.69-52.36,2.65
		c-27.35,6.73-50.76,21.18-68.53,40.43c-8.13,9.46-14.6,19.58-19.7,30.27C310.12,184.63,306.36,195.96,304,208.03z"/>
	<path class="st2" d="M302.16,270.59c18.26,74.21,93.22,119.56,167.43,101.3c74.21-18.26,119.56-93.22,101.3-167.43
		c-13.91-56.54-60.74-96.29-115.07-103.96c1.13,0.28,2.26,0.56,3.41,0.87c5.44,1.44,10.93,3.31,14.95,5.14
		c2.04,0.8,4.06,1.65,6.06,2.54c4.32,2.02,11.2,4.88,18.92,8.87c2.72,1.4,5.39,2.89,8.01,4.47c1.67,0.96,3.31,1.95,4.95,2.99
		c-4.34-2.26-7.89-3.61-10.18-4.19c-2.3-0.58-3.35-0.42-2.83,0.51c0.89,1.58,5.92,4.95,12.62,10.06
		c6.71,5.09,15.02,12.05,22.76,20.26c10.25,11.03,18.4,23.77,24.09,37.52c5.7,13.74,9.01,28.54,9.68,43.4
		c0.69,14.87-1.28,29.91-5.84,44.32c-4.56,14.4-11.73,28.17-21.26,40.43c-14.12,18.15-32.35,31.7-52.68,39.95
		c-20.36,8.23-42.87,11.34-65.38,8.07c-21.6-2.67-42.22-10.81-59.77-23.24c-17.57-12.42-32.05-29.14-41.82-48.62
		c-4.11-8.18-7.22-16.3-9.59-24.33c-2.36-8.04-3.97-15.96-4.88-23.87c-0.92-7.91-1.16-15.8-0.68-23.77
		c0.48-7.97,1.67-16.01,3.74-24.17c0.24-0.95,0.16-1.07-0.07-0.6c-0.31,0.72-0.71,2.03-0.9,2.89c-3.34,12.95-4.79,26.34-4.27,39.69
		c0.51,13.35,3,26.65,7.32,39.42c4.32,12.76,10.54,24.94,18.51,36.04c7.96,11.11,17.68,21.13,28.85,29.6
		c5.12,3.88,10.4,7.35,15.84,10.44c0.58,0.37,1.24,0.75,1.96,1.15c4.95,2.79,10.11,5.29,15.4,7.43c-1.86-0.72-3.69-1.47-5.52-2.26
		c-3.61-1.59-6.73-2.92-7.14-2.74c-0.07,0.12,0.37,0.49,1.14,1c-13.33-6.22-25.5-14.35-36.15-24.17c-3.1-3.01-5.88-5.86-8.24-8.36
		c-10.72-12.91-19.08-27.79-24.42-43.72c-0.43-1.32-0.84-2.64-1.23-3.97c-1.62-5.27-3.04-10.39-3.97-12.91
		c-0.29-0.81-0.52-1.29-0.69-1.52c-2.08-9.4-3.17-19.06-3.24-28.73c-0.06-9.67,0.9-19.35,2.82-28.78
		c3.84-18.89,11.6-36.71,21.93-52.05c1.05-1.56,1.54-2.43,1.24-2.28c0.45-0.54,1.02-1.26,1.49-1.94c2.51-3.65,5.62-7.54,9.15-11.41
		c0.75-0.86,1.13-1.36,0.7-1.04c-0.46,0.31-1.39,1.22-2.06,2c-3.57,4.02-6.8,8.17-9.48,12.16c-0.28,0.43-0.45,0.73-0.46,0.83
		c-0.71,0.8-1.75,2.14-2.67,3.54c-10.79,15.89-18.03,33.73-21.52,52.21c-3.5,18.49-3.26,37.63,0.73,56.38
		c-4.38-18.23-5.05-37.94-1.15-57.95c2.36-12.07,6.12-23.41,11.23-34.17c5.1-10.69,11.57-20.82,19.7-30.27
		c-2.39,2.59-4.67,5.27-6.85,8.03c-5.51,7.45-10.15,15.31-13.94,23.43c-5.17,11.11-8.8,22.71-10.92,34.58
		c-2.12,11.87-2.73,24.02-1.79,36.29c0.94,12.27,3.42,24.69,7.6,37.05c0.66,1.94,1.35,3.88,2.07,5.77
		c-6.55-14.73-10.59-30.42-11.91-46.41c-0.98-24.15,4.41-48.47,15.28-70C298.95,201.4,293.67,236.08,302.16,270.59z"/>
	<g>
		<g>
			<path class="st3" d="M566.55,273.26c-1.46-1.47-2.83-3.03-4.12-4.64c-0.89,0.26-1.79,0.48-2.68,0.64
				c-1.16,0.21-2.32,0.36-3.47,0.47c-0.56,0.05-1.11,0.1-1.67,0.14c-0.61,0.05-1.22,0.14-1.84,0.28c-1.17,0.26-2.31,0.69-3.39,1.18
				c-0.38,0.17-0.74,0.37-1.11,0.55c-4.44,4.25-8.67,8.6-12.53,12.99c-3.39,3.85-6.61,7.82-9.57,11.8l-0.67,0.9l1.11,0.3
				c3.07,0.81,6.39,1.38,9.87,1.68c2.91,0.25,5.97,0.31,9.08,0.18l1.67-0.07l0.2-1.14c0.76-4.32,1.9-8.72,3.4-13.08
				c0.98-2.84,2.16-5.7,3.46-8.55c0.24,1.49,0.47,3,0.79,4.44c0.74,3.38,1.7,6.71,2.86,9.91l0.26,0.73l1.06-0.49
				c2.91-1.36,5.8-2.96,8.58-4.75c2.32-1.5,4.6-3.15,6.76-4.91l1.15-0.94l-0.8-0.56C571.93,278.17,569.09,275.8,566.55,273.26z"/>
		</g>
		<g>
			<path class="st3" d="M657.49,236.95c-0.25-2.29-0.96-6.21-3.39-5.95c-28.44,6.38-58.15,12.01-86.79,17.46
				c-0.01,0.02,0,0.05-0.03,0.06l-0.27,0.09c-0.71,0.24-1.43,0.48-2.17,0.63c-0.74,0.15-1.49,0.22-2.24,0.11
				c-0.38-0.05-0.75-0.16-1.12-0.28c-0.33-0.11-0.67-0.22-1.01-0.32c-0.71-0.21-1.43-0.38-2.16-0.49c-0.47-0.07-0.94-0.09-1.42-0.09
				l-5.08,0.92c-10.23,1.85-21.25,4.07-31.47,5.93c-0.47,0.08-0.95,0.17-1.44,0.26c-0.45,0.08-0.88,0.25-1.26,0.5
				c-2.32,0.35-4.64,0.7-6.94,1.05l-0.62,1.84l0.7,2.24c-21.37,3.58-182.61,27.64-305.46,28l-0.27,0.04
				c-0.15-0.12-0.42-0.08-0.69-0.04c-1.2,8.23-2.18,17.11-0.39,25.21c0.27-0.04,0.56,0.06,0.96,0.01l0.4-0.06
				c51.41-1.65,103.01-4.95,154.64-9.7c-0.14,0.05-0.29,0.11-0.43,0.16c2.25-0.24,4.5-0.5,6.75-0.74c0.9-0.08,1.8-0.16,2.7-0.25
				c0.06-0.02,0.13-0.05,0.19-0.07c49.77-5.44,99.51-12.19,149.06-20.17c0.13,0.83,0.56,1.59,1.25,2.1c0.73,0.54,1.67,0.76,2.59,0.6
				l40.68-7.25c0.76-0.13,1.45-0.52,1.96-1.1c0.58-0.67,0.85-1.52,0.78-2.38c30.07-5.33,60.07-11.05,89.94-17.25
				c2.42-0.27,4.1-2.36,3.83-4.78C658.69,247.85,658.08,242.33,657.49,236.95z"/>
		</g>
	</g>
	<g>
		<path class="st4" d="M371.51,232.12c-35.58,0-69.69-0.87-104.29-2.65l-1.68-0.09l0.01,0.04c-0.62-0.04-3.95-0.24-5-0.3
			c-1.57-0.09-5.16-0.27-5.16-0.27c-2.35-0.12-4.69-0.23-7.07-0.38l-0.38-0.11l-0.12-0.01c-16.34-0.96-32.5-2.06-48.01-3.27
			c-32.72-2.55-64.28-5.72-93.79-9.42c-12.83-4.22-22.52-11.3-28-20.52l17.48,1.78c21.46,2.31,43.61,4.36,65.84,6.09
			c31.86,2.49,64.98,4.41,98.44,5.72c32.95,1.32,66.53,2,99.8,2c51.71,0,103.94-1.62,155.26-4.8c0.24,0.54,0.45,1.15,0.65,1.89
			c0.56,2.01,0.84,4.09,1.04,5.86c0.08,0.74,0.16,1.49,0.23,2.24l0.07,0.71c0.05,0.46,0.09,0.86,0.11,1.27
			c0.03,0.61,0.04,1.26,0.02,1.92c-0.07,2.55-0.5,5.06-1.01,7.86l-0.06,0.31C462.78,230.77,415.54,232.12,371.51,232.12
			C371.51,232.12,371.52,232.12,371.51,232.12z"/>
		<g>
			<path d="M199.71,226.17c-32.73-2.55-64.3-5.72-93.84-9.42c-14.11-4.62-24.42-12.53-29.81-22.88l19.54,1.99
				c21.45,2.31,43.6,4.36,65.81,6.09c31.86,2.49,64.96,4.41,98.39,5.72c84.74,3.41,170.76,2.45,255.67-2.85
				c0.02,0.04,0.05,0.07,0.07,0.11c0.37,0.72,0.68,1.55,0.97,2.61c0.58,2.08,0.87,4.21,1.07,6.02c0.09,0.75,0.16,1.5,0.23,2.26
				l0.07,0.71c0.05,0.44,0.09,0.88,0.12,1.33c0.03,0.64,0.04,1.32,0.02,2.01c-0.07,2.62-0.51,5.18-1.03,8.02l-0.2,1.15
				c-95.63,5.01-172.63,5.48-249.63,1.52l-0.37-0.02l0.01,0.04c-1.06-0.06-2.12-0.12-3.18-0.19c-1.04-0.07-2.09-0.13-3.14-0.19
				c-1.73-0.1-3.44-0.18-5.16-0.26c-2.39-0.12-4.78-0.24-7.19-0.38l-0.38-0.11C231.43,228.49,215.27,227.38,199.71,226.17z
				 M81.77,197.79c5.53,7.14,13.83,12.58,24.66,16.15c32.64,4.06,65.98,7.42,99.16,10.01c19.16,1.5,38.67,2.76,58,3.77
				c80.97,3.49,165.28,3.03,250.59-1.37l0.24-0.01l0.04-0.24c0.36-2.01,0.69-4.17,0.75-6.32c0.02-0.59,0.01-1.19-0.02-1.78
				c-0.02-0.39-0.06-0.77-0.1-1.16l0,0c0,0-0.22-2.19-0.31-2.96c-0.2-1.71-0.47-3.71-0.99-5.59l-0.16-0.54l-0.24,0.01
				c-81.24,4.99-164,5.98-245.96,2.92l-0.43-0.02l0.02,0.05c-5.55-0.21-11.08-0.44-16.61-0.68l-0.21-0.01
				c-31.4-1.35-62.09-3.18-91.21-5.46c-21.85-1.71-43.27-3.69-63.67-5.91l-13.99-1.44L81.77,197.79z"/>
		</g>
		<g>
			<path d="M162,210.86c-19.86-1.55-39.99-3.37-59.83-5.41l-0.18-0.11c-0.48-0.32-0.94-0.65-1.39-0.99
				c-0.46-0.36-0.91-0.73-1.35-1.11c-0.09-0.07-0.17-0.15-0.26-0.22c20.67,2.16,41.65,4.07,62.37,5.69
				c29.27,2.28,59.06,4.06,88.57,5.27l0.29,0.01l0,0l4.86,0.2c3.39,0.14,6.78,0.28,10.18,0.39l0.28,0.03
				c73.02,2.74,148.08,2.14,223.11-1.78c0.09,0.52,0.14,1.06,0.18,1.58c0,0,0.04,0.42,0.05,0.56c-74.99,3.91-150.02,4.5-223.03,1.77
				l-0.37-0.01l0,0l-2.22-0.09C229.7,215.42,195.63,213.48,162,210.86C162,210.86,162,210.86,162,210.86z"/>
		</g>
		<g>
			<path class="st5" d="M513.42,206.79c-6.28,0.32-13.29,1.35-19.56,1.67c1.12,4.92,2.02,13.97,2.06,18.87
				c5.67-0.34,13.79-0.56,19.46-0.9c-0.02-6.27-0.91-12.7-2.19-17.16L513.42,206.79z"/>
		</g>
		<g>
			<path class="st5" d="M517.76,244.82c-2.61,0.25-5.83-6.24-7.93-15.47c1.38-0.12,3.07-0.55,4.6-0.67
				c1.31-3.95-0.63-20.66-3.93-23.34c-1.23,0.13-2.3,0.1-3.52,0.23c-0.24-9.95,1.29-17.41,3.9-17.81
				C519.62,186.74,526.51,243.63,517.76,244.82L517.76,244.82z"/>
		</g>
		<g>
			<path class="st6" d="M498.23,225.16c2.74,0.16,5.5,0.32,8.26,0.62c-2.9,0.41-5.81,0.56-8.74,0.49l-0.38-0.01l0,0
				c0.19-2.74-0.94-10.88-1.02-13.26C497.06,215.07,498.44,223.36,498.23,225.16z"/>
		</g>
		<g>
			<g>
				<path class="st5" d="M864.64,167.88c-66.07,11.09-235.69,29.95-349.88,38.08v22.43c97.74-5.08,286.98-25.25,354.14-35.51
					C870.72,183.93,869.8,175.47,864.64,167.88z"/>
			</g>
		</g>
		<g>
			<g>
				<path class="st7" d="M859.17,169.27l-2.59,0.36c1.7,3.3,3,6.73,3.6,10.42c0.74,3.96,0.78,8.46,0,13.34l2.46-0.36
					c0.78-4.89,0.73-9.24,0-13.34C862.03,176,860.74,172.57,859.17,169.27L859.17,169.27z"/>
			</g>
		</g>
		<g>
			<g>
				<polygon class="st7" points="529.04,223.58 533.02,217.04 527.53,209.23 523.94,216.87 				"/>
			</g>
		</g>
		<g>
			<g>
				<polygon class="st7" points="539.65,222.85 543.64,216.18 538.16,208.36 534.56,216.01 				"/>
			</g>
		</g>
		<g>
			<g>
				<polygon class="st7" points="550.28,221.99 554.27,215.31 548.78,207.5 545.18,215.14 				"/>
			</g>
		</g>
		<g>
			<g>
				<polygon class="st7" points="560.9,221.12 564.88,214.58 559.4,206.77 555.8,214.27 				"/>
			</g>
		</g>
		<g>
			<g>
				<polygon class="st7" points="571.52,220.25 575.5,213.71 570.02,205.9 566.42,213.4 				"/>
			</g>
		</g>
		<g>
			<g>
				<polygon class="st7" points="582.14,219.38 586.13,212.84 580.64,205.03 577.04,212.68 				"/>
			</g>
		</g>
		<g>
			<g>
				<polygon class="st7" points="593.59,218.41 597.58,211.87 592.09,204.06 588.49,211.7 				"/>
			</g>
		</g>
		<g>
			<g>
				<polygon class="st7" points="605.04,217.57 609.03,210.89 603.54,203.08 599.94,210.72 				"/>
			</g>
		</g>
		<g>
			<g>
				<polygon class="st7" points="616.62,216.6 620.48,209.92 614.99,202.11 611.39,209.75 				"/>
			</g>
		</g>
		<g>
			<g>
				<polygon class="st7" points="628.07,215.62 631.93,208.94 626.43,201.27 622.84,208.77 				"/>
			</g>
		</g>
		<g>
			<g>
				<polygon class="st7" points="639.52,214.65 643.37,208.1 637.88,200.29 634.29,207.8 				"/>
			</g>
		</g>
		<g>
			<g>
				<polygon class="st7" points="650.97,213.67 654.82,207.13 649.33,199.32 645.74,206.82 				"/>
			</g>
		</g>
		<g>
			<g>
				<polygon class="st7" points="661.61,212.13 665.59,205.59 659.97,197.77 656.37,205.28 				"/>
			</g>
		</g>
		<g>
			<g>
				<polygon class="st7" points="672.24,210.58 676.23,203.9 670.74,196.09 667.15,203.73 				"/>
			</g>
		</g>
		<g>
			<g>
				<polygon class="st7" points="683,209.85 686.85,203.31 681.36,195.5 677.77,203 				"/>
			</g>
		</g>
		<g>
			<g>
				<polygon class="st7" points="693.8,208.98 697.65,202.31 692.16,194.63 688.57,202.13 				"/>
			</g>
		</g>
		<g>
			<g>
				<polygon class="st7" points="704.32,207.81 707.94,201.04 702.02,193.37 698.85,201.09 				"/>
			</g>
		</g>
		<g>
			<g>
				<polygon class="st7" points="714.76,206.95 718.38,200.18 712.46,192.51 709.29,200.24 				"/>
			</g>
		</g>
		<g>
			<g>
				<polygon class="st7" points="725.52,205.9 729.14,199.27 723.22,191.6 720.04,199.19 				"/>
			</g>
		</g>
		<g>
			<g>
				<polygon class="st7" points="735.92,204.67 739.54,198.04 733.62,190.37 730.45,197.96 				"/>
			</g>
		</g>
		<g>
			<g>
				<polygon class="st7" points="746.94,203.47 750.56,196.84 744.64,189.17 741.47,196.9 				"/>
			</g>
		</g>
		<g>
			<g>
				<polygon class="st7" points="758.32,202.26 761.94,195.63 756.03,187.96 752.85,195.69 				"/>
			</g>
		</g>
		<g>
			<g>
				<polygon class="st7" points="769.24,201.35 772.86,194.58 766.94,186.91 763.77,194.63 				"/>
			</g>
		</g>
		<g>
			<g>
				<polygon class="st7" points="780.68,199.41 784.16,192.64 778.24,184.97 775.07,192.7 				"/>
			</g>
		</g>
		<g>
			<g>
				<polygon class="st7" points="792.05,198.24 795.53,191.47 789.61,183.94 786.44,191.53 				"/>
			</g>
		</g>
		<g>
			<g>
				<polygon class="st7" points="803.38,196.37 806.87,189.74 800.95,182.07 797.77,189.66 				"/>
			</g>
		</g>
		<g>
			<g>
				<polygon class="st7" points="814.78,195.11 818.26,188.48 812.34,180.81 809.16,188.4 				"/>
			</g>
		</g>
		<g>
			<g>
				<polygon class="st7" points="825.32,193.3 828.94,186.67 822.89,179 819.71,186.59 				"/>
			</g>
		</g>
		<g>
			<g>
				<polygon class="st7" points="835.86,191.49 839.48,184.72 833.56,177.05 830.39,184.78 				"/>
			</g>
		</g>
		<g>
			<g>
				<polygon class="st7" points="846.57,190.5 850.06,183.87 844.14,176.2 840.96,183.79 				"/>
			</g>
		</g>
	</g>
</g>
</svg>
