<?xml version="1.0" encoding="utf-8"?>
<!-- Generator: Adobe Illustrator 24.0.1, SVG Export Plug-In . SVG Version: 6.00 Build 0)  -->
<svg version="1.1" id="Layer_1" xmlns="http://www.w3.org/2000/svg" xmlns:xlink="http://www.w3.org/1999/xlink" x="0px" y="0px"
	 viewBox="0 0 891.39 456.79" style="enable-background:new 0 0 891.39 456.79;" xml:space="preserve">
<style type="text/css">
	.st0{opacity:0;fill:#FFFFFF;}
	.st1{fill:#2599C9;}
	.st2{fill:#165B78;}
	.st3{fill:#FFFFFF;}
	.st4{fill:#292929;}
	.st5{fill-rule:evenodd;clip-rule:evenodd;}
	.st6{fill:#F4F4F4;}
	.st7{fill-rule:evenodd;clip-rule:evenodd;fill:#FEFEFE;}
</style>
<g>
	<rect class="st0" width="891.39" height="456.79"/>
	<path class="st1" d="M595.64,176.54l0.12,1.98c-1.76-4.76-2.61-7.64-4.99-12.7c0.56,1.47,1.07,2.85,1.58,4.34l-0.14-0.31
		c-2.21-5.54-5.48-11.99-9.5-18.3c-4.01-7.16-9.16-14.74-15.46-22.11c-6.29-7.38-13.73-14.57-22.08-21.03
		c-0.55-0.42-1.11-0.83-1.66-1.25c-2.13-1.88-5.56-4.53-9.86-7.26c-1.74-1.18-3.84-2.49-5.11-3.34
		c-11.33-7.71-26.69-15.27-44.86-19.89c3.47,0.98,7.06,2.12,10.45,3.33c-5.12-1.68-10.26-3.13-16.17-4.27
		c0.6,0.24,1.37,0.51,1.97,0.76c-8.99-2.3-20.02-3.72-30.33-3.69c-10.32-0.02-19.86,1.33-26.06,2.91c-3.12,0.79-5.13,1.51-6.13,2.06
		c-1,0.55-0.98,0.92-0.03,1.1c1.91,0.38,7.56-0.11,16.58-0.46c0.79-0.03,1.58-0.03,2.37-0.05c-9.07,0.84-16.83,2.63-21.03,4.25
		c-2.26,0.89-0.1,0.95,0.49,1.3c-0.56,0.84,6.48-0.2,15.82-1.11c2.38-0.24,4.67-0.44,6.79-0.61c4.18-0.15,8.4-0.16,12.6,0.02
		c6.82,0.3,13.6,1.06,20.06,2.25c2.04,0.39,4.54,0.77,5.64,0.83c0.95,0.03,0.1-0.34-2.01-0.79c-7.42-1.64-14.75-2.73-22.1-3.3
		c-0.61,0.02-1.21,0.03-1.82,0.06c0.25-0.05,0.58-0.09,0.93-0.13c-0.71-0.05-1.42-0.09-2.13-0.13c0.55-0.02,1.1-0.05,1.67-0.06
		c0.55,0.03,1.09,0.06,1.63,0.09c0.95-0.06,2.08-0.08,3.32-0.08c3.71,0.27,7.4,0.68,11.04,1.22c9.34,1.38,18.37,3.65,26.7,6.59
		c0.67,0.24-0.56,0.17,0.66,0.67l1.89,0.78c-2.06-0.76-4.26-1.5-6.65-2.22c-4.58-1.08-7.77-1.63-10.11-2.03
		c-2.34-0.38-3.82-0.59-5.03-0.75l-0.04-0.01l-0.73-0.09c-1.12-0.14-2.1-0.26-3.52-0.41c0,0,0.01,0.01,0.01,0.03l-0.9-0.08
		c-1.38-0.22-2.76-0.43-4.15-0.6c-1.56-0.21-3.09-0.31-3.87-0.28c-0.54-0.13-1.12-0.25-1.85-0.39c-3.98-0.38-5.99-0.47-8.01-0.57
		c-2.03-0.08-4.08-0.17-8.19-0.14c0,0,0.02,0.08,0.29,0.18l-6.25,0.33l-3.64,0.28c-1.34,0.11-3.26,0.24-7.07,0.68
		c0,0.01,0-0.03,3.71-0.15c0,0.01,0-0.02-3.25,0.18l0.88,0.23l-1.53-0.18l-1.34,0.47l-0.82,0.01c-0.81,0.02-2.43,0.05-5.67,0.23
		c-0.49,0.12-1.66,0.36-4.57,1.1c0,0-0.8,0.26-1.37,0.49c-0.04,0.11-0.05,0.1-2.45,1.04c0,0-0.03,0.13,0.24,0.19
		c0.79-0.07,0.79-0.07,1.05,0.19c0,0,0.88-0.09,2.16-0.26c1.21-0.2,1.52-0.29,6.01-0.94c-0.38,0.12-0.73,0.25-1.05,0.37
		c-0.38,0.37-0.56,0.55,0.07,0.68c0.63,0.13,2.08,0.19,4.95,0.43l8.16-0.43c2.91-0.23,4.37-0.29,5.94-0.37
		c1.57-0.06,3.25-0.13,6.62-0.14c0,0,1.46,0.01,3.99,0.09c1.88,0.24,2.29,0.31,3.68,0.55l0.03,0c-1.28-0.03-2.54-0.01-3.58,0.05
		c-3.02,0.18-3.43,0.53-0.91,0.75c-3.31,0.93-1.29,1.69,2.81,2.54c-1.26,0.28-1.84,0.59-1.68,0.91c-4.81,0.73-7.72,1.73-8.9,2.66
		l-0.52,0.79c1.39,0.57,5.33,0.93,11.09,1.51l1.74,0.23l-1.67,0.58c2.88,0.72,6.85,1.54,11.06,2.57
		c54.33,7.67,101.16,47.42,115.07,103.96c18.26,74.21-27.1,149.17-101.3,167.43c-74.21,18.26-149.17-27.1-167.43-101.3
		c-8.49-34.51-3.21-69.19,12.32-98.24c0.12-0.23,0.21-0.47,0.33-0.7c5.54-10.86,12.45-21.01,20.5-30.13
		c8.05-9.12,17.25-17.21,27.31-24.02c1.98-1.3,3.54-2.43,3.39-2.56c-0.14-0.13-1.95,0.79-3.93,2.1
		c-11.65,7.48-22.25,16.71-31.34,27.3c-9.09,10.58-16.68,22.53-22.4,35.33c0.71-1.83,1.46-3.64,2.25-5.45
		c0.83-1.77,1.69-3.53,2.59-5.26c8.54-15.94,20.02-30.3,33.79-42.16c5.17-4.39,9.54-7.94,9.52-8.59c-0.2-0.48-4.66,2.06-9.76,6.29
		c0.8-0.71,1.6-1.41,2.42-2.11c0.83-0.69,1.38-1.25,1.1-1.13c-0.39,0.19-1.52,1-2.32,1.69c-2.94,2.54-5.7,5.16-8.38,7.88
		c-12.72,11.99-23.26,26.32-30.96,42.05c-7.71,15.72-12.57,32.85-14.27,50.28c1.56-18.78,6.88-37.43,15.64-54.47
		c8.74-17.05,20.93-32.49,35.74-45.02c-0.56,0.55-0.56,0.69,0.23,0.13c0.67-0.49,1.93-1.52,2.51-2.07c0.67-0.63,0.48-0.62-0.21-0.14
		l-0.07,0.05c16.16-13.12,35.26-22.73,55.54-27.94c1.18-0.3,2.18-0.63,2.13-0.73c-0.05-0.09-1.16,0.1-2.47,0.45
		c-16.82,4.36-32.85,11.72-47.03,21.63c-14.2,9.9-26.54,22.3-36.36,36.36c-9.83,14.05-17.12,29.75-21.51,46.1
		c-4.41,16.35-5.89,33.35-4.49,49.95c0.25,3.62,0.63,7.24,1.15,10.86c0,0,0,0-0.01,0.01c-0.23,1.19-0.25,3.63,0.08,6.92
		c-4.58-23.31-3.48-47.63,3.21-70.47c5.78-18.97,15.35-36.76,28.03-52.04c1.83-2.2,3.29-4.1,3.16-4.31
		c-0.1-0.21-1.82,1.45-3.76,3.77c-3.13,3.76-6.06,7.68-8.81,11.73c2.03-3.49,3.32-5.84,3.12-6.32c-0.17-0.47-1.72,0.92-3.94,3.59
		c12.12-18.26,28.11-33.73,46.17-45.21c1.06-0.67,1.59-1.09,1.16-0.94c-0.43,0.15-1.57,0.76-2.61,1.44
		c-26.5,16.49-47.19,40.97-59.38,69.08c-5.17,10.94-9.04,22.39-11.51,34.43c-2.46,12.03-3.51,24.65-2.76,37.83
		c1.13,19.2,5.94,37.51,13.66,54.13c7.73,16.62,18.38,31.49,31.18,44.03c8.97,9.26,19.1,17.34,30.02,23.97
		c-1.64-0.75-2.68-1.12-2.82-0.9c-0.03,0.06,0.05,0.18,0.14,0.31c-9.57-6.02-18.55-13.1-26.76-21.23
		c-19.06-18.83-32.86-42.31-40.16-67.37c-3.67-12.52-5.79-25.44-6.29-38.4c-0.5-12.96,0.62-25.95,3.32-38.57
		c5.38-25.26,17.06-49.05,33.74-68.77c16.63-19.75,38.33-35.38,62.68-44.85c6.23-2.4,10.78-4.1,9.87-4.35
		c-0.88-0.24-6.97,1.22-13.21,3.77c-23.57,9.33-43.86,24.05-59.8,42.4c-15.94,18.36-27.69,40.42-33.91,65.02
		c-4.4,17.52-5.63,34.64-4.27,51.49c1.41,16.84,5.37,33.44,12.46,49.97c8.33,19.33,20.11,36.31,34.46,50.46
		c14.36,14.14,31.31,25.52,50.32,33.4c3.71,1.62,7.5,3.07,11.4,4.31c3.95,1.26,7.93,2.35,11.93,3.28
		c15.66,3.79,31.76,5.15,47.62,4.11c15.86-1.05,31.43-4.46,46.2-10.08c-17.53,7.04-36.29,10.93-55.17,11.44
		c-18.87,0.51-37.77-2.41-55.52-8.42c-2.55-0.88-4.27-1.38-4.08-1.1c0.38,0.35,2.6,1.35,5.17,2.21c12.42,4.22,25.37,6.9,38.46,7.95
		c13.09,1.05,26.3,0.46,39.23-1.73c12.92-2.19,25.55-5.95,37.56-11.22c12.01-5.26,23.35-12.03,33.66-20.1
		c6.15-3.7,15.16-10.55,23.93-20c4.39-4.71,8.73-10.04,12.7-15.76c3.98-5.71,7.57-11.82,10.64-17.96
		c4.52-9.08,7.71-17.98,10.07-27.14c-1.29,4.22-2.7,8.29-4.33,12.38c4.52-12.21,6.68-23.18,7.82-34.03c0.16-0.94,0.3-1.88,0.44-2.89
		c2.03-12.52,2.34-26.44,0.6-40.38C604.42,203.25,600.73,189.35,595.64,176.54z M441.58,85c0.68,0.02,1.21,0.07,2.08,0.15L441.58,85
		z M453.54,96.95l-0.47-0.1c1.94-0.57,3.9-1.09,5.89-1.56C457.13,95.8,455.32,96.36,453.54,96.95z M487.44,94.01
		c-0.13-0.06-0.26-0.12-0.4-0.18l0.43,0.19L487.44,94.01z M558.58,131.77c-0.91-0.91-2.66-2.72-1.89-1.56
		c-7.27-7.56-15.46-14.47-24.57-20.55c-3.39-2.26-6.85-4.31-10.26-6.1c-3.52-2.52-7.38-5.05-12.64-7.78
		c8.96,4.19,18.78,9.8,27.11,15.95c9.25,6.79,17.59,14.46,24.99,22.88C560.42,133.66,559.51,132.71,558.58,131.77z M578.54,149.73
		c-1.46-2.32-3-4.6-4.59-6.85l0.78,1.31c-6.19-8.63-13.25-16.61-20.97-23.8c-7.21-6.96-15.54-13.52-24.71-19.2
		c-4.74-2.94-9.71-5.64-14.84-8.07c4.4,1.81,8.53,3.7,12.33,5.58c8.08,4.87,15.56,10.36,22.56,16.47
		c8.83,7.72,16.92,16.4,24.36,26.27c0.85,1.19,1.66,2.38,2.46,3.58c1.07,1.79,2.1,3.61,3.1,5.44L578.54,149.73z"/>
	<path class="st1" d="M309.89,208.03c-3.9,20.01-3.23,39.73,1.15,57.95c-3.99-18.75-4.23-37.89-0.73-56.38
		c3.49-18.48,10.73-36.32,21.52-52.21c0.92-1.4,1.96-2.74,2.67-3.54c0.01-0.1,0.18-0.41,0.46-0.83c2.68-3.99,5.91-8.15,9.48-12.16
		c0.67-0.78,1.6-1.69,2.06-2c0.44-0.32,0.05,0.18-0.7,1.04c-3.53,3.87-6.64,7.76-9.15,11.41c-0.47,0.68-1.05,1.4-1.49,1.94
		c0.31-0.15-0.18,0.73-1.24,2.28c-10.34,15.34-18.09,33.17-21.93,52.05c-1.93,9.43-2.89,19.11-2.82,28.78
		c0.07,9.67,1.16,19.33,3.24,28.73c0.17,0.23,0.4,0.7,0.69,1.52c0.93,2.52,2.36,7.64,3.97,12.91c0.39,1.33,0.79,2.66,1.23,3.97
		c5.34,15.93,13.7,30.81,24.42,43.72c2.36,2.5,5.14,5.35,8.24,8.36c10.65,9.82,22.82,17.95,36.15,24.17c-0.78-0.51-1.22-0.88-1.14-1
		c0.41-0.18,3.53,1.15,7.14,2.74c1.83,0.79,3.67,1.55,5.52,2.26c-5.3-2.14-10.45-4.64-15.4-7.43c-0.72-0.4-1.37-0.78-1.96-1.15
		c-5.44-3.08-10.72-6.55-15.84-10.44c-11.17-8.46-20.88-18.49-28.85-29.6c-7.97-11.1-14.18-23.29-18.51-36.04
		c-4.33-12.77-6.81-26.08-7.32-39.42c-0.52-13.35,0.92-26.75,4.27-39.69c0.19-0.86,0.59-2.17,0.9-2.89c0.23-0.47,0.31-0.35,0.07,0.6
		c-2.06,8.16-3.26,16.21-3.74,24.17c-0.47,7.97-0.24,15.86,0.68,23.77c0.92,7.91,2.53,15.84,4.88,23.87
		c2.37,8.03,5.48,16.15,9.59,24.33c9.77,19.48,24.25,36.2,41.82,48.62c17.55,12.43,38.17,20.56,59.77,23.24
		c22.52,3.26,45.02,0.16,65.38-8.07c20.33-8.24,38.55-21.79,52.68-39.95c9.53-12.26,16.69-26.02,21.26-40.43
		c4.56-14.41,6.53-29.45,5.84-44.32c-0.68-14.86-3.99-29.65-9.68-43.4c-5.69-13.75-13.84-26.5-24.09-37.52
		c-7.74-8.21-16.05-15.16-22.76-20.26c-6.7-5.1-11.73-8.48-12.62-10.06c-0.51-0.93,0.53-1.09,2.83-0.51
		c2.3,0.59,5.84,1.93,10.18,4.19c-1.64-1.04-3.28-2.02-4.95-2.99c-2.61-1.58-5.29-3.07-8.01-4.47c-7.72-3.99-14.6-6.86-18.92-8.87
		c-1.99-0.89-4.01-1.74-6.06-2.54c-4.02-1.83-9.5-3.7-14.95-5.14c-1.15-0.31-2.29-0.59-3.41-0.87c-16.98-2.4-34.69-1.69-52.36,2.65
		c-27.35,6.73-50.76,21.18-68.53,40.43c-8.13,9.46-14.6,19.58-19.7,30.27C316.01,184.63,312.24,195.96,309.89,208.03z"/>
	<path class="st2" d="M308.04,270.59c18.26,74.21,93.22,119.56,167.43,101.3c74.21-18.26,119.56-93.22,101.3-167.43
		c-13.91-56.54-60.74-96.29-115.07-103.96c1.13,0.28,2.26,0.56,3.41,0.87c5.44,1.44,10.93,3.31,14.95,5.14
		c2.04,0.8,4.06,1.65,6.06,2.54c4.32,2.02,11.2,4.88,18.92,8.87c2.72,1.4,5.39,2.89,8.01,4.47c1.67,0.96,3.31,1.95,4.95,2.99
		c-4.34-2.26-7.89-3.61-10.18-4.19c-2.3-0.58-3.35-0.42-2.83,0.51c0.89,1.58,5.92,4.95,12.62,10.06
		c6.71,5.09,15.02,12.05,22.76,20.26c10.25,11.03,18.4,23.77,24.09,37.52c5.7,13.74,9.01,28.54,9.68,43.4
		c0.69,14.87-1.28,29.91-5.84,44.32c-4.56,14.4-11.73,28.17-21.26,40.43c-14.12,18.15-32.35,31.7-52.68,39.95
		c-20.36,8.23-42.87,11.34-65.38,8.07c-21.6-2.67-42.22-10.81-59.77-23.24c-17.57-12.42-32.05-29.14-41.82-48.62
		c-4.11-8.18-7.22-16.3-9.59-24.33c-2.36-8.04-3.97-15.96-4.88-23.87c-0.92-7.91-1.16-15.8-0.68-23.77
		c0.48-7.97,1.67-16.01,3.74-24.17c0.24-0.95,0.16-1.07-0.07-0.6c-0.31,0.72-0.71,2.03-0.9,2.89c-3.34,12.95-4.79,26.34-4.27,39.69
		c0.51,13.35,3,26.65,7.32,39.42c4.32,12.76,10.54,24.94,18.51,36.04c7.96,11.11,17.68,21.13,28.85,29.6
		c5.12,3.88,10.4,7.35,15.84,10.44c0.58,0.37,1.24,0.75,1.96,1.15c4.95,2.79,10.11,5.29,15.4,7.43c-1.86-0.72-3.69-1.47-5.52-2.26
		c-3.61-1.59-6.73-2.92-7.14-2.74c-0.07,0.12,0.37,0.49,1.14,1c-13.33-6.22-25.5-14.35-36.15-24.17c-3.1-3.01-5.88-5.86-8.24-8.36
		c-10.72-12.91-19.08-27.79-24.42-43.72c-0.43-1.32-0.84-2.64-1.23-3.97c-1.62-5.27-3.04-10.39-3.97-12.91
		c-0.29-0.81-0.52-1.29-0.69-1.52c-2.08-9.4-3.17-19.06-3.24-28.73c-0.06-9.67,0.9-19.35,2.82-28.78
		c3.84-18.89,11.6-36.71,21.93-52.05c1.05-1.56,1.54-2.43,1.24-2.28c0.45-0.54,1.02-1.26,1.49-1.94c2.51-3.65,5.62-7.54,9.15-11.41
		c0.75-0.86,1.13-1.36,0.7-1.04c-0.46,0.31-1.39,1.22-2.06,2c-3.57,4.02-6.8,8.17-9.48,12.16c-0.28,0.43-0.45,0.73-0.46,0.83
		c-0.71,0.8-1.75,2.14-2.67,3.54c-10.79,15.89-18.03,33.73-21.52,52.21c-3.5,18.49-3.26,37.63,0.73,56.38
		c-4.38-18.23-5.05-37.94-1.15-57.95c2.36-12.07,6.12-23.41,11.23-34.17c5.1-10.69,11.57-20.82,19.7-30.27
		c-2.39,2.59-4.67,5.27-6.85,8.03c-5.51,7.45-10.15,15.31-13.94,23.43c-5.17,11.11-8.8,22.71-10.92,34.58
		c-2.12,11.87-2.73,24.02-1.79,36.29c0.94,12.27,3.42,24.69,7.6,37.05c0.66,1.94,1.35,3.88,2.07,5.77
		c-6.55-14.73-10.59-30.42-11.91-46.41c-0.98-24.15,4.41-48.47,15.28-70C304.83,201.4,299.55,236.08,308.04,270.59z"/>
	<g>
		<g>
			<path class="st3" d="M334.48,230.73c-34.97-1.74-69.67-4.12-104.54-7.21c-0.71-0.07-1.06-0.1-1.77-0.17c0,0.01,0,0.02,0,0.03
				c-0.35-0.04-3.92-0.43-4.92-0.53c-2.04-0.2-3.06-0.3-5.09-0.5c-2.46-0.24-4.85-0.47-7.26-0.73c-0.08-0.03-0.12-0.04-0.2-0.06
				c-17.11-1.87-33.28-3.75-48.16-5.71c-31.16-4.1-62.48-8.3-93.47-13.99c-12.91-4.98-24.45-13.93-29.19-22.74
				c6.88,1.12,10.31,1.67,17.19,2.78c21.34,3.55,43.46,6.95,65.5,9.78c32.59,4.19,65.62,7.89,98.26,10.74
				c33.06,2.89,66.69,5,99.9,6.46c99.88,4.41,200.99,0.66,301.16-6.65c0.21,0.5,0.4,1.08,0.59,1.77c0.52,1.96,0.76,3.98,0.93,5.68
				c0.07,0.72,0.26,2.87,0.26,2.87c0.04,0.41,0.07,0.83,0.09,1.24c0.02,0.58,0.02,1.21-0.02,1.85c-0.12,2.48-0.6,4.9-1.16,7.58
				c-0.02,0.08-0.03,0.12-0.04,0.2c-0.06,0.02-0.08,0.03-0.14,0.05C526.93,231.16,430.25,234.09,334.48,230.73z"/>
			<path d="M621.91,201.39c0.28,9.04,0.41,13.57,0.69,22.61c84.2-7.82,167.05-20.04,249.91-36.94c0.14-0.03,0.35,0.03,0.43-0.09
				c3.4-5.13,0.48-20.77-4.65-24.15c-0.07-0.04-0.15,0.03-0.23,0.05C786.79,180.18,704.74,192.34,621.91,201.39z"/>
			<g>
				<g>
					<path class="st4" d="M670.22,280.44c-1.43-1.61-2.76-3.32-4-5.07c-0.94,0.21-1.9,0.38-2.84,0.49
						c-1.23,0.14-2.45,0.22-3.66,0.25c-0.59,0.02-1.17,0.03-1.75,0.03c-0.63,0.01-1.29,0.06-1.94,0.17c-1.24,0.19-2.46,0.56-3.62,1
						c-0.41,0.15-0.79,0.34-1.19,0.5c-4.92,4.11-9.64,8.33-13.97,12.61c-3.8,3.76-7.45,7.65-10.82,11.57
						c-0.31,0.36-0.46,0.53-0.77,0.89c0.46,0.15,0.69,0.23,1.15,0.38c3.15,1.05,6.59,1.86,10.21,2.41c3.03,0.45,6.23,0.72,9.5,0.79
						c0.7,0.02,1.05,0.02,1.75,0.04c0.11-0.47,0.17-0.7,0.29-1.17c1.08-4.42,2.58-8.91,4.44-13.32c1.21-2.88,2.64-5.76,4.19-8.63
						c0.16,1.56,0.29,3.14,0.53,4.66c0.55,3.55,1.33,7.07,2.33,10.45c0.09,0.31,0.14,0.46,0.23,0.77c0.46-0.18,0.68-0.27,1.14-0.44
						c3.14-1.22,6.26-2.69,9.29-4.36c2.53-1.4,5.02-2.97,7.39-4.66c0.51-0.36,0.76-0.54,1.27-0.9c-0.32-0.25-0.48-0.38-0.81-0.63
						C675.51,285.87,672.7,283.24,670.22,280.44z"/>
				</g>
				<g>
					<path class="st4" d="M767.4,248.37c-0.13-2.39-0.64-6.49-3.19-6.36c-30.38,5.04-61.01,9.08-91.58,12.79
						c-0.01,0.02,0,0.06-0.04,0.07c-0.12,0.03-0.18,0.05-0.29,0.08c-0.76,0.2-1.52,0.41-2.3,0.52c-0.78,0.11-1.57,0.13-2.34-0.03
						c-0.4-0.08-0.77-0.21-1.15-0.37c-0.34-0.14-0.68-0.27-1.03-0.4c-0.73-0.26-1.47-0.49-2.22-0.65c-0.48-0.1-0.98-0.16-1.47-0.18
						c-2.15,0.25-3.22,0.37-5.36,0.62c-10.79,1.25-22.46,2.83-33.22,4.03c-0.5,0.06-1,0.11-1.52,0.17c-0.48,0.05-0.94,0.2-1.35,0.43
						c-2.44,0.21-4.89,0.41-7.31,0.6c-0.31,0.74-0.46,1.12-0.77,1.86c0.23,0.95,0.35,1.42,0.58,2.37
						c-149.97,11.67-305.62,10.59-454.81-8.32c-0.11,0-0.17,0.01-0.28,0.01c-0.15-0.14-0.43-0.13-0.71-0.12
						c-2.11,8.37-4.07,17.45-3.06,25.99c0.28-0.01,0.57,0.12,1,0.11c0.17-0.01,0.25-0.01,0.43-0.02
						c153.15,15.8,310.08,19.67,463.64,7.18c0.07,0.87,0.49,1.69,1.17,2.26c0.72,0.6,1.69,0.9,2.67,0.8
						c17.22-2.34,25.83-3.53,43.04-5.93c0.8-0.09,1.55-0.45,2.12-1.01c0.65-0.65,0.99-1.52,0.97-2.42
						c31.76-3.75,63.39-7.85,95.05-12.37c2.55-0.14,4.42-2.21,4.28-4.74C768.02,259.74,767.71,253.98,767.4,248.37z"/>
				</g>
			</g>
			<g>
				<path d="M334.42,232.13c-34.99-1.74-69.72-4.12-104.62-7.21c0,0-0.01,0-0.01,0c0,0.01,0,0.01,0,0.02
					c-0.69-0.06-1.03-0.09-1.72-0.15c0,0-3.91-0.42-4.96-0.53c-2.04-0.2-3.05-0.3-5.09-0.5c-2.47-0.24-4.86-0.47-7.27-0.73
					c-0.16-0.04-0.24-0.06-0.4-0.1c-16.88-1.83-33.06-3.71-47.99-5.68c-31.19-4.11-62.52-8.3-93.55-14
					c-13.6-5.22-25.36-14.44-30.22-23.54c-0.52-0.97-0.78-1.46-1.3-2.43c8,1.3,12,1.95,19.99,3.24c21.36,3.56,43.46,6.94,65.46,9.77
					c32.57,4.19,65.58,7.88,98.19,10.73c33.04,2.88,66.64,4.99,99.84,6.46c99.83,4.41,200.89,0.66,301.02-6.65
					c0.39-0.03,0.59-0.05,0.98-0.08c0.15,0.36,0.23,0.54,0.39,0.91c0.24,0.57,0.46,1.22,0.66,1.99c0.55,2.05,0.8,4.14,0.97,5.9
					c0.07,0.72,0.26,2.88,0.26,2.88c0.04,0.43,0.08,0.87,0.09,1.3c0.02,0.63,0.02,1.3-0.02,1.98c-0.12,2.56-0.61,5.05-1.18,7.8
					c-0.08,0.4-0.12,0.6-0.21,1c-0.43,0.14-0.65,0.21-1.08,0.35C527.1,232.57,430.3,235.5,334.42,232.13z M227.21,221.94
					c1.15,0.1,1.72,0.16,2.86,0.26c34.85,3.08,69.76,5.73,104.46,7.2c94.7,4.02,191.76,0.44,286.9-7.19
					c0.5-2.46,0.88-4.56,0.98-6.65c0.03-0.59,0.03-1.19,0.01-1.75c-0.01-0.38-0.05-0.77-0.09-1.16c0,0-0.18-2.15-0.25-2.86
					c-0.16-1.65-0.4-3.6-0.9-5.47c-0.07-0.25-0.14-0.49-0.21-0.71c-99.9,7.25-200.72,10.97-300.31,6.58
					c-33.24-1.47-66.89-3.58-99.96-6.46c-32.65-2.85-65.7-6.56-98.31-10.75c-22.04-2.83-44.16-6.22-65.55-9.79
					c-5.74-0.93-8.61-1.39-14.35-2.32c5.24,7.73,15.5,15.29,27.06,19.74c30.9,5.65,62.1,9.83,93.16,13.91
					c14.99,1.97,31.24,3.86,48.19,5.7c0.16,0.04,0.24,0.06,0.4,0.1c2.32,0.25,4.62,0.48,6.99,0.7c2.04,0.2,3.05,0.3,5.09,0.5
					C224.07,221.61,225.96,221.81,227.21,221.94z"/>
			</g>
			<g>
				<path d="M320.41,216.5c-33.41-1.65-66.92-3.58-100.01-6.47c-32.67-2.85-65.73-6.55-98.36-10.75
					c-20.89-2.69-41.85-5.88-62.1-9.21c0.18-1.08,0.27-1.61,0.45-2.69c20.21,3.33,41.15,6.52,62,9.2
					c32.59,4.19,65.61,7.89,98.24,10.73c33.05,2.88,66.69,5.02,99.88,6.46c90.63,3.95,182.41,0.97,273.44-4.57
					c0.08,1.09,0.11,1.63,0.19,2.72C503.02,217.48,411.69,219.96,320.41,216.5z"/>
			</g>
			<g>
				<path class="st5" d="M624.11,201.35c-6.29,0.42-18.96,1.18-19.61,2.03c-0.82,1.08,1.32,20.15,2.15,20.91
					c1.14,1.05,18.51-0.06,19.54-1.18c1.49-1.62-0.98-14.07-2.29-19.01C623.98,203,624.02,202.45,624.11,201.35z"/>
			</g>
			<g>
				<path class="st5" d="M627.04,240.46c-2.62,0.27-9.03-14.08-8.08-15.41c0.2-0.28,4.11-0.29,4.62-0.7
					c1.46-1.16-1.61-22.59-4.11-23.31c-0.74-0.21-3.35,0.42-3.53,0.26c-2-1.74,1.22-17.47,3.79-17.84
					C628.3,182.23,635.83,239.21,627.04,240.46L627.04,240.46z"/>
			</g>
			<g>
				<path class="st6" d="M608.98,220.97c2.75,0.14,5.52,0.28,8.3,0.57c-2.91,0.43-5.83,0.59-8.77,0.54c-0.15,0-0.23,0-0.38-0.01l0,0
					c0.18-2.74-1.01-10.88-1.11-13.25C607.76,210.89,609.18,219.16,608.98,220.97z"/>
			</g>
			<g>
				<g>
					<path class="st7" d="M864.53,164.31c-1.04,0.2-1.55,0.3-2.59,0.5c1.92,3.06,3.41,6.32,4.28,9.78c0.94,3.73,1.33,8.07,0.84,12.8
						c0.99-0.2,1.48-0.3,2.47-0.5c0.48-4.74,0.12-8.93-0.85-12.8C867.82,170.62,866.32,167.38,864.53,164.31L864.53,164.31z"/>
				</g>
			</g>
			<g>
				<g>
					<path class="st7" d="M636.96,218.68c1.53-2.69,2.3-4.04,3.83-6.73c-2.34-3.07-3.51-4.61-5.84-7.68
						c-1.36,3.13-2.03,4.7-3.4,7.83C633.71,214.72,634.8,216.04,636.96,218.68z"/>
				</g>
			</g>
			<g>
				<g>
					<path class="st7" d="M647.74,217.55c1.52-2.75,2.29-4.13,3.81-6.88c-2.35-3.06-3.52-4.6-5.86-7.67
						c-1.35,3.13-2.02,4.7-3.37,7.84C644.48,213.53,645.56,214.87,647.74,217.55z"/>
				</g>
			</g>
			<g>
				<g>
					<path class="st7" d="M658.51,216.26c1.52-2.76,2.28-4.13,3.79-6.89c-2.36-3.06-3.53-4.59-5.88-7.65
						c-1.34,3.14-2.01,4.71-3.35,7.85C655.24,212.25,656.33,213.59,658.51,216.26z"/>
				</g>
			</g>
			<g>
				<g>
					<path class="st7" d="M669.27,214.94c1.51-2.71,2.27-4.06,3.77-6.76c-2.36-3.05-3.54-4.58-5.9-7.64c-1.33,3.09-2,4.63-3.33,7.72
						C665.99,210.94,667.09,212.27,669.27,214.94z"/>
				</g>
			</g>
			<g>
				<g>
					<path class="st7" d="M680.04,213.6c1.5-2.71,2.26-4.07,3.75-6.78c-2.37-3.05-3.56-4.57-5.92-7.62
						c-1.32,3.09-1.98,4.63-3.31,7.72C676.74,209.6,677.84,210.93,680.04,213.6z"/>
				</g>
			</g>
			<g>
				<g>
					<path class="st7" d="M690.79,212.22c1.5-2.71,2.24-4.07,3.73-6.79c-2.38-3.04-3.57-4.56-5.94-7.6
						c-1.31,3.15-1.97,4.72-3.29,7.87C687.49,208.31,688.59,209.62,690.79,212.22z"/>
				</g>
			</g>
			<g>
				<g>
					<path class="st7" d="M702.38,210.66c1.49-2.72,2.23-4.08,3.72-6.8c-2.39-3.03-3.58-4.55-5.96-7.59
						c-1.3,3.15-1.96,4.73-3.27,7.88C699.07,206.77,700.17,208.07,702.38,210.66z"/>
				</g>
			</g>
			<g>
				<g>
					<path class="st7" d="M713.97,209.21c1.48-2.78,2.22-4.17,3.69-6.95c-2.4-3.03-3.59-4.54-5.98-7.57
						c-1.29,3.16-1.94,4.73-3.24,7.89C710.64,205.24,711.75,206.56,713.97,209.21z"/>
				</g>
			</g>
			<g>
				<g>
					<path class="st7" d="M725.68,207.59c1.41-2.78,2.12-4.17,3.53-6.95c-2.41-3.02-3.61-4.53-6-7.55c-1.29,3.16-1.93,4.74-3.22,7.9
						C722.26,203.62,723.4,204.95,725.68,207.59z"/>
				</g>
			</g>
			<g>
				<g>
					<path class="st7" d="M737.26,205.93c1.41-2.78,2.11-4.18,3.51-6.96c-2.41-2.96-3.62-4.44-6.02-7.4
						c-1.28,3.11-1.92,4.66-3.2,7.77C733.82,201.98,734.97,203.3,737.26,205.93z"/>
				</g>
			</g>
			<g>
				<g>
					<path class="st7" d="M748.82,204.24c1.4-2.73,2.1-4.1,3.49-6.83c-2.42-3.01-3.63-4.51-6.04-7.52c-1.27,3.11-1.9,4.67-3.18,7.78
						C745.38,200.3,746.52,201.61,748.82,204.24z"/>
				</g>
			</g>
			<g>
				<g>
					<path class="st7" d="M760.38,202.52c1.39-2.74,2.09-4.11,3.47-6.84c-2.43-3-3.64-4.5-6.07-7.5c-1.26,3.12-1.89,4.67-3.16,7.79
						C756.93,198.58,758.07,199.9,760.38,202.52z"/>
				</g>
			</g>
			<g>
				<g>
					<path class="st7" d="M771.06,200.24c1.44-2.74,2.16-4.12,3.59-6.86c-2.49-2.99-3.74-4.49-6.22-7.48
						c-1.25,3.12-1.88,4.68-3.13,7.8C767.6,196.32,768.75,197.62,771.06,200.24z"/>
				</g>
			</g>
			<g>
				<g>
					<path class="st7" d="M781.74,197.93c1.43-2.8,2.14-4.2,3.57-7.01c-2.45-2.99-3.67-4.48-6.1-7.47c-1.24,3.18-1.86,4.77-3.1,7.95
						C778.35,194.02,779.48,195.32,781.74,197.93z"/>
				</g>
			</g>
			<g>
				<g>
					<path class="st7" d="M792.59,196.42c1.37-2.75,2.05-4.12,3.42-6.87c-2.45-2.98-3.68-4.47-6.12-7.45
						c-1.23,3.13-1.85,4.69-3.09,7.81C789.11,192.52,790.27,193.82,792.59,196.42z"/>
				</g>
			</g>
			<g>
				<g>
					<path class="st7" d="M803.47,194.73c1.36-2.81,2.04-4.21,3.39-7.02c-2.46-2.92-3.69-4.38-6.14-7.3
						c-1.22,3.13-1.84,4.69-3.07,7.82C799.98,190.83,801.14,192.13,803.47,194.73z"/>
				</g>
			</g>
			<g>
				<g>
					<path class="st7" d="M814.04,192.72c1.25-2.84,1.88-4.26,3.13-7.1c-2.64-2.89-3.95-4.34-6.58-7.24
						c-1.04,3.21-1.56,4.81-2.6,8.02C810.4,188.93,811.61,190.19,814.04,192.72z"/>
				</g>
			</g>
			<g>
				<g>
					<path class="st7" d="M824.54,191.01c1.24-2.84,1.87-4.26,3.11-7.11c-2.65-2.89-3.96-4.33-6.6-7.22
						c-1.03,3.21-1.55,4.82-2.58,8.02C820.89,187.23,822.11,188.49,824.54,191.01z"/>
				</g>
			</g>
			<g>
				<g>
					<path class="st7" d="M835.34,189.06c1.24-2.79,1.86-4.19,3.1-6.98c-2.65-2.88-3.98-4.32-6.62-7.2
						c-1.03,3.16-1.54,4.74-2.58,7.89C831.68,185.29,832.9,186.54,835.34,189.06z"/>
				</g>
			</g>
			<g>
				<g>
					<path class="st7" d="M845.76,186.92c1.24-2.79,1.85-4.19,3.08-6.99c-2.66-2.87-3.99-4.31-6.64-7.19
						c-1.02,3.16-1.53,4.74-2.55,7.9C842.09,183.16,843.31,184.41,845.76,186.92z"/>
				</g>
			</g>
			<g>
				<g>
					<path class="st7" d="M856.8,184.73c1.23-2.8,1.84-4.2,3.06-6.99c-2.67-2.87-4-4.3-6.66-7.17c-1,3.22-1.51,4.83-2.51,8.04
						C853.13,181.06,854.36,182.29,856.8,184.73z"/>
				</g>
			</g>
		</g>
	</g>
</g>
</svg>
