<?xml version="1.0" encoding="utf-8"?>
<!-- Generator: Adobe Illustrator 24.0.1, SVG Export Plug-In . SVG Version: 6.00 Build 0)  -->
<svg version="1.1" id="Layer_1" xmlns="http://www.w3.org/2000/svg" xmlns:xlink="http://www.w3.org/1999/xlink" x="0px" y="0px"
	 viewBox="0 0 891.39 456.79" style="enable-background:new 0 0 891.39 456.79;" xml:space="preserve">
<style type="text/css">
	.st0{opacity:0;fill:#FFFFFF;}
	.st1{fill:url(#SVGID_1_);}
	.st2{fill:#292929;}
	.st3{fill-rule:evenodd;clip-rule:evenodd;}
	.st4{fill-rule:evenodd;clip-rule:evenodd;fill:#FFFFFF;}
	.st5{fill-rule:evenodd;clip-rule:evenodd;fill:#FEFEFE;}
	.st6{fill:#F4F4F4;}
</style>
<g>
	<rect y="0" class="st0" width="891.39" height="456.79"/>
	<linearGradient id="SVGID_1_" gradientUnits="userSpaceOnUse" x1="288.5613" y1="241.0685" x2="610.0419" y2="241.0685">
		<stop  offset="5.617738e-03" style="stop-color:#8C6A33"/>
		<stop  offset="0.139" style="stop-color:#9A7638"/>
		<stop  offset="0.3542" style="stop-color:#A9843E"/>
		<stop  offset="0.5225" style="stop-color:#AF8940"/>
		<stop  offset="1" style="stop-color:#8C6A33"/>
	</linearGradient>
	<path class="st1" d="M326.38,148.92c-0.43,0-0.82-0.17-1.1-0.45s-0.45-0.67-0.45-1.1s0.17-0.82,0.45-1.1
		c0.28-0.28,0.67-0.45,1.1-0.45c0.43,0,0.82,0.17,1.1,0.45c0.28,0.28,0.45,0.67,0.45,1.1s-0.17,0.82-0.45,1.1
		C327.2,148.74,326.81,148.92,326.38,148.92z M316.95,166.64c0.52-0.52,0.83-1.22,0.83-2.01c0-0.78-0.32-1.5-0.83-2.01
		c-0.51-0.52-1.22-0.83-2.01-0.83c-0.78,0-1.49,0.31-2.01,0.83c-0.51,0.51-0.83,1.23-0.83,2.01c0,0.79,0.32,1.49,0.83,2.01
		c0.52,0.51,1.23,0.83,2.01,0.83C315.73,167.47,316.44,167.15,316.95,166.64z M308.71,186.04c0.71-0.71,1.15-1.69,1.15-2.77
		c0-1.09-0.44-2.07-1.15-2.78s-1.69-1.15-2.78-1.15c-1.09,0-2.06,0.44-2.78,1.15s-1.15,1.69-1.15,2.78c0,1.08,0.44,2.06,1.15,2.77
		c0.71,0.71,1.69,1.15,2.78,1.15C307.01,187.19,308,186.75,308.71,186.04z M302.93,206.37c0.87-0.87,1.41-2.08,1.41-3.41
		s-0.54-2.54-1.41-3.41c-0.87-0.87-2.08-1.41-3.41-1.41c-1.34,0-2.54,0.54-3.41,1.41c-0.88,0.87-1.41,2.08-1.41,3.41
		s0.54,2.54,1.41,3.41c0.87,0.87,2.08,1.41,3.41,1.41C300.84,207.78,302.05,207.24,302.93,206.37z M299.74,227.27
		c1.01-1.01,1.64-2.41,1.64-3.96c0-1.54-0.62-2.95-1.64-3.96c-1.01-1.01-2.41-1.64-3.96-1.64s-2.94,0.62-3.96,1.64
		c-1.01,1.01-1.64,2.41-1.64,3.96c0,1.54,0.63,2.94,1.64,3.96c1.01,1.01,2.41,1.64,3.96,1.64S298.72,228.28,299.74,227.27z
		 M299.2,248.41c1.13-1.13,1.83-2.69,1.83-4.41c0-1.72-0.7-3.28-1.83-4.4c-1.13-1.13-2.69-1.83-4.4-1.83c-1.72,0-3.28,0.7-4.41,1.83
		c-1.13,1.13-1.83,2.68-1.83,4.4c0,1.72,0.7,3.28,1.83,4.41c1.13,1.13,2.69,1.83,4.41,1.83
		C296.51,250.23,298.07,249.53,299.2,248.41z M301.33,269.4c1.22-1.22,1.98-2.91,1.98-4.77c0-1.86-0.76-3.55-1.98-4.77
		c-1.22-1.22-2.91-1.97-4.77-1.97c-1.86,0-3.55,0.75-4.77,1.97c-1.22,1.22-1.98,2.91-1.98,4.77c0,1.86,0.75,3.55,1.98,4.77
		c1.22,1.22,2.91,1.97,4.77,1.97C298.43,271.37,300.11,270.62,301.33,269.4z M306.12,289.9c1.3-1.3,2.1-3.08,2.1-5.06
		s-0.8-3.76-2.1-5.06c-1.29-1.29-3.08-2.09-5.06-2.09c-1.97,0-3.76,0.8-5.06,2.09c-1.3,1.3-2.1,3.09-2.1,5.06s0.8,3.76,2.1,5.06
		c1.29,1.29,3.08,2.09,5.06,2.09C303.04,291.99,304.83,291.19,306.12,289.9z M313.51,309.54c1.35-1.35,2.18-3.22,2.18-5.28
		c0-2.06-0.84-3.92-2.18-5.27c-1.35-1.35-3.22-2.18-5.27-2.18c-2.06,0-3.93,0.83-5.27,2.18c-1.35,1.35-2.19,3.21-2.19,5.27
		c0,2.06,0.84,3.92,2.19,5.28c1.35,1.35,3.21,2.18,5.27,2.18C310.3,311.72,312.16,310.89,313.51,309.54z M323.36,327.95
		c1.39-1.39,2.24-3.3,2.24-5.41c0-2.11-0.86-4.02-2.24-5.41c-1.38-1.38-3.3-2.24-5.41-2.24c-2.11,0-4.02,0.86-5.41,2.24
		c-1.38,1.39-2.24,3.3-2.24,5.41c0,2.11,0.86,4.02,2.24,5.41c1.39,1.38,3.3,2.24,5.41,2.24
		C320.07,330.19,321.98,329.34,323.36,327.95z M335.52,344.82c1.4-1.4,2.26-3.33,2.26-5.47c0-2.14-0.86-4.07-2.26-5.47
		c-1.4-1.4-3.33-2.26-5.47-2.26c-2.13,0-4.07,0.87-5.47,2.26c-1.4,1.4-2.27,3.33-2.27,5.47c0,2.14,0.87,4.07,2.27,5.47
		c1.4,1.4,3.33,2.27,5.47,2.27C332.18,347.09,334.12,346.22,335.52,344.82z M349.74,359.88c1.4-1.4,2.27-3.33,2.27-5.48
		c0-2.14-0.87-4.07-2.27-5.47c-1.4-1.4-3.34-2.27-5.47-2.27c-2.14,0-4.07,0.87-5.48,2.27c-1.4,1.4-2.27,3.33-2.27,5.47
		c0,2.14,0.87,4.07,2.27,5.48c1.4,1.4,3.33,2.27,5.48,2.27C346.4,362.14,348.34,361.28,349.74,359.88z M365.76,372.86
		c1.39-1.39,2.25-3.3,2.25-5.42s-0.86-4.03-2.25-5.42c-1.39-1.39-3.3-2.24-5.42-2.24c-2.11,0-4.03,0.86-5.42,2.24
		c-1.39,1.39-2.24,3.3-2.24,5.42s0.86,4.03,2.24,5.42c1.39,1.39,3.3,2.24,5.42,2.24C362.46,375.11,364.37,374.25,365.76,372.86z
		 M383.31,383.5c1.35-1.35,2.19-3.22,2.19-5.28c0-2.06-0.83-3.93-2.19-5.28c-1.35-1.35-3.22-2.19-5.28-2.19s-3.93,0.84-5.28,2.19
		c-1.35,1.35-2.19,3.22-2.19,5.28c0,2.06,0.83,3.93,2.19,5.28c1.35,1.35,3.22,2.19,5.28,2.19S381.96,384.85,383.31,383.5z
		 M402.07,391.58c1.3-1.3,2.1-3.09,2.1-5.07c0-1.98-0.8-3.77-2.1-5.07c-1.3-1.3-3.09-2.1-5.07-2.1s-3.77,0.8-5.07,2.1
		c-1.3,1.3-2.1,3.09-2.1,5.07c0,1.98,0.8,3.77,2.1,5.07c1.3,1.3,3.09,2.1,5.07,2.1S400.78,392.87,402.07,391.58z M421.7,396.95
		c1.23-1.22,1.99-2.91,1.99-4.78s-0.76-3.56-1.99-4.79c-1.22-1.22-2.91-1.98-4.78-1.98c-1.87,0-3.56,0.76-4.79,1.98
		c-1.22,1.22-1.98,2.92-1.98,4.79s0.76,3.56,1.98,4.78c1.22,1.23,2.92,1.99,4.79,1.99C418.79,398.94,420.48,398.18,421.7,396.95z
		 M441.83,399.55c1.13-1.13,1.83-2.7,1.83-4.42c0-1.73-0.7-3.29-1.83-4.42c-1.13-1.13-2.7-1.83-4.42-1.83
		c-1.73,0-3.29,0.7-4.42,1.83c-1.13,1.13-1.83,2.69-1.83,4.42c0,1.73,0.7,3.29,1.83,4.42c1.13,1.13,2.69,1.83,4.42,1.83
		C439.14,401.38,440.7,400.68,441.83,399.55z M462.09,399.3c1.02-1.02,1.65-2.42,1.65-3.97c0-1.55-0.63-2.95-1.65-3.97
		c-1.02-1.01-2.42-1.65-3.97-1.65c-1.55,0-2.95,0.63-3.97,1.65c-1.01,1.02-1.65,2.42-1.65,3.97c0,1.55,0.63,2.96,1.65,3.97
		c1.02,1.01,2.42,1.65,3.97,1.65C459.67,400.95,461.07,400.32,462.09,399.3z M482.09,396.21c0.88-0.88,1.42-2.09,1.42-3.43
		s-0.54-2.55-1.42-3.43c-0.88-0.88-2.09-1.42-3.43-1.42s-2.55,0.54-3.43,1.42c-0.88,0.88-1.42,2.09-1.42,3.43s0.54,2.55,1.42,3.43
		c0.88,0.88,2.09,1.42,3.43,1.42S481.22,397.09,482.09,396.21z M501.48,390.3c0.71-0.71,1.15-1.7,1.15-2.79s-0.44-2.08-1.15-2.79
		c-0.71-0.71-1.7-1.15-2.79-1.15s-2.08,0.44-2.79,1.15c-0.71,0.71-1.15,1.7-1.15,2.79s0.44,2.08,1.15,2.79
		c0.71,0.71,1.7,1.16,2.79,1.16S500.76,391.01,501.48,390.3z M519.84,381.62c0.52-0.52,0.84-1.23,0.84-2.02s-0.32-1.51-0.84-2.02
		c-0.52-0.52-1.23-0.84-2.02-0.84c-0.79,0-1.51,0.32-2.02,0.84c-0.52,0.52-0.84,1.23-0.84,2.02s0.32,1.5,0.84,2.02
		c0.52,0.52,1.23,0.84,2.02,0.84C518.61,382.46,519.33,382.14,519.84,381.62z M536.82,370.3c0.29-0.29,0.46-0.67,0.46-1.1
		c0-0.43-0.17-0.82-0.46-1.11c-0.28-0.28-0.67-0.45-1.1-0.45c-0.43,0-0.82,0.18-1.1,0.45c-0.29,0.29-0.46,0.67-0.46,1.11
		c0,0.43,0.17,0.82,0.46,1.1c0.28,0.28,0.67,0.45,1.1,0.45C536.15,370.75,536.54,370.58,536.82,370.3z M364,113.99
		c0.28-0.28,0.45-0.67,0.45-1.09c0-0.43-0.18-0.82-0.45-1.1c-0.28-0.28-0.67-0.45-1.1-0.45c-0.43,0-0.82,0.18-1.1,0.45
		c-0.28,0.28-0.45,0.67-0.45,1.1c0,0.43,0.17,0.82,0.45,1.09c0.28,0.29,0.67,0.45,1.1,0.45C363.33,114.45,363.72,114.28,364,113.99z
		 M382.81,104.5c0.52-0.51,0.83-1.22,0.83-2.01c0-0.79-0.32-1.49-0.83-2.01c-0.52-0.51-1.22-0.83-2.01-0.83
		c-0.78,0-1.49,0.32-2.01,0.83c-0.51,0.52-0.83,1.22-0.83,2.01c0,0.79,0.32,1.5,0.83,2.01c0.52,0.52,1.23,0.83,2.01,0.83
		C381.59,105.33,382.29,105.01,382.81,104.5z M402.71,97.36c0.71-0.71,1.15-1.69,1.15-2.78c0-1.09-0.44-2.07-1.15-2.78
		c-0.71-0.71-1.69-1.15-2.78-1.15s-2.06,0.44-2.78,1.15c-0.71,0.71-1.15,1.69-1.15,2.78c0,1.08,0.44,2.06,1.15,2.78
		c0.71,0.71,1.7,1.15,2.78,1.15S402,98.07,402.71,97.36z M423.37,92.74c0.87-0.87,1.41-2.08,1.41-3.42c0-1.33-0.54-2.54-1.41-3.41
		s-2.08-1.41-3.41-1.41s-2.54,0.54-3.41,1.41s-1.41,2.08-1.41,3.41c0,1.34,0.54,2.54,1.41,3.42c0.87,0.87,2.08,1.41,3.41,1.41
		S422.5,93.61,423.37,92.74z M444.47,90.73c1.01-1.01,1.64-2.41,1.64-3.96c0-1.54-0.63-2.94-1.64-3.96
		c-1.01-1.01-2.41-1.64-3.96-1.64s-2.94,0.63-3.96,1.64c-1.01,1.01-1.64,2.41-1.64,3.96c0,1.54,0.63,2.94,1.64,3.96
		c1.01,1.01,2.41,1.64,3.96,1.64S443.45,91.75,444.47,90.73z M465.62,91.39c1.13-1.13,1.82-2.69,1.82-4.41
		c0-1.72-0.7-3.28-1.82-4.41c-1.13-1.13-2.69-1.82-4.41-1.82c-1.72,0-3.28,0.7-4.41,1.82c-1.13,1.13-1.83,2.69-1.83,4.41
		c0,1.72,0.7,3.28,1.83,4.41c1.13,1.13,2.69,1.83,4.41,1.83C462.93,93.22,464.49,92.52,465.62,91.39z M486.47,94.72
		c1.22-1.22,1.98-2.91,1.98-4.77c0-1.86-0.75-3.55-1.98-4.77c-1.22-1.22-2.91-1.98-4.77-1.98c-1.87,0-3.55,0.75-4.77,1.98
		c-1.22,1.22-1.98,2.91-1.98,4.77c0,1.87,0.76,3.55,1.98,4.77c1.22,1.22,2.91,1.98,4.77,1.98C483.57,96.7,485.25,95.94,486.47,94.72
		z M506.67,100.68c1.3-1.29,2.1-3.08,2.1-5.06c0-1.98-0.8-3.76-2.1-5.06c-1.29-1.3-3.08-2.1-5.06-2.1c-1.97,0-3.76,0.8-5.06,2.1
		c-1.3,1.29-2.09,3.08-2.09,5.06c0,1.97,0.8,3.76,2.09,5.06c1.3,1.3,3.08,2.1,5.06,2.1C503.59,102.77,505.38,101.97,506.67,100.68z
		 M525.86,109.19c1.35-1.35,2.18-3.22,2.18-5.27c0-2.06-0.84-3.92-2.18-5.28c-1.35-1.35-3.22-2.18-5.28-2.18
		c-2.06,0-3.92,0.83-5.27,2.18c-1.35,1.35-2.19,3.22-2.19,5.28c0,2.06,0.84,3.92,2.19,5.27c1.35,1.35,3.21,2.18,5.27,2.18
		C522.65,111.37,524.51,110.54,525.86,109.19z M543.68,120.09c1.39-1.38,2.24-3.3,2.24-5.41c0-2.11-0.86-4.02-2.24-5.41
		c-1.39-1.38-3.3-2.24-5.41-2.24c-2.11,0-4.02,0.86-5.41,2.24c-1.38,1.39-2.24,3.3-2.24,5.41c0,2.11,0.86,4.02,2.24,5.41
		c1.38,1.39,3.3,2.24,5.41,2.24C540.38,122.33,542.29,121.48,543.68,120.09z M559.81,133.2c1.4-1.4,2.27-3.33,2.27-5.47
		c0-2.14-0.87-4.07-2.27-5.47c-1.4-1.4-3.33-2.26-5.47-2.26c-2.14,0-4.07,0.87-5.47,2.26c-1.4,1.4-2.26,3.33-2.26,5.47
		c0,2.14,0.86,4.07,2.26,5.47c1.4,1.4,3.33,2.26,5.47,2.26C556.48,135.47,558.41,134.6,559.81,133.2z M574.03,148.26
		c1.4-1.4,2.27-3.34,2.27-5.48c0-2.14-0.87-4.07-2.27-5.47s-3.33-2.27-5.47-2.27s-4.07,0.87-5.48,2.27c-1.4,1.4-2.27,3.33-2.27,5.47
		c0,2.14,0.87,4.07,2.27,5.48c1.4,1.4,3.34,2.27,5.48,2.27S572.63,149.66,574.03,148.26z M586.06,165.02
		c1.39-1.39,2.24-3.3,2.24-5.42c0-2.11-0.86-4.03-2.24-5.42c-1.39-1.39-3.3-2.24-5.42-2.24c-2.11,0-4.03,0.86-5.41,2.24
		c-1.39,1.39-2.24,3.3-2.24,5.42c0,2.12,0.86,4.03,2.24,5.42c1.39,1.38,3.3,2.24,5.41,2.24
		C582.76,167.26,584.67,166.4,586.06,165.02z M595.64,183.16c1.35-1.35,2.19-3.22,2.19-5.28c0-2.06-0.84-3.93-2.19-5.28
		c-1.35-1.35-3.22-2.18-5.28-2.18c-2.06,0-3.93,0.83-5.28,2.18c-1.35,1.35-2.19,3.22-2.19,5.28c0,2.06,0.84,3.93,2.19,5.28
		c1.35,1.35,3.22,2.19,5.28,2.19C592.42,185.35,594.29,184.52,595.64,183.16z M602.59,202.37c1.3-1.3,2.1-3.09,2.1-5.07
		c0-1.98-0.8-3.77-2.1-5.07c-1.3-1.3-3.09-2.1-5.07-2.1c-1.98,0-3.77,0.8-5.07,2.1c-1.3,1.3-2.1,3.09-2.1,5.07
		c0,1.98,0.8,3.77,2.1,5.07c1.3,1.3,3.09,2.1,5.07,2.1C599.5,204.48,601.3,203.67,602.59,202.37z M606.81,222.3
		c1.23-1.22,1.98-2.92,1.98-4.78c0-1.87-0.75-3.56-1.98-4.79c-1.22-1.22-2.92-1.98-4.79-1.98c-1.87,0-3.56,0.76-4.78,1.98
		c-1.23,1.22-1.99,2.92-1.99,4.79c0,1.87,0.76,3.56,1.99,4.78c1.22,1.23,2.91,1.98,4.78,1.98
		C603.89,224.28,605.58,223.53,606.81,222.3z M608.21,242.57c1.13-1.13,1.83-2.69,1.83-4.42c0-1.73-0.7-3.29-1.83-4.42
		c-1.13-1.13-2.69-1.83-4.42-1.83c-1.73,0-3.29,0.7-4.42,1.83c-1.13,1.13-1.83,2.69-1.83,4.42c0,1.73,0.7,3.29,1.83,4.42
		c1.13,1.13,2.69,1.83,4.42,1.83C605.52,244.4,607.08,243.7,608.21,242.57z M606.77,262.8c1.02-1.01,1.65-2.42,1.65-3.97
		c0-1.55-0.63-2.96-1.65-3.97c-1.02-1.01-2.42-1.64-3.97-1.64c-1.55,0-2.95,0.63-3.97,1.64c-1.02,1.02-1.65,2.42-1.65,3.97
		c0,1.55,0.63,2.96,1.65,3.97c1.02,1.02,2.42,1.65,3.97,1.65C604.35,264.44,605.75,263.82,606.77,262.8z M602.49,282.62
		c0.88-0.88,1.42-2.09,1.42-3.43c0-1.34-0.54-2.55-1.42-3.43c-0.88-0.88-2.09-1.42-3.43-1.42s-2.55,0.54-3.43,1.42
		s-1.42,2.09-1.42,3.43c0,1.34,0.54,2.55,1.42,3.43c0.88,0.88,2.09,1.42,3.43,1.42S601.61,283.5,602.49,282.62z M595.42,301.66
		c0.71-0.71,1.15-1.7,1.15-2.79c0-1.09-0.44-2.08-1.15-2.79c-0.71-0.71-1.7-1.15-2.79-1.15c-1.09,0-2.07,0.44-2.79,1.15
		c-0.71,0.71-1.16,1.7-1.16,2.79c0,1.09,0.44,2.08,1.16,2.79c0.71,0.71,1.7,1.16,2.79,1.16
		C593.72,302.82,594.71,302.38,595.42,301.66z M585.64,319.53c0.52-0.52,0.84-1.23,0.84-2.02c0-0.79-0.32-1.5-0.84-2.02
		c-0.52-0.52-1.23-0.84-2.02-0.84c-0.79,0-1.51,0.32-2.02,0.84c-0.52,0.52-0.84,1.23-0.84,2.02c0,0.79,0.32,1.51,0.84,2.02
		c0.52,0.52,1.23,0.84,2.02,0.84C584.41,320.37,585.12,320.05,585.64,319.53z M573.28,335.87c0.29-0.28,0.46-0.67,0.46-1.1
		c0-0.43-0.18-0.82-0.46-1.1c-0.28-0.29-0.67-0.46-1.1-0.46c-0.43,0-0.82,0.17-1.1,0.46c-0.29,0.28-0.46,0.67-0.46,1.1
		c0,0.43,0.17,0.82,0.46,1.1c0.28,0.28,0.67,0.45,1.1,0.45C572.61,336.33,573,336.15,573.28,335.87z M332.6,179.1
		c0.32-0.32,0.52-0.77,0.52-1.26s-0.2-0.94-0.52-1.26c-0.32-0.32-0.77-0.52-1.26-0.52c-0.49,0-0.93,0.2-1.26,0.52
		c-0.32,0.32-0.52,0.77-0.52,1.26s0.2,0.94,0.52,1.26c0.32,0.32,0.77,0.52,1.26,0.52C331.83,179.62,332.28,179.42,332.6,179.1z
		 M325.31,198.9c0.58-0.58,0.93-1.38,0.93-2.26s-0.36-1.68-0.93-2.26c-0.58-0.58-1.38-0.93-2.26-0.93c-0.88,0-1.68,0.36-2.26,0.93
		c-0.58,0.57-0.93,1.38-0.93,2.26s0.36,1.68,0.93,2.26c0.58,0.58,1.38,0.93,2.26,0.93C323.94,199.83,324.73,199.47,325.31,198.9z
		 M320.84,219.57c0.79-0.79,1.27-1.87,1.27-3.07c0-1.2-0.49-2.29-1.27-3.07c-0.79-0.79-1.87-1.27-3.07-1.27
		c-1.2,0-2.29,0.49-3.08,1.27c-0.79,0.79-1.27,1.87-1.27,3.07c0,1.2,0.49,2.28,1.27,3.07c0.79,0.79,1.87,1.27,3.08,1.27
		C318.97,220.84,320.05,220.36,320.84,219.57z M319.35,240.68c0.96-0.96,1.56-2.29,1.56-3.76c0-1.47-0.6-2.8-1.56-3.76
		c-0.96-0.96-2.29-1.56-3.76-1.56c-1.47,0-2.8,0.6-3.76,1.56c-0.96,0.96-1.56,2.3-1.56,3.76c0,1.47,0.6,2.79,1.56,3.76
		c0.96,0.96,2.29,1.56,3.76,1.56C317.06,242.24,318.39,241.64,319.35,240.68z M320.86,261.75c1.1-1.1,1.78-2.63,1.78-4.31
		c0-1.68-0.68-3.2-1.78-4.31c-1.1-1.1-2.63-1.78-4.31-1.78c-1.68,0-3.2,0.68-4.31,1.78c-1.1,1.1-1.78,2.62-1.78,4.31
		c0,1.68,0.68,3.2,1.78,4.31c1.1,1.1,2.62,1.78,4.31,1.78C318.23,263.53,319.76,262.85,320.86,261.75z M325.36,282.32
		c1.21-1.21,1.96-2.89,1.96-4.74c0-1.85-0.75-3.53-1.96-4.74c-1.22-1.21-2.89-1.96-4.74-1.96c-1.85,0-3.53,0.75-4.74,1.96
		c-1.21,1.21-1.96,2.89-1.96,4.74c0,1.85,0.75,3.53,1.96,4.74c1.21,1.21,2.89,1.96,4.74,1.96
		C322.47,284.28,324.14,283.53,325.36,282.32z M332.77,301.94c1.3-1.3,2.1-3.09,2.1-5.07c0-1.98-0.8-3.77-2.1-5.07
		c-1.3-1.3-3.09-2.1-5.07-2.1c-1.98,0-3.77,0.8-5.07,2.1c-1.3,1.3-2.1,3.09-2.1,5.07c0,1.98,0.8,3.77,2.1,5.07
		c1.3,1.3,3.09,2.1,5.07,2.1C329.68,304.03,331.47,303.24,332.77,301.94z M342.95,320.14c1.36-1.36,2.19-3.23,2.19-5.3
		c0-2.07-0.84-3.94-2.19-5.3c-1.36-1.36-3.23-2.19-5.3-2.19c-2.07,0-3.94,0.84-5.3,2.19c-1.36,1.36-2.19,3.23-2.19,5.3
		c0,2.07,0.84,3.94,2.19,5.3c1.36,1.36,3.23,2.19,5.3,2.19C339.72,322.34,341.6,321.5,342.95,320.14z M355.7,336.51
		c1.39-1.39,2.25-3.32,2.25-5.44c0-2.12-0.86-4.05-2.25-5.44s-3.32-2.25-5.44-2.25c-2.13,0-4.05,0.86-5.44,2.25
		s-2.25,3.32-2.25,5.44c0,2.13,0.86,4.05,2.25,5.44c1.39,1.39,3.32,2.25,5.44,2.25C352.39,338.76,354.31,337.89,355.7,336.51z
		 M370.71,350.65c1.41-1.41,2.27-3.35,2.27-5.49c0-2.15-0.87-4.09-2.27-5.49c-1.4-1.4-3.35-2.27-5.49-2.27
		c-2.14,0-4.09,0.87-5.49,2.27c-1.41,1.41-2.28,3.35-2.28,5.49c0,2.14,0.87,4.09,2.28,5.49c1.4,1.4,3.35,2.27,5.49,2.27
		C367.36,352.92,369.3,352.05,370.71,350.65z M387.59,362.25c1.39-1.4,2.25-3.32,2.25-5.45c0-2.13-0.86-4.05-2.25-5.44
		s-3.32-2.26-5.45-2.26c-2.12,0-4.05,0.86-5.44,2.26c-1.4,1.39-2.26,3.32-2.26,5.44c0,2.13,0.86,4.05,2.26,5.45
		c1.39,1.39,3.32,2.25,5.44,2.25C384.27,364.5,386.19,363.64,387.59,362.25z M405.96,371.03c1.36-1.36,2.2-3.23,2.2-5.31
		c0-2.08-0.84-3.95-2.2-5.31c-1.36-1.36-3.23-2.2-5.31-2.2c-2.07,0-3.94,0.84-5.31,2.2c-1.36,1.36-2.2,3.23-2.2,5.31
		c0,2.07,0.84,3.95,2.2,5.31c1.36,1.36,3.23,2.2,5.31,2.2C402.72,373.23,404.6,372.39,405.96,371.03z M425.39,376.76
		c1.3-1.3,2.1-3.1,2.1-5.08c0-1.99-0.8-3.78-2.1-5.08c-1.3-1.3-3.1-2.1-5.08-2.1s-3.78,0.8-5.08,2.1c-1.3,1.3-2.1,3.1-2.1,5.08
		c0,1.99,0.8,3.78,2.1,5.08c1.3,1.3,3.1,2.1,5.08,2.1S424.09,378.06,425.39,376.76z M445.41,379.3c1.21-1.22,1.97-2.89,1.97-4.75
		c0-1.86-0.75-3.54-1.97-4.75c-1.22-1.22-2.9-1.97-4.75-1.97c-1.86,0-3.54,0.75-4.75,1.97s-1.97,2.9-1.97,4.75
		c0,1.86,0.75,3.54,1.97,4.75s2.89,1.97,4.75,1.97C442.51,381.27,444.19,380.51,445.41,379.3z M465.51,378.59
		c1.11-1.1,1.79-2.63,1.79-4.32c0-1.69-0.68-3.22-1.79-4.32c-1.1-1.1-2.63-1.79-4.32-1.79c-1.69,0-3.22,0.69-4.32,1.79
		c-1.11,1.1-1.79,2.63-1.79,4.32c0,1.69,0.68,3.22,1.79,4.32c1.1,1.1,2.63,1.79,4.32,1.79
		C462.88,380.38,464.41,379.69,465.51,378.59z M485.23,374.65c0.96-0.96,1.56-2.3,1.56-3.78c0-1.47-0.6-2.81-1.56-3.77
		c-0.97-0.97-2.3-1.56-3.77-1.56c-1.48,0-2.81,0.6-3.78,1.56c-0.96,0.96-1.56,2.3-1.56,3.77c0,1.48,0.6,2.81,1.56,3.78
		c0.97,0.97,2.3,1.56,3.78,1.56C482.94,376.21,484.27,375.62,485.23,374.65z M504.06,367.53c0.79-0.79,1.28-1.88,1.28-3.09
		c0-1.21-0.49-2.3-1.28-3.09s-1.88-1.28-3.09-1.28c-1.2,0-2.3,0.49-3.09,1.28s-1.28,1.88-1.28,3.09c0,1.21,0.49,2.3,1.28,3.09
		c0.79,0.79,1.88,1.28,3.09,1.28C502.18,368.81,503.27,368.32,504.06,367.53z M521.54,357.37c0.58-0.58,0.94-1.38,0.94-2.27
		c0-0.88-0.36-1.69-0.94-2.27c-0.58-0.58-1.38-0.94-2.27-0.94c-0.89,0-1.69,0.36-2.27,0.94c-0.58,0.58-0.94,1.38-0.94,2.27
		c0,0.89,0.36,1.69,0.94,2.27c0.58,0.58,1.38,0.94,2.27,0.94C520.16,358.31,520.96,357.95,521.54,357.37z M537.18,344.32
		c0.32-0.32,0.52-0.77,0.52-1.27s-0.2-0.94-0.52-1.26c-0.32-0.33-0.77-0.53-1.27-0.53s-0.94,0.2-1.26,0.53
		c-0.33,0.32-0.53,0.77-0.53,1.26s0.2,0.94,0.53,1.27c0.32,0.32,0.77,0.52,1.26,0.52S536.85,344.65,537.18,344.32z M363.91,140.32
		c0.32-0.32,0.52-0.77,0.52-1.26c0-0.49-0.2-0.94-0.52-1.26c-0.32-0.32-0.77-0.52-1.26-0.52c-0.49,0-0.94,0.2-1.26,0.52
		c-0.32,0.32-0.52,0.77-0.52,1.26c0,0.49,0.2,0.93,0.52,1.26c0.32,0.32,0.77,0.52,1.26,0.52
		C363.14,140.84,363.59,140.65,363.91,140.32z M381.55,129.27c0.58-0.58,0.93-1.37,0.93-2.26c0-0.88-0.36-1.68-0.93-2.26
		c-0.58-0.58-1.38-0.93-2.26-0.93c-0.88,0-1.68,0.36-2.26,0.93c-0.58,0.58-0.93,1.38-0.93,2.26c0,0.88,0.36,1.68,0.93,2.26
		c0.58,0.58,1.38,0.94,2.26,0.94C380.18,130.21,380.97,129.85,381.55,129.27z M400.66,120.74c0.78-0.78,1.27-1.87,1.27-3.07
		c0-1.2-0.49-2.28-1.27-3.07c-0.79-0.79-1.88-1.27-3.07-1.27s-2.29,0.49-3.07,1.27c-0.79,0.79-1.27,1.87-1.27,3.07
		c0,1.2,0.48,2.29,1.27,3.07c0.79,0.79,1.88,1.27,3.07,1.27S399.88,121.53,400.66,120.74z M420.86,115c0.96-0.96,1.56-2.3,1.56-3.76
		c0-1.47-0.6-2.8-1.56-3.76c-0.96-0.96-2.29-1.56-3.76-1.56c-1.47,0-2.8,0.59-3.76,1.56c-0.96,0.96-1.56,2.29-1.56,3.76
		c0,1.47,0.6,2.8,1.56,3.76c0.96,0.96,2.29,1.56,3.76,1.56C418.57,116.55,419.9,115.96,420.86,115z M441.67,112.15
		c1.1-1.1,1.78-2.62,1.78-4.31c0-1.68-0.68-3.2-1.78-4.3c-1.1-1.1-2.62-1.78-4.3-1.78c-1.68,0-3.2,0.68-4.31,1.78
		c-1.1,1.1-1.78,2.62-1.78,4.3c0,1.68,0.68,3.2,1.78,4.31c1.1,1.1,2.62,1.78,4.31,1.78C439.04,113.93,440.57,113.25,441.67,112.15z
		 M462.65,112.31c1.21-1.21,1.96-2.89,1.96-4.74c0-1.85-0.75-3.53-1.96-4.74c-1.21-1.21-2.89-1.96-4.74-1.96
		c-1.85,0-3.53,0.75-4.74,1.96c-1.21,1.21-1.96,2.89-1.96,4.74c0,1.85,0.75,3.53,1.96,4.74c1.21,1.21,2.89,1.96,4.74,1.96
		C459.76,114.27,461.44,113.52,462.65,112.31z M483.32,115.5c1.3-1.3,2.1-3.09,2.1-5.07c0-1.98-0.8-3.77-2.1-5.07
		c-1.3-1.3-3.09-2.1-5.07-2.1c-1.98,0-3.77,0.8-5.07,2.1c-1.3,1.3-2.1,3.09-2.1,5.07c0,1.98,0.8,3.77,2.1,5.07
		c1.3,1.3,3.09,2.1,5.07,2.1C480.23,117.59,482.03,116.79,483.32,115.5z M503.22,121.68c1.35-1.35,2.19-3.23,2.19-5.3
		c0-2.07-0.84-3.94-2.19-5.3c-1.36-1.36-3.23-2.2-5.3-2.2c-2.07,0-3.94,0.84-5.3,2.2c-1.35,1.35-2.19,3.23-2.19,5.3
		c0,2.07,0.84,3.94,2.19,5.3c1.36,1.36,3.23,2.2,5.3,2.2C499.99,123.88,501.86,123.04,503.22,121.68z M521.87,130.74
		c1.39-1.39,2.25-3.31,2.25-5.44s-0.86-4.05-2.25-5.44c-1.39-1.39-3.32-2.26-5.44-2.26c-2.13,0-4.05,0.86-5.44,2.26
		c-1.39,1.39-2.25,3.31-2.25,5.44s0.86,4.05,2.25,5.44c1.39,1.39,3.32,2.26,5.44,2.26C518.55,132.99,520.47,132.13,521.87,130.74z
		 M538.85,142.44c1.4-1.41,2.27-3.35,2.27-5.49s-0.87-4.09-2.27-5.49c-1.41-1.4-3.35-2.27-5.49-2.27c-2.14,0-4.09,0.87-5.49,2.27
		c-1.41,1.4-2.27,3.35-2.27,5.49s0.87,4.09,2.27,5.49c1.4,1.4,3.35,2.27,5.49,2.27C535.5,144.72,537.44,143.85,538.85,142.44z
		 M553.75,156.48c1.39-1.39,2.25-3.32,2.25-5.44s-0.86-4.05-2.25-5.44c-1.4-1.39-3.32-2.26-5.45-2.26c-2.12,0-4.05,0.86-5.44,2.26
		s-2.25,3.32-2.25,5.44s0.86,4.05,2.25,5.44s3.32,2.26,5.44,2.26C550.44,158.73,552.36,157.87,553.75,156.48z M566.23,172.56
		c1.36-1.36,2.2-3.23,2.2-5.31c0-2.07-0.84-3.95-2.2-5.31c-1.36-1.36-3.23-2.2-5.31-2.2c-2.08,0-3.95,0.84-5.31,2.2
		c-1.36,1.36-2.2,3.24-2.2,5.31c0,2.07,0.84,3.95,2.2,5.31c1.36,1.36,3.23,2.2,5.31,2.2C562.99,174.76,564.87,173.92,566.23,172.56z
		 M575.96,190.31c1.3-1.3,2.1-3.1,2.1-5.08c0-1.98-0.8-3.78-2.1-5.08c-1.3-1.3-3.1-2.1-5.08-2.1c-1.99,0-3.78,0.8-5.08,2.1
		c-1.3,1.3-2.1,3.1-2.1,5.08c0,1.99,0.8,3.78,2.1,5.08c1.3,1.3,3.1,2.1,5.08,2.1C572.86,192.41,574.65,191.61,575.96,190.31z
		 M582.71,209.26c1.22-1.22,1.97-2.9,1.97-4.75c0-1.86-0.75-3.54-1.97-4.75c-1.22-1.22-2.89-1.97-4.75-1.97
		c-1.86,0-3.53,0.75-4.75,1.97c-1.22,1.22-1.97,2.89-1.97,4.75c0,1.86,0.75,3.53,1.97,4.75c1.22,1.22,2.89,1.97,4.75,1.97
		C579.82,211.23,581.49,210.48,582.71,209.26z M586.35,228.97c1.1-1.1,1.79-2.63,1.79-4.32c0-1.69-0.68-3.21-1.79-4.32
		c-1.11-1.11-2.63-1.79-4.32-1.79c-1.69,0-3.22,0.68-4.32,1.79c-1.11,1.1-1.79,2.63-1.79,4.32c0,1.69,0.68,3.22,1.79,4.32
		c1.1,1.11,2.63,1.79,4.32,1.79C583.71,230.76,585.24,230.08,586.35,228.97z M586.76,248.95c0.97-0.97,1.56-2.3,1.56-3.78
		c0-1.47-0.6-2.81-1.56-3.78c-0.96-0.96-2.3-1.56-3.78-1.56c-1.47,0-2.81,0.6-3.77,1.56c-0.97,0.97-1.57,2.3-1.57,3.78
		c0,1.47,0.6,2.81,1.57,3.78c0.96,0.96,2.3,1.56,3.77,1.56C584.46,250.51,585.8,249.91,586.76,248.95z M583.9,268.69
		c0.79-0.79,1.28-1.88,1.28-3.09c0-1.21-0.49-2.3-1.28-3.09s-1.88-1.28-3.09-1.28c-1.21,0-2.3,0.49-3.09,1.28
		c-0.79,0.79-1.28,1.88-1.28,3.09c0,1.21,0.49,2.3,1.28,3.09c0.79,0.79,1.88,1.28,3.09,1.28
		C582.02,269.97,583.11,269.48,583.9,268.69z M577.79,287.72c0.58-0.58,0.94-1.38,0.94-2.27c0-0.88-0.36-1.69-0.94-2.27
		c-0.58-0.58-1.38-0.94-2.27-0.94c-0.88,0-1.69,0.36-2.27,0.94c-0.58,0.58-0.94,1.38-0.94,2.27c0,0.89,0.36,1.69,0.94,2.27
		c0.58,0.58,1.38,0.94,2.27,0.94C576.42,288.66,577.22,288.3,577.79,287.72z M568.51,305.52c0.32-0.32,0.52-0.77,0.52-1.26
		s-0.2-0.94-0.52-1.27s-0.77-0.52-1.27-0.52s-0.94,0.2-1.27,0.52s-0.52,0.77-0.52,1.27s0.2,0.94,0.52,1.26
		c0.32,0.33,0.77,0.53,1.27,0.53S568.19,305.85,568.51,305.52z M343.59,206.28c0.37-0.37,0.6-0.88,0.6-1.45
		c0-0.56-0.23-1.08-0.6-1.45c-0.37-0.37-0.88-0.6-1.45-0.6c-0.57,0-1.08,0.23-1.45,0.6c-0.37,0.37-0.6,0.88-0.6,1.45
		c0,0.56,0.23,1.08,0.6,1.45c0.37,0.37,0.88,0.6,1.45,0.6C342.71,206.88,343.22,206.65,343.59,206.28z M339.96,227.17
		c0.66-0.65,1.06-1.56,1.06-2.56c0-1-0.4-1.91-1.06-2.56c-0.65-0.65-1.56-1.06-2.56-1.06s-1.91,0.41-2.56,1.06
		c-0.66,0.65-1.06,1.56-1.06,2.56c0,1,0.4,1.91,1.06,2.56c0.65,0.66,1.56,1.06,2.56,1.06S339.3,227.83,339.96,227.17z
		 M339.74,248.37c0.88-0.88,1.43-2.1,1.43-3.45c0-1.35-0.55-2.57-1.43-3.45c-0.88-0.88-2.1-1.43-3.45-1.43
		c-1.35,0-2.57,0.54-3.45,1.43c-0.88,0.88-1.43,2.1-1.43,3.45c0,1.35,0.54,2.57,1.43,3.45c0.88,0.88,2.1,1.43,3.45,1.43
		C337.64,249.8,338.86,249.25,339.74,248.37z M343,269.26c1.06-1.06,1.72-2.53,1.72-4.15c0-1.62-0.66-3.1-1.72-4.16
		s-2.53-1.72-4.16-1.72s-3.09,0.65-4.16,1.72s-1.72,2.54-1.72,4.16c0,1.62,0.66,3.09,1.72,4.15c1.06,1.06,2.53,1.73,4.16,1.73
		S341.93,270.32,343,269.26z M349.63,289.2c1.21-1.2,1.95-2.86,1.95-4.7c0-1.83-0.74-3.49-1.95-4.7c-1.2-1.2-2.86-1.95-4.7-1.95
		s-3.49,0.74-4.7,1.95c-1.2,1.2-1.95,2.86-1.95,4.7c0,1.83,0.74,3.5,1.95,4.7c1.2,1.21,2.86,1.95,4.7,1.95
		S348.43,290.41,349.63,289.2z M359.47,307.6c1.3-1.3,2.1-3.1,2.1-5.08c0-1.99-0.8-3.78-2.1-5.09c-1.3-1.3-3.1-2.1-5.09-2.1
		c-1.99,0-3.78,0.8-5.08,2.1c-1.3,1.3-2.11,3.1-2.11,5.09c0,1.99,0.8,3.78,2.11,5.08c1.3,1.3,3.1,2.11,5.08,2.11
		C356.37,309.71,358.16,308.9,359.47,307.6z M372.25,323.88c1.36-1.37,2.21-3.25,2.21-5.34c0-2.09-0.85-3.97-2.21-5.34
		c-1.37-1.36-3.26-2.21-5.34-2.21c-2.09,0-3.97,0.84-5.34,2.21c-1.36,1.37-2.21,3.25-2.21,5.34c0,2.09,0.85,3.97,2.21,5.34
		c1.36,1.36,3.25,2.21,5.34,2.21C368.99,326.09,370.88,325.24,372.25,323.88z M387.58,337.5c1.4-1.4,2.26-3.33,2.26-5.46
		s-0.87-4.06-2.26-5.46c-1.4-1.4-3.33-2.26-5.46-2.26c-2.13,0-4.06,0.87-5.46,2.26c-1.4,1.4-2.26,3.33-2.26,5.46
		s0.86,4.06,2.26,5.46c1.4,1.4,3.33,2.26,5.46,2.26C384.25,339.76,386.18,338.9,387.58,337.5z M404.97,348.06
		c1.4-1.4,2.27-3.33,2.27-5.46s-0.87-4.07-2.27-5.46c-1.4-1.4-3.33-2.26-5.46-2.26s-4.07,0.87-5.46,2.26s-2.26,3.33-2.26,5.46
		s0.87,4.07,2.26,5.46c1.4,1.4,3.33,2.27,5.46,2.27S403.57,349.46,404.97,348.06z M423.84,355.23c1.37-1.37,2.21-3.26,2.21-5.35
		c0-2.09-0.84-3.98-2.21-5.35c-1.37-1.37-3.26-2.22-5.35-2.22c-2.09,0-3.97,0.85-5.34,2.22c-1.37,1.37-2.22,3.26-2.22,5.35
		c0,2.09,0.85,3.98,2.22,5.35c1.37,1.37,3.26,2.21,5.34,2.21C420.58,357.44,422.47,356.6,423.84,355.23z M443.58,358.72
		c1.3-1.3,2.11-3.1,2.11-5.1c0-1.99-0.81-3.79-2.11-5.09c-1.3-1.31-3.1-2.11-5.09-2.11c-1.99,0-3.79,0.8-5.1,2.11
		c-1.3,1.3-2.11,3.1-2.11,5.09c0,1.99,0.8,3.79,2.11,5.1c1.31,1.31,3.11,2.11,5.1,2.11C440.48,360.83,442.28,360.03,443.58,358.72z
		 M463.54,358.42c1.21-1.21,1.95-2.87,1.95-4.71s-0.74-3.5-1.95-4.71s-2.87-1.95-4.71-1.95s-3.5,0.74-4.71,1.95
		c-1.2,1.21-1.95,2.87-1.95,4.71s0.75,3.5,1.95,4.71c1.21,1.21,2.87,1.95,4.71,1.95S462.33,359.62,463.54,358.42z M483.03,354.33
		c1.07-1.07,1.73-2.54,1.73-4.18c0-1.63-0.66-3.1-1.73-4.17c-1.07-1.07-2.54-1.73-4.17-1.73c-1.63,0-3.11,0.66-4.18,1.73
		c-1.07,1.07-1.73,2.54-1.73,4.17c0,1.63,0.66,3.11,1.73,4.18c1.07,1.07,2.54,1.73,4.18,1.73
		C480.48,356.06,481.96,355.4,483.03,354.33z M501.4,346.57c0.88-0.88,1.43-2.11,1.43-3.46c0-1.35-0.55-2.58-1.43-3.46
		c-0.89-0.89-2.11-1.44-3.46-1.44c-1.35,0-2.58,0.55-3.46,1.44c-0.89,0.88-1.44,2.11-1.44,3.46c0,1.35,0.55,2.58,1.44,3.46
		c0.89,0.89,2.11,1.44,3.46,1.44C499.28,348,500.51,347.46,501.4,346.57z M518.02,335.34c0.66-0.66,1.06-1.57,1.06-2.57
		c0-1-0.41-1.91-1.06-2.57c-0.66-0.66-1.57-1.06-2.57-1.06c-1,0-1.91,0.41-2.57,1.06c-0.66,0.66-1.06,1.57-1.06,2.57
		c0,1,0.41,1.91,1.06,2.57c0.66,0.66,1.57,1.07,2.57,1.07C516.45,336.4,517.36,336,518.02,335.34z M532.27,320.9
		c0.37-0.37,0.6-0.88,0.6-1.45c0-0.57-0.23-1.08-0.6-1.45c-0.37-0.37-0.88-0.6-1.45-0.6c-0.57,0-1.08,0.23-1.45,0.6
		c-0.37,0.37-0.6,0.89-0.6,1.45c0,0.57,0.23,1.08,0.6,1.45c0.37,0.37,0.89,0.61,1.45,0.61C531.38,321.51,531.9,321.27,532.27,320.9z
		 M369.2,164.11c0.37-0.37,0.6-0.88,0.6-1.44s-0.23-1.08-0.6-1.44c-0.37-0.37-0.88-0.6-1.44-0.6c-0.57,0-1.08,0.23-1.45,0.6
		c-0.37,0.37-0.6,0.88-0.6,1.44s0.23,1.08,0.6,1.44c0.37,0.37,0.88,0.6,1.45,0.6C368.32,164.71,368.83,164.48,369.2,164.11z
		 M385.69,151.9c0.65-0.65,1.06-1.56,1.06-2.56c0-1-0.41-1.9-1.06-2.56s-1.56-1.06-2.56-1.06c-1,0-1.91,0.4-2.56,1.06
		c-0.66,0.66-1.06,1.56-1.06,2.56c0,1,0.4,1.91,1.06,2.56c0.65,0.66,1.56,1.06,2.56,1.06C384.13,152.97,385.03,152.56,385.69,151.9z
		 M404.09,142.46c0.88-0.88,1.43-2.1,1.43-3.45c0-1.35-0.54-2.57-1.43-3.45c-0.88-0.88-2.1-1.43-3.45-1.43
		c-1.35,0-2.57,0.54-3.45,1.43c-0.88,0.88-1.43,2.1-1.43,3.45c0,1.35,0.54,2.56,1.43,3.45c0.88,0.88,2.1,1.43,3.45,1.43
		C401.99,143.89,403.21,143.34,404.09,142.46z M423.88,136.11c1.06-1.06,1.72-2.53,1.72-4.15c0-1.62-0.66-3.1-1.72-4.16
		s-2.53-1.72-4.16-1.72s-3.09,0.65-4.16,1.72s-1.72,2.54-1.72,4.16c0,1.62,0.66,3.09,1.72,4.15c1.06,1.06,2.53,1.73,4.16,1.73
		S422.81,137.18,423.88,136.11z M444.44,133.1c1.2-1.2,1.95-2.87,1.95-4.7c0-1.83-0.74-3.49-1.95-4.7c-1.2-1.2-2.86-1.95-4.7-1.95
		s-3.49,0.74-4.7,1.95s-1.95,2.86-1.95,4.7c0,1.83,0.74,3.5,1.95,4.7s2.86,1.95,4.7,1.95S443.24,134.3,444.44,133.1z M465.17,133.57
		c1.3-1.3,2.11-3.1,2.11-5.08c0-1.99-0.8-3.78-2.11-5.09c-1.3-1.3-3.1-2.11-5.08-2.11s-3.78,0.8-5.09,2.11
		c-1.3,1.3-2.11,3.1-2.11,5.09c0,1.99,0.8,3.78,2.11,5.08c1.3,1.3,3.1,2.1,5.09,2.1S463.87,134.87,465.17,133.57z M485.41,137.56
		c1.36-1.36,2.21-3.25,2.21-5.33c0-2.09-0.84-3.97-2.21-5.34c-1.37-1.37-3.26-2.21-5.34-2.21c-2.08,0-3.97,0.84-5.34,2.21
		c-1.36,1.36-2.21,3.25-2.21,5.34c0,2.08,0.84,3.97,2.21,5.33c1.37,1.37,3.26,2.21,5.34,2.21
		C482.16,139.77,484.05,138.93,485.41,137.56z M504.53,144.97c1.4-1.4,2.26-3.33,2.26-5.46c0-2.13-0.87-4.06-2.26-5.46
		c-1.4-1.39-3.33-2.26-5.46-2.26s-4.06,0.87-5.46,2.26c-1.4,1.4-2.26,3.33-2.26,5.46c0,2.13,0.86,4.06,2.26,5.46
		c1.4,1.4,3.33,2.26,5.46,2.26S503.13,146.37,504.53,144.97z M521.92,155.52c1.4-1.4,2.26-3.33,2.26-5.46
		c0-2.13-0.87-4.06-2.26-5.46c-1.4-1.4-3.33-2.26-5.46-2.26s-4.07,0.87-5.46,2.26c-1.4,1.4-2.27,3.33-2.27,5.46
		c0,2.14,0.87,4.07,2.27,5.46c1.4,1.4,3.33,2.27,5.46,2.27S520.52,156.93,521.92,155.52z M537.02,168.91
		c1.37-1.37,2.21-3.26,2.21-5.35c0-2.09-0.84-3.97-2.21-5.34c-1.37-1.37-3.26-2.22-5.35-2.22s-3.98,0.85-5.35,2.22
		c-1.37,1.37-2.21,3.26-2.21,5.34c0,2.09,0.84,3.98,2.21,5.35c1.37,1.37,3.26,2.21,5.35,2.21S535.65,170.28,537.02,168.91z
		 M549.29,184.69c1.31-1.31,2.11-3.11,2.11-5.1c0-1.99-0.8-3.79-2.11-5.1c-1.3-1.3-3.1-2.11-5.09-2.11c-1.99,0-3.79,0.81-5.1,2.11
		c-1.31,1.31-2.11,3.11-2.11,5.1c0,1.99,0.8,3.79,2.11,5.1c1.3,1.3,3.1,2.11,5.1,2.11C546.19,186.79,547.99,185.99,549.29,184.69z
		 M558.36,202.31c1.21-1.21,1.95-2.87,1.95-4.71s-0.74-3.5-1.95-4.71s-2.87-1.95-4.71-1.95c-1.84,0-3.51,0.75-4.71,1.95
		c-1.21,1.21-1.95,2.87-1.95,4.71s0.75,3.5,1.95,4.71c1.2,1.21,2.87,1.95,4.71,1.95C555.49,204.26,557.15,203.52,558.36,202.31z
		 M563.92,221.18c1.07-1.07,1.73-2.54,1.73-4.18s-0.66-3.1-1.73-4.18c-1.07-1.07-2.55-1.73-4.18-1.73c-1.63,0-3.11,0.66-4.18,1.73
		c-1.07,1.07-1.73,2.54-1.73,4.18s0.66,3.1,1.73,4.18c1.07,1.07,2.54,1.73,4.18,1.73C561.37,222.91,562.85,222.25,563.92,221.18z
		 M565.75,240.65c0.89-0.89,1.44-2.11,1.44-3.46c0-1.35-0.55-2.58-1.44-3.46c-0.89-0.88-2.11-1.43-3.46-1.43
		c-1.35,0-2.58,0.55-3.46,1.43c-0.88,0.89-1.43,2.11-1.43,3.46c0,1.35,0.55,2.58,1.43,3.46c0.89,0.88,2.11,1.43,3.46,1.43
		C563.64,242.08,564.86,241.53,565.75,240.65z M563.75,260.07c0.66-0.66,1.07-1.57,1.07-2.57c0-1-0.41-1.91-1.07-2.57
		c-0.66-0.66-1.57-1.07-2.57-1.07c-1.01,0-1.92,0.41-2.57,1.07c-0.66,0.66-1.07,1.57-1.07,2.57c0,1.01,0.41,1.92,1.07,2.57
		c0.66,0.66,1.57,1.06,2.57,1.06C562.18,261.13,563.09,260.73,563.75,260.07z M557.89,278.73c0.37-0.37,0.6-0.89,0.6-1.45
		c0-0.57-0.23-1.08-0.6-1.45s-0.88-0.6-1.45-0.6c-0.57,0-1.08,0.23-1.45,0.6c-0.37,0.37-0.6,0.89-0.6,1.45
		c0,0.57,0.23,1.08,0.6,1.45c0.37,0.37,0.88,0.6,1.45,0.6C557,279.33,557.51,279.1,557.89,278.73z M359.65,229.01
		c0.44-0.44,0.71-1.04,0.71-1.71c0-0.67-0.27-1.27-0.71-1.71c-0.44-0.44-1.04-0.71-1.71-0.71c-0.66,0-1.27,0.27-1.71,0.71
		c-0.44,0.44-0.71,1.04-0.71,1.71c0,0.67,0.27,1.27,0.71,1.71c0.44,0.44,1.05,0.71,1.71,0.71
		C358.6,229.72,359.21,229.45,359.65,229.01z M360.1,250.29c0.76-0.76,1.23-1.8,1.23-2.96c0-1.16-0.47-2.21-1.23-2.96
		c-0.76-0.76-1.81-1.23-2.97-1.23c-1.15,0-2.21,0.47-2.96,1.23c-0.76,0.76-1.23,1.8-1.23,2.96c0,1.16,0.47,2.21,1.23,2.96
		c0.76,0.76,1.81,1.23,2.96,1.23C358.29,251.52,359.34,251.05,360.1,250.29z M364.61,270.97c1-1,1.62-2.39,1.62-3.92
		c0-1.53-0.62-2.92-1.62-3.92c-1-1-2.39-1.62-3.92-1.62s-2.92,0.62-3.92,1.62c-1,1-1.62,2.39-1.62,3.92c0,1.53,0.62,2.92,1.62,3.92
		c1,1,2.39,1.62,3.92,1.62S363.61,271.98,364.61,270.97z M373.03,290.19c1.18-1.18,1.92-2.83,1.92-4.63c0-1.81-0.74-3.45-1.92-4.63
		c-1.19-1.19-2.83-1.92-4.64-1.92c-1.81,0-3.45,0.74-4.63,1.92c-1.19,1.18-1.92,2.83-1.92,4.63c0,1.81,0.73,3.45,1.92,4.63
		c1.19,1.19,2.82,1.92,4.63,1.92C370.2,292.12,371.84,291.38,373.03,290.19z M384.99,307.09c1.31-1.31,2.11-3.11,2.11-5.11
		c0-2-0.81-3.8-2.11-5.1c-1.31-1.31-3.11-2.12-5.11-2.12c-1.99,0-3.8,0.81-5.1,2.12c-1.31,1.31-2.12,3.11-2.12,5.1
		c0,2,0.81,3.8,2.12,5.11c1.31,1.31,3.11,2.11,5.1,2.11C381.88,309.21,383.68,308.4,384.99,307.09z M400.03,320.93
		c1.38-1.38,2.23-3.28,2.23-5.39c0-2.1-0.85-4.01-2.23-5.39s-3.28-2.23-5.39-2.23s-4.01,0.86-5.39,2.23
		c-1.38,1.38-2.23,3.28-2.23,5.39c0,2.1,0.85,4.01,2.23,5.39c1.38,1.38,3.28,2.23,5.39,2.23S398.65,322.31,400.03,320.93z
		 M417.49,331.06c1.4-1.41,2.27-3.35,2.27-5.49s-0.87-4.09-2.27-5.49c-1.41-1.4-3.35-2.27-5.49-2.27s-4.09,0.87-5.49,2.27
		c-1.4,1.41-2.27,3.35-2.27,5.49s0.87,4.09,2.27,5.49c1.41,1.4,3.35,2.27,5.49,2.27S416.09,332.46,417.49,331.06z M436.51,337.02
		c1.38-1.38,2.23-3.29,2.23-5.4c0-2.11-0.86-4.02-2.23-5.4c-1.39-1.38-3.29-2.23-5.4-2.23c-2.11,0-4.02,0.86-5.4,2.23
		c-1.38,1.38-2.23,3.29-2.23,5.4c0,2.11,0.86,4.02,2.23,5.4c1.38,1.38,3.29,2.23,5.4,2.23
		C433.22,339.26,435.12,338.41,436.51,337.02z M456.19,338.53c1.31-1.31,2.12-3.12,2.12-5.12c0-2-0.81-3.81-2.12-5.12
		s-3.12-2.12-5.12-2.12s-3.81,0.81-5.12,2.12s-2.12,3.12-2.12,5.12c0,2,0.81,3.81,2.12,5.12s3.12,2.12,5.12,2.12
		S454.88,339.84,456.19,338.53z M475.6,335.47c1.19-1.19,1.93-2.83,1.93-4.65s-0.74-3.46-1.93-4.65s-2.83-1.92-4.65-1.92
		s-3.46,0.73-4.65,1.92c-1.19,1.19-1.93,2.83-1.93,4.65s0.74,3.46,1.93,4.65c1.19,1.19,2.83,1.93,4.65,1.93
		S474.41,336.66,475.6,335.47z M493.74,327.95c1.01-1.01,1.63-2.4,1.63-3.94c0-1.54-0.62-2.93-1.63-3.93
		c-1.01-1.01-2.4-1.63-3.94-1.63c-1.54,0-2.93,0.62-3.94,1.63c-1.01,1.01-1.63,2.4-1.63,3.93c0,1.54,0.62,2.93,1.63,3.94
		c1.01,1.01,2.4,1.63,3.94,1.63C491.34,329.59,492.73,328.96,493.74,327.95z M509.74,316.32c0.76-0.76,1.23-1.82,1.23-2.98
		c0-1.16-0.47-2.22-1.23-2.98c-0.76-0.76-1.82-1.23-2.98-1.23c-1.16,0-2.22,0.47-2.98,1.23c-0.76,0.77-1.23,1.82-1.23,2.98
		c0,1.16,0.47,2.22,1.23,2.98c0.76,0.76,1.82,1.23,2.98,1.23C507.93,317.55,508.98,317.08,509.74,316.32z M522.75,300.98
		c0.44-0.44,0.71-1.05,0.71-1.72c0-0.67-0.27-1.28-0.71-1.72c-0.44-0.44-1.05-0.71-1.72-0.71c-0.67,0-1.28,0.27-1.72,0.71
		s-0.71,1.05-0.71,1.72c0,0.67,0.27,1.28,0.71,1.72c0.44,0.44,1.05,0.71,1.72,0.71C521.7,301.69,522.3,301.42,522.75,300.98z
		 M379.26,184.56c0.44-0.44,0.71-1.04,0.71-1.71s-0.27-1.27-0.71-1.71s-1.04-0.71-1.71-0.71c-0.67,0-1.27,0.27-1.71,0.71
		c-0.44,0.44-0.71,1.04-0.71,1.71s0.27,1.27,0.71,1.71c0.44,0.44,1.04,0.71,1.71,0.71C378.22,185.26,378.83,184.99,379.26,184.56z
		 M394.78,171.73c0.76-0.76,1.23-1.81,1.23-2.97s-0.47-2.21-1.23-2.96c-0.76-0.76-1.81-1.23-2.96-1.23c-1.16,0-2.21,0.47-2.97,1.23
		c-0.76,0.76-1.23,1.8-1.23,2.96s0.47,2.21,1.23,2.97c0.76,0.76,1.81,1.23,2.97,1.23C392.97,172.96,394.02,172.49,394.78,171.73z
		 M412.7,162.01c1-1,1.62-2.39,1.62-3.92s-0.62-2.92-1.62-3.92c-1-1-2.39-1.62-3.92-1.62c-1.53,0-2.92,0.62-3.92,1.62
		c-1,1-1.62,2.39-1.62,3.92s0.62,2.92,1.62,3.92c1,1,2.39,1.62,3.92,1.62C410.31,163.63,411.7,163.01,412.7,162.01z M432.27,155.92
		c1.19-1.18,1.92-2.82,1.92-4.63c0-1.81-0.74-3.45-1.92-4.64c-1.18-1.18-2.83-1.92-4.63-1.92c-1.81,0-3.45,0.73-4.63,1.92
		c-1.19,1.19-1.92,2.83-1.92,4.64c0,1.81,0.73,3.45,1.92,4.63c1.18,1.19,2.82,1.92,4.63,1.92
		C429.44,157.84,431.09,157.11,432.27,155.92z M452.62,153.8c1.31-1.31,2.11-3.11,2.11-5.11c0-1.99-0.81-3.8-2.11-5.1
		s-3.11-2.11-5.11-2.11s-3.8,0.81-5.11,2.11s-2.11,3.11-2.11,5.1c0,2,0.81,3.8,2.11,5.11c1.31,1.31,3.11,2.11,5.11,2.11
		S451.31,155.11,452.62,153.8z M472.86,155.87c1.38-1.38,2.23-3.28,2.23-5.39c0-2.1-0.85-4.01-2.23-5.39s-3.28-2.23-5.39-2.23
		c-2.1,0-4.01,0.85-5.39,2.23s-2.23,3.29-2.23,5.39c0,2.11,0.86,4.01,2.23,5.39c1.38,1.38,3.28,2.23,5.39,2.23
		C469.58,158.1,471.48,157.25,472.86,155.87z M492.07,162.04c1.4-1.41,2.27-3.35,2.27-5.49s-0.87-4.09-2.27-5.49
		c-1.41-1.41-3.35-2.27-5.49-2.27s-4.09,0.87-5.49,2.27c-1.4,1.4-2.27,3.35-2.27,5.49s0.87,4.09,2.27,5.49
		c1.41,1.4,3.35,2.27,5.49,2.27S490.66,163.44,492.07,162.04z M509.33,171.96c1.38-1.38,2.24-3.29,2.24-5.4
		c0-2.11-0.86-4.01-2.24-5.4c-1.38-1.38-3.29-2.23-5.4-2.23c-2.11,0-4.02,0.85-5.4,2.23c-1.39,1.38-2.24,3.29-2.24,5.4
		c0,2.11,0.85,4.02,2.24,5.4c1.38,1.38,3.29,2.24,5.4,2.24C506.04,174.2,507.95,173.35,509.33,171.96z M523.82,185.24
		c1.31-1.31,2.12-3.11,2.12-5.11s-0.81-3.81-2.12-5.12c-1.31-1.31-3.12-2.12-5.12-2.12s-3.81,0.81-5.12,2.12
		c-1.31,1.31-2.12,3.12-2.12,5.12s0.81,3.81,2.12,5.11c1.31,1.31,3.12,2.12,5.12,2.12S522.51,186.55,523.82,185.24z M534.83,201.2
		c1.19-1.19,1.92-2.83,1.92-4.65s-0.73-3.46-1.92-4.65c-1.19-1.19-2.83-1.93-4.65-1.93c-1.82,0-3.46,0.74-4.65,1.93
		c-1.19,1.19-1.93,2.83-1.93,4.65s0.74,3.46,1.93,4.65c1.19,1.19,2.83,1.92,4.65,1.92C532,203.12,533.64,202.39,534.83,201.2z
		 M541.83,218.99c1.01-1.01,1.63-2.4,1.63-3.94c0-1.54-0.62-2.93-1.63-3.94c-1.01-1.01-2.4-1.63-3.94-1.63
		c-1.54,0-2.93,0.62-3.94,1.63c-1.01,1.01-1.63,2.4-1.63,3.94c0,1.54,0.62,2.93,1.63,3.94c1.01,1.01,2.4,1.63,3.94,1.63
		C539.43,220.62,540.82,220,541.83,218.99z M544.42,237.76c0.76-0.76,1.23-1.82,1.23-2.98c0-1.16-0.47-2.22-1.23-2.98
		c-0.76-0.76-1.82-1.23-2.98-1.23c-1.16,0-2.22,0.47-2.98,1.23c-0.76,0.77-1.23,1.82-1.23,2.98c0,1.16,0.47,2.22,1.23,2.98
		c0.76,0.76,1.82,1.23,2.98,1.23C542.61,238.99,543.66,238.52,544.42,237.76z M542.36,256.53c0.44-0.44,0.71-1.05,0.71-1.72
		s-0.27-1.28-0.71-1.72c-0.44-0.44-1.05-0.71-1.72-0.71c-0.67,0-1.28,0.27-1.72,0.71c-0.44,0.44-0.71,1.05-0.71,1.72
		s0.27,1.28,0.71,1.72c0.44,0.44,1.05,0.71,1.72,0.71C541.31,257.24,541.92,256.97,542.36,256.53z M380.09,248.7
		c0.58-0.58,0.93-1.38,0.93-2.26s-0.36-1.68-0.93-2.26c-0.58-0.58-1.38-0.94-2.26-0.94c-0.88,0-1.68,0.36-2.26,0.94
		c-0.58,0.58-0.93,1.38-0.93,2.26s0.36,1.68,0.93,2.26c0.58,0.58,1.38,0.93,2.26,0.93C378.71,249.63,379.51,249.28,380.09,248.7z
		 M386.45,271.17c0.96-0.96,1.56-2.29,1.56-3.76c0-1.47-0.6-2.8-1.56-3.76c-0.96-0.96-2.29-1.56-3.76-1.56
		c-1.47,0-2.8,0.6-3.76,1.56c-0.96,0.96-1.56,2.29-1.56,3.76c0,1.47,0.59,2.8,1.56,3.76c0.96,0.96,2.29,1.56,3.76,1.56
		C384.16,272.73,385.48,272.14,386.45,271.17z M398.27,290.75c1.21-1.21,1.96-2.89,1.96-4.74c0-1.85-0.75-3.53-1.96-4.74
		c-1.21-1.21-2.89-1.96-4.74-1.96c-1.85,0-3.53,0.75-4.74,1.96c-1.21,1.21-1.96,2.89-1.96,4.74c0,1.85,0.75,3.53,1.96,4.74
		c1.21,1.21,2.89,1.96,4.74,1.96C395.38,292.71,397.06,291.96,398.27,290.75z M414.69,305.87c1.36-1.36,2.19-3.23,2.19-5.3
		c0-2.07-0.84-3.94-2.19-5.3c-1.36-1.36-3.23-2.19-5.3-2.19c-2.07,0-3.94,0.84-5.3,2.19c-1.36,1.36-2.2,3.23-2.2,5.3
		c0,2.07,0.84,3.94,2.2,5.3c1.35,1.36,3.23,2.19,5.3,2.19C411.46,308.07,413.33,307.23,414.69,305.87z M434.35,315.23
		c1.41-1.4,2.28-3.35,2.28-5.49c0-2.15-0.87-4.09-2.28-5.49c-1.4-1.41-3.35-2.28-5.49-2.28c-2.15,0-4.09,0.87-5.49,2.28
		c-1.4,1.4-2.28,3.35-2.28,5.49c0,2.14,0.87,4.09,2.28,5.49c1.4,1.41,3.35,2.27,5.49,2.27C431.01,317.5,432.95,316.63,434.35,315.23
		z M455.49,318.02c1.36-1.36,2.2-3.24,2.2-5.31c0-2.08-0.84-3.95-2.2-5.31c-1.36-1.36-3.24-2.2-5.31-2.2c-2.08,0-3.95,0.84-5.31,2.2
		c-1.36,1.36-2.2,3.23-2.2,5.31c0,2.07,0.84,3.95,2.2,5.31c1.36,1.36,3.23,2.2,5.31,2.2C452.25,320.22,454.13,319.38,455.49,318.02z
		 M476.17,313.94c1.22-1.22,1.97-2.9,1.97-4.75s-0.75-3.54-1.97-4.75s-2.89-1.97-4.75-1.97c-1.86,0-3.54,0.75-4.75,1.97
		s-1.97,2.9-1.97,4.75s0.75,3.54,1.97,4.75s2.9,1.97,4.75,1.97C473.28,315.91,474.96,315.16,476.17,313.94z M494.43,303.3
		c0.97-0.96,1.56-2.3,1.56-3.77c0-1.48-0.6-2.81-1.56-3.78c-0.97-0.97-2.3-1.56-3.78-1.56c-1.47,0-2.81,0.6-3.78,1.56
		c-0.96,0.96-1.56,2.3-1.56,3.78c0,1.47,0.6,2.81,1.56,3.77c0.97,0.97,2.3,1.57,3.78,1.57C492.12,304.86,493.46,304.26,494.43,303.3
		z M508.44,286.88c0.58-0.58,0.94-1.38,0.94-2.27c0-0.89-0.36-1.69-0.94-2.27c-0.58-0.58-1.38-0.94-2.27-0.94
		c-0.89,0-1.69,0.36-2.27,0.94c-0.58,0.58-0.94,1.38-0.94,2.27c0,0.88,0.36,1.69,0.94,2.27c0.58,0.58,1.38,0.94,2.27,0.94
		C507.06,287.82,507.86,287.46,508.44,286.88z M394.67,199.74c0.58-0.58,0.93-1.38,0.93-2.26c0-0.88-0.36-1.68-0.93-2.26
		c-0.58-0.58-1.38-0.93-2.26-0.93c-0.88,0-1.68,0.36-2.26,0.93c-0.58,0.58-0.93,1.38-0.93,2.26c0,0.88,0.35,1.68,0.93,2.26
		c0.58,0.58,1.37,0.93,2.26,0.93C393.29,200.68,394.09,200.32,394.67,199.74z M411.7,186.34c0.96-0.96,1.56-2.3,1.56-3.76
		c0-1.47-0.6-2.8-1.56-3.76c-0.96-0.96-2.29-1.56-3.76-1.56c-1.47,0-2.8,0.59-3.76,1.56c-0.96,0.96-1.56,2.29-1.56,3.76
		c0,1.47,0.6,2.8,1.56,3.76c0.96,0.96,2.29,1.56,3.76,1.56C409.41,187.9,410.74,187.3,411.7,186.34z M431.92,177.66
		c1.21-1.21,1.96-2.89,1.96-4.74c0-1.85-0.75-3.53-1.96-4.74c-1.21-1.22-2.89-1.96-4.74-1.96c-1.85,0-3.53,0.75-4.74,1.96
		c-1.21,1.21-1.96,2.89-1.96,4.74c0,1.85,0.75,3.53,1.96,4.74c1.21,1.21,2.89,1.96,4.74,1.96
		C429.03,179.62,430.7,178.87,431.92,177.66z M453.72,174.7c1.36-1.36,2.19-3.23,2.19-5.3c0-2.07-0.84-3.94-2.19-5.3
		c-1.36-1.36-3.23-2.19-5.3-2.19c-2.07,0-3.94,0.84-5.3,2.19c-1.36,1.35-2.19,3.23-2.19,5.3c0,2.07,0.84,3.94,2.19,5.3
		c1.35,1.36,3.23,2.19,5.3,2.19C450.49,176.89,452.36,176.06,453.72,174.7z M475.23,177.87c1.4-1.41,2.28-3.35,2.28-5.49
		s-0.87-4.09-2.28-5.49c-1.41-1.41-3.35-2.27-5.49-2.27c-2.14,0-4.09,0.87-5.49,2.27c-1.41,1.4-2.28,3.35-2.28,5.49
		s0.87,4.09,2.28,5.49c1.4,1.4,3.35,2.27,5.49,2.27C471.88,180.15,473.82,179.28,475.23,177.87z M494.52,186.86
		c1.36-1.36,2.2-3.23,2.2-5.31c0-2.07-0.84-3.95-2.2-5.31c-1.36-1.36-3.23-2.19-5.31-2.19c-2.08,0-3.95,0.84-5.31,2.19
		c-1.36,1.36-2.19,3.24-2.19,5.31c0,2.08,0.84,3.95,2.19,5.31c1.36,1.36,3.24,2.2,5.31,2.2
		C491.28,189.05,493.16,188.22,494.52,186.86z M509.81,200.86c1.22-1.22,1.97-2.9,1.97-4.75c0-1.86-0.75-3.54-1.97-4.75
		c-1.22-1.21-2.9-1.97-4.75-1.97s-3.54,0.75-4.75,1.97c-1.22,1.22-1.97,2.9-1.97,4.75c0,1.86,0.75,3.54,1.97,4.75
		s2.9,1.97,4.75,1.97S508.6,202.08,509.81,200.86z M519.67,218.48c0.97-0.96,1.56-2.3,1.56-3.77c0-1.48-0.6-2.81-1.56-3.78
		c-0.96-0.97-2.3-1.56-3.77-1.56c-1.48,0-2.81,0.6-3.78,1.56c-0.97,0.97-1.56,2.3-1.56,3.78c0,1.47,0.6,2.81,1.56,3.77
		c0.96,0.97,2.3,1.57,3.78,1.57C517.37,220.05,518.71,219.45,519.67,218.48z M523.01,237.95c0.58-0.58,0.94-1.38,0.94-2.27
		c0-0.89-0.36-1.69-0.94-2.27c-0.58-0.58-1.38-0.94-2.27-0.94c-0.88,0-1.69,0.36-2.27,0.94c-0.58,0.58-0.94,1.38-0.94,2.27
		c0,0.88,0.36,1.69,0.94,2.27c0.58,0.58,1.39,0.94,2.27,0.94C521.63,238.89,522.43,238.53,523.01,237.95z M404.19,260.86
		c0.76-0.76,1.23-1.81,1.23-2.97c0-1.16-0.47-2.21-1.23-2.97c-0.76-0.76-1.8-1.23-2.96-1.23s-2.21,0.47-2.97,1.23
		c-0.76,0.76-1.23,1.81-1.23,2.97c0,1.16,0.47,2.21,1.23,2.97c0.76,0.76,1.81,1.23,2.97,1.23S403.43,261.62,404.19,260.86z
		 M417.04,280.78c1.19-1.19,1.92-2.83,1.92-4.64c0-1.81-0.73-3.45-1.92-4.63c-1.18-1.19-2.82-1.92-4.63-1.92s-3.45,0.73-4.64,1.92
		c-1.18,1.18-1.92,2.83-1.92,4.63c0,1.81,0.73,3.45,1.92,4.64c1.19,1.19,2.83,1.92,4.64,1.92S415.86,281.97,417.04,280.78z
		 M435.47,293.62c1.38-1.38,2.23-3.29,2.23-5.4c0-2.11-0.85-4.02-2.23-5.4c-1.38-1.38-3.29-2.23-5.4-2.23s-4.02,0.86-5.4,2.23
		c-1.38,1.38-2.24,3.29-2.24,5.4c0,2.11,0.86,4.01,2.24,5.4c1.38,1.38,3.29,2.24,5.4,2.24S434.09,295.01,435.47,293.62z
		 M456.56,297.36c1.39-1.38,2.24-3.29,2.24-5.41c0-2.11-0.86-4.02-2.24-5.4c-1.38-1.38-3.29-2.24-5.4-2.24
		c-2.11,0-4.02,0.86-5.4,2.24c-1.38,1.38-2.24,3.3-2.24,5.4c0,2.11,0.86,4.02,2.24,5.41s3.29,2.24,5.4,2.24
		C453.26,299.6,455.18,298.74,456.56,297.36z M476.55,291.33c1.19-1.19,1.92-2.83,1.92-4.65s-0.74-3.46-1.92-4.65
		c-1.19-1.19-2.84-1.93-4.65-1.93c-1.82,0-3.46,0.74-4.65,1.93c-1.19,1.19-1.92,2.83-1.92,4.65s0.74,3.46,1.92,4.65
		c1.19,1.19,2.83,1.93,4.65,1.93C473.71,293.26,475.36,292.52,476.55,291.33z M491.63,276.34c0.76-0.77,1.23-1.82,1.23-2.98
		s-0.47-2.22-1.23-2.98c-0.77-0.77-1.82-1.23-2.98-1.23c-1.17,0-2.22,0.47-2.98,1.23c-0.77,0.76-1.23,1.82-1.23,2.98
		s0.47,2.22,1.23,2.98c0.76,0.76,1.81,1.23,2.98,1.23C489.81,277.57,490.86,277.1,491.63,276.34z M412.89,211.73
		c0.76-0.76,1.23-1.81,1.23-2.97c0-1.15-0.47-2.21-1.23-2.96c-0.76-0.76-1.81-1.23-2.97-1.23s-2.21,0.47-2.96,1.23
		c-0.76,0.76-1.23,1.81-1.23,2.96c0,1.16,0.47,2.21,1.23,2.97c0.76,0.76,1.8,1.23,2.96,1.23S412.13,212.48,412.89,211.73z
		 M431.31,200.07c1.19-1.19,1.92-2.83,1.92-4.63c0-1.81-0.73-3.45-1.92-4.64s-2.83-1.92-4.64-1.92c-1.81,0-3.45,0.73-4.63,1.92
		s-1.92,2.83-1.92,4.64c0,1.81,0.73,3.45,1.92,4.63c1.19,1.19,2.83,1.92,4.63,1.92C428.48,201.99,430.12,201.26,431.31,200.07z
		 M452.8,195.55c1.38-1.38,2.23-3.29,2.23-5.4c0-2.1-0.85-4.01-2.23-5.4c-1.38-1.38-3.29-2.23-5.4-2.23c-2.11,0-4.02,0.85-5.4,2.23
		c-1.38,1.38-2.24,3.29-2.24,5.4c0,2.11,0.86,4.02,2.24,5.4c1.38,1.38,3.29,2.24,5.4,2.24C449.51,197.78,451.42,196.93,452.8,195.55
		z M473.89,199.27c1.38-1.39,2.24-3.3,2.24-5.41c0-2.11-0.86-4.02-2.24-5.4c-1.38-1.38-3.29-2.24-5.4-2.24s-4.02,0.86-5.4,2.24
		c-1.38,1.38-2.24,3.3-2.24,5.4c0,2.11,0.86,4.02,2.24,5.41c1.38,1.38,3.29,2.24,5.4,2.24S472.5,200.66,473.89,199.27z
		 M490.8,210.59c1.19-1.19,1.92-2.83,1.92-4.65c0-1.81-0.74-3.46-1.92-4.65c-1.19-1.19-2.83-1.92-4.65-1.92
		c-1.81,0-3.46,0.74-4.64,1.92c-1.19,1.19-1.93,2.84-1.93,4.65c0,1.82,0.74,3.46,1.93,4.65c1.19,1.19,2.83,1.92,4.64,1.92
		C487.97,212.51,489.61,211.78,490.8,210.59z M500.32,227.16c0.76-0.76,1.23-1.81,1.23-2.98c0-1.16-0.47-2.22-1.23-2.98
		c-0.76-0.76-1.82-1.23-2.98-1.23c-1.16,0-2.22,0.47-2.97,1.23c-0.77,0.76-1.23,1.82-1.23,2.98c0,1.17,0.47,2.22,1.23,2.98
		c0.76,0.77,1.81,1.23,2.97,1.23C498.51,228.39,499.56,227.92,500.32,227.16z M432.09,266.56c1.1-1.1,1.79-2.63,1.79-4.31
		c0-1.69-0.68-3.21-1.79-4.31c-1.1-1.1-2.63-1.79-4.31-1.79c-1.68,0-3.2,0.68-4.31,1.79c-1.1,1.1-1.78,2.62-1.78,4.31
		c0,1.68,0.68,3.2,1.78,4.31c1.1,1.1,2.63,1.78,4.31,1.78C429.46,268.34,430.99,267.66,432.09,266.56z M452.29,276.66
		c1.4-1.41,2.27-3.35,2.27-5.49c0-2.15-0.87-4.09-2.27-5.49c-1.41-1.41-3.35-2.28-5.49-2.28c-2.15,0-4.09,0.87-5.5,2.28
		c-1.4,1.4-2.27,3.35-2.27,5.49c0,2.14,0.87,4.09,2.27,5.49c1.41,1.4,3.35,2.27,5.5,2.27C448.94,278.94,450.88,278.07,452.29,276.66
		z M471.34,269.84c1.1-1.11,1.79-2.63,1.79-4.33c0-1.69-0.69-3.22-1.79-4.32c-1.11-1.1-2.63-1.79-4.32-1.79
		c-1.69,0-3.22,0.69-4.33,1.79c-1.11,1.11-1.79,2.63-1.79,4.32c0,1.69,0.68,3.22,1.79,4.33c1.11,1.11,2.63,1.79,4.33,1.79
		C468.7,271.63,470.23,270.95,471.34,269.84z M435.88,220.9c1.1-1.1,1.79-2.63,1.79-4.31c0-1.68-0.68-3.21-1.79-4.31
		c-1.1-1.1-2.63-1.79-4.31-1.79c-1.68,0-3.2,0.68-4.31,1.79c-1.1,1.1-1.79,2.63-1.79,4.31c0,1.68,0.68,3.2,1.79,4.31
		c1.1,1.1,2.63,1.78,4.31,1.78C433.25,222.68,434.77,222,435.88,220.9z M457.29,216.43c1.4-1.4,2.27-3.35,2.27-5.49
		s-0.87-4.09-2.27-5.49c-1.41-1.4-3.35-2.27-5.49-2.27s-4.09,0.87-5.49,2.27c-1.4,1.41-2.27,3.35-2.27,5.49s0.87,4.09,2.27,5.49
		c1.4,1.4,3.35,2.27,5.49,2.27S455.88,217.84,457.29,216.43z M475.13,224.18c1.11-1.11,1.79-2.64,1.79-4.33
		c0-1.69-0.69-3.22-1.79-4.32c-1.1-1.11-2.63-1.79-4.32-1.79s-3.22,0.69-4.32,1.79c-1.11,1.11-1.79,2.63-1.79,4.32
		c0,1.69,0.69,3.22,1.79,4.33c1.1,1.11,2.63,1.79,4.32,1.79S474.02,225.29,475.13,224.18z"/>
	<g>
		<path class="st2" d="M641.91,224.19c-0.64-1.67-1.21-3.4-1.74-5.15c-0.52,0.01-1.04-0.02-1.56-0.1c-0.67-0.1-1.33-0.26-1.98-0.45
			c-0.31-0.09-0.63-0.19-0.94-0.29c-0.34-0.11-0.69-0.18-1.05-0.21c-0.68-0.06-1.36,0.04-2.01,0.2c-0.23,0.06-0.45,0.15-0.68,0.22
			c-2.95,2.67-5.8,5.48-8.44,8.42c-2.32,2.58-4.57,5.3-6.66,8.1l-0.48,0.64l0.58,0.54c1.6,1.49,3.38,2.82,5.27,3.96
			c1.58,0.95,3.27,1.76,5.01,2.42l0.93,0.35l0.24-0.97c0.92-3.65,2.06-7.28,3.4-10.78c0.87-2.28,1.86-4.53,2.91-6.74
			c-0.04,1.39-0.09,2.78-0.08,4.15c0.02,3.19,0.16,6.4,0.44,9.52l0.06,0.71l0.64-0.18c1.77-0.48,3.55-1.18,5.3-2.08
			c1.46-0.75,2.91-1.66,4.31-2.68l0.75-0.55l-0.38-0.7C644.31,229.9,643.02,227.09,641.91,224.19z"/>
		<path class="st2" d="M721.83,177.6c-0.38-2.1-2.44-3.63-4.66-3.23c-25.83,7.72-51.78,15.02-77.85,21.89
			c-0.01,0.02,0,0.05-0.02,0.06l-0.25,0.1c-0.64,0.27-1.29,0.54-1.96,0.73c-0.67,0.19-1.36,0.3-2.06,0.25
			c-0.36-0.02-0.7-0.1-1.05-0.19c-0.32-0.08-0.63-0.16-0.95-0.23c-0.67-0.15-1.34-0.26-2.02-0.31c-0.44-0.03-0.88-0.02-1.31,0.01
			l-4.63,1.18c-9.32,2.37-18.63,4.74-27.94,7.11c-0.43,0.11-0.87,0.22-1.31,0.33c-0.41,0.1-0.8,0.29-1.13,0.55
			c-2.12,0.47-4.23,0.94-6.34,1.41l-1.04,0.23l0.72,1.69c-19.49,4.68-39.06,9.08-58.69,13.26c-25.77,12.77-51.78,25.01-78.04,36.72
			c48.53-8.59,96.93-18.57,145.05-29.81c0.17,0.76,0.62,1.43,1.29,1.85c0.71,0.45,1.59,0.59,2.43,0.38l37.07-9.31
			c0.69-0.17,1.31-0.58,1.74-1.14c0.49-0.65,0.68-1.46,0.57-2.25c27.4-6.85,54.71-14.07,81.87-21.71c2.22-0.4,3.63-2.44,3.23-4.66
			C723.64,187.59,722.72,182.53,721.83,177.6z"/>
		<path class="st3" d="M585.45,164.58c0.62,0.53,1.17,1.13,1.69,1.75c1.07,1.29,2,2.7,2.88,4.13c0.37,0.61,0.74,1.21,1.12,1.82
			c0.59,0.95,1.08,1.95,1.51,2.99c0.85,2.07,1.43,4.25,2.02,6.41c0.04,0.13,0.08,0.26,0.11,0.38
			c55.15-30.06,109.27-62.42,162.51-96.75c-2.04-8.15-6.16-14.82-13.45-19.08c-52.67,35.7-105.63,68.28-158.87,97.99
			C585.12,164.34,585.29,164.45,585.45,164.58z"/>
		<path class="st3" d="M594.27,181.05c-0.58-2.14-1.19-4.29-2.09-6.32c-0.23-0.51-0.47-1.01-0.74-1.5
			c-0.24-0.44-0.51-0.86-0.77-1.29c-0.35-0.58-0.7-1.16-1.07-1.74c-0.89-1.42-1.84-2.83-2.95-4.1c-0.51-0.59-1.06-1.15-1.68-1.62
			c-0.07-0.05-0.15-0.1-0.23-0.15C434.88,247.95,282.81,308.63,128.91,350.5l-16.72,4.64c7.22,6.22,17.86,9.42,31.18,8.48
			c159.04-41.36,308.58-103.72,451.21-181.46C594.48,181.79,594.37,181.43,594.27,181.05z"/>
		<path class="st4" d="M142.92,360.85c-9.57,0.64-17.85-0.94-24.3-4.59l11.04-3.06c157.78-42.93,310.78-105.33,454.72-185.45
			c0.06,0.06,0.11,0.13,0.17,0.19c1.04,1.2,1.94,2.57,2.69,3.75c0.34,0.54,1.27,2.08,1.27,2.08c0.16,0.27,0.33,0.53,0.48,0.8
			c0.23,0.42,0.44,0.86,0.64,1.3c0.68,1.52,1.18,3.14,1.67,4.9C440.84,262.59,294.16,321.5,142.92,360.85z"/>
		<path class="st2" d="M207.07,267l-0.25,0.05c-0.15-0.1-0.39-0.06-0.64-0.01c-0.78,7.65-1.32,15.9,0.66,23.31
			c0.25-0.05,0.52,0.03,0.89-0.03l0.37-0.07c50.19-3.82,100.51-9.34,150.78-16.38c26.09-10.61,52.12-21.84,78.09-33.7
			C361.49,253,284.9,262.12,207.07,267z"/>
		<path class="st3" d="M743.83,66.23c-53.26,36.07-106.84,68.99-160.65,98.99l11.51,16.93c55.16-30.06,109.28-62.4,162.59-96.84
			C755.24,77.15,751.12,70.49,743.83,66.23L743.83,66.23z"/>
		<path class="st5" d="M739.83,69.55l-2.01,1.32c2.72,2.07,5.16,4.4,7.12,7.23c2.18,3,4,6.72,5.29,11.08l1.9-1.27
			c-1.29-4.37-3.06-7.97-5.29-11.08C744.87,74.01,742.44,71.67,739.83,69.55L739.83,69.55z"/>
		<path d="M569,181.59c-0.12-0.19-0.23-0.38-0.35-0.57c-0.26-0.45-0.53-0.9-0.84-1.31c-72.72,39.62-144.57,73.4-216.86,102.25
			c-72.02,28.74-144.34,52.66-218.29,72.52c-0.02,0.01-0.02,0.03-0.04,0.03c0.31,0.12,0.62,0.24,0.94,0.35
			c0.45,0.16,0.91,0.32,1.37,0.46c0.45,0.14,0.9,0.25,1.37,0.36c0.08,0.02,0.16,0.02,0.24,0.04
			c72.91-19.73,144.26-43.39,215.21-71.69c72.42-28.9,144.41-62.73,217.28-102.42C569.01,181.61,569,181.6,569,181.59z"/>
		<path class="st5" d="M603.71,165l-5.89-4.21l-0.27,8.51l6.26,3.49L603.71,165z M612.5,168.03l0.66-7.04l-7.57-4.27l0.09,7.8
			L612.5,168.03z M620.88,163.14l0.61-7.15l-7.57-4.27l0.09,7.8L620.88,163.14z M629.2,158.14l0.61-7.15l-7.57-4.27l0.09,7.8
			L629.2,158.14z M637.53,153.13l0.66-7.04l-7.57-4.27l0.04,7.68L637.53,153.13z M645.85,148.13l0.66-7.04l-7.57-4.27l0.04,7.68
			L645.85,148.13z M654.17,143.12l0.66-7.04l-7.57-4.27l0.09,7.8L654.17,143.12z M663.13,137.69l0.66-7.04l-7.57-4.27l0.09,7.8
			L663.13,137.69z M672.14,132.38l0.61-7.15l-7.57-4.27l0.09,7.8L672.14,132.38z M681.21,126.89l0.5-7.1l-7.57-4.27l0.09,7.8
			L681.21,126.89z M690.17,121.46l0.5-7.1l-7.52-4.16l0.04,7.68L690.17,121.46z M699.12,116.03l0.55-6.99l-7.57-4.27l0.04,7.68
			L699.12,116.03z M708.08,110.6l0.55-6.99l-7.57-4.27l0.04,7.68L708.08,110.6z M716.15,105.03l0.66-7.04l-7.69-4.22l0.04,7.68
			L716.15,105.03z M724.21,99.45l0.61-7.15l-7.57-4.27l0.09,7.8L724.21,99.45z M732.7,94.51l0.55-6.99l-7.57-4.27l0.04,7.68
			L732.7,94.51z M740.83,88.77l0.5-7.1l-7.52-4.16l0.04,7.68L740.83,88.77z"/>
		<path class="st3" d="M583.93,166.8c-4.53,2.46-9.34,5.7-13.86,8.16c2.57,3.24,6.43,9.61,8.2,13.21c4.07-2.25,9.99-5.3,14.06-7.55
			c-2.23-4.63-5.16-9.06-7.69-11.91L583.93,166.8z"/>
		<path class="st3" d="M600.59,193.37c-1.84,1.11-6.52-2.55-11.33-8.62c0.97-0.58,2.08-1.49,3.16-2.12
			c-0.43-3.38-7.77-15.05-11.16-15.85c-0.86,0.53-1.66,0.89-2.52,1.42c-3.7-7.26-5.2-13.32-3.42-14.54
			C581.42,149.79,606.63,189.39,600.59,193.37L600.59,193.37z"/>
	</g>
	<path class="st6" d="M579.7,184.42c2.53-1.03,5.07-2.08,7.69-2.99c-2.43,1.62-4.98,3-7.64,4.2l-0.34,0.16l0,0
		c-1.01-2.54-5.53-9.37-6.62-11.47C574.32,175.86,579.11,182.71,579.7,184.42z"/>
</g>
</svg>
