<?xml version="1.0" encoding="utf-8"?>
<!-- Generator: Adobe Illustrator 24.0.1, SVG Export Plug-In . SVG Version: 6.00 Build 0)  -->
<svg version="1.1" id="Layer_1" xmlns="http://www.w3.org/2000/svg" xmlns:xlink="http://www.w3.org/1999/xlink" x="0px" y="0px"
	 viewBox="0 0 891.39 456.79" style="enable-background:new 0 0 891.39 456.79;" xml:space="preserve">
<style type="text/css">
	.st0{opacity:0;fill:#FFFFFF;}
	.st1{fill:url(#SVGID_1_);}
</style>
<g>
	<rect x="0" y="0" class="st0" width="891.39" height="456.79"/>
	
		<linearGradient id="SVGID_1_" gradientUnits="userSpaceOnUse" x1="-688.5938" y1="593.6135" x2="-373.1637" y2="593.6135" gradientTransform="matrix(-0.2358 -0.9718 0.9718 -0.2358 -256.3419 -140.7205)">
		<stop  offset="5.617738e-03" style="stop-color:#8C6A33"/>
		<stop  offset="0.139" style="stop-color:#9A7638"/>
		<stop  offset="0.3542" style="stop-color:#A9843E"/>
		<stop  offset="0.5225" style="stop-color:#AF8940"/>
		<stop  offset="1" style="stop-color:#8C6A33"/>
	</linearGradient>
	<path class="st1" d="M365.57,366.7c8.43,5.18,17.35,9.55,26.62,13.04c9.26,3.48,18.86,6.08,28.64,7.71
		c9.77,1.64,19.7,2.32,29.61,2.06c9.91-0.27,19.8-1.49,29.49-3.65c9.69-2.15,19.17-5.24,28.28-9.21c9.11-3.97,17.84-8.8,26.02-14.45
		c8.19-5.64,15.82-12.09,22.76-19.22c6.94-7.12,13.21-14.92,18.66-23.25c5.48-8.32,10.15-17.17,13.93-26.39
		c3.79-9.22,6.69-18.81,8.62-28.6c1.94-9.78,2.92-19.76,2.94-29.75c0.02-9.98-0.92-19.97-2.8-29.79
		c-1.88-9.81-4.72-19.45-8.44-28.74c-3.72-9.29-8.33-18.22-13.77-26.62c-5.43-8.42-11.7-16.29-18.67-23.49
		c-6.97-7.2-14.63-13.74-22.86-19.47c8.28,5.66,16.01,12.13,23.06,19.28c7.04,7.15,13.4,14.99,18.93,23.38
		c5.54,8.39,10.25,17.31,14.07,26.62c3.82,9.3,6.76,18.97,8.75,28.83c1.99,9.87,3.03,19.93,3.1,30c0.07,10.07-0.83,20.15-2.7,30.06
		c-1.86,9.91-4.71,19.63-8.45,29c-3.75,9.37-8.4,18.38-13.87,26.87c-5.45,8.5-11.74,16.47-18.72,23.77
		c-6.99,7.3-14.68,13.93-22.97,19.75c-8.27,5.82-17.12,10.84-26.37,14.96c-9.24,4.13-18.89,7.37-28.76,9.65
		c-9.87,2.3-19.97,3.64-30.1,4c-10.13,0.37-20.31-0.24-30.34-1.83c-10.03-1.58-19.9-4.15-29.45-7.64
		c-9.54-3.49-18.75-7.9-27.46-13.15c-0.52-0.31-0.86-0.8-0.99-1.34c-0.13-0.54-0.06-1.13,0.25-1.65c0.31-0.51,0.8-0.85,1.34-0.99
		s1.14-0.06,1.65,0.25l0.01,0.01L365.57,366.7z M333.96,344.14c-6.97-7.2-13.24-15.07-18.67-23.49
		c-5.44-8.41-10.05-17.34-13.78-26.62c-3.72-9.29-6.55-18.92-8.43-28.74c-1.89-9.82-2.83-19.81-2.81-29.79
		c0.02-9.99,1-19.96,2.94-29.75c1.93-9.79,4.83-19.38,8.62-28.6c3.79-9.22,8.46-18.07,13.93-26.39
		c5.45-8.33,11.72-16.13,18.66-23.25c6.94-7.12,14.57-13.57,22.76-19.21c8.18-5.65,16.91-10.49,26.02-14.46
		c9.11-3.97,18.59-7.05,28.28-9.21c9.69-2.16,19.57-3.38,29.49-3.64c9.91-0.27,19.84,0.41,29.61,2.06
		c9.77,1.63,19.37,4.23,28.64,7.71c9.26,3.49,18.19,7.86,26.62,13.04l0.01,0.01l0.01,0.01c0.52,0.31,1.11,0.38,1.65,0.25
		s1.03-0.47,1.34-0.99c0.31-0.52,0.38-1.11,0.24-1.65c-0.13-0.54-0.48-1.03-0.99-1.34c-8.71-5.25-17.92-9.65-27.46-13.15
		s-19.41-6.07-29.44-7.65c-10.03-1.59-20.2-2.2-30.34-1.83c-10.14,0.37-20.23,1.7-30.1,4c-9.87,2.29-19.52,5.53-28.76,9.66
		c-9.25,4.13-18.09,9.14-26.37,14.96c-8.28,5.81-15.98,12.44-22.97,19.74c-6.99,7.3-13.27,15.27-18.72,23.77
		c-5.47,8.49-10.12,17.5-13.87,26.87c-3.75,9.37-6.59,19.09-8.45,29c-1.87,9.91-2.76,19.99-2.7,30.06
		c0.07,10.07,1.11,20.13,3.1,29.99c1.98,9.87,4.92,19.53,8.74,28.84c3.83,9.3,8.54,18.23,14.08,26.61
		c5.53,8.39,11.88,16.23,18.93,23.38c7.04,7.15,14.78,13.62,23.06,19.29C348.59,357.87,340.92,351.34,333.96,344.14z M371.01,357.76
		l-0.01,0c-0.51-0.31-1.11-0.38-1.65-0.25c-0.54,0.14-1.03,0.47-1.34,0.99c-0.31,0.52-0.38,1.11-0.25,1.65s0.48,1.03,0.99,1.34
		c8.12,4.89,16.71,9,25.61,12.24s18.1,5.64,27.46,7.11c9.35,1.48,18.83,2.04,28.28,1.7c9.45-0.35,18.86-1.59,28.06-3.72
		c9.2-2.12,18.2-5.14,26.82-8.97c8.62-3.84,16.88-8.49,24.6-13.9c7.73-5.4,14.92-11.57,21.45-18.35c6.53-6.79,12.4-14.2,17.5-22.11
		c5.12-7.9,9.46-16.29,12.97-25.01c3.51-8.72,6.17-17.78,7.92-27.01c1.76-9.23,2.61-18.62,2.56-28.01c-0.05-9.38-1-18.76-2.83-27.96
		c-1.83-9.2-4.53-18.21-8.07-26.89c-3.53-8.68-7.89-17.01-13.02-24.85c-5.11-7.84-11-15.17-17.53-21.86
		c-6.54-6.69-13.71-12.75-21.4-18.06c7.64,5.38,14.75,11.5,21.21,18.25c6.46,6.74,12.25,14.1,17.27,21.97
		c5.03,7.85,9.29,16.19,12.72,24.85c3.43,8.66,6.03,17.65,7.76,26.79c1.73,9.14,2.58,18.45,2.54,27.75
		c-0.04,9.3-0.97,18.58-2.8,27.69c-1.82,9.11-4.53,18.03-8.07,26.61c-3.54,8.58-7.91,16.81-13.02,24.54
		c-5.1,7.74-10.95,14.98-17.44,21.6c-6.48,6.61-13.6,12.59-21.24,17.82c-7.63,5.24-15.77,9.72-24.25,13.4
		c-8.49,3.68-17.32,6.54-26.34,8.53c-9.02,2-18.23,3.12-27.45,3.37c-9.22,0.24-18.47-0.39-27.56-1.92
		c-9.1-1.52-18.03-3.93-26.65-7.17C387.17,366.65,378.86,362.59,371.01,357.76L371.01,357.76z M341.07,336.41
		c-6.45-6.74-12.25-14.1-17.27-21.97c-5.03-7.85-9.29-16.19-12.72-24.85s-6.03-17.65-7.76-26.79c-1.73-9.15-2.57-18.45-2.53-27.75
		c0.04-9.3,0.97-18.58,2.8-27.69c1.82-9.11,4.53-18.03,8.08-26.61c3.54-8.57,7.91-16.81,13.03-24.54
		c5.1-7.74,10.95-14.98,17.43-21.59c6.49-6.61,13.6-12.6,21.24-17.82c7.63-5.24,15.76-9.72,24.25-13.4
		c8.48-3.67,17.31-6.54,26.33-8.53c9.02-2,18.22-3.13,27.45-3.37c9.22-0.25,18.47,0.39,27.56,1.92c9.1,1.52,18.03,3.93,26.65,7.17
		c8.62,3.24,16.92,7.31,24.77,12.13l0.01,0l0.01,0.01c0.51,0.31,1.11,0.38,1.65,0.25c0.54-0.14,1.04-0.48,1.35-0.99
		c0.31-0.52,0.38-1.11,0.24-1.65c-0.14-0.54-0.48-1.03-0.99-1.34c-8.12-4.89-16.72-8.99-25.62-12.24c-8.9-3.25-18.1-5.64-27.46-7.11
		c-9.35-1.48-18.83-2.04-28.28-1.7c-9.44,0.34-18.86,1.59-28.06,3.72c-9.2,2.12-18.19,5.14-26.82,8.97
		c-8.62,3.84-16.87,8.49-24.6,13.9c-7.73,5.41-14.92,11.57-21.44,18.36c-6.53,6.79-12.4,14.21-17.5,22.11
		c-5.12,7.9-9.46,16.29-12.97,25.01c-3.5,8.73-6.17,17.78-7.91,27.01c-1.76,9.23-2.61,18.62-2.56,28.01
		c0.05,9.38,0.99,18.76,2.83,27.96c1.83,9.2,4.53,18.21,8.07,26.89c3.53,8.67,7.89,17.01,13.01,24.85
		c5.11,7.84,11,15.17,17.54,21.86c6.53,6.69,13.71,12.75,21.4,18.06C354.64,349.28,347.53,343.16,341.07,336.41z M376.45,348.82
		L376.45,348.82c-0.53-0.32-1.12-0.39-1.66-0.26c-0.54,0.14-1.03,0.48-1.34,0.99s-0.38,1.11-0.25,1.65
		c0.14,0.54,0.47,1.03,0.99,1.34c7.54,4.53,15.51,8.34,23.77,11.35c8.25,3.01,16.79,5.24,25.47,6.6c8.67,1.37,17.47,1.9,26.23,1.58
		c8.76-0.31,17.49-1.46,26.03-3.44c8.54-1.96,16.88-4.75,24.88-8.29c8-3.55,15.66-7.86,22.83-12.87c7.17-5,13.85-10.7,19.92-16.99
		c6.07-6.28,11.52-13.15,16.27-20.47c4.76-7.31,8.81-15.08,12.08-23.17c3.27-8.08,5.76-16.47,7.4-25.03
		c1.66-8.55,2.47-17.25,2.45-25.96c-0.02-8.7-0.87-17.39-2.55-25.92c-1.66-8.53-4.14-16.9-7.39-24.95
		c-3.25-8.05-7.26-15.79-11.98-23.07c-4.71-7.29-10.14-14.1-16.17-20.33c-6.03-6.23-12.65-11.87-19.76-16.82
		c7.05,5.02,13.62,10.73,19.56,17.01c5.95,6.28,11.29,13.13,15.91,20.43c4.63,7.3,8.53,15.04,11.68,23.08
		c3.14,8.04,5.52,16.37,7.08,24.85c1.57,8.48,2.32,17.1,2.25,25.71c-0.07,8.61-0.96,17.22-2.68,25.64
		c-1.71,8.43-4.25,16.69-7.56,24.62c-3.31,7.94-7.37,15.54-12.13,22.7c-4.74,7.15-10.18,13.85-16.2,19.95
		c-6.02,6.11-12.62,11.63-19.71,16.46c-7.08,4.83-14.62,8.97-22.48,12.36c-7.86,3.39-16.04,6.02-24.4,7.85
		c-8.35,1.83-16.88,2.87-25.42,3.08c-8.54,0.21-17.1-0.39-25.51-1.81c-8.42-1.41-16.68-3.66-24.66-6.66S383.72,353.29,376.45,348.82
		L376.45,348.82z M348.17,328.7c-5.95-6.28-11.29-13.13-15.9-20.43c-4.63-7.3-8.54-15.04-11.68-23.08
		c-3.14-8.04-5.52-16.37-7.09-24.85c-1.57-8.48-2.32-17.1-2.25-25.71c0.07-8.61,0.96-17.22,2.68-25.64
		c1.71-8.43,4.25-16.69,7.56-24.63c3.3-7.93,7.37-15.54,12.13-22.69c4.75-7.16,10.18-13.85,16.2-19.96
		c6.02-6.11,12.63-11.63,19.71-16.46c7.07-4.83,14.62-8.97,22.48-12.36c7.86-3.39,16.04-6.02,24.4-7.85
		c8.35-1.84,16.88-2.87,25.42-3.08c8.54-0.22,17.09,0.38,25.51,1.81c8.42,1.41,16.68,3.66,24.66,6.66
		c7.98,3.01,15.66,6.78,22.92,11.24l0.01,0l0.01,0.01c0.51,0.31,1.11,0.38,1.65,0.25c0.54-0.14,1.03-0.47,1.34-0.99
		c0.31-0.51,0.38-1.11,0.25-1.65c-0.14-0.54-0.47-1.03-0.99-1.34c-7.54-4.53-15.51-8.34-23.76-11.35c-8.26-3.01-16.8-5.23-25.47-6.6
		c-8.67-1.37-17.47-1.9-26.23-1.58c-8.77,0.31-17.49,1.46-26.03,3.43c-8.54,1.96-16.88,4.75-24.88,8.29
		c-8,3.55-15.66,7.85-22.83,12.86c-7.17,5-13.85,10.7-19.91,16.99c-6.07,6.29-11.52,13.15-16.27,20.47
		c-4.76,7.31-8.81,15.09-12.08,23.17c-3.27,8.08-5.76,16.47-7.4,25.03c-1.65,8.55-2.46,17.26-2.44,25.96s0.87,17.39,2.54,25.92
		c1.66,8.53,4.15,16.89,7.39,24.94c3.25,8.05,7.26,15.79,11.98,23.07c4.71,7.28,10.14,14.1,16.17,20.33
		c6.03,6.23,12.65,11.87,19.76,16.82C360.68,340.68,354.12,334.97,348.17,328.7z M381.9,339.88c-0.01-0.01-0.01-0.01-0.01-0.01
		c-0.52-0.31-1.11-0.38-1.65-0.25c-0.54,0.13-1.03,0.48-1.34,0.99c-0.31,0.52-0.38,1.11-0.24,1.65c0.14,0.54,0.48,1.03,0.99,1.34
		c6.96,4.17,14.31,7.68,21.92,10.46c7.61,2.78,15.49,4.82,23.48,6.09c8,1.27,16.11,1.75,24.18,1.47c8.08-0.28,16.13-1.34,24-3.15
		c7.87-1.8,15.56-4.36,22.94-7.62c7.38-3.26,14.44-7.22,21.06-11.82c6.62-4.6,12.78-9.84,18.39-15.62
		c5.6-5.78,10.65-12.09,15.03-18.83c4.41-6.73,8.15-13.88,11.18-21.32c3.03-7.44,5.35-15.17,6.88-23.04
		c1.55-7.87,2.32-15.89,2.33-23.91c0.01-8.01-0.75-16.02-2.26-23.89c-1.51-7.86-3.76-15.58-6.72-23.01
		c-2.96-7.43-6.63-14.57-10.94-21.3c-4.31-6.73-9.28-13.03-14.8-18.79c-5.52-5.76-11.6-10.99-18.12-15.58
		c6.47,4.66,12.48,9.95,17.92,15.76c5.44,5.81,10.33,12.15,14.54,18.9c4.22,6.74,7.79,13.89,10.64,21.3
		c2.86,7.41,5.01,15.1,6.42,22.91c1.41,7.81,2.06,15.75,1.97,23.68c-0.1,7.93-0.95,15.84-2.57,23.59
		c-1.6,7.76-3.97,15.35-7.04,22.64c-3.07,7.29-6.84,14.28-11.24,20.85c-4.39,6.57-9.41,12.71-14.97,18.31s-11.65,10.67-18.18,15.09
		c-6.52,4.43-13.47,8.22-20.71,11.32c-7.24,3.1-14.77,5.51-22.46,7.18c-7.69,1.68-15.53,2.61-23.39,2.8
		c-7.85,0.18-15.72-0.38-23.46-1.7c-7.74-1.31-15.34-3.38-22.67-6.15c-7.33-2.77-14.4-6.24-21.07-10.36
		C381.91,339.89,381.91,339.88,381.9,339.88z M355.28,320.98c-5.45-5.81-10.32-12.15-14.54-18.9c-4.22-6.74-7.79-13.89-10.64-21.3
		c-2.86-7.42-5.01-15.1-6.41-22.91c-1.41-7.81-2.07-15.75-1.97-23.68c0.1-7.93,0.95-15.84,2.57-23.59
		c1.6-7.76,3.97-15.35,7.04-22.64c3.07-7.29,6.84-14.28,11.24-20.85c4.39-6.57,9.41-12.71,14.97-18.31
		c5.56-5.6,11.65-10.67,18.18-15.09c6.52-4.43,13.47-8.22,20.71-11.32s14.77-5.51,22.46-7.18c7.69-1.68,15.53-2.61,23.39-2.8
		c7.86-0.19,15.73,0.38,23.46,1.69c7.74,1.31,15.34,3.38,22.68,6.15c7.33,2.77,14.4,6.24,21.07,10.36c0,0,0.01,0,0.01,0
		c0.01,0.01,0.01,0.01,0.01,0.01c0.52,0.31,1.11,0.38,1.65,0.25c0.54-0.13,1.03-0.48,1.34-0.99c0.31-0.52,0.38-1.11,0.24-1.65
		c-0.13-0.54-0.48-1.03-0.99-1.34c-6.95-4.18-14.3-7.69-21.91-10.46s-15.49-4.82-23.48-6.09c-8-1.27-16.11-1.75-24.18-1.47
		c-8.08,0.28-16.13,1.34-23.99,3.15c-7.87,1.8-15.56,4.36-22.94,7.62c-7.38,3.26-14.45,7.22-21.06,11.82
		c-6.62,4.6-12.78,9.84-18.39,15.62c-5.6,5.78-10.65,12.09-15.03,18.83c-4.41,6.73-8.15,13.88-11.18,21.32
		c-3.03,7.44-5.35,15.17-6.88,23.04c-1.55,7.87-2.32,15.89-2.33,23.91c-0.01,8.01,0.75,16.02,2.26,23.89
		c1.51,7.86,3.76,15.58,6.73,23.01c2.96,7.43,6.62,14.58,10.94,21.3c4.31,6.73,9.28,13.03,14.8,18.79
		c5.52,5.76,11.6,10.99,18.12,15.58C366.73,332.08,360.72,326.79,355.28,320.98z M387.35,330.94c0,0-0.01,0-0.01,0
		c-0.52-0.31-1.11-0.38-1.65-0.25c-0.54,0.14-1.03,0.48-1.34,0.99c-0.31,0.52-0.38,1.11-0.24,1.65c0.14,0.54,0.48,1.03,0.99,1.34
		c6.37,3.82,13.1,7.03,20.07,9.57c6.97,2.54,14.18,4.42,21.5,5.57c7.32,1.16,14.74,1.61,22.14,1.36c7.39-0.26,14.76-1.21,21.96-2.86
		c7.2-1.64,14.25-3.97,21.01-6.94c6.76-2.97,13.23-6.59,19.29-10.79c6.07-4.19,11.72-8.98,16.86-14.25
		c5.14-5.28,9.77-11.04,13.8-17.19c4.05-6.14,7.5-12.67,10.29-19.47c2.8-6.8,4.94-13.86,6.37-21.06c1.44-7.2,2.17-14.53,2.21-21.86
		c0.04-7.33-0.62-14.66-1.97-21.85c-1.34-7.19-3.38-14.26-6.05-21.06c-2.67-6.8-5.99-13.35-9.91-19.52
		c-3.91-6.17-8.42-11.96-13.44-17.26c-5.01-5.3-10.54-10.11-16.47-14.34c5.88,4.3,11.34,9.18,16.28,14.52
		c4.94,5.35,9.36,11.17,13.17,17.36c3.82,6.19,7.03,12.74,9.6,19.53c2.57,6.79,4.5,13.82,5.74,20.97c1.25,7.14,1.81,14.4,1.69,21.64
		c-0.12,7.24-0.94,14.47-2.45,21.54c-1.5,7.08-3.69,14-6.53,20.65c-2.83,6.65-6.3,13.02-10.35,19c-4.03,5.99-8.64,11.57-13.73,16.67
		s-10.67,9.71-16.65,13.73c-5.96,4.03-12.32,7.47-18.94,10.28c-6.62,2.81-13.5,5-20.52,6.51c-7.02,1.52-14.18,2.35-21.36,2.51
		c-7.17,0.16-14.36-0.37-21.41-1.58c-7.07-1.21-14-3.1-20.69-5.64c-6.69-2.54-13.14-5.71-19.23-9.47
		C387.36,330.95,387.35,330.95,387.35,330.94z M362.38,313.25c-4.94-5.35-9.36-11.17-13.17-17.36c-3.82-6.19-7.03-12.74-9.6-19.53
		c-2.57-6.79-4.5-13.82-5.74-20.97c-1.25-7.14-1.81-14.41-1.69-21.64c0.13-7.24,0.94-14.47,2.45-21.55c1.5-7.08,3.7-14,6.53-20.65
		c2.83-6.65,6.3-13.02,10.34-19c4.03-5.98,8.64-11.57,13.74-16.68c5.09-5.1,10.67-9.71,16.64-13.73
		c5.97-4.03,12.32-7.47,18.94-10.28c6.62-2.81,13.5-5,20.52-6.5c7.02-1.52,14.19-2.36,21.36-2.51c7.17-0.16,14.35,0.36,21.41,1.58
		c7.07,1.21,14,3.1,20.69,5.64c6.69,2.54,13.14,5.71,19.22,9.47c0,0,0.01,0,0.01,0c0.01,0.01,0.01,0.01,0.01,0.01
		c0.52,0.31,1.11,0.38,1.65,0.25c0.54-0.14,1.03-0.48,1.34-0.99c0.31-0.52,0.38-1.11,0.24-1.65s-0.48-1.03-0.99-1.34
		c-6.37-3.82-13.1-7.03-20.07-9.57c-6.97-2.54-14.17-4.42-21.49-5.57c-7.32-1.16-14.74-1.61-22.14-1.36
		c-7.39,0.25-14.76,1.21-21.96,2.86c-7.2,1.64-14.25,3.97-21,6.94c-6.76,2.97-13.23,6.58-19.29,10.79
		c-6.06,4.19-11.71,8.98-16.85,14.26c-5.14,5.27-9.77,11.04-13.8,17.19c-4.04,6.14-7.49,12.67-10.29,19.47
		c-2.8,6.8-4.93,13.86-6.37,21.06c-1.44,7.2-2.17,14.53-2.21,21.86c-0.03,7.33,0.63,14.66,1.97,21.86
		c1.34,7.19,3.38,14.26,6.05,21.06c2.68,6.81,5.99,13.36,9.91,19.52c3.91,6.17,8.42,11.96,13.43,17.26
		c5.02,5.3,10.54,10.11,16.48,14.34C372.77,323.48,367.32,318.6,362.38,313.25z M392.8,322.01L392.8,322.01
		c-0.01-0.01-0.01-0.01-0.01-0.01c0,0,0,0-0.01-0.01c-0.52-0.31-1.11-0.38-1.65-0.24c-0.54,0.14-1.03,0.47-1.34,0.99
		c-0.31,0.52-0.38,1.11-0.24,1.65c0.14,0.54,0.48,1.03,0.99,1.34c5.78,3.46,11.89,6.37,18.22,8.68c6.32,2.3,12.87,4.01,19.51,5.06
		c6.64,1.06,13.38,1.47,20.09,1.24c6.71-0.22,13.39-1.08,19.93-2.57c6.54-1.48,12.93-3.59,19.07-6.27
		c6.13-2.68,12.01-5.95,17.52-9.74c5.51-3.79,10.64-8.12,15.32-12.89c4.68-4.77,8.89-9.99,12.57-15.55
		c3.69-5.56,6.84-11.47,9.4-17.62c2.56-6.15,4.52-12.55,5.85-19.07c1.33-6.52,2.03-13.16,2.09-19.81c0.07-6.64-0.5-13.29-1.69-19.82
		c-1.19-6.53-2.99-12.94-5.38-19.12c-2.39-6.18-5.36-12.14-8.87-17.75c-3.5-5.61-7.56-10.89-12.07-15.72
		c-4.51-4.83-9.48-9.23-14.84-13.1c5.3,3.95,10.2,8.4,14.64,13.29c4.43,4.88,8.4,10.18,11.81,15.82c3.42,5.63,6.29,11.59,8.57,17.75
		c2.29,6.17,3.99,12.54,5.07,19.02c1.09,6.48,1.56,13.05,1.4,19.61c-0.15,6.56-0.93,13.1-2.33,19.5c-1.39,6.4-3.41,12.66-6.01,18.66
		c-2.6,6-5.76,11.76-9.45,17.15c-3.68,5.4-7.87,10.44-12.5,15.04c-4.63,4.59-9.7,8.74-15.11,12.36c-5.41,3.62-11.17,6.72-17.17,9.25
		c-6,2.52-12.23,4.48-18.59,5.83c-6.36,1.35-12.84,2.1-19.33,2.23c-6.49,0.13-12.98-0.36-19.37-1.47c-6.39-1.1-12.66-2.83-18.7-5.13
		C404.14,328.29,398.31,325.41,392.8,322.01L392.8,322.01z M369.49,305.52c-4.43-4.88-8.4-10.18-11.81-15.82
		c-3.41-5.63-6.29-11.59-8.57-17.75c-2.28-6.17-3.98-12.54-5.07-19.02c-1.09-6.47-1.56-13.05-1.41-19.61
		c0.16-6.56,0.93-13.1,2.33-19.5c1.39-6.4,3.42-12.66,6.01-18.66c2.6-6.01,5.77-11.76,9.45-17.16c3.68-5.4,7.87-10.44,12.5-15.03
		c4.63-4.59,9.69-8.75,15.11-12.36c5.41-3.62,11.18-6.72,17.17-9.24c5.99-2.53,12.23-4.49,18.58-5.83
		c6.36-1.35,12.84-2.09,19.33-2.22s12.98,0.36,19.37,1.47c6.39,1.1,12.66,2.83,18.71,5.13c6.05,2.3,11.87,5.18,17.37,8.57l0.01,0.01
		l0.01,0c0,0,0,0,0.01,0.01l0,0c0.52,0.31,1.11,0.38,1.65,0.25c0.54-0.14,1.03-0.48,1.34-0.99s0.38-1.11,0.24-1.65
		c-0.14-0.54-0.48-1.03-1-1.34c-5.78-3.46-11.89-6.37-18.22-8.68c-6.33-2.3-12.86-4.01-19.51-5.06c-6.64-1.06-13.37-1.47-20.08-1.25
		c-6.71,0.22-13.4,1.08-19.94,2.57c-6.54,1.48-12.93,3.59-19.06,6.27c-6.13,2.68-12.01,5.95-17.52,9.74
		c-5.51,3.79-10.65,8.12-15.32,12.89c-4.67,4.77-8.89,9.98-12.57,15.55c-3.69,5.56-6.84,11.47-9.39,17.63
		c-2.56,6.15-4.53,12.55-5.85,19.07c-1.34,6.52-2.03,13.16-2.09,19.81c-0.07,6.64,0.5,13.29,1.69,19.82
		c1.19,6.53,2.99,12.94,5.38,19.12c2.39,6.18,5.36,12.13,8.87,17.75c3.5,5.61,7.56,10.89,12.07,15.72
		c4.51,4.83,9.48,9.23,14.84,13.1C378.83,314.86,373.93,310.41,369.49,305.52z M398.25,313.07L398.25,313.07
		c-0.01-0.01-0.01-0.01-0.02-0.01c0,0-0.01,0-0.01-0.01c-0.52-0.31-1.11-0.38-1.65-0.24c-0.54,0.14-1.03,0.48-1.34,1
		c-0.31,0.51-0.38,1.11-0.25,1.65c0.14,0.54,0.48,1.03,1,1.34c5.2,3.11,10.69,5.72,16.37,7.79c5.68,2.07,11.56,3.6,17.52,4.55
		c5.96,0.95,12.01,1.33,18.03,1.13c6.03-0.2,12.03-0.96,17.9-2.29c5.87-1.32,11.61-3.2,17.13-5.59c5.51-2.4,10.8-5.32,15.75-8.71
		c4.96-3.39,9.58-7.25,13.79-11.52c4.21-4.27,8.02-8.93,11.34-13.91c3.32-4.98,6.17-10.27,8.49-15.78
		c2.33-5.51,4.12-11.23,5.35-17.08c1.23-5.84,1.88-11.8,1.98-17.76c0.09-5.96-0.38-11.92-1.41-17.78
		c-1.02-5.86-2.61-11.62-4.71-17.18c-2.1-5.56-4.72-10.92-7.83-15.98c-3.1-5.06-6.69-9.81-10.7-14.18
		c-4.01-4.37-8.43-8.35-13.19-11.86c4.71,3.59,9.06,7.63,12.99,12.04c3.93,4.42,7.43,9.21,10.44,14.28
		c3.01,5.07,5.53,10.43,7.53,15.97c2,5.55,3.47,11.27,4.4,17.08c0.93,5.81,1.3,11.7,1.12,17.57c-0.18,5.87-0.92,11.72-2.21,17.44
		c-1.29,5.72-3.14,11.31-5.5,16.67c-2.36,5.36-5.23,10.49-8.55,15.31c-3.32,4.81-7.1,9.3-11.27,13.39c-4.17,4.09-8.72,7.78-13.58,11
		c-4.86,3.22-10.03,5.97-15.4,8.21c-5.37,2.24-10.95,3.97-16.65,5.16c-5.69,1.19-11.49,1.84-17.29,1.94s-11.61-0.35-17.32-1.36
		c-5.71-0.99-11.31-2.55-16.72-4.61C408.38,318.69,403.17,316.12,398.25,313.07L398.25,313.07z M376.61,297.8
		c-3.93-4.42-7.43-9.21-10.44-14.28c-3.01-5.07-5.54-10.43-7.54-15.97c-2-5.55-3.48-11.27-4.4-17.08c-0.93-5.81-1.3-11.7-1.12-17.57
		c0.18-5.87,0.92-11.72,2.21-17.44c1.29-5.72,3.14-11.31,5.5-16.67c2.36-5.36,5.23-10.49,8.55-15.31c3.32-4.81,7.1-9.3,11.27-13.39
		c4.17-4.09,8.72-7.78,13.58-10.99c4.86-3.22,10.03-5.97,15.4-8.21c5.37-2.24,10.95-3.97,16.65-5.16
		c5.69-1.19,11.49-1.84,17.29-1.94c5.8-0.1,11.61,0.35,17.32,1.36c5.71,0.99,11.32,2.55,16.72,4.61c5.41,2.07,10.61,4.64,15.53,7.68
		l0.01,0.01l0.01,0.01c0,0,0.01,0,0.01,0.01c0,0,0,0,0.01,0c0.51,0.31,1.11,0.38,1.65,0.24c0.54-0.14,1.03-0.48,1.34-1
		c0.31-0.51,0.38-1.11,0.24-1.65c-0.14-0.54-0.48-1.03-0.99-1.34c-5.2-3.11-10.69-5.72-16.37-7.79c-5.68-2.07-11.56-3.6-17.52-4.55
		c-5.96-0.95-12.01-1.33-18.04-1.14c-6.02,0.2-12.03,0.96-17.9,2.29c-5.87,1.32-11.62,3.2-17.13,5.6c-5.51,2.4-10.8,5.31-15.75,8.71
		c-4.96,3.39-9.58,7.25-13.79,11.52c-4.21,4.27-8.01,8.93-11.34,13.91c-3.32,4.98-6.17,10.27-8.5,15.78
		c-2.32,5.51-4.12,11.23-5.34,17.08c-1.22,5.84-1.88,11.8-1.98,17.76c-0.09,5.96,0.38,11.93,1.41,17.79
		c1.03,5.86,2.61,11.62,4.71,17.18c2.1,5.56,4.72,10.92,7.83,15.97c3.1,5.06,6.7,9.81,10.7,14.18c4.01,4.37,8.43,8.35,13.19,11.86
		C384.89,306.25,380.53,302.21,376.61,297.8z M403.7,304.13L403.7,304.13c-0.01-0.01-0.01-0.01-0.02-0.01c0,0-0.01-0.01-0.01-0.01
		c-0.52-0.31-1.11-0.38-1.65-0.24c-0.54,0.14-1.03,0.48-1.34,1s-0.38,1.11-0.24,1.65c0.14,0.54,0.48,1.03,1,1.34
		c4.61,2.75,9.48,5.06,14.52,6.89c5.04,1.84,10.25,3.2,15.53,4.04c5.29,0.85,10.65,1.18,15.99,1.02s10.66-0.83,15.87-2
		c5.21-1.16,10.3-2.81,15.19-4.92c4.89-2.11,9.58-4.68,13.98-7.67c4.4-2.99,8.51-6.39,12.26-10.15c3.75-3.76,7.14-7.87,10.1-12.28
		c2.96-4.4,5.51-9.07,7.59-13.93c2.09-4.87,3.71-9.92,4.84-15.09c1.13-5.16,1.75-10.43,1.87-15.71c0.12-5.27-0.26-10.56-1.13-15.75
		c-0.87-5.19-2.22-10.3-4.04-15.23c-1.82-4.94-4.09-9.7-6.8-14.19c-2.7-4.5-5.83-8.74-9.34-12.64c-3.51-3.9-7.38-7.46-11.55-10.62
		c4.12,3.23,7.92,6.85,11.34,10.8c3.42,3.95,6.46,8.22,9.07,12.73c2.61,4.52,4.78,9.27,6.5,14.19c1.71,4.92,2.97,9.99,3.73,15.13
		c0.76,5.14,1.05,10.35,0.84,15.54c-0.21,5.18-0.91,10.35-2.11,15.39c-1.19,5.04-2.87,9.96-4.99,14.68
		c-2.12,4.72-4.68,9.23-7.64,13.46c-2.96,4.24-6.32,8.18-10.02,11.76c-3.7,3.59-7.75,6.82-12.05,9.63
		c-4.3,2.82-8.88,5.22-13.63,7.17c-4.75,1.95-9.68,3.46-14.71,4.48c-5.03,1.03-10.14,1.58-15.26,1.65
		c-5.12,0.07-10.24-0.34-15.27-1.24c-5.03-0.89-9.97-2.27-14.74-4.1C412.62,309.1,408.04,306.83,403.7,304.13L403.7,304.13z
		 M383.73,290.05c-3.42-3.95-6.47-8.22-9.07-12.73c-2.61-4.52-4.78-9.27-6.5-14.19c-1.71-4.92-2.97-9.99-3.73-15.13
		c-0.77-5.14-1.05-10.35-0.84-15.54c0.21-5.18,0.9-10.35,2.11-15.39c1.19-5.04,2.87-9.96,4.98-14.68c2.12-4.72,4.69-9.23,7.64-13.47
		c2.96-4.24,6.32-8.18,10.02-11.76c3.7-3.59,7.75-6.81,12.05-9.63c4.31-2.82,8.88-5.22,13.63-7.17c4.75-1.96,9.68-3.46,14.71-4.49
		s10.15-1.58,15.26-1.65c5.12-0.07,10.24,0.34,15.27,1.24c5.03,0.89,9.97,2.27,14.74,4.1c4.76,1.83,9.35,4.11,13.68,6.79l0.01,0.01
		l0,0c0.01,0,0.01,0.01,0.01,0.01c0,0,0.01,0.01,0.01,0c0.51,0.31,1.11,0.38,1.65,0.24c0.54-0.14,1.03-0.48,1.34-1
		c0.31-0.52,0.38-1.11,0.24-1.65c-0.14-0.54-0.48-1.03-1-1.34c-4.61-2.75-9.48-5.06-14.52-6.89c-5.04-1.84-10.25-3.2-15.53-4.04
		c-5.29-0.85-10.65-1.18-15.99-1.02c-5.34,0.17-10.66,0.84-15.87,2c-5.21,1.16-10.3,2.81-15.19,4.92
		c-4.89,2.11-9.58,4.68-13.98,7.67c-4.4,2.99-8.51,6.39-12.26,10.15c-3.75,3.76-7.14,7.87-10.1,12.27c-2.96,4.4-5.5,9.07-7.59,13.93
		c-2.09,4.86-3.71,9.92-4.84,15.09c-1.13,5.16-1.76,10.43-1.87,15.71c-0.12,5.27,0.26,10.55,1.13,15.75
		c0.87,5.19,2.22,10.3,4.04,15.23c1.82,4.94,4.1,9.69,6.8,14.19c2.71,4.5,5.84,8.74,9.34,12.64c3.5,3.9,7.37,7.46,11.55,10.62
		C390.95,297.62,387.15,294,383.73,290.05z M409.14,295.2L409.14,295.2c-0.01-0.01-0.02-0.01-0.02-0.01c0,0-0.01-0.01-0.01-0.01
		c-0.52-0.31-1.11-0.38-1.65-0.24c-0.54,0.14-1.03,0.48-1.34,1c-0.31,0.52-0.38,1.11-0.24,1.65c0.14,0.54,0.48,1.03,1,1.34
		c4.03,2.39,8.28,4.4,12.67,6c4.39,1.6,8.93,2.79,13.55,3.52c4.61,0.74,9.28,1.04,13.93,0.91c4.66-0.14,9.3-0.71,13.84-1.71
		c4.54-1,8.98-2.42,13.25-4.25c4.27-1.82,8.36-4.04,12.21-6.62c3.85-2.58,7.45-5.53,10.73-8.79c3.28-3.26,6.25-6.83,8.85-10.65
		c2.6-3.81,4.85-7.86,6.7-12.08c1.85-4.22,3.3-8.61,4.31-13.09c1.02-4.49,1.61-9.07,1.76-13.65c0.16-4.59-0.12-9.19-0.84-13.71
		c-0.7-4.53-1.84-8.98-3.37-13.29c-1.53-4.31-3.47-8.47-5.77-12.41c-2.3-3.94-4.97-7.66-7.97-11.09c-3-3.43-6.32-6.58-9.9-9.37
		c3.53,2.87,6.78,6.07,9.7,9.55c2.92,3.48,5.5,7.23,7.7,11.19c2.21,3.96,4.04,8.12,5.46,12.41c1.43,4.29,2.46,8.71,3.06,13.18
		c0.62,4.47,0.8,9,0.56,13.5c-0.24,4.5-0.91,8.97-1.99,13.33c-1.08,4.36-2.58,8.62-4.46,12.69c-1.88,4.07-4.15,7.97-6.75,11.61
		c-2.59,3.65-5.54,7.05-8.77,10.14c-3.23,3.09-6.76,5.86-10.52,8.27c-3.75,2.41-7.73,4.47-11.86,6.13
		c-4.13,1.66-8.41,2.94-12.77,3.81c-4.36,0.87-8.8,1.33-13.23,1.37c-4.44,0.04-8.87-0.33-13.23-1.13
		c-4.36-0.79-8.63-1.99-12.75-3.59C416.87,299.51,412.9,297.53,409.14,295.2L409.14,295.2z M390.86,282.3
		c-2.92-3.48-5.5-7.23-7.7-11.19c-2.2-3.95-4.04-8.12-5.46-12.4c-1.43-4.29-2.46-8.71-3.06-13.19c-0.62-4.47-0.8-9-0.56-13.49
		c0.24-4.5,0.91-8.97,1.99-13.33c1.08-4.36,2.58-8.62,4.46-12.69c1.88-4.07,4.15-7.97,6.75-11.61c2.59-3.66,5.53-7.05,8.77-10.14
		c3.24-3.09,6.76-5.86,10.52-8.27c3.75-2.41,7.73-4.47,11.86-6.13c4.13-1.67,8.41-2.95,12.77-3.81c4.36-0.87,8.8-1.33,13.23-1.37
		c4.44-0.04,8.87,0.34,13.23,1.13c4.36,0.79,8.63,2,12.75,3.59c4.12,1.6,8.09,3.58,11.84,5.9l0,0l0.01,0.01c0,0,0.01,0.01,0.01,0.01
		s0.01,0.01,0.01,0.01c0.52,0.31,1.11,0.38,1.65,0.24c0.54-0.14,1.03-0.48,1.34-1s0.38-1.11,0.24-1.65c-0.14-0.54-0.48-1.03-1-1.34
		c-4.03-2.39-8.27-4.41-12.66-6c-4.4-1.6-8.93-2.79-13.55-3.52c-4.61-0.74-9.28-1.04-13.94-0.91c-4.66,0.14-9.3,0.71-13.83,1.71
		c-4.54,1-8.99,2.42-13.26,4.24c-4.27,1.82-8.36,4.04-12.2,6.63c-3.85,2.58-7.45,5.53-10.73,8.79c-3.28,3.26-6.25,6.83-8.85,10.65
		c-2.6,3.81-4.85,7.86-6.7,12.08s-3.3,8.61-4.31,13.09c-1.02,4.48-1.61,9.06-1.77,13.65c-0.15,4.59,0.12,9.19,0.84,13.71
		c0.71,4.53,1.84,8.98,3.37,13.29c1.53,4.31,3.46,8.47,5.77,12.41c2.3,3.94,4.97,7.66,7.97,11.09c2.99,3.43,6.31,6.58,9.9,9.37
		C397.03,288.99,393.78,285.78,390.86,282.3z M414.59,286.26L414.59,286.26c-0.01-0.01-0.02-0.01-0.02-0.01
		c-0.01-0.01-0.01-0.01-0.02-0.01c-0.52-0.3-1.11-0.37-1.65-0.23c-0.54,0.14-1.03,0.48-1.34,1c-0.31,0.52-0.37,1.11-0.23,1.65
		c0.14,0.54,0.48,1.03,1,1.34c3.44,2.03,7.07,3.75,10.82,5.11c3.75,1.36,7.62,2.38,11.56,3.01c3.93,0.64,7.92,0.91,11.89,0.8
		c3.97-0.1,7.93-0.58,11.8-1.42c3.88-0.84,7.66-2.03,11.31-3.57s7.15-3.4,10.44-5.58c3.29-2.18,6.37-4.67,9.18-7.43
		c2.81-2.75,5.37-5.77,7.61-9c2.22-3.23,4.17-6.66,5.78-10.24s2.89-7.29,3.79-11.1c0.91-3.8,1.45-7.69,1.63-11.59
		c0.18-3.9,0-7.81-0.55-11.66c-0.54-3.85-1.44-7.65-2.68-11.34c-1.24-3.68-2.82-7.25-4.71-10.63c-1.89-3.38-4.1-6.59-6.59-9.55
		c-2.49-2.96-5.25-5.69-8.25-8.13c2.94,2.51,5.64,5.29,8.04,8.3c2.41,3.01,4.53,6.24,6.33,9.64c1.8,3.39,3.28,6.96,4.41,10.62
		c1.14,3.66,1.94,7.43,2.38,11.22c0.45,3.8,0.54,7.64,0.27,11.45c-0.27,3.81-0.89,7.59-1.86,11.27c-0.96,3.69-2.29,7.27-3.93,10.7
		c-1.65,3.43-3.6,6.7-5.82,9.78c-2.24,3.06-4.77,5.91-7.53,8.49c-2.77,2.58-5.77,4.9-8.97,6.92c-3.2,2.01-6.58,3.72-10.09,5.09
		c-3.51,1.38-7.14,2.43-10.83,3.14c-3.69,0.71-7.45,1.07-11.2,1.08c-3.75,0.01-7.5-0.32-11.18-1.01c-3.68-0.68-7.29-1.72-10.77-3.08
		C421.11,289.92,417.76,288.24,414.59,286.26L414.59,286.26z M398.02,274.53c-2.41-3.01-4.53-6.24-6.33-9.64
		c-1.8-3.4-3.28-6.96-4.42-10.62c-1.14-3.66-1.94-7.43-2.38-11.22c-0.45-3.81-0.53-7.64-0.27-11.45c0.27-3.81,0.89-7.59,1.86-11.27
		c0.96-3.69,2.29-7.27,3.93-10.7c1.64-3.43,3.6-6.7,5.82-9.78c2.24-3.06,4.77-5.91,7.53-8.49c2.77-2.58,5.77-4.9,8.97-6.92
		c3.2-2.01,6.58-3.72,10.09-5.09c3.51-1.38,7.14-2.43,10.83-3.14s7.45-1.07,11.2-1.08c3.75-0.01,7.5,0.32,11.18,1.01
		c3.68,0.68,7.29,1.72,10.77,3.08c3.48,1.36,6.83,3.04,9.99,5.01l0.01,0.01l0.01,0c0.01,0.01,0.01,0.01,0.01,0.01
		c0.01,0.01,0.01,0.01,0.02,0.01c0.52,0.3,1.11,0.37,1.65,0.23c0.54-0.14,1.03-0.48,1.34-1c0.31-0.52,0.38-1.11,0.24-1.65
		c-0.14-0.54-0.49-1.03-1-1.33c-3.44-2.04-7.07-3.75-10.82-5.11c-3.75-1.36-7.62-2.38-11.56-3.01c-3.93-0.64-7.91-0.9-11.88-0.79
		c-3.97,0.1-7.93,0.58-11.8,1.42c-3.88,0.84-7.67,2.03-11.31,3.57c-3.65,1.53-7.15,3.4-10.44,5.58c-3.29,2.18-6.37,4.68-9.18,7.43
		c-2.81,2.75-5.37,5.77-7.61,9c-2.22,3.23-4.17,6.66-5.78,10.24s-2.89,7.29-3.79,11.1c-0.91,3.8-1.45,7.69-1.63,11.59
		c-0.18,3.9,0,7.81,0.55,11.66c0.54,3.85,1.44,7.65,2.68,11.34c1.24,3.68,2.82,7.25,4.71,10.63c1.89,3.38,4.1,6.59,6.59,9.55
		c2.49,2.96,5.25,5.69,8.25,8.13C403.11,280.33,400.42,277.54,398.02,274.53z M420.04,277.32L420.04,277.32
		c-0.01-0.01-0.02-0.01-0.03-0.02c-0.01-0.01-0.02-0.01-0.03-0.01c-0.52-0.31-1.11-0.37-1.65-0.23c-0.54,0.14-1.03,0.49-1.33,1.01
		c-0.31,0.52-0.37,1.11-0.23,1.65s0.49,1.03,1.01,1.33c2.85,1.68,5.86,3.09,8.96,4.22c3.11,1.13,6.31,1.97,9.56,2.5
		c3.25,0.54,6.55,0.76,9.84,0.68c3.28-0.08,6.56-0.45,9.77-1.13c3.21-0.67,6.35-1.64,9.37-2.89c3.02-1.25,5.93-2.78,8.66-4.56
		c2.74-1.78,5.3-3.81,7.65-6.06c2.35-2.25,4.49-4.71,6.38-7.35c1.89-2.64,3.54-5.44,4.91-8.38c1.37-2.93,2.46-5.99,3.26-9.12
		c0.8-3.13,1.3-6.33,1.51-9.54c0.2-3.21,0.11-6.44-0.28-9.62c-0.75-6.38-2.72-12.58-5.7-18.23c-2.99-5.64-7-10.73-11.83-14.87
		c4.72,4.28,8.55,9.45,11.34,15.12c2.79,5.67,4.55,11.83,5.11,18.09c0.29,3.13,0.29,6.28,0,9.4c-0.29,3.12-0.86,6.21-1.73,9.21
		c-0.86,3.01-2,5.93-3.4,8.72c-1.4,2.79-3.05,5.44-4.94,7.92c-1.88,2.47-4,4.77-6.29,6.84c-2.3,2.08-4.79,3.94-7.43,5.55
		c-2.64,1.61-5.42,2.98-8.31,4.07c-2.89,1.1-5.86,1.93-8.89,2.47c-3.03,0.55-6.1,0.81-9.17,0.8c-3.07-0.02-6.13-0.32-9.13-0.9
		c-3-0.58-5.95-1.44-8.78-2.56C425.35,280.33,422.62,278.95,420.04,277.32L420.04,277.32z M400.23,258.66
		c-2.79-5.67-4.55-11.83-5.11-18.09c-0.29-3.13-0.29-6.28,0-9.4c0.29-3.12,0.86-6.21,1.73-9.22c0.85-3,2-5.93,3.4-8.71
		c1.4-2.79,3.06-5.44,4.94-7.92c1.88-2.48,4-4.77,6.3-6.84c2.3-2.08,4.79-3.94,7.43-5.55c2.64-1.61,5.42-2.98,8.31-4.08
		c2.88-1.1,5.86-1.93,8.89-2.47c3.03-0.55,6.11-0.81,9.17-0.8c3.07,0.02,6.13,0.32,9.13,0.9c3,0.58,5.95,1.44,8.78,2.56
		c2.83,1.12,5.56,2.5,8.14,4.12l0.01,0.01l0,0c0.01,0.01,0.02,0.01,0.03,0.01c0.01,0.01,0.01,0.01,0.02,0.01
		c0.52,0.31,1.11,0.37,1.65,0.23c0.54-0.14,1.03-0.49,1.34-1.01c0.3-0.52,0.37-1.11,0.23-1.65c-0.14-0.54-0.49-1.03-1.01-1.33
		c-2.85-1.68-5.86-3.09-8.96-4.22c-3.11-1.13-6.31-1.97-9.57-2.5c-3.25-0.54-6.55-0.76-9.83-0.69c-3.29,0.08-6.56,0.45-9.77,1.13
		c-3.21,0.67-6.35,1.64-9.37,2.89c-3.02,1.25-5.92,2.78-8.65,4.56c-2.74,1.78-5.3,3.81-7.65,6.06c-2.35,2.25-4.49,4.71-6.38,7.35
		c-1.89,2.63-3.54,5.44-4.9,8.37c-1.37,2.93-2.46,5.99-3.26,9.12c-0.8,3.13-1.3,6.32-1.5,9.54c-0.2,3.21-0.11,6.44,0.27,9.62
		c0.76,6.38,2.72,12.58,5.71,18.22c2.99,5.64,6.99,10.73,11.83,14.87C406.86,269.5,403.03,264.33,400.23,258.66z M425.48,268.38
		l-0.01-0.01c-0.01-0.01-0.02-0.01-0.03-0.02c-0.01-0.01-0.02-0.01-0.03-0.02c-0.52-0.3-1.12-0.36-1.66-0.22
		c-0.54,0.14-1.02,0.49-1.33,1.02c-0.3,0.52-0.36,1.11-0.22,1.66c0.15,0.54,0.5,1.02,1.01,1.32c2.27,1.31,4.66,2.42,7.12,3.31
		c2.46,0.89,5,1.55,7.57,1.97c2.58,0.43,5.18,0.61,7.78,0.56c2.6-0.05,5.18-0.33,7.72-0.85c5.08-1.01,9.94-2.97,14.3-5.71
		c4.36-2.74,8.21-6.26,11.25-10.38c1.51-2.06,2.85-4.25,3.99-6.53c1.13-2.28,2.07-4.66,2.76-7.11c0.71-2.44,1.17-4.95,1.4-7.47
		c0.23-2.52,0.22-5.07-0.01-7.58c-0.45-5.03-1.84-9.95-4.02-14.46s-5.17-8.62-8.82-12.03c3.52,3.54,6.33,7.72,8.32,12.25
		c2,4.53,3.17,9.4,3.43,14.31c0.13,2.45,0.05,4.92-0.26,7.35c-0.31,2.43-0.84,4.83-1.61,7.15c-0.75,2.32-1.72,4.57-2.89,6.7
		s-2.52,4.17-4.02,6.07c-3.02,3.81-6.77,6.98-10.94,9.39c-4.17,2.41-8.76,4.07-13.48,4.83c-2.36,0.39-4.75,0.56-7.13,0.52
		c-2.38-0.04-4.76-0.3-7.08-0.77c-2.33-0.47-4.61-1.15-6.8-2.04c-2.2-0.88-4.31-1.96-6.31-3.21L425.48,268.38z M408.81,252.4
		c-1.99-4.53-3.17-9.4-3.43-14.31c-0.13-2.45-0.05-4.91,0.26-7.35c0.31-2.43,0.84-4.83,1.61-7.15c0.75-2.32,1.72-4.57,2.89-6.7
		c1.17-2.14,2.52-4.17,4.02-6.07c3.02-3.8,6.77-6.98,10.93-9.39c4.17-2.41,8.76-4.06,13.48-4.83c2.36-0.39,4.75-0.56,7.13-0.52
		c2.39,0.04,4.76,0.3,7.08,0.77c2.33,0.47,4.6,1.15,6.8,2.04c2.2,0.88,4.31,1.96,6.31,3.21l0.01,0.01l0.01,0.01
		c0.01,0.01,0.02,0.01,0.03,0.02c0.01,0.01,0.02,0.01,0.03,0.02c0.52,0.3,1.11,0.36,1.65,0.22c0.54-0.14,1.02-0.49,1.33-1.02
		c0.3-0.52,0.36-1.11,0.22-1.66c-0.14-0.54-0.49-1.02-1.01-1.32c-2.27-1.31-4.66-2.42-7.12-3.31c-2.46-0.89-5-1.55-7.57-1.97
		c-2.57-0.43-5.18-0.61-7.77-0.56c-2.6,0.05-5.19,0.33-7.72,0.85c-5.07,1.01-9.94,2.98-14.3,5.72c-4.36,2.74-8.2,6.26-11.25,10.38
		c-1.51,2.06-2.85,4.25-3.99,6.53c-1.13,2.28-2.07,4.66-2.76,7.1c-0.71,2.45-1.17,4.95-1.4,7.47c-0.22,2.52-0.22,5.07,0.01,7.58
		c0.45,5.03,1.84,9.95,4.02,14.46c2.19,4.52,5.17,8.62,8.82,12.03C413.62,261.12,410.81,256.93,408.81,252.4z M430.94,259.45
		L430.94,259.45c-0.02-0.01-0.04-0.02-0.05-0.03c-0.01-0.01-0.03-0.02-0.04-0.02c-0.52-0.3-1.12-0.36-1.65-0.21
		c-0.54,0.15-1.02,0.5-1.32,1.02c-0.3,0.52-0.36,1.12-0.21,1.65c0.15,0.54,0.5,1.02,1.02,1.32c3.36,1.93,7.05,3.23,10.83,3.87
		c3.78,0.64,7.66,0.62,11.39-0.1c3.75-0.67,7.34-2.06,10.57-4c3.23-1.95,6.11-4.46,8.43-7.4c2.35-2.9,4.14-6.23,5.3-9.75
		c1.16-3.52,1.7-7.23,1.56-10.9c-0.14-3.68-0.95-7.3-2.34-10.67c-1.38-3.37-3.35-6.48-5.79-9.14c2.31,2.78,4.09,5.96,5.29,9.34
		c1.19,3.37,1.8,6.94,1.76,10.49c-0.05,3.55-0.75,7.06-2.01,10.34c-1.27,3.28-3.11,6.31-5.43,8.91c-2.3,2.62-5.06,4.79-8.1,6.42
		c-3.04,1.63-6.36,2.72-9.75,3.15c-3.39,0.47-6.84,0.31-10.14-0.42C436.92,262.57,433.77,261.27,430.94,259.45L430.94,259.45z
		 M417.48,246.08c-1.19-3.37-1.8-6.94-1.76-10.49c0.05-3.55,0.75-7.06,2.01-10.34c1.27-3.28,3.11-6.31,5.43-8.91
		c2.3-2.62,5.06-4.79,8.1-6.42c3.04-1.63,6.36-2.71,9.75-3.15c3.39-0.47,6.84-0.31,10.14,0.42c3.3,0.73,6.46,2.04,9.29,3.85
		l0.01,0.01l0,0c0.02,0.01,0.03,0.02,0.04,0.03c0.02,0.01,0.03,0.02,0.04,0.02c0.53,0.3,1.12,0.36,1.66,0.21s1.02-0.5,1.32-1.02
		c0.3-0.52,0.36-1.12,0.21-1.65c-0.15-0.54-0.5-1.02-1.02-1.32c-3.36-1.93-7.05-3.23-10.83-3.87c-3.78-0.64-7.66-0.62-11.39,0.1
		c-3.75,0.68-7.34,2.06-10.57,4.01c-3.23,1.94-6.1,4.46-8.42,7.39c-2.35,2.91-4.14,6.24-5.3,9.75c-1.16,3.52-1.7,7.23-1.56,10.9
		c0.14,3.68,0.95,7.3,2.34,10.67c1.38,3.37,3.35,6.48,5.79,9.14C420.46,252.63,418.68,249.45,417.48,246.08z"/>
	<path d="M547.7,293.48c-5.52,0.21-9.67-0.95-12.34-3.46c-2.92-2.74-3.23-6.34-3.26-7.35l0-1.29c0.03-1.04,0.34-4.65,3.26-7.38
		c2.67-2.51,6.81-3.67,12.34-3.45l0.7,0.03l28.89-33.81l-43.73,8.12l-0.33,0.62c-2.57,4.89-5.65,7.9-9.16,8.96
		c-3.83,1.16-7.11-0.37-7.99-0.85l-1.12-0.65c-0.89-0.54-3.85-2.61-4.76-6.51c-0.83-3.57,0.23-7.75,3.18-12.42l0.37-0.59
		l-14.84-41.93l-14.84,41.93l0.37,0.59c2.94,4.67,4.01,8.85,3.18,12.42c-0.91,3.9-3.88,5.97-4.73,6.49l-1.12,0.65
		c-0.91,0.5-4.19,2.03-8.02,0.87c-3.51-1.06-6.59-4.08-9.16-8.96l-0.33-0.62l-43.73-8.12l28.89,33.81l0.7-0.03
		c5.52-0.21,9.67,0.95,12.34,3.45c2.92,2.74,3.23,6.34,3.26,7.35l0,1.29c-0.03,1.04-0.34,4.65-3.26,7.38
		c-2.67,2.51-6.83,3.67-12.34,3.46l-0.7-0.03l-28.89,33.81l43.73-8.12l0.33-0.62c2.57-4.89,5.65-7.9,9.16-8.96
		c3.83-1.16,7.11,0.37,7.99,0.85l1.12,0.64c0.89,0.54,3.85,2.61,4.77,6.51c0.83,3.57-0.23,7.75-3.18,12.42l-0.37,0.59l14.84,41.93
		l14.84-41.93l-0.37-0.59c-2.94-4.67-4.01-8.85-3.18-12.42c0.91-3.9,3.88-5.97,4.73-6.49l1.12-0.64c0.91-0.5,4.19-2.03,8.02-0.87
		c3.51,1.06,6.59,4.08,9.16,8.96l0.33,0.62l43.73,8.12l-28.89-33.81L547.7,293.48z M498.91,296.66c-8.07,0-14.64-6.57-14.64-14.64
		c0-8.07,6.57-14.64,14.64-14.64s14.64,6.57,14.64,14.64C513.56,290.09,506.99,296.66,498.91,296.66z"/>
	<path d="M420.41,166.66c-5.39,1.19-9.68,0.79-12.76-1.21c-3.36-2.17-4.31-5.67-4.51-6.65l-0.23-1.27
		c-0.16-1.03-0.49-4.63,1.89-7.84c2.19-2.94,6.05-4.82,11.53-5.59l0.7-0.1l22.42-38.41l-41.59,15.76l-0.21,0.67
		c-1.66,5.26-4.16,8.78-7.42,10.45c-3.56,1.82-7.06,0.9-8.01,0.58L381,132.6c-0.97-0.38-4.26-1.89-5.85-5.56
		c-1.46-3.36-1.15-7.67,0.92-12.79l0.26-0.65l-22.05-38.63l-7.15,43.9l0.47,0.52c3.73,4.07,5.52,7.99,5.34,11.66
		c-0.2,4-2.76,6.56-3.5,7.23l-0.99,0.84c-0.81,0.65-3.77,2.74-7.74,2.28c-3.64-0.42-7.21-2.84-10.61-7.19l-0.43-0.55l-44.48-0.21
		l34.44,28.14l0.69-0.15c5.4-1.19,9.68-0.79,12.76,1.21c3.36,2.17,4.31,5.67,4.51,6.65l0.23,1.27c0.16,1.03,0.49,4.63-1.89,7.84
		c-2.18,2.94-6.07,4.82-11.53,5.59l-0.7,0.1l-22.42,38.41l41.59-15.76l0.21-0.67c1.66-5.26,4.16-8.78,7.42-10.45
		c3.56-1.82,7.06-0.9,8.02-0.58l1.21,0.44c0.97,0.38,4.26,1.89,5.85,5.56c1.46,3.36,1.15,7.67-0.92,12.79l-0.26,0.65l22.05,38.63
		l7.15-43.9l-0.47-0.52c-3.73-4.07-5.52-7.99-5.34-11.65c0.2-4,2.76-6.56,3.51-7.23l0.98-0.83c0.81-0.65,3.76-2.74,7.74-2.28
		c3.64,0.42,7.21,2.84,10.61,7.19l0.43,0.55l44.48,0.21l-34.44-28.14L420.41,166.66z M372.97,178.45
		c-7.95,1.43-15.58-3.86-17.01-11.81s3.86-15.58,11.81-17.01c7.95-1.43,15.58,3.86,17.01,11.81
		C386.21,169.39,380.92,177.02,372.97,178.45z"/>
</g>
</svg>
