<?xml version="1.0" encoding="utf-8"?>
<!-- Generator: Adobe Illustrator 24.0.1, SVG Export Plug-In . SVG Version: 6.00 Build 0)  -->
<svg version="1.1" id="Layer_1" xmlns="http://www.w3.org/2000/svg" xmlns:xlink="http://www.w3.org/1999/xlink" x="0px" y="0px"
	 viewBox="0 0 891.39 456.79" style="enable-background:new 0 0 891.39 456.79;" xml:space="preserve">
<style type="text/css">
	.st0{opacity:0;fill:#FFFFFF;}
	.st1{fill:url(#SVGID_1_);}
	.st2{fill:#FFFFFF;}
	.st3{fill:#292929;}
	.st4{fill-rule:evenodd;clip-rule:evenodd;}
	.st5{fill:#F4F4F4;}
	.st6{fill-rule:evenodd;clip-rule:evenodd;fill:#FEFEFE;}
</style>
<g>
	<rect x="0" y="0" class="st0" width="891.39" height="456.79"/>
	<linearGradient id="SVGID_1_" gradientUnits="userSpaceOnUse" x1="293.1193" y1="235.3309" x2="613.5918" y2="235.3309">
		<stop  offset="5.617738e-03" style="stop-color:#8C6A33"/>
		<stop  offset="0.139" style="stop-color:#9A7638"/>
		<stop  offset="0.3542" style="stop-color:#A9843E"/>
		<stop  offset="0.5225" style="stop-color:#AF8940"/>
		<stop  offset="1" style="stop-color:#8C6A33"/>
	</linearGradient>
	<path class="st1" d="M564.33,350.51c7.05-7.19,13.45-15.06,19.09-23.5c5.64-8.43,10.52-17.43,14.53-26.84
		c4.02-9.41,7.16-19.22,9.41-29.26c2.24-10.04,3.58-20.31,3.97-30.63c0.4-10.32-0.15-20.68-1.62-30.91
		c-1.48-10.23-3.89-20.32-7.2-30.1c-3.3-9.78-7.51-19.23-12.54-28.2c-5.03-8.97-10.89-17.45-17.47-25.29
		c6.72,7.72,12.73,16.1,17.94,25c5.21,8.9,9.61,18.32,13.12,28.1c3.51,9.78,6.12,19.91,7.79,30.22c1.68,10.31,2.43,20.78,2.2,31.25
		c-0.21,10.46-1.38,20.92-3.48,31.18c-2.1,10.26-5.13,20.32-9.06,30c-3.92,9.69-8.75,18.99-14.38,27.74
		c-5.63,8.75-12.05,16.97-19.16,24.49c-0.43,0.46-1,0.69-1.57,0.69c-0.57,0-1.14-0.21-1.58-0.66c-0.44-0.45-0.66-1.03-0.67-1.62
		c-0.01-0.59,0.21-1.18,0.64-1.64c0,0,0.01-0.01,0.01-0.02C564.32,350.52,564.33,350.51,564.33,350.51z M316.74,319.58
		c-5.03-8.97-9.25-18.42-12.55-28.2c-3.31-9.77-5.71-19.87-7.19-30.09c-1.48-10.23-2.03-20.59-1.62-30.91
		c0.39-10.31,1.73-20.58,3.97-30.62c2.24-10.04,5.39-19.85,9.41-29.25c4.01-9.41,8.89-18.4,14.53-26.84
		c5.64-8.43,12.04-16.31,19.09-23.5c0,0,0.01-0.01,0.01-0.02c0.01,0,0.01-0.01,0.01-0.02c0.43-0.46,0.64-1.05,0.64-1.64
		c0-0.59-0.23-1.18-0.67-1.63c-0.44-0.44-1.01-0.66-1.58-0.66c-0.57,0.01-1.13,0.24-1.57,0.69c-7.11,7.52-13.54,15.74-19.16,24.49
		c-5.62,8.76-10.45,18.05-14.38,27.74c-3.93,9.68-6.96,19.74-9.06,30c-2.1,10.26-3.27,20.71-3.48,31.18
		c-0.22,10.47,0.52,20.94,2.2,31.25c1.68,10.31,4.29,20.44,7.79,30.22c3.5,9.78,7.9,19.2,13.11,28.1c5.21,8.9,11.23,17.28,17.94,25
		C327.63,337.03,321.77,328.54,316.74,319.58z M361.4,353.39c-0.01,0-0.01-0.01-0.02-0.02c-0.48-0.4-1.07-0.55-1.64-0.48
		c-0.57,0.07-1.11,0.36-1.49,0.86c-0.38,0.5-0.53,1.11-0.46,1.7c0.06,0.59,0.35,1.15,0.83,1.54c7.41,6.09,15.38,11.45,23.74,15.98
		c8.36,4.54,17.13,8.26,26.16,11.07c9.02,2.82,18.29,4.74,27.64,5.75c9.35,1.01,18.79,1.12,28.14,0.3
		c9.35-0.8,18.62-2.53,27.65-5.13c9.03-2.6,17.81-6.07,26.2-10.37c8.39-4.29,16.37-9.41,23.81-15.26
		c7.45-5.85,14.35-12.42,20.59-19.6c-6.38,7.05-13.39,13.46-20.92,19.13c-7.52,5.67-15.56,10.59-23.96,14.68
		c-8.4,4.09-17.17,7.35-26.15,9.74c-8.98,2.38-18.16,3.9-27.39,4.49c-9.23,0.61-18.5,0.32-27.66-0.86s-18.2-3.25-26.97-6.19
		c-8.77-2.93-17.25-6.74-25.31-11.32s-15.7-9.96-22.78-16.02C361.41,353.4,361.41,353.4,361.4,353.39z M365.07,111.77
		c7.52-5.67,15.56-10.6,23.96-14.68c8.41-4.09,17.17-7.35,26.15-9.74c8.97-2.38,18.16-3.9,27.39-4.49
		c9.23-0.61,18.51-0.32,27.66,0.87c9.16,1.18,18.2,3.25,26.97,6.19c8.77,2.93,17.25,6.74,25.31,11.32
		c8.06,4.59,15.7,9.96,22.78,16.02c0,0,0.01,0.01,0.01,0.02c0.01,0,0.01,0.01,0.02,0.01c0.48,0.4,1.07,0.55,1.64,0.48
		c0.57-0.07,1.11-0.36,1.49-0.86c0.38-0.5,0.53-1.12,0.47-1.7c-0.07-0.59-0.35-1.15-0.83-1.54c-7.41-6.09-15.38-11.45-23.74-15.98
		c-8.36-4.54-17.13-8.26-26.16-11.07c-9.02-2.82-18.29-4.75-27.64-5.76c-9.35-1.01-18.79-1.12-28.14-0.3
		c-9.36,0.8-18.62,2.52-27.65,5.12c-9.03,2.6-17.81,6.07-26.2,10.37c-8.39,4.29-16.37,9.41-23.81,15.26s-14.35,12.41-20.59,19.59
		C350.52,123.85,357.54,117.44,365.07,111.77z M567.13,311.9c0,0.01-0.01,0.02-0.01,0.02c-0.33,0.54-0.41,1.16-0.29,1.74
		c0.12,0.57,0.46,1.1,0.98,1.44c0.52,0.34,1.12,0.43,1.68,0.3c0.55-0.13,1.06-0.48,1.39-1.02c4.68-7.68,8.66-15.81,11.88-24.24
		c3.22-8.43,5.67-17.17,7.3-26.07c1.64-8.89,2.45-17.94,2.45-26.97c0-9.04-0.81-18.06-2.42-26.92c-1.6-8.87-4.01-17.56-7.17-25.94
		c-3.16-8.38-7.07-16.45-11.67-24.06c-4.59-7.61-9.88-14.76-15.76-21.32c-5.88-6.57-12.35-12.55-19.29-17.84
		c6.84,5.45,13.16,11.57,18.89,18.23c5.71,6.67,10.83,13.89,15.22,21.54c4.41,7.65,8.11,15.72,11.06,24.07
		c2.95,8.35,5.15,16.97,6.54,25.73c1.4,8.75,2.01,17.63,1.83,26.49c-0.19,8.85-1.17,17.67-2.94,26.32
		c-1.77,8.65-4.33,17.1-7.63,25.22c-3.29,8.13-7.32,15.93-12.01,23.26C567.14,311.88,567.14,311.89,567.13,311.9z M351.62,331.41
		c-5.72-6.67-10.83-13.89-15.22-21.54c-4.4-7.65-8.1-15.72-11.05-24.07c-2.95-8.35-5.14-16.97-6.54-25.73
		c-1.41-8.75-2.01-17.63-1.83-26.48c0.19-8.85,1.16-17.68,2.94-26.32c1.77-8.64,4.33-17.1,7.63-25.22
		c3.29-8.13,7.32-15.93,12.01-23.26c0-0.01,0.01-0.02,0.01-0.02s0.01-0.02,0.01-0.02c0.33-0.54,0.41-1.17,0.29-1.74
		c-0.13-0.58-0.46-1.1-0.98-1.44c-0.52-0.34-1.12-0.43-1.68-0.3c-0.55,0.13-1.06,0.48-1.39,1.01c-4.68,7.68-8.66,15.81-11.88,24.24
		c-3.22,8.43-5.67,17.17-7.29,26.07c-1.64,8.9-2.45,17.94-2.45,26.97c0,9.03,0.81,18.06,2.42,26.92c1.6,8.86,4.01,17.55,7.17,25.93
		c3.16,8.38,7.07,16.45,11.66,24.06c4.59,7.61,9.88,14.76,15.76,21.32c5.88,6.56,12.35,12.55,19.29,17.85
		C363.66,344.19,357.34,338.07,351.62,331.41z M396.68,350.88c-0.01,0-0.01-0.01-0.02-0.01c-0.55-0.28-1.16-0.3-1.7-0.12
		c-0.54,0.19-1.01,0.59-1.28,1.17c-0.27,0.57-0.29,1.2-0.11,1.76c0.18,0.56,0.57,1.05,1.12,1.33c7.22,3.71,14.77,6.7,22.52,8.95
		c7.75,2.25,15.68,3.74,23.68,4.43c8,0.71,16.05,0.62,24.01-0.24c7.97-0.85,15.84-2.47,23.51-4.83c7.66-2.35,15.1-5.46,22.19-9.24
		c7.09-3.78,13.84-8.24,20.12-13.31c6.28-5.07,12.09-10.74,17.34-16.93c5.25-6.18,9.93-12.87,13.96-19.95
		c-4.19,6.98-9.02,13.53-14.37,19.56c-5.36,6.03-11.26,11.53-17.6,16.39c-6.33,4.87-13.1,9.12-20.19,12.68
		c-7.08,3.56-14.47,6.44-22.05,8.57c-7.58,2.14-15.34,3.54-23.15,4.18c-7.81,0.64-15.67,0.54-23.44-0.34
		c-7.77-0.86-15.45-2.5-22.91-4.86c-7.46-2.36-14.7-5.44-21.6-9.18C396.69,350.89,396.69,350.89,396.68,350.88z M359.08,147.2
		c5.36-6.03,11.26-11.53,17.6-16.4c6.33-4.87,13.11-9.12,20.19-12.68c7.09-3.56,14.48-6.44,22.06-8.57
		c7.58-2.14,15.34-3.54,23.15-4.18c7.81-0.65,15.66-0.54,23.43,0.34c7.77,0.87,15.45,2.51,22.91,4.87c7.46,2.36,14.7,5.44,21.6,9.19
		c0.01,0,0.01,0.01,0.03,0.01c0.01,0,0.01,0.01,0.02,0.01c0.55,0.28,1.16,0.3,1.7,0.12c0.54-0.19,1.01-0.59,1.28-1.16
		c0.27-0.57,0.29-1.2,0.11-1.76c-0.18-0.56-0.57-1.05-1.12-1.33c-7.22-3.7-14.77-6.7-22.52-8.95c-7.75-2.25-15.68-3.74-23.68-4.43
		c-7.99-0.71-16.04-0.62-24.01,0.23c-7.96,0.85-15.84,2.47-23.5,4.83c-7.66,2.35-15.1,5.45-22.19,9.23
		c-7.09,3.78-13.84,8.24-20.11,13.31c-6.29,5.07-12.09,10.75-17.34,16.93c-5.25,6.18-9.93,12.87-13.96,19.94
		C348.9,159.79,353.72,153.23,359.08,147.2z M560.04,277.8c0,0.01-0.01,0.02-0.01,0.03c-0.21,0.6-0.17,1.23,0.07,1.77
		s0.67,0.98,1.25,1.2c0.58,0.22,1.19,0.18,1.7-0.07c0.51-0.25,0.94-0.7,1.15-1.3c2.54-7.17,4.44-14.57,5.67-22.09
		c1.23-7.51,1.78-15.14,1.63-22.74c-0.14-7.6-0.98-15.18-2.47-22.6c-1.49-7.43-3.65-14.7-6.43-21.69c-2.77-7-6.17-13.72-10.14-20.05
		s-8.48-12.28-13.49-17.72c-5-5.46-10.5-10.41-16.38-14.79c-5.88-4.38-12.15-8.18-18.7-11.35c6.47,3.34,12.63,7.3,18.37,11.81
		c5.74,4.51,11.08,9.57,15.9,15.11c4.83,5.53,9.15,11.52,12.9,17.86c3.75,6.34,6.93,13.04,9.48,19.98
		c2.56,6.93,4.49,14.11,5.77,21.39c1.28,7.28,1.91,14.68,1.87,22.07c-0.04,7.39-0.75,14.76-2.12,21.99
		c-1.36,7.23-3.37,14.33-5.99,21.16C560.04,277.78,560.04,277.79,560.04,277.8z M384.45,332.45c-5.74-4.51-11.08-9.58-15.9-15.11
		c-4.83-5.53-9.15-11.52-12.89-17.86c-3.75-6.35-6.93-13.04-9.48-19.98c-2.56-6.94-4.49-14.11-5.77-21.39
		c-1.28-7.28-1.91-14.68-1.86-22.07c0.04-7.39,0.75-14.76,2.12-21.99c1.36-7.23,3.37-14.33,5.99-21.16c0,0,0.01-0.02,0.01-0.03
		c0-0.01,0.01-0.02,0.01-0.03c0.22-0.6,0.17-1.23-0.07-1.76c-0.24-0.54-0.67-0.98-1.25-1.2c-0.58-0.22-1.19-0.18-1.7,0.07
		c-0.52,0.25-0.94,0.7-1.16,1.3c-2.54,7.17-4.44,14.57-5.67,22.09c-1.23,7.51-1.78,15.14-1.63,22.74c0.14,7.6,0.98,15.17,2.47,22.6
		c1.49,7.42,3.65,14.7,6.43,21.69c2.77,7,6.17,13.72,10.13,20.05c3.96,6.33,8.48,12.27,13.49,17.72
		c5.01,5.45,10.5,10.41,16.38,14.78c5.88,4.38,12.15,8.19,18.7,11.35C396.35,340.93,390.19,336.97,384.45,332.45z M426.74,339.24
		c-0.01,0-0.02-0.01-0.03-0.01c-0.59-0.15-1.19-0.04-1.68,0.26c-0.49,0.3-0.86,0.8-1.01,1.42c-0.15,0.62-0.04,1.24,0.25,1.75
		c0.29,0.51,0.77,0.9,1.37,1.05c6.46,1.67,13.06,2.73,19.7,3.15c6.63,0.42,13.29,0.2,19.87-0.66c6.58-0.86,13.06-2.36,19.35-4.46
		c6.29-2.1,12.39-4.79,18.19-8.04c5.81-3.24,11.31-7.05,16.43-11.33c5.12-4.28,9.85-9.05,14.11-14.23
		c4.26-5.17,8.05-10.75,11.31-16.63c3.26-5.89,5.99-12.08,8.14-18.47c-2.32,6.33-5.21,12.42-8.61,18.17
		c-3.4,5.76-7.31,11.18-11.67,16.17c-4.36,4.99-9.16,9.56-14.31,13.62c-5.15,4.07-10.66,7.64-16.43,10.64
		c-5.77,3.02-11.8,5.47-17.98,7.33c-6.18,1.86-12.52,3.13-18.91,3.77c-6.39,0.65-12.83,0.67-19.2,0.08
		c-6.38-0.59-12.7-1.79-18.84-3.58C426.76,339.24,426.75,339.24,426.74,339.24z M362.6,179.44c3.4-5.76,7.31-11.18,11.67-16.17
		c4.36-5,9.15-9.56,14.31-13.62c5.16-4.07,10.66-7.64,16.43-10.64c5.77-3.01,11.8-5.47,17.98-7.33c6.18-1.86,12.52-3.13,18.91-3.77
		c6.39-0.65,12.83-0.67,19.2-0.08c6.38,0.59,12.7,1.79,18.84,3.58c0.01,0,0.02,0,0.03,0.01c0.01,0,0.02,0.01,0.03,0.01
		c0.59,0.15,1.19,0.04,1.68-0.26c0.49-0.3,0.86-0.8,1.01-1.42c0.15-0.62,0.04-1.24-0.25-1.75c-0.29-0.51-0.77-0.9-1.36-1.05
		c-6.46-1.68-13.07-2.73-19.7-3.15c-6.63-0.42-13.29-0.2-19.86,0.66c-6.58,0.86-13.06,2.36-19.35,4.45
		c-6.29,2.1-12.39,4.79-18.19,8.04c-5.8,3.24-11.31,7.04-16.43,11.32c-5.12,4.28-9.85,9.05-14.11,14.22
		c-4.27,5.17-8.06,10.75-11.32,16.63c-3.26,5.89-5.99,12.08-8.13,18.47C356.3,191.29,359.2,185.2,362.6,179.44z M545.18,250.13
		c0,0.01,0,0.03-0.01,0.03c-0.08,0.63,0.09,1.24,0.43,1.71c0.34,0.47,0.86,0.8,1.47,0.89c0.61,0.08,1.19-0.09,1.64-0.45
		c0.46-0.35,0.78-0.89,0.86-1.52c0.82-6.13,1.09-12.32,0.82-18.49c-0.27-6.16-1.09-12.29-2.45-18.28c-1.35-6-3.24-11.84-5.62-17.45
		c-2.38-5.62-5.25-11-8.57-16.05c-3.31-5.06-7.06-9.8-11.19-14.13c-4.13-4.34-8.64-8.28-13.45-11.75
		c-4.81-3.48-9.92-6.48-15.25-8.97c-5.33-2.49-10.87-4.47-16.53-5.9c5.62,1.61,11.07,3.77,16.29,6.42
		c5.22,2.65,10.19,5.79,14.84,9.38c4.65,3.58,8.97,7.61,12.9,12.01c3.93,4.39,7.46,9.16,10.55,14.2c3.09,5.05,5.72,10.38,7.86,15.91
		c2.14,5.52,3.8,11.25,4.92,17.07c1.13,5.83,1.74,11.74,1.81,17.67c0.08,5.92-0.36,11.84-1.33,17.66
		C545.18,250.1,545.18,250.11,545.18,250.13z M413.07,324.48c-5.22-2.65-10.19-5.79-14.83-9.39c-4.65-3.58-8.97-7.61-12.9-12.01
		c-3.93-4.39-7.46-9.16-10.54-14.2c-3.09-5.05-5.72-10.38-7.86-15.9c-2.15-5.53-3.8-11.25-4.92-17.07
		c-1.13-5.82-1.74-11.74-1.81-17.66c-0.08-5.92,0.36-11.84,1.33-17.66c0-0.01,0-0.02,0-0.04c0-0.01,0-0.02,0.01-0.03
		c0.08-0.63-0.09-1.24-0.43-1.71c-0.35-0.47-0.86-0.81-1.47-0.89c-0.61-0.09-1.19,0.09-1.64,0.44c-0.46,0.36-0.78,0.9-0.86,1.52
		c-0.82,6.13-1.09,12.32-0.82,18.49c0.27,6.16,1.09,12.29,2.45,18.28c1.35,5.99,3.24,11.84,5.62,17.45c2.38,5.61,5.25,11,8.56,16.05
		c3.31,5.06,7.07,9.8,11.2,14.13c4.13,4.34,8.64,8.28,13.45,11.75c4.81,3.48,9.92,6.48,15.25,8.97c5.33,2.49,10.87,4.47,16.52,5.9
		C423.75,329.28,418.29,327.12,413.07,324.48z M449.06,320.58c-0.01,0-0.03,0-0.04,0c-0.61-0.02-1.18,0.22-1.59,0.62
		c-0.41,0.41-0.68,0.97-0.7,1.61s0.21,1.22,0.6,1.66c0.39,0.43,0.94,0.71,1.55,0.73c5.26,0.19,10.53-0.13,15.71-0.93
		c5.19-0.8,10.3-2.09,15.24-3.86c4.95-1.76,9.73-4,14.26-6.66c4.54-2.66,8.84-5.74,12.83-9.19c3.99-3.45,7.67-7.27,10.99-11.4
		c3.32-4.13,6.27-8.56,8.8-13.23c2.54-4.66,4.65-9.56,6.32-14.61c1.67-5.05,2.89-10.25,3.64-15.51c-0.93,5.24-2.33,10.37-4.17,15.32
		c-1.83,4.95-4.09,9.72-6.75,14.23c-2.66,4.51-5.71,8.75-9.1,12.67c-3.39,3.92-7.12,7.52-11.12,10.73c-4,3.21-8.28,6.05-12.75,8.45
		c-4.48,2.41-9.16,4.39-13.97,5.9c-4.8,1.52-9.74,2.57-14.71,3.15c-4.98,0.58-10,0.69-14.98,0.33
		C449.09,320.58,449.07,320.58,449.06,320.58z M374.21,205.54c1.83-4.95,4.09-9.72,6.75-14.23c2.66-4.51,5.71-8.76,9.1-12.68
		c3.39-3.92,7.12-7.52,11.12-10.73c4-3.21,8.28-6.05,12.75-8.45c4.48-2.4,9.16-4.38,13.97-5.9c4.81-1.52,9.74-2.57,14.71-3.15
		c4.98-0.58,10-0.69,14.98-0.32c0.01,0,0.02,0,0.04,0c0.01,0,0.03,0,0.04,0c0.62,0.02,1.18-0.22,1.59-0.62
		c0.42-0.41,0.68-0.97,0.7-1.61s-0.21-1.22-0.59-1.65c-0.39-0.43-0.94-0.71-1.55-0.73c-5.26-0.18-10.53,0.13-15.71,0.93
		c-5.19,0.8-10.3,2.09-15.24,3.86c-4.95,1.76-9.72,4-14.26,6.65c-4.54,2.66-8.84,5.74-12.83,9.19c-3.99,3.45-7.67,7.27-10.99,11.39
		c-3.32,4.13-6.27,8.56-8.8,13.23c-2.54,4.66-4.65,9.56-6.32,14.61c-1.67,5.05-2.89,10.25-3.64,15.51
		C370.98,215.63,372.37,210.49,374.21,205.54z M524.83,231.24c0,0.02,0,0.03,0,0.05c0.05,0.63,0.34,1.19,0.77,1.57
		c0.43,0.39,1.01,0.6,1.62,0.55c0.61-0.05,1.14-0.35,1.52-0.8c0.37-0.45,0.57-1.04,0.53-1.68c-0.35-4.72-1.11-9.4-2.26-13.96
		c-1.15-4.56-2.7-9.01-4.61-13.27c-1.92-4.26-4.21-8.33-6.82-12.15c-2.61-3.82-5.55-7.38-8.77-10.64c-3.21-3.26-6.7-6.22-10.41-8.82
		c-3.71-2.6-7.63-4.87-11.72-6.73c-4.08-1.87-8.32-3.35-12.65-4.42c-4.32-1.07-8.73-1.74-13.16-1.98c4.41,0.44,8.77,1.29,13.02,2.54
		c4.24,1.25,8.37,2.89,12.32,4.91c3.94,2.01,7.7,4.39,11.22,7.1c3.52,2.7,6.8,5.73,9.79,9.03c2.99,3.3,5.69,6.87,8.06,10.65
		c2.36,3.78,4.4,7.77,6.07,11.92c1.67,4.15,2.96,8.44,3.88,12.81c0.91,4.37,1.45,8.82,1.6,13.28
		C524.82,231.2,524.82,231.22,524.83,231.24z M434.82,309.17c-4.25-1.25-8.37-2.9-12.32-4.91c-3.94-2.01-7.7-4.39-11.22-7.1
		c-3.52-2.7-6.8-5.73-9.79-9.03c-2.99-3.29-5.69-6.87-8.06-10.65c-2.36-3.78-4.4-7.77-6.07-11.92c-1.67-4.14-2.96-8.44-3.88-12.81
		c-0.91-4.37-1.45-8.82-1.6-13.28c0-0.02,0-0.03,0-0.05c0-0.02,0-0.03,0-0.05c-0.05-0.64-0.34-1.19-0.77-1.57
		c-0.43-0.39-1.01-0.6-1.62-0.55c-0.61,0.05-1.14,0.35-1.52,0.8c-0.37,0.45-0.58,1.05-0.53,1.68c0.35,4.72,1.11,9.4,2.26,13.96
		c1.15,4.56,2.69,9.01,4.61,13.27c1.92,4.26,4.2,8.33,6.82,12.15c2.61,3.82,5.55,7.38,8.77,10.64c3.22,3.26,6.7,6.22,10.41,8.83
		c3.71,2.6,7.64,4.86,11.72,6.73c4.08,1.87,8.32,3.35,12.64,4.42c4.32,1.07,8.73,1.74,13.15,1.98
		C443.42,311.28,439.06,310.42,434.82,309.17z M462.93,297.76L462.93,297.76c-0.02,0-0.04,0-0.05,0.01c-0.02,0-0.04,0.01-0.06,0.01
		c-0.6,0.12-1.1,0.48-1.42,0.96c-0.32,0.49-0.46,1.1-0.35,1.73c0.11,0.63,0.46,1.15,0.93,1.48c0.47,0.33,1.06,0.48,1.67,0.37
		c3.8-0.74,7.52-1.81,11.12-3.22c3.6-1.4,7.07-3.14,10.36-5.17c3.29-2.03,6.39-4.37,9.27-6.96c2.88-2.6,5.53-5.45,7.91-8.51
		c2.38-3.07,4.51-6.34,6.33-9.78c1.83-3.43,3.35-7.03,4.55-10.73c1.21-3.7,2.09-7.5,2.64-11.35c0.55-3.85,0.78-7.74,0.67-11.61
		c-0.07,3.87-0.48,7.73-1.21,11.51c-0.73,3.78-1.78,7.48-3.14,11.05c-1.36,3.57-3.02,7.01-4.95,10.26
		c-1.93,3.25-4.14,6.32-6.58,9.15c-2.44,2.84-5.12,5.44-7.99,7.78c-2.87,2.34-5.93,4.41-9.14,6.17c-3.21,1.77-6.56,3.23-10,4.38
		C470.04,296.43,466.51,297.26,462.93,297.76L462.93,297.76z M391.43,224.16c0.73-3.78,1.78-7.48,3.14-11.05
		c1.35-3.57,3.01-7.01,4.95-10.26c1.93-3.25,4.14-6.31,6.58-9.15c2.44-2.84,5.12-5.44,7.99-7.78s5.93-4.41,9.13-6.17
		c3.21-1.77,6.56-3.23,10-4.37c3.44-1.15,6.97-1.97,10.54-2.47l0.01,0h0c0.02,0,0.03,0,0.05-0.01c0.02,0,0.04,0,0.05-0.01
		c0.6-0.12,1.1-0.47,1.43-0.96c0.32-0.49,0.46-1.1,0.35-1.73c-0.11-0.63-0.46-1.15-0.93-1.48c-0.47-0.34-1.06-0.49-1.67-0.37
		c-3.8,0.73-7.52,1.81-11.12,3.21c-3.6,1.4-7.07,3.14-10.36,5.17c-3.29,2.03-6.39,4.37-9.27,6.96c-2.88,2.59-5.53,5.44-7.91,8.51
		c-2.38,3.07-4.5,6.34-6.33,9.78c-1.82,3.43-3.35,7.03-4.55,10.73c-1.2,3.7-2.09,7.5-2.64,11.35c-0.55,3.84-0.78,7.73-0.67,11.6
		C390.29,231.8,390.69,227.94,391.43,224.16z M501.89,221.86c0.01,0.02,0.01,0.05,0.02,0.07c0.18,0.61,0.58,1.09,1.08,1.37
		c0.5,0.28,1.11,0.36,1.7,0.17c0.59-0.18,1.05-0.59,1.32-1.12c0.27-0.52,0.35-1.15,0.17-1.76c-0.91-3.14-2.09-6.19-3.5-9.11
		c-1.41-2.92-3.06-5.69-4.93-8.3c-1.87-2.6-3.95-5.03-6.21-7.25c-2.26-2.22-4.7-4.23-7.28-6c-2.58-1.77-5.3-3.31-8.12-4.59
		c-2.82-1.28-5.74-2.31-8.72-3.06c-2.97-0.76-6.01-1.23-9.05-1.44c-3.04-0.21-6.09-0.14-9.11,0.2c3.03-0.15,6.06-0.03,9.06,0.37
		s5.94,1.06,8.81,1.98c2.87,0.92,5.65,2.1,8.3,3.51c2.65,1.41,5.19,3.06,7.56,4.91s4.58,3.92,6.59,6.15
		c2.02,2.23,3.84,4.65,5.45,7.2c1.61,2.55,2.99,5.24,4.14,8.02c1.15,2.79,2.06,5.66,2.74,8.6
		C501.87,221.81,501.88,221.83,501.89,221.86z M448.41,289.24c-2.99-0.39-5.94-1.05-8.81-1.98c-2.87-0.92-5.65-2.1-8.3-3.51
		c-2.65-1.42-5.19-3.06-7.55-4.92c-2.37-1.85-4.58-3.91-6.59-6.15c-2.01-2.24-3.84-4.65-5.44-7.2c-1.61-2.55-2.99-5.24-4.14-8.02
		c-1.14-2.79-2.06-5.66-2.73-8.6c0-0.02-0.01-0.05-0.02-0.07s-0.01-0.05-0.02-0.07c-0.18-0.61-0.58-1.09-1.08-1.37
		s-1.11-0.36-1.69-0.17c-0.59,0.18-1.05,0.6-1.32,1.12c-0.27,0.52-0.35,1.15-0.17,1.76c0.91,3.14,2.09,6.18,3.5,9.1
		c1.41,2.91,3.06,5.69,4.93,8.3c1.86,2.61,3.95,5.03,6.21,7.25c2.26,2.22,4.7,4.23,7.28,6c2.58,1.77,5.3,3.31,8.12,4.59
		c2.82,1.28,5.74,2.31,8.72,3.06c2.98,0.76,6.01,1.23,9.05,1.44c3.04,0.21,6.09,0.14,9.1-0.2
		C454.44,289.77,451.41,289.64,448.41,289.24z M467.58,273.65c-0.03,0.01-0.06,0.02-0.08,0.03c-0.57,0.25-0.97,0.72-1.18,1.27
		c-0.21,0.55-0.22,1.18,0.03,1.77c0.24,0.58,0.69,1.01,1.22,1.23c0.53,0.22,1.14,0.22,1.7-0.03c2.25-1.01,4.42-2.22,6.46-3.6
		c2.05-1.38,3.98-2.93,5.76-4.64c1.78-1.71,3.42-3.56,4.9-5.54c1.48-1.98,2.79-4.08,3.92-6.27c1.13-2.19,2.08-4.47,2.84-6.81
		s1.33-4.73,1.71-7.16c0.38-2.42,0.55-4.87,0.53-7.31c-0.02-2.43-0.24-4.86-0.65-7.25c0.23,2.41,0.26,4.83,0.1,7.23
		c-0.16,2.4-0.52,4.78-1.06,7.1c-0.54,2.32-1.28,4.59-2.18,6.77c-0.9,2.18-1.97,4.27-3.2,6.26c-1.23,1.98-2.61,3.85-4.13,5.58
		s-3.17,3.32-4.93,4.76c-1.76,1.43-3.64,2.7-5.59,3.8c-1.95,1.1-3.99,2.03-6.08,2.77C467.64,273.63,467.61,273.64,467.58,273.65z
		 M411.86,234.06c0.16-2.4,0.52-4.77,1.06-7.09c0.54-2.32,1.28-4.59,2.18-6.77c0.9-2.18,1.97-4.27,3.2-6.26
		c1.23-1.98,2.61-3.85,4.13-5.58c1.52-1.73,3.17-3.32,4.93-4.75c1.76-1.44,3.64-2.7,5.59-3.8c1.95-1.1,3.99-2.03,6.08-2.77
		c0.03-0.01,0.06-0.02,0.08-0.03c0.03-0.01,0.06-0.02,0.08-0.03c0.57-0.25,0.97-0.72,1.19-1.27c0.2-0.55,0.21-1.18-0.03-1.76
		c-0.24-0.59-0.69-1.01-1.22-1.23c-0.53-0.22-1.14-0.22-1.7,0.03c-2.25,1.01-4.42,2.22-6.46,3.6c-2.05,1.38-3.98,2.93-5.77,4.64
		c-1.78,1.7-3.42,3.56-4.9,5.53c-1.48,1.98-2.78,4.08-3.91,6.27c-1.13,2.19-2.09,4.47-2.85,6.81c-0.76,2.34-1.33,4.73-1.71,7.16
		c-0.38,2.42-0.55,4.87-0.53,7.3c0.02,2.43,0.24,4.87,0.65,7.25C411.73,238.89,411.7,236.46,411.86,234.06z M479.14,221.8
		c0.02,0.04,0.04,0.08,0.06,0.12c0.31,0.56,0.8,0.93,1.35,1.08c0.55,0.15,1.16,0.08,1.69-0.23c0.53-0.32,0.89-0.83,1.04-1.4
		c0.14-0.57,0.08-1.2-0.23-1.76l0-0.01l-0.01-0.01c-1.75-3.14-3.98-5.96-6.54-8.33c-2.57-2.38-5.46-4.32-8.56-5.72
		c-3.09-1.42-6.38-2.3-9.68-2.65c-3.3-0.35-6.64-0.16-9.83,0.57c3.25-0.35,6.52-0.14,9.65,0.57c3.13,0.71,6.13,1.92,8.85,3.57
		c2.73,1.64,5.16,3.72,7.21,6.12c2.05,2.39,3.73,5.1,4.94,7.98C479.1,221.72,479.12,221.76,479.14,221.8z M448.62,266.66
		c-3.13-0.71-6.13-1.92-8.85-3.57c-2.72-1.64-5.16-3.72-7.21-6.12c-2.06-2.39-3.73-5.1-4.94-7.98c-0.01-0.04-0.03-0.08-0.05-0.12
		c-0.02-0.04-0.04-0.08-0.06-0.12c-0.31-0.55-0.8-0.92-1.35-1.07c-0.55-0.15-1.16-0.09-1.69,0.23c-0.53,0.32-0.89,0.83-1.04,1.4
		c-0.14,0.57-0.08,1.2,0.23,1.75l0,0.01l0.01,0.01c1.75,3.14,3.98,5.96,6.54,8.34c2.56,2.38,5.46,4.32,8.56,5.72
		c3.09,1.41,6.37,2.3,9.68,2.65c3.3,0.35,6.63,0.17,9.82-0.56C455.02,267.58,451.75,267.37,448.62,266.66z"/>
	<g>
		<g>
			<path class="st2" d="M319.17,237.36c-34.97-1.74-69.67-4.12-104.54-7.21c-0.71-0.07-1.06-0.1-1.77-0.17c0,0.01,0,0.02,0,0.03
				c-0.35-0.04-3.92-0.43-4.92-0.53c-2.04-0.2-3.06-0.3-5.09-0.5c-2.46-0.24-4.85-0.47-7.26-0.73c-0.08-0.03-0.12-0.04-0.2-0.06
				c-17.11-1.87-33.28-3.75-48.16-5.71c-31.16-4.1-62.48-8.3-93.47-13.99c-12.91-4.98-24.45-13.93-29.19-22.74
				c6.88,1.12,10.31,1.67,17.19,2.78c21.34,3.55,43.46,6.95,65.5,9.78c32.59,4.19,65.62,7.89,98.26,10.74
				c33.06,2.89,66.69,5,99.9,6.46c99.88,4.41,200.99,0.66,301.16-6.65c0.21,0.5,0.4,1.08,0.59,1.77c0.52,1.96,0.76,3.98,0.93,5.68
				c0.07,0.72,0.26,2.87,0.26,2.87c0.04,0.41,0.07,0.83,0.09,1.24c0.02,0.58,0.02,1.21-0.02,1.85c-0.12,2.48-0.6,4.9-1.16,7.58
				c-0.02,0.08-0.03,0.12-0.04,0.2c-0.06,0.02-0.08,0.03-0.14,0.05C511.62,237.8,414.94,240.72,319.17,237.36z"/>
			<path d="M606.6,208.02c0.28,9.04,0.41,13.57,0.69,22.61c84.2-7.82,167.05-20.04,249.91-36.94c0.14-0.03,0.35,0.03,0.43-0.09
				c3.4-5.13,0.48-20.77-4.65-24.15c-0.07-0.04-0.15,0.03-0.23,0.05C771.49,186.82,689.44,198.97,606.6,208.02z"/>
			<g>
				<g>
					<path class="st3" d="M654.91,287.08c-1.43-1.61-2.76-3.32-4-5.07c-0.94,0.21-1.9,0.38-2.84,0.49
						c-1.23,0.14-2.45,0.22-3.66,0.25c-0.59,0.02-1.17,0.03-1.75,0.03c-0.63,0.01-1.29,0.06-1.94,0.17c-1.24,0.19-2.46,0.56-3.62,1
						c-0.41,0.15-0.79,0.34-1.19,0.5c-4.92,4.11-9.64,8.33-13.97,12.61c-3.8,3.76-7.45,7.65-10.82,11.57
						c-0.31,0.36-0.46,0.53-0.77,0.89c0.46,0.15,0.69,0.23,1.15,0.38c3.15,1.05,6.59,1.86,10.21,2.41c3.03,0.45,6.23,0.72,9.5,0.79
						c0.7,0.02,1.05,0.02,1.75,0.04c0.11-0.47,0.17-0.7,0.29-1.17c1.08-4.42,2.58-8.91,4.44-13.32c1.21-2.88,2.64-5.76,4.19-8.63
						c0.16,1.56,0.29,3.14,0.53,4.66c0.55,3.55,1.33,7.07,2.33,10.45c0.09,0.31,0.14,0.46,0.23,0.77c0.46-0.18,0.68-0.27,1.14-0.44
						c3.14-1.22,6.26-2.69,9.29-4.36c2.53-1.4,5.02-2.97,7.39-4.66c0.51-0.36,0.76-0.54,1.27-0.9c-0.32-0.25-0.48-0.38-0.81-0.63
						C660.2,292.51,657.4,289.87,654.91,287.08z"/>
				</g>
				<g>
					<path class="st3" d="M752.09,255c-0.13-2.39-0.64-6.49-3.19-6.36c-30.38,5.04-61.01,9.08-91.58,12.79
						c-0.01,0.02,0,0.06-0.04,0.07c-0.12,0.03-0.18,0.05-0.29,0.08c-0.76,0.2-1.52,0.41-2.3,0.52c-0.78,0.11-1.57,0.13-2.34-0.03
						c-0.4-0.08-0.77-0.21-1.15-0.37c-0.34-0.14-0.68-0.27-1.03-0.4c-0.73-0.26-1.47-0.49-2.22-0.65c-0.48-0.1-0.98-0.16-1.47-0.18
						c-2.15,0.25-3.22,0.37-5.36,0.62c-10.79,1.25-22.46,2.83-33.22,4.03c-0.5,0.06-1,0.11-1.52,0.17c-0.48,0.05-0.94,0.2-1.35,0.43
						c-2.44,0.21-4.89,0.41-7.31,0.6c-0.31,0.74-0.46,1.12-0.77,1.86c0.23,0.95,0.35,1.42,0.58,2.37
						c-149.97,11.67-305.62,10.59-454.81-8.32c-0.11,0-0.17,0.01-0.28,0.01c-0.15-0.14-0.43-0.13-0.71-0.12
						c-2.11,8.37-4.07,17.45-3.06,25.99c0.28-0.01,0.57,0.12,1,0.11c0.17-0.01,0.25-0.01,0.43-0.02
						c153.15,15.8,310.08,19.67,463.64,7.18c0.07,0.87,0.49,1.69,1.17,2.26c0.72,0.6,1.69,0.9,2.67,0.8
						c17.22-2.34,25.83-3.53,43.04-5.93c0.8-0.09,1.55-0.45,2.12-1.01c0.65-0.65,0.99-1.52,0.97-2.42
						c31.76-3.75,63.39-7.85,95.05-12.37c2.55-0.14,4.42-2.21,4.28-4.74C752.71,266.37,752.4,260.62,752.09,255z"/>
				</g>
			</g>
			<g>
				<path d="M319.12,238.77c-34.99-1.74-69.72-4.12-104.62-7.21c0,0-0.01,0-0.01,0c0,0.01,0,0.01,0,0.02
					c-0.69-0.06-1.03-0.09-1.72-0.15c0,0-3.91-0.42-4.96-0.53c-2.04-0.2-3.05-0.3-5.09-0.5c-2.47-0.24-4.86-0.47-7.27-0.73
					c-0.16-0.04-0.24-0.06-0.4-0.1c-16.88-1.83-33.06-3.71-47.99-5.68c-31.19-4.11-62.52-8.3-93.55-14
					c-13.6-5.22-25.36-14.44-30.22-23.54c-0.52-0.97-0.78-1.46-1.3-2.43c8,1.3,12,1.95,19.99,3.24c21.36,3.56,43.46,6.94,65.46,9.77
					c32.57,4.19,65.58,7.88,98.19,10.73c33.04,2.88,66.64,4.99,99.84,6.46c99.83,4.41,200.89,0.66,301.02-6.65
					c0.39-0.03,0.59-0.05,0.99-0.08c0.15,0.36,0.23,0.54,0.39,0.91c0.24,0.57,0.46,1.22,0.66,1.99c0.55,2.05,0.8,4.14,0.97,5.9
					c0.07,0.72,0.26,2.88,0.26,2.88c0.04,0.43,0.08,0.87,0.09,1.3c0.02,0.63,0.02,1.3-0.02,1.98c-0.12,2.56-0.61,5.05-1.18,7.8
					c-0.08,0.4-0.12,0.6-0.21,1c-0.43,0.14-0.65,0.21-1.08,0.35C511.79,239.21,414.99,242.13,319.12,238.77z M211.9,228.58
					c1.15,0.1,1.72,0.16,2.86,0.26c34.85,3.08,69.76,5.73,104.46,7.2c94.7,4.02,191.76,0.44,286.9-7.19
					c0.5-2.46,0.88-4.56,0.98-6.65c0.03-0.59,0.03-1.19,0.01-1.75c-0.01-0.38-0.05-0.77-0.09-1.16c0,0-0.18-2.15-0.25-2.86
					c-0.16-1.65-0.4-3.6-0.9-5.47c-0.07-0.25-0.14-0.49-0.21-0.71c-99.9,7.25-200.72,10.97-300.31,6.58
					c-33.24-1.47-66.89-3.58-99.96-6.46c-32.65-2.85-65.7-6.56-98.31-10.75c-22.04-2.83-44.16-6.22-65.55-9.79
					c-5.74-0.93-8.61-1.39-14.35-2.32c5.24,7.73,15.5,15.29,27.06,19.74c30.9,5.65,62.1,9.83,93.16,13.91
					c14.99,1.97,31.24,3.86,48.19,5.7c0.16,0.04,0.24,0.06,0.4,0.1c2.32,0.25,4.62,0.48,6.99,0.7c2.04,0.2,3.05,0.3,5.09,0.5
					C208.76,228.24,210.66,228.45,211.9,228.58z"/>
			</g>
			<g>
				<path d="M305.1,223.14c-33.41-1.65-66.92-3.58-100.01-6.47c-32.67-2.85-65.73-6.55-98.36-10.75
					c-20.89-2.69-41.85-5.88-62.1-9.21c0.18-1.08,0.27-1.61,0.45-2.69c20.21,3.33,41.15,6.52,62,9.2
					c32.59,4.19,65.61,7.89,98.24,10.73c33.05,2.88,66.69,5.02,99.88,6.46c90.63,3.95,182.41,0.97,273.44-4.57
					c0.08,1.09,0.11,1.63,0.19,2.72C487.72,224.11,396.38,226.59,305.1,223.14z"/>
			</g>
			<g>
				<path class="st4" d="M608.8,207.98c-6.29,0.42-18.96,1.18-19.61,2.03c-0.82,1.08,1.32,20.15,2.15,20.91
					c1.14,1.05,18.51-0.06,19.54-1.18c1.49-1.62-0.98-14.07-2.29-19.01C608.67,209.64,608.71,209.09,608.8,207.98z"/>
			</g>
			<g>
				<path class="st4" d="M611.73,247.1c-2.62,0.27-9.03-14.08-8.08-15.41c0.2-0.28,4.11-0.29,4.62-0.7
					c1.46-1.16-1.61-22.59-4.11-23.31c-0.74-0.21-3.35,0.42-3.53,0.26c-2-1.74,1.22-17.47,3.79-17.84
					C612.99,188.87,620.52,245.84,611.73,247.1L611.73,247.1z"/>
			</g>
			<g>
				<path class="st5" d="M593.68,227.6c2.75,0.14,5.52,0.28,8.3,0.57c-2.91,0.43-5.83,0.59-8.77,0.54c-0.15,0-0.23,0-0.38-0.01l0,0
					c0.18-2.74-1.01-10.88-1.11-13.25C592.45,217.52,593.87,225.79,593.68,227.6z"/>
			</g>
			<g>
				<g>
					<path class="st6" d="M849.23,170.95c-1.04,0.2-1.55,0.3-2.59,0.5c1.92,3.06,3.41,6.32,4.28,9.78c0.94,3.73,1.33,8.07,0.84,12.8
						c0.99-0.2,1.48-0.3,2.47-0.5c0.48-4.74,0.12-8.93-0.85-12.8C852.51,177.26,851.01,174.01,849.23,170.95L849.23,170.95z"/>
				</g>
			</g>
			<g>
				<g>
					<path class="st6" d="M621.65,225.31c1.53-2.69,2.3-4.04,3.83-6.73c-2.34-3.07-3.51-4.61-5.84-7.68
						c-1.36,3.13-2.03,4.7-3.4,7.83C618.41,221.36,619.49,222.68,621.65,225.31z"/>
				</g>
			</g>
			<g>
				<g>
					<path class="st6" d="M632.43,224.19c1.52-2.75,2.29-4.13,3.81-6.88c-2.35-3.06-3.52-4.6-5.86-7.67
						c-1.35,3.13-2.02,4.7-3.37,7.84C629.17,220.16,630.26,221.5,632.43,224.19z"/>
				</g>
			</g>
			<g>
				<g>
					<path class="st6" d="M643.2,222.9c1.52-2.76,2.28-4.13,3.79-6.89c-2.36-3.06-3.53-4.59-5.88-7.65
						c-1.34,3.14-2.01,4.71-3.35,7.85C639.93,218.88,641.02,220.22,643.2,222.9z"/>
				</g>
			</g>
			<g>
				<g>
					<path class="st6" d="M653.97,221.58c1.51-2.71,2.27-4.06,3.77-6.76c-2.37-3.05-3.54-4.58-5.9-7.64c-1.33,3.09-2,4.63-3.33,7.72
						C650.69,217.57,651.78,218.91,653.97,221.58z"/>
				</g>
			</g>
			<g>
				<g>
					<path class="st6" d="M664.73,220.23c1.5-2.71,2.26-4.07,3.75-6.78c-2.37-3.05-3.56-4.57-5.92-7.62
						c-1.32,3.09-1.98,4.63-3.31,7.72C661.44,216.23,662.53,217.57,664.73,220.23z"/>
				</g>
			</g>
			<g>
				<g>
					<path class="st6" d="M675.48,218.86c1.5-2.71,2.24-4.07,3.73-6.79c-2.38-3.04-3.57-4.56-5.94-7.6
						c-1.31,3.15-1.97,4.72-3.29,7.87C672.18,214.95,673.28,216.25,675.48,218.86z"/>
				</g>
			</g>
			<g>
				<g>
					<path class="st6" d="M687.07,217.3c1.49-2.72,2.23-4.08,3.72-6.8c-2.39-3.03-3.58-4.55-5.96-7.59
						c-1.3,3.15-1.96,4.73-3.27,7.88C683.76,213.4,684.86,214.7,687.07,217.3z"/>
				</g>
			</g>
			<g>
				<g>
					<path class="st6" d="M698.66,215.85c1.48-2.78,2.22-4.17,3.69-6.95c-2.4-3.03-3.59-4.54-5.98-7.57
						c-1.29,3.16-1.94,4.73-3.24,7.89C695.33,211.87,696.44,213.2,698.66,215.85z"/>
				</g>
			</g>
			<g>
				<g>
					<path class="st6" d="M710.38,214.22c1.41-2.78,2.12-4.17,3.53-6.95c-2.41-3.02-3.61-4.53-6-7.55c-1.29,3.16-1.93,4.74-3.22,7.9
						C706.96,210.26,708.09,211.58,710.38,214.22z"/>
				</g>
			</g>
			<g>
				<g>
					<path class="st6" d="M721.95,212.56c1.41-2.78,2.11-4.18,3.51-6.96c-2.41-2.96-3.62-4.44-6.02-7.4
						c-1.28,3.11-1.92,4.66-3.2,7.77C718.52,208.61,719.66,209.93,721.95,212.56z"/>
				</g>
			</g>
			<g>
				<g>
					<path class="st6" d="M733.51,210.87c1.4-2.73,2.1-4.1,3.49-6.83c-2.42-3.01-3.63-4.51-6.04-7.52c-1.27,3.11-1.9,4.67-3.18,7.78
						C730.07,206.93,731.22,208.25,733.51,210.87z"/>
				</g>
			</g>
			<g>
				<g>
					<path class="st6" d="M745.07,209.15c1.39-2.74,2.09-4.11,3.47-6.84c-2.43-3-3.64-4.5-6.07-7.5c-1.26,3.12-1.89,4.67-3.16,7.79
						C741.62,205.22,742.77,206.53,745.07,209.15z"/>
				</g>
			</g>
			<g>
				<g>
					<path class="st6" d="M755.75,206.87c1.44-2.74,2.16-4.12,3.59-6.86c-2.49-2.99-3.74-4.49-6.22-7.48
						c-1.25,3.12-1.88,4.68-3.13,7.8C752.29,202.95,753.45,204.26,755.75,206.87z"/>
				</g>
			</g>
			<g>
				<g>
					<path class="st6" d="M766.43,204.57c1.43-2.8,2.14-4.2,3.57-7.01c-2.45-2.99-3.67-4.48-6.1-7.47c-1.24,3.18-1.86,4.77-3.1,7.95
						C763.04,200.65,764.17,201.96,766.43,204.57z"/>
				</g>
			</g>
			<g>
				<g>
					<path class="st6" d="M777.28,203.05c1.37-2.75,2.05-4.12,3.42-6.87c-2.45-2.98-3.68-4.47-6.12-7.45
						c-1.23,3.13-1.85,4.69-3.09,7.81C773.8,199.15,774.96,200.45,777.28,203.05z"/>
				</g>
			</g>
			<g>
				<g>
					<path class="st6" d="M788.16,201.36c1.36-2.81,2.04-4.21,3.39-7.02c-2.46-2.92-3.69-4.38-6.14-7.3
						c-1.22,3.13-1.84,4.69-3.07,7.82C784.67,197.47,785.83,198.77,788.16,201.36z"/>
				</g>
			</g>
			<g>
				<g>
					<path class="st6" d="M798.73,199.35c1.25-2.84,1.88-4.26,3.13-7.1c-2.64-2.89-3.95-4.34-6.58-7.24
						c-1.04,3.21-1.56,4.81-2.6,8.02C795.09,195.56,796.3,196.83,798.73,199.35z"/>
				</g>
			</g>
			<g>
				<g>
					<path class="st6" d="M809.23,197.64c1.24-2.84,1.87-4.26,3.11-7.11c-2.65-2.89-3.96-4.33-6.6-7.22
						c-1.03,3.21-1.55,4.82-2.58,8.02C805.58,193.86,806.8,195.13,809.23,197.64z"/>
				</g>
			</g>
			<g>
				<g>
					<path class="st6" d="M820.03,195.69c1.24-2.79,1.86-4.19,3.1-6.98c-2.65-2.88-3.98-4.32-6.62-7.2
						c-1.03,3.16-1.54,4.74-2.58,7.89C816.37,191.92,817.59,193.18,820.03,195.69z"/>
				</g>
			</g>
			<g>
				<g>
					<path class="st6" d="M830.45,193.55c1.24-2.79,1.85-4.19,3.08-6.99c-2.66-2.87-3.99-4.31-6.64-7.19
						c-1.02,3.16-1.53,4.74-2.55,7.9C826.78,189.79,828.01,191.05,830.45,193.55z"/>
				</g>
			</g>
			<g>
				<g>
					<path class="st6" d="M841.5,191.37c1.23-2.8,1.84-4.2,3.06-6.99c-2.67-2.87-4-4.3-6.66-7.17c-1,3.22-1.51,4.83-2.51,8.04
						C837.83,187.7,839.05,188.92,841.5,191.37z"/>
				</g>
			</g>
		</g>
	</g>
</g>
</svg>
