<?xml version="1.0" encoding="utf-8"?>
<!-- Generator: Adobe Illustrator 24.0.1, SVG Export Plug-In . SVG Version: 6.00 Build 0)  -->
<svg version="1.1" id="Layer_1" xmlns="http://www.w3.org/2000/svg" xmlns:xlink="http://www.w3.org/1999/xlink" x="0px" y="0px"
	 viewBox="0 0 891.39 456.79" style="enable-background:new 0 0 891.39 456.79;" xml:space="preserve">
<style type="text/css">
	.st0{opacity:0;fill:#FFFFFF;}
	.st1{fill:#009245;}
	.st2{fill:#005C2B;}
	.st3{fill:#292929;}
	.st4{fill:#FFFFFF;}
	.st5{fill-rule:evenodd;clip-rule:evenodd;}
	.st6{fill-rule:evenodd;clip-rule:evenodd;fill:#FEFEFE;}
	.st7{fill:#F4F4F4;}
</style>
<g>
	<rect x="0" class="st0" width="891.39" height="456.79"/>
	<path class="st1" d="M589.76,180.04l0.12,1.98c-1.76-4.76-2.61-7.64-4.99-12.7c0.56,1.47,1.07,2.85,1.58,4.34l-0.14-0.31
		c-2.21-5.54-5.48-11.99-9.5-18.3c-4.01-7.16-9.16-14.74-15.46-22.11c-6.29-7.38-13.73-14.57-22.08-21.03
		c-0.55-0.42-1.11-0.83-1.66-1.25c-2.13-1.88-5.56-4.53-9.86-7.26c-1.74-1.18-3.84-2.49-5.11-3.34
		c-11.33-7.71-26.69-15.27-44.86-19.89c3.47,0.98,7.06,2.12,10.45,3.33c-5.12-1.68-10.26-3.13-16.17-4.27
		c0.6,0.24,1.37,0.51,1.97,0.76c-8.99-2.3-20.02-3.72-30.33-3.69c-10.32-0.02-19.86,1.33-26.06,2.91c-3.12,0.79-5.13,1.51-6.13,2.06
		c-1,0.55-0.98,0.92-0.03,1.1c1.91,0.38,7.56-0.11,16.58-0.46c0.79-0.03,1.58-0.03,2.37-0.05c-9.07,0.84-16.83,2.63-21.03,4.25
		c-2.26,0.89-0.1,0.95,0.49,1.3c-0.56,0.84,6.48-0.2,15.82-1.11c2.38-0.24,4.67-0.44,6.79-0.61c4.18-0.15,8.4-0.16,12.6,0.02
		c6.82,0.3,13.6,1.06,20.06,2.25c2.04,0.39,4.54,0.77,5.64,0.83c0.95,0.03,0.1-0.34-2.01-0.79c-7.42-1.64-14.75-2.73-22.1-3.3
		c-0.61,0.02-1.21,0.03-1.82,0.06c0.25-0.05,0.58-0.09,0.93-0.13c-0.71-0.05-1.42-0.09-2.13-0.13c0.55-0.02,1.1-0.05,1.67-0.06
		c0.55,0.03,1.09,0.06,1.63,0.09c0.95-0.06,2.08-0.08,3.32-0.08c3.71,0.27,7.4,0.68,11.04,1.22c9.34,1.38,18.37,3.65,26.7,6.59
		c0.67,0.24-0.56,0.17,0.66,0.67l1.89,0.78c-2.06-0.76-4.26-1.5-6.65-2.22c-4.58-1.08-7.77-1.63-10.11-2.03
		c-2.34-0.38-3.82-0.59-5.03-0.75l-0.04-0.01l-0.73-0.09c-1.12-0.14-2.1-0.26-3.52-0.41c0,0,0.01,0.01,0.01,0.03l-0.9-0.08
		c-1.38-0.22-2.76-0.43-4.15-0.6c-1.56-0.21-3.09-0.31-3.87-0.28c-0.54-0.13-1.12-0.25-1.85-0.39c-3.98-0.38-5.99-0.47-8.01-0.57
		c-2.03-0.08-4.08-0.17-8.19-0.14c0,0,0.02,0.08,0.29,0.18l-6.25,0.33l-3.64,0.28c-1.34,0.11-3.26,0.24-7.07,0.68
		c0,0.01,0-0.03,3.71-0.15c0,0.01,0-0.02-3.25,0.18l0.88,0.23l-1.53-0.18l-1.34,0.47l-0.82,0.01c-0.81,0.02-2.43,0.05-5.67,0.23
		c-0.49,0.12-1.66,0.36-4.57,1.1c0,0-0.8,0.26-1.37,0.49c-0.04,0.11-0.05,0.1-2.45,1.04c0,0-0.03,0.13,0.24,0.19
		c0.79-0.07,0.79-0.07,1.05,0.19c0,0,0.88-0.09,2.16-0.26c1.21-0.2,1.52-0.29,6.01-0.94c-0.38,0.12-0.73,0.25-1.05,0.37
		c-0.38,0.37-0.56,0.55,0.07,0.68c0.63,0.13,2.08,0.19,4.95,0.43l8.16-0.43c2.91-0.23,4.37-0.29,5.94-0.37
		c1.57-0.06,3.25-0.13,6.62-0.14c0,0,1.46,0.01,3.99,0.09c1.88,0.24,2.29,0.31,3.68,0.55l0.03,0c-1.28-0.03-2.54-0.01-3.58,0.05
		c-3.02,0.18-3.43,0.53-0.91,0.75c-3.31,0.93-1.29,1.69,2.81,2.54c-1.26,0.28-1.84,0.59-1.68,0.91c-4.81,0.73-7.72,1.73-8.9,2.66
		l-0.52,0.79c1.39,0.57,5.33,0.93,11.09,1.51l1.74,0.23l-1.67,0.58c2.88,0.72,6.85,1.54,11.06,2.57
		c54.33,7.67,101.16,47.42,115.07,103.96c18.26,74.21-27.1,149.17-101.3,167.43c-74.21,18.26-149.17-27.1-167.43-101.3
		c-8.49-34.51-3.21-69.19,12.32-98.24c0.12-0.23,0.21-0.47,0.33-0.7c5.54-10.86,12.45-21.01,20.5-30.13
		c8.05-9.12,17.25-17.21,27.31-24.02c1.98-1.3,3.54-2.43,3.39-2.56c-0.14-0.13-1.95,0.79-3.93,2.1
		c-11.65,7.48-22.25,16.71-31.34,27.3c-9.09,10.58-16.68,22.53-22.4,35.33c0.71-1.83,1.46-3.64,2.25-5.45
		c0.83-1.77,1.69-3.53,2.59-5.26c8.54-15.94,20.02-30.3,33.79-42.16c5.17-4.39,9.54-7.94,9.52-8.59c-0.2-0.48-4.66,2.06-9.76,6.29
		c0.8-0.71,1.6-1.41,2.42-2.11c0.83-0.69,1.38-1.25,1.1-1.13c-0.39,0.19-1.52,1-2.32,1.69c-2.94,2.54-5.7,5.16-8.38,7.88
		c-12.72,11.99-23.26,26.32-30.96,42.05c-7.71,15.72-12.57,32.85-14.27,50.28c1.56-18.78,6.88-37.43,15.64-54.47
		c8.74-17.05,20.93-32.49,35.74-45.02c-0.56,0.55-0.56,0.69,0.23,0.13c0.67-0.49,1.93-1.52,2.51-2.07c0.67-0.63,0.48-0.62-0.21-0.14
		l-0.07,0.05c16.16-13.12,35.26-22.73,55.54-27.94c1.18-0.3,2.18-0.63,2.13-0.73c-0.05-0.09-1.16,0.1-2.47,0.45
		c-16.82,4.36-32.85,11.72-47.03,21.63c-14.2,9.9-26.54,22.3-36.36,36.36c-9.83,14.05-17.12,29.75-21.51,46.1
		c-4.41,16.35-5.89,33.35-4.49,49.95c0.25,3.62,0.63,7.24,1.15,10.86c0,0,0,0-0.01,0.01c-0.23,1.19-0.25,3.63,0.08,6.92
		c-4.58-23.31-3.48-47.63,3.21-70.47c5.78-18.97,15.35-36.76,28.03-52.04c1.83-2.2,3.29-4.1,3.16-4.31
		c-0.1-0.21-1.82,1.45-3.76,3.77c-3.13,3.76-6.06,7.68-8.81,11.73c2.03-3.49,3.32-5.84,3.12-6.32c-0.17-0.47-1.72,0.92-3.94,3.59
		c12.12-18.26,28.11-33.73,46.17-45.21c1.06-0.67,1.59-1.09,1.16-0.94c-0.43,0.15-1.57,0.76-2.61,1.44
		c-26.5,16.49-47.19,40.97-59.38,69.08c-5.17,10.94-9.04,22.39-11.51,34.43c-2.46,12.03-3.51,24.65-2.76,37.83
		c1.13,19.2,5.94,37.51,13.66,54.13c7.73,16.62,18.38,31.49,31.18,44.03c8.97,9.26,19.1,17.34,30.02,23.97
		c-1.64-0.75-2.68-1.12-2.82-0.9c-0.03,0.06,0.05,0.18,0.14,0.31c-9.57-6.02-18.55-13.1-26.76-21.23
		c-19.06-18.83-32.86-42.31-40.16-67.37c-3.67-12.52-5.79-25.44-6.29-38.4c-0.5-12.96,0.62-25.95,3.32-38.57
		c5.38-25.26,17.06-49.05,33.74-68.77c16.63-19.75,38.33-35.38,62.68-44.85c6.23-2.4,10.78-4.1,9.87-4.35
		c-0.88-0.24-6.97,1.22-13.21,3.77c-23.57,9.33-43.86,24.05-59.8,42.4c-15.94,18.36-27.69,40.42-33.91,65.02
		c-4.4,17.52-5.63,34.64-4.27,51.49c1.41,16.84,5.37,33.44,12.46,49.97c8.33,19.33,20.11,36.31,34.46,50.46
		c14.36,14.14,31.31,25.52,50.32,33.4c3.71,1.62,7.5,3.07,11.4,4.31c3.95,1.26,7.93,2.35,11.93,3.28
		c15.66,3.79,31.76,5.15,47.62,4.11c15.86-1.05,31.43-4.46,46.2-10.08c-17.53,7.04-36.29,10.93-55.17,11.44
		c-18.87,0.51-37.77-2.41-55.52-8.42c-2.55-0.88-4.27-1.38-4.08-1.1c0.38,0.35,2.6,1.35,5.17,2.21c12.42,4.22,25.37,6.9,38.46,7.95
		c13.09,1.05,26.3,0.46,39.23-1.73c12.92-2.19,25.55-5.95,37.56-11.22c12.01-5.26,23.35-12.03,33.66-20.1
		c6.15-3.7,15.16-10.55,23.93-20c4.39-4.71,8.73-10.04,12.7-15.76c3.98-5.71,7.57-11.82,10.64-17.96
		c4.52-9.08,7.71-17.98,10.07-27.14c-1.29,4.22-2.7,8.29-4.33,12.38c4.52-12.21,6.68-23.18,7.82-34.03c0.16-0.94,0.3-1.88,0.44-2.89
		c2.03-12.52,2.34-26.44,0.6-40.38C598.53,206.75,594.85,192.85,589.76,180.04z M435.69,88.49c0.68,0.02,1.21,0.07,2.08,0.15
		L435.69,88.49z M447.66,100.44l-0.47-0.1c1.94-0.57,3.9-1.09,5.89-1.56C451.25,99.3,449.44,99.86,447.66,100.44z M481.56,97.51
		c-0.13-0.06-0.26-0.12-0.4-0.18l0.43,0.19L481.56,97.51z M552.69,135.26c-0.91-0.91-2.66-2.72-1.89-1.56
		c-7.27-7.56-15.46-14.47-24.57-20.55c-3.39-2.26-6.85-4.31-10.26-6.1c-3.52-2.52-7.38-5.05-12.64-7.78
		c8.96,4.19,18.78,9.8,27.11,15.95c9.25,6.79,17.59,14.46,24.99,22.88C554.53,137.16,553.63,136.21,552.69,135.26z M572.66,153.23
		c-1.46-2.32-3-4.6-4.59-6.85l0.78,1.31c-6.19-8.63-13.25-16.61-20.97-23.8c-7.21-6.96-15.54-13.52-24.71-19.2
		c-4.74-2.94-9.71-5.64-14.84-8.07c4.4,1.81,8.53,3.7,12.33,5.58c8.08,4.87,15.56,10.36,22.56,16.47
		c8.83,7.72,16.92,16.4,24.36,26.27c0.85,1.19,1.66,2.38,2.46,3.58c1.07,1.79,2.1,3.61,3.1,5.44L572.66,153.23z"/>
	<path class="st1" d="M304,211.53c-3.9,20.01-3.23,39.73,1.15,57.95c-3.99-18.75-4.23-37.89-0.73-56.38
		c3.49-18.48,10.73-36.32,21.52-52.21c0.92-1.4,1.96-2.74,2.67-3.54c0.01-0.1,0.18-0.41,0.46-0.83c2.68-3.99,5.91-8.15,9.48-12.16
		c0.67-0.78,1.6-1.69,2.06-2c0.44-0.32,0.05,0.18-0.7,1.04c-3.53,3.87-6.64,7.76-9.15,11.41c-0.47,0.68-1.05,1.4-1.49,1.94
		c0.31-0.15-0.18,0.73-1.24,2.28c-10.34,15.34-18.09,33.17-21.93,52.05c-1.93,9.43-2.89,19.11-2.82,28.78
		c0.07,9.67,1.16,19.33,3.24,28.73c0.17,0.23,0.4,0.7,0.69,1.52c0.93,2.52,2.36,7.64,3.97,12.91c0.39,1.33,0.79,2.66,1.23,3.97
		c5.34,15.93,13.7,30.81,24.42,43.72c2.36,2.5,5.14,5.35,8.24,8.36c10.65,9.82,22.82,17.95,36.15,24.17c-0.78-0.51-1.22-0.88-1.14-1
		c0.41-0.18,3.53,1.15,7.14,2.74c1.83,0.79,3.67,1.55,5.52,2.26c-5.3-2.14-10.45-4.64-15.4-7.43c-0.72-0.4-1.37-0.78-1.96-1.15
		c-5.44-3.08-10.72-6.55-15.84-10.44c-11.17-8.46-20.88-18.49-28.85-29.6c-7.97-11.1-14.18-23.29-18.51-36.04
		c-4.33-12.77-6.81-26.08-7.32-39.42c-0.52-13.35,0.92-26.75,4.27-39.69c0.19-0.86,0.59-2.17,0.9-2.89c0.23-0.47,0.31-0.35,0.07,0.6
		c-2.06,8.16-3.26,16.21-3.74,24.17c-0.47,7.97-0.24,15.86,0.68,23.77c0.92,7.91,2.53,15.84,4.88,23.87
		c2.37,8.03,5.48,16.15,9.59,24.33c9.77,19.48,24.25,36.2,41.82,48.62c17.55,12.43,38.17,20.56,59.77,23.24
		c22.52,3.26,45.02,0.16,65.38-8.07c20.33-8.24,38.55-21.79,52.68-39.95c9.53-12.26,16.69-26.02,21.26-40.43
		c4.56-14.41,6.53-29.45,5.84-44.32c-0.68-14.86-3.99-29.65-9.68-43.4c-5.69-13.75-13.84-26.5-24.09-37.52
		c-7.74-8.21-16.05-15.16-22.76-20.26c-6.7-5.1-11.73-8.48-12.62-10.06c-0.51-0.93,0.53-1.09,2.83-0.51
		c2.3,0.59,5.84,1.93,10.18,4.19c-1.64-1.04-3.28-2.02-4.95-2.99c-2.61-1.58-5.29-3.07-8.01-4.47c-7.72-3.99-14.6-6.86-18.92-8.87
		c-1.99-0.89-4.01-1.74-6.06-2.54c-4.02-1.83-9.5-3.7-14.95-5.14c-1.15-0.31-2.29-0.59-3.41-0.87c-16.98-2.4-34.69-1.69-52.36,2.65
		c-27.35,6.73-50.76,21.18-68.53,40.43c-8.13,9.46-14.6,19.58-19.7,30.27C310.12,188.12,306.36,199.46,304,211.53z"/>
	<path class="st2" d="M302.16,274.09c18.26,74.21,93.22,119.56,167.43,101.3c74.21-18.26,119.56-93.22,101.3-167.43
		c-13.91-56.54-60.74-96.29-115.07-103.96c1.13,0.28,2.26,0.56,3.41,0.87c5.44,1.44,10.93,3.31,14.95,5.14
		c2.04,0.8,4.06,1.65,6.06,2.54c4.32,2.02,11.2,4.88,18.92,8.87c2.72,1.4,5.39,2.89,8.01,4.47c1.67,0.96,3.31,1.95,4.95,2.99
		c-4.34-2.26-7.89-3.61-10.18-4.19c-2.3-0.58-3.35-0.42-2.83,0.51c0.89,1.58,5.92,4.95,12.62,10.06
		c6.71,5.09,15.02,12.05,22.76,20.26c10.25,11.03,18.4,23.77,24.09,37.52c5.7,13.74,9.01,28.54,9.68,43.4
		c0.69,14.87-1.28,29.91-5.84,44.32c-4.56,14.4-11.73,28.17-21.26,40.43c-14.12,18.15-32.35,31.7-52.68,39.95
		c-20.36,8.23-42.87,11.34-65.38,8.07c-21.6-2.67-42.22-10.81-59.77-23.24c-17.57-12.42-32.05-29.14-41.82-48.62
		c-4.11-8.18-7.22-16.3-9.59-24.33c-2.36-8.04-3.97-15.96-4.88-23.87c-0.92-7.91-1.16-15.8-0.68-23.77
		c0.48-7.97,1.67-16.01,3.74-24.17c0.24-0.95,0.16-1.07-0.07-0.6c-0.31,0.72-0.71,2.03-0.9,2.89c-3.34,12.95-4.79,26.34-4.27,39.69
		c0.51,13.35,3,26.65,7.32,39.42c4.32,12.76,10.54,24.94,18.51,36.04c7.96,11.11,17.68,21.13,28.85,29.6
		c5.12,3.88,10.4,7.35,15.84,10.44c0.58,0.37,1.24,0.75,1.96,1.15c4.95,2.79,10.11,5.29,15.4,7.43c-1.86-0.72-3.69-1.47-5.52-2.26
		c-3.61-1.59-6.73-2.92-7.14-2.74c-0.07,0.12,0.37,0.49,1.14,1c-13.33-6.22-25.5-14.35-36.15-24.17c-3.1-3.01-5.88-5.86-8.24-8.36
		c-10.72-12.91-19.08-27.79-24.42-43.72c-0.43-1.32-0.84-2.64-1.23-3.97c-1.62-5.27-3.04-10.39-3.97-12.91
		c-0.29-0.81-0.52-1.29-0.69-1.52c-2.08-9.4-3.17-19.06-3.24-28.73c-0.06-9.67,0.9-19.35,2.82-28.78
		c3.84-18.89,11.6-36.71,21.93-52.05c1.05-1.56,1.54-2.43,1.24-2.28c0.45-0.54,1.02-1.26,1.49-1.94c2.51-3.65,5.62-7.54,9.15-11.41
		c0.75-0.86,1.13-1.36,0.7-1.04c-0.46,0.31-1.39,1.22-2.06,2c-3.57,4.02-6.8,8.17-9.48,12.16c-0.28,0.43-0.45,0.73-0.46,0.83
		c-0.71,0.8-1.75,2.14-2.67,3.54c-10.79,15.89-18.03,33.73-21.52,52.21c-3.5,18.49-3.26,37.63,0.73,56.38
		c-4.38-18.23-5.05-37.94-1.15-57.95c2.36-12.07,6.12-23.41,11.23-34.17c5.1-10.69,11.57-20.82,19.7-30.27
		c-2.39,2.59-4.67,5.27-6.85,8.03c-5.51,7.45-10.15,15.31-13.94,23.43c-5.17,11.11-8.8,22.71-10.92,34.58
		c-2.12,11.87-2.73,24.02-1.79,36.29c0.94,12.27,3.42,24.69,7.6,37.05c0.66,1.94,1.35,3.88,2.07,5.77
		c-6.55-14.73-10.59-30.42-11.91-46.41c-0.98-24.15,4.41-48.47,15.28-70C298.95,204.9,293.67,239.57,302.16,274.09z"/>
	<g>
		<g>
			<path class="st3" d="M546.07,265.94c-0.91-1.74-1.78-3.56-2.62-5.41c-0.41,0.08-0.83,0.12-1.26,0.1
				c-0.55-0.02-1.11-0.11-1.67-0.23c-0.27-0.06-0.54-0.13-0.81-0.19c-0.3-0.07-0.59-0.1-0.88-0.09c-0.55,0.03-1.06,0.23-1.54,0.5
				c-0.17,0.09-0.32,0.22-0.48,0.33c-1.69,3.33-3.26,6.8-4.64,10.38c-1.21,3.14-2.33,6.44-3.31,9.79l-0.22,0.76l0.59,0.52
				c1.63,1.42,3.35,2.63,5.11,3.62c1.48,0.82,3,1.49,4.54,1.98l0.82,0.26l-0.04-1.09c-0.15-4.13-0.12-8.26,0.09-12.28
				c0.14-2.62,0.38-5.22,0.67-7.79c0.3,1.53,0.6,3.06,0.94,4.56c0.78,3.5,1.67,6.99,2.64,10.38l0.22,0.77l0.47-0.28
				c1.28-0.77,2.52-1.78,3.69-3c0.97-1.03,1.9-2.21,2.76-3.53l0.46-0.7l-0.47-0.71C549.35,271.87,547.65,268.96,546.07,265.94z"/>
		</g>
		<g>
			<path class="st3" d="M577.5,252.1c-0.43-4.14-1.27-8.19-3.09-11.87c-10.96,1.55-21.89,3.06-32.67,4.55
				c-0.01,0.02,0,0.06-0.04,0.07l-0.29,0.08c-0.75,0.21-1.51,0.42-2.28,0.54c-0.77,0.12-1.56,0.15-2.33,0
				c-0.4-0.08-0.77-0.21-1.14-0.35c-0.34-0.14-0.68-0.26-1.03-0.39c-0.72-0.25-1.38,0.36-2.13,0.21c-0.48-0.1-0.97-0.15-1.46-0.17
				l-5.32,0.69c-10.71,1.38-21.8,3.44-32.5,4.83c-0.5,0.06-1.41,0.37-1.92,0.43c-0.47,0.06-0.93,0.22-1.34,0.46
				c-2.43,0.24-4.29,1.04-6.71,1.27l-0.74,1.87l-0.09,0.4c-14.71,1.7-92.6,9.39-180.48,12.73c-3.36,0.13-6.29,2.62-6.62,5.96
				c0,0.02,0,0.05-0.01,0.07c-0.32,3.51,1.04,7.03,2.58,10.02c1.18,2.29,2.59,4.46,4.12,6.53l0.22,0.3
				c1.05,1.42,2.73,2.23,4.49,2.17c5.62-0.2,11.25-0.41,16.87-0.64c-0.15,0.05-0.3,0.1-0.46,0.14c2.35-0.13,4.7-0.28,7.04-0.41
				c0.94-0.04,1.87-0.07,2.81-0.11c0.07-0.02,0.14-0.04,0.2-0.06c51.95-3.02,103.93-7.39,155.78-13.07c0.09,0.87,1.51,0.3,2.2,0.86
				c0.73,0.6,2.15,0.01,3.11-0.11l41.14-3.12c0.79-0.1,1.54-0.47,2.09-1.04c0.64-0.66,0.96-1.54,0.94-2.43
				c13.27-1.66,26.52-3.41,39.76-5.23C578.14,262.22,578.02,257.14,577.5,252.1z"/>
		</g>
	</g>
	<g>
		<path class="st4" d="M256.25,246.52c-1.15,0-2.24-0.11-3.25-0.33c-13.33-2.91-23.91-9.37-30.72-18.71l18.64-0.8
			c5.14-0.19,10.3-0.36,15.47-0.53l0.48-0.02c4.71-0.15,9.44-0.31,14.16-0.48c80.9-3.4,162.89-10.9,243.71-22.27
			c0.27,0.52,0.53,1.1,0.78,1.81c0.71,1.96,1.15,4.01,1.5,5.76c0.14,0.71,0.26,1.41,0.39,2.12l0.15,0.81
			c0.08,0.42,0.16,0.84,0.21,1.25c0.08,0.61,0.14,1.26,0.17,1.92c0.13,2.55-0.1,5.09-0.39,7.91l-0.03,0.29
			c-71.41,9.33-142.87,15.83-212.39,19.32l-1.45,0.07l0,0.02c-14.05,0.71-26.53,1.23-38.12,1.6l-2.51,0.08
			c-2.11,0.07-4.22,0.13-6.33,0.18L256.25,246.52z"/>
		<g>
			<path class="st5" d="M643.07,201.68c-0.04-4.46-0.7-8.91-1.97-13.18c-0.64-2.17-1.44-4.33-2.65-6.25
				c-0.36-0.57-0.79-1.15-1.28-1.65c-46.67,8.89-102.32,18.51-121.42,21.21c0.14,0.21,0.28,0.42,0.4,0.63
				c0.48,0.87,0.84,1.8,1.16,2.74c0.65,1.94,1.09,3.96,1.46,5.97c0.16,0.86,0.31,1.71,0.47,2.57c0.25,1.34,0.37,2.71,0.4,4.07
				c0.06,2.74-0.75,1.23-1.03,3.95c-0.02,0.16,0.49,4.56,0.47,4.72c19.04-1.64,75.86-11.03,123.71-19.49
				C642.97,205.22,643.08,203.45,643.07,201.68z"/>
		</g>
		<g>
			<path d="M256.25,247.6c-1.22,0-2.4-0.12-3.48-0.36c-14.36-3.14-25.59-10.31-32.5-20.76l20.6-0.88c5.3-0.2,10.63-0.37,15.96-0.55
				c4.71-0.16,9.44-0.31,14.16-0.48c81.1-3.41,163.3-10.94,244.31-22.37c0.02,0.03,0.04,0.06,0.06,0.09c0.43,0.69,0.8,1.5,1.17,2.53
				c0.74,2.03,1.19,4.13,1.54,5.92c0.14,0.71,0.27,1.42,0.39,2.14l0.15,0.8c0.08,0.43,0.16,0.87,0.22,1.3
				c0.08,0.64,0.14,1.32,0.18,2c0.13,2.62-0.1,5.21-0.4,8.08l-0.11,1.14c-71.73,9.4-143.5,15.94-213.33,19.44l-0.34,0.02l0,0.01
				c-14.51,0.74-27.35,1.28-39.24,1.66l-0.53,0.02l-0.25,0l-1.28,0.04c-2.26,0.07-4.52,0.14-6.78,0.2
				C256.57,247.6,256.41,247.6,256.25,247.6z M513.48,205.24c-71.85,10.07-145.06,17.08-217.61,20.84
				c-24.2,1.36-68.69,3.11-69.14,3.12l-0.73,0.03l0.5,0.53c4.9,5.17,13.46,11.94,26.37,14.81c1,0.22,2.07,0.33,3.19,0.33l0.43-0.01
				c13.63-0.34,28.27-0.89,43.51-1.62c69.98-3.41,142.55-9.97,215.7-19.49l0.26-0.03l0.03-0.26c0.2-2.04,0.37-4.22,0.26-6.37
				c-0.03-0.6-0.08-1.19-0.16-1.78c-0.05-0.39-0.12-0.77-0.19-1.15c0,0-0.39-2.17-0.54-2.93c-0.33-1.69-0.76-3.66-1.42-5.51
				l-0.21-0.55L513.48,205.24z"/>
		</g>
		<g>
			<path d="M250.44,234.16c-0.44,0-0.88-0.05-1.31-0.15l-0.94-0.22c-0.61-0.14-1.16-0.36-1.63-0.64c-0.39-0.23-0.77-0.47-1.14-0.71
				c-0.07-0.04-0.14-0.09-0.2-0.13c14.44-0.49,29.25-1.13,44.03-1.9l0.31-0.02v-0.01c65.64-3.28,132.78-9.37,199.57-18.11
				c0.13,0.5,0.21,1.02,0.3,1.53c0,0,0.07,0.4,0.09,0.53c-61.76,8.07-124.14,13.9-185.4,17.32l-0.33,0.02l0,0.03
				c-16.63,0.97-34.02,1.77-53.13,2.46L250.44,234.16z"/>
		</g>
		<g>
			<polygon class="st6" points="536.76,210.96 531.9,203.57 527.84,213.15 533.43,219.89 			"/>
		</g>
		<g>
			<polygon class="st6" points="545.46,218.29 549.31,210.56 542.56,202.35 539.23,211.28 			"/>
		</g>
		<g>
			<polygon class="st6" points="557.16,216.4 561,208.52 554.25,200.31 550.92,209.24 			"/>
		</g>
		<g>
			<polygon class="st6" points="568.85,214.36 572.69,206.48 565.94,198.27 562.62,207.2 			"/>
		</g>
		<g>
			<polygon class="st6" points="580.54,212.32 584.39,204.59 577.64,196.39 574.31,205.16 			"/>
		</g>
		<g>
			<polygon class="st6" points="592.23,210.28 596.08,202.55 589.33,194.35 586,203.12 			"/>
		</g>
		<g>
			<polygon class="st6" points="603.92,208.24 607.78,200.51 601.02,192.3 597.7,201.23 			"/>
		</g>
		<g>
			<polygon class="st6" points="615.97,206.43 619.66,198.55 612.92,190.5 609.59,199.27 			"/>
		</g>
		<g>
			<polygon class="st6" points="628.57,204.18 632.27,196.46 625.52,188.25 622.18,197.03 			"/>
		</g>
		<g>
			<path class="st5" d="M513.43,204.3c-6.24,0.81-13.15,2.38-19.39,3.19c1.5,4.82,3.1,13.79,3.53,18.67
				c5.63-0.78,13.72-1.64,19.35-2.41c-0.51-6.26-1.89-12.6-3.52-16.95L513.43,204.3z"/>
		</g>
		<g>
			<path class="st5" d="M520.72,241.92c-2.58,0.45-6.3-5.78-9.12-14.82c1.37-0.23,3.02-0.78,4.54-1.02c1-4.04-2.23-20.57-5.74-22.98
				c-1.21,0.22-2.28,0.28-3.5,0.5c-1.02-9.91-0.07-17.47,2.51-18.08C518.06,183.8,529.36,240.05,520.72,241.92L520.72,241.92z"/>
		</g>
		<g>
			<path class="st7" d="M499.7,223.82c2.74-0.05,5.51-0.11,8.29-0.02c-2.86,0.64-5.75,1.01-8.68,1.17l-0.38,0.02l0,0
				c-0.02-2.75-1.79-10.79-2.05-13.15C497.75,213.84,499.77,222,499.7,223.82z"/>
		</g>
		<g>
			<path class="st4" d="M634.17,181.79l-2.9,0.61c3.11,4,6.85,20.72,5.29,25.18l2.9-0.61C641.02,202.52,637.28,185.79,634.17,181.79
				z"/>
		</g>
	</g>
</g>
</svg>
