<?xml version="1.0" encoding="utf-8"?>
<!-- Generator: Adobe Illustrator 24.0.1, SVG Export Plug-In . SVG Version: 6.00 Build 0)  -->
<svg version="1.1" id="Layer_1" xmlns="http://www.w3.org/2000/svg" xmlns:xlink="http://www.w3.org/1999/xlink" x="0px" y="0px"
	 viewBox="0 0 891.39 456.79" style="enable-background:new 0 0 891.39 456.79;" xml:space="preserve">
<style type="text/css">
	.st0{opacity:0;fill:#FFFFFF;}
	.st1{fill:url(#SVGID_1_);}
</style>
<g>
	<rect x="0" y="0" class="st0" width="891.39" height="456.79"/>
	<linearGradient id="SVGID_1_" gradientUnits="userSpaceOnUse" x1="293.2379" y1="251.5333" x2="600.9503" y2="251.5333">
		<stop  offset="5.617738e-03" style="stop-color:#8C6A33"/>
		<stop  offset="0.139" style="stop-color:#9A7638"/>
		<stop  offset="0.3542" style="stop-color:#A9843E"/>
		<stop  offset="0.5225" style="stop-color:#AF8940"/>
		<stop  offset="1" style="stop-color:#8C6A33"/>
	</linearGradient>
	<path class="st1" d="M332.88,358.62c7.12,6.8,14.94,12.98,23.3,18.42c8.36,5.44,17.28,10.15,26.61,14.02
		c9.32,3.88,19.05,6.91,29.01,9.07c9.96,2.16,20.14,3.45,30.37,3.83c10.23,0.39,20.51-0.14,30.65-1.57
		c10.15-1.42,20.16-3.75,29.85-6.94c9.7-3.19,19.07-7.25,27.96-12.11c8.9-4.86,17.3-10.51,25.08-16.85
		c-7.65,6.48-15.96,12.29-24.79,17.31c-8.82,5.03-18.16,9.28-27.86,12.65c-9.69,3.38-19.75,5.9-29.96,7.52
		c-10.22,1.62-20.61,2.34-30.99,2.12c-10.38-0.2-20.74-1.33-30.92-3.35c-10.17-2.02-20.15-4.95-29.75-8.74
		c-9.61-3.78-18.82-8.44-27.5-13.87c-8.68-5.43-16.83-11.63-24.29-18.49c-0.45-0.41-0.68-0.96-0.68-1.51c0-0.55,0.21-1.1,0.66-1.52
		c0.44-0.42,1.03-0.64,1.61-0.65c0.59,0,1.17,0.2,1.62,0.62c0,0,0.01,0.01,0.02,0.01C332.87,358.6,332.88,358.61,332.88,358.62z
		 M363.55,119.72c8.89-4.85,18.27-8.92,27.96-12.1c9.69-3.19,19.7-5.52,29.84-6.94c10.15-1.43,20.42-1.96,30.65-1.57
		c10.23,0.38,20.41,1.67,30.37,3.83c9.96,2.17,19.68,5.2,29.01,9.08c9.33,3.87,18.25,8.58,26.61,14.02
		c8.37,5.44,16.18,11.62,23.31,18.42c0,0,0.01,0.01,0.01,0.01c0.01,0.01,0.02,0.01,0.02,0.01c0.46,0.42,1.04,0.62,1.63,0.62
		c0.59-0.01,1.17-0.22,1.61-0.64c0.44-0.43,0.66-0.98,0.65-1.52c0-0.55-0.23-1.09-0.68-1.51c-7.46-6.86-15.61-13.06-24.29-18.49
		c-8.68-5.43-17.9-10.09-27.5-13.87c-9.6-3.79-19.58-6.71-29.75-8.74s-20.54-3.15-30.92-3.36c-10.38-0.22-20.77,0.51-30.99,2.12
		s-20.27,4.14-29.96,7.52c-9.7,3.38-19.04,7.63-27.87,12.65c-8.83,5.03-17.14,10.83-24.79,17.31
		C346.25,130.23,354.66,124.58,363.55,119.72z M553.53,351.35c-0.01,0-0.02,0.01-0.02,0.01c-0.44,0.42-0.66,0.97-0.65,1.52
		c0,0.55,0.23,1.1,0.68,1.51c0.45,0.42,1.04,0.62,1.63,0.61c0.59,0,1.17-0.22,1.61-0.64c6.81-6.52,12.96-13.63,18.34-21.21
		c5.39-7.58,10-15.63,13.76-24.01c3.76-8.38,6.66-17.08,8.67-25.96c2.02-8.87,3.14-17.92,3.36-26.97
		c0.23-9.05-0.47-18.12-2.05-27.03c-1.58-8.92-4.05-17.69-7.38-26.16c-3.32-8.47-7.51-16.63-12.46-24.34
		c-4.95-7.72-10.69-14.99-17.09-21.68c6.26,6.81,11.82,14.17,16.59,21.95c4.77,7.78,8.76,15.97,11.88,24.43
		c3.12,8.47,5.38,17.2,6.76,26.04c1.38,8.85,1.87,17.81,1.46,26.72c-0.4,8.91-1.7,17.78-3.86,26.46s-5.18,17.15-9.04,25.27
		c-3.84,8.13-8.52,15.89-13.92,23.18c-5.4,7.28-11.52,14.09-18.27,20.29C553.54,351.34,553.53,351.34,553.53,351.35z M315.66,324.12
		c-4.77-7.78-8.76-15.97-11.87-24.43c-3.13-8.46-5.39-17.2-6.76-26.04c-1.38-8.85-1.87-17.81-1.46-26.72
		c0.4-8.91,1.7-17.78,3.86-26.46c2.16-8.67,5.18-17.14,9.04-25.27c3.84-8.12,8.51-15.89,13.92-23.18
		c5.4-7.28,11.52-14.09,18.27-20.29c0,0,0.01-0.01,0.02-0.01c0.01-0.01,0.02-0.01,0.02-0.02c0.44-0.42,0.66-0.97,0.65-1.52
		c-0.01-0.55-0.24-1.1-0.69-1.51c-0.45-0.42-1.04-0.62-1.63-0.61c-0.59,0-1.17,0.22-1.61,0.64c-6.81,6.52-12.96,13.63-18.34,21.21
		c-5.38,7.58-10,15.62-13.76,24.01c-3.76,8.38-6.66,17.08-8.68,25.96c-2.01,8.87-3.14,17.92-3.35,26.97
		c-0.23,9.05,0.46,18.12,2.05,27.04c1.58,8.92,4.06,17.69,7.38,26.15c3.32,8.47,7.5,16.63,12.46,24.35
		c4.95,7.72,10.68,14.98,17.08,21.68C325.99,339.26,320.43,331.9,315.66,324.12z M348.39,344.04c-0.01-0.01-0.02-0.01-0.02-0.02
		c-0.45-0.41-1.04-0.62-1.63-0.61c-0.59,0.01-1.17,0.22-1.61,0.64c-0.44,0.43-0.66,0.98-0.65,1.52c0.01,0.55,0.24,1.09,0.69,1.51
		c6.44,5.91,13.47,11.25,20.96,15.92c7.49,4.67,15.44,8.68,23.71,11.94c8.28,3.27,16.87,5.79,25.63,7.55
		c8.76,1.75,17.69,2.74,26.62,2.94c8.94,0.21,17.89-0.38,26.7-1.73c8.8-1.36,17.47-3.48,25.83-6.34
		c8.37-2.86,16.44-6.46,24.07-10.74c7.63-4.27,14.83-9.21,21.46-14.74c-6.76,5.39-14.05,10.18-21.74,14.28
		c-7.69,4.1-15.79,7.52-24.16,10.19c-8.36,2.67-16.99,4.6-25.71,5.76c-8.73,1.17-17.57,1.56-26.36,1.18
		c-8.79-0.37-17.53-1.52-26.08-3.41c-8.54-1.89-16.89-4.53-24.89-7.89c-8-3.34-15.65-7.41-22.83-12.09
		c-7.17-4.69-13.87-10-19.98-15.85C348.41,344.05,348.4,344.04,348.39,344.04z M375.78,136.89c7.7-4.1,15.8-7.52,24.16-10.18
		c8.36-2.67,16.98-4.6,25.71-5.76c8.73-1.16,17.57-1.56,26.35-1.17c8.79,0.37,17.53,1.52,26.08,3.41
		c8.54,1.89,16.89,4.53,24.89,7.89c8.01,3.34,15.65,7.4,22.83,12.1c7.17,4.68,13.87,10,19.98,15.85c0,0,0.01,0.01,0.02,0.01
		c0.01,0.01,0.01,0.01,0.02,0.02c0.45,0.41,1.04,0.62,1.62,0.61c0.59-0.01,1.17-0.22,1.61-0.65c0.44-0.42,0.66-0.98,0.65-1.52
		c-0.01-0.55-0.24-1.09-0.69-1.51c-6.44-5.91-13.47-11.24-20.96-15.92c-7.49-4.67-15.43-8.68-23.71-11.94
		c-8.27-3.27-16.87-5.79-25.63-7.55c-8.76-1.75-17.69-2.74-26.62-2.94c-8.94-0.21-17.89,0.37-26.69,1.73
		c-8.81,1.35-17.47,3.48-25.84,6.34c-8.37,2.86-16.43,6.46-24.06,10.73c-7.63,4.27-14.83,9.21-21.46,14.74
		C360.79,145.78,368.09,141,375.78,136.89z M537.99,336.79c0,0-0.01,0.01-0.02,0.02c-0.44,0.42-0.66,0.98-0.65,1.52
		c0,0.55,0.23,1.09,0.69,1.51c0.45,0.42,1.04,0.62,1.63,0.61c0.59-0.01,1.17-0.22,1.61-0.65c5.8-5.56,11.03-11.63,15.61-18.09
		c4.58-6.46,8.52-13.31,11.72-20.45c3.21-7.13,5.7-14.54,7.43-22.1s2.72-15.25,2.93-22.95c0.22-7.71-0.34-15.42-1.64-23.02
		c-1.31-7.59-3.37-15.07-6.14-22.29c-2.77-7.22-6.28-14.19-10.44-20.78c-4.16-6.59-8.97-12.81-14.36-18.55
		c5.24,5.85,9.89,12.16,13.87,18.82c3.98,6.65,7.28,13.64,9.85,20.86c2.58,7.21,4.43,14.65,5.53,22.17
		c1.1,7.52,1.46,15.13,1.05,22.7c-0.4,7.57-1.55,15.09-3.43,22.44c-1.88,7.35-4.48,14.53-7.79,21.4
		c-3.29,6.88-7.28,13.45-11.88,19.62c-4.6,6.16-9.81,11.92-15.54,17.17C538.01,336.78,538,336.79,537.99,336.79z M333.96,312.66
		c-3.98-6.65-7.28-13.64-9.85-20.86c-2.58-7.21-4.43-14.65-5.53-22.17c-1.1-7.52-1.45-15.13-1.04-22.7
		c0.4-7.57,1.55-15.09,3.43-22.44c1.88-7.35,4.48-14.53,7.79-21.4c3.29-6.88,7.28-13.45,11.89-19.62
		c4.6-6.16,9.81-11.92,15.54-17.17c0.01,0,0.01-0.01,0.02-0.02c0.01,0,0.02-0.01,0.02-0.02c0.44-0.42,0.66-0.98,0.65-1.52
		c-0.01-0.55-0.24-1.1-0.69-1.51c-0.45-0.42-1.04-0.62-1.63-0.61c-0.59,0.01-1.17,0.22-1.61,0.65
		c-5.79,5.56-11.03,11.63-15.61,18.09c-4.58,6.46-8.52,13.31-11.73,20.45c-3.21,7.13-5.69,14.54-7.43,22.09
		c-1.73,7.55-2.71,15.25-2.93,22.96c-0.22,7.7,0.33,15.42,1.64,23.01c1.3,7.59,3.36,15.07,6.14,22.29
		c2.77,7.22,6.28,14.19,10.44,20.78c4.16,6.59,8.97,12.81,14.36,18.54C342.58,325.63,337.93,319.32,333.96,312.66z M363.92,329.48
		c-0.01-0.01-0.02-0.02-0.02-0.02c-0.46-0.41-1.04-0.62-1.63-0.61c-0.59,0.01-1.17,0.22-1.61,0.65c-0.44,0.42-0.66,0.98-0.65,1.52
		c0,0.55,0.24,1.09,0.69,1.51c5.43,4.95,11.34,9.43,17.63,13.35c6.29,3.92,12.97,7.3,19.92,10.04c6.94,2.75,14.16,4.89,21.51,6.38
		c7.35,1.5,14.84,2.35,22.34,2.55c7.5,0.21,15.01-0.25,22.41-1.34c7.4-1.09,14.67-2.83,21.71-5.18c7.04-2.34,13.83-5.31,20.26-8.84
		c6.43-3.53,12.51-7.61,18.11-12.18c-5.73,4.44-11.9,8.36-18.4,11.72c-6.5,3.35-13.31,6.14-20.35,8.29
		c-7.03,2.16-14.27,3.7-21.58,4.6c-7.32,0.9-14.72,1.17-22.07,0.79c-7.35-0.37-14.66-1.38-21.79-3.02
		c-7.14-1.63-14.1-3.87-20.77-6.71c-6.68-2.83-13.05-6.25-19.03-10.19c-5.98-3.94-11.57-8.4-16.65-13.29
		C363.93,329.49,363.93,329.48,363.92,329.48z M388.01,154.05c6.49-3.36,13.31-6.14,20.34-8.29c7.03-2.16,14.27-3.7,21.58-4.6
		c7.32-0.9,14.72-1.17,22.07-0.79c7.35,0.37,14.66,1.38,21.79,3.02c7.14,1.63,14.1,3.88,20.77,6.71
		c6.68,2.83,13.05,6.25,19.03,10.19c5.98,3.94,11.56,8.4,16.65,13.29c0.01,0,0.01,0.01,0.02,0.02c0,0.01,0.02,0.01,0.02,0.02
		c0.45,0.41,1.04,0.62,1.63,0.61c0.59-0.01,1.17-0.22,1.61-0.65c0.44-0.42,0.65-0.98,0.65-1.52c-0.01-0.55-0.24-1.1-0.69-1.51
		c-5.43-4.95-11.34-9.43-17.63-13.35c-6.29-3.92-12.97-7.3-19.91-10.04c-6.95-2.75-14.16-4.89-21.51-6.38
		c-7.35-1.5-14.84-2.35-22.34-2.55c-7.5-0.2-15.01,0.25-22.4,1.34c-7.4,1.09-14.68,2.83-21.71,5.18
		c-7.04,2.35-13.83,5.31-20.26,8.84c-6.43,3.53-12.5,7.61-18.11,12.18C375.34,161.33,381.51,157.4,388.01,154.05z M522.46,322.24
		c-0.01,0.01-0.02,0.01-0.02,0.02c-0.44,0.42-0.66,0.98-0.65,1.52c0,0.55,0.24,1.09,0.69,1.51c0.46,0.42,1.04,0.62,1.63,0.61
		c0.59-0.01,1.17-0.22,1.61-0.65c4.78-4.61,9.09-9.63,12.88-14.97c3.78-5.34,7.04-11,9.7-16.89c2.66-5.89,4.73-12,6.18-18.23
		c1.45-6.23,2.29-12.58,2.5-18.94c0.22-6.36-0.2-12.73-1.22-19c-1.03-6.27-2.67-12.44-4.91-18.42c-2.23-5.97-5.05-11.74-8.42-17.2
		c-3.36-5.47-7.27-10.64-11.64-15.41c4.23,4.89,7.96,10.15,11.14,15.67c3.18,5.52,5.81,11.32,7.84,17.28
		c2.04,5.97,3.47,12.1,4.29,18.3c0.83,6.2,1.04,12.46,0.64,18.68c-0.39,6.22-1.4,12.39-3,18.42c-1.6,6.03-3.78,11.91-6.53,17.55
		c-2.74,5.64-6.06,11.02-9.86,16.06c-3.8,5.05-8.1,9.76-12.81,14.05C522.48,322.22,522.47,322.23,522.46,322.24z M352.27,301.19
		c-3.18-5.52-5.81-11.32-7.84-17.28c-2.03-5.97-3.47-12.1-4.29-18.3c-0.82-6.2-1.04-12.46-0.64-18.68c0.39-6.22,1.4-12.39,3-18.42
		c1.6-6.03,3.78-11.91,6.53-17.54c2.74-5.64,6.05-11.02,9.85-16.06c3.8-5.04,8.1-9.75,12.81-14.05c0.01-0.01,0.02-0.02,0.02-0.02
		c0.01-0.01,0.02-0.02,0.03-0.03c0.44-0.42,0.65-0.98,0.65-1.52c-0.01-0.55-0.24-1.1-0.7-1.51c-0.45-0.42-1.04-0.62-1.63-0.61
		c-0.59,0-1.17,0.22-1.61,0.65c-4.78,4.61-9.09,9.63-12.88,14.96c-3.78,5.34-7.04,11-9.69,16.89c-2.66,5.89-4.73,12-6.18,18.23
		c-1.45,6.23-2.29,12.58-2.51,18.93c-0.21,6.36,0.2,12.72,1.23,18.99c1.03,6.27,2.67,12.45,4.91,18.42
		c2.23,5.97,5.05,11.74,8.42,17.21c3.36,5.47,7.27,10.63,11.64,15.41C359.18,311.97,355.45,306.72,352.27,301.19z M379.45,314.91
		c-0.01-0.01-0.02-0.02-0.03-0.03c-0.45-0.41-1.04-0.61-1.63-0.6c-0.59,0.01-1.17,0.23-1.61,0.65c-0.44,0.43-0.65,0.98-0.65,1.53
		c0.01,0.55,0.24,1.09,0.7,1.5c4.41,4,9.2,7.62,14.3,10.79c5.1,3.17,10.5,5.9,16.11,8.14c5.62,2.23,11.45,3.97,17.39,5.2
		s11.99,1.95,18.05,2.14c6.06,0.2,12.14-0.12,18.12-0.96s11.88-2.18,17.58-4.02c5.7-1.84,11.22-4.17,16.45-6.95
		c5.23-2.78,10.18-6.01,14.76-9.63c-4.71,3.49-9.75,6.55-15.04,9.16c-5.29,2.61-10.83,4.76-16.53,6.4
		c-5.69,1.65-11.54,2.8-17.45,3.45c-5.9,0.65-11.86,0.79-17.78,0.41c-5.91-0.37-11.78-1.24-17.51-2.61
		c-5.72-1.37-11.31-3.22-16.65-5.54c-5.34-2.31-10.45-5.1-15.23-8.29c-4.79-3.19-9.26-6.79-13.33-10.73
		C379.46,314.93,379.46,314.92,379.45,314.91z M400.24,171.23c5.29-2.61,10.83-4.76,16.53-6.4c5.69-1.65,11.54-2.8,17.45-3.45
		c5.9-0.65,11.86-0.78,17.77-0.41c5.91,0.37,11.78,1.24,17.5,2.61c5.73,1.37,11.31,3.22,16.65,5.54c5.35,2.31,10.45,5.1,15.23,8.29
		c4.79,3.19,9.26,6.79,13.33,10.73c0.01,0.01,0.02,0.02,0.02,0.03c0.01,0.01,0.02,0.02,0.03,0.02c0.46,0.41,1.04,0.61,1.63,0.61
		c0.59-0.01,1.17-0.23,1.61-0.65c0.44-0.42,0.65-0.98,0.64-1.53c-0.01-0.55-0.24-1.09-0.7-1.51c-4.4-4-9.2-7.62-14.29-10.79
		c-5.1-3.17-10.5-5.9-16.11-8.14c-5.62-2.23-11.44-3.98-17.38-5.2c-5.94-1.23-11.99-1.95-18.05-2.14
		c-6.06-0.2-12.13,0.12-18.12,0.96c-5.98,0.83-11.87,2.18-17.57,4.02c-5.71,1.83-11.22,4.16-16.45,6.95
		c-5.23,2.78-10.18,6-14.76,9.63C389.91,176.9,394.95,173.84,400.24,171.23z M506.92,307.68c-0.01,0.01-0.02,0.02-0.03,0.03
		c-0.44,0.43-0.65,0.98-0.64,1.53c0.01,0.55,0.24,1.09,0.7,1.5c0.46,0.41,1.04,0.61,1.63,0.6c0.59-0.01,1.17-0.23,1.61-0.66
		c3.76-3.66,7.15-7.62,10.14-11.84c2.98-4.22,5.56-8.68,7.66-13.33c2.11-4.64,3.76-9.46,4.93-14.37c1.17-4.91,1.87-9.9,2.07-14.91
		c0.21-5.01-0.07-10.03-0.82-14.97c-0.75-4.95-1.98-9.82-3.68-14.54c-1.69-4.73-3.84-9.29-6.41-13.63s-5.56-8.45-8.92-12.27
		c3.21,3.93,6.03,8.12,8.42,12.52c2.39,4.39,4.34,8.99,5.82,13.7c1.49,4.71,2.51,9.54,3.06,14.42c0.55,4.87,0.63,9.79,0.24,14.65
		c-0.39,4.87-1.25,9.7-2.57,14.4c-1.31,4.71-3.08,9.29-5.28,13.68c-2.19,4.39-4.82,8.58-7.82,12.51c-3,3.93-6.38,7.59-10.08,10.94
		C506.94,307.66,506.93,307.67,506.92,307.68z M370.61,289.71c-2.38-4.39-4.33-8.99-5.82-13.7c-1.49-4.71-2.51-9.54-3.06-14.42
		c-0.55-4.87-0.63-9.78-0.24-14.65c0.39-4.87,1.25-9.7,2.57-14.4c1.32-4.71,3.08-9.29,5.28-13.68c2.19-4.39,4.82-8.58,7.82-12.51
		c3-3.93,6.38-7.59,10.08-10.94c0.01,0,0.02-0.01,0.03-0.03c0.01-0.01,0.02-0.02,0.03-0.03c0.44-0.43,0.65-0.98,0.64-1.53
		c-0.01-0.55-0.24-1.09-0.7-1.5c-0.45-0.41-1.04-0.61-1.63-0.6c-0.59,0.01-1.17,0.23-1.61,0.66c-3.76,3.65-7.16,7.62-10.14,11.84
		c-2.98,4.22-5.56,8.68-7.66,13.33c-2.11,4.64-3.76,9.46-4.93,14.36c-1.17,4.91-1.86,9.91-2.07,14.91c-0.21,5,0.07,10.02,0.82,14.97
		c0.75,4.95,1.98,9.82,3.68,14.54c1.69,4.72,3.83,9.29,6.4,13.63c2.57,4.34,5.56,8.45,8.91,12.27
		C375.81,298.3,372.99,294.1,370.61,289.71z M394.97,300.34c-0.01-0.01-0.02-0.02-0.03-0.03c-0.46-0.41-1.05-0.61-1.63-0.6
		c-0.59,0.01-1.17,0.23-1.6,0.66c-0.44,0.43-0.65,0.98-0.64,1.53c0.01,0.55,0.24,1.09,0.7,1.51c3.39,3.05,7.07,5.8,10.97,8.22
		c3.9,2.42,8.02,4.51,12.31,6.23c4.29,1.72,8.73,3.07,13.26,4.03c4.53,0.96,9.14,1.55,13.76,1.74c4.62,0.2,9.26,0,13.82-0.58
		c4.57-0.58,9.07-1.54,13.44-2.87c4.37-1.33,8.6-3.03,12.63-5.07c4.02-2.04,7.85-4.41,11.4-7.09c-3.67,2.53-7.58,4.75-11.66,6.61
		c-4.09,1.87-8.34,3.38-12.69,4.52c-4.36,1.14-8.82,1.91-13.31,2.3c-4.48,0.39-9,0.4-13.48,0.04c-4.47-0.36-8.9-1.1-13.22-2.2
		c-4.32-1.1-8.52-2.56-12.53-4.36c-4.02-1.8-7.85-3.94-11.45-6.38c-3.6-2.44-6.95-5.18-10.01-8.17
		C394.99,300.36,394.98,300.35,394.97,300.34z M412.51,188.44c4.08-1.87,8.34-3.38,12.69-4.52c4.35-1.14,8.82-1.91,13.3-2.3
		c4.49-0.39,9.01-0.4,13.48-0.04c4.47,0.36,8.9,1.1,13.22,2.2c4.32,1.1,8.52,2.56,12.53,4.36c4.02,1.8,7.85,3.94,11.44,6.38
		c3.59,2.44,6.95,5.18,10.01,8.17c0.01,0.01,0.02,0.02,0.03,0.03c0.02,0.01,0.03,0.02,0.04,0.03c0.46,0.41,1.04,0.61,1.63,0.6
		c0.59-0.01,1.17-0.23,1.6-0.66c0.44-0.43,0.65-0.98,0.64-1.53c-0.01-0.55-0.25-1.09-0.7-1.51c-3.39-3.05-7.06-5.8-10.96-8.22
		c-3.9-2.42-8.03-4.51-12.32-6.23c-4.29-1.72-8.73-3.07-13.25-4.03c-4.53-0.96-9.14-1.55-13.76-1.74c-4.62-0.2-9.25,0-13.82,0.58
		c-4.57,0.58-9.07,1.54-13.44,2.87c-4.37,1.33-8.6,3.03-12.62,5.06c-4.02,2.04-7.85,4.41-11.4,7.09
		C404.52,192.52,408.43,190.3,412.51,188.44z M491.42,293.1L491.42,293.1c-0.02,0.02-0.03,0.03-0.04,0.04
		c-0.01,0.01-0.02,0.03-0.04,0.04c-0.43,0.43-0.64,0.98-0.63,1.53c0.02,0.55,0.25,1.09,0.71,1.5c0.46,0.41,1.05,0.6,1.63,0.59
		c0.59-0.01,1.17-0.24,1.6-0.67c2.74-2.7,5.21-5.62,7.39-8.72c2.18-3.1,4.07-6.36,5.62-9.76c1.56-3.39,2.79-6.91,3.67-10.5
		c0.89-3.58,1.44-7.23,1.64-10.89c0.2-3.66,0.06-7.32-0.42-10.94c-0.48-3.62-1.3-7.19-2.45-10.66c-1.15-3.47-2.63-6.83-4.41-10.04
		c-1.78-3.21-3.85-6.26-6.2-9.11c2.2,2.96,4.1,6.09,5.69,9.35c1.59,3.26,2.87,6.64,3.82,10.1c0.95,3.45,1.56,6.98,1.85,10.52
		c0.28,3.54,0.23,7.1-0.16,10.62c-0.38,3.52-1.1,7-2.13,10.38c-1.03,3.38-2.38,6.68-4.02,9.82c-1.64,3.15-3.58,6.14-5.78,8.96
		C496.57,288.08,494.1,290.7,491.42,293.1L491.42,293.1z M389,278.2c-1.59-3.26-2.87-6.64-3.81-10.1
		c-0.95-3.45-1.56-6.98-1.84-10.52c-0.28-3.54-0.23-7.1,0.16-10.62c0.38-3.52,1.09-6.99,2.13-10.38c1.03-3.39,2.38-6.68,4.02-9.82
		c1.65-3.15,3.58-6.14,5.78-8.96c2.2-2.81,4.66-5.43,7.35-7.83l0,0l0,0c0.02-0.01,0.03-0.03,0.04-0.04s0.03-0.02,0.04-0.04
		c0.43-0.43,0.64-0.98,0.63-1.53c-0.02-0.55-0.26-1.09-0.71-1.5c-0.46-0.41-1.05-0.61-1.64-0.59c-0.59,0.01-1.16,0.24-1.6,0.67
		c-2.74,2.7-5.21,5.62-7.4,8.72c-2.18,3.1-4.06,6.36-5.62,9.76c-1.56,3.39-2.78,6.91-3.67,10.49c-0.89,3.58-1.44,7.23-1.64,10.88
		c-0.21,3.66-0.07,7.32,0.42,10.94c0.48,3.62,1.3,7.19,2.45,10.65c1.15,3.47,2.62,6.83,4.4,10.04c1.78,3.21,3.85,6.26,6.2,9.11
		C392.49,284.59,390.59,281.46,389,278.2z M410.48,285.77c-0.02-0.01-0.03-0.03-0.05-0.05c-0.46-0.41-1.05-0.6-1.64-0.58
		c-0.59,0.02-1.17,0.24-1.6,0.68c-0.43,0.43-0.64,0.99-0.62,1.54c0.02,0.55,0.26,1.09,0.72,1.5c2.37,2.09,4.92,3.98,7.63,5.65
		c2.7,1.67,5.56,3.12,8.51,4.32c2.95,1.19,6.01,2.15,9.13,2.84c3.11,0.7,6.28,1.14,9.46,1.32c3.18,0.19,6.37,0.11,9.52-0.21
		c3.15-0.33,6.26-0.91,9.29-1.74c3.03-0.82,5.97-1.9,8.78-3.2c2.82-1.3,5.5-2.82,8.02-4.55c-2.62,1.58-5.39,2.94-8.26,4.06
		c-2.86,1.12-5.82,2.01-8.83,2.65c-3.01,0.64-6.07,1.03-9.14,1.17c-3.07,0.14-6.14,0.04-9.17-0.32c-3.03-0.35-6.02-0.95-8.93-1.78
		c-2.91-0.82-5.73-1.89-8.42-3.17c-2.69-1.28-5.26-2.78-7.66-4.47s-4.64-3.57-6.7-5.61C410.52,285.8,410.5,285.78,410.48,285.77z
		 M424.82,205.73c2.86-1.13,5.82-2.01,8.83-2.65c3.01-0.64,6.07-1.03,9.14-1.17s6.14-0.03,9.17,0.32c3.03,0.35,6.02,0.95,8.92,1.78
		c2.91,0.83,5.72,1.89,8.42,3.17c2.69,1.28,5.26,2.78,7.66,4.47c2.4,1.69,4.64,3.57,6.69,5.61c0.02,0.01,0.03,0.03,0.05,0.05
		c0.02,0.02,0.03,0.03,0.05,0.05c0.46,0.41,1.05,0.6,1.64,0.58c0.59-0.02,1.16-0.24,1.6-0.68c0.43-0.43,0.64-0.99,0.62-1.54
		c-0.02-0.55-0.26-1.09-0.72-1.5c-2.37-2.09-4.92-3.98-7.63-5.65c-2.7-1.67-5.55-3.12-8.51-4.31c-2.96-1.2-6.01-2.15-9.13-2.85
		c-3.11-0.7-6.28-1.14-9.46-1.33c-3.18-0.19-6.37-0.11-9.52,0.21c-3.15,0.33-6.26,0.9-9.29,1.73c-3.03,0.82-5.97,1.9-8.78,3.2
		c-2.81,1.29-5.5,2.82-8.02,4.55C419.19,208.21,421.96,206.85,424.82,205.73z M475.83,278.59c-0.02,0.02-0.05,0.04-0.07,0.06
		c-0.43,0.43-0.63,0.99-0.6,1.54c0.02,0.55,0.27,1.09,0.73,1.49c0.46,0.41,1.06,0.59,1.65,0.57c0.59-0.02,1.16-0.25,1.59-0.69
		c1.72-1.74,3.27-3.61,4.65-5.58c1.38-1.97,2.57-4.04,3.57-6.19c1-2.14,1.8-4.36,2.4-6.62c0.6-2.26,0.99-4.55,1.18-6.85
		c0.19-2.3,0.18-4.61-0.04-6.9c-0.22-2.28-0.64-4.55-1.25-6.75c-0.62-2.21-1.43-4.36-2.43-6.42c-0.99-2.06-2.17-4.04-3.51-5.91
		c1.18,1.96,2.18,4.01,2.98,6.11c0.81,2.1,1.42,4.26,1.84,6.45c0.42,2.19,0.64,4.4,0.66,6.6s-0.15,4.41-0.52,6.57
		c-0.36,2.17-0.92,4.29-1.65,6.36c-0.74,2.06-1.66,4.06-2.74,5.97s-2.34,3.72-3.74,5.41c-1.4,1.7-2.95,3.28-4.62,4.72
		C475.87,278.55,475.84,278.57,475.83,278.59z M407.51,266.61c-0.81-2.1-1.42-4.26-1.84-6.45c-0.42-2.18-0.63-4.39-0.65-6.6
		s0.15-4.4,0.51-6.57c0.37-2.16,0.92-4.29,1.66-6.35c0.73-2.06,1.65-4.06,2.74-5.96c1.09-1.9,2.34-3.72,3.74-5.41
		c1.4-1.69,2.95-3.27,4.62-4.72c0.02-0.02,0.04-0.04,0.07-0.06c0.02-0.02,0.04-0.04,0.07-0.06c0.43-0.43,0.63-0.99,0.6-1.54
		c-0.02-0.55-0.27-1.09-0.73-1.49c-0.47-0.41-1.06-0.59-1.65-0.57c-0.59,0.02-1.16,0.25-1.59,0.69c-1.71,1.74-3.27,3.61-4.64,5.58
		c-1.38,1.97-2.57,4.04-3.57,6.18c-1,2.14-1.8,4.36-2.4,6.62c-0.6,2.26-0.99,4.55-1.18,6.85c-0.19,2.31-0.17,4.61,0.05,6.9
		c0.22,2.28,0.64,4.55,1.25,6.75c0.62,2.21,1.43,4.35,2.43,6.42c0.99,2.06,2.17,4.04,3.51,5.91
		C409.31,270.76,408.32,268.71,407.51,266.61z M425.97,271.16c-0.03-0.03-0.06-0.05-0.1-0.08c-0.47-0.4-1.07-0.58-1.65-0.55
		c-0.59,0.03-1.16,0.27-1.58,0.71c-0.42,0.44-0.62,1-0.59,1.55c0.03,0.55,0.28,1.09,0.76,1.48l0.01,0.01l0.01,0.01
		c2.67,2.26,5.71,4.09,8.95,5.43c3.24,1.34,6.67,2.2,10.13,2.52c3.46,0.33,6.94,0.14,10.28-0.53c3.34-0.67,6.54-1.82,9.45-3.41
		c-3.08,1.27-6.34,2.06-9.63,2.36c-3.28,0.3-6.59,0.12-9.75-0.53c-3.17-0.64-6.19-1.76-8.93-3.27c-2.74-1.5-5.2-3.4-7.27-5.6
		C426.03,271.22,426,271.2,425.97,271.16z M442.18,222.42c3.28-0.3,6.59-0.12,9.75,0.54c3.17,0.64,6.19,1.76,8.93,3.27
		c2.74,1.5,5.2,3.4,7.27,5.6c0.03,0.03,0.06,0.06,0.09,0.09c0.03,0.03,0.06,0.05,0.09,0.08c0.47,0.4,1.07,0.58,1.65,0.55
		c0.59-0.03,1.16-0.27,1.58-0.71c0.42-0.44,0.62-1,0.59-1.55s-0.29-1.09-0.75-1.48l-0.01-0.01l-0.01-0.01
		c-2.67-2.26-5.71-4.09-8.95-5.43c-3.24-1.34-6.67-2.2-10.13-2.52c-3.46-0.34-6.94-0.15-10.28,0.52c-3.34,0.67-6.55,1.82-9.45,3.41
		C435.63,223.5,438.89,222.72,442.18,222.42z"/>
	<g>
		<g>
			<polygon points="294.17,126.98 439.37,368.82 437.47,370.07 292.23,128.16 287.32,118.15 			"/>
		</g>
		<g>
			<path d="M171.08,401.58c0.3-0.15,0.63-0.19,0.97-0.2l0.01-0.02l0.22,0.03c0.17,0.01,0.34,0.02,0.51,0.06l0.87,0.1l0.01,0
				c0.76-12.93,11.46-44.87,17.05-61.89c0.32-0.96,1.75-0.85,2.07-1.81c11.2-33.54,25.18-65.93,45.11-95.02
				c11.72-17.1,25.28-32.67,40.11-47.03c0.02-0.79,0.21-1.47,0.61-1.85c2.21-2.05,4.36-4,6.47-5.91c1.38-1.09,9.34-9.36,27.11-22.65
				l1.84-1.39c5.35-3.99,11.01-7.97,17.29-12.13c0.22-0.14,0.48-0.17,0.76-0.14c16.33-11.4,33.31-21.94,50.47-31.85
				c15.2-8.78,30.83-17.21,46.88-24.54c28.32-12.91,57.95-22.37,88.86-24.19c67.16-3.95,128.66,27.11,190.12,28.03
				c0,0,0.68-0.96,3.15-1.02c8.88-0.24,26.23-0.36,36.68-2.02c-0.02-0.06-0.04-0.11-0.07-0.17c-0.45-1.03-1.14-2.03-1.9-2.72
				c-0.45-0.42-0.64-1.06-0.24-1.59c0.33-0.45,1.14-0.66,1.59-0.24c1.31,1.21,2.24,2.7,2.83,4.33c0.45-0.09,0.91-0.18,1.32-0.28
				c0.99-0.24,7.22,0.51,7.01,1c-1.19,2.73-2.39,1.88-4.63,2.91c-2.48,1.14-5.56,1.7-8.56,2.15l-0.71,0.77
				c-0.01,0-0.02-0.02-0.04-0.02c-0.67-0.15-1.31-0.03-1.93,0.22l0.62-0.68c-1,0.14-1.97,0.28-2.88,0.43
				c-6.06,1.02-21.45,3.32-27.58,3.67c-2.58,0.15-5.07-1.42-5.07-1.42c-17.66,0.3-28.67-1.69-46.05-4.62
				c-35.61-6-70.56-15.86-106.56-19.47c-14.53-1.46-29.2-1.87-43.76-0.49c-47.32,4.47-90.71,27.4-131.72,51.42
				c-14.32,8.39-28.59,17.04-42.43,26.27c0.27,0.79,0.28,1.42-0.14,1.67c-2.05,1.24-9.58,6.97-18.64,14.09l-1.82,1.43
				c-6.47,4.38-23.23,18.75-27.32,22.05c0,0-0.21,0.16-0.21,0.16c-0.2,0.16-0.38,0.32-0.57,0.48c-0.01,0.01-0.03,0.03-0.04,0.03
				c0,0,0,0,0,0c-1.27,1.06-2.49,2.08-3.6,3.02c-1.17,0.99-2.23,1.31-3.17,1.21c-4.72,4.64-9.3,9.43-13.68,14.43
				c-31.23,35.7-51.37,79.36-65.88,124.8c-0.35,1.09,0.49,2.01,0.14,3.1c-3.67,11.72-8.15,23.72-11.18,35.54
				c-2.08,8.1-5.11,17.41-9.24,22.92l2.53,0.29l-1.02,0.61l0.39,0.66l-2.89-0.33c-1.52,1.72-3.19,2.92-5,3.36
				c-1.8,0.5-2.55-1.13-2.55-4.2c-0.92-0.16-1.92-0.32-2.37-0.14C170.86,402.93,170.7,401.77,171.08,401.58z"/>
		</g>
		<g>
			<polygon points="433.41,371.19 431.6,370.51 432.93,360.5 442.38,364.05 441.96,366.14 435.8,365.29 			"/>
		</g>
		<g>
			<polygon points="431.2,367.49 429.39,366.81 430.72,356.81 440.17,360.35 439.75,362.44 433.59,361.6 			"/>
		</g>
		<g>
			<polygon points="428.98,363.8 427.18,363.12 428.5,353.12 437.95,356.66 437.53,358.75 431.38,357.91 			"/>
		</g>
		<g>
			<polygon points="426.77,360.11 424.96,359.43 426.29,349.42 435.74,352.97 435.32,355.06 429.16,354.21 			"/>
		</g>
		<g>
			<polygon points="424.56,356.42 422.76,355.74 424.08,345.74 433.53,349.28 433.11,351.37 426.96,350.53 			"/>
		</g>
		<g>
			<polygon points="438.88,370.46 439.12,370.25 746.33,102.32 744.93,100.72 437.96,368.43 181.03,402.7 181.31,404.81 			"/>
		</g>
	</g>
</g>
</svg>
