# 3ds Max Wavefront OBJ Exporter v0.97b - (c)2007 guruware
# File Created: 15.10.2021 15:33:01

mtllib Chess_Board_V1.mtl

#
# object Chess_Board_Copy
#

v  -400.000000 30.000000 400.000000
v  400.000000 30.000000 -400.000000
v  -400.000000 5.000004 400.000000
v  400.000000 5.000004 -400.000000
v  -300.000000 30.000000 300.000000
v  -200.000000 30.000000 300.000000
v  -100.000008 30.000000 300.000000
v  -0.000007 30.000000 300.000000
v  -300.000000 30.000000 200.000000
v  -200.000000 30.000000 200.000000
v  -100.000000 30.000000 200.000000
v  -200.000000 30.000000 100.000000
v  400.000000 30.000000 100.000008
v  -400.000000 30.000000 -0.000009
v  -300.000000 30.000000 -0.000007
v  -200.000000 30.000000 -0.000004
v  -100.000000 30.000000 -0.000002
v  0.000000 30.000000 -0.000000
v  300.000000 30.000000 0.000007
v  -400.000000 30.000000 -100.000008
v  -300.000000 30.000000 -100.000008
v  -200.000000 30.000000 -100.000000
v  -100.000000 30.000000 -100.000000
v  0.000002 30.000000 -100.000000
v  200.000000 30.000000 -100.000000
v  300.000000 30.000000 -99.999992
v  400.000000 30.000000 -99.999992
v  -400.000000 30.000000 -200.000000
v  -300.000000 30.000000 -200.000000
v  -200.000000 30.000000 -200.000000
v  -100.000000 30.000000 -200.000000
v  0.000004 30.000000 -200.000000
v  400.000000 30.000000 -200.000000
v  -400.000000 30.000000 -300.000000
v  -200.000000 30.000000 -300.000000
v  -99.999992 30.000000 -300.000000
v  200.000000 30.000000 -300.000000
v  400.000000 30.000000 -300.000000
v  -300.000000 30.000000 -400.000000
v  -200.000000 30.000000 -400.000000
v  -99.999992 30.000000 -400.000000
v  0.000009 30.000000 -400.000000
v  -300.000000 5.000004 400.000000
v  -200.000000 5.000004 400.000000
v  -100.000008 5.000004 400.000000
v  -400.000000 5.000004 200.000000
v  -400.000000 5.000004 -0.000009
v  -400.000000 5.000004 -200.000000
v  -400.000000 5.000004 -300.000000
v  -300.000000 5.000004 -400.000000
v  -200.000000 5.000004 -400.000000
v  0.000009 5.000004 -400.000000
v  100.000008 5.000004 -400.000000
v  200.000000 5.000004 -400.000000
v  300.000000 5.000004 -400.000000
v  -399.999969 30.000000 -400.000031
v  399.999969 30.000000 400.000031
v  -399.999969 5.000004 -400.000031
v  399.999969 5.000004 400.000031
v  -400.000000 30.000000 99.999992
v  -400.000000 30.000000 200.000000
v  -400.000000 30.000000 300.000000
v  -300.000000 30.000000 -300.000000
v  -300.000000 30.000000 99.999992
v  -300.000000 30.000000 400.000000
v  -200.000000 30.000000 400.000000
v  -100.000000 30.000000 100.000000
v  -100.000008 30.000000 400.000000
v  0.000007 30.000000 -300.000000
v  -0.000002 30.000000 100.000000
v  -0.000004 30.000000 200.000000
v  -0.000009 30.000000 400.000000
v  100.000008 30.000000 -400.000000
v  100.000008 30.000000 -300.000000
v  100.000000 30.000000 -200.000000
v  100.000000 30.000000 -100.000000
v  100.000000 30.000000 0.000002
v  100.000000 30.000000 100.000000
v  100.000000 30.000000 200.000000
v  99.999992 30.000000 300.000000
v  99.999992 30.000000 400.000000
v  200.000000 30.000000 -400.000000
v  200.000000 30.000000 -200.000000
v  200.000000 30.000000 0.000004
v  200.000000 30.000000 100.000000
v  200.000000 30.000000 200.000000
v  200.000000 30.000000 300.000000
v  200.000000 30.000000 400.000000
v  300.000000 30.000000 -400.000000
v  300.000000 30.000000 -300.000000
v  300.000000 30.000000 -200.000000
v  300.000000 30.000000 100.000008
v  300.000000 30.000000 200.000000
v  300.000000 30.000000 300.000000
v  300.000000 30.000000 400.000000
v  400.000000 30.000000 0.000009
v  400.000000 30.000000 200.000000
v  400.000000 30.000000 300.000000
v  -400.000000 5.000004 -100.000008
v  -400.000000 5.000004 99.999992
v  -400.000000 5.000004 300.000000
v  -99.999992 5.000004 -400.000000
v  -0.000008 5.000004 400.000000
v  99.999992 5.000004 400.000000
v  200.000000 5.000004 400.000000
v  300.000000 5.000004 400.000000
v  400.000000 5.000004 -300.000000
v  400.000000 5.000004 -200.000000
v  400.000000 5.000004 -99.999992
v  400.000000 5.000004 0.000008
v  400.000000 5.000004 100.000008
v  400.000000 5.000004 200.000000
v  400.000000 5.000004 300.000000
v  -525.000000 30.000000 525.000000
v  525.000000 30.000000 525.000000
v  -525.000000 30.000000 -525.000000
v  525.000000 30.000000 -525.000000
v  -525.000000 0.000000 525.000000
v  525.000000 0.000000 525.000000
v  -525.000000 0.000000 -525.000000
v  525.000000 0.000000 -525.000000
v  -405.000000 30.000000 -405.000000
v  -405.000000 30.000000 405.000000
v  405.000000 30.000000 405.000000
v  405.000000 30.000000 -405.000000
v  -405.000000 25.000000 -405.000000
v  -405.000000 25.000000 405.000000
v  405.000000 25.000000 405.000000
v  405.000000 25.000000 -405.000000
v  -390.000000 25.000000 -390.000000
v  -390.000000 25.000000 390.000000
v  390.000000 25.000000 390.000000
v  390.000000 25.000000 -390.000000
# 133 vertices

vn -0.707107 0.707107 -0.000000
vn -0.577350 0.577350 0.577350
vn 0.000000 0.707107 0.707107
vn 0.000000 1.000000 -0.000000
vn -0.000000 0.707107 0.707107
vn 0.707107 0.707107 0.000000
vn 0.707107 0.707107 -0.000000
vn 0.000000 0.707107 -0.707107
vn 0.577350 0.577350 -0.577350
vn -1.000000 0.000000 -0.000000
vn -0.707107 0.000000 0.707107
vn 0.000000 0.000000 1.000000
vn -0.000000 0.000000 1.000000
vn 1.000000 0.000000 0.000000
vn 1.000000 0.000000 -0.000000
vn 0.000000 0.000000 -1.000000
vn 0.707107 0.000000 -0.707107
vn -0.577350 0.577350 -0.577350
vn 0.577350 0.577350 0.577350
vn -0.707107 0.000000 -0.707107
vn 0.707107 0.000000 0.707107
vn 0.577350 -0.577350 -0.577350
vn 0.577350 -0.577350 0.577350
vn -0.577350 -0.577350 0.577350
vn -0.577350 -0.577350 -0.577350
vn 0.301511 0.904534 -0.301511
vn 0.301511 0.904534 0.301511
vn -0.301511 0.904534 -0.301511
vn -0.301511 0.904534 0.301511
# 29 vertex normals

vt 0.507686 0.149574 0.000000
vt 0.508857 0.083441 0.000000
vt 0.574993 0.083439 0.000000
vt 0.573822 0.149575 0.000000
vt 0.166715 0.106227 0.000000
vt 0.166715 0.172367 0.000000
vt 0.100575 0.172367 0.000000
vt 0.100575 0.106227 0.000000
vt 0.019955 0.294248 0.000000
vt 0.019955 0.228108 0.000000
vt 0.086094 0.228108 0.000000
vt 0.086094 0.294248 0.000000
vt 0.019955 0.100424 0.000000
vt 0.019955 0.034285 0.000000
vt 0.086094 0.034285 0.000000
vt 0.086094 0.100424 0.000000
vt 0.260153 0.292562 0.000000
vt 0.260153 0.226422 0.000000
vt 0.326292 0.226422 0.000000
vt 0.326292 0.292562 0.000000
vt 0.260153 0.212713 0.000000
vt 0.260153 0.146574 0.000000
vt 0.326292 0.146574 0.000000
vt 0.326292 0.212713 0.000000
vt 0.411319 0.212713 0.000000
vt 0.411319 0.146574 0.000000
vt 0.477459 0.146574 0.000000
vt 0.477459 0.212713 0.000000
vt 0.586689 0.207401 0.000000
vt 0.586689 0.141261 0.000000
vt 0.662071 0.141261 0.000000
vt 0.662071 0.207401 0.000000
vt 0.756860 0.141261 0.000000
vt 0.756860 0.207401 0.000000
vt 0.690721 0.207401 0.000000
vt 0.690721 0.141261 0.000000
vt 0.960922 0.141261 0.000000
vt 0.960922 0.207401 0.000000
vt 0.894782 0.207401 0.000000
vt 0.894782 0.141261 0.000000
vt 0.180364 0.212713 0.000000
vt 0.180364 0.146574 0.000000
vt 0.246504 0.146574 0.000000
vt 0.246504 0.212713 0.000000
vt 0.817210 0.283215 0.000000
vt 0.817210 0.217076 0.000000
vt 0.883349 0.217076 0.000000
vt 0.883349 0.283215 0.000000
vt 0.180364 0.292562 0.000000
vt 0.180364 0.226422 0.000000
vt 0.246504 0.226422 0.000000
vt 0.246504 0.292562 0.000000
vt 0.694105 0.283215 0.000000
vt 0.694105 0.217076 0.000000
vt 0.760245 0.217076 0.000000
vt 0.760245 0.283215 0.000000
vt 0.100575 0.090669 0.000000
vt 0.100575 0.024530 0.000000
vt 0.166715 0.024530 0.000000
vt 0.166715 0.090669 0.000000
vt 0.687113 0.129738 0.000000
vt 0.687113 0.063598 0.000000
vt 0.753253 0.063598 0.000000
vt 0.753253 0.129738 0.000000
vt 0.823845 0.207401 0.000000
vt 0.823845 0.141261 0.000000
vt 0.889984 0.141261 0.000000
vt 0.889984 0.207401 0.000000
vt 0.887816 0.283215 0.000000
vt 0.887816 0.217076 0.000000
vt 0.953956 0.217076 0.000000
vt 0.953956 0.283215 0.000000
vt 0.337538 0.131016 0.000000
vt 0.337538 0.064876 0.000000
vt 0.403678 0.064876 0.000000
vt 0.403678 0.131016 0.000000
vt 0.337538 0.212713 0.000000
vt 0.337538 0.146574 0.000000
vt 0.403678 0.146574 0.000000
vt 0.403678 0.212713 0.000000
vt 0.260153 0.131016 0.000000
vt 0.260153 0.064876 0.000000
vt 0.326292 0.064876 0.000000
vt 0.326292 0.131016 0.000000
vt 0.592089 0.283215 0.000000
vt 0.592089 0.217076 0.000000
vt 0.658229 0.217076 0.000000
vt 0.658229 0.283215 0.000000
vt 0.411319 0.131016 0.000000
vt 0.411319 0.064876 0.000000
vt 0.477459 0.064876 0.000000
vt 0.477459 0.131016 0.000000
vt 0.891662 0.129738 0.000000
vt 0.891662 0.063598 0.000000
vt 0.957802 0.063598 0.000000
vt 0.957802 0.129738 0.000000
vt 0.871057 0.063598 0.000000
vt 0.871057 0.129738 0.000000
vt 0.804918 0.129738 0.000000
vt 0.804918 0.063598 0.000000
vt 0.411319 0.292562 0.000000
vt 0.411319 0.226422 0.000000
vt 0.477459 0.226422 0.000000
vt 0.477459 0.292562 0.000000
vt 0.180364 0.131016 0.000000
vt 0.180364 0.064876 0.000000
vt 0.246504 0.064876 0.000000
vt 0.246504 0.131016 0.000000
vt 0.337538 0.292562 0.000000
vt 0.337538 0.226422 0.000000
vt 0.403678 0.226422 0.000000
vt 0.403678 0.292562 0.000000
vt 0.100575 0.272389 0.000000
vt 0.100575 0.206249 0.000000
vt 0.166715 0.206249 0.000000
vt 0.166715 0.272389 0.000000
vt 0.654478 0.129738 0.000000
vt 0.588339 0.129738 0.000000
vt 0.588339 0.063598 0.000000
vt 0.654478 0.063598 0.000000
vt 0.019955 0.178418 0.000000
vt 0.019955 0.112279 0.000000
vt 0.086094 0.112279 0.000000
vt 0.086094 0.178418 0.000000
vt 0.487847 0.227574 0.000000
vt 0.487847 0.161434 0.000000
vt 0.553986 0.161434 0.000000
vt 0.553986 0.227574 0.000000
vt 0.487847 0.149221 0.000000
vt 0.489018 0.083091 0.000000
vt 0.508857 0.063598 0.000000
vt 0.574993 0.063598 0.000000
vt 0.166715 0.192208 0.000000
vt 0.100575 0.192208 0.000000
vt 0.019955 0.208266 0.000000
vt 0.086094 0.208266 0.000000
vt 0.019955 0.014443 0.000000
vt 0.086094 0.014443 0.000000
vt 0.681913 0.141261 0.000000
vt 0.681913 0.207401 0.000000
vt 0.776702 0.141261 0.000000
vt 0.776702 0.207401 0.000000
vt 0.773095 0.063598 0.000000
vt 0.773095 0.129738 0.000000
vt 0.804003 0.207401 0.000000
vt 0.804003 0.141261 0.000000
vt 0.977644 0.063598 0.000000
vt 0.977644 0.129738 0.000000
vt 0.890899 0.063598 0.000000
vt 0.890899 0.129738 0.000000
vt 0.166715 0.292231 0.000000
vt 0.100575 0.292231 0.000000
vt 0.674320 0.063598 0.000000
vt 0.674320 0.129738 0.000000
vt 0.086094 0.198260 0.000000
vt 0.019955 0.198260 0.000000
vt 0.553986 0.247416 0.000000
vt 0.487847 0.247416 0.000000
vt 0.573828 0.161434 0.000000
vt 0.573828 0.227574 0.000000
vt 0.887555 0.509606 0.000000
vt 0.888726 0.443473 0.000000
vt 0.954861 0.443472 0.000000
vt 0.953691 0.509608 0.000000
vt 0.717744 0.794996 0.000000
vt 0.717744 0.861136 0.000000
vt 0.651604 0.861136 0.000000
vt 0.651604 0.794996 0.000000
vt 0.570984 0.983941 0.000000
vt 0.570984 0.917802 0.000000
vt 0.637123 0.917802 0.000000
vt 0.637123 0.983941 0.000000
vt 0.570984 0.788269 0.000000
vt 0.570984 0.722130 0.000000
vt 0.637123 0.722130 0.000000
vt 0.637123 0.788269 0.000000
vt 0.811182 0.982255 0.000000
vt 0.811182 0.916116 0.000000
vt 0.877321 0.916116 0.000000
vt 0.877321 0.982255 0.000000
vt 0.811182 0.901482 0.000000
vt 0.811182 0.835343 0.000000
vt 0.877321 0.835343 0.000000
vt 0.877321 0.901482 0.000000
vt 0.733198 0.740569 0.000000
vt 0.733198 0.674429 0.000000
vt 0.799337 0.674429 0.000000
vt 0.799337 0.740569 0.000000
vt 0.736206 0.661448 0.000000
vt 0.736206 0.595308 0.000000
vt 0.802346 0.595308 0.000000
vt 0.802346 0.661448 0.000000
vt 0.909577 0.596510 0.000000
vt 0.909577 0.662650 0.000000
vt 0.843438 0.662650 0.000000
vt 0.843438 0.596510 0.000000
vt 0.741758 0.443342 0.000000
vt 0.741758 0.509481 0.000000
vt 0.675619 0.509481 0.000000
vt 0.675619 0.443342 0.000000
vt 0.731393 0.901482 0.000000
vt 0.731393 0.835343 0.000000
vt 0.797532 0.835343 0.000000
vt 0.797532 0.901482 0.000000
vt 0.882726 0.586327 0.000000
vt 0.882726 0.520188 0.000000
vt 0.948866 0.520188 0.000000
vt 0.948866 0.586327 0.000000
vt 0.731393 0.982255 0.000000
vt 0.731393 0.916116 0.000000
vt 0.797532 0.916116 0.000000
vt 0.797532 0.982255 0.000000
vt 0.890222 0.742993 0.000000
vt 0.890222 0.676853 0.000000
vt 0.956361 0.676853 0.000000
vt 0.956361 0.742993 0.000000
vt 0.651604 0.778514 0.000000
vt 0.651604 0.712374 0.000000
vt 0.717744 0.712374 0.000000
vt 0.717744 0.778514 0.000000
vt 0.766493 0.508996 0.000000
vt 0.766493 0.442857 0.000000
vt 0.832633 0.442857 0.000000
vt 0.832633 0.508996 0.000000
vt 0.792402 0.587228 0.000000
vt 0.792402 0.521089 0.000000
vt 0.858542 0.521089 0.000000
vt 0.858542 0.587228 0.000000
vt 0.781786 0.431218 0.000000
vt 0.781786 0.365079 0.000000
vt 0.847926 0.365079 0.000000
vt 0.847926 0.431218 0.000000
vt 0.888567 0.818860 0.000000
vt 0.888567 0.752721 0.000000
vt 0.954707 0.752721 0.000000
vt 0.954707 0.818860 0.000000
vt 0.888567 0.901482 0.000000
vt 0.888567 0.835343 0.000000
vt 0.954707 0.835343 0.000000
vt 0.954707 0.901482 0.000000
vt 0.811182 0.818860 0.000000
vt 0.811182 0.752721 0.000000
vt 0.877321 0.752721 0.000000
vt 0.877321 0.818860 0.000000
vt 0.814994 0.741791 0.000000
vt 0.814994 0.675652 0.000000
vt 0.881134 0.675652 0.000000
vt 0.881134 0.741791 0.000000
vt 0.653895 0.695195 0.000000
vt 0.653895 0.629056 0.000000
vt 0.720034 0.629056 0.000000
vt 0.720034 0.695195 0.000000
vt 0.866965 0.415274 0.000000
vt 0.866965 0.349135 0.000000
vt 0.933104 0.349135 0.000000
vt 0.933104 0.415274 0.000000
vt 0.638489 0.442857 0.000000
vt 0.638489 0.508996 0.000000
vt 0.572350 0.508996 0.000000
vt 0.572350 0.442857 0.000000
vt 0.574592 0.689170 0.000000
vt 0.574592 0.623031 0.000000
vt 0.640731 0.623031 0.000000
vt 0.640731 0.689170 0.000000
vt 0.731393 0.818860 0.000000
vt 0.731393 0.752721 0.000000
vt 0.797532 0.752721 0.000000
vt 0.797532 0.818860 0.000000
vt 0.888567 0.982255 0.000000
vt 0.888567 0.916116 0.000000
vt 0.954707 0.916116 0.000000
vt 0.954707 0.982255 0.000000
vt 0.651604 0.962082 0.000000
vt 0.651604 0.895943 0.000000
vt 0.717744 0.895943 0.000000
vt 0.717744 0.962082 0.000000
vt 0.742930 0.586281 0.000000
vt 0.676791 0.586281 0.000000
vt 0.676791 0.520141 0.000000
vt 0.742930 0.520141 0.000000
vt 0.570984 0.867188 0.000000
vt 0.570984 0.801048 0.000000
vt 0.637123 0.801048 0.000000
vt 0.637123 0.867188 0.000000
vt 0.573333 0.589655 0.000000
vt 0.573333 0.523516 0.000000
vt 0.639473 0.523516 0.000000
vt 0.639473 0.589655 0.000000
vt 0.867716 0.509254 0.000000
vt 0.868886 0.443124 0.000000
vt 0.888726 0.423632 0.000000
vt 0.954861 0.423632 0.000000
vt 0.717744 0.880977 0.000000
vt 0.651604 0.880977 0.000000
vt 0.570984 0.897960 0.000000
vt 0.637123 0.897960 0.000000
vt 0.570984 0.702288 0.000000
vt 0.637123 0.702288 0.000000
vt 0.822187 0.595308 0.000000
vt 0.822187 0.661448 0.000000
vt 0.929419 0.596510 0.000000
vt 0.929419 0.662650 0.000000
vt 0.852475 0.442857 0.000000
vt 0.852475 0.508996 0.000000
vt 0.772561 0.587228 0.000000
vt 0.772561 0.521089 0.000000
vt 0.952946 0.349135 0.000000
vt 0.952946 0.415274 0.000000
vt 0.658331 0.442857 0.000000
vt 0.658331 0.508996 0.000000
vt 0.717744 0.981924 0.000000
vt 0.651604 0.981924 0.000000
vt 0.762772 0.520141 0.000000
vt 0.762772 0.586281 0.000000
vt 0.637123 0.887029 0.000000
vt 0.570984 0.887029 0.000000
vt 0.639473 0.609497 0.000000
vt 0.573333 0.609497 0.000000
vt 0.659315 0.523516 0.000000
vt 0.659315 0.589655 0.000000
vt 0.496967 0.511818 0.000000
vt 0.496967 0.949648 0.000000
vt 0.059136 0.949648 0.000000
vt 0.059136 0.511818 0.000000
vt 0.076333 0.525806 0.000000
vt 0.076333 0.963637 0.000000
vt 0.063824 0.963637 0.000000
vt 0.063824 0.525806 0.000000
vt 0.399485 0.963037 0.000000
vt 0.399485 0.525205 0.000000
vt 0.411994 0.525205 0.000000
vt 0.411994 0.963037 0.000000
vt 0.211867 0.962089 0.000000
vt 0.211867 0.524258 0.000000
vt 0.224377 0.524258 0.000000
vt 0.224377 0.962089 0.000000
vt 0.261270 0.525193 0.000000
vt 0.261270 0.963024 0.000000
vt 0.248761 0.963024 0.000000
vt 0.248761 0.525193 0.000000
vt 0.126371 0.575843 0.000000
vt 0.126371 0.913599 0.000000
vt 0.311308 0.575231 0.000000
vt 0.311308 0.912986 0.000000
vt 0.161829 0.912051 0.000000
vt 0.161829 0.574296 0.000000
vt 0.349447 0.912999 0.000000
vt 0.349447 0.575243 0.000000
vt 0.128456 0.575843 0.000000
vt 0.128456 0.913599 0.000000
vt 0.313393 0.575231 0.000000
vt 0.313393 0.912986 0.000000
vt 0.159745 0.912051 0.000000
vt 0.159745 0.574296 0.000000
vt 0.347362 0.912999 0.000000
vt 0.347362 0.575243 0.000000
vt 0.134710 0.582098 0.000000
vt 0.134710 0.907344 0.000000
vt 0.319648 0.581486 0.000000
vt 0.319648 0.906732 0.000000
vt 0.153490 0.905797 0.000000
vt 0.153490 0.580551 0.000000
vt 0.341107 0.906744 0.000000
vt 0.341107 0.581498 0.000000
# 364 texture coords

o Chess_Board_Copy
g Chess_Board_Copy
usemtl 02___Default
s 1
f -72/-364/-29 -133/-363/-28 -69/-362/-27 -129/-361/-26 
f -128/-360/-26 -68/-359/-27 -66/-358/-27 -127/-357/-26 
f -126/-356/-26 -62/-355/-27 -53/-354/-27 -54/-353/-26 
f -47/-352/-26 -46/-351/-27 -39/-350/-25 -40/-349/-26 
f -125/-348/-26 -129/-347/-26 -128/-346/-26 -124/-345/-26 
f -123/-344/-26 -127/-343/-26 -126/-342/-26 -63/-341/-26 
f -55/-340/-26 -54/-339/-26 -47/-338/-26 -48/-337/-26 
f -41/-336/-26 -40/-335/-26 -36/-334/-24 -37/-333/-23 
f -74/-332/-29 -73/-331/-29 -125/-330/-26 -70/-329/-26 
f -122/-328/-26 -124/-327/-26 -123/-326/-26 -67/-325/-26 
f -64/-324/-26 -63/-323/-26 -55/-322/-26 -56/-321/-26 
f -49/-320/-26 -48/-319/-26 -41/-318/-26 -42/-317/-26 
f -119/-316/-26 -70/-315/-26 -122/-314/-26 -118/-313/-26 
f -117/-312/-26 -67/-311/-26 -64/-310/-26 -116/-309/-26 
f -57/-308/-26 -56/-307/-26 -49/-306/-26 -50/-305/-26 
f -115/-304/-26 -42/-303/-26 -121/-302/-23 -38/-301/-23 
f -114/-300/-29 -120/-299/-29 -119/-298/-26 -113/-297/-26 
f -112/-296/-26 -118/-295/-26 -117/-294/-26 -111/-293/-26 
f -110/-292/-26 -116/-291/-26 -57/-290/-26 -58/-289/-26 
f -109/-288/-26 -50/-287/-26 -115/-286/-26 -108/-285/-26 
f -105/-284/-26 -113/-283/-26 -112/-282/-26 -104/-281/-26 
f -103/-280/-26 -111/-279/-26 -110/-278/-26 -102/-277/-26 
f -59/-276/-26 -58/-275/-26 -109/-274/-26 -51/-273/-26 
f -43/-272/-26 -108/-271/-26 -107/-270/-23 -101/-269/-23 
f -100/-268/-29 -106/-267/-29 -105/-266/-26 -71/-265/-26 
f -99/-264/-26 -104/-263/-26 -103/-262/-26 -98/-261/-26 
f -65/-260/-26 -102/-259/-26 -59/-258/-26 -60/-257/-26 
f -97/-256/-26 -51/-255/-26 -43/-254/-26 -44/-253/-26 
f -95/-252/-22 -71/-251/-26 -99/-250/-26 -94/-249/-22 
f -93/-248/-22 -98/-247/-26 -65/-246/-26 -92/-245/-22 
f -61/-244/-22 -60/-243/-26 -97/-242/-26 -52/-241/-22 
f -45/-240/-22 -44/-239/-26 -96/-238/-23 -132/-237/-21 
s off
f -133/-363/-28 -72/-364/-29 -33/-236/-20 -131/-235/-19 
f -69/-362/-27 -133/-363/-28 -131/-234/-19 -91/-233/-18 
f -66/-358/-27 -68/-359/-27 -90/-232/-18 -89/-231/-18 
f -53/-354/-27 -62/-355/-27 -31/-230/-18 -30/-229/-18 
f -39/-350/-25 -46/-351/-27 -29/-228/-18 -28/-227/-17 
f -37/-333/-23 -36/-334/-24 -21/-226/-16 -22/-225/-15 
f -73/-331/-29 -74/-332/-29 -34/-224/-20 -88/-223/-20 
f -38/-301/-23 -121/-302/-23 -23/-222/-15 -24/-221/-15 
f -120/-299/-29 -114/-300/-29 -35/-220/-20 -87/-219/-20 
f -101/-269/-23 -107/-270/-23 -25/-218/-15 -26/-217/-15 
f -106/-267/-29 -100/-268/-29 -85/-216/-20 -86/-215/-20 
f -95/-252/-22 -94/-249/-22 -83/-214/-14 -84/-213/-14 
f -93/-248/-22 -92/-245/-22 -82/-212/-14 -32/-211/-14 
f -61/-244/-22 -52/-241/-22 -80/-210/-14 -81/-209/-14 
f -45/-240/-22 -132/-237/-21 -130/-208/-13 -79/-207/-14 
f -132/-237/-21 -96/-238/-23 -27/-206/-15 -130/-205/-13 
s 1
f -95/-204/-22 -78/-203/-12 -100/-202/-29 -71/-201/-26 
f -105/-200/-26 -106/-199/-29 -114/-198/-29 -113/-197/-26 
f -119/-196/-26 -120/-195/-29 -74/-194/-29 -70/-193/-26 
f -125/-192/-26 -73/-191/-29 -72/-190/-29 -129/-189/-26 
f -99/-188/-26 -71/-187/-26 -105/-186/-26 -104/-185/-26 
f -112/-184/-26 -113/-183/-26 -119/-182/-26 -118/-181/-26 
f -122/-180/-26 -70/-179/-26 -125/-178/-26 -124/-177/-26 
f -128/-176/-26 -129/-175/-26 -69/-174/-27 -68/-173/-27 
f -93/-172/-22 -94/-171/-22 -99/-170/-26 -98/-169/-26 
f -103/-168/-26 -104/-167/-26 -112/-166/-26 -111/-165/-26 
f -117/-164/-26 -118/-163/-26 -122/-162/-26 -67/-161/-26 
f -123/-160/-26 -124/-159/-26 -128/-158/-26 -127/-157/-26 
f -65/-156/-26 -98/-155/-26 -103/-154/-26 -102/-153/-26 
f -110/-152/-26 -111/-151/-26 -117/-150/-26 -116/-149/-26 
f -64/-148/-26 -67/-147/-26 -123/-146/-26 -63/-145/-26 
f -126/-144/-26 -127/-143/-26 -66/-142/-27 -62/-141/-27 
f -61/-140/-22 -92/-139/-22 -65/-138/-26 -60/-137/-26 
f -59/-136/-26 -102/-135/-26 -110/-134/-26 -58/-133/-26 
f -57/-132/-26 -116/-131/-26 -64/-130/-26 -56/-129/-26 
f -55/-128/-26 -63/-127/-26 -126/-126/-26 -54/-125/-26 
f -97/-124/-26 -60/-123/-26 -59/-122/-26 -51/-121/-26 
f -109/-120/-26 -58/-119/-26 -57/-118/-26 -50/-117/-26 
f -49/-116/-26 -56/-115/-26 -55/-114/-26 -48/-113/-26 
f -47/-112/-26 -54/-111/-26 -53/-110/-27 -46/-109/-27 
f -45/-108/-22 -52/-107/-22 -97/-106/-26 -44/-105/-26 
f -43/-104/-26 -51/-103/-26 -109/-102/-26 -108/-101/-26 
f -115/-100/-26 -50/-99/-26 -49/-98/-26 -42/-97/-26 
f -41/-96/-26 -48/-95/-26 -47/-94/-26 -40/-93/-26 
f -96/-92/-23 -44/-91/-26 -43/-90/-26 -101/-89/-23 
f -107/-88/-23 -108/-87/-26 -115/-86/-26 -38/-85/-23 
f -121/-84/-23 -42/-83/-26 -41/-82/-26 -37/-81/-23 
f -36/-80/-24 -40/-79/-26 -39/-78/-25 -77/-77/-11 
s off
f -78/-203/-12 -95/-204/-22 -84/-76/-14 -76/-75/-10 
f -100/-202/-29 -78/-203/-12 -76/-74/-10 -85/-73/-20 
f -114/-198/-29 -106/-199/-29 -86/-72/-20 -35/-71/-20 
f -74/-194/-29 -120/-195/-29 -87/-70/-20 -34/-69/-20 
f -72/-190/-29 -73/-191/-29 -88/-68/-20 -33/-67/-20 
f -68/-173/-27 -69/-174/-27 -91/-66/-18 -90/-65/-18 
f -94/-171/-22 -93/-172/-22 -32/-64/-14 -83/-63/-14 
f -62/-141/-27 -66/-142/-27 -89/-62/-18 -31/-61/-18 
f -92/-139/-22 -61/-140/-22 -81/-60/-14 -82/-59/-14 
f -46/-109/-27 -53/-110/-27 -30/-58/-18 -29/-57/-18 
f -52/-107/-22 -45/-108/-22 -79/-56/-14 -80/-55/-14 
f -96/-92/-23 -101/-89/-23 -26/-54/-15 -27/-53/-15 
f -107/-88/-23 -38/-85/-23 -24/-52/-15 -25/-51/-15 
f -121/-84/-23 -37/-81/-23 -22/-50/-15 -23/-49/-15 
f -36/-80/-24 -77/-77/-11 -75/-48/-9 -21/-47/-16 
f -77/-77/-11 -39/-78/-25 -28/-46/-17 -75/-45/-9 
s 1
f -13/-44/-8 -15/-43/-7 -16/-42/-6 -14/-41/-5 
s 2
f -20/-40/-28 -18/-39/-12 -14/-38/-5 -16/-37/-6 
s 4
f -18/-36/-12 -17/-35/-21 -13/-34/-8 -14/-33/-5 
s 2
f -17/-32/-21 -19/-31/-11 -15/-30/-7 -13/-29/-8 
s 4
f -19/-28/-11 -20/-27/-28 -16/-26/-6 -15/-25/-7 
s off
f -18/-39/-12 -20/-40/-28 -11/-24/-4 -12/-23/-3 
f -20/-27/-28 -19/-28/-11 -10/-22/-2 -11/-21/-4 
f -19/-31/-11 -17/-32/-21 -9/-20/-1 -10/-19/-2 
f -17/-35/-21 -18/-36/-12 -12/-18/-3 -9/-17/-1 
f -12/-23/-3 -11/-24/-4 -7/-16/-21 -8/-15/-11 
f -11/-21/-4 -10/-22/-2 -6/-14/-12 -7/-13/-21 
f -10/-19/-2 -9/-20/-1 -5/-12/-28 -6/-11/-12 
f -9/-17/-1 -12/-18/-3 -8/-10/-11 -5/-9/-28 
f -8/-15/-11 -7/-16/-21 -3/-8/-26 -4/-7/-26 
f -7/-13/-21 -6/-14/-12 -2/-6/-26 -3/-5/-26 
f -6/-11/-12 -5/-12/-28 -1/-4/-26 -2/-3/-26 
f -5/-9/-28 -8/-10/-11 -4/-2/-26 -1/-1/-26 
# 113 polygons

